<?xml version="1.0" encoding="UTF-8" standalone="no"?>
<svg width="2823px" height="785px" viewBox="0 0 2823 785" version="1.1" xmlns="http://www.w3.org/2000/svg" xmlns:xlink="http://www.w3.org/1999/xlink" xmlns:sketch="http://www.bohemiancoding.com/sketch/ns">
    <!-- Generator: Sketch 3.3.2 (12043) - http://www.bohemiancoding.com/sketch -->
    <title>canvas</title>
    <desc>Created with Sketch.</desc>
    <defs></defs>
    <g id="Buttons" stroke="none" stroke-width="1" fill="none" fill-rule="evenodd" sketch:type="MSPage">
        <g id="canvas" sketch:type="MSArtboardGroup">
            <g id="vegan-sans" sketch:type="MSLayerGroup" transform="translate(49.640001, 23.800000)">
                <g id="a" sketch:type="MSShapeGroup">
                    <path d="M204.116282,102.102001 C204.116282,158.438302 158.428102,204.102342 102.096901,204.102342 C45.7782805,204.102342 0.091460001,158.438302 0.091460001,102.102001 C0.091460001,45.7765805 45.7782805,0.101660001 102.096901,0.101660001 C158.428102,0.101660001 204.116282,45.7769205 204.116282,102.102001 L204.116282,102.102001 Z" id="Shape" fill="#FFFF00"></path>
                    <path d="M120.980161,156.248362 L120.980161,143.550382 C110.909021,153.183262 98.648621,159.532422 84.1993009,159.532422 C62.0870607,159.532422 49.6077005,147.490982 49.6077005,128.881761 C49.6077005,109.615661 64.0573607,91.881941 104.559861,91.881941 C109.814561,91.881941 115.068581,92.319861 120.980161,92.757781 L120.980161,80.2784208 C120.980161,61.6692006 112.003821,57.5093006 102.151641,57.5093006 C88.1399009,57.5093006 81.1342009,63.6395007 80.4773208,80.4973808 L53.1107206,80.4973808 C53.9865606,52.6928606 73.0337008,39.1190404 102.151641,39.1190404 C123.388381,39.1190404 148.346762,46.5626605 148.346762,76.9943608 L148.346762,156.248022 L120.980161,156.248022 L120.980161,156.248362 Z M120.980161,108.083281 C115.506501,107.645361 110.471441,107.426401 106.092581,107.426401 C85.9509809,107.426401 76.9743008,114.432101 76.9743008,125.159781 C76.9743008,135.887461 85.0748009,140.047361 96.021441,140.047361 C104.778821,140.047361 114.849621,134.574041 120.979821,128.224881 L120.979821,108.083281 L120.980161,108.083281 Z" id="Shape" fill="#000000"></path>
                </g>
                <g id="RRr" transform="translate(230.520002, 0.000000)" sketch:type="MSShapeGroup">
                    <path d="M204.139402,102.102001 C204.139402,158.438302 158.451222,204.102342 102.120021,204.102342 C45.8014005,204.102342 0.114580001,158.438302 0.114580001,102.102001 C0.114580001,45.7765805 45.8014005,0.101660001 102.120021,0.101660001 C158.451222,0.101660001 204.139402,45.7769205 204.139402,102.102001 L204.139402,102.102001 Z" id="Shape" fill="#FFFF00"></path>
                    <path d="M60.0123806,66.8382207 L48.5802205,66.8382207 L34.5028604,53.3276406 L45.4624205,53.3276406 L54.2490406,59.3742006 L63.1301807,53.3276406 L74.0894008,53.3276406 L60.0123806,66.8382207 L60.0123806,66.8382207 Z M69.9325607,137.791461 L54.6271206,113.038101 L47.2579605,113.038101 L47.2579605,137.791461 L34.8812804,137.791461 L34.8812804,71.6563608 L56.4223206,71.6563608 C68.7044807,71.6563608 80.8921209,77.5142208 80.8921209,92.347061 C80.8921209,103.023061 74.6565208,109.069961 66.5315407,111.620641 L84.2934809,137.791121 L69.9325607,137.791121 L69.9325607,137.791461 Z M56.4219806,104.156961 C62.9408007,104.156961 68.3264007,100.944641 68.3264007,92.347061 C68.3264007,83.9385209 62.9411407,80.8207209 56.4219806,80.8207209 L47.2576205,80.8207209 L47.2576205,104.156961 L56.4219806,104.156961 L56.4219806,104.156961 Z" id="Shape" fill="#000000"></path>
                    <path d="M122.272841,137.791461 L110.557461,119.368221 L105.549941,119.368221 L105.549941,137.791461 L93.929081,137.791461 L93.929081,86.4895409 L112.352321,86.4895409 C122.744761,86.4895409 132.476241,91.969321 132.476241,103.117921 C132.476241,110.865161 127.846801,115.683641 121.611201,117.856581 L135.499521,137.791461 L122.272841,137.791461 L122.272841,137.791461 Z M115.281421,82.8046209 L106.117061,82.8046209 L94.307161,72.3176608 L104.132821,72.3176608 L110.651641,76.0967608 L117.265321,72.3176608 L127.090981,72.3176608 L115.281421,82.8046209 L115.281421,82.8046209 Z M112.352661,111.526461 C116.982101,111.526461 120.855721,109.448041 120.855721,103.117921 C120.855721,96.882321 116.982101,94.709381 112.352661,94.709381 L105.550281,94.709381 L105.550281,111.526461 L112.352661,111.526461 L112.352661,111.526461 Z" id="Shape" fill="#000000"></path>
                    <path d="M153.166602,82.7104409 L142.018001,67.8776007 L151.560102,67.8776007 L158.929602,75.2467608 L166.298762,67.8776007 L175.935722,67.8776007 L164.787122,82.7104409 L153.166602,82.7104409 L153.166602,82.7104409 Z M144.663542,137.791461 L144.663542,88.6624809 L156.473102,88.6624809 L156.473102,97.449101 C160.063502,90.930281 165.259722,87.2453609 170.172382,87.2453609 C172.723402,87.2453609 174.518262,88.0011809 176.124422,89.3237809 L176.124422,99.433001 C173.856962,98.488141 172.156282,97.921361 169.322042,97.921361 C163.936782,97.921361 158.835082,101.511761 156.472762,105.385381 L156.472762,137.791461 L144.663542,137.791461 L144.663542,137.791461 Z" id="Shape" fill="#000000"></path>
                </g>
                <g id="cn" transform="translate(691.560007, 0.000000)" sketch:type="MSShapeGroup">
                    <path d="M204.185982,102.102001 C204.185982,158.438302 158.497802,204.102342 102.166601,204.102342 C45.8479805,204.102342 0.161160002,158.438302 0.161160002,102.102001 C0.161160002,45.7765805 45.8479805,0.101660001 102.166601,0.101660001 C158.497802,0.101660001 204.185982,45.7769205 204.185982,102.102001 L204.185982,102.102001 Z" id="Shape" fill="#FFFF00"></path>
                    <path d="M37.7559804,153.298522 L44.8307005,127.738001 C40.1523004,120.663281 37.6417404,111.078001 37.6417404,99.666921 C37.6417404,77.5295208 48.0260205,62.1248007 63.7727807,58.7013406 L67.3101407,46.0353205 L76.7811808,46.0353205 L73.4719608,58.1311606 C76.3249008,58.3593006 79.1775008,58.9298206 81.8019609,59.8427206 L85.5678009,46.0353205 L95.038841,46.0353205 L89.9038209,64.5211207 C95.152741,68.8571407 98.804341,75.5898208 100.173861,84.8327209 L88.8770209,84.8327209 C88.4204009,81.6377409 87.6217409,78.7848008 86.5949409,76.5027208 L70.8478407,133.671681 C80.0907408,133.557781 86.9373209,127.966141 88.8773609,114.501121 L100.174201,114.501121 C97.435501,132.873021 85.6820409,141.316921 70.6197007,141.316921 C69.9349407,141.316921 69.3644207,141.316921 68.7939007,141.203021 L65.4846807,153.298522 L56.0136406,153.298522 L59.7791406,139.605361 C56.9262006,138.692461 54.4159806,137.323281 52.1339005,135.611381 L47.2270205,153.298522 L37.7559804,153.298522 L37.7559804,153.298522 Z M49.2809605,111.648521 L61.1483206,68.2866207 C53.8454606,72.6226408 48.2538205,82.6645409 48.2538205,99.666921 C48.2541605,104.117181 48.5965405,108.111161 49.2809605,111.648521 L49.2809605,111.648521 Z M61.9473207,131.845881 L79.5202208,67.9442407 C77.1239008,66.4608207 74.3852008,65.7764007 71.3044608,65.6621607 L54.7583606,125.797961 C56.8123006,128.536661 59.2086206,130.476701 61.9473207,131.845881 L61.9473207,131.845881 Z" id="Shape" fill="#000000"></path>
                    <path d="M150.837262,139.605361 L139.312281,114.501121 L120.712241,114.501121 L120.712241,139.605361 L111.811721,139.605361 L111.811721,114.501121 L104.965141,114.501121 L104.965141,106.855881 L111.811721,106.855881 L111.811721,91.679301 L104.965141,91.679301 L104.965141,84.0340609 L111.811721,84.0340609 L111.811721,59.7284806 L122.994321,59.7284806 L134.177261,84.0340609 L153.119342,84.0340609 L153.119342,59.7284806 L162.019862,59.7284806 L162.019862,84.0340609 L168.866442,84.0340609 L168.866442,91.679301 L162.019862,91.679301 L162.019862,106.855881 L168.866442,106.855881 L168.866442,114.501121 L162.019862,114.501121 L162.019862,139.605361 L150.837262,139.605361 L150.837262,139.605361 Z M120.598341,84.0340609 L125.162841,84.0340609 L120.484441,73.7640208 L120.598341,84.0340609 L120.598341,84.0340609 Z M120.712241,91.679301 L120.712241,106.855881 L135.774921,106.855881 L128.699861,91.679301 L120.712241,91.679301 L120.712241,91.679301 Z M144.675442,106.855881 L153.119682,106.855881 L153.119682,91.679301 L137.714961,91.679301 L144.675442,106.855881 L144.675442,106.855881 Z M153.119682,114.501121 L148.212802,114.501121 L153.347822,125.569821 L153.119682,114.501121 L153.119682,114.501121 Z" id="Shape" fill="#000000"></path>
                </g>
                <g id="gg" transform="translate(1152.600012, 0.000000)" sketch:type="MSShapeGroup">
                    <path d="M204.232562,102.102001 C204.232562,158.438302 158.544382,204.102342 102.213181,204.102342 C45.8945605,204.102342 0.207740002,158.438302 0.207740002,102.102001 C0.207740002,45.7765805 45.8945605,0.102000001 102.213181,0.102000001 C158.544382,0.101660001 204.232562,45.7765805 204.232562,102.102001 L204.232562,102.102001 Z" id="Shape" fill="#FFFF00"></path>
                    <path d="M65.9443607,117.867801 C59.5863606,123.125221 54.4506606,125.570841 47.4813405,125.570841 C34.3984804,125.570841 29.7520403,114.811201 29.7520403,100.750161 C29.7520403,77.7634408 43.3241605,59.4224806 60.8090006,59.4224806 C67.1666607,59.4224806 71.5686408,61.7457006 74.8697008,67.0034607 L75.9699408,61.2567806 L96.756181,61.2567806 L85.2628209,126.426961 C81.8390209,145.623362 67.1663207,152.837482 50.7824005,152.837482 C37.3326804,152.837482 24.9832003,147.702122 26.0834403,129.606301 L45.7691005,129.606301 C45.1577805,139.265701 49.9262805,139.999081 53.2276806,139.999081 C57.7517206,139.999081 62.3981607,138.042721 63.9873207,128.872241 L65.9443607,117.867801 L65.9443607,117.867801 Z M73.1584808,76.6625208 C70.9573207,74.7061608 68.5120407,73.4835208 65.9443607,73.4835208 C54.8175206,73.4835208 50.6606805,85.7106009 50.6606805,98.671401 C50.6606805,106.985761 52.8615006,111.509801 58.6081806,111.509801 C61.1758606,111.509801 64.7217207,110.164761 67.6562607,108.208401 L73.1584808,76.6625208 L73.1584808,76.6625208 Z" id="Shape" fill="#000000"></path>
                    <path d="M167.917502,74.7061608 C168.039562,75.6843408 168.162302,76.6625208 168.162302,77.6407008 C168.162302,93.902901 152.266962,101.728001 134.782121,101.728001 C130.380481,101.728001 126.589821,101.239081 123.166701,100.382961 C122.555041,101.605601 122.310581,102.828241 122.310581,103.928821 C122.310581,106.618901 124.266941,107.719141 126.100901,107.719141 L145.541762,107.719141 C159.358682,107.719141 165.349822,113.465821 165.349822,122.880761 C165.349822,139.265021 147.742922,152.836802 123.533221,152.836802 C105.926321,152.836802 97.122701,147.701442 97.122701,137.919981 C97.122701,130.828261 103.113841,125.203981 110.450361,121.413321 C106.537641,119.090101 105.192601,115.544241 105.192601,111.998721 C105.192601,106.007241 109.716641,100.138501 114.607201,96.225781 C110.938941,93.168841 108.982581,89.0120009 108.982581,83.5097809 C108.982581,67.2475807 124.755861,59.4224806 142.240021,59.4224806 C147.130922,59.4224806 151.654962,60.0338006 155.322882,61.2567806 L178.921262,61.2567806 L176.598042,74.7065008 L167.917502,74.7065008 L167.917502,74.7061608 Z M122.799841,123.981001 C120.965541,123.981001 119.376381,123.981001 117.908941,123.736541 C116.930761,125.937361 116.074641,128.749501 116.074641,131.195121 C116.074641,137.675521 119.987361,140.732121 127.201481,140.732121 C139.183761,140.732121 144.808382,136.330481 144.808382,129.360821 C144.808382,126.304221 142.240361,123.981001 138.205581,123.981001 L122.799841,123.981001 L122.799841,123.981001 Z M140.039881,71.4051008 C133.926681,71.4051008 127.812801,74.4617008 127.812801,81.9202809 C127.812801,87.0556409 132.092381,89.7457209 137.105341,89.7457209 C143.218542,89.7457209 149.332422,86.6891209 149.332422,79.2305408 C149.332422,74.0948408 145.052842,71.4051008 140.039881,71.4051008 L140.039881,71.4051008 Z" id="Shape" fill="#000000"></path>
                </g>
                <g id="25" transform="translate(1613.640017, 0.000000)" sketch:type="MSShapeGroup">
                    <path d="M204.278802,102.102001 C204.278802,158.438302 158.590622,204.102342 102.259421,204.102342 C45.9408005,204.102342 0.253980003,158.438302 0.253980003,102.102001 C0.253980003,45.7765805 45.9408005,0.102000001 102.259421,0.102000001 C158.590622,0.101660001 204.278802,45.7765805 204.278802,102.102001 L204.278802,102.102001 Z" id="Shape" fill="#FFFF00"></path>
                    <path d="M98.716961,128.365301 L98.716961,145.779762 L36.1998004,145.779762 L36.1998004,128.365301 C61.3819006,105.438081 74.7874208,94.914401 74.7874208,82.3857409 C74.7874208,76.6227408 72.2819608,72.9891608 66.6440807,72.9891608 C60.2544606,72.9891608 57.3729606,76.9984408 56.9972606,85.6429409 L33.4437604,85.6429409 C34.6966604,65.8481407 46.7241605,56.2009806 66.6440807,56.2009806 C85.6874809,56.2009806 98.090341,65.3466407 98.090341,82.3854009 C98.090341,97.419521 87.5666609,107.943541 64.8900207,128.364961 L98.716961,128.364961 L98.716961,128.365301 Z" id="Shape" fill="#000000"></path>
                    <path d="M131.040421,120.723121 C131.416121,127.112401 133.545881,130.871101 140.186081,130.871101 C146.825942,130.871101 148.830582,123.354041 148.830582,116.338141 C148.830582,110.575141 147.577682,103.684361 139.183761,103.684361 C135.926561,103.684361 132.418441,105.312961 129.787521,107.818761 L109.866921,107.818761 L109.866921,58.0805006 L166.495962,58.0805006 L166.495962,75.4953008 L129.787521,75.4953008 L129.787521,95.415561 C132.919601,90.905121 140.561781,86.5204809 147.702802,86.5204809 C163.489002,86.5204809 172.133162,96.793921 172.133162,116.338141 C172.133162,135.882361 158.477402,147.659282 140.185741,147.659282 C119.764321,147.659282 108.739141,138.638741 107.486241,120.723121 L131.040421,120.723121 L131.040421,120.723121 Z" id="Shape" fill="#000000"></path>
                </g>
                <g id="nnnnnn" transform="translate(1844.840019, 0.000000)" sketch:type="MSShapeGroup">
                    <path d="M204.119682,102.102001 C204.119682,158.438302 158.431502,204.102342 102.100301,204.102342 C45.7816805,204.102342 0.094860001,158.438302 0.094860001,102.102001 C0.094860001,45.7765805 45.7816805,0.102000001 102.100301,0.102000001 C158.431502,0.101660001 204.119682,45.7765805 204.119682,102.102001 L204.119682,102.102001 Z" id="Shape" fill="#FFFF00"></path>
                    <path d="M32.7610403,98.988961 L32.7610403,57.3338606 L45.1061005,57.3338606 L45.1061005,62.8296207 C49.2479805,58.5286206 54.2653606,56.1391006 59.6020006,56.1391006 C65.6550207,56.1391006 71.6284808,59.0858806 71.6284808,69.8383807 L71.6284808,98.988621 L59.2830806,98.988621 L59.2830806,72.0681008 C59.2830806,67.6079807 56.9734606,65.8559607 53.1505006,65.8559607 C50.4424005,65.8559607 47.1770405,67.3693007 45.1061005,69.2807807 L45.1061005,98.988621 L32.7610403,98.988621 L32.7610403,98.988961 Z" id="Shape" fill="#000000"></path>
                    <path d="M81.9821609,98.988961 L81.9821609,57.3338606 L94.327221,57.3338606 L94.327221,62.8296207 C98.469101,58.5286206 103.486481,56.1391006 108.823121,56.1391006 C114.876141,56.1391006 120.849601,59.0858806 120.849601,69.8383807 L120.849601,98.988621 L108.504201,98.988621 L108.504201,72.0681008 C108.504201,67.6079807 106.194581,65.8559607 102.371621,65.8559607 C99.663521,65.8559607 96.398161,67.3693007 94.327221,69.2807807 L94.327221,98.988621 L81.9821609,98.988621 L81.9821609,98.988961 Z" id="Shape" fill="#000000"></path>
                    <path d="M131.203281,98.988961 L131.203281,57.3338606 L143.548342,57.3338606 L143.548342,62.8296207 C147.690222,58.5286206 152.707602,56.1391006 158.044242,56.1391006 C164.097262,56.1391006 170.070722,59.0858806 170.070722,69.8383807 L170.070722,98.988621 L157.725322,98.988621 L157.725322,72.0681008 C157.725322,67.6079807 155.415702,65.8559607 151.592742,65.8559607 C148.884642,65.8559607 145.619282,67.3693007 143.548342,69.2807807 L143.548342,98.988621 L131.203281,98.988621 L131.203281,98.988961 Z" id="Shape" fill="#000000"></path>
                    <path d="M32.1238803,151.479862 L39.5307804,109.825101 L51.2390205,109.825101 L49.3275405,120.417801 L50.2832805,115.320521 C55.2214406,111.019861 60.6373006,108.630341 65.9736007,108.630341 C71.3894608,108.630341 76.8852208,111.577121 74.9737408,122.329281 L69.8764607,151.479862 L58.0886606,151.479862 L62.9469207,123.922521 C63.7435407,119.462401 61.7521606,117.789601 57.9292006,117.789601 C55.2214406,117.789601 51.5576005,119.223041 49.2479805,121.134521 L43.9116805,151.479522 L32.1238803,151.479522 L32.1238803,151.479862 Z" id="Shape" fill="#000000"></path>
                    <path d="M80.7870608,151.479862 L88.1939609,109.825101 L99.9022011,109.825101 L97.990721,120.417801 L98.946461,115.320521 C103.884621,111.019861 109.300481,108.630341 114.636781,108.630341 C120.052641,108.630341 125.548401,111.577121 123.636921,122.329281 L118.539641,151.479862 L106.751841,151.479862 L111.610101,123.922521 C112.406721,119.462401 110.415341,117.789601 106.592381,117.789601 C103.884621,117.789601 100.220781,119.223041 97.911161,121.134521 L92.574861,151.479522 L80.7870608,151.479522 L80.7870608,151.479862 Z" id="Shape" fill="#000000"></path>
                    <path d="M129.450241,151.479862 L136.857141,109.825101 L148.565382,109.825101 L146.653902,120.417801 L147.609642,115.320521 C152.547802,111.019861 157.963662,108.630341 163.299962,108.630341 C168.715822,108.630341 174.211582,111.577121 172.300102,122.329281 L167.202822,151.479862 L155.415022,151.479862 L160.273282,123.922521 C161.069902,119.462401 159.078522,117.789601 155.255562,117.789601 C152.547802,117.789601 148.883962,119.223041 146.574342,121.134521 L141.238041,151.479522 L129.450241,151.479522 L129.450241,151.479862 Z" id="Shape" fill="#000000"></path>
                </g>
                <g id="Et" transform="translate(2075.360022, 0.000000)" sketch:type="MSShapeGroup">
                    <path d="M204.142802,102.102001 C204.142802,158.438302 158.454622,204.102342 102.123421,204.102342 C45.8048005,204.102342 0.117980001,158.438302 0.117980001,102.102001 C0.117980001,45.7765805 45.8048005,0.102000001 102.123421,0.102000001 C158.454622,0.101660001 204.142802,45.7765805 204.142802,102.102001 L204.142802,102.102001 Z" id="Shape" fill="#FFFF00"></path>
                    <path d="M36.7703204,147.981602 L36.7703204,57.3226406 L95.051421,57.3226406 L95.051421,75.3249608 L60.7304606,75.3249608 L60.7304606,91.255321 L92.460961,91.255321 L92.460961,109.257641 L60.7304606,109.257641 L60.7304606,129.979621 L95.051421,129.979621 L95.051421,147.981942 L36.7703204,147.981942 L36.7703204,147.981602 Z" id="Shape" fill="#000000"></path>
                    <path d="M118.362161,147.981602 L118.362161,95.399581 L105.410881,95.399581 L105.410881,79.8581808 L118.362161,79.8581808 L118.362161,62.5035607 L141.674601,62.5035607 L141.674601,79.8581808 L154.625882,79.8581808 L154.625882,95.399581 L141.674601,95.399581 L141.674601,147.981602 L118.362161,147.981602 L118.362161,147.981602 Z M148.150242,75.0658808 L148.150242,43.9827405 L167.706702,43.9827405 L163.691642,75.0658808 L148.150242,75.0658808 L148.150242,75.0658808 Z" id="Shape" fill="#000000"></path>
                </g>
                <g id="1630" transform="translate(2536.400027, 0.000000)" sketch:type="MSShapeGroup">
                    <path d="M204.189382,102.102001 C204.189382,158.438302 158.501202,204.102342 102.170001,204.102342 C45.8513805,204.102342 0.164560002,158.438302 0.164560002,102.102001 C0.164560002,45.7765805 45.8513805,0.102000001 102.170001,0.102000001 C158.501202,0.101660001 204.189382,45.7765805 204.189382,102.102001 L204.189382,102.102001 Z" id="Shape" fill="#FFFF00"></path>
                    <path d="M51.4056205,99.722001 L51.4056205,88.6080809 L66.8361807,88.6080809 L66.8361807,59.8597206 L51.4056205,68.1261407 L51.4056205,55.3591406 L66.8361807,47.0927205 L81.1648009,47.0927205 L81.1648009,88.6080809 L95.676681,88.6080809 L95.676681,99.722001 L51.4056205,99.722001 L51.4056205,99.722001 Z" id="Shape" fill="#000000"></path>
                    <path d="M137.192381,49.1136805 C136.549441,42.4088804 132.875741,40.1125204 129.293501,40.1125204 C122.680501,40.1125204 119.006461,47.4602605 118.455321,63.9931007 C121.945761,59.7682606 128.283021,56.7371606 133.794081,56.7371606 C145.367002,56.7371606 152.347202,64.1770407 152.347202,78.5053208 C152.347202,92.558201 142.060161,101.100021 129.109561,101.100021 C113.220001,101.100021 104.034901,89.6189009 104.034901,68.5858207 C104.034901,42.3170804 114.413741,30.0097603 129.293161,30.0097603 C141.417221,30.0097603 149.867242,35.8880204 151.060982,49.1140205 L137.192381,49.1140205 L137.192381,49.1136805 Z M118.454981,71.8919808 C119.006121,84.1996409 122.404421,91.088041 129.109561,91.088041 C134.804221,91.088041 137.927121,86.4956609 137.927121,79.1479208 C137.927121,72.5349208 135.447161,67.5750007 128.834161,67.5750007 C125.435861,67.5750007 120.843481,69.5038207 118.454981,71.8919808 L118.454981,71.8919808 Z" id="Shape" fill="#000000"></path>
                    <path d="M63.2542807,144.917182 L63.2542807,134.538341 L70.4184207,134.538341 C77.8579608,134.538341 81.1644609,130.221361 81.1644609,124.434901 C81.1644609,119.015981 77.7661608,116.260621 72.8062408,116.260621 C66.7443807,116.260621 63.9886807,119.842861 63.5296807,125.628981 L49.6604005,125.628981 C50.5790805,113.229521 59.0291006,106.248981 73.1734408,106.248981 C86.2158409,106.248981 95.308801,112.494781 95.308801,124.618501 C95.308801,130.129561 91.359361,136.467161 85.2975009,138.947121 C93.472121,140.967741 96.686481,147.856482 96.686481,154.101942 C96.686481,166.409602 86.7669809,173.941282 73.0816408,173.941282 C57.4671406,173.941282 49.6600605,167.236142 48.8338605,154.561282 L63.3457407,154.561282 C63.8054207,160.531342 67.1115807,163.929982 73.0819808,163.929982 C78.8684408,163.929982 82.5421409,160.623142 82.5421409,154.194082 C82.5421409,148.499422 78.9602408,144.917522 70.4184207,144.917522 L63.2542807,144.917522 L63.2542807,144.917182 Z" id="Shape" fill="#000000"></path>
                    <path d="M104.861781,133.895401 C104.861781,117.362901 113.127861,106.248981 128.007621,106.248981 C142.794902,106.248981 151.061322,117.362901 151.061322,133.895401 C151.061322,150.427902 142.795242,161.633622 128.007621,161.633622 C113.127861,161.633622 104.861781,150.428242 104.861781,133.895401 L104.861781,133.895401 Z M118.454981,142.804762 L131.497381,116.352421 C130.486901,115.893081 129.293161,115.617681 128.007281,115.617681 C121.210341,115.617681 117.628441,121.771681 117.628441,133.895401 C117.628781,137.385501 117.904181,140.324801 118.454981,142.804762 L118.454981,142.804762 Z M138.386461,133.895401 C138.386461,130.404961 138.110721,127.374201 137.468121,124.894241 L124.425721,151.621982 C125.436201,152.081322 126.629941,152.264922 128.007961,152.264922 C134.804221,152.264922 138.386461,145.927322 138.386461,133.895401 L138.386461,133.895401 Z" id="Shape" fill="#000000"></path>
                </g>
                <g id="M" transform="translate(1383.120015, 0.000000)" sketch:type="MSShapeGroup">
                    <path d="M204.255682,102.102001 C204.255682,158.438302 158.567502,204.102342 102.236301,204.102342 C45.9176805,204.102342 0.230860002,158.438302 0.230860002,102.102001 C0.230860002,45.7765805 45.9176805,0.101660001 102.236301,0.101660001 C158.567502,0.101660001 204.255682,45.7769205 204.255682,102.102001 L204.255682,102.102001 Z" id="Shape" fill="#FFFF00"></path>
                    <path d="M141.624621,154.690482 L141.624621,87.0947409 L141.930281,73.3308608 L109.049901,154.690142 L96.051021,154.690142 L61.4886606,70.2718807 L61.7943206,87.0944009 L61.7943206,154.690142 L49.8654205,154.690142 L49.8654205,47.6384205 L65.3116207,47.6384205 L103.238961,140.773601 L141.624621,47.6384205 L154.623502,47.6384205 L154.623502,154.690482 L141.624621,154.690482 L141.624621,154.690482 Z" id="Shape" fill="#000000"></path>
                </g>
                <g id="fi" transform="translate(461.040005, 0.000000)" sketch:type="MSShapeGroup">
                    <path d="M204.162862,102.102001 C204.162862,158.438302 158.474682,204.102342 102.143481,204.102342 C45.8248605,204.102342 0.138040001,158.438302 0.138040001,102.102001 C0.138040001,45.7765805 45.8248605,0.101660001 102.143481,0.101660001 C158.474682,0.101660001 204.162862,45.7769205 204.162862,102.102001 L204.162862,102.102001 Z" id="Shape" fill="#FFFF00"></path>
                    <path d="M114.993441,162.296282 L114.993441,94.175581 L86.4698209,94.175581 L86.4698209,162.295942 L56.2686406,162.295942 L56.2686406,94.175581 L42.8457805,94.175581 L42.8457805,74.0418008 L56.2686406,74.0418008 L56.2686406,67.3302007 C56.2686406,44.6790605 70.6979007,34.9475804 89.3220809,34.9475804 C94.523741,34.9475804 101.906161,35.9543204 106.603941,38.1354204 L106.603941,55.7528606 C103.080521,54.9137406 100.395881,54.5781606 97.375661,54.5781606 C92.509921,54.5781606 86.4698209,56.5916406 86.4698209,67.1619007 L86.4698209,74.0411208 L145.194622,74.0411208 L145.194622,162.295602 L114.993441,162.295602 L114.993441,162.296282 Z M130.093861,67.1622407 C120.026801,67.1622407 113.315201,59.9474406 113.315201,50.3839205 C113.315201,40.8204004 120.026461,33.6052604 130.093861,33.6052604 C140.161261,33.6052604 146.872522,40.8200604 146.872522,50.3839205 C146.872522,59.9477806 140.160921,67.1622407 130.093861,67.1622407 L130.093861,67.1622407 Z" id="Shape" fill="#000000"></path>
                </g>
                <g id="&amp;" transform="translate(2305.880024, 0.000000)" sketch:type="MSShapeGroup">
                    <path d="M204.165922,102.102001 C204.165922,158.438302 158.477742,204.102342 102.146541,204.102342 C45.8279205,204.102342 0.141100001,158.438302 0.141100001,102.102001 C0.141100001,45.7765805 45.8279205,0.101660001 102.146541,0.101660001 C158.477742,0.101660001 204.165922,45.7769205 204.165922,102.102001 L204.165922,102.102001 Z" id="Shape" fill="#FFFF00"></path>
                    <path d="M153.394062,93.369781 C150.668622,108.632721 143.764242,123.713761 133.770621,136.069021 L155.211022,161.325242 L127.047801,161.325242 L118.144561,151.150062 C107.242801,159.144822 94.523401,164.050682 80.8962009,164.050682 C58.1835206,164.050682 40.5589404,152.785462 40.5589404,132.253541 C40.5589404,115.355541 52.0057205,100.637961 68.3587007,92.098181 C64.1797607,85.9203809 60.5458406,78.6522008 60.5458406,70.6574407 C60.5458406,49.0351405 80.7143008,31.4105603 106.333981,31.4105603 C130.136701,31.4105603 145.217742,43.0392405 142.855422,66.2966007 L119.053041,66.2966007 C119.961521,52.1240405 111.966761,48.3082205 103.426981,48.3082205 C93.433361,48.3082205 83.2585209,54.8494806 83.2585209,67.5682007 C83.2585209,73.2006408 85.6205009,79.1968808 91.616401,86.2831609 L121.415361,121.533001 C125.957761,113.356341 129.228221,103.544621 131.045181,93.369441 L153.394062,93.369441 L153.394062,93.369781 Z M107.605921,138.613241 L77.9892008,103.908761 C68.9040607,109.359641 63.0900607,117.717861 63.0900607,127.711481 C63.0900607,140.430201 72.7198808,146.971462 84.7120209,146.971462 C93.252141,146.971122 101.065001,143.882222 107.605921,138.613241 L107.605921,138.613241 Z" id="Shape" fill="#000000"></path>
                </g>
                <g id="b" transform="translate(922.080010, 0.000000)" sketch:type="MSShapeGroup">
                    <path d="M204.209102,102.102001 C204.209102,158.438302 158.520922,204.102342 102.189721,204.102342 C45.8711005,204.102342 0.184280002,158.438302 0.184280002,102.102001 C0.184280002,45.7765805 45.8711005,0.101660001 102.189721,0.101660001 C158.520922,0.101660001 204.209102,45.7769205 204.209102,102.102001 L204.209102,102.102001 Z" id="Shape" fill="#FFFF00"></path>
                    <path d="M110.656741,91.530381 C131.662621,94.681501 137.064201,108.635101 137.064201,118.988101 C137.064201,141.044241 116.958641,152.747382 100.603961,152.747382 C84.5495009,152.747382 75.2471008,144.345302 77.3476208,132.041721 L91.301561,132.041721 C90.551521,139.543821 95.502601,142.694942 103.154981,142.694942 C113.807861,142.694942 123.410481,135.643001 123.410481,120.188641 C123.410481,109.535761 115.908381,100.983401 99.8539211,100.983401 L95.352661,100.983401 L97.153301,90.930621 L128.511841,55.5206406 L107.806181,55.5206406 C91.751721,55.5206406 81.0988409,64.6731007 76.8978008,88.6798209 L65.9447007,150.496922 L53.0410206,150.496922 L63.6939007,90.1802409 C69.2454207,58.6714206 85.8999809,45.4678605 109.456881,45.4678605 L144.266762,45.4678605 L142.616402,55.5206406 L110.656741,91.530381 L110.656741,91.530381 Z" id="Shape" fill="#000000"></path>
                </g>
            </g>
            <g id="kunda-book" sketch:type="MSLayerGroup" transform="translate(49.640001, 277.440003)">
                <g id="g" transform="translate(230.520002, 0.000000)" sketch:type="MSShapeGroup">
                    <path d="M204.139402,102.305661 C204.139402,158.641962 158.451222,204.305662 102.120021,204.305662 C45.8014005,204.305662 0.114580001,158.641622 0.114580001,102.305661 C0.114580001,45.9799005 45.8014005,0.305660003 102.120021,0.305660003 C158.451222,0.305660003 204.139402,45.9802405 204.139402,102.305661 L204.139402,102.305661 Z" id="Shape" fill="#FF3C32"></path>
                    <path d="M85.3961009,128.902501 C78.2476008,127.936561 69.9397007,126.970281 60.2792806,126.584041 L58.7336406,123.299641 L79.0204208,99.9215811 C68.5871807,95.477781 61.4386806,86.9767609 61.4386806,74.9982208 C61.4386806,55.2911406 82.1117009,44.4716605 100.080021,44.4716605 C108.581041,44.4716605 116.502361,46.4038805 122.878381,50.0745205 L135.050381,29.9812003 L138.528241,29.9812003 L149.541182,46.5970005 L128.674701,54.3252006 C133.698201,59.1555806 136.789481,65.3381407 136.789481,73.0663408 C136.789481,92.773081 116.116461,103.592901 98.148481,103.592901 C93.898141,103.592901 90.0337009,103.206661 86.1696009,102.240381 L80.9529809,108.229821 C129.447521,109.775461 145.677082,117.890241 145.677082,135.278521 C145.677082,158.076882 118.048681,171.987642 94.670621,171.987642 C71.6791408,171.987642 55.8361606,165.032262 55.8361606,152.860262 C55.8361606,143.007062 64.3371807,134.698821 83.0783209,128.709721 L85.3961009,128.902501 L85.3961009,128.902501 Z M91.192421,129.675321 C82.1117009,134.698481 79.7932408,143.006382 79.7932408,146.677362 C79.7932408,157.110602 88.6808409,163.293162 100.466261,163.293162 C114.763601,163.293162 123.650861,157.110602 123.650861,148.416462 C123.650861,140.108221 114.183901,133.539421 91.192421,129.675321 L91.192421,129.675321 Z M109.933221,79.0554408 C109.933221,69.0087807 107.228181,51.4270405 97.568101,51.4270405 C91.192421,51.4270405 88.2942609,59.3483606 88.2942609,69.0087807 C88.2942609,79.0554408 90.999301,96.637181 100.659381,96.637181 C107.035401,96.637181 109.933221,88.7155209 109.933221,79.0554408 L109.933221,79.0554408 Z" id="Shape" fill="#000000"></path>
                </g>
                <g id="Re" sketch:type="MSShapeGroup">
                    <path d="M204.116282,102.305661 C204.116282,158.641962 158.428102,204.305662 102.096901,204.305662 C45.7782805,204.305662 0.091460001,158.641622 0.091460001,102.305661 C0.091460001,45.9799005 45.7782805,0.305660003 102.096901,0.305660003 C158.428102,0.305660003 204.116282,45.9802405 204.116282,102.305661 L204.116282,102.305661 Z" id="Shape" fill="#FF3C32"></path>
                    <path d="M37.9242804,141.488621 L37.9242804,139.599241 C47.7768005,137.304581 49.3962205,135.550181 49.3962205,130.421621 L49.3962205,65.7730007 C49.3962205,60.6444406 47.7764605,58.8897006 37.9242804,56.5953806 L37.9242804,54.7060006 L70.0461207,54.7060006 C86.2420209,54.7060006 102.572901,61.7242806 102.572901,77.6498808 C102.572901,90.0670209 94.475121,98.164801 83.2728009,101.673941 L114.179821,139.599241 L114.179821,141.488621 L100.008281,141.488621 L74.0948408,103.428341 C72.4754208,103.563321 70.7206807,103.698301 69.1012607,103.698301 L61.0031406,103.698301 L61.0031406,130.421621 C61.0031406,135.550181 62.6229007,137.304921 72.4754208,139.599241 L72.4754208,141.488621 L37.9242804,141.488621 L37.9242804,141.488621 Z M70.7206807,99.244301 C82.7325409,99.244301 90.0207809,90.606601 90.0207809,78.8647008 C90.0207809,66.5828807 81.3830809,59.1596606 68.4263607,59.1596606 L61.0031406,59.1596606 L61.0031406,99.244301 L70.7206807,99.244301 L70.7206807,99.244301 Z" id="Shape" fill="#000000"></path>
                    <path d="M164.252302,129.206801 C159.123742,140.139161 149.946122,143.648302 143.062822,143.648302 C128.081741,143.648302 118.229221,132.850921 118.229221,116.115441 C118.229221,98.570081 129.836141,86.1529409 143.737722,86.1529409 C154.400122,86.1529409 164.657242,92.766281 164.117322,105.588021 L129.161581,105.588021 C128.891621,107.342761 128.891621,109.097161 128.891621,110.851561 C128.891621,127.587381 137.394341,135.010601 146.841922,135.010601 C152.240442,135.010601 159.259062,132.580961 162.362922,127.857341 L164.252302,129.206801 L164.252302,129.206801 Z M129.836141,101.808921 L152.240442,101.808921 C152.375422,93.711141 147.111882,89.9317009 142.522901,89.9317009 C134.965041,89.9317009 131.320921,95.330221 129.836141,101.808921 L129.836141,101.808921 Z" id="Shape" fill="#000000"></path>
                </g>
                <g id="??!!" transform="translate(461.040005, 0.000000)" sketch:type="MSShapeGroup">
                    <path d="M204.162862,102.305661 C204.162862,158.641962 158.474682,204.305662 102.143481,204.305662 C45.8248605,204.305662 0.138040001,158.641622 0.138040001,102.305661 C0.138040001,45.9799005 45.8248605,0.305660003 102.143481,0.305660003 C158.474682,0.305660003 204.162862,45.9802405 204.162862,102.305661 L204.162862,102.305661 Z" id="Shape" fill="#FF3C32"></path>
                    <path d="M48.7512405,88.5043809 C54.8229606,92.965521 57.3012206,97.302221 57.3012206,102.382841 C57.3012206,116.881121 32.1466603,115.641821 32.1466603,121.589781 C32.1466603,125.555201 44.1663405,126.670401 58.9121406,126.670401 L58.9121406,143.894462 C33.2618603,143.894462 26.3224603,131.998541 26.3224603,118.863661 C26.3224603,97.054361 47.8835605,102.382841 47.8835605,94.948061 C47.8835605,92.965181 47.2640805,91.726221 46.6442605,89.4958209 L48.7512405,88.5043809 L48.7512405,88.5043809 Z M57.0533606,70.7842607 C57.0533606,76.4843608 52.4688006,81.3171209 46.3967405,81.3171209 C40.3246804,81.3171209 35.7401204,76.4843608 35.7401204,70.7842607 C35.7401204,65.0841607 40.3246804,60.2514006 46.3967405,60.2514006 C52.4688006,60.2514006 57.0533606,65.0845007 57.0533606,70.7842607 L57.0533606,70.7842607 Z" id="Shape" fill="#000000"></path>
                    <path d="M81.4633209,115.641821 C75.3916008,111.180681 72.9133408,106.843641 72.9133408,101.763361 C72.9133408,87.2650809 98.067901,88.5043809 98.067901,82.5564209 C98.067901,78.5910008 86.0478809,77.4758008 71.3020807,77.4758008 L71.3020807,60.2517406 C96.952361,60.2517406 103.892101,72.1476608 103.892101,85.2825409 C103.892101,107.091501 82.3306609,101.763361 82.3306609,109.198141 C82.3306609,111.181021 82.9501409,112.419981 83.5699609,114.650381 L81.4633209,115.641821 L81.4633209,115.641821 Z M73.1608608,133.361601 C73.1608608,127.661501 77.7457608,122.828741 83.8178209,122.828741 C89.8898809,122.828741 94.474441,127.661501 94.474441,133.361601 C94.474441,139.061701 89.8898809,143.894462 83.8178209,143.894462 C77.7457608,143.894462 73.1608608,139.061701 73.1608608,133.361601 L73.1608608,133.361601 Z" id="Shape" fill="#000000"></path>
                    <path d="M112.564141,70.7842607 C112.564141,65.0841607 117.149041,60.2514006 123.221101,60.2514006 C129.293161,60.2514006 133.877721,65.0841607 133.877721,70.7842607 C133.877721,76.4843608 129.293161,81.3171209 123.221101,81.3171209 C117.149041,81.3171209 112.564141,76.4847008 112.564141,70.7842607 L112.564141,70.7842607 Z M112.812341,141.911921 L112.812341,139.681181 L122.353421,90.734781 L124.584161,90.734781 L134.125581,139.681181 L134.125581,141.911921 L112.812341,141.911921 L112.812341,141.911921 Z" id="Shape" fill="#000000"></path>
                    <path d="M146.514842,133.361601 C146.514842,127.661501 151.099742,122.828741 157.171802,122.828741 C163.243862,122.828741 167.828422,127.661501 167.828422,133.361601 C167.828422,139.061701 163.243862,143.894462 157.171802,143.894462 C151.099742,143.894462 146.514842,139.061701 146.514842,133.361601 L146.514842,133.361601 Z M156.304122,113.411081 L146.763042,64.4646807 L146.763042,62.2339407 L168.076282,62.2339407 L168.076282,64.4646807 L158.535202,113.411081 L156.304122,113.411081 L156.304122,113.411081 Z" id="Shape" fill="#000000"></path>
                </g>
                <g id="2" transform="translate(691.560007, 0.000000)" sketch:type="MSShapeGroup">
                    <path d="M204.185982,102.305661 C204.185982,158.641962 158.497802,204.305662 102.166601,204.305662 C45.8479805,204.305662 0.161160002,158.641622 0.161160002,102.305661 C0.161160002,45.9799005 45.8479805,0.305660003 102.166601,0.305660003 C158.497802,0.305660003 204.185982,45.9802405 204.185982,102.305661 L204.185982,102.305661 Z" id="Shape" fill="#FF3C32"></path>
                    <path d="M140.911641,122.140921 C136.095201,135.443421 127.379981,158.837122 106.967741,158.837122 C99.169841,158.837122 85.4086809,156.084822 69.5833807,139.342201 C61.7854806,145.305462 53.7584206,151.727042 45.2723605,158.837122 L40.9145804,153.562022 C90.454281,115.948501 121.187221,85.2155609 121.187221,62.7391807 C121.187221,53.5653006 116.600281,47.8315405 109.031541,47.8315405 C97.105361,47.8315405 87.9311409,62.0513607 77.6104408,81.7754409 L73.4821608,81.7754409 L68.2070607,57.2349206 C81.5092209,48.5197005 99.8573211,41.4099604 114.535801,41.4099604 C130.590601,41.4099604 148.709202,48.5197005 148.709202,66.6386407 C148.709202,84.5280809 126.003661,98.288901 90.683441,123.746741 C101.463141,133.608781 109.948861,138.883881 118.434921,138.883881 C128.067801,138.883881 132.196081,130.627321 137.241681,120.306621 L140.911641,122.140921 L140.911641,122.140921 Z" id="Shape" fill="#000000"></path>
                </g>
                <g id="Ooo" transform="translate(922.080010, 0.000000)" sketch:type="MSShapeGroup">
                    <path d="M204.209102,102.305661 C204.209102,158.641962 158.520922,204.305662 102.189721,204.305662 C45.8711005,204.305662 0.184280002,158.641622 0.184280002,102.305661 C0.184280002,45.9799005 45.8711005,0.305660003 102.189721,0.305660003 C158.520922,0.305660003 204.209102,45.9802405 204.209102,102.305661 L204.209102,102.305661 Z" id="Shape" fill="#FF3C32"></path>
                    <path d="M25.9607003,111.760041 C25.9607003,89.7722409 47.5724605,68.2543207 67.3992207,68.2543207 C78.5811408,68.2543207 88.1654009,74.7377808 88.1654009,88.1749209 C88.1654009,110.162721 66.5536407,131.680641 46.7268805,131.680641 C35.5453004,131.680641 25.9607003,125.197181 25.9607003,111.760041 L25.9607003,111.760041 Z M75.0104608,89.4903809 C75.0104608,81.3154209 72.6614008,72.4829008 63.6408607,72.4829008 C50.1098805,72.4829008 39.1159804,93.155241 39.1159804,110.444581 C39.1159804,118.619541 41.4650404,127.452061 50.4855805,127.452061 C64.0165607,127.452061 75.0104608,106.780061 75.0104608,89.4903809 L75.0104608,89.4903809 Z M55.8416006,65.0596807 L55.2778806,63.6500407 L72.8494208,47.5819805 L77.6417208,54.1596206 L77.1718408,55.8511206 L55.8416006,65.0596807 L55.8416006,65.0596807 Z" id="Shape" fill="#000000"></path>
                    <path d="M88.1643809,119.465121 C88.1643809,107.061921 100.943621,90.1479409 114.380421,90.1479409 C122.649221,90.1479409 126.783621,94.658381 126.783621,102.363461 C126.783621,114.766661 114.004381,131.680641 100.567581,131.680641 C92.298781,131.680641 88.1643809,127.170201 88.1643809,119.465121 L88.1643809,119.465121 Z M115.508201,99.638701 C115.508201,94.376521 114.286581,92.779201 112.125541,92.779201 C104.890341,92.779201 99.440141,114.955021 99.440141,122.190221 C99.440141,127.452401 100.661761,129.049721 102.822801,129.049721 C110.058341,129.049721 115.508201,106.873901 115.508201,99.638701 L115.508201,99.638701 Z M107.615101,88.2687609 L106.581501,87.1413209 L118.420981,69.7578007 L120.112481,69.7578007 L124.998621,75.9594008 L107.615101,88.2687609 L107.615101,88.2687609 Z" id="Shape" fill="#000000"></path>
                    <path d="M130.541301,119.465121 C130.541301,107.061921 143.320542,90.1479409 156.757342,90.1479409 C165.026142,90.1479409 169.160542,94.658381 169.160542,102.363461 C169.160542,114.766661 156.381302,131.680641 142.944502,131.680641 C134.675701,131.680641 130.541301,127.170201 130.541301,119.465121 L130.541301,119.465121 Z M157.885122,99.638701 C157.885122,94.376521 156.663502,92.779201 154.502462,92.779201 C147.267262,92.779201 141.817061,114.955021 141.817061,122.190221 C141.817061,127.452401 143.038682,129.049721 145.199722,129.049721 C152.434922,129.049721 157.885122,106.873901 157.885122,99.638701 L157.885122,99.638701 Z M149.992022,88.2687609 L148.958422,87.1413209 L160.797902,69.7578007 L162.489402,69.7578007 L167.375542,75.9594008 L149.992022,88.2687609 L149.992022,88.2687609 Z" id="Shape" fill="#000000"></path>
                </g>
                <g id="agag" transform="translate(1613.640017, 0.000000)" sketch:type="MSShapeGroup">
                    <path d="M204.278802,102.305321 C204.278802,158.641622 158.590622,204.305662 102.259421,204.305662 C45.9408005,204.305662 0.253980003,158.641622 0.253980003,102.305321 C0.253980003,45.9799005 45.9408005,0.304980003 102.259421,0.304980003 C158.590622,0.304980003 204.278802,45.9799005 204.278802,102.305321 L204.278802,102.305321 Z" id="Shape" fill="#FF3C32"></path>
                    <path d="M98.836301,73.0411808 C92.599341,80.5460008 84.2489409,86.1485209 77.8008408,86.1485209 C73.6783408,86.1485209 70.1899407,83.4003009 72.6212808,76.7407208 L75.8985408,68.3899807 L75.0526208,68.3899807 C69.8734007,78.4318808 62.2625007,86.1481809 55.4971806,86.1481809 C50.7405805,86.1481809 47.8862805,82.2371609 47.8862805,76.4231608 C47.8862805,60.4618606 63.2134807,39.4264004 80.0210408,39.4264004 C83.6148409,39.4264004 86.6802809,40.3777204 88.5829209,42.1746204 L93.868221,39.4264004 L95.771201,39.4264004 L85.8347009,74.3090408 C85.2006009,76.6346408 85.7289609,78.0085808 87.3147209,78.0085808 C89.9572009,78.0085808 94.079701,75.1546208 97.462361,71.6662208 L98.836301,73.0411808 L98.836301,73.0411808 Z M81.2892409,46.1920605 C80.5490608,43.3381005 79.2808608,42.3867804 77.4839608,42.3867804 C67.7589407,42.3867804 60.5713406,64.5850407 60.5713406,73.9925008 C60.5713406,75.4725208 60.7824806,78.4322208 63.0023407,78.4322208 C66.0677807,78.4322208 74.7357408,65.5360207 79.7034808,52.8516406 L81.2892409,46.1920605 L81.2892409,46.1920605 Z" id="Shape" fill="#000000"></path>
                    <path d="M109.725141,81.9202809 C106.870841,81.4973209 103.699661,81.0747009 99.9997811,80.8632209 L99.682901,79.0663208 L108.984621,71.9841208 C129.808601,73.4641408 136.573581,79.8065008 136.573581,87.4170609 C136.573581,99.044721 123.783461,109.192361 107.927901,109.192361 C100.528141,109.192361 93.022981,106.549881 93.022981,99.678821 C93.023321,94.499261 97.040081,88.5798609 109.725141,81.9202809 L109.725141,81.9202809 Z M113.318941,82.5547209 C105.390821,88.3687209 103.911141,95.027961 103.911141,98.410621 C103.911141,102.533121 107.081981,105.915781 111.415961,105.915781 C119.767041,105.915781 126.425941,99.150801 126.425941,92.913841 C126.426281,88.8967409 123.678061,84.8799809 113.318941,82.5547209 L113.318941,82.5547209 Z M140.273801,41.2239804 C143.339242,42.8097405 145.241542,45.4522205 145.241542,49.2575005 C145.241542,61.9422207 132.451081,71.7726408 120.718021,71.7726408 C112.473021,71.7726408 106.553281,68.7072007 106.553281,61.9418807 C106.553281,49.2571605 119.449481,39.4267404 131.077141,39.4267404 C133.297001,39.4267404 135.410781,39.6382204 137.313761,40.1665804 L142.704802,29.2791003 L144.184482,29.2791003 L151.161282,36.2555604 L140.273801,41.2239804 L140.273801,41.2239804 Z M133.402741,50.2088205 C133.402741,46.2978005 132.345681,42.3867804 128.857281,42.3867804 C122.092641,42.3867804 118.392761,54.5428006 118.392761,60.9909006 C118.392761,64.9019207 119.449481,68.8129407 122.937881,68.8129407 C129.703201,68.8129407 133.402741,56.6569206 133.402741,50.2088205 L133.402741,50.2088205 Z" id="Shape" fill="#000000"></path>
                    <path d="M94.924941,142.707862 C88.6883209,150.213022 80.3375808,155.815202 73.8894808,155.815202 C69.7669807,155.815202 66.7015407,152.855502 69.0271407,147.464462 L69.8727207,145.456082 L69.0271407,145.456082 C63.8475807,152.749762 57.5052206,155.815202 53.0658406,155.815202 C48.9433405,155.815202 46.8288805,153.383862 46.8288805,150.212682 C46.8288805,146.195922 50.2115405,142.496041 72.3040608,133.934161 L74.5239208,126.112121 C76.4265608,119.452881 74.3124408,116.598581 69.8727207,116.598581 C65.2215207,116.598581 60.1477006,120.192721 55.3911006,125.055061 L54.0168206,123.680781 C59.0906406,116.704321 69.1325407,109.093421 78.5403408,109.093421 C84.5658209,109.093421 91.013921,112.370341 87.9481409,122.940941 L81.9230009,143.976062 C81.2889009,146.301662 81.8172609,147.675942 83.4030209,147.675942 C86.0455009,147.675942 90.1680009,144.821642 93.551001,141.333581 L94.924941,142.707862 L94.924941,142.707862 Z M71.3527408,136.999601 C62.8962607,139.853561 58.7737606,143.024742 58.7737606,145.244602 C58.7737606,146.724622 59.9365606,147.675942 61.7338006,147.675942 C64.4816807,147.675942 69.0271407,143.553442 71.3527408,136.999601 L71.3527408,136.999601 Z" id="Shape" fill="#000000"></path>
                    <path d="M102.853401,161.100502 C102.430781,168.288442 104.439161,175.899342 109.301501,175.899342 C116.383701,175.899342 124.734781,160.783622 126.637421,138.056661 L125.791501,138.056661 C120.612281,148.098562 113.001381,155.815202 106.236061,155.815202 C101.479461,155.815202 98.625161,151.904182 98.625161,146.090182 C98.625161,130.128541 113.952361,109.093421 130.759921,109.093421 C134.353721,109.093421 137.419161,110.044741 139.321801,111.841641 L144.607102,109.093421 L146.510082,109.093421 L138.265081,138.056661 C137.102281,169.028282 116.489781,178.859042 106.765101,178.859042 C99.154201,178.859042 93.657761,175.264902 92.177741,168.499922 L100.951441,161.100502 L102.853401,161.100502 L102.853401,161.100502 Z M132.028121,115.858401 C131.287941,113.004441 130.019741,112.053121 128.222841,112.053121 C118.497821,112.053121 111.310221,134.251041 111.310221,143.658842 C111.310221,145.138862 111.521361,148.098562 113.741221,148.098562 C116.806661,148.098562 125.474621,135.202701 130.442361,122.517981 L132.028121,115.858401 L132.028121,115.858401 Z" id="Shape" fill="#000000"></path>
                </g>
                <g id="Q" transform="translate(1844.840019, 0.000000)" sketch:type="MSShapeGroup">
                    <path d="M204.119682,102.305321 C204.119682,158.641622 158.431502,204.305662 102.100301,204.305662 C45.7816805,204.305662 0.094860001,158.641622 0.094860001,102.305321 C0.094860001,45.9799005 45.7816805,0.304980003 102.100301,0.304980003 C158.431502,0.304980003 204.119682,45.9799005 204.119682,102.305321 L204.119682,102.305321 Z" id="Shape" fill="#FF3C32"></path>
                    <path d="M52.0366605,108.651421 C52.0366605,73.3349408 87.0372809,37.2300004 115.574841,37.2300004 C134.336721,37.2300004 147.264882,49.6852205 147.264882,72.2313008 C147.264882,107.547781 112.263921,143.652382 83.7267009,143.652382 C64.9644807,143.652722 52.0366605,131.197501 52.0366605,108.651421 L52.0366605,108.651421 Z M133.548261,74.2811608 C133.548261,58.0417406 128.030061,42.7485404 111.475461,42.7485404 C86.7221009,42.7485404 65.7529407,73.4927008 65.7529407,106.759661 C65.7529407,122.999081 71.1137207,138.134521 87.6679809,138.134521 C112.263921,138.134521 133.548261,107.547781 133.548261,74.2811608 L133.548261,74.2811608 Z M138.278001,153.743242 C134.020861,164.148942 126.137961,173.766522 115.259321,173.766522 C104.538101,173.766522 83.5689409,162.887882 75.0550008,155.635342 L83.2534209,146.963982 L85.4607009,146.963982 C94.132061,154.373942 111.002181,164.149282 120.934941,164.149282 C126.926081,164.149282 131.813581,160.522842 136.228141,152.639602 L138.278001,153.743242 L138.278001,153.743242 Z" id="Shape" fill="#000000"></path>
                </g>
                <g id="3/4" transform="translate(2075.360022, 0.000000)" sketch:type="MSShapeGroup">
                    <path d="M204.142802,102.305321 C204.142802,158.641622 158.454622,204.305662 102.123421,204.305662 C45.8048005,204.305662 0.117980001,158.641622 0.117980001,102.305321 C0.117980001,45.9799005 45.8048005,0.304980003 102.123421,0.304980003 C158.454622,0.304980003 204.142802,45.9799005 204.142802,102.305321 L204.142802,102.305321 Z" id="Shape" fill="#FF3C32"></path>
                    <path d="M56.3227006,92.155301 L57.7728006,92.155301 C62.1220807,100.419341 67.9218007,105.058981 74.7357408,105.058981 C79.5202208,105.058981 84.8847409,103.029181 84.8847409,95.200001 C84.8847409,87.5156609 77.9252808,83.7460809 68.9367007,82.0063009 L68.9367007,80.4117008 L82.8552809,65.9134207 L82.8552809,65.0433607 L72.5614408,65.0433607 C66.7620607,65.0433607 62.5576207,65.6234007 57.9183206,73.0173808 L56.3237206,73.0173808 L56.3237206,55.0395406 L96.194501,55.0395406 L96.194501,56.6344806 L78.3611608,76.0620808 C89.6702409,77.5118408 97.644261,82.7315209 97.644261,91.430421 C97.644261,102.739161 85.1757809,108.973401 73.8667008,108.973401 C68.3576807,108.973401 61.5430606,107.668821 56.3237206,104.914141 L56.3237206,92.155301 L56.3227006,92.155301 Z M74.3005408,150.003922 L136.643281,50.2554005 L142.297821,53.7349606 L79.9550808,153.483482 L74.3005408,150.003922 L74.3005408,150.003922 Z M121.420461,148.264142 L121.420461,146.669542 C128.379581,145.219442 129.539321,143.914862 129.539321,139.565241 L129.539321,137.535441 L101.557661,137.535441 L101.557661,135.940501 L131.859141,95.780041 L141.718121,95.780041 L141.718121,127.531281 L151.576762,127.531281 L151.576762,137.535101 L141.718121,137.535101 L141.718121,139.564901 C141.718121,143.914522 142.877522,145.219102 149.692142,146.669202 L149.692142,148.263802 L121.420461,148.263802 L121.420461,148.264142 Z M129.539321,105.639021 L128.814441,105.639021 L112.576381,126.806741 L112.576381,127.531621 L129.539321,127.531621 L129.539321,105.639021 L129.539321,105.639021 Z" id="Shape" fill="#000000"></path>
                </g>
                <g id="G" transform="translate(2536.400027, 0.000000)" sketch:type="MSShapeGroup">
                    <path d="M204.189382,102.305321 C204.189382,158.641622 158.501202,204.305662 102.170001,204.305662 C45.8513805,204.305662 0.164560002,158.641622 0.164560002,102.305321 C0.164560002,45.9799005 45.8513805,0.304980003 102.170001,0.304980003 C158.501202,0.304980003 204.189382,45.9799005 204.189382,102.305321 L204.189382,102.305321 Z" id="Shape" fill="#FF3C32"></path>
                    <path d="M107.227841,156.783522 C70.2154407,156.783522 45.1533605,135.207121 45.1533605,101.514141 C45.1533605,67.1574807 74.5307208,44.7511405 108.887381,44.7511405 C118.680061,44.7511405 131.957741,45.7470005 142.248181,48.9005005 L142.248181,74.9584408 L139.260601,74.9584408 C129.966021,59.3568606 119.343741,52.2199205 107.559681,52.2199205 C82.4976009,52.2199205 72.7052608,75.7883808 72.7052608,97.364781 C72.7052608,117.447561 80.8377209,149.314742 111.874961,149.314742 C115.028461,149.314742 118.181961,149.148822 121.335461,148.650722 L121.335461,127.240241 C121.335461,117.613821 117.684201,115.455841 105.567961,112.634521 L105.567961,109.646941 L145.567602,109.646941 L145.567602,147.987042 C135.277161,152.634162 121.999141,156.783522 107.227841,156.783522 L107.227841,156.783522 Z" id="Shape" fill="#000000"></path>
                </g>
                <g id="MCM" transform="translate(2305.880024, 0.000000)" sketch:type="MSShapeGroup">
                    <path d="M204.165922,102.305661 C204.165922,158.641962 158.477742,204.305662 102.146541,204.305662 C45.8279205,204.305662 0.141100001,158.641622 0.141100001,102.305661 C0.141100001,45.9799005 45.8279205,0.305660003 102.146541,0.305660003 C158.477742,0.305660003 204.165922,45.9802405 204.165922,102.305661 L204.165922,102.305661 Z" id="Shape" fill="#FF3C32"></path>
                    <path d="M66.0137207,83.7773609 L66.0137207,82.9583009 C70.2848007,81.9638009 71.1038607,81.2032209 70.9869007,78.9799608 L70.0505407,63.9441407 L69.5238807,52.2430405 L69.1730007,52.2430405 L55.4829006,84.6549009 L54.6638406,84.6549009 L39.2771404,53.4718006 L38.9259204,53.4718006 L38.5162204,65.1729007 L37.9310804,77.2248808 C37.7556404,81.2032209 40.0958604,81.9638009 44.3669405,82.9583009 L44.3669405,83.7773609 L29.6823403,83.7773609 L29.6823403,82.9583009 C33.3682804,81.9638009 35.2991404,81.2032209 35.5327204,77.2248808 L36.8199604,52.7112206 C37.0538804,48.7328805 34.6555204,47.9723005 30.9692403,46.9778005 L30.9692403,46.1587405 L41.5004004,46.1587405 L56.4192606,76.4058208 L56.7701406,76.4058208 L69.2903007,46.1587405 L79.4699008,46.1587405 L79.4699008,46.9778005 C75.1988208,47.9723005 74.3801008,48.7328805 74.4970608,50.9561405 L76.0182208,78.9799608 C76.1355208,81.2032209 76.7203208,81.9638009 80.9910609,82.9583009 L80.9910609,83.7773609 L66.0137207,83.7773609 L66.0137207,83.7773609 Z" id="Shape" fill="#000000"></path>
                    <path d="M117.263621,81.2617009 C112.758621,83.8943209 107.669161,84.7133809 103.632341,84.7133809 C92.925741,84.7133809 83.8572609,78.0439408 83.8572609,65.2898607 C83.8572609,53.3548406 93.101181,45.2227205 104.919241,45.2227205 C108.370921,45.2227205 112.758621,45.8663405 116.971221,47.3286805 L116.971221,55.8705006 L116.151821,55.8705006 C113.461061,49.7858605 109.541201,47.2702005 104.217141,47.2702005 C95.090181,47.2702005 89.4737209,54.5832606 89.4737209,64.1780607 C89.4737209,72.1347408 93.452061,82.6655609 104.275621,82.6655609 C109.599341,82.6655609 113.753121,79.3893208 116.444561,72.7195408 L117.263281,72.7195408 L117.263281,81.2617009 L117.263621,81.2617009 Z" id="Shape" fill="#000000"></path>
                    <path d="M158.275442,83.7773609 L158.275442,82.9583009 C162.546182,81.9638009 163.365582,81.2032209 163.247942,78.9799608 L162.312262,63.9441407 L161.785602,52.2430405 L161.434382,52.2430405 L147.744622,84.6549009 L146.925222,84.6549009 L131.538181,53.4718006 L131.187641,53.4718006 L130.777941,65.1729007 L130.192801,77.2248808 C130.017361,81.2032209 132.357581,81.9638009 136.628321,82.9583009 L136.628321,83.7773609 L121.944061,83.7773609 L121.944061,82.9583009 C125.629661,81.9638009 127.560861,81.2032209 127.794441,77.2248808 L129.081341,52.7112206 C129.315601,48.7328805 126.916561,47.9723005 123.230961,46.9778005 L123.230961,46.1587405 L133.761781,46.1587405 L148.680642,76.4058208 L149.031862,76.4058208 L161.552022,46.1587405 L171.731282,46.1587405 L171.731282,46.9778005 C167.460542,47.9723005 166.641142,48.7328805 166.758782,50.9561405 L168.279602,78.9799608 C168.396562,81.2032209 168.981362,81.9638009 173.252782,82.9583009 L173.252782,83.7773609 L158.275442,83.7773609 L158.275442,83.7773609 Z" id="Shape" fill="#000000"></path>
                    <path d="M58.2620606,126.730921 L58.2620606,125.911861 C61.9483407,124.917361 62.1234407,123.747081 60.8950206,121.933521 L52.7044206,109.823061 L52.3532006,109.823061 L45.3328805,120.178441 C43.1681005,123.454681 43.8698605,124.917361 47.5561405,125.911861 L47.5561405,126.730921 L35.6207804,126.730921 L35.6207804,125.911861 C38.4291804,124.917361 40.4766604,123.454681 42.7584004,120.178441 L51.2998805,108.126461 L41.6466004,93.910041 C40.4178404,92.096481 39.5991204,90.926201 35.9131804,89.9317009 L35.9131804,89.1126409 L50.5396405,89.1126409 L50.5396405,89.9317009 C46.8537005,90.926201 46.6782605,92.096481 47.9066805,93.910041 L54.6349406,103.973021 L54.9861606,103.973021 L60.6026206,95.665121 C62.7670607,92.388881 62.0653007,90.926201 58.3793606,89.9317009 L58.3793606,89.1126409 L70.3143807,89.1126409 L70.3143807,89.9317009 C67.5063207,90.926201 65.4588407,92.388881 63.1771007,95.665121 L55.9806606,105.728101 L67.1554407,121.933861 C68.3838607,123.747421 69.2025807,124.917701 72.8888608,125.912201 L72.8888608,126.731261 L58.2620606,126.731261 L58.2620606,126.730921 Z" id="Shape" fill="#000000"></path>
                    <path d="M105.708721,124.215261 C101.204061,126.847881 96.114261,127.666941 92.077441,127.666941 C81.3708409,127.666941 72.3023608,120.997501 72.3023608,108.243421 C72.3023608,96.308061 81.5462809,88.1762809 93.364341,88.1762809 C96.816021,88.1762809 101.204061,88.8199009 105.416321,90.2825809 L105.416321,98.824401 L104.596921,98.824401 C101.906161,92.739761 97.986301,90.2241009 92.662241,90.2241009 C83.5352809,90.2241009 77.9188208,97.537161 77.9188208,107.131961 C77.9188208,115.088641 81.8971609,125.619461 92.720721,125.619461 C98.044441,125.619461 102.198221,122.343221 104.889661,115.673781 L105.708381,115.673781 L105.708381,124.215261 L105.708721,124.215261 Z" id="Shape" fill="#000000"></path>
                    <path d="M111.558421,126.730921 L111.558421,125.911861 C115.829501,124.917361 116.531601,124.156781 116.531601,121.933521 L116.531601,93.909701 C116.531601,91.686441 115.829841,90.925861 111.558421,89.9313609 L111.558421,89.1123009 L126.535761,89.1123009 L126.535761,89.9313609 C122.265021,90.925861 121.563261,91.686441 121.563261,93.909701 L121.563261,121.933521 C121.563261,124.156781 122.265021,124.917361 126.535761,125.911861 L126.535761,126.730921 L111.558421,126.730921 L111.558421,126.730921 Z" id="Shape" fill="#000000"></path>
                    <path d="M152.687882,126.730921 L152.687882,125.911861 C156.373482,124.917361 156.548582,123.747081 155.320162,121.933521 L147.129562,109.823061 L146.778342,109.823061 L139.758021,120.178441 C137.593241,123.454681 138.295681,124.917361 141.981281,125.911861 L141.981281,126.730921 L130.045921,126.730921 L130.045921,125.911861 C132.854321,124.917361 134.902141,123.454681 137.183881,120.178441 L145.725702,108.126461 L136.072081,93.910041 C134.843661,92.096481 134.024261,90.926201 130.338661,89.9317009 L130.338661,89.1126409 L144.964782,89.1126409 L144.964782,89.9317009 C141.279181,90.926201 141.103401,92.096481 142.332501,93.910041 L149.060082,103.973021 L149.411302,103.973021 L155.028102,95.665121 C157.192202,92.388881 156.490442,90.926201 152.804842,89.9317009 L152.804842,89.1126409 L164.740202,89.1126409 L164.740202,89.9317009 C161.931802,90.926201 159.883982,92.388881 157.602242,95.665121 L150.406482,105.728101 L161.580582,121.933861 C162.809002,123.747421 163.628402,124.917701 167.314002,125.912201 L167.314002,126.731261 L152.687882,126.731261 L152.687882,126.730921 Z" id="Shape" fill="#000000"></path>
                    <path d="M72.3322808,170.562022 L57.4134206,136.863261 C56.5355406,134.815781 56.4770606,133.879761 52.2066605,132.884921 L52.2066605,132.065861 L67.4175807,132.065861 L67.4175807,132.884921 C63.1468407,133.879761 62.3862607,134.815781 63.2053207,136.863261 L73.8527608,162.254462 L74.2039808,162.254462 L83.2724609,138.618341 C84.6763209,134.932741 83.5063809,133.879421 79.2356408,132.884921 L79.2356408,132.065861 L91.755461,132.065861 L91.755461,132.884921 C88.3622609,133.879761 87.1335009,134.932741 85.6708209,138.618341 L73.1506608,170.562022 L72.3322808,170.562022 L72.3322808,170.562022 Z" id="Shape" fill="#000000"></path>
                    <path d="M94.387401,169.684482 L94.387401,168.865422 C98.658481,167.870922 99.360241,167.110342 99.360241,164.887082 L99.360241,136.863261 C99.360241,134.640001 98.658481,133.879761 94.387401,132.884921 L94.387401,132.065861 L109.365081,132.065861 L109.365081,132.884921 C105.094001,133.879761 104.391901,134.640341 104.391901,136.863261 L104.391901,164.887082 C104.391901,167.110342 105.093661,167.870922 109.365081,168.865422 L109.365081,169.684482 L94.387401,169.684482 L94.387401,169.684482 Z" id="Shape" fill="#000000"></path>
                    <path d="M114.044841,169.684482 L114.044841,168.865422 C118.315921,167.870922 119.018021,167.110342 119.018021,164.887082 L119.018021,136.863261 C119.018021,134.640001 118.316261,133.879761 114.044841,132.884921 L114.044841,132.065861 L129.022181,132.065861 L129.022181,132.884921 C124.751441,133.879761 124.049681,134.640341 124.049681,136.863261 L124.049681,164.887082 C124.049681,167.110342 124.751441,167.870922 129.022181,168.865422 L129.022181,169.684482 L114.044841,169.684482 L114.044841,169.684482 Z" id="Shape" fill="#000000"></path>
                    <path d="M133.702281,169.684482 L133.702281,168.865422 C137.973021,167.870922 138.674781,167.110342 138.674781,164.887082 L138.674781,136.863261 C138.674781,134.640001 137.973021,133.879761 133.702281,132.884921 L133.702281,132.065861 L148.679622,132.065861 L148.679622,132.884921 C144.408542,133.879761 143.706442,134.640341 143.706442,136.863261 L143.706442,164.887082 C143.706442,167.110342 144.408202,167.870922 148.679622,168.865422 L148.679622,169.684482 L133.702281,169.684482 L133.702281,169.684482 Z" id="Shape" fill="#000000"></path>
                </g>
                <g id="ffj" transform="translate(1383.120015, 0.000000)" sketch:type="MSShapeGroup">
                    <path d="M204.255682,102.305661 C204.255682,158.641962 158.567502,204.305662 102.236301,204.305662 C45.9176805,204.305662 0.230860002,158.641622 0.230860002,102.305661 C0.230860002,45.9799005 45.9176805,0.305660003 102.236301,0.305660003 C158.567502,0.305660003 204.255682,45.9802405 204.255682,102.305661 L204.255682,102.305661 Z" id="Shape" fill="#FF3C32"></path>
                    <path d="M115.595241,157.748102 L117.992921,157.748102 C121.889321,166.440202 127.434721,173.184102 132.979441,173.184102 C137.025781,173.184102 139.873281,170.786422 139.873281,163.892582 C139.873281,159.246822 137.775141,152.203042 132.529961,144.110362 L132.529961,88.0606809 L106.003841,88.0606809 L106.003841,132.121281 C106.003841,137.066921 106.303381,139.015121 115.145761,141.113261 L115.145761,143.660882 L79.3277808,143.660882 L79.3277808,141.113261 C87.1205809,139.015121 88.0198809,137.066921 88.0198809,132.121281 L88.0198809,88.0606809 L61.7936406,88.0606809 L61.7936406,132.121281 C61.7936406,137.066921 62.2431207,139.015121 70.0362607,141.113261 L70.0362607,143.660882 L35.1175804,143.660882 L35.1175804,141.113261 C43.0603205,139.015121 43.9596205,137.066921 43.9596205,132.121281 L43.9596205,88.0606809 L33.6188604,88.0606809 L33.6188604,82.9654409 L43.9596205,82.9654409 L40.9625204,71.1259607 C34.9679804,46.8479205 54.6002606,37.1065804 71.5349808,37.1065804 C78.7287008,37.1065804 87.1209209,38.7552404 94.764121,42.8015805 C100.908601,38.9051804 108.551801,37.1065804 116.045061,37.1065804 C126.235881,37.1065804 138.524841,39.3546604 148.415782,45.3492005 L140.473041,63.0332807 L137.925421,63.0332807 C128.633561,49.5454805 120.990701,42.6516404 113.047621,42.6516404 C104.055641,42.6516404 96.112901,48.6461805 100.309181,63.3331607 L106.004181,82.9654409 L137.176061,82.9654409 L147.966302,81.4667209 L150.513922,81.4667209 L150.513922,142.611642 C152.911942,147.257402 154.560262,152.352982 154.560262,157.598162 C154.560262,171.535782 142.420901,178.729162 131.031241,178.729162 C124.137401,178.729162 115.295361,176.780962 108.851001,171.685722 L115.595241,157.748102 L115.595241,157.748102 Z M61.7936406,82.9654409 L88.0198809,82.9654409 L85.0227809,71.1259607 C83.2241809,63.9322407 83.6740009,58.0876406 85.6222009,53.2919406 C79.9272008,44.7494405 74.0826008,42.6513004 68.5375407,42.6513004 C59.8454406,42.6513004 52.0523005,48.6458405 56.2485806,63.3328207 L61.7936406,82.9654409 L61.7936406,82.9654409 Z" id="Shape" fill="#000000"></path>
                </g>
                <g id="a" transform="translate(1152.600012, 0.000000)" sketch:type="MSShapeGroup">
                    <path d="M204.232562,102.305321 C204.232562,158.641622 158.544382,204.305662 102.213181,204.305662 C45.8945605,204.305662 0.207740002,158.641622 0.207740002,102.305321 C0.207740002,45.9799005 45.8945605,0.304980003 102.213181,0.304980003 C158.544382,0.304980003 204.232562,45.9799005 204.232562,102.305321 L204.232562,102.305321 Z" id="Shape" fill="#FF3C32"></path>
                    <path d="M149.095442,151.984082 C144.017202,159.389622 135.765401,167.218462 124.974481,167.218462 C117.780421,167.218462 108.682361,163.621602 106.354721,150.714522 L104.873681,150.714522 C99.160661,160.870662 88.7930409,167.218462 77.7906408,167.218462 C66.5764207,167.218462 58.9594006,159.389962 58.9594006,150.291562 C58.9594006,141.404981 65.5186807,135.903781 106.354721,121.092701 L106.354721,110.724741 C106.354721,98.029481 100.430221,92.104981 89.4278209,92.104981 C80.1179408,92.104981 69.7503207,96.971401 62.1329607,105.223541 L59.1708806,102.684421 C67.2108607,88.9310809 84.5614009,74.7547808 104.027421,74.7547808 C117.780421,74.7547808 131.745241,81.3140609 131.745241,101.837821 L131.745241,142.885682 C131.745241,148.810182 133.226281,152.618862 138.092701,152.618862 C140.843301,152.618862 143.805722,151.349302 146.556322,149.233482 L149.095442,151.984082 L149.095442,151.984082 Z M66.5764207,48.3065205 C66.5764207,40.4776804 72.5009208,34.1302204 80.7527208,34.1302204 C89.0048609,34.1302204 94.717541,40.4776804 94.717541,48.3065205 C94.717541,56.1353606 89.0045209,62.4828207 80.7527208,62.4828207 C72.5009208,62.4824807 66.5764207,56.1353606 66.5764207,48.3065205 L66.5764207,48.3065205 Z M106.354721,136.326401 L106.354721,128.074601 C85.6191409,135.903101 83.0800209,140.135081 83.0800209,144.790022 C83.0800209,149.021662 86.4654009,151.772602 91.120341,151.772602 C97.891441,151.772602 106.354721,145.424802 106.354721,136.326401 L106.354721,136.326401 Z M107.412801,48.3065205 C107.412801,40.4776804 113.125481,34.1302204 121.377281,34.1302204 C129.629421,34.1302204 135.553581,40.4776804 135.553581,48.3065205 C135.553581,56.1353606 129.629081,62.4828207 121.377281,62.4828207 C113.125481,62.4824807 107.412801,56.1353606 107.412801,48.3065205 L107.412801,48.3065205 Z" id="Shape" fill="#000000"></path>
                </g>
            </g>
            <g id="hrot" sketch:type="MSLayerGroup" transform="translate(49.640001, 531.420006)">
                <g id="Hmmmm" sketch:type="MSShapeGroup">
                    <path d="M204.116282,102.168981 C204.116282,158.505282 158.428102,204.169322 102.096901,204.169322 C45.7782805,204.169322 0.091460001,158.505282 0.091460001,102.168981 C0.091460001,45.8435605 45.7782805,0.168640002 102.096901,0.168640002 C158.428102,0.168640002 204.116282,45.8435605 204.116282,102.168981 L204.116282,102.168981 Z" id="Shape" fill="#0078FF"></path>
                    <path d="M157.562462,74.1652208 L157.562462,63.0489207 L143.764242,63.0489207 L143.764242,74.1652208 L134.746761,74.1652208 L134.746761,45.0139605 L143.764242,45.0139605 L143.764242,55.4696406 L157.562462,55.4696406 L157.562462,45.0139605 L166.579942,45.0139605 L166.579942,74.1652208 L157.562462,74.1652208 L157.562462,74.1652208 Z" id="Shape" fill="#000000"></path>
                    <path d="M67.1962407,99.781501 L67.1962407,87.5768609 C67.1962407,85.1669409 65.6026607,84.4284609 64.3198407,84.4284609 C63.0373607,84.4284609 61.0548206,85.1669409 59.4612406,86.2552809 L59.4612406,99.781501 L50.8323805,99.781501 L50.8323805,87.5768609 C50.8323805,85.1669409 49.2388005,84.4284609 47.9559805,84.4284609 C46.6735005,84.4284609 44.6909605,85.1669409 43.0973805,86.2552809 L43.0973805,99.781501 L34.4685204,99.781501 L34.4685204,78.0150408 L43.0973805,78.0150408 L42.7087604,81.0468209 C45.7405405,78.2482808 48.9277005,77.2374608 51.5317605,77.2374608 C54.7580206,77.2374608 57.1676006,78.5978008 58.4504206,81.2800609 C62.5705407,78.0538008 65.2912207,77.2374608 67.8956207,77.2374608 C72.8708408,77.2374608 75.8247608,80.5803408 75.8247608,86.2549409 L75.8247608,99.781161 L67.1962407,99.781161 L67.1962407,99.781501 Z" id="Shape" fill="#000000"></path>
                    <path d="M112.050061,99.781501 L112.050061,87.5768609 C112.050061,85.1669409 110.456481,84.4284609 109.174001,84.4284609 C107.891181,84.4284609 105.908981,85.1669409 104.315401,86.2552809 L104.315401,99.781501 L95.686201,99.781501 L95.686201,87.5768609 C95.686201,85.1669409 94.092621,84.4284609 92.809801,84.4284609 C91.526981,84.4284609 89.5447809,85.1669409 87.9512009,86.2552809 L87.9512009,99.781501 L79.3223408,99.781501 L79.3223408,78.0150408 L87.9512009,78.0150408 L87.5625809,81.0468209 C90.594361,78.2482808 93.781521,77.2374608 96.385581,77.2374608 C99.611841,77.2374608 102.021421,78.5978008 103.304241,81.2800609 C107.424361,78.0538008 110.145041,77.2374608 112.749101,77.2374608 C117.724321,77.2374608 120.678241,80.5803408 120.678241,86.2549409 L120.678241,99.781161 L112.050061,99.781161 L112.050061,99.781501 Z" id="Shape" fill="#000000"></path>
                    <path d="M156.903542,99.781501 L156.903542,87.5768609 C156.903542,85.1669409 155.309622,84.4284609 154.027142,84.4284609 C152.744662,84.4284609 150.762122,85.1669409 149.168542,86.2552809 L149.168542,99.781501 L140.540021,99.781501 L140.540021,87.5768609 C140.540021,85.1669409 138.946441,84.4284609 137.663961,84.4284609 C136.381481,84.4284609 134.398941,85.1669409 132.805361,86.2552809 L132.805361,99.781501 L124.176501,99.781501 L124.176501,78.0150408 L132.805361,78.0150408 L132.416741,81.0468209 C135.448521,78.2482808 138.635681,77.2374608 141.239741,77.2374608 C144.466002,77.2374608 146.875582,78.5978008 148.158402,81.2800609 C152.278182,78.0538008 154.999202,77.2374608 157.603262,77.2374608 C162.578482,77.2374608 165.532402,80.5803408 165.532402,86.2549409 L165.532402,99.781161 L156.903542,99.781161 L156.903542,99.781501 Z" id="Shape" fill="#000000"></path>
                    <path d="M67.1962407,125.397781 L67.1962407,113.193141 C67.1962407,110.783221 65.6026607,110.044741 64.3198407,110.044741 C63.0373607,110.044741 61.0548206,110.783221 59.4612406,111.871561 L59.4612406,125.397781 L50.8323805,125.397781 L50.8323805,113.193141 C50.8323805,110.783221 49.2388005,110.044741 47.9559805,110.044741 C46.6735005,110.044741 44.6909605,110.783221 43.0973805,111.871561 L43.0973805,125.397781 L34.4685204,125.397781 L34.4685204,103.631321 L43.0973805,103.631321 L42.7087604,106.663101 C45.7405405,103.864561 48.9277005,102.853741 51.5317605,102.853741 C54.7580206,102.853741 57.1676006,104.214081 58.4504206,106.896341 C62.5705407,103.670081 65.2912207,102.853741 67.8956207,102.853741 C72.8708408,102.853741 75.8247608,106.196621 75.8247608,111.871221 L75.8247608,125.397441 L67.1962407,125.397441 L67.1962407,125.397781 Z" id="Shape" fill="#000000"></path>
                    <path d="M112.050061,125.397781 L112.050061,113.193141 C112.050061,110.783221 110.456481,110.044741 109.174001,110.044741 C107.891181,110.044741 105.908981,110.783221 104.315401,111.871561 L104.315401,125.397781 L95.686201,125.397781 L95.686201,113.193141 C95.686201,110.783221 94.092621,110.044741 92.809801,110.044741 C91.526981,110.044741 89.5447809,110.783221 87.9512009,111.871561 L87.9512009,125.397781 L79.3223408,125.397781 L79.3223408,103.631321 L87.9512009,103.631321 L87.5625809,106.663101 C90.594361,103.864561 93.781521,102.853741 96.385581,102.853741 C99.611841,102.853741 102.021421,104.214081 103.304241,106.896341 C107.424361,103.670081 110.145041,102.853741 112.749101,102.853741 C117.724321,102.853741 120.678241,106.196621 120.678241,111.871221 L120.678241,125.397441 L112.050061,125.397441 L112.050061,125.397781 Z" id="Shape" fill="#000000"></path>
                    <path d="M67.1962407,151.014062 L67.1962407,138.809421 C67.1962407,136.399501 65.6026607,135.661021 64.3198407,135.661021 C63.0373607,135.661021 61.0548206,136.399501 59.4612406,137.487841 L59.4612406,151.014062 L50.8323805,151.014062 L50.8323805,138.809421 C50.8323805,136.399501 49.2388005,135.661021 47.9559805,135.661021 C46.6735005,135.661021 44.6909605,136.399501 43.0973805,137.487841 L43.0973805,151.014062 L34.4685204,151.014062 L34.4685204,129.247601 L43.0973805,129.247601 L42.7087604,132.279381 C45.7405405,129.480841 48.9277005,128.470021 51.5317605,128.470021 C54.7580206,128.470021 57.1676006,129.830361 58.4504206,132.512621 C62.5705407,129.286361 65.2912207,128.470021 67.8956207,128.470021 C72.8708408,128.470021 75.8247608,131.812901 75.8247608,137.487501 L75.8247608,151.013722 L67.1962407,151.013722 L67.1962407,151.014062 Z" id="Shape" fill="#000000"></path>
                </g>
                <g id="Aa" transform="translate(230.520002, 0.000000)" sketch:type="MSShapeGroup">
                    <path d="M204.139402,102.168981 C204.139402,158.505282 158.451222,204.169322 102.120021,204.169322 C45.8014005,204.169322 0.114580001,158.505282 0.114580001,102.168981 C0.114580001,45.8435605 45.8014005,0.168640002 102.120021,0.168640002 C158.451222,0.168640002 204.139402,45.8435605 204.139402,102.168981 L204.139402,102.168981 Z" id="Shape" fill="#0078FF"></path>
                    <path d="M106.315281,134.009641 L94.444521,112.019801 L42.4860604,112.019801 L30.6153003,134.009641 L27.5988203,134.009641 L67.1027407,61.0340806 L70.0219807,61.0340806 L109.525901,134.009641 L106.315281,134.009641 L106.315281,134.009641 Z M43.7512005,109.684681 L93.180061,109.684681 L68.4658007,63.8557407 L43.7512005,109.684681 L43.7512005,109.684681 Z" id="Shape" fill="#000000"></path>
                    <path d="M164.403602,134.009641 L164.501182,125.447081 C154.965882,132.452781 142.705822,135.955461 133.753961,135.955461 C125.580701,135.955461 118.477761,132.938981 118.477761,125.057781 C118.477761,112.992541 137.159401,107.835761 164.403602,107.835761 L164.403602,96.354301 C164.403602,87.4024409 157.689962,81.5643009 144.846462,81.5643009 C138.911081,81.5643009 127.721681,83.5104609 120.715641,87.1103809 L120.910461,84.5804409 C127.916161,81.0777609 138.911081,79.3260808 145.040942,79.3260808 C159.830602,79.3260808 167.128362,86.0400609 167.128362,96.451201 L167.128362,134.009301 L164.403602,134.009301 L164.403602,134.009641 Z M164.403602,109.879161 C139.592101,109.879161 121.202181,114.160441 121.202181,124.960541 C121.202181,131.966241 127.624101,133.912401 134.921521,133.912401 C143.094782,133.912401 155.354842,130.117661 164.403602,123.306781 L164.403602,109.879161 L164.403602,109.879161 Z" id="Shape" fill="#000000"></path>
                </g>
                <g id="365" transform="translate(461.040005, 0.000000)" sketch:type="MSShapeGroup">
                    <path d="M204.162862,102.168981 C204.162862,158.505282 158.474682,204.169322 102.143481,204.169322 C45.8248605,204.169322 0.138040001,158.505282 0.138040001,102.168981 C0.138040001,45.8435605 45.8248605,0.168640002 102.143481,0.168640002 C158.474682,0.168640002 204.162862,45.8435605 204.162862,102.168981 L204.162862,102.168981 Z" id="Shape" fill="#0078FF"></path>
                    <path d="M41.8172804,96.701781 C47.9372805,99.596201 56.2074406,101.663741 63.0717007,101.663741 C72.7477608,101.663741 77.8753008,97.694241 77.8753008,92.731941 C77.8753008,88.5968609 72.4169408,86.2811209 60.1772806,86.2811209 L54.9671206,86.2811209 L56.7868006,75.8608008 L77.7930208,61.3050606 L48.7648405,61.3050606 L50.8323805,48.8998205 L99.709081,48.8998205 L97.807121,60.3952206 L73.9064808,76.2739008 C87.7176209,77.8453808 93.010401,83.8824209 93.010401,91.573901 C93.010401,105.881441 80.7704008,113.986021 61.6664806,113.986021 C55.0504206,113.986021 47.6071405,112.910941 40.4120604,110.429961 L41.8172804,96.701781 L41.8172804,96.701781 Z" id="Shape" fill="#000000"></path>
                    <path d="M156.111682,52.4565606 C150.735942,50.0582005 144.036922,48.6523005 138.082841,48.6523005 C125.512021,48.6523005 118.730721,55.8473806 116.497601,66.1850807 C122.617601,63.1250807 130.887761,61.1405006 136.676941,61.1405006 C148.503162,61.1405006 155.367422,66.6814807 155.367422,76.6883608 C155.367422,91.822781 142.713982,101.581461 124.188741,101.581461 C109.219901,101.581461 99.709081,91.574581 99.709081,76.5227808 C99.709081,55.0201606 115.174321,36.2470604 137.917261,36.2470604 C144.368082,36.2470604 152.224802,37.4047604 158.261842,39.9687004 L156.111682,52.4565606 L156.111682,52.4565606 Z M115.587761,75.2821208 C115.670381,85.0411409 120.549721,90.1686809 127.579561,90.1686809 C135.353321,90.1686809 139.902181,86.1162209 139.902181,79.9136008 C139.902181,74.8690208 135.601521,72.3050808 128.654641,72.3050808 C125.015621,72.3050808 119.805801,73.3801608 115.587761,75.2821208 L115.587761,75.2821208 Z" id="Shape" fill="#000000"></path>
                    <path d="M72.9956208,160.211402 C79.1156208,163.105822 87.3857809,165.173362 94.250041,165.173362 C103.843481,165.173362 107.565121,160.624842 107.565121,155.332062 C107.565121,150.783542 102.933641,148.385182 92.430701,148.385182 L76.5520208,148.385182 L82.8372609,112.409781 L127.496261,112.409781 L125.346101,124.815021 L93.919561,124.815021 L91.603821,137.964521 L101.528081,137.964521 C115.339221,137.964521 122.699881,143.671082 122.699881,153.760582 C122.699881,167.985162 111.866121,177.495982 92.844481,177.495982 C86.2284209,177.495982 78.1235008,176.420902 71.5900608,173.939922 L72.9956208,160.211402 L72.9956208,160.211402 Z" id="Shape" fill="#000000"></path>
                </g>
                <g id="CE" transform="translate(691.560007, 0.000000)" sketch:type="MSShapeGroup">
                    <path d="M204.185982,102.168981 C204.185982,158.505282 158.497802,204.169322 102.166601,204.169322 C45.8479805,204.169322 0.161160002,158.505282 0.161160002,102.168981 C0.161160002,45.8435605 45.8479805,0.168640002 102.166601,0.168640002 C158.497802,0.168640002 204.185982,45.8435605 204.185982,102.168981 L204.185982,102.168981 Z" id="Shape" fill="#0078FF"></path>
                    <path d="M72.9837208,137.413381 C48.2840805,137.413381 30.3912403,124.577361 30.3912403,100.947021 C30.3912403,77.3166808 48.2840805,64.4806607 72.9837208,64.4806607 L161.475522,64.4806607 L161.475522,64.9668607 L103.907401,64.9668607 L103.907401,99.9746211 L156.613522,99.9746211 L156.613522,100.460821 L103.907401,100.460821 L103.907401,136.927181 L161.475522,136.927181 L161.475522,137.413381 L72.9837208,137.413381 L72.9837208,137.413381 Z M103.323961,64.9668607 L72.9840608,64.9668607 C48.6733805,64.9668607 30.9746803,77.7059808 30.9746803,100.947021 C30.9746803,124.188061 48.6730405,136.927181 72.9840608,136.927181 L103.323961,136.927181 L103.323961,64.9668607 L103.323961,64.9668607 Z" id="Shape" fill="#000000"></path>
                </g>
                <g id="ett" transform="translate(922.080010, 0.000000)" sketch:type="MSShapeGroup">
                    <path d="M204.209102,102.168981 C204.209102,158.505282 158.520922,204.169322 102.189721,204.169322 C45.8711005,204.169322 0.184280002,158.505282 0.184280002,102.168981 C0.184280002,45.8435605 45.8711005,0.168640002 102.189721,0.168640002 C158.520922,0.168640002 204.209102,45.8435605 204.209102,102.168981 L204.209102,102.168981 Z" id="Shape" fill="#0078FF"></path>
                    <path d="M127.096761,85.8102209 C119.374681,88.9205409 106.933401,90.529421 100.069481,90.529421 C76.7958008,90.529421 63.4967007,77.9810408 63.4967007,58.3538606 C63.4967007,38.7270204 77.8685008,26.1786403 97.924421,26.1786403 C121.412641,26.1786403 135.677001,38.7270204 129.456361,65.4326607 L87.9501809,65.4326607 C90.3097809,69.8302207 95.136081,72.2965808 103.287241,72.2965808 C111.330961,72.2965808 121.948821,71.0096807 128.813081,68.4355407 L127.096761,85.8102209 L127.096761,85.8102209 Z M87.0920209,51.2754005 L106.719201,51.2754005 C107.362821,47.3072605 104.574141,43.3387805 97.924421,43.3387805 C92.347401,43.3387805 88.5934609,46.4491005 87.0920209,51.2754005 L87.0920209,51.2754005 Z" id="Shape" fill="#000000"></path>
                    <path d="M161.202842,165.148202 C154.660562,168.365622 145.544142,170.403582 136.856801,170.403582 C120.876461,170.403582 111.009321,161.716242 111.009321,145.413922 L111.009321,128.039241 L76.5816008,128.039241 L76.5816008,140.480521 C76.5816008,147.880962 80.5497408,150.562202 87.1994609,150.562202 C92.991021,150.562202 99.8552811,148.309702 104.574141,145.521362 L102.965601,165.148542 C96.423321,168.365962 87.3069009,170.403922 78.6195608,170.403922 C62.6392207,170.403922 52.7720806,161.716582 52.7720806,145.414262 L52.7720806,128.039581 L40.2237004,128.039581 L40.2237004,108.198201 L52.7720806,108.198201 L52.7720806,107.662021 L76.5819408,89.9657009 L76.5819408,108.198201 L111.009661,108.198201 L111.009661,107.662021 L134.819521,89.9657009 L134.819521,108.198201 L162.812062,108.198201 L162.812062,128.039581 L134.819521,128.039581 L134.819521,140.480861 C134.819521,147.881302 138.787661,150.562542 145.437382,150.562542 C151.228942,150.562542 158.093202,148.310042 162.812062,145.521702 L161.202842,165.148202 L161.202842,165.148202 Z" id="Shape" fill="#000000"></path>
                </g>
                <g id="arr" transform="translate(1152.600012, 0.000000)" sketch:type="MSShapeGroup">
                    <path d="M204.232562,102.168641 C204.232562,158.505282 158.544382,204.169322 102.213181,204.169322 C45.8945605,204.169322 0.207740002,158.505282 0.207740002,102.168641 C0.207740002,45.8432205 45.8945605,0.168300002 102.213181,0.168300002 C158.544382,0.168300002 204.232562,45.8432205 204.232562,102.168641 L204.232562,102.168641 Z" id="Shape" fill="#0078FF"></path>
                    <path d="M148.840102,99.247361 L126.209021,71.9181608 L107.415181,71.9181608 L130.124461,99.247361 L124.721181,99.247361 L102.090101,71.9181608 L59.1776806,71.9181608 L81.8869609,99.247361 L76.4836808,99.247361 L52.4433006,69.8819007 L76.4836808,40.5164404 L81.8869609,40.5164404 L59.2558806,67.8456407 L102.168301,67.8456407 L124.720841,40.5164404 L130.124121,40.5164404 L107.493381,67.8456407 L126.287221,67.8456407 L148.839762,40.5164404 L154.243042,40.5164404 L130.124121,69.8819007 L154.243042,99.247361 L148.840102,99.247361 L148.840102,99.247361 Z" id="Shape" fill="#000000"></path>
                    <path d="M124.799721,168.587982 L147.430462,141.258781 L104.518041,141.258781 L81.8869609,168.587982 L76.5618808,168.587982 L99.192961,141.258781 L80.3991208,141.258781 L57.7680406,168.587982 L52.4429606,168.587982 L76.4833408,139.222521 L52.4429606,109.857061 L57.7680406,109.857061 L80.3991208,137.186261 L99.114421,137.186261 L76.5618808,109.857061 L81.8869609,109.857061 L104.518041,137.186261 L147.352262,137.186261 L124.799721,109.857061 L130.124461,109.857061 L154.243382,139.222521 L130.124461,168.587982 L124.799721,168.587982 L124.799721,168.587982 Z" id="Shape" fill="#000000"></path>
                </g>
                <g id="goo" transform="translate(1383.120015, 0.000000)" sketch:type="MSShapeGroup">
                    <path d="M204.255682,102.168981 C204.255682,158.505282 158.567502,204.169322 102.236301,204.169322 C45.9176805,204.169322 0.230860002,158.505282 0.230860002,102.168981 C0.230860002,45.8435605 45.9176805,0.168640002 102.236301,0.168640002 C158.567502,0.168640002 204.255682,45.8435605 204.255682,102.168981 L204.255682,102.168981 Z" id="Shape" fill="#0078FF"></path>
                    <path d="M90.347861,58.8478806 C91.352221,60.6740206 91.899961,62.7742007 91.899961,65.1480807 C91.899961,76.1052608 80.2124608,80.8530209 63.9594407,80.8530209 C58.5721406,80.8530209 53.6414606,80.3964008 49.4414405,79.3009208 C47.9804605,80.4878608 47.3412605,81.8577209 47.3412605,83.2272409 C47.3412605,86.6058209 50.4458005,87.7013009 54.0980806,87.7013009 L73.3641808,87.7013009 C85.2342609,87.7013009 94.182381,91.718741 94.182381,101.214941 C94.182381,112.628401 79.6643808,118.928941 62.6810407,118.928941 C56.7460006,118.928941 45.1499605,118.289741 37.2973204,115.641821 L36.4755404,105.323841 C44.8759205,108.702421 57.3852006,109.797901 62.6810407,109.797901 C75.3729008,109.797901 83.0429609,106.967401 83.0429609,102.127841 C83.0429609,98.201521 80.1210008,96.192801 72.6338608,96.192801 L52.3634006,96.192801 C42.4109204,96.192801 37.1147404,92.083901 37.1147404,85.7837009 C37.1147404,81.9488409 39.6715404,78.3876808 42.2280004,76.3789608 C37.9365204,73.8221608 35.4711804,70.1698807 35.4711804,65.1480807 C35.4711804,54.0997806 47.7064205,49.3516805 63.9594407,49.3516805 C69.6204407,49.3516805 74.7337008,49.9908805 79.0255208,51.1778205 L95.917741,51.1778205 L95.917741,59.3956206 L90.347861,58.8478806 L90.347861,58.8478806 Z M63.9597807,56.9302806 C54.0073006,56.9302806 47.2501405,59.0304606 47.2501405,65.1480807 C47.2501405,71.1745807 54.0069606,73.2744208 63.9597807,73.2744208 C73.8211408,73.2744208 80.5779608,71.1742407 80.5779608,65.1480807 C80.5779608,59.0304606 73.8211408,56.9302806 63.9597807,56.9302806 L63.9597807,56.9302806 Z" id="Shape" fill="#000000"></path>
                    <path d="M131.345401,103.315121 C113.448821,103.315121 101.487621,92.631981 101.487621,76.3789608 C101.487621,60.0348206 113.449161,49.3516805 131.345401,49.3516805 C149.333102,49.3516805 161.294642,60.0348206 161.294642,76.3789608 C161.294642,92.631981 149.333102,103.315121 131.345401,103.315121 L131.345401,103.315121 Z M131.345401,58.8478806 C120.205641,58.8478806 112.901081,65.6961607 112.901081,76.3789608 C112.901081,86.9706409 120.205641,93.818921 131.345401,93.818921 C142.576281,93.818921 149.881182,86.9706409 149.881182,76.3789608 C149.880842,65.6961607 142.576281,58.8478806 131.345401,58.8478806 L131.345401,58.8478806 Z" id="Shape" fill="#000000"></path>
                    <path d="M131.345401,164.175122 C113.448821,164.175122 101.487621,153.491982 101.487621,137.238961 C101.487621,120.894821 113.449161,110.211681 131.345401,110.211681 C149.333102,110.211681 161.294642,120.894821 161.294642,137.238961 C161.294642,153.491982 149.333102,164.175122 131.345401,164.175122 L131.345401,164.175122 Z M131.345401,119.707881 C120.205641,119.707881 112.901081,126.556161 112.901081,137.238961 C112.901081,147.830642 120.205641,154.678922 131.345401,154.678922 C142.576281,154.678922 149.880842,147.830642 149.880842,137.238961 C149.880842,126.556161 142.576281,119.707881 131.345401,119.707881 L131.345401,119.707881 Z" id="Shape" fill="#000000"></path>
                </g>
                <g id="R" transform="translate(1613.640017, 0.000000)" sketch:type="MSShapeGroup">
                    <path d="M204.278802,102.168641 C204.278802,158.505282 158.590622,204.169322 102.259421,204.169322 C45.9408005,204.169322 0.253980003,158.505282 0.253980003,102.168641 C0.253980003,45.8432205 45.9408005,0.168300002 102.259421,0.168300002 C158.590622,0.168300002 204.278802,45.8432205 204.278802,102.168641 L204.278802,102.168641 Z" id="Shape" fill="#0078FF"></path>
                    <path d="M124.120741,160.489862 L102.465801,134.097701 L84.6005009,134.097701 L84.6005009,160.489862 L53.2001406,160.489862 L53.2001406,58.9815006 L112.345521,58.9815006 C144.016182,58.9815006 159.581042,72.3805608 159.581042,95.118401 C159.581042,111.224541 151.731122,124.082321 136.030941,130.172741 L161.881822,160.489862 L124.120741,160.489862 L124.120741,160.489862 Z M116.947421,52.2144805 L84.4648409,52.2144805 L61.4563606,31.9127403 L91.096881,31.9127403 L100.706301,38.5447804 L110.315721,31.9127403 L139.956241,31.9127403 L116.947421,52.2144805 L116.947421,52.2144805 Z M112.345521,107.705541 C123.850101,107.705541 129.669541,104.457181 129.669541,96.742581 C129.669541,88.8926609 123.850101,85.3736609 112.345521,85.3736609 L84.6001609,85.3736609 L84.6001609,107.705541 L112.345521,107.705541 L112.345521,107.705541 Z" id="Shape" fill="#000000"></path>
                </g>
                <g id="Fi" transform="translate(2075.360022, 0.000000)" sketch:type="MSShapeGroup">
                    <path d="M204.142802,102.168641 C204.142802,158.505282 158.454622,204.169322 102.123421,204.169322 C45.8048005,204.169322 0.117980001,158.505282 0.117980001,102.168641 C0.117980001,45.8432205 45.8048005,0.168300002 102.123421,0.168300002 C158.454622,0.168300002 204.142802,45.8432205 204.142802,102.168641 L204.142802,102.168641 Z" id="Shape" fill="#0078FF"></path>
                    <path d="M124.028941,152.617162 L124.028941,85.7860809 L79.6167808,85.7860809 L79.6167808,152.617162 L66.5628207,152.617162 L66.5628207,85.7860809 L45.4209405,85.7860809 L45.4209405,74.8605208 L66.5628207,74.8605208 L66.5628207,69.3266807 C66.5628207,53.1511806 78.9075408,43.3605405 98.913821,43.3605405 C102.035701,43.3605405 106.433941,43.6441005 111.258541,44.4954605 L113.245161,54.5696606 C108.704801,53.7183006 104.589781,53.4344006 101.751801,53.4344006 C86.4276609,53.4344006 79.6164408,59.9613806 79.6164408,69.4681207 L79.6164408,74.8598408 L137.082901,74.8598408 L137.082901,152.616482 L124.028941,152.616482 L124.028941,152.617162 Z M124.028941,63.6510607 L124.028941,44.4958005 L137.083241,44.4958005 L137.083241,63.6510607 L124.028941,63.6510607 L124.028941,63.6510607 Z" id="Shape" fill="#000000"></path>
                </g>
                <g id="B8" transform="translate(1844.840019, 0.000000)" sketch:type="MSShapeGroup">
                    <path d="M204.119682,102.168641 C204.119682,158.505282 158.431502,204.169322 102.100301,204.169322 C45.7816805,204.169322 0.094860001,158.505282 0.094860001,102.168641 C0.094860001,45.8432205 45.7816805,0.168300002 102.100301,0.168300002 C158.431502,0.168300002 204.119682,45.8432205 204.119682,102.168641 L204.119682,102.168641 Z" id="Shape" fill="#0078FF"></path>
                    <path d="M28.0598603,134.715141 L40.4015204,64.5915007 L72.5648408,64.5915007 C90.610001,64.5915007 98.090001,70.2950007 98.090001,79.4576608 C98.090001,89.6491609 91.077501,97.502821 76.3983408,98.998821 C88.1790009,100.120821 93.882501,105.917821 93.882501,113.864981 C93.882501,125.739141 84.9068409,134.715141 61.9996807,134.715141 L28.0598603,134.715141 L28.0598603,134.715141 Z M36.7553604,100.027321 L31.0522003,132.658141 L62.3740207,132.658141 C82.9436809,132.658141 91.265181,124.430141 91.265181,113.958481 C91.265181,105.637321 84.5328409,100.027321 68.0775207,100.027321 L36.7553604,100.027321 L36.7553604,100.027321 Z M42.6455204,66.6485007 L37.1290204,97.970321 L66.6743407,97.970321 C87.1508409,97.970321 95.378501,90.584161 95.378501,80.0186608 C95.378501,71.6975008 88.6461609,66.6485007 72.1908408,66.6485007 L42.6455204,66.6485007 L42.6455204,66.6485007 Z" id="Shape" fill="#000000"></path>
                    <path d="M173.449302,115.547981 C173.449302,128.544141 160.359302,136.585141 136.237321,136.585141 C116.228321,136.585141 105.663161,130.414141 105.663161,120.129481 C105.663161,108.909481 115.948161,101.055821 132.870981,99.466321 C121.838321,98.250821 114.732321,92.453821 114.732321,83.8521609 C114.732321,70.8560007 126.980481,62.7218407 149.326302,62.7218407 C167.371462,62.7218407 177.188962,68.7993407 177.188962,78.9905008 C177.188962,90.1170009 167.932462,97.970661 152.692302,99.466661 C165.407962,100.868821 173.449302,106.759321 173.449302,115.547981 L173.449302,115.547981 Z M142.594641,100.494821 C120.529321,100.494821 108.280821,108.255321 108.280821,119.661981 C108.280821,128.918141 118.191481,134.528141 136.610641,134.528141 C158.675962,134.528141 170.830622,127.141641 170.830622,115.641481 C170.830962,106.384981 161.013802,100.494821 142.594641,100.494821 L142.594641,100.494821 Z M148.858802,64.7785007 C128.663481,64.7785007 117.162981,72.3516608 117.162981,83.6651609 C117.162981,93.014821 126.138981,98.531321 142.968302,98.531321 C163.257462,98.531321 174.664122,90.864661 174.664122,79.5511608 C174.664462,70.2950007 165.595302,64.7785007 148.858802,64.7785007 L148.858802,64.7785007 Z" id="Shape" fill="#000000"></path>
                </g>
                <g id="SEA" transform="translate(2305.880024, 0.000000)" sketch:type="MSShapeGroup">
                    <path d="M204.165922,102.168981 C204.165922,158.505282 158.477742,204.169322 102.146541,204.169322 C45.8279205,204.169322 0.141100001,158.505282 0.141100001,102.168981 C0.141100001,45.8435605 45.8279205,0.168640002 102.146541,0.168640002 C158.477742,0.168640002 204.165922,45.8435605 204.165922,102.168981 L204.165922,102.168981 Z" id="Shape" fill="#0078FF"></path>
                    <path d="M25.7526203,108.609941 C30.8526203,110.833201 37.4564404,112.598481 44.3217205,112.598481 C52.2984606,112.598481 56.4175606,111.225221 56.4175606,108.740841 C56.4175606,103.117581 27.3217203,108.283201 27.3217203,91.283201 C27.3217203,77.0950008 41.4446404,73.0408408 55.3713806,73.0408408 C60.8637406,73.0408408 67.2713807,74.0217408 73.6137408,75.9175808 L71.3252008,89.1252209 C66.2252007,86.9019609 59.9484606,85.1366809 53.0831806,85.1366809 C45.7602605,85.1366809 41.7064404,86.2484809 41.7064404,88.6675809 C41.7064404,94.944321 70.7370007,89.4523009 70.7370007,106.451961 C70.7370007,120.575221 57.4640806,124.694321 42.6873404,124.694321 C36.5411604,124.694321 29.4793603,123.517581 24.3793603,121.817581 L25.7526203,108.609941 L25.7526203,108.609941 Z" id="Shape" fill="#000000"></path>
                    <path d="M74.4644208,123.387021 L83.0953209,74.3488208 L124.744981,74.3488208 L122.652961,86.4450009 L95.518241,86.4450009 L94.472061,92.264101 L117.029701,92.264101 L114.872061,104.360281 L92.314421,104.360281 L91.072061,111.291181 L118.206781,111.291181 L116.114761,123.387361 L74.4644208,123.387361 L74.4644208,123.387021 Z" id="Shape" fill="#000000"></path>
                    <path d="M161.556442,123.387021 L159.987342,116.325561 L138.802621,116.325561 L134.944981,123.387021 L118.729701,123.387021 L148.741162,74.3488208 L163.910262,74.3488208 L176.660262,123.387021 L161.556442,123.387021 L161.556442,123.387021 Z M145.471722,104.229381 L157.240822,104.229381 L153.840822,88.9946609 L145.471722,104.229381 L145.471722,104.229381 Z" id="Shape" fill="#000000"></path>
                </g>
                <g id="mnu" transform="translate(2536.400027, 0.000000)" sketch:type="MSShapeGroup">
                    <path d="M204.189382,102.168641 C204.189382,158.505282 158.501202,204.169322 102.170001,204.169322 C45.8513805,204.169322 0.164560002,158.505282 0.164560002,102.168641 C0.164560002,45.8432205 45.8513805,0.168300002 102.170001,0.168300002 C158.501202,0.168300002 204.189382,45.8432205 204.189382,102.168641 L204.189382,102.168641 Z" id="Shape" fill="#0078FF"></path>
                    <path d="M127.586361,92.766621 L127.586361,61.5672006 C127.586361,52.3328006 121.579581,46.5949605 112.345181,46.5949605 C106.159221,46.5949605 98.449041,50.0915205 91.545681,55.5604206 C91.904381,56.9948806 92.173321,58.7880406 92.173321,61.0293206 L92.173321,92.766621 L86.7941809,92.766621 L86.7941809,61.5672006 C86.7941809,52.3328006 80.7874008,46.5949605 71.4632408,46.5949605 C65.3667007,46.5949605 57.1189806,50.0915205 50.2152805,55.7396006 L50.2152805,92.766621 L44.8361405,92.766621 L44.8361405,43.9055605 L50.2152805,43.9055605 L50.0361005,51.7055005 C57.9258006,45.0710805 66.5325607,42.1124004 73.5253408,42.1124004 C81.8631609,42.1124004 87.7805209,45.7884805 90.469921,51.8846805 C98.987261,44.9813205 107.324741,42.1124004 114.407281,42.1124004 C126.062481,42.1124004 132.965841,49.4642205 132.965841,60.8501406 L132.965841,92.766961 L127.586361,92.766961 L127.586361,92.766621 Z" id="Shape" fill="#000000"></path>
                    <path d="M86.9733609,156.751902 L86.9733609,125.552481 C86.9733609,116.318081 81.0563409,110.580241 71.5530008,110.580241 C65.4564607,110.580241 57.1189806,114.076801 50.2152805,119.724881 L50.2152805,156.751902 L44.8361405,156.751902 L44.8361405,107.890841 L50.2152805,107.890841 L50.0361005,115.690781 C58.0155606,109.056361 66.6219807,106.097681 73.6151008,106.097681 C85.5389009,106.097681 92.352841,113.449501 92.352841,124.835421 L92.352841,156.752242 L86.9733609,156.752242 L86.9733609,156.751902 Z" id="Shape" fill="#000000"></path>
                    <path d="M149.910082,156.751902 L150.179022,148.862202 C142.199561,155.496622 133.593141,158.545062 126.510601,158.545062 C114.676221,158.545062 107.772861,151.283002 107.772861,139.807321 L107.772861,107.890501 L113.152001,107.890501 L113.152001,139.089921 C113.152001,148.324322 119.069021,154.062162 128.572361,154.062162 C134.758321,154.062162 143.006382,150.565602 149.910082,144.917522 L149.910082,107.890501 L155.289222,107.890501 L155.289222,156.751562 L149.910082,156.751562 L149.910082,156.751902 Z" id="Shape" fill="#000000"></path>
                </g>
            </g>
        </g>
    </g>
</svg>