<?xml version="1.0" encoding="UTF-8" standalone="no"?>
<svg width="709px" height="536px" viewBox="0 0 709 536" version="1.1" xmlns="http://www.w3.org/2000/svg" xmlns:xlink="http://www.w3.org/1999/xlink" xmlns:sketch="http://www.bohemiancoding.com/sketch/ns">
    <!-- Generator: Sketch 3.3.2 (12043) - http://www.bohemiancoding.com/sketch -->
    <title>canvas</title>
    <desc>Created with Sketch.</desc>
    <defs></defs>
    <g id="Buttons" stroke="none" stroke-width="1" fill="none" fill-rule="evenodd" sketch:type="MSPage">
        <g id="canvas" sketch:type="MSArtboardGroup">
            <g id="vegan-sans" sketch:type="MSLayerGroup" transform="translate(26.000000, 26.000000)">
                <g id="a" sketch:type="MSShapeGroup">
                    <path d="M151.337,75.519 C151.337,117.144 117.58,150.883 75.959,150.883 C34.347,150.883 0.591,117.144 0.591,75.519 C0.591,33.902 34.347,0.155 75.959,0.155 C117.58,0.154 151.337,33.901 151.337,75.519 L151.337,75.519 Z" id="Shape" fill="#FFFF00"></path>
                    <path d="M110.222632,114.1377 L110.222632,52.962664 C110.222632,29.276508 92.159808,23.141964 75.801024,23.141964 C53.137292,23.141964 38.823356,34.04782 38.482548,55.177916 L57.567796,55.177916 C58.079008,41.375192 63.872744,36.092668 75.801024,36.092668 C83.639608,36.092668 91.478192,39.15994 91.478192,55.177916 L91.478192,65.231752 C86.70688,64.890944 82.276376,64.550136 78.016276,64.550136 C46.150728,64.550136 35.415276,78.693668 35.415276,93.178008 C35.415276,107.32154 45.469112,116.69376 62.339108,116.69376 C74.096984,116.69376 83.639608,111.411236 91.478192,103.743056 L91.478192,114.1377 L110.222632,114.1377 Z M91.478192,92.666796 C86.366072,97.94932 77.845872,102.891036 70.348096,102.891036 C60.805472,102.891036 54.33012,99.312552 54.33012,90.451544 C54.33012,82.101748 60.805472,75.626396 79.209104,75.626396 C82.787588,75.626396 87.047688,75.7968 91.478192,76.308012 L91.478192,92.666796 Z" fill="#000000"></path>
                </g>
                <g id="rrr" transform="translate(174.000000, 0.000000)" sketch:type="MSShapeGroup">
                    <path d="M151.49,75.519 C151.49,117.144 117.732,150.883 76.111,150.883 C34.5,150.883 0.743,117.144 0.743,75.519 C0.743,33.902 34.499,0.155 76.111,0.155 C117.732,0.154 151.49,33.901 151.49,75.519 L151.49,75.519 Z" id="Shape" fill="#FFFF00"></path>
                    <path d="M57.0209872,97.1084 L46.3406998,77.3533586 C54.0193378,75.6082136 60.6508888,70.4425844 60.6508888,60.6697724 C60.6508888,51.8742416 53.6703088,48.24434 45.6426418,48.24434 L30.7740064,48.24434 L22.187893,97.1084 L29.168473,97.1084 L32.5191514,77.9816108 L39.5695372,77.9816108 L48.9933202,97.1084 L57.0209872,97.1084 Z M33.4266268,72.7461758 L36.847111,53.5495808 L44.7351664,53.5495808 C49.9007956,53.5495808 53.4608914,55.7135606 53.4608914,61.158413 C53.4608914,69.3954974 48.2254564,72.7461758 41.3146822,72.7461758 L33.4266268,72.7461758 Z M99.7421368,97.1084 L89.0618494,77.3533586 C96.7404874,75.6082136 103.372038,70.4425844 103.372038,60.6697724 C103.372038,51.8742416 96.3914584,48.24434 88.3637914,48.24434 L73.495156,48.24434 L64.9090426,97.1084 L71.8896226,97.1084 L75.240301,77.9816108 L82.2906868,77.9816108 L91.7144698,97.1084 L99.7421368,97.1084 Z M76.1477764,72.7461758 L79.5682606,53.5495808 L87.456316,53.5495808 C92.6219452,53.5495808 96.182041,55.7135606 96.182041,61.158413 C96.182041,69.3954974 90.946606,72.7461758 84.0358318,72.7461758 L76.1477764,72.7461758 Z M112.865627,97.1084 L117.193587,72.4669526 C119.566984,69.18608 123.964749,65.9750132 128.153097,65.9750132 C130.247271,65.9750132 131.224553,66.393848 132.830086,67.091906 L133.807367,61.7168594 C132.899892,60.5999666 131.643387,59.9717144 129.758631,59.9717144 C125.919312,59.9717144 121.730964,62.6941406 118.101062,67.3013234 L119.217955,61.0188014 L112.726016,61.0188014 L106.303882,97.1084 L112.865627,97.1084 Z" id="RRr" fill="#000000"></path>
                </g>
                <g id="65" transform="translate(348.000000, 0.000000)" sketch:type="MSShapeGroup">
                    <path d="M151.334,75.519 C151.334,117.144 117.578,150.883 75.956,150.883 C34.344,150.883 0.588,117.144 0.588,75.519 C0.588,33.902 34.344,0.155 75.956,0.155 C117.578,0.154 151.334,33.901 151.334,75.519 L151.334,75.519 Z" id="Shape" fill="#FFFF00"></path>
                    <path d="M69.0850736,56.8526839 C67.8844677,45.4007507 59.664935,39.4900755 47.3818131,39.4900755 C32.5127708,39.4900755 21.9843806,52.1426146 21.9843806,76.2470869 C21.9843806,95.4567813 31.3121649,106.908715 47.2894588,106.908715 C60.3114151,106.908715 70.6550967,98.3197646 70.6550967,84.8360368 C70.6550967,71.1676004 63.6361699,63.6869021 51.9995281,63.6869021 C46.5506244,63.6869021 40.8246578,66.734594 37.4075487,70.8905375 C37.9616745,57.0373925 40.8246578,50.2955286 47.3818131,50.2955286 C51.353048,50.2955286 53.2924883,52.2349689 53.9389684,56.8526839 L69.0850736,56.8526839 Z M47.0123959,74.6770638 C53.6619055,74.6770638 55.6937001,79.8489046 55.6937001,84.8360368 C55.6937001,90.5620034 52.9230711,96.1032614 47.2894588,96.1032614 C40.4552406,96.1032614 37.6846116,89.823169 37.3151944,78.740653 C39.6240519,76.3394412 43.5952868,74.6770638 47.0123959,74.6770638 L47.0123959,74.6770638 Z M78.4128579,87.8837287 C79.2440466,100.443914 87.1865164,106.908715 101.778496,106.908715 C114.708098,106.908715 124.682362,98.5044732 124.682362,84.0972024 C124.682362,69.4128687 117.75579,62.0245247 106.396211,62.0245247 C101.132016,62.0245247 95.5907577,64.9798623 92.912483,68.6740343 L92.912483,52.0502603 L120.618773,52.0502603 L120.618773,40.87539 L80.1675896,40.87539 L80.1675896,77.0782756 L92.912483,77.0782756 C95.1289862,74.4923552 98.2690324,73.1070407 101.409079,73.1070407 C107.87388,73.1070407 109.720966,77.9094643 109.720966,84.0972024 C109.720966,90.746712 107.2274,96.1032614 101.778496,96.1032614 C96.5143007,96.1032614 94.0207346,93.4249867 93.6513174,87.8837287 L78.4128579,87.8837287 Z" fill="#000000"></path>
                </g>
                <g id="b" transform="translate(523.000000, 0.000000)" sketch:type="MSShapeGroup">
                    <path d="M151.547,75.519 C151.547,117.144 117.789,150.883 76.168,150.883 C34.557,150.883 0.8,117.144 0.8,75.519 C0.8,33.902 34.557,0.155 76.168,0.155 C117.789,0.154 151.547,33.901 151.547,75.519 L151.547,75.519 Z" id="Shape" fill="#FFFF00"></path>
                    <path d="M108.549344,39.0997604 L109.768818,31.67206 L84.0490192,31.67206 C66.6438108,31.67206 54.3382176,41.4278456 50.2363532,64.7086976 L42.365208,109.2749 L51.8992712,109.2749 L59.9921388,63.6000856 C63.0962524,45.8622936 70.9673976,39.0997604 82.829546,39.0997604 L98.1283916,39.0997604 L74.9584008,65.2630036 L73.6280664,72.690704 L76.9539024,72.690704 C88.8160508,72.690704 94.3591108,79.0097924 94.3591108,86.8809376 C94.3591108,98.2996412 87.263994,103.510118 79.3928488,103.510118 C73.7389276,103.510118 70.080508,101.182032 70.634814,95.6389724 L60.3247224,95.6389724 C58.7726656,104.729591 65.64606,110.937818 77.5082084,110.937818 C89.5920792,110.937818 104.44748,102.290644 104.44748,85.994048 C104.44748,78.3446252 100.456477,68.0345336 84.9359088,65.7064484 L108.549344,39.0997604 Z" id="ẞ" fill="#000000"></path>
                </g>
            </g>
            <g id="kunda-book" sketch:type="MSLayerGroup" transform="translate(27.000000, 191.000000)">
                <g id="g" sketch:type="MSShapeGroup">
                    <path d="M151.337,76.053 C151.337,117.678 117.58,151.416 75.959,151.416 C34.347,151.416 0.591,117.678 0.591,76.053 C0.591,34.436 34.347,0.688 75.959,0.688 C117.58,0.688 151.337,34.436 151.337,76.053 L151.337,76.053 Z" id="Shape" fill="#FF3C32"></path>
                    <path d="M65.5554161,95.427511 C51.7085594,99.8527951 45.427511,105.991092 45.427511,113.271398 C45.427511,122.264718 57.1331012,127.403757 74.1204821,127.403757 C91.3933652,127.403757 111.806773,117.125678 111.806773,100.281048 C111.806773,87.4334494 99.8156801,81.4379032 63.985154,80.2958944 L67.8394337,75.8706103 C70.6944557,76.5843658 73.5494777,76.869868 76.6900019,76.869868 C89.9658542,76.869868 105.240222,68.8758064 105.240222,54.3151942 C105.240222,48.6051502 102.956204,44.037115 99.2446757,40.4683375 L114.661795,34.7582935 L106.524982,22.4816989 L103.955462,22.4816989 L94.9621427,37.3278133 C90.2513564,34.6155424 84.3985613,33.1880314 78.1175129,33.1880314 C64.8416606,33.1880314 49.5672929,41.182093 49.5672929,55.7427052 C49.5672929,64.5932734 54.8490836,70.8743218 62.557643,74.1575971 L47.5687775,91.4304802 L48.7107863,93.8572489 C55.8483413,94.1427511 61.9866386,94.8565066 67.2684293,95.5702621 L65.5554161,95.427511 Z M95.5331471,109.988123 C95.5331471,116.411923 88.9665965,120.979958 78.4030151,120.979958 C69.695198,120.979958 63.1286474,116.411923 63.1286474,108.703363 C63.1286474,105.991092 64.8416606,99.8527951 71.5509623,96.1412665 C88.5383432,98.9962885 95.5331471,103.849826 95.5331471,109.988123 L95.5331471,109.988123 Z M78.5457662,71.7308284 C71.4082112,71.7308284 69.4096958,58.7404783 69.4096958,51.3174211 C69.4096958,44.1798661 71.5509623,38.327071 76.2617486,38.327071 C83.3993036,38.327071 85.397819,51.3174211 85.397819,58.7404783 C85.397819,65.8780333 83.2565525,71.7308284 78.5457662,71.7308284 L78.5457662,71.7308284 Z" fill="#000000"></path>
                </g>
                <g id="34" transform="translate(174.000000, 1.000000)" sketch:type="MSShapeGroup">
                    <path d="M151.5243,75.3689 C151.5243,116.9939 117.7663,150.7319 76.1463,150.7319 C34.5343,150.7319 0.7783,116.9939 0.7783,75.3689 C0.7783,33.7519 34.5343,0.0039 76.1463,0.0039 C117.7663,0.0039 151.5243,33.7519 151.5243,75.3689 L151.5243,75.3689 Z" id="Shape" fill="#FF3C32"></path>
                    <path d="M107.449443,106 L107.449443,104.821663 C102.414732,103.750449 101.55776,102.786355 101.55776,99.57271 L101.55776,98.073009 L108.842022,98.073009 L108.842022,90.6816255 L101.55776,90.6816255 L101.55776,67.222017 L94.273498,67.222017 L71.8851045,96.8946725 L71.8851045,98.073009 L92.559554,98.073009 L92.559554,99.57271 C92.559554,102.786355 91.702582,103.750449 86.56075,104.821663 L86.56075,106 L107.449443,106 Z M38.4631965,73.9706715 C42.3195705,76.00598 47.354281,76.9700735 51.424898,76.9700735 C59.780375,76.9700735 68.992824,72.363849 68.992824,64.008372 C68.992824,57.581082 63.1011415,53.724708 54.7456645,52.653493 L67.921609,38.299212 L67.921609,37.1208755 L38.4631965,37.1208755 L38.4631965,50.4039415 L39.641533,50.4039415 C43.069421,44.940745 46.1759445,44.512259 50.4608045,44.512259 L58.066431,44.512259 L58.066431,45.154988 L47.782767,55.867138 L47.782767,57.0454745 C54.4243,58.3309325 59.566132,61.1160915 59.566132,66.793531 C59.566132,72.578092 55.6026365,74.077793 52.067627,74.077793 C47.0329165,74.077793 42.7480565,70.649905 39.5344115,64.5439795 L38.4631965,64.5439795 L38.4631965,73.9706715 Z M55.924001,109.856374 L101.986246,36.156782 L97.8085075,33.585866 L51.7462625,107.285458 L55.924001,109.856374 Z M92.559554,90.6816255 L80.0263385,90.6816255 L80.0263385,90.146018 L92.0239465,74.506279 L92.559554,74.506279 L92.559554,90.6816255 Z" id="¾" fill="#000000"></path>
                </g>
                <g id="q" transform="translate(348.000000, 1.000000)" sketch:type="MSShapeGroup">
                    <path d="M150.8984,75.5574 C150.8984,117.1824 117.1404,150.9204 75.5194,150.9204 C33.9084,150.9204 0.1514,117.1824 0.1514,75.5574 C0.1514,33.9404 33.9084,0.1924 75.5194,0.1924 C117.1404,0.1924 150.8984,33.9404 150.8984,75.5574 L150.8984,75.5574 Z" id="Shape" fill="#FF3C32"></path>
                    <path d="M100.051998,108.649451 C97.117962,113.888801 93.869565,116.298902 89.887659,116.298902 C83.286078,116.298902 72.073869,109.802108 66.310584,104.877119 L64.843566,104.877119 L59.394642,110.640404 C65.05314,115.460606 78.989811,122.690909 86.115327,122.690909 C93.34563,122.690909 98.58498,116.298902 101.414229,109.38296 L100.051998,108.649451 Z M67.777602,99.009047 C56.774967,99.009047 53.212209,88.949495 53.212209,78.156434 C53.212209,56.046377 67.14888,35.612912 83.600439,35.612912 C94.603074,35.612912 98.270619,45.777251 98.270619,56.570312 C98.270619,78.680369 84.124374,99.009047 67.777602,99.009047 L67.777602,99.009047 Z M65.157927,102.676592 C84.124374,102.676592 107.387088,78.680369 107.387088,55.208081 C107.387088,40.22354 98.794554,31.945367 86.324901,31.945367 C67.358454,31.945367 44.09574,55.94159 44.09574,79.413878 C44.09574,94.398419 52.688274,102.676592 65.157927,102.676592 L65.157927,102.676592 Z" id="Q" fill="#000000"></path>
                </g>
                <g id="ag" transform="translate(522.000000, 1.000000)" sketch:type="MSShapeGroup">
                    <path d="M151.1493,75.6287 C151.1493,117.2537 117.3933,150.9917 75.7713,150.9917 C34.1593,150.9917 0.4033,117.2537 0.4033,75.6287 C0.4033,34.0117 34.1593,0.2637 75.7713,0.2637 C117.3933,0.2637 151.1493,34.0117 151.1493,75.6287 L151.1493,75.6287 Z" id="Shape" fill="#FF3C32"></path>
                    <path d="M56.4238576,61.6651335 C50.9265126,75.1886022 42.3506544,87.502655 39.0522474,87.502655 C36.9632563,87.502655 36.5234687,84.5340887 36.5234687,82.5550445 C36.5234687,71.7802483 44.8794331,49.6809214 54.3348665,49.6809214 C56.2039638,49.6809214 57.6332735,51.1102311 58.4029018,54.1887443 L56.4238576,61.6651335 Z M72.8059457,80.7958941 C69.3975918,84.3141949 65.2196096,87.1728143 62.580884,87.1728143 C60.9316805,87.1728143 60.4918929,85.6335577 61.0416274,83.4346197 L71.5965298,46.7123551 L69.7274325,46.7123551 L64.8897689,49.9008152 C62.9107247,47.5919303 59.9421584,46.7123551 56.9735921,46.7123551 C40.7014509,46.7123551 25.198938,69.4713634 25.198938,84.9738763 C25.198938,90.801062 27.9476105,94.7591504 32.5653803,94.7591504 C39.492035,94.7591504 46.1987959,86.9529205 52.0259816,76.1781243 L52.7956099,76.1781243 L49.1673622,86.2932391 C47.0783711,92.2303717 50.1568843,94.7591504 53.785132,94.7591504 C59.9421584,94.7591504 68.078229,89.3717523 74.1253085,82.1152569 L72.8059457,80.7958941 Z M69.177698,108.832354 C69.177698,115.649061 75.9944058,118.727575 83.2509012,118.727575 C97.5439982,118.727575 110.847573,109.162194 110.847573,96.8481415 C110.847573,88.602124 102.711502,81.7854162 84.9001047,80.1362127 L76.4341934,86.0733453 L76.7640341,87.9424426 C80.5022287,88.3822302 83.6906888,88.8220178 86.4393613,89.4816992 C75.1148306,95.5287787 69.177698,102.23554 69.177698,108.832354 L69.177698,108.832354 Z M125.910298,43.8537357 L119.753272,37.2569217 L118.214015,37.2569217 L112.496777,47.7018772 C110.627679,47.0421958 108.428741,46.7123551 106.119856,46.7123551 C94.3555381,46.7123551 81.9315384,57.816992 81.9315384,69.8012041 C81.9315384,76.6179119 87.6487772,79.806372 95.3450602,79.806372 C107.219325,79.806372 119.533378,68.811682 119.533378,56.717523 C119.533378,53.0892753 117.884175,50.4505497 115.135502,48.8013462 L125.910298,43.8537357 Z M101.831927,102.015646 C101.831927,109.272141 94.9052726,115.319221 87.2089896,115.319221 C82.5912198,115.319221 78.9629721,111.910867 78.9629721,107.403044 C78.9629721,102.785274 82.0414853,95.6387256 89.6278214,90.3612744 C99.1932017,93.2198938 101.831927,97.8376636 101.831927,102.015646 L101.831927,102.015646 Z M97.6539451,76.8378057 C93.8058036,76.8378057 92.8162815,72.9896642 92.8162815,68.9216289 C92.8162815,62.214868 96.5544761,49.6809214 103.810971,49.6809214 C107.659113,49.6809214 108.758582,53.6390098 108.758582,57.7070451 C108.758582,64.413806 104.91044,76.8378057 97.6539451,76.8378057 L97.6539451,76.8378057 Z" fill="#000000"></path>
                </g>
            </g>
            <g id="hrot" sketch:type="MSLayerGroup" transform="translate(28.000000, 366.000000)">
                <g id="hrot-hmm" sketch:type="MSShapeGroup">
                    <path d="M151,75.5002216 C151,117.200426 117.185638,151 75.4946831,151 C33.813476,151 0,117.200426 0,75.5002216 C0,33.8088803 33.8130329,0 75.4946831,0 C117.185195,-6.29730763e-15 151,33.8088803 151,75.5002216 L151,75.5002216 Z" id="Shape" fill="#0078FF"></path>
                    <path d="M122.870465,51 L122.870465,29.0543939 L116.081957,29.0543939 L116.081957,36.9255513 L105.694371,36.9255513 L105.694371,29.0543939 L98.9058631,29.0543939 L98.9058631,51 L105.694371,51 L105.694371,42.6314089 L116.081957,42.6314089 L116.081957,51 L122.870465,51 Z" id="H" fill="#000000"></path>
                    <path d="M55.0111927,73.1282348 L55.0111927,62.9454735 C55.0111927,58.6733956 52.7873712,56.156966 49.0419878,56.156966 C47.0815136,56.156966 45.0332571,56.771443 41.9316114,59.2000901 C40.9660047,57.1810943 39.1518346,56.156966 36.7231876,56.156966 C34.7627134,56.156966 32.3633271,56.9177471 30.0809841,59.0245252 L30.3735922,56.7421822 L23.8776928,56.7421822 L23.8776928,73.1282348 L30.3735922,73.1282348 L30.3735922,62.9454735 C31.5732853,62.1261709 33.0655865,61.5702156 34.0311932,61.5702156 C34.9967999,61.5702156 36.196493,62.1261709 36.196493,63.940341 L36.196493,73.1282348 L42.6923924,73.1282348 L42.6923924,62.9454735 C43.8920856,62.1261709 45.3843868,61.5702156 46.3499934,61.5702156 C47.3156001,61.5702156 48.5152932,62.1261709 48.5152932,63.940341 L48.5152932,73.1282348 L55.0111927,73.1282348 Z M89.0707734,73.1282348 L89.0707734,62.9454735 C89.0707734,58.6733956 86.8469519,56.156966 83.1015685,56.156966 C81.1410943,56.156966 79.0928378,56.771443 75.9911921,59.2000901 C75.0255854,57.1810943 73.2114153,56.156966 70.7827683,56.156966 C68.8222941,56.156966 66.4229078,56.9177471 64.1405648,59.0245252 L64.4331729,56.7421822 L57.9372735,56.7421822 L57.9372735,73.1282348 L64.4331729,73.1282348 L64.4331729,62.9454735 C65.632866,62.1261709 67.1251672,61.5702156 68.0907739,61.5702156 C69.0563806,61.5702156 70.2560737,62.1261709 70.2560737,63.940341 L70.2560737,73.1282348 L76.7519731,73.1282348 L76.7519731,62.9454735 C77.9516663,62.1261709 79.4439675,61.5702156 80.4095741,61.5702156 C81.3751808,61.5702156 82.5748739,62.1261709 82.5748739,63.940341 L82.5748739,73.1282348 L89.0707734,73.1282348 Z M123.130354,73.1282348 L123.130354,62.9454735 C123.130354,58.6733956 120.906533,56.156966 117.161149,56.156966 C115.200675,56.156966 113.152418,56.771443 110.050773,59.2000901 C109.085166,57.1810943 107.270996,56.156966 104.842349,56.156966 C102.881875,56.156966 100.482489,56.9177471 98.2001455,59.0245252 L98.4927536,56.7421822 L91.9968542,56.7421822 L91.9968542,73.1282348 L98.4927536,73.1282348 L98.4927536,62.9454735 C99.6924467,62.1261709 101.184748,61.5702156 102.150355,61.5702156 C103.115961,61.5702156 104.315654,62.1261709 104.315654,63.940341 L104.315654,73.1282348 L110.811554,73.1282348 L110.811554,62.9454735 C112.011247,62.1261709 113.503548,61.5702156 114.469155,61.5702156 C115.434762,61.5702156 116.634455,62.1261709 116.634455,63.940341 L116.634455,73.1282348 L123.130354,73.1282348 Z" id="mmm" fill="#000000"></path>
                    <path d="M55.0111927,95.2564696 L55.0111927,85.0737083 C55.0111927,80.8016303 52.7873712,78.2852008 49.0419878,78.2852008 C47.0815136,78.2852008 45.0332571,78.8996778 41.9316114,81.3283249 C40.9660047,79.3093291 39.1518346,78.2852008 36.7231876,78.2852008 C34.7627134,78.2852008 32.3633271,79.0459818 30.0809841,81.15276 L30.3735922,78.870417 L23.8776928,78.870417 L23.8776928,95.2564696 L30.3735922,95.2564696 L30.3735922,85.0737083 C31.5732853,84.2544057 33.0655865,83.6984503 34.0311932,83.6984503 C34.9967999,83.6984503 36.196493,84.2544057 36.196493,86.0685758 L36.196493,95.2564696 L42.6923924,95.2564696 L42.6923924,85.0737083 C43.8920856,84.2544057 45.3843868,83.6984503 46.3499934,83.6984503 C47.3156001,83.6984503 48.5152932,84.2544057 48.5152932,86.0685758 L48.5152932,95.2564696 L55.0111927,95.2564696 Z M89.0707734,95.2564696 L89.0707734,85.0737083 C89.0707734,80.8016303 86.8469519,78.2852008 83.1015685,78.2852008 C81.1410943,78.2852008 79.0928378,78.8996778 75.9911921,81.3283249 C75.0255854,79.3093291 73.2114153,78.2852008 70.7827683,78.2852008 C68.8222941,78.2852008 66.4229078,79.0459818 64.1405648,81.15276 L64.4331729,78.870417 L57.9372735,78.870417 L57.9372735,95.2564696 L64.4331729,95.2564696 L64.4331729,85.0737083 C65.632866,84.2544057 67.1251672,83.6984503 68.0907739,83.6984503 C69.0563806,83.6984503 70.2560737,84.2544057 70.2560737,86.0685758 L70.2560737,95.2564696 L76.7519731,95.2564696 L76.7519731,85.0737083 C77.9516663,84.2544057 79.4439675,83.6984503 80.4095741,83.6984503 C81.3751808,83.6984503 82.5748739,84.2544057 82.5748739,86.0685758 L82.5748739,95.2564696 L89.0707734,95.2564696 Z" id="mm" fill="#000000"></path>
                    <path d="M55.0111927,117.384261 L55.0111927,107.2015 C55.0111927,102.929422 52.7873712,100.412992 49.0419878,100.412992 C47.0815136,100.412992 45.0332571,101.027469 41.9316114,103.456116 C40.9660047,101.43712 39.1518346,100.412992 36.7231876,100.412992 C34.7627134,100.412992 32.3633271,101.173773 30.0809841,103.280551 L30.3735922,100.998208 L23.8776928,100.998208 L23.8776928,117.384261 L30.3735922,117.384261 L30.3735922,107.2015 C31.5732853,106.382197 33.0655865,105.826242 34.0311932,105.826242 C34.9967999,105.826242 36.196493,106.382197 36.196493,108.196367 L36.196493,117.384261 L42.6923924,117.384261 L42.6923924,107.2015 C43.8920856,106.382197 45.3843868,105.826242 46.3499934,105.826242 C47.3156001,105.826242 48.5152932,106.382197 48.5152932,108.196367 L48.5152932,117.384261 L55.0111927,117.384261 Z" id="m" fill="#000000"></path>
                </g>
                <g id="hrot-s" transform="translate(173.000000, 0.000000)" sketch:type="MSShapeGroup">
                    <path d="M151,75.5002216 C151,117.200426 117.186081,151 75.4951261,151 C33.813476,151 0,117.200426 0,75.5002216 C0,33.8088803 33.8130329,0 75.4951261,0 C117.186081,-6.29730763e-15 151,33.8088803 151,75.5002216 L151,75.5002216 Z" id="Shape" fill="#0078FF"></path>
                    <path d="M36.9979195,109.038878 C49.4825328,115.787318 63.091886,117.24948 73.5519674,117.24948 C92.1101764,117.24948 112.692917,112.300624 112.692917,94.7546811 C112.692917,58.7630032 36.5480235,85.0819177 36.5480235,50.8898236 C36.5480235,33.7937766 57.4681863,28.9573948 74.4517594,28.9573948 C84.4619448,28.9573948 97.3964541,30.5320307 109.881067,36.1557304 L109.881067,35.4808865 C97.3964541,29.8571868 84.9118408,28.3950249 74.4517594,28.3950249 C57.0182904,28.3950249 35.8731796,33.3438806 35.8731796,50.8898236 C35.8731796,85.7567616 112.018073,59.4378471 112.018073,94.7546811 C112.018073,111.850728 91.6602804,116.68711 73.5519674,116.68711 C63.541782,116.68711 49.4825328,115.112474 36.9979195,108.364034 L36.9979195,109.038878 Z" id="S" fill="#000000"></path>
                </g>
                <g id="hrot-u" transform="translate(346.000000, 0.000000)" sketch:type="MSShapeGroup">
                    <path d="M151,75.5002216 C151,117.200426 117.186081,151 75.4951261,151 C33.813476,151 0,117.200426 0,75.5002216 C0,33.8088803 33.8130329,0 75.4951261,0 C117.186081,-6.29730763e-15 151,33.8088803 151,75.5002216 L151,75.5002216 Z" id="Shape-Copy" fill="#0078FF"></path>
                    <path d="M100.792,85.17 C100.792,100.636 88.878,108.11 74.818,108.11 C60.758,108.11 48.844,100.636 48.844,85.17 L48.844,51.5 L48.4,51.5 L48.4,85.17 C48.4,100.932 60.462,108.48 74.818,108.48 C89.174,108.48 101.236,100.932 101.236,85.17 L101.236,51.5 L100.792,51.5 L100.792,85.17 Z" id="U" fill="#000000"></path>
                </g>
                <g id="hrot-p" transform="translate(520.000000, 0.000000)" sketch:type="MSShapeGroup">
                    <path d="M151,75.5002216 C151,117.200426 117.186081,151 75.4951261,151 C33.813476,151 0,117.200426 0,75.5002216 C0,33.8088803 33.8130329,0 75.4951261,0 C117.186081,-6.29730763e-15 151,33.8088803 151,75.5002216 L151,75.5002216 Z" id="Shape-Copy-2" fill="#0078FF"></path>
                    <path d="M54.844,85.91 L54.844,51.87 L82.372,51.87 C98.652,51.87 104.794,60.084 104.794,68.89 C104.794,77.696 98.652,85.91 82.372,85.91 L54.844,85.91 Z M82.372,86.28 C98.948,86.28 105.238,77.992 105.238,68.89 C105.238,59.788 98.948,51.5 82.372,51.5 L54.4,51.5 L54.4,107 L54.844,107 L54.844,86.28 L82.372,86.28 Z" id="P" fill="#000000"></path>
                </g>
            </g>
            <g id="vegan-sans-title" sketch:type="MSLayerGroup" transform="translate(14.000000, 13.000000)">
                <path d="M176,88 C176,136.604108 136.587797,176 87.9941624,176 C39.4110358,176 0,136.604108 0,88 C0,39.4052333 39.4110358,0 87.9941624,0 C136.587797,-0.00116766626 176,39.4040656 176,88 L176,88 Z" id="perimeter" sketch:type="MSShapeGroup" transform="translate(88.000000, 88.000000) scale(-1, 1) translate(-88.000000, -88.000000) "></path>
                <path d="M86.5313161,176.107208 L83.9129398,184.604688 L85.2561062,184.557357 L86.7529266,179.329403 L87.2296253,177.523495 L87.8442492,179.290947 L89.8252702,184.39635 L91.3243398,184.343526 L87.9824155,176.056074 L86.5313161,176.107208 Z M79.5394944,177.487708 C79.7138502,176.774451 80.110716,176.478989 80.8300703,176.509474 C81.6932956,176.546056 82.2188884,177.180879 82.1877893,178.764983 L78.0395126,178.589186 C77.8001223,180.837066 78.7913618,182.104172 80.6017369,182.180892 C82.2802303,182.252024 83.4276482,180.967454 83.5109736,179.001218 C83.594299,177.034983 82.7749736,175.679077 80.8686846,175.598292 C79.3700297,175.534782 78.3643518,176.308895 78.1847104,177.430295 L79.5394944,177.487708 Z M80.639843,181.281699 C79.836564,181.247658 79.3443985,180.674305 79.3712282,179.474365 L82.1167639,179.590716 C81.9325499,180.820019 81.3472081,181.311676 80.639843,181.281699 L80.639843,181.281699 Z M72.7867301,174.704662 C72.9410862,173.393718 73.6701986,173.153329 74.421012,173.241732 C75.2910021,173.344169 75.6940686,173.717866 75.6329983,174.544395 L76.9796953,174.702961 C77.1011048,173.363971 76.2318852,172.536652 74.527658,172.335989 C73.1332903,172.171811 71.6778522,172.834161 71.457544,174.705236 L70.7334738,180.854755 L72.0444179,181.009111 L72.1089667,180.460898 C72.4264948,180.945352 72.9529478,181.297328 73.6203375,181.37591 C74.9789522,181.535879 76.4161875,180.617644 76.6715766,178.448628 C76.9269657,176.279611 75.9939874,175.070215 74.6830434,174.915859 C73.9203123,174.826052 73.2893477,175.053832 72.6899068,175.526981 L72.7867301,174.704662 Z M72.5972932,176.313548 C72.9969205,175.998115 73.5626837,175.810989 74.1228143,175.876941 C74.9212984,175.970958 75.5009956,176.691691 75.3129619,178.288659 C75.1249282,179.885627 74.2864223,180.439374 73.4879382,180.345357 C72.9278076,180.279405 72.5226264,180.026288 72.2071933,179.626661 L72.5972932,176.313548 Z M64.9340803,173.144894 L64.087646,177.368922 C63.7599179,179.00441 64.9222447,179.677911 66.0517898,179.904256 C67.6166804,180.217837 68.7559288,179.662859 69.0718227,178.208578 L67.7540201,177.94451 C67.5277436,178.89049 67.0546059,179.175075 66.2309793,179.010033 C65.6897389,178.901576 65.1909382,178.581329 65.4125672,177.475316 L65.5516748,176.781117 C65.8764099,176.870666 66.1776129,176.9555 66.4717653,177.014444 C68.672025,177.455344 69.6089827,176.627297 69.809392,175.627179 C70.0050857,174.650593 69.4405627,173.86435 68.2757193,173.630932 C67.4638588,173.468247 66.731867,173.700962 66.0845276,174.121979 L66.2283507,173.404248 L64.9340803,173.144894 Z M65.9312735,174.886775 C66.3573468,174.592759 67.0140264,174.36943 67.5317346,174.473172 C68.1906359,174.605206 68.5882347,174.941889 68.4656313,175.553726 C68.3501013,176.130264 67.813395,176.487781 66.5426567,176.233143 C66.2955687,176.183631 66.0037741,176.112921 65.7049289,176.016321 L65.9312735,174.886775 Z M61.996523,172.123914 L60.7453917,176.571281 C60.2865516,176.82864 59.5569724,176.984903 59.0024955,176.828918 C58.263193,176.620938 57.9859803,176.144047 58.2232078,175.30078 L59.328103,171.373235 L58.0574268,171.015769 L56.8777887,175.209001 C56.4683275,176.664502 57.1884616,177.428051 58.1703477,177.704275 C58.944305,177.922005 59.8172003,177.74373 60.530912,177.333686 L60.309933,178.119195 L61.5806092,178.476661 L63.2671992,172.48138 L61.996523,172.123914 Z M45.4254395,172.09525 C44.858357,173.692277 45.5099289,174.92937 47.3020757,175.682594 C48.8619071,176.338177 50.3733208,175.932068 50.9452129,174.571364 C51.6519413,172.889844 50.3946493,172.009961 49.3510745,171.27197 C48.4944422,170.677632 47.6256248,170.143258 48.0487319,169.136558 C48.4113952,168.273673 49.2960859,168.150862 50.1147208,168.494927 C51.0107942,168.871539 51.494343,169.517342 51.1039426,170.693989 L52.4425213,171.256582 C53.0782244,169.558227 52.300314,168.281053 50.5192299,167.532478 C49.0147116,166.900142 47.3240511,167.361084 46.7289113,168.777101 C46.0175333,170.469684 47.3173123,171.341389 48.3655366,172.068318 C49.222169,172.662656 50.0467358,173.178432 49.6236287,174.185132 C49.2935121,174.970579 48.5252196,175.06421 47.7065847,174.720145 C46.8105113,174.343533 46.4201131,173.723864 46.7750809,172.662492 L45.4254395,172.09525 Z M42.1826883,163.368764 L40.1881932,167.187252 C39.4159513,168.66572 40.3434108,169.637536 41.3645107,170.170883 C42.7791596,170.909791 44.0281867,170.695736 44.738366,169.387927 L43.5470827,168.765689 C43.0651619,169.610575 42.5312957,169.751411 41.7867437,169.362512 C41.2974666,169.10695 40.9081921,168.659932 41.4304276,167.660105 L41.7582137,167.032554 C42.0449231,167.209386 42.3103596,167.375107 42.5762711,167.514 C44.5652887,168.552915 45.6965083,168.020098 46.1687426,167.115999 C46.6298654,166.233173 46.3078777,165.320382 45.2548684,164.770368 C44.5209528,164.387025 43.7530845,164.405636 43.0138011,164.628715 L43.3526986,163.979891 L42.1826883,163.368764 Z M42.6526808,165.320084 C43.1440012,165.157025 43.8369393,165.126353 44.3049434,165.370803 C44.9005851,165.681922 45.1881008,166.116404 44.8992046,166.6695 C44.6269755,167.190687 44.0116736,167.383755 42.8629361,166.78374 C42.6395705,166.667071 42.3792148,166.517542 42.119334,166.341184 L42.6526808,165.320084 Z M39.6513585,161.571433 L37.2078228,165.492342 C36.695361,165.6113 35.9511725,165.557565 35.4623318,165.252916 C34.8105442,164.846718 34.6775653,164.311378 35.140885,163.567933 L37.2988126,160.105311 L36.1785527,159.407158 L33.8746476,163.104016 C33.0749451,164.387223 33.5531506,165.321524 34.418806,165.861006 C35.1011461,166.286245 35.9890949,166.358875 36.788931,166.164498 L36.3573455,166.857023 L37.4776054,167.555176 L40.7716184,162.269586 L39.6513585,161.571433 Z M28.4975192,159.157237 C27.8401406,160.103944 28.0637919,161.091569 29.4034911,162.085265 C30.5311517,162.921684 31.7746657,162.977477 32.503852,161.994388 C33.3545693,160.847452 32.4759059,159.896907 31.7614093,159.127893 C31.2399941,158.561856 30.6850049,158.000797 31.0924914,157.451424 C31.4928289,156.911689 32.1052667,156.992436 32.6450016,157.392773 C33.4064134,157.957535 33.4428569,158.492549 33.0642849,159.063369 L34.1341167,159.856895 C34.8368778,158.869147 34.639014,157.766183 33.2029335,156.700999 C32.0656348,155.85743 30.726696,155.910146 29.9903609,156.902873 C29.1396435,158.04981 30.0879443,159.007184 30.8024408,159.776198 C31.3456215,160.37332 31.8281654,160.850763 31.4063812,161.419412 C31.0632347,161.882042 30.501158,161.793828 29.961423,161.39349 C29.3349449,160.928812 29.2127148,160.509456 29.567351,159.950764 L28.4975192,159.157237 Z" id="Vegan-Sans" fill="#000000" sketch:type="MSShapeGroup"></path>
            </g>
            <g id="kunda-book-title" sketch:type="MSLayerGroup" transform="translate(14.000000, 179.000000)">
                <path d="M176,88 C176,136.604108 136.587797,176 87.9941624,176 C39.4110358,176 0,136.604108 0,88 C0,39.4052333 39.4110358,0 87.9941624,0 C136.587797,-0.00116766626 176,39.4040656 176,88 L176,88 Z" id="perimeter" sketch:type="MSShapeGroup" transform="translate(88.000000, 88.000000) scale(-1, 1) translate(-88.000000, -88.000000) "></path>
                <path d="M88.7499391,176.029028 L88.9008047,180.310371 L85.6198818,176.139325 L83.9169388,176.199333 L87.5301126,180.598821 L84.6684709,184.578065 L86.1075777,184.527353 L88.9075662,180.502252 L89.0457541,184.423818 L90.4368906,184.374797 L90.1410757,175.980008 L88.7499391,176.029028 Z M79.1150983,177.307674 C79.4909488,176.951696 80.1534817,176.632231 80.7289358,176.657302 C81.4842194,176.690207 81.8391529,177.090035 81.8015465,177.953216 L81.6234384,182.041338 L82.9421874,182.098793 L83.1323087,177.734932 C83.1981199,176.224365 82.3459317,175.658737 81.3268984,175.61434 C80.5236603,175.579345 79.7506182,175.954053 79.1495709,176.516425 L79.185088,175.701198 L77.866339,175.643744 L77.5952595,181.865842 L78.9140085,181.923296 L79.1150983,177.307674 Z M74.8053033,175.045724 L74.2334259,179.630193 C73.8182396,179.953285 73.120239,180.216912 72.5486688,180.145613 C71.7865753,180.050548 71.4411534,179.620483 71.5495873,178.75122 L72.0546219,174.702598 L70.7447736,174.539204 L70.2055749,178.861704 C70.0184151,180.362075 70.8446506,181.009327 71.8568061,181.135586 C72.6546228,181.235107 73.4910353,180.928281 74.1353898,180.416102 L74.0343829,181.225827 L75.3442312,181.38922 L76.1151516,175.209118 L74.8053033,175.045724 Z M63.863039,172.875442 L62.0369613,181.614699 L63.3290558,181.884684 L63.9941997,178.701433 C64.2675225,179.212133 64.7606935,179.609402 65.4184871,179.746849 C66.7575669,180.026651 68.2779211,179.204228 68.724623,177.066399 C69.1688704,174.940316 68.3517081,173.629467 67.0596136,173.359482 C66.3078495,173.2024 65.6616281,173.361592 65.0225957,173.779727 L65.1551336,173.145426 L63.863039,172.875442 Z M64.8606049,174.554984 C65.2866265,174.276227 65.8667531,174.140003 66.4188299,174.25536 C67.2058329,174.419805 67.7119791,175.224337 67.3855432,176.786597 C67.0566528,178.360603 66.1649876,178.873061 65.3779846,178.708616 C64.8259078,178.593259 64.4447654,178.305213 64.1660081,177.879191 L64.8606049,174.554984 Z M57.5680466,170.800433 L56.3523773,174.933351 C55.8816864,176.533562 56.9800853,177.306949 58.0852667,177.632031 C59.6164035,178.082404 60.8001583,177.630063 61.2430798,176.209309 L59.9537015,175.830047 C59.6448771,176.752385 59.1484844,176.994134 58.3426229,176.757095 C57.8130568,176.601327 57.3444435,176.238337 57.6627525,175.15618 L57.8625421,174.476954 C58.1781142,174.594794 58.4706616,174.705862 58.7584693,174.790519 C60.9112707,175.42375 61.917606,174.681564 62.2054386,173.703017 C62.4864986,172.747496 61.9935172,171.914529 60.8537988,171.579289 C60.0594496,171.345637 59.3097862,171.512887 58.6278382,171.875173 L58.8344004,171.172922 L57.5680466,170.800433 Z M58.4077309,172.623473 C58.8580743,172.368179 59.5318914,172.203636 60.0384329,172.352632 C60.683122,172.542262 61.0494781,172.912699 60.8733923,173.511339 C60.7074653,174.075442 60.1413195,174.384231 58.8979904,174.018515 C58.656232,173.947403 58.3718106,173.851234 58.0826494,173.728654 L58.4077309,172.623473 Z M49.3982571,172.394644 L48.3755395,174.789402 L47.1505712,174.26626 C46.3118542,173.908074 45.8196094,173.410786 46.1872221,172.549997 C46.5595479,171.678173 47.3235361,171.508603 48.1732888,171.871503 L49.3982571,172.394644 Z M49.7968441,167.39766 C48.2187319,166.723703 46.6575319,166.957316 46.0118531,168.469213 C45.5499806,169.550717 46.0079739,170.372638 46.8138163,170.899464 C45.9959101,170.798087 45.1772087,171.309649 44.8425868,172.093187 C44.1921949,173.616121 45.3941801,174.651387 46.7405416,175.226371 L49.2456568,176.296218 L52.5447459,168.571193 L49.7968441,167.39766 Z M50.8545692,168.984597 L49.7988607,171.456605 L48.331106,170.829778 C47.4813532,170.466878 46.9527816,169.901883 47.3251073,169.030059 C47.6880071,168.180306 48.3825612,167.928889 49.3868145,168.35777 L50.8545692,168.984597 Z M43.3018405,164.747894 C44.1495325,165.198469 44.3675648,166.143341 43.5959545,167.595013 C42.8243441,169.046686 41.9135522,169.405141 41.0658602,168.954566 C40.2181681,168.50399 40.005768,167.548523 40.7773784,166.09685 C41.5489887,164.645177 42.4541484,164.297318 43.3018405,164.747894 L43.3018405,164.747894 Z M43.7298871,163.942586 C42.0662914,163.058332 40.4825006,163.711379 39.558821,165.449148 C38.6351415,167.186917 38.9742179,168.875619 40.6378136,169.759873 C42.3014092,170.644127 43.8802361,169.974852 44.8039156,168.237083 C45.7275952,166.499314 45.3934827,164.82684 43.7298871,163.942586 L43.7298871,163.942586 Z M37.2898698,160.906633 C38.0986253,161.423851 38.240047,162.383184 37.354311,163.768178 C36.4685751,165.153172 35.5319305,165.4373 34.723175,164.920082 C33.9144195,164.402864 33.779463,163.433422 34.665199,162.048428 C35.550935,160.663434 36.4811143,160.389415 37.2898698,160.906633 L37.2898698,160.906633 Z M37.781227,160.138315 C36.1940444,159.123275 34.5629101,159.646978 33.502613,161.304927 C32.4423159,162.962876 32.6446352,164.67336 34.2318178,165.6884 C35.8190005,166.703441 37.4464905,166.163163 38.5067876,164.505214 C39.5670847,162.847265 39.3684097,161.153356 37.781227,160.138315 L37.781227,160.138315 Z M33.1047539,156.815988 L31.1681961,159.368509 L31.1736337,155.350877 L29.9021535,154.386225 L29.9810955,158.769129 L26.3290333,159.492926 L27.4379935,160.334277 L31.0594007,159.511909 L27.708503,163.928629 L28.7601031,164.726462 L34.156354,157.613821 L33.1047539,156.815988 Z" id="Kunda-Book" fill="#000000" sketch:type="MSShapeGroup"></path>
            </g>
            <g id="hrot-title" sketch:type="MSLayerGroup" transform="translate(14.000000, 354.000000)">
                <path d="M176,98 C176,146.604108 136.587797,176 87.9941624,176 C39.4110358,176 0,136.604108 0,88 C0,39.4052333 39.4110358,0 87.9941624,0 C136.587797,-0.00116766626 176,39.4040656 176,88 L176,98 Z" id="perimeter" sketch:type="MSShapeGroup" transform="translate(88.000000, 88.000000) scale(-1, 1) translate(-88.000000, -88.000000) "></path>
                <path d="M76.0864035,175.544302 L75.697548,183.935296 L77.0880557,183.999735 L77.2474864,180.559428 L81.2272153,180.743856 L81.0677845,184.184164 L82.4582922,184.248603 L82.8471477,175.857608 L81.4566401,175.793169 L81.2766555,179.677001 L77.2969266,179.492573 L77.4769112,175.608741 L76.0864035,175.544302 Z M72.9247468,174.742192 L72.3199699,178.862039 C71.9345917,179.339126 71.2321349,179.745409 70.5316421,179.64258 C70.1754594,179.590294 69.9840797,179.489428 69.7165622,179.328872 L69.5544751,180.433038 C69.7182961,180.639016 69.9281926,180.778985 70.2487571,180.826043 C70.8898861,180.920158 71.5989871,180.551235 72.18054,179.81186 L72.0201957,180.904154 L73.3261991,181.09587 L74.2307502,174.933908 L72.9247468,174.742192 Z M66.963631,174.29601 C67.9048076,174.485183 68.3840925,175.328158 68.060133,176.939923 C67.7361736,178.551688 66.9660347,179.155772 66.0248581,178.966599 C65.0836815,178.777425 64.6067614,177.922686 64.9307208,176.310921 C65.2546802,174.699156 66.0224544,174.106836 66.963631,174.29601 L66.963631,174.29601 Z M67.1433457,173.401892 C65.2962866,173.030639 63.9655848,174.109572 63.5777794,176.038984 C63.1899739,177.968396 63.9980843,179.489464 65.8451434,179.860717 C67.6922025,180.231969 69.0135043,179.138907 69.4013097,177.209495 C69.7891152,175.280083 68.9904049,173.773145 67.1433457,173.401892 L67.1433457,173.401892 Z M58.4134888,176.61877 L58.1618806,177.507853 L59.7899424,177.968591 L59.3292052,179.596652 L60.5993243,179.956093 L61.0600615,178.328031 L62.0646103,178.612316 L62.3162185,177.723232 L61.3116698,177.438948 L62.334441,173.824881 C62.661205,172.670228 62.0890958,171.959586 61.1653728,171.698175 C60.8074301,171.596878 60.1545083,171.524345 59.7508187,171.584699 L59.5188163,172.404503 C59.8682604,172.403625 60.2606231,172.427364 60.4915539,172.492717 C61.0226946,172.643028 61.1852245,173.038219 60.9957014,173.707918 L60.0415506,177.079507 L58.4134888,176.61877 Z" id="Hrot" fill="#000000" sketch:type="MSShapeGroup"></path>
            </g>
        </g>
    </g>
</svg>