<?xml version="1.0" encoding="UTF-8" standalone="no"?>
<svg width="2510px" height="609px" viewBox="0 0 2510 609" version="1.1" xmlns="http://www.w3.org/2000/svg" xmlns:xlink="http://www.w3.org/1999/xlink" xmlns:sketch="http://www.bohemiancoding.com/sketch/ns">
    <!-- Generator: Sketch 3.3.2 (12043) - http://www.bohemiancoding.com/sketch -->
    <title>canvas</title>
    <desc>Created with Sketch.</desc>
    <defs></defs>
    <g id="Buttons" stroke="none" stroke-width="1" fill="none" fill-rule="evenodd" sketch:type="MSPage">
        <g id="canvas" sketch:type="MSArtboardGroup">
            <g id="vegan-sans" sketch:type="MSLayerGroup" transform="translate(0.660000, 0.330000)">
                <g id="a" sketch:type="MSShapeGroup">
                    <path d="M198.11286,99.099 C198.11286,153.77835 153.76845,198.09933 99.09405,198.09933 C44.43186,198.09933 0.08877,153.77835 0.08877,99.099 C0.08877,44.43021 44.43186,0.09867 99.09405,0.09867 C153.76845,0.09867 198.11286,44.43054 198.11286,99.099 L198.11286,99.099 Z" id="Shape" fill="#FFFF00"></path>
                    <path d="M117.42192,151.65282 L117.42192,139.32831 C107.64699,148.67787 95.74719,154.84029 81.72285,154.84029 C60.26097,154.84029 48.14865,143.15301 48.14865,125.09112 C48.14865,106.39167 62.17332,89.17953 101.48457,89.17953 C106.58472,89.17953 111.68421,89.60457 117.42192,90.02961 L117.42192,77.91729 C117.42192,59.8554 108.70959,55.81785 99.14718,55.81785 C85.54755,55.81785 78.7479,61.76775 78.11034,78.12981 L51.54864,78.12981 C52.39872,51.14307 70.88565,37.96848 99.14718,37.96848 C119.75931,37.96848 143.98362,45.19317 143.98362,74.72982 L143.98362,151.65249 L117.42192,151.65249 L117.42192,151.65282 Z M117.42192,104.90436 C112.10925,104.47932 107.22228,104.2668 102.97221,104.2668 C83.42301,104.2668 74.71035,111.06645 74.71035,121.47861 C74.71035,131.89077 82.5726,135.92832 93.19728,135.92832 C101.69709,135.92832 111.47169,130.61598 117.42159,124.45356 L117.42159,104.90436 L117.42192,104.90436 Z" id="Shape" fill="#000000"></path>
                </g>
                <g id="ŘŘř" transform="translate(209.550000, 0.000000)" sketch:type="MSShapeGroup">
                    <path d="M198.1353,99.099 C198.1353,153.77835 153.79089,198.09933 99.11649,198.09933 C44.4543,198.09933 0.11121,153.77835 0.11121,99.099 C0.11121,44.43021 44.4543,0.09867 99.11649,0.09867 C153.79089,0.09867 198.1353,44.43054 198.1353,99.099 L198.1353,99.099 Z" id="Shape" fill="#FFFF00"></path>
                    <path d="M58.24731,64.87239 L47.15139,64.87239 L33.48807,51.75918 L44.12529,51.75918 L52.65348,57.6279 L61.27341,51.75918 L71.9103,51.75918 L58.24731,64.87239 L58.24731,64.87239 Z M67.87572,133.73877 L53.02044,109.71345 L45.86802,109.71345 L45.86802,133.73877 L33.85536,133.73877 L33.85536,69.54882 L54.76284,69.54882 C66.68376,69.54882 78.51294,75.23439 78.51294,89.63097 C78.51294,99.99297 72.46074,105.86202 64.57473,108.33768 L81.81426,133.73844 L67.87572,133.73844 L67.87572,133.73877 Z M54.76251,101.09352 C61.0896,101.09352 66.3168,97.97568 66.3168,89.63097 C66.3168,81.46974 61.08993,78.44364 54.76251,78.44364 L45.86769,78.44364 L45.86769,101.09352 L54.76251,101.09352 L54.76251,101.09352 Z" id="Shape" fill="#000000"></path>
                    <path d="M118.67658,133.73877 L107.30577,115.85739 L102.44553,115.85739 L102.44553,133.73877 L91.16646,133.73877 L91.16646,83.94573 L109.04784,83.94573 C119.13462,83.94573 128.57988,89.26434 128.57988,100.08504 C128.57988,107.60442 124.0866,112.28118 118.0344,114.39021 L131.51424,133.73877 L118.67658,133.73877 L118.67658,133.73877 Z M111.89079,80.36919 L102.99597,80.36919 L91.53342,70.19067 L101.07009,70.19067 L107.39718,73.85862 L113.81634,70.19067 L123.35301,70.19067 L111.89079,80.36919 L111.89079,80.36919 Z M109.04817,108.24627 C113.54145,108.24627 117.30114,106.22898 117.30114,100.08504 C117.30114,94.03284 113.54145,91.92381 109.04817,91.92381 L102.44586,91.92381 L102.44586,108.24627 L109.04817,108.24627 L109.04817,108.24627 Z" id="Shape" fill="#000000"></path>
                    <path d="M148.6617,80.27778 L137.841,65.8812 L147.10245,65.8812 L154.2552,73.03362 L161.40762,65.8812 L170.76114,65.8812 L159.94044,80.27778 L148.6617,80.27778 L148.6617,80.27778 Z M140.40873,133.73877 L140.40873,86.05476 L151.87095,86.05476 L151.87095,94.58295 C155.35575,88.25586 160.39914,84.67932 165.16731,84.67932 C167.6433,84.67932 169.38537,85.41291 170.94429,86.69661 L170.94429,96.5085 C168.74352,95.59143 167.09286,95.04132 164.34198,95.04132 C159.11511,95.04132 154.16346,98.52612 151.87062,102.28581 L151.87062,133.73877 L140.40873,133.73877 L140.40873,133.73877 Z" id="Shape" fill="#000000"></path>
                </g>
                <g id="fi" transform="translate(419.100000, 0.000000)" sketch:type="MSShapeGroup">
                    <path d="M198.15807,99.099 C198.15807,153.77835 153.81366,198.09933 99.13926,198.09933 C44.47707,198.09933 0.13398,153.77835 0.13398,99.099 C0.13398,44.43021 44.47707,0.09867 99.13926,0.09867 C153.81366,0.09867 198.15807,44.43054 198.15807,99.099 L198.15807,99.099 Z" id="Shape" fill="#FFFF00"></path>
                    <path d="M111.61128,157.52286 L111.61128,91.40571 L83.92659,91.40571 L83.92659,157.52253 L54.61368,157.52253 L54.61368,91.40571 L41.58561,91.40571 L41.58561,71.8641 L54.61368,71.8641 L54.61368,65.3499 C54.61368,43.36497 68.61855,33.91971 86.69496,33.91971 C91.74363,33.91971 98.90892,34.89684 103.46853,37.01379 L103.46853,54.11307 C100.04874,53.29863 97.44306,52.97292 94.51167,52.97292 C89.78904,52.97292 83.92659,54.92718 83.92659,65.18655 L83.92659,71.86344 L140.92419,71.86344 L140.92419,157.5222 L111.61128,157.5222 L111.61128,157.52286 Z M126.26757,65.18688 C116.4966,65.18688 109.9824,58.18428 109.9824,48.90204 C109.9824,39.6198 116.49627,32.61687 126.26757,32.61687 C136.03887,32.61687 142.55274,39.61947 142.55274,48.90204 C142.55274,58.18461 136.03854,65.18688 126.26757,65.18688 L126.26757,65.18688 Z" id="Shape" fill="#000000"></path>
                </g>
                <g id="curr" transform="translate(628.650000, 0.000000)" sketch:type="MSShapeGroup">
                    <path d="M198.18051,99.099 C198.18051,153.77835 153.8361,198.09933 99.1617,198.09933 C44.49951,198.09933 0.15642,153.77835 0.15642,99.099 C0.15642,44.43021 44.49951,0.09867 99.1617,0.09867 C153.8361,0.09867 198.18051,44.43054 198.18051,99.099 L198.18051,99.099 Z" id="Shape" fill="#FFFF00"></path>
                    <path d="M36.64551,148.78974 L43.51215,123.981 C38.97135,117.11436 36.53463,107.811 36.53463,96.73554 C36.53463,75.24924 46.61349,60.2976 61.89711,56.97483 L65.33043,44.68134 L74.52291,44.68134 L71.31102,56.42142 C74.08005,56.64285 76.84875,57.19659 79.39602,58.08264 L83.0511,44.68134 L92.24358,44.68134 L87.25959,62.62344 C92.35413,66.83193 95.89833,73.36659 97.22757,82.33764 L86.26299,82.33764 C85.8198,79.23663 85.04463,76.4676 84.04803,74.25264 L68.76408,129.74016 C77.73513,129.62961 84.38034,124.20243 86.26332,111.13344 L97.2279,111.13344 C94.56975,128.96499 83.16198,137.16054 68.54265,137.16054 C67.87803,137.16054 67.32429,137.16054 66.77055,137.04999 L63.55866,148.78974 L54.36618,148.78974 L58.02093,135.49932 C55.2519,134.61327 52.81551,133.28436 50.60055,131.62281 L45.83799,148.78974 L36.64551,148.78974 L36.64551,148.78974 Z M47.83152,108.36474 L59.34984,66.27819 C52.26177,70.48668 46.83459,80.23323 46.83459,96.73554 C46.83492,101.05491 47.16723,104.93142 47.83152,108.36474 L47.83152,108.36474 Z M60.12534,127.96806 L77.18139,65.94588 C74.85555,64.50609 72.1974,63.8418 69.20727,63.73092 L53.14782,122.09802 C55.14135,124.75617 57.46719,126.63915 60.12534,127.96806 L60.12534,127.96806 Z" id="Shape" fill="#000000"></path>
                    <path d="M146.40087,135.49932 L135.21486,111.13344 L117.16188,111.13344 L117.16188,135.49932 L108.52314,135.49932 L108.52314,111.13344 L101.87793,111.13344 L101.87793,103.71306 L108.52314,103.71306 L108.52314,88.98285 L101.87793,88.98285 L101.87793,81.56247 L108.52314,81.56247 L108.52314,57.97176 L119.37684,57.97176 L130.23087,81.56247 L148.61583,81.56247 L148.61583,57.97176 L157.25457,57.97176 L157.25457,81.56247 L163.89978,81.56247 L163.89978,88.98285 L157.25457,88.98285 L157.25457,103.71306 L163.89978,103.71306 L163.89978,111.13344 L157.25457,111.13344 L157.25457,135.49932 L146.40087,135.49932 L146.40087,135.49932 Z M117.05133,81.56247 L121.48158,81.56247 L116.94078,71.59449 L117.05133,81.56247 L117.05133,81.56247 Z M117.16188,88.98285 L117.16188,103.71306 L131.78154,103.71306 L124.91457,88.98285 L117.16188,88.98285 L117.16188,88.98285 Z M140.42028,103.71306 L148.61616,103.71306 L148.61616,88.98285 L133.66452,88.98285 L140.42028,103.71306 L140.42028,103.71306 Z M148.61616,111.13344 L143.8536,111.13344 L148.83759,121.87659 L148.61616,111.13344 L148.61616,111.13344 Z" id="Shape" fill="#000000"></path>
                </g>
                <g id="beta" transform="translate(838.200000, 0.000000)" sketch:type="MSShapeGroup">
                    <path d="M198.20295,99.099 C198.20295,153.77835 153.85854,198.09933 99.18414,198.09933 C44.52195,198.09933 0.17886,153.77835 0.17886,99.099 C0.17886,44.43021 44.52195,0.09867 99.18414,0.09867 C153.85854,0.09867 198.20295,44.43054 198.20295,99.099 L198.20295,99.099 Z" id="Shape" fill="#FFFF00"></path>
                    <path d="M107.40213,88.83831 C127.79019,91.89675 133.0329,105.43995 133.0329,115.48845 C133.0329,136.89588 113.51868,148.25481 97.64502,148.25481 C82.06275,148.25481 73.03395,140.09985 75.07269,128.15814 L88.61622,128.15814 C87.88824,135.43959 92.6937,138.49803 100.12101,138.49803 C110.46057,138.49803 119.78076,131.6535 119.78076,116.65368 C119.78076,106.31412 112.49931,98.0133 96.91704,98.0133 L92.54817,98.0133 L94.29585,88.25619 L124.73208,53.88768 L104.63541,53.88768 C89.05314,53.88768 78.71358,62.77095 74.6361,86.07159 L64.00515,146.07054 L51.48099,146.07054 L61.82055,87.52788 C67.20879,56.94579 83.37351,44.13057 106.23756,44.13057 L140.02362,44.13057 L138.4218,53.88768 L107.40213,88.83831 L107.40213,88.83831 Z" id="Shape" fill="#000000"></path>
                </g>
                <g id="gg" transform="translate(1047.750000, 0.000000)" sketch:type="MSShapeGroup">
                    <path d="M198.22572,99.099 C198.22572,153.77835 153.88131,198.09933 99.20691,198.09933 C44.54472,198.09933 0.20163,153.77835 0.20163,99.099 C0.20163,44.43021 44.54472,0.099 99.20691,0.099 C153.88131,0.09867 198.22572,44.43021 198.22572,99.099 L198.22572,99.099 Z" id="Shape" fill="#FFFF00"></path>
                    <path d="M64.00482,114.4011 C57.83382,119.50389 52.84917,121.87758 46.08483,121.87758 C33.38676,121.87758 28.87698,111.4344 28.87698,97.78692 C28.87698,75.47628 42.04992,57.67476 59.0205,57.67476 C65.19117,57.67476 69.46368,59.92965 72.66765,65.03277 L73.73553,59.45511 L93.91041,59.45511 L82.75509,122.70852 C79.43199,141.34032 65.19084,148.34226 49.2888,148.34226 C36.23466,148.34226 24.2484,143.35794 25.31628,125.79435 L44.42295,125.79435 C43.82961,135.16965 48.45786,135.88146 51.66216,135.88146 C56.05314,135.88146 60.56292,133.98264 62.10534,125.08188 L64.00482,114.4011 L64.00482,114.4011 Z M71.00676,74.40774 C68.87034,72.50892 66.49698,71.32224 64.00482,71.32224 C53.20524,71.32224 49.17066,83.1897 49.17066,95.7693 C49.17066,103.83912 51.30675,108.2301 56.88441,108.2301 C59.37657,108.2301 62.81814,106.92462 65.66637,105.0258 L71.00676,74.40774 L71.00676,74.40774 Z" id="Shape" fill="#000000"></path>
                    <path d="M162.97875,72.50892 C163.09722,73.45833 163.21635,74.40774 163.21635,75.35715 C163.21635,91.14105 147.78852,98.736 130.81794,98.736 C126.54576,98.736 122.86659,98.26146 119.54415,97.43052 C118.95048,98.6172 118.71321,99.80388 118.71321,100.87209 C118.71321,103.48305 120.61203,104.55093 122.39205,104.55093 L141.26112,104.55093 C154.67166,104.55093 160.48659,110.12859 160.48659,119.26662 C160.48659,135.16899 143.39754,148.3416 119.89989,148.3416 C102.81084,148.3416 94.26615,143.35728 94.26615,133.86351 C94.26615,126.98037 100.08108,121.52151 107.20182,117.84234 C103.40418,115.58745 102.0987,112.14588 102.0987,108.70464 C102.0987,102.88938 106.48968,97.19325 111.2364,93.39561 C107.67603,90.42858 105.77721,86.394 105.77721,81.05361 C105.77721,65.26971 121.08657,57.67476 138.05649,57.67476 C142.80354,57.67476 147.19452,58.2681 150.75456,59.45511 L173.65887,59.45511 L171.40398,72.50925 L162.97875,72.50925 L162.97875,72.50892 Z M119.18808,120.3345 C117.40773,120.3345 115.86531,120.3345 114.44103,120.09723 C113.49162,122.23332 112.66068,124.96275 112.66068,127.33644 C112.66068,133.62624 116.45832,136.59294 123.46026,136.59294 C135.09012,136.59294 140.54931,132.32076 140.54931,125.55609 C140.54931,122.58939 138.05682,120.3345 134.14071,120.3345 L119.18808,120.3345 L119.18808,120.3345 Z M135.92106,69.30495 C129.98766,69.30495 124.0536,72.27165 124.0536,79.51086 C124.0536,84.49518 128.20731,87.10614 133.07283,87.10614 C139.00623,87.10614 144.94029,84.13944 144.94029,76.90023 C144.94029,71.91558 140.78658,69.30495 135.92106,69.30495 L135.92106,69.30495 Z" id="Shape" fill="#000000"></path>
                </g>
                <g id="M" transform="translate(1257.300000, 0.000000)" sketch:type="MSShapeGroup">
                    <path d="M198.24816,99.099 C198.24816,153.77835 153.90375,198.09933 99.22935,198.09933 C44.56716,198.09933 0.22407,153.77835 0.22407,99.099 C0.22407,44.43021 44.56716,0.09867 99.22935,0.09867 C153.90375,0.09867 198.24816,44.43054 198.24816,99.099 L198.24816,99.099 Z" id="Shape" fill="#FFFF00"></path>
                    <path d="M137.45919,150.14076 L137.45919,84.53313 L137.75586,71.17407 L105.84255,150.14043 L93.22599,150.14043 L59.68017,68.20506 L59.97684,84.5328 L59.97684,150.14043 L48.39879,150.14043 L48.39879,46.23729 L63.39069,46.23729 L100.20252,136.6332 L137.45919,46.23729 L150.07575,46.23729 L150.07575,150.14076 L137.45919,150.14076 L137.45919,150.14076 Z" id="Shape" fill="#000000"></path>
                </g>
                <g id="25" transform="translate(1466.850000, 0.000000)" sketch:type="MSShapeGroup">
                    <path d="M198.2706,99.099 C198.2706,153.77835 153.92619,198.09933 99.25179,198.09933 C44.5896,198.09933 0.24651,153.77835 0.24651,99.099 C0.24651,44.43021 44.5896,0.099 99.25179,0.099 C153.92619,0.09867 198.2706,44.43021 198.2706,99.099 L198.2706,99.099 Z" id="Shape" fill="#FFFF00"></path>
                    <path d="M95.81352,124.58985 L95.81352,141.49212 L35.1351,141.49212 L35.1351,124.58985 C59.57655,102.33696 72.58779,92.1228 72.58779,79.96263 C72.58779,74.36913 70.15602,70.84242 64.68396,70.84242 C58.48227,70.84242 55.68552,74.73378 55.32087,83.12403 L32.46012,83.12403 C33.67617,63.91143 45.34992,54.54801 64.68396,54.54801 C83.16726,54.54801 95.20533,63.42468 95.20533,79.9623 C95.20533,94.55424 84.99117,104.76873 62.98149,124.58952 L95.81352,124.58952 L95.81352,124.58985 Z" id="Shape" fill="#000000"></path>
                    <path d="M127.18629,117.17244 C127.55094,123.3738 129.61806,127.02195 136.06296,127.02195 C142.50753,127.02195 144.45321,119.72598 144.45321,112.91643 C144.45321,107.32293 143.23716,100.63482 135.09012,100.63482 C131.92872,100.63482 128.52378,102.21552 125.97024,104.64762 L106.63554,104.64762 L106.63554,56.37225 L161.59902,56.37225 L161.59902,73.27485 L125.97024,73.27485 L125.97024,92.60922 C129.0102,88.23144 136.42761,83.97576 143.3586,83.97576 C158.6805,83.97576 167.07042,93.94704 167.07042,112.91643 C167.07042,131.88582 153.8163,143.31636 136.06263,143.31636 C116.24184,143.31636 105.54093,134.56113 104.32488,117.17244 L127.18629,117.17244 L127.18629,117.17244 Z" id="Shape" fill="#000000"></path>
                </g>
                <g id="nnnnnn" transform="translate(1676.400000, 0.000000)" sketch:type="MSShapeGroup">
                    <path d="M198.11616,99.099 C198.11616,153.77835 153.77175,198.09933 99.09735,198.09933 C44.43516,198.09933 0.09207,153.77835 0.09207,99.099 C0.09207,44.43021 44.43516,0.099 99.09735,0.099 C153.77175,0.09867 198.11616,44.43021 198.11616,99.099 L198.11616,99.099 Z" id="Shape" fill="#FFFF00"></path>
                    <path d="M31.79748,96.07752 L31.79748,55.64757 L43.77945,55.64757 L43.77945,60.98169 C47.79951,56.80719 52.66932,54.48795 57.849,54.48795 C63.72399,54.48795 69.52176,57.34806 69.52176,67.78431 L69.52176,96.07719 L57.53946,96.07719 L57.53946,69.94845 C57.53946,65.61951 55.29777,63.91902 51.58725,63.91902 C48.9588,63.91902 45.78948,65.38785 43.77945,67.24311 L43.77945,96.07719 L31.79748,96.07719 L31.79748,96.07752 Z" id="Shape" fill="#000000"></path>
                    <path d="M79.57092,96.07752 L79.57092,55.64757 L91.55289,55.64757 L91.55289,60.98169 C95.57295,56.80719 100.44276,54.48795 105.62244,54.48795 C111.49743,54.48795 117.2952,57.34806 117.2952,67.78431 L117.2952,96.07719 L105.3129,96.07719 L105.3129,69.94845 C105.3129,65.61951 103.07121,63.91902 99.36069,63.91902 C96.73224,63.91902 93.56292,65.38785 91.55289,67.24311 L91.55289,96.07719 L79.57092,96.07719 L79.57092,96.07752 Z" id="Shape" fill="#000000"></path>
                    <path d="M127.34436,96.07752 L127.34436,55.64757 L139.32633,55.64757 L139.32633,60.98169 C143.34639,56.80719 148.2162,54.48795 153.39588,54.48795 C159.27087,54.48795 165.06864,57.34806 165.06864,67.78431 L165.06864,96.07719 L153.08634,96.07719 L153.08634,69.94845 C153.08634,65.61951 150.84465,63.91902 147.13413,63.91902 C144.50568,63.91902 141.33636,65.38785 139.32633,67.24311 L139.32633,96.07719 L127.34436,96.07719 L127.34436,96.07752 Z" id="Shape" fill="#000000"></path>
                    <path d="M31.17906,147.02457 L38.36811,106.59495 L49.73199,106.59495 L47.87673,116.8761 L48.80436,111.92874 C53.59728,107.75457 58.85385,105.43533 64.0332,105.43533 C69.28977,105.43533 74.62389,108.29544 72.76863,118.73136 L67.82127,147.02457 L56.38017,147.02457 L61.09554,120.27774 C61.86873,115.9488 59.93592,114.3252 56.2254,114.3252 C53.59728,114.3252 50.0412,115.71648 47.79951,117.57174 L42.62016,147.02424 L31.17906,147.02424 L31.17906,147.02457 Z" id="Shape" fill="#000000"></path>
                    <path d="M78.41097,147.02457 L85.60002,106.59495 L96.9639,106.59495 L95.10864,116.8761 L96.03627,111.92874 C100.82919,107.75457 106.08576,105.43533 111.26511,105.43533 C116.52168,105.43533 121.8558,108.29544 120.00054,118.73136 L115.05318,147.02457 L103.61208,147.02457 L108.32745,120.27774 C109.10064,115.9488 107.16783,114.3252 103.45731,114.3252 C100.82919,114.3252 97.27311,115.71648 95.03142,117.57174 L89.85207,147.02424 L78.41097,147.02424 L78.41097,147.02457 Z" id="Shape" fill="#000000"></path>
                    <path d="M125.64288,147.02457 L132.83193,106.59495 L144.19581,106.59495 L142.34055,116.8761 L143.26818,111.92874 C148.0611,107.75457 153.31767,105.43533 158.49702,105.43533 C163.75359,105.43533 169.08771,108.29544 167.23245,118.73136 L162.28509,147.02457 L150.84399,147.02457 L155.55936,120.27774 C156.33255,115.9488 154.39974,114.3252 150.68922,114.3252 C148.0611,114.3252 144.50502,115.71648 142.26333,117.57174 L137.08398,147.02424 L125.64288,147.02424 L125.64288,147.02457 Z" id="Shape" fill="#000000"></path>
                </g>
                <g id="Eť" transform="translate(1885.950000, 0.000000)" sketch:type="MSShapeGroup">
                    <path d="M198.1386,99.099 C198.1386,153.77835 153.79419,198.09933 99.11979,198.09933 C44.4576,198.09933 0.11451,153.77835 0.11451,99.099 C0.11451,44.43021 44.4576,0.099 99.11979,0.099 C153.79419,0.09867 198.1386,44.43021 198.1386,99.099 L198.1386,99.099 Z" id="Shape" fill="#FFFF00"></path>
                    <path d="M35.68884,143.6292 L35.68884,55.63668 L92.25579,55.63668 L92.25579,73.10952 L58.94427,73.10952 L58.94427,88.57134 L89.74152,88.57134 L89.74152,106.04418 L58.94427,106.04418 L58.94427,126.15669 L92.25579,126.15669 L92.25579,143.62953 L35.68884,143.62953 L35.68884,143.6292 Z" id="Shape" fill="#000000"></path>
                    <path d="M114.88092,143.6292 L114.88092,92.59371 L102.31056,92.59371 L102.31056,77.50941 L114.88092,77.50941 L114.88092,60.66522 L137.5077,60.66522 L137.5077,77.50941 L150.07806,77.50941 L150.07806,92.59371 L137.5077,92.59371 L137.5077,143.6292 L114.88092,143.6292 L114.88092,143.6292 Z M143.79288,72.85806 L143.79288,42.68913 L162.77415,42.68913 L158.87718,72.85806 L143.79288,72.85806 L143.79288,72.85806 Z" id="Shape" fill="#000000"></path>
                </g>
                <g id="&amp;" transform="translate(2095.500000, 0.000000)" sketch:type="MSShapeGroup">
                    <path d="M198.16104,99.099 C198.16104,153.77835 153.81663,198.09933 99.14223,198.09933 C44.48004,198.09933 0.13695,153.77835 0.13695,99.099 C0.13695,44.43021 44.48004,0.09867 99.14223,0.09867 C153.81663,0.09867 198.16104,44.43054 198.16104,99.099 L198.16104,99.099 Z" id="Shape" fill="#FFFF00"></path>
                    <path d="M148.88247,90.62361 C146.23719,105.43764 139.53588,120.07512 129.83619,132.06699 L150.64599,156.58038 L123.3111,156.58038 L114.66972,146.70447 C104.0886,154.46409 91.7433,159.22566 78.5169,159.22566 C56.47224,159.22566 39.36603,148.29177 39.36603,128.36373 C39.36603,111.96273 50.47614,97.67802 66.34815,89.38941 C62.29212,83.39331 58.76508,76.3389 58.76508,68.57928 C58.76508,47.59293 78.34035,30.48672 103.20651,30.48672 C126.30915,30.48672 140.94663,41.77338 138.65379,64.3467 L115.55148,64.3467 C116.43324,50.59098 108.67362,46.88739 100.38501,46.88739 C90.68532,46.88739 80.80974,53.23626 80.80974,65.5809 C80.80974,71.04768 83.10225,76.86756 88.9218,83.74542 L117.84432,117.9585 C122.25312,110.02233 125.42739,100.49919 127.19091,90.62328 L148.88247,90.62328 L148.88247,90.62361 Z M104.44104,134.53638 L75.6954,100.85262 C66.87747,106.14318 61.23447,114.25557 61.23447,123.95526 C61.23447,136.2999 70.58106,142.64877 82.22049,142.64877 C90.50943,142.64844 98.0925,139.65039 104.44104,134.53638 L104.44104,134.53638 Z" id="Shape" fill="#000000"></path>
                </g>
                <g id="1630" transform="translate(2306.040000, 0.000000)" sketch:type="MSShapeGroup">
                    <path d="M198.18381,99.099 C198.18381,153.77835 153.8394,198.09933 99.165,198.09933 C44.50281,198.09933 0.15972,153.77835 0.15972,99.099 C0.15972,44.43021 44.50281,0.099 99.165,0.099 C153.8394,0.09867 198.18381,44.43021 198.18381,99.099 L198.18381,99.099 Z" id="Shape" fill="#FFFF00"></path>
                    <path d="M49.89369,96.789 L49.89369,86.00196 L64.87041,86.00196 L64.87041,58.09914 L49.89369,66.12243 L49.89369,53.73093 L64.87041,45.70764 L78.7776,45.70764 L78.7776,86.00196 L92.86266,86.00196 L92.86266,96.789 L49.89369,96.789 L49.89369,96.789 Z" id="Shape" fill="#000000"></path>
                    <path d="M133.15731,47.66916 C132.53328,41.16156 128.96763,38.93274 125.49075,38.93274 C119.07225,38.93274 115.50627,46.06437 114.97134,62.11095 C118.35912,58.01037 124.50999,55.06842 129.85896,55.06842 C141.0915,55.06842 147.8664,62.28948 147.8664,76.19634 C147.8664,89.8359 137.88192,98.12649 125.31222,98.12649 C109.89,98.12649 100.97505,86.98305 100.97505,66.56859 C100.97505,41.07246 111.04863,29.12712 125.49042,29.12712 C137.25789,29.12712 145.45938,34.83249 146.61801,47.66949 L133.15731,47.66949 L133.15731,47.66916 Z M114.97101,69.77751 C115.50594,81.72318 118.80429,88.40898 125.31222,88.40898 C130.83939,88.40898 133.87044,83.95167 133.87044,76.82004 C133.87044,70.40154 131.46342,65.5875 125.04492,65.5875 C121.74657,65.5875 117.28926,67.45959 114.97101,69.77751 L114.97101,69.77751 Z" id="Shape" fill="#000000"></path>
                    <path d="M61.39386,140.65491 L61.39386,130.58133 L68.34729,130.58133 C75.56802,130.58133 78.77727,126.39132 78.77727,120.77505 C78.77727,115.51551 75.47892,112.84119 70.66488,112.84119 C64.78131,112.84119 62.10666,116.31807 61.66116,121.93401 L48.1998,121.93401 C49.09146,109.89924 57.29295,103.12401 71.02128,103.12401 C83.68008,103.12401 92.5056,109.18611 92.5056,120.95325 C92.5056,126.30222 88.67232,132.45342 82.78875,134.86044 C90.72294,136.82163 93.84276,143.50776 93.84276,149.56953 C93.84276,161.5152 84.21501,168.82536 70.93218,168.82536 C55.77693,168.82536 48.19947,162.31743 47.39757,150.01536 L61.48263,150.01536 C61.92879,155.80983 65.13771,159.10851 70.93251,159.10851 C76.54878,159.10851 80.11443,155.89893 80.11443,149.65896 C80.11443,144.13179 76.63788,140.65524 68.34729,140.65524 L61.39386,140.65524 L61.39386,140.65491 Z" id="Shape" fill="#000000"></path>
                    <path d="M101.77761,129.9573 C101.77761,113.91105 109.80057,103.12401 124.24269,103.12401 C138.59505,103.12401 146.61834,113.91105 146.61834,129.9573 C146.61834,146.00355 138.59538,156.87969 124.24269,156.87969 C109.80057,156.87969 101.77761,146.00388 101.77761,129.9573 L101.77761,129.9573 Z M114.97101,138.60462 L127.62981,112.93029 C126.64905,112.48446 125.49042,112.21716 124.24236,112.21716 C117.64533,112.21716 114.16878,118.19016 114.16878,129.9573 C114.16911,133.34475 114.43641,136.1976 114.97101,138.60462 L114.97101,138.60462 Z M134.31627,129.9573 C134.31627,126.56952 134.04864,123.6279 133.42494,121.22088 L120.76614,147.16251 C121.7469,147.60834 122.90553,147.78654 124.24302,147.78654 C130.83939,147.78654 134.31627,141.63534 134.31627,129.9573 L134.31627,129.9573 Z" id="Shape" fill="#000000"></path>
                </g>
            </g>
            <g id="kunda-book" sketch:type="MSLayerGroup" transform="translate(0.660000, 203.610000)">
                <g id="Re" sketch:type="MSShapeGroup">
                    <path d="M198.11286,99.29667 C198.11286,153.97602 153.76845,198.29667 99.09405,198.29667 C44.43186,198.29667 0.08877,153.97569 0.08877,99.29667 C0.08877,44.62755 44.43186,0.29667 99.09405,0.29667 C153.76845,0.29667 198.11286,44.62788 198.11286,99.29667 L198.11286,99.29667 Z" id="Shape" fill="#FF3C32"></path>
                    <path d="M36.80886,137.32719 L36.80886,135.49338 C46.3716,133.26621 47.94339,131.56341 47.94339,126.58569 L47.94339,63.8385 C47.94339,58.86078 46.37127,57.15765 36.80886,54.93081 L36.80886,53.097 L67.98594,53.097 C83.70549,53.097 99.55605,59.90886 99.55605,75.36606 C99.55605,87.41799 91.69644,95.2776 80.8236,98.68353 L110.82159,135.49338 L110.82159,137.32719 L97.06686,137.32719 L71.91558,100.38633 C70.34379,100.51734 68.64066,100.64835 67.06887,100.64835 L59.20893,100.64835 L59.20893,126.58569 C59.20893,131.56341 60.78105,133.26654 70.34379,135.49338 L70.34379,137.32719 L36.80886,137.32719 L36.80886,137.32719 Z M68.64066,96.32535 C80.29923,96.32535 87.37311,87.9417 87.37311,76.54515 C87.37311,64.62456 78.98946,57.41967 66.41382,57.41967 L59.20893,57.41967 L59.20893,96.32535 L68.64066,96.32535 L68.64066,96.32535 Z" id="Shape" fill="#000000"></path>
                    <path d="M159.42135,125.4066 C154.44363,136.01742 145.53594,139.42335 138.85509,139.42335 C124.31463,139.42335 114.75189,128.94354 114.75189,112.70028 C114.75189,95.67096 126.01743,83.61903 139.51014,83.61903 C149.85894,83.61903 159.81438,90.03786 159.29034,102.48249 L125.36271,102.48249 C125.10069,104.18562 125.10069,105.88842 125.10069,107.59122 C125.10069,123.83481 133.35333,131.0397 142.52304,131.0397 C147.76278,131.0397 154.57497,128.68152 157.58754,124.09683 L159.42135,125.4066 L159.42135,125.4066 Z M126.01743,98.81454 L147.76278,98.81454 C147.89379,90.95493 142.78506,87.28665 138.33105,87.28665 C130.99548,87.28665 127.45854,92.52639 126.01743,98.81454 L126.01743,98.81454 Z" id="Shape" fill="#000000"></path>
                </g>
                <g id="g" transform="translate(209.550000, 0.000000)" sketch:type="MSShapeGroup">
                    <path d="M198.1353,99.29667 C198.1353,153.97602 153.79089,198.29667 99.11649,198.29667 C44.4543,198.29667 0.11121,153.97569 0.11121,99.29667 C0.11121,44.62755 44.4543,0.29667 99.11649,0.29667 C153.79089,0.29667 198.1353,44.62788 198.1353,99.29667 L198.1353,99.29667 Z" id="Shape" fill="#FF3C32"></path>
                    <path d="M82.88445,125.11125 C75.9462,124.17372 67.88265,123.23586 58.50636,122.86098 L57.00618,119.67318 L76.69629,96.98271 C66.56991,92.66961 59.63166,84.41862 59.63166,72.79239 C59.63166,53.66493 79.69665,43.16367 97.13649,43.16367 C105.38748,43.16367 113.07582,45.03906 119.26431,48.60174 L131.07831,29.0994 L134.45388,29.0994 L145.14291,45.2265 L124.89015,52.7274 C129.7659,57.41571 132.76626,63.41643 132.76626,70.91733 C132.76626,90.04446 112.70127,100.54605 95.26176,100.54605 C91.13643,100.54605 87.38565,100.17117 83.6352,99.23331 L78.57201,105.04659 C125.64024,106.54677 141.39246,114.42288 141.39246,131.29974 C141.39246,153.42756 114.57666,166.92918 91.88619,166.92918 C69.57093,166.92918 54.19392,160.17837 54.19392,148.36437 C54.19392,138.80097 62.44491,130.73709 80.63484,124.92414 L82.88445,125.11125 L82.88445,125.11125 Z M88.51029,125.86134 C79.69665,130.73676 77.44638,138.80031 77.44638,142.36332 C77.44638,152.4897 86.07258,158.49042 97.51137,158.49042 C111.3882,158.49042 120.01407,152.4897 120.01407,144.05127 C120.01407,135.98739 110.82555,129.61179 88.51029,125.86134 L88.51029,125.86134 Z M106.69989,76.73028 C106.69989,66.97911 104.07441,49.91448 94.69845,49.91448 C88.51029,49.91448 85.69737,57.60282 85.69737,66.97911 C85.69737,76.73028 88.32285,93.79491 97.69881,93.79491 C103.8873,93.79491 106.69989,86.10624 106.69989,76.73028 L106.69989,76.73028 Z" id="Shape" fill="#000000"></path>
                </g>
                <g id="?!?!" transform="translate(419.100000, 0.000000)" sketch:type="MSShapeGroup">
                    <path d="M198.15807,99.29667 C198.15807,153.97602 153.81366,198.29667 99.13926,198.29667 C44.47707,198.29667 0.13398,153.97569 0.13398,99.29667 C0.13398,44.62755 44.47707,0.29667 99.13926,0.29667 C153.81366,0.29667 198.15807,44.62788 198.15807,99.29667 L198.15807,99.29667 Z" id="Shape" fill="#FF3C32"></path>
                    <path d="M47.31738,85.90131 C53.21052,90.23124 55.61589,94.44039 55.61589,99.37158 C55.61589,113.44344 31.20117,112.24059 31.20117,118.01361 C31.20117,121.8624 42.86733,122.9448 57.17943,122.9448 L57.17943,139.66227 C32.28357,139.66227 25.54827,128.11623 25.54827,115.36767 C25.54827,94.19982 46.47522,99.37158 46.47522,92.15547 C46.47522,90.23091 45.87396,89.02839 45.27237,86.86359 L47.31738,85.90131 L47.31738,85.90131 Z M55.37532,68.70237 C55.37532,74.23482 50.9256,78.92544 45.03213,78.92544 C39.13866,78.92544 34.68894,74.23482 34.68894,68.70237 C34.68894,63.16992 39.13866,58.4793 45.03213,58.4793 C50.9256,58.4793 55.37532,63.17025 55.37532,68.70237 L55.37532,68.70237 Z" id="Shape" fill="#000000"></path>
                    <path d="M79.06734,112.24059 C73.1742,107.91066 70.76883,103.70118 70.76883,98.77032 C70.76883,84.69846 95.18355,85.90131 95.18355,80.12829 C95.18355,76.2795 83.51706,75.1971 69.20496,75.1971 L69.20496,58.47963 C94.10082,58.47963 100.83645,70.02567 100.83645,82.77423 C100.83645,103.94175 79.90917,98.77032 79.90917,105.98643 C79.90917,107.91099 80.51043,109.11351 81.11202,111.27831 L79.06734,112.24059 L79.06734,112.24059 Z M71.00907,129.4392 C71.00907,123.90675 75.45912,119.21613 81.35259,119.21613 C87.24606,119.21613 91.69578,123.90675 91.69578,129.4392 C91.69578,134.97165 87.24606,139.66227 81.35259,139.66227 C75.45912,139.66227 71.00907,134.97165 71.00907,129.4392 L71.00907,129.4392 Z" id="Shape" fill="#000000"></path>
                    <path d="M109.25343,68.70237 C109.25343,63.16992 113.70348,58.4793 119.59695,58.4793 C125.49042,58.4793 129.94014,63.16992 129.94014,68.70237 C129.94014,74.23482 125.49042,78.92544 119.59695,78.92544 C113.70348,78.92544 109.25343,74.23515 109.25343,68.70237 L109.25343,68.70237 Z M109.49433,137.73804 L109.49433,135.57291 L118.75479,88.06611 L120.91992,88.06611 L130.18071,135.57291 L130.18071,137.73804 L109.49433,137.73804 L109.49433,137.73804 Z" id="Shape" fill="#000000"></path>
                    <path d="M142.20558,129.4392 C142.20558,123.90675 146.65563,119.21613 152.5491,119.21613 C158.44257,119.21613 162.89229,123.90675 162.89229,129.4392 C162.89229,134.97165 158.44257,139.66227 152.5491,139.66227 C146.65563,139.66227 142.20558,134.97165 142.20558,129.4392 L142.20558,129.4392 Z M151.70694,110.07546 L142.44648,62.56866 L142.44648,60.40353 L163.13286,60.40353 L163.13286,62.56866 L153.8724,110.07546 L151.70694,110.07546 L151.70694,110.07546 Z" id="Shape" fill="#000000"></path>
                </g>
                <g id="2" transform="translate(628.650000, 0.000000)" sketch:type="MSShapeGroup">
                    <path d="M198.18051,99.29667 C198.18051,153.97602 153.8361,198.29667 99.1617,198.29667 C44.49951,198.29667 0.15642,153.97569 0.15642,99.29667 C0.15642,44.62755 44.49951,0.29667 99.1617,0.29667 C153.8361,0.29667 198.18051,44.62788 198.18051,99.29667 L198.18051,99.29667 Z" id="Shape" fill="#FF3C32"></path>
                    <path d="M136.76718,118.54854 C132.0924,131.45979 123.63351,154.16544 103.82163,154.16544 C96.25308,154.16544 82.89666,151.49409 67.53681,135.2439 C59.96826,141.03177 52.17729,147.26448 43.94082,154.16544 L39.71121,149.04549 C87.79386,112.53825 117.62289,82.70922 117.62289,60.89391 C117.62289,51.98985 113.17086,46.42473 105.82473,46.42473 C94.24932,46.42473 85.34493,60.22632 75.32778,79.37028 L71.32092,79.37028 L66.20097,55.55154 C79.11189,47.09265 96.92034,40.19202 111.1671,40.19202 C126.7497,40.19202 144.3354,47.09265 144.3354,64.67868 C144.3354,82.04196 122.29767,95.39805 88.01628,120.10713 C98.47893,129.67911 106.71507,134.79906 114.95154,134.79906 C124.3011,134.79906 128.30796,126.78534 133.20516,116.76819 L136.76718,118.54854 L136.76718,118.54854 Z" id="Shape" fill="#000000"></path>
                </g>
                <g id="Óóó" transform="translate(838.200000, 0.000000)" sketch:type="MSShapeGroup">
                    <path d="M198.20295,99.29667 C198.20295,153.97602 153.85854,198.29667 99.18414,198.29667 C44.52195,198.29667 0.17886,153.97569 0.17886,99.29667 C0.17886,44.62755 44.52195,0.29667 99.18414,0.29667 C153.85854,0.29667 198.20295,44.62788 198.20295,99.29667 L198.20295,99.29667 Z" id="Shape" fill="#FF3C32"></path>
                    <path d="M25.19715,108.47298 C25.19715,87.13188 46.17327,66.24684 65.41689,66.24684 C76.26993,66.24684 85.5723,72.53961 85.5723,85.58154 C85.5723,106.92264 64.59618,127.80768 45.35256,127.80768 C34.49985,127.80768 25.19715,121.51491 25.19715,108.47298 L25.19715,108.47298 Z M72.80427,86.85831 C72.80427,78.92379 70.5243,70.35105 61.76907,70.35105 C48.63606,70.35105 37.96551,90.41538 37.96551,107.19621 C37.96551,115.13073 40.24548,123.70347 49.00071,123.70347 C62.13372,123.70347 72.80427,103.63947 72.80427,86.85831 L72.80427,86.85831 Z M54.1992,63.14616 L53.65206,61.77798 L70.70679,46.18251 L75.35814,52.56669 L74.90208,54.20844 L54.1992,63.14616 L54.1992,63.14616 Z" id="Shape" fill="#000000"></path>
                    <path d="M85.57131,115.95144 C85.57131,103.91304 97.97469,87.49653 111.01629,87.49653 C119.04189,87.49653 123.05469,91.87431 123.05469,99.35277 C123.05469,111.39117 110.65131,127.80768 97.60971,127.80768 C89.58411,127.80768 85.57131,123.4299 85.57131,115.95144 L85.57131,115.95144 Z M112.1109,96.70815 C112.1109,91.60074 110.92521,90.0504 108.82773,90.0504 C101.80533,90.0504 96.51543,111.57399 96.51543,118.59639 C96.51543,123.7038 97.70112,125.25414 99.7986,125.25414 C106.82133,125.25414 112.1109,103.73055 112.1109,96.70815 L112.1109,96.70815 Z M104.44995,85.67262 L103.44675,84.57834 L114.93801,67.7061 L116.57976,67.7061 L121.32219,73.7253 L104.44995,85.67262 L104.44995,85.67262 Z" id="Shape" fill="#000000"></path>
                    <path d="M126.70185,115.95144 C126.70185,103.91304 139.10523,87.49653 152.14683,87.49653 C160.17243,87.49653 164.18523,91.87431 164.18523,99.35277 C164.18523,111.39117 151.78185,127.80768 138.74025,127.80768 C130.71465,127.80768 126.70185,123.4299 126.70185,115.95144 L126.70185,115.95144 Z M153.24144,96.70815 C153.24144,91.60074 152.05575,90.0504 149.95827,90.0504 C142.93587,90.0504 137.64597,111.57399 137.64597,118.59639 C137.64597,123.7038 138.83166,125.25414 140.92914,125.25414 C147.95154,125.25414 153.24144,103.73055 153.24144,96.70815 L153.24144,96.70815 Z M145.58049,85.67262 L144.57729,84.57834 L156.06855,67.7061 L157.7103,67.7061 L162.45273,73.7253 L145.58049,85.67262 L145.58049,85.67262 Z" id="Shape" fill="#000000"></path>
                </g>
                <g id="a" transform="translate(1047.750000, 0.000000)" sketch:type="MSShapeGroup">
                    <path d="M198.22572,99.29634 C198.22572,153.97569 153.88131,198.29667 99.20691,198.29667 C44.54472,198.29667 0.20163,153.97569 0.20163,99.29634 C0.20163,44.62755 44.54472,0.29601 99.20691,0.29601 C153.88131,0.29601 198.22572,44.62755 198.22572,99.29634 L198.22572,99.29634 Z" id="Shape" fill="#FF3C32"></path>
                    <path d="M144.71028,147.51396 C139.7814,154.70169 131.7723,162.30027 121.29876,162.30027 C114.31629,162.30027 105.48582,158.8092 103.22664,146.28174 L101.78916,146.28174 C96.24417,156.13917 86.18148,162.30027 75.50268,162.30027 C64.61829,162.30027 57.2253,154.70202 57.2253,145.87122 C57.2253,137.24601 63.59166,131.90661 103.22664,117.53115 L103.22664,107.46813 C103.22664,95.14626 97.47639,89.39601 86.79759,89.39601 C77.76153,89.39601 67.69884,94.1193 60.30552,102.12873 L57.43056,99.66429 C65.23407,86.31546 82.0743,72.55611 100.96779,72.55611 C114.31629,72.55611 127.87038,78.92247 127.87038,98.84259 L127.87038,138.68316 C127.87038,144.43341 129.30786,148.13007 134.03115,148.13007 C136.70085,148.13007 139.57614,146.89785 142.24584,144.84426 L144.71028,147.51396 L144.71028,147.51396 Z M64.61829,46.88574 C64.61829,39.28716 70.36854,33.12639 78.37764,33.12639 C86.38707,33.12639 91.93173,39.28716 91.93173,46.88574 C91.93173,54.48432 86.38674,60.64509 78.37764,60.64509 C70.36854,60.64476 64.61829,54.48432 64.61829,46.88574 L64.61829,46.88574 Z M103.22664,132.3168 L103.22664,124.3077 C83.10093,131.90595 80.63649,136.01346 80.63649,140.53149 C80.63649,144.63867 83.9223,147.3087 88.44033,147.3087 C95.01228,147.3087 103.22664,141.1476 103.22664,132.3168 L103.22664,132.3168 Z M104.2536,46.88574 C104.2536,39.28716 109.79826,33.12639 117.80736,33.12639 C125.81679,33.12639 131.56671,39.28716 131.56671,46.88574 C131.56671,54.48432 125.81646,60.64509 117.80736,60.64509 C109.79826,60.64476 104.2536,54.48432 104.2536,46.88574 L104.2536,46.88574 Z" id="Shape" fill="#000000"></path>
                </g>
                <g id="ffj" transform="translate(1257.300000, 0.000000)" sketch:type="MSShapeGroup">
                    <path d="M198.24816,99.29667 C198.24816,153.97602 153.90375,198.29667 99.22935,198.29667 C44.56716,198.29667 0.22407,153.97569 0.22407,99.29667 C0.22407,44.62755 44.56716,0.29667 99.22935,0.29667 C153.90375,0.29667 198.24816,44.62788 198.24816,99.29667 L198.24816,99.29667 Z" id="Shape" fill="#FF3C32"></path>
                    <path d="M112.19538,153.10845 L114.52254,153.10845 C118.30434,161.5449 123.68664,168.09045 129.06828,168.09045 C132.99561,168.09045 135.75936,165.76329 135.75936,159.07221 C135.75936,154.56309 133.72293,147.72648 128.63202,139.87182 L128.63202,85.47066 L102.88608,85.47066 L102.88608,128.23536 C102.88608,133.03554 103.17681,134.92644 111.75912,136.96287 L111.75912,139.43556 L76.99461,139.43556 L76.99461,136.96287 C84.55821,134.92644 85.43106,133.03554 85.43106,128.23536 L85.43106,85.47066 L59.97618,85.47066 L59.97618,128.23536 C59.97618,133.03554 60.41244,134.92644 67.97637,136.96287 L67.97637,139.43556 L34.08471,139.43556 L34.08471,136.96287 C41.79384,134.92644 42.66669,133.03554 42.66669,128.23536 L42.66669,85.47066 L32.63007,85.47066 L32.63007,80.52528 L42.66669,80.52528 L39.75774,69.03402 C33.93951,45.47004 52.99437,36.01521 69.43101,36.01521 C76.41315,36.01521 84.55854,37.61538 91.97694,41.54271 C97.9407,37.76091 105.3591,36.01521 112.63197,36.01521 C122.52306,36.01521 134.45058,38.19717 144.05061,44.0154 L136.34148,61.17936 L133.86879,61.17936 C124.85022,48.08826 117.43215,41.39718 109.72269,41.39718 C100.99518,41.39718 93.28605,47.21541 97.35891,61.47042 L102.88641,80.52528 L133.14147,80.52528 L143.61435,79.07064 L146.08704,79.07064 L146.08704,138.41718 C148.41453,142.9263 150.01437,147.87201 150.01437,152.96292 C150.01437,166.49061 138.23205,173.47242 127.17738,173.47242 C120.4863,173.47242 111.90432,171.58152 105.6495,166.63614 L112.19538,153.10845 L112.19538,153.10845 Z M59.97618,80.52528 L85.43106,80.52528 L82.52211,69.03402 C80.77641,62.05188 81.213,56.37918 83.1039,51.72453 C77.5764,43.43328 71.9037,41.39685 66.52173,41.39685 C58.08528,41.39685 50.52135,47.21508 54.59421,61.47009 L59.97618,80.52528 L59.97618,80.52528 Z" id="Shape" fill="#000000"></path>
                </g>
                <g id="agag" transform="translate(1466.850000, 0.000000)" sketch:type="MSShapeGroup">
                    <path d="M198.2706,99.29634 C198.2706,153.97569 153.92619,198.29667 99.25179,198.29667 C44.5896,198.29667 0.24651,153.97569 0.24651,99.29634 C0.24651,44.62755 44.5896,0.29601 99.25179,0.29601 C153.92619,0.29601 198.2706,44.62755 198.2706,99.29634 L198.2706,99.29634 Z" id="Shape" fill="#FF3C32"></path>
                    <path d="M95.92935,70.89291 C89.87583,78.177 81.77103,83.61474 75.51258,83.61474 C71.51133,83.61474 68.12553,80.94735 70.48536,74.48364 L73.66623,66.37851 L72.84519,66.37851 C67.8183,76.12506 60.43125,83.61441 53.86491,83.61441 C49.24821,83.61441 46.47786,79.81842 46.47786,74.17542 C46.47786,58.68357 61.35426,38.2668 77.66748,38.2668 C81.15558,38.2668 84.13086,39.19014 85.97754,40.93419 L91.10739,38.2668 L92.9544,38.2668 L83.31015,72.12348 C82.6947,74.38068 83.20752,75.71421 84.74664,75.71421 C87.3114,75.71421 91.31265,72.94419 94.59582,69.55839 L95.92935,70.89291 L95.92935,70.89291 Z M78.89838,44.83347 C78.17997,42.06345 76.94907,41.14011 75.20502,41.14011 C65.76603,41.14011 58.78983,62.68548 58.78983,71.81625 C58.78983,73.25274 58.99476,76.12539 61.14933,76.12539 C64.12461,76.12539 72.53763,63.60849 77.35926,51.29718 L78.89838,44.83347 L78.89838,44.83347 Z" id="Shape" fill="#000000"></path>
                    <path d="M106.49793,79.51086 C103.72758,79.10034 100.64967,78.69015 97.05861,78.48489 L96.75105,76.74084 L105.77919,69.86694 C125.9907,71.30343 132.55671,77.45925 132.55671,84.84597 C132.55671,96.13164 120.14277,105.98082 104.75355,105.98082 C97.57143,105.98082 90.28701,103.41606 90.28701,96.74709 C90.28734,91.71987 94.18596,85.97457 106.49793,79.51086 L106.49793,79.51086 Z M109.98603,80.12664 C102.29109,85.76964 100.85493,92.23302 100.85493,95.51619 C100.85493,99.51744 103.93251,102.80061 108.13902,102.80061 C116.24448,102.80061 122.70753,96.2346 122.70753,90.18108 C122.70786,86.28213 120.04047,82.38351 109.98603,80.12664 L109.98603,80.12664 Z M136.1481,40.01151 C139.12338,41.55063 140.96973,44.11539 140.96973,47.80875 C140.96973,60.12039 128.55546,69.66168 117.16749,69.66168 C109.16499,69.66168 103.41936,66.6864 103.41936,60.12006 C103.41936,47.80842 115.93626,38.26713 127.22193,38.26713 C129.3765,38.26713 131.42811,38.47239 133.27512,38.98521 L138.5076,28.41795 L139.94376,28.41795 L146.71536,35.18922 L136.1481,40.01151 L136.1481,40.01151 Z M129.47913,48.73209 C129.47913,44.9361 128.45316,41.14011 125.06736,41.14011 C118.50168,41.14011 114.91062,52.9386 114.91062,59.19705 C114.91062,62.99304 115.93626,66.78903 119.32206,66.78903 C125.8884,66.78903 129.47913,54.99054 129.47913,48.73209 L129.47913,48.73209 Z" id="Shape" fill="#000000"></path>
                    <path d="M92.13303,138.51057 C86.07984,145.79499 77.97471,151.2324 71.71626,151.2324 C67.71501,151.2324 64.73973,148.35975 66.99693,143.12727 L67.81764,141.17796 L66.99693,141.17796 C61.96971,148.25712 55.81389,151.2324 51.50508,151.2324 C47.50383,151.2324 45.45156,148.87257 45.45156,145.79466 C45.45156,141.89604 48.73473,138.30498 70.17747,129.99492 L72.33204,122.40294 C74.17872,115.93956 72.12678,113.16921 67.81764,113.16921 C63.30324,113.16921 58.37865,116.65764 53.76195,121.37697 L52.42809,120.04311 C57.35268,113.27184 67.09923,105.88479 76.23033,105.88479 C82.07859,105.88479 88.33704,109.06533 85.36143,119.32503 L79.5135,139.74147 C78.89805,141.99867 79.41087,143.33253 80.94999,143.33253 C83.51475,143.33253 87.516,140.56218 90.7995,137.17671 L92.13303,138.51057 L92.13303,138.51057 Z M69.25413,132.9702 C61.04637,135.74022 57.04512,138.81813 57.04512,140.9727 C57.04512,142.40919 58.17372,143.33253 59.9181,143.33253 C62.58516,143.33253 66.99693,139.33128 69.25413,132.9702 L69.25413,132.9702 Z" id="Shape" fill="#000000"></path>
                    <path d="M99.8283,156.36225 C99.41811,163.33878 101.36742,170.72583 106.08675,170.72583 C112.96065,170.72583 121.06611,156.05469 122.91279,133.99617 L122.09175,133.99617 C117.06486,143.74272 109.67781,151.2324 103.11147,151.2324 C98.49477,151.2324 95.72442,147.43641 95.72442,141.79341 C95.72442,126.30123 110.60082,105.88479 126.91404,105.88479 C130.40214,105.88479 133.37742,106.80813 135.2241,108.55218 L140.35395,105.88479 L142.20096,105.88479 L134.19846,133.99617 C133.06986,164.05686 113.06361,173.59848 103.62495,173.59848 C96.2379,173.59848 90.90312,170.11005 89.46663,163.54404 L97.98228,156.36225 L99.8283,156.36225 L99.8283,156.36225 Z M128.14494,112.4508 C127.42653,109.68078 126.19563,108.75744 124.45158,108.75744 C115.01259,108.75744 108.03639,130.30248 108.03639,139.43358 C108.03639,140.87007 108.24132,143.74272 110.39589,143.74272 C113.37117,143.74272 121.78419,131.22615 126.60582,118.91451 L128.14494,112.4508 L128.14494,112.4508 Z" id="Shape" fill="#000000"></path>
                </g>
                <g id="Q" transform="translate(1676.400000, 0.000000)" sketch:type="MSShapeGroup">
                    <path d="M198.11616,99.29634 C198.11616,153.97569 153.77175,198.29667 99.09735,198.29667 C44.43516,198.29667 0.09207,153.97569 0.09207,99.29634 C0.09207,44.62755 44.43516,0.29601 99.09735,0.29601 C153.77175,0.29601 198.11616,44.62755 198.11616,99.29634 L198.11616,99.29634 Z" id="Shape" fill="#FF3C32"></path>
                    <path d="M50.50617,105.45579 C50.50617,71.17803 84.47736,36.135 112.17558,36.135 C130.38564,36.135 142.93356,48.22389 142.93356,70.10685 C142.93356,104.38461 108.96204,139.42731 81.26415,139.42731 C63.05376,139.42764 50.50617,127.33875 50.50617,105.45579 L50.50617,105.45579 Z M129.62037,72.09642 C129.62037,56.33463 124.26447,41.49123 108.19677,41.49123 C84.17145,41.49123 63.81903,71.33115 63.81903,103.61967 C63.81903,119.38146 69.02214,134.07174 85.08951,134.07174 C108.96204,134.07174 129.62037,104.38461 129.62037,72.09642 L129.62037,72.09642 Z M134.211,149.22138 C130.07907,159.32103 122.42802,168.65574 111.86934,168.65574 C101.46345,168.65574 81.11103,158.09706 72.8475,151.05783 L80.80479,142.64151 L82.94715,142.64151 C91.36347,149.83353 107.73741,159.32136 117.37803,159.32136 C123.19296,159.32136 127.93671,155.80158 132.22143,148.1502 L134.211,149.22138 L134.211,149.22138 Z" id="Shape" fill="#000000"></path>
                </g>
                <g id="3/4" transform="translate(1885.950000, 0.000000)" sketch:type="MSShapeGroup">
                    <path d="M198.1386,99.29634 C198.1386,153.97569 153.79419,198.29667 99.11979,198.29667 C44.4576,198.29667 0.11451,153.97569 0.11451,99.29634 C0.11451,44.62755 44.4576,0.29601 99.11979,0.29601 C153.79419,0.29601 198.1386,44.62755 198.1386,99.29634 L198.1386,99.29634 Z" id="Shape" fill="#FF3C32"></path>
                    <path d="M54.66615,89.44485 L56.0736,89.44485 C60.29496,97.46583 65.9241,101.96901 72.53763,101.96901 C77.18139,101.96901 82.38813,99.99891 82.38813,92.4 C82.38813,84.94167 75.63336,81.28296 66.90915,79.59435 L66.90915,78.04665 L80.41836,63.97479 L80.41836,63.13032 L70.42728,63.13032 C64.79847,63.13032 60.71769,63.6933 56.21484,70.86981 L54.66714,70.86981 L54.66714,53.42073 L93.36525,53.42073 L93.36525,54.96876 L76.05642,73.82496 C87.03288,75.23208 94.77237,80.29824 94.77237,88.74129 C94.77237,99.71742 82.67061,105.7683 71.69415,105.7683 C66.34716,105.7683 59.73297,104.50209 54.66714,101.82843 L54.66714,89.44485 L54.66615,89.44485 Z M72.11523,145.59204 L132.62436,48.7773 L138.11259,52.15452 L77.60346,148.96926 L72.11523,145.59204 L72.11523,145.59204 Z M117.84927,143.90343 L117.84927,142.35573 C124.60371,140.94828 125.72934,139.68207 125.72934,135.46038 L125.72934,133.49028 L98.57067,133.49028 L98.57067,131.94225 L127.98093,92.96298 L137.54994,92.96298 L137.54994,123.78036 L147.11862,123.78036 L147.11862,133.48995 L137.54994,133.48995 L137.54994,135.46005 C137.54994,139.68174 138.67524,140.94795 145.28943,142.3554 L145.28943,143.9031 L117.84927,143.9031 L117.84927,143.90343 Z M125.72934,102.53199 L125.02578,102.53199 L109.26531,123.07713 L109.26531,123.78069 L125.72934,123.78069 L125.72934,102.53199 L125.72934,102.53199 Z" id="Shape" fill="#000000"></path>
                </g>
                <g id="MCMXCIXVIII" transform="translate(2095.500000, 0.000000)" sketch:type="MSShapeGroup">
                    <path d="M198.16104,99.29667 C198.16104,153.97602 153.81663,198.29667 99.14223,198.29667 C44.48004,198.29667 0.13695,153.97569 0.13695,99.29667 C0.13695,44.62755 44.48004,0.29667 99.14223,0.29667 C153.81663,0.29667 198.16104,44.62788 198.16104,99.29667 L198.16104,99.29667 Z" id="Shape" fill="#FF3C32"></path>
                    <path d="M64.07214,81.31332 L64.07214,80.51835 C68.2176,79.5531 69.01257,78.81489 68.89905,76.65702 L67.99023,62.06343 L67.47906,50.70648 L67.1385,50.70648 L53.85105,82.16505 L53.05608,82.16505 L38.12193,51.8991 L37.78104,51.8991 L37.38339,63.25605 L36.81546,74.95356 C36.64518,78.81489 38.91657,79.5531 43.06203,80.51835 L43.06203,81.31332 L28.80933,81.31332 L28.80933,80.51835 C32.38686,79.5531 34.26093,78.81489 34.48764,74.95356 L35.73702,51.16089 C35.96406,47.29956 33.63624,46.56135 30.05838,45.5961 L30.05838,44.80113 L40.2798,44.80113 L54.75987,74.15859 L55.10043,74.15859 L67.25235,44.80113 L77.13255,44.80113 L77.13255,45.5961 C72.98709,46.56135 72.19245,47.29956 72.30597,49.45743 L73.78239,76.65702 C73.89624,78.81489 74.46384,79.5531 78.60897,80.51835 L78.60897,81.31332 L64.07214,81.31332 L64.07214,81.31332 Z" id="Shape" fill="#000000"></path>
                    <path d="M113.81469,78.87165 C109.44219,81.42684 104.50242,82.22181 100.58433,82.22181 C90.19263,82.22181 81.39087,75.74853 81.39087,63.36957 C81.39087,51.78558 90.36291,43.89264 101.83338,43.89264 C105.18354,43.89264 109.44219,44.51733 113.53089,45.93666 L113.53089,54.22725 L112.73559,54.22725 C110.12397,48.32157 106.3194,45.8799 101.15193,45.8799 C92.29341,45.8799 86.84214,52.97787 86.84214,62.29047 C86.84214,70.01313 90.70347,80.23422 101.20869,80.23422 C106.37583,80.23422 110.40744,77.05434 113.01972,70.58073 L113.81436,70.58073 L113.81436,78.87165 L113.81469,78.87165 Z" id="Shape" fill="#000000"></path>
                    <path d="M153.62028,81.31332 L153.62028,80.51835 C157.76541,79.5531 158.56071,78.81489 158.44653,76.65702 L157.53837,62.06343 L157.0272,50.70648 L156.68631,50.70648 L143.39919,82.16505 L142.60389,82.16505 L127.66941,51.8991 L127.32918,51.8991 L126.93153,63.25605 L126.3636,74.95356 C126.19332,78.81489 128.46471,79.5531 132.60984,80.51835 L132.60984,81.31332 L118.35747,81.31332 L118.35747,80.51835 C121.93467,79.5531 123.80907,78.81489 124.03578,74.95356 L125.28483,51.16089 C125.5122,47.29956 123.18372,46.56135 119.60652,45.5961 L119.60652,44.80113 L129.82761,44.80113 L144.30768,74.15859 L144.64857,74.15859 L156.80049,44.80113 L166.68036,44.80113 L166.68036,45.5961 C162.53523,46.56135 161.73993,47.29956 161.85411,49.45743 L163.3302,76.65702 C163.44372,78.81489 164.01132,79.5531 168.15711,80.51835 L168.15711,81.31332 L153.62028,81.31332 L153.62028,81.31332 Z" id="Shape" fill="#000000"></path>
                    <path d="M56.54847,123.00354 L56.54847,122.20857 C60.12633,121.24332 60.29628,120.10746 59.10399,118.34724 L51.15429,106.59297 L50.8134,106.59297 L43.99956,116.64378 C41.89845,119.82366 42.57957,121.24332 46.15743,122.20857 L46.15743,123.00354 L34.57311,123.00354 L34.57311,122.20857 C37.29891,121.24332 39.28617,119.82366 41.5008,116.64378 L49.79106,104.94627 L40.4217,91.14798 C39.22908,89.38776 38.43444,88.2519 34.85691,87.28665 L34.85691,86.49168 L49.05318,86.49168 L49.05318,87.28665 C45.47565,88.2519 45.30537,89.38776 46.49766,91.14798 L53.02803,100.91499 L53.36892,100.91499 L58.82019,92.85144 C60.92097,89.67156 60.23985,88.2519 56.66232,87.28665 L56.66232,86.49168 L68.24631,86.49168 L68.24631,87.28665 C65.52084,88.2519 63.53358,89.67156 61.31895,92.85144 L54.33417,102.61845 L65.18028,118.34757 C66.37257,120.10779 67.16721,121.24365 70.74507,122.2089 L70.74507,123.00387 L56.54847,123.00387 L56.54847,123.00354 Z" id="Shape" fill="#000000"></path>
                    <path d="M102.59964,120.56187 C98.22747,123.11706 93.28737,123.91203 89.36928,123.91203 C78.97758,123.91203 70.17582,117.43875 70.17582,105.05979 C70.17582,93.47547 79.14786,85.58286 90.61833,85.58286 C93.96849,85.58286 98.22747,86.20755 102.31584,87.62721 L102.31584,95.9178 L101.52054,95.9178 C98.90892,90.01212 95.10435,87.57045 89.93688,87.57045 C81.07836,87.57045 75.62709,94.66842 75.62709,103.98102 C75.62709,111.70368 79.48842,121.92477 89.99364,121.92477 C95.16078,121.92477 99.19239,118.74489 101.80467,112.27161 L102.59931,112.27161 L102.59931,120.56187 L102.59964,120.56187 Z" id="Shape" fill="#000000"></path>
                    <path d="M108.27729,123.00354 L108.27729,122.20857 C112.42275,121.24332 113.1042,120.50511 113.1042,118.34724 L113.1042,91.14765 C113.1042,88.98978 112.42308,88.25157 108.27729,87.28632 L108.27729,86.49135 L122.81412,86.49135 L122.81412,87.28632 C118.66899,88.25157 117.98787,88.98978 117.98787,91.14765 L117.98787,118.34724 C117.98787,120.50511 118.66899,121.24332 122.81412,122.20857 L122.81412,123.00354 L108.27729,123.00354 L108.27729,123.00354 Z" id="Shape" fill="#000000"></path>
                    <path d="M148.19706,123.00354 L148.19706,122.20857 C151.77426,121.24332 151.94421,120.10746 150.75192,118.34724 L142.80222,106.59297 L142.46133,106.59297 L135.64749,116.64378 C133.54638,119.82366 134.22816,121.24332 137.80536,122.20857 L137.80536,123.00354 L126.22104,123.00354 L126.22104,122.20857 C128.94684,121.24332 130.93443,119.82366 133.14906,116.64378 L141.43965,104.94627 L132.06996,91.14798 C130.87767,89.38776 130.08237,88.2519 126.50517,87.28665 L126.50517,86.49168 L140.70111,86.49168 L140.70111,87.28665 C137.12391,88.2519 136.9533,89.38776 138.14625,91.14798 L144.67596,100.91499 L145.01685,100.91499 L150.46845,92.85144 C152.5689,89.67156 151.88778,88.2519 148.31058,87.28665 L148.31058,86.49168 L159.8949,86.49168 L159.8949,87.28665 C157.1691,88.2519 155.18151,89.67156 152.96688,92.85144 L145.98276,102.61845 L156.82821,118.34757 C158.0205,120.10779 158.8158,121.24365 162.393,122.2089 L162.393,123.00387 L148.19706,123.00387 L148.19706,123.00354 Z" id="Shape" fill="#000000"></path>
                    <path d="M70.20486,165.54549 L55.72479,132.83787 C54.87273,130.85061 54.81597,129.94212 50.67117,128.97654 L50.67117,128.18157 L65.43471,128.18157 L65.43471,128.97654 C61.28958,129.94212 60.55137,130.85061 61.34634,132.83787 L71.68062,157.48227 L72.02151,157.48227 L80.82327,134.54133 C82.18584,130.96413 81.05031,129.94179 76.90518,128.97654 L76.90518,128.18157 L89.05677,128.18157 L89.05677,128.97654 C85.76337,129.94212 84.57075,130.96413 83.15109,134.54133 L70.99917,165.54549 L70.20486,165.54549 L70.20486,165.54549 Z" id="Shape" fill="#000000"></path>
                    <path d="M91.6113,164.69376 L91.6113,163.89879 C95.75676,162.93354 96.43788,162.19533 96.43788,160.03746 L96.43788,132.83787 C96.43788,130.68 95.75676,129.94212 91.6113,128.97654 L91.6113,128.18157 L106.14846,128.18157 L106.14846,128.97654 C102.003,129.94212 101.32155,130.68033 101.32155,132.83787 L101.32155,160.03746 C101.32155,162.19533 102.00267,162.93354 106.14846,163.89879 L106.14846,164.69376 L91.6113,164.69376 L91.6113,164.69376 Z" id="Shape" fill="#000000"></path>
                    <path d="M110.69058,164.69376 L110.69058,163.89879 C114.83604,162.93354 115.51749,162.19533 115.51749,160.03746 L115.51749,132.83787 C115.51749,130.68 114.83637,129.94212 110.69058,128.97654 L110.69058,128.18157 L125.22741,128.18157 L125.22741,128.97654 C121.08228,129.94212 120.40116,130.68033 120.40116,132.83787 L120.40116,160.03746 C120.40116,162.19533 121.08228,162.93354 125.22741,163.89879 L125.22741,164.69376 L110.69058,164.69376 L110.69058,164.69376 Z" id="Shape" fill="#000000"></path>
                    <path d="M129.76986,164.69376 L129.76986,163.89879 C133.91499,162.93354 134.59611,162.19533 134.59611,160.03746 L134.59611,132.83787 C134.59611,130.68 133.91499,129.94212 129.76986,128.97654 L129.76986,128.18157 L144.30669,128.18157 L144.30669,128.97654 C140.16123,129.94212 139.47978,130.68033 139.47978,132.83787 L139.47978,160.03746 C139.47978,162.19533 140.1609,162.93354 144.30669,163.89879 L144.30669,164.69376 L129.76986,164.69376 L129.76986,164.69376 Z" id="Shape" fill="#000000"></path>
                </g>
                <g id="edAwards" transform="translate(2306.370000, 0.330000)" sketch:type="MSShapeGroup">
                    <path d="M198,99 C198,153.678947 153.660689,198 98.9931631,198 C44.3376016,198 -2.84217094e-14,153.678947 -2.84217094e-14,99 C-2.84217094e-14,44.3313093 44.3376016,-1.42108547e-14 98.9931631,-1.42108547e-14 C153.660119,0.000569803849 198,44.3318791 198,99 L198,99 Z" id="Shape" fill="#FF3C32"></path>
                    <path d="M51.15,58.7740714 L67.4472641,58.74 L67.4569642,63.3890364 L57.1320922,63.4106149 L57.143504,68.900078 L66.6957937,68.8802031 L66.7049232,73.2135115 L57.1532041,73.2333865 L57.1657571,78.8290387 L68.2997293,78.8051887 L68.31,83.4547929 L51.2024945,83.49 L51.15,58.7740714 L51.15,58.7740714 Z" id="Shape" fill="#FFFFFF"></path>
                    <path d="M71.28,58.7588182 L80.1700571,58.7400674 C88.7798203,58.7218848 94.6933952,62.3811338 94.7099503,70.9877555 C94.7287888,79.5585802 89.3952112,83.4519302 80.4332252,83.470681 L71.3330903,83.49 L71.28,58.7588182 L71.28,58.7588182 Z M80.8117077,78.8182073 C86.5386103,78.806275 88.747852,76.212413 88.7381473,71.3502711 C88.72673,66.0347006 86.0510928,63.3806087 80.0735812,63.3931093 L77.2295393,63.3987913 L77.2615077,78.8261622 L80.8117077,78.8182073 L80.8117077,78.8182073 Z" id="Shape" fill="#FFFFFF"></path>
                    <path d="M33.1875505,88.4558992 L40.8232323,88.44 L49.17,113.136624 L43.0363175,113.149684 L40.683959,105.918371 L32.3541758,105.935406 L29.6847727,113.17694 L23.76,113.19 L33.1875505,88.4558992 L33.1875505,88.4558992 Z M39.2810363,101.622738 L36.7865739,92.1172662 L33.9116579,101.634095 L39.2810363,101.622738 L39.2810363,101.622738 Z" id="Shape" fill="#231F20"></path>
                    <path d="M47.85,88.516002 L53.6474291,88.5040913 L57.5578541,109.410318 L63.2907849,94.4895337 L61.1697604,88.4887774 L67.107031,88.4757323 L73.6521841,109.169266 L78.4575947,88.4519108 L84.15,88.44 L77.3856668,113.140088 L69.8656187,113.155969 L65.5505095,100.524888 L60.9397354,113.174686 L53.2461696,113.19 L47.85,88.516002 L47.85,88.516002 Z" id="Shape" fill="#231F20"></path>
                    <path d="M91.2706556,88.4564671 L98.9047531,88.44 L107.25,113.136624 L101.118036,113.149684 L98.7660337,105.917803 L90.435508,105.935406 L87.7669994,113.17694 L81.84,113.19 L91.2706556,88.4564671 L91.2706556,88.4564671 Z M97.3635521,101.62217 L94.8688674,92.1166983 L91.9953937,101.634095 L97.3635521,101.62217 L97.3635521,101.62217 Z" id="Shape" fill="#231F20"></path>
                    <path d="M121.246452,107.786823 L118.430426,104.549804 C118.008336,104.585488 117.550311,104.586621 117.094568,104.587753 L115.270453,104.591718 L115.287565,113.100292 L109.281906,113.112187 L109.23,88.4598659 L118.886169,88.4400416 C124.470879,88.4281471 128.480736,90.9650863 128.491574,96.475665 C128.497848,99.2278392 127.166553,101.63677 124.502821,103.142848 L127.037074,105.857073 C128.409437,107.318971 129.9552,108.293191 132.66,108.984209 L131.33612,113.52 C126.489497,113.28664 123.852004,110.780287 121.246452,107.786823 L121.246452,107.786823 Z M117.298198,100.438818 C120.844326,100.430889 122.350732,98.962194 122.344457,96.6251966 C122.341035,94.1494294 121.322314,93.1061067 118.125266,93.1123372 L115.247067,93.1191341 L115.261897,100.442783 L117.298198,100.438818 L117.298198,100.438818 Z" id="Shape" fill="#231F20"></path>
                    <path d="M134.97,88.4588141 L143.861124,88.4400633 C152.471404,88.4224489 158.381695,92.0811302 158.399962,100.686617 C158.416515,109.25858 153.085038,113.151362 144.124844,113.170113 L135.021374,113.19 L134.97,88.4588141 L134.97,88.4588141 Z M144.502157,108.517638 C150.228644,108.505706 152.436584,105.912412 152.426309,101.049701 C152.415463,95.7341295 149.73945,93.0800372 143.767509,93.0931059 L140.92082,93.098788 L140.953357,108.525593 L144.502157,108.517638 L144.502157,108.517638 Z" id="Shape" fill="#231F20"></path>
                    <path d="M159.39,111.462544 L161.050919,107.201682 C163.248129,107.964737 164.851911,108.310549 167.568441,108.305447 C170.52879,108.299211 171.883661,107.388194 171.880267,105.889296 C171.871216,101.873337 160.174071,102.980503 160.155969,94.6016391 C160.146352,89.8572064 164.634113,87.788568 168.98667,87.7800644 C172.887793,87.7715609 174.769903,88.6060458 176.685956,89.4382632 L174.988832,93.5590997 C173.178567,93.0392473 171.679441,92.55511 169.169394,92.5602121 C166.697816,92.5658812 165.933544,93.5109128 165.935807,94.5562866 C165.942596,97.8369691 177.852446,97.8114584 177.869983,105.663667 C177.880732,111.074781 172.731657,113.178567 167.645943,113.189906 C163.607919,113.199543 161.238734,112.470502 159.39,111.462544 L159.39,111.462544 Z" id="Shape" fill="#231F20"></path>
                    <path d="M37.8871327,73.6040675 L43.1713731,80.8877521 L37.9092188,84.81 L32.560419,77.458858 L27.421154,84.4818597 L22.2745269,80.599629 L27.5848176,73.6246477 L19.14,70.6891073 L21.1577632,64.5922156 L29.484222,67.5975002 L29.4649675,58.7542918 L35.952617,58.74 L35.9713053,67.5832083 L44.2813411,64.8043063 L46.2,70.8851911 L37.8871327,73.6040675 Z" id="Shape" fill="#FFFFFF"></path>
                    <path d="M24.4286042,142.89 L24.42,138.930725 C27.0999147,136.435255 35.1717812,129.164059 35.1654715,125.798049 C35.1603089,123.413603 33.7807724,122.574947 31.7656738,122.578932 C29.3679761,122.584626 28.2368135,122.972355 26.8612922,123.538291 L25.0876842,119.474825 C26.8859575,118.488707 28.4387249,117.818579 32.3232246,117.810039 C39.6677511,117.795236 41.0535975,121.999901 41.0599072,125.504264 C41.0713794,130.62217 35.8543793,134.948107 31.9044879,138.213342 L41.899675,138.192276 L41.91,142.854131 L24.4286042,142.89 L24.4286042,142.89 Z" id="Shape" fill="#231F20"></path>
                    <path d="M52.7828242,143.219963 C44.7233382,143.237113 42.5836616,137.366424 42.570062,130.853726 C42.5564624,124.518825 44.7760368,117.828331 53.3245431,117.810037 C61.9042153,117.791743 63.3480436,124.545122 63.3599433,130.105955 C63.3741096,137.251514 60.7357797,143.20224 52.7828242,143.219963 L52.7828242,143.219963 Z M53.1222485,122.629959 C48.4490726,122.639678 48.4592723,127.28695 48.4660721,130.733671 C48.4740052,134.397064 48.7935967,138.408616 52.9448865,138.399469 C57.5166318,138.390322 57.4718663,134.02718 57.4650665,130.295757 C57.4582667,127.09086 57.5183318,122.621384 53.1222485,122.629959 L53.1222485,122.629959 Z" id="Shape" fill="#231F20"></path>
                    <path d="M68.0613259,142.56 L68.0203003,122.705592 L63.0391168,122.715793 L63.03,118.146083 L73.8675785,117.81 L73.92,142.548665 L68.0613259,142.56 L68.0613259,142.56 Z" id="Shape" fill="#231F20"></path>
                    <path d="M84.9816579,142.889891 C81.7479278,142.896694 79.6932855,142.585428 77.88,141.996347 L79.2620084,137.351167 C81.5964439,137.90623 82.9908875,137.970864 84.9358736,137.966896 C87.4749254,137.960659 88.8993267,136.702554 88.8965005,134.921703 C88.8902829,132.514918 87.7767628,131.608334 85.4457188,131.61287 C84.9940932,131.613437 84.5074227,131.615138 84.0179261,131.616272 C82.7653573,131.619106 81.269736,131.658227 78.7289884,131.907694 L78.7012917,117.841183 L93.351146,117.81 L93.3613203,122.41776 L84.3135459,122.435903 L84.3231549,127.147419 C84.9494393,127.110566 85.4033259,127.109999 85.9583902,127.107731 C91.2829379,127.096392 94.6998054,129.710687 94.7099796,134.561111 C94.7207192,139.900261 90.4802991,142.879118 84.9816579,142.889891 L84.9816579,142.889891 Z" id="Shape" fill="#231F20"></path>
                </g>
            </g>
            <g id="hrot" sketch:type="MSLayerGroup" transform="translate(0.660000, 407.220000)">
                <g id="Hmmmmmm" sketch:type="MSShapeGroup">
                    <path d="M198.11286,99.16401 C198.11286,153.84336 153.76845,198.16434 99.09405,198.16434 C44.43186,198.16434 0.08877,153.84336 0.08877,99.16401 C0.08877,44.49522 44.43186,0.16368 99.09405,0.16368 C153.76845,0.16368 198.11286,44.49522 198.11286,99.16401 L198.11286,99.16401 Z" id="Shape" fill="#0078FF"></path>
                    <path d="M152.92827,71.98389 L152.92827,61.19454 L139.53588,61.19454 L139.53588,71.98389 L130.78362,71.98389 L130.78362,43.69002 L139.53588,43.69002 L139.53588,53.83818 L152.92827,53.83818 L152.92827,43.69002 L161.68053,43.69002 L161.68053,71.98389 L152.92827,71.98389 L152.92827,71.98389 Z" id="Shape" fill="#000000"></path>
                    <path d="M65.21988,96.84675 L65.21988,85.00107 C65.21988,82.66203 63.67317,81.94527 62.42808,81.94527 C61.18332,81.94527 59.25909,82.66203 57.71238,83.71836 L57.71238,96.84675 L49.33731,96.84675 L49.33731,85.00107 C49.33731,82.66203 47.7906,81.94527 46.54551,81.94527 C45.30075,81.94527 43.37652,82.66203 41.82981,83.71836 L41.82981,96.84675 L33.45474,96.84675 L33.45474,75.72048 L41.82981,75.72048 L41.45262,78.66309 C44.39523,75.94686 47.48865,74.96577 50.01612,74.96577 C53.14749,74.96577 55.4862,76.2861 56.73129,78.88947 C60.73023,75.7581 63.37089,74.96577 65.89869,74.96577 C70.72758,74.96577 73.59462,78.21033 73.59462,83.71803 L73.59462,96.84642 L65.21988,96.84642 L65.21988,96.84675 Z" id="Shape" fill="#000000"></path>
                    <path d="M108.75447,96.84675 L108.75447,85.00107 C108.75447,82.66203 107.20776,81.94527 105.963,81.94527 C104.71791,81.94527 102.79401,82.66203 101.2473,83.71836 L101.2473,96.84675 L92.8719,96.84675 L92.8719,85.00107 C92.8719,82.66203 91.32519,81.94527 90.0801,81.94527 C88.83501,81.94527 86.91111,82.66203 85.3644,83.71836 L85.3644,96.84675 L76.98933,96.84675 L76.98933,75.72048 L85.3644,75.72048 L84.98721,78.66309 C87.92982,75.94686 91.02324,74.96577 93.55071,74.96577 C96.68208,74.96577 99.02079,76.2861 100.26588,78.88947 C104.26482,75.7581 106.90548,74.96577 109.43295,74.96577 C114.26184,74.96577 117.12888,78.21033 117.12888,83.71803 L117.12888,96.84642 L108.75447,96.84642 L108.75447,96.84675 Z" id="Shape" fill="#000000"></path>
                    <path d="M152.28873,96.84675 L152.28873,85.00107 C152.28873,82.66203 150.74169,81.94527 149.49693,81.94527 C148.25217,81.94527 146.32794,82.66203 144.78123,83.71836 L144.78123,96.84675 L136.40649,96.84675 L136.40649,85.00107 C136.40649,82.66203 134.85978,81.94527 133.61502,81.94527 C132.37026,81.94527 130.44603,82.66203 128.89932,83.71836 L128.89932,96.84675 L120.52425,96.84675 L120.52425,75.72048 L128.89932,75.72048 L128.52213,78.66309 C131.46474,75.94686 134.55816,74.96577 137.08563,74.96577 C140.217,74.96577 142.55571,76.2861 143.8008,78.88947 C147.79941,75.7581 150.4404,74.96577 152.96787,74.96577 C157.79676,74.96577 160.6638,78.21033 160.6638,83.71803 L160.6638,96.84642 L152.28873,96.84642 L152.28873,96.84675 Z" id="Shape" fill="#000000"></path>
                    <path d="M65.21988,121.70961 L65.21988,109.86393 C65.21988,107.52489 63.67317,106.80813 62.42808,106.80813 C61.18332,106.80813 59.25909,107.52489 57.71238,108.58122 L57.71238,121.70961 L49.33731,121.70961 L49.33731,109.86393 C49.33731,107.52489 47.7906,106.80813 46.54551,106.80813 C45.30075,106.80813 43.37652,107.52489 41.82981,108.58122 L41.82981,121.70961 L33.45474,121.70961 L33.45474,100.58334 L41.82981,100.58334 L41.45262,103.52595 C44.39523,100.80972 47.48865,99.82863 50.01612,99.82863 C53.14749,99.82863 55.4862,101.14896 56.73129,103.75233 C60.73023,100.62096 63.37089,99.82863 65.89869,99.82863 C70.72758,99.82863 73.59462,103.07319 73.59462,108.58089 L73.59462,121.70928 L65.21988,121.70928 L65.21988,121.70961 Z" id="Shape" fill="#000000"></path>
                    <path d="M108.75447,121.70961 L108.75447,109.86393 C108.75447,107.52489 107.20776,106.80813 105.963,106.80813 C104.71791,106.80813 102.79401,107.52489 101.2473,108.58122 L101.2473,121.70961 L92.8719,121.70961 L92.8719,109.86393 C92.8719,107.52489 91.32519,106.80813 90.0801,106.80813 C88.83501,106.80813 86.91111,107.52489 85.3644,108.58122 L85.3644,121.70961 L76.98933,121.70961 L76.98933,100.58334 L85.3644,100.58334 L84.98721,103.52595 C87.92982,100.80972 91.02324,99.82863 93.55071,99.82863 C96.68208,99.82863 99.02079,101.14896 100.26588,103.75233 C104.26482,100.62096 106.90548,99.82863 109.43295,99.82863 C114.26184,99.82863 117.12888,103.07319 117.12888,108.58089 L117.12888,121.70928 L108.75447,121.70928 L108.75447,121.70961 Z" id="Shape" fill="#000000"></path>
                    <path d="M65.21988,146.57247 L65.21988,134.72679 C65.21988,132.38775 63.67317,131.67099 62.42808,131.67099 C61.18332,131.67099 59.25909,132.38775 57.71238,133.44408 L57.71238,146.57247 L49.33731,146.57247 L49.33731,134.72679 C49.33731,132.38775 47.7906,131.67099 46.54551,131.67099 C45.30075,131.67099 43.37652,132.38775 41.82981,133.44408 L41.82981,146.57247 L33.45474,146.57247 L33.45474,125.4462 L41.82981,125.4462 L41.45262,128.38881 C44.39523,125.67258 47.48865,124.69149 50.01612,124.69149 C53.14749,124.69149 55.4862,126.01182 56.73129,128.61519 C60.73023,125.48382 63.37089,124.69149 65.89869,124.69149 C70.72758,124.69149 73.59462,127.93605 73.59462,133.44375 L73.59462,146.57214 L65.21988,146.57214 L65.21988,146.57247 Z" id="Shape" fill="#000000"></path>
                </g>
                <g id="Aa" transform="translate(209.550000, 0.000000)" sketch:type="MSShapeGroup">
                    <path d="M198.1353,99.16401 C198.1353,153.84336 153.79089,198.16434 99.11649,198.16434 C44.4543,198.16434 0.11121,153.84336 0.11121,99.16401 C0.11121,44.49522 44.4543,0.16368 99.11649,0.16368 C153.79089,0.16368 198.1353,44.49522 198.1353,99.16401 L198.1353,99.16401 Z" id="Shape" fill="#0078FF"></path>
                    <path d="M103.18836,130.06818 L91.66674,108.7251 L41.23647,108.7251 L29.71485,130.06818 L26.78709,130.06818 L65.12913,59.23896 L67.96251,59.23896 L106.30455,130.06818 L103.18836,130.06818 L103.18836,130.06818 Z M42.4644,106.45866 L90.43947,106.45866 L66.4521,61.97763 L42.4644,106.45866 L42.4644,106.45866 Z" id="Shape" fill="#000000"></path>
                    <path d="M159.5682,130.06818 L159.66291,121.75746 C150.40806,128.55711 138.50859,131.95677 129.82002,131.95677 C121.88715,131.95677 114.99312,129.02901 114.99312,121.37961 C114.99312,109.66923 133.1253,104.66412 159.5682,104.66412 L159.5682,93.52035 C159.5682,84.83178 153.05202,79.16535 140.58627,79.16535 C134.82546,79.16535 123.96516,81.05427 117.16518,84.54831 L117.35427,82.09278 C124.15392,78.69312 134.82546,76.99296 140.77503,76.99296 C155.1297,76.99296 162.21282,83.50947 162.21282,93.6144 L162.21282,130.06785 L159.5682,130.06785 L159.5682,130.06818 Z M159.5682,106.64742 C135.48645,106.64742 117.63741,110.80278 117.63741,121.28523 C117.63741,128.08488 123.87045,129.9738 130.95324,129.9738 C138.88611,129.9738 150.78558,126.29067 159.5682,119.68011 L159.5682,106.64742 L159.5682,106.64742 Z" id="Shape" fill="#000000"></path>
                </g>
                <g id="365" transform="translate(419.100000, 0.000000)" sketch:type="MSShapeGroup">
                    <path d="M198.15807,99.16401 C198.15807,153.84336 153.81366,198.16434 99.13926,198.16434 C44.47707,198.16434 0.13398,153.84336 0.13398,99.16401 C0.13398,44.49522 44.47707,0.16368 99.13926,0.16368 C153.81366,0.16368 198.15807,44.49522 198.15807,99.16401 L198.15807,99.16401 Z" id="Shape" fill="#0078FF"></path>
                    <path d="M40.58736,93.85761 C46.52736,96.6669 54.55428,98.67363 61.21665,98.67363 C70.60812,98.67363 75.58485,94.82088 75.58485,90.00453 C75.58485,85.99107 70.28703,83.74344 58.40736,83.74344 L53.35044,83.74344 L55.1166,73.6296 L75.50499,59.50197 L47.33058,59.50197 L49.33731,47.46159 L96.77646,47.46159 L94.93044,58.61889 L71.73276,74.03055 C85.13769,75.55581 90.2748,81.41529 90.2748,88.88055 C90.2748,102.76728 78.3948,110.63349 59.85276,110.63349 C53.43129,110.63349 46.20693,109.59003 39.22347,107.18202 L40.58736,93.85761 L40.58736,93.85761 Z" id="Shape" fill="#000000"></path>
                    <path d="M151.52016,50.91372 C146.30253,48.5859 139.80054,47.22135 134.02158,47.22135 C121.82049,47.22135 115.23864,54.20481 113.0712,64.23846 C119.0112,61.26846 127.03812,59.34225 132.65703,59.34225 C144.13542,59.34225 150.79779,64.72026 150.79779,74.43282 C150.79779,89.12211 138.51651,98.59377 120.53613,98.59377 C106.00755,98.59377 96.77646,88.88121 96.77646,74.27211 C96.77646,53.40192 111.78684,35.18097 133.86087,35.18097 C140.12196,35.18097 147.7476,36.30462 153.60708,38.79315 L151.52016,50.91372 L151.52016,50.91372 Z M112.18812,73.06794 C112.26831,82.53993 117.00414,87.51666 123.82722,87.51666 C131.37234,87.51666 135.78741,83.58339 135.78741,77.5632 C135.78741,72.66699 131.61324,70.17846 124.87068,70.17846 C121.33869,70.17846 116.2821,71.22192 112.18812,73.06794 L112.18812,73.06794 Z" id="Shape" fill="#000000"></path>
                    <path d="M70.84869,155.4993 C76.78869,158.30859 84.81561,160.31532 91.47798,160.31532 C100.78926,160.31532 104.40144,155.90058 104.40144,150.76347 C104.40144,146.34873 99.90618,144.02091 89.71215,144.02091 L74.30049,144.02091 L80.40087,109.10361 L123.74637,109.10361 L121.65945,121.14399 L91.15722,121.14399 L88.90959,133.90674 L98.54196,133.90674 C111.94689,133.90674 119.09106,139.44546 119.09106,149.23821 C119.09106,163.04442 108.57594,172.27551 90.11376,172.27551 C83.69229,172.27551 75.82575,171.23205 69.48447,168.82404 L70.84869,155.4993 L70.84869,155.4993 Z" id="Shape" fill="#000000"></path>
                </g>
                <g id="CE" transform="translate(628.650000, 0.000000)" sketch:type="MSShapeGroup">
                    <path d="M198.18051,99.16401 C198.18051,153.84336 153.8361,198.16434 99.1617,198.16434 C44.49951,198.16434 0.15642,153.84336 0.15642,99.16401 C0.15642,44.49522 44.49951,0.16368 99.1617,0.16368 C153.8361,0.16368 198.18051,44.49522 198.18051,99.16401 L198.18051,99.16401 Z" id="Shape" fill="#0078FF"></path>
                    <path d="M70.83714,133.37181 C46.86396,133.37181 29.49738,120.91332 29.49738,97.97799 C29.49738,75.04266 46.86396,62.58417 70.83714,62.58417 L156.72624,62.58417 L156.72624,63.05607 L100.8513,63.05607 L100.8513,97.03419 L152.00724,97.03419 L152.00724,97.50609 L100.8513,97.50609 L100.8513,132.89991 L156.72624,132.89991 L156.72624,133.37181 L70.83714,133.37181 L70.83714,133.37181 Z M100.28502,63.05607 L70.83747,63.05607 C47.24181,63.05607 30.06366,75.42051 30.06366,97.97799 C30.06366,120.53547 47.24148,132.89991 70.83747,132.89991 L100.28502,132.89991 L100.28502,63.05607 L100.28502,63.05607 Z" id="Shape" fill="#000000"></path>
                </g>
                <g id="ett" transform="translate(838.200000, 1.320000)" sketch:type="MSShapeGroup">
                    <path d="M198,99 C198,153.678947 153.661259,198 98.9931631,198 C44.3376016,198 0,153.678947 0,99 C0,44.3313093 44.3376016,-1.42108547e-14 98.9931631,-1.42108547e-14 C153.661259,0.000569803849 198,44.3318791 198,99 L198,99 Z" id="Shape" fill="#0078FF"></path>
                    <path d="M123.019379,82.8758358 C115.535077,85.8903802 103.477351,87.45 96.8248904,87.45 C74.2684303,87.45 61.38,75.2876964 61.38,56.265 C61.38,37.2423036 75.3079484,25.08 94.7464233,25.08 C117.510559,25.08 131.334954,37.2423036 125.306091,63.1253927 L85.0789626,63.1253927 C87.3662436,67.3877467 92.0437902,69.7781017 99.9434444,69.7781017 C107.738976,69.7781017 118.029465,68.530292 124.682494,66.0358107 L123.019379,82.8758358 L123.019379,82.8758358 Z M84.2476896,49.4046073 L103.269675,49.4046073 C103.893272,45.5587588 101.190638,41.7123414 94.7464233,41.7123414 C89.3411572,41.7129104 85.7025596,44.7268857 84.2476896,49.4046073 L84.2476896,49.4046073 Z" id="Shape" fill="#000000"></path>
                    <path d="M73.9424523,87.12 L73.9424523,104.847364 L107.399057,104.847364 L130.53679,87.12 L130.53679,104.847364 L157.74,104.847364 L157.74,124.139864 L130.53679,124.139864 L130.53679,136.235136 C130.53679,143.430652 134.392889,146.038071 140.855662,146.038071 C146.483204,146.038071 153.154215,143.847908 157.74,141.136603 L156.176794,160.219619 C149.818995,163.347608 140.959496,165.33 132.517612,165.33 C116.988243,165.33 107.399628,156.882146 107.399628,141.032147 L107.399628,124.139864 L73.9430228,124.139864 L73.9430228,136.235136 C73.9430228,143.430652 77.7991215,146.038071 84.2613243,146.038071 C89.889437,146.038071 96.5598772,143.847908 101.145662,141.136603 L99.582456,160.219619 C93.2246571,163.347608 84.3651577,165.33 75.9227036,165.33 C60.3933346,165.33 50.8047194,156.882146 50.8047194,141.032147 L50.8047194,124.139864 L38.61,124.139864 L38.61,104.847364 L50.8047194,104.847364 L73.9424523,87.12 L73.9424523,87.12 Z" id="Shape" fill="#000000"></path>
                </g>
                <g id="arr" transform="translate(1047.420000, 0.000000)" sketch:type="MSShapeGroup">
                    <path d="M198.22572,99.16368 C198.22572,153.84336 153.88131,198.16434 99.20691,198.16434 C44.54472,198.16434 0.20163,153.84336 0.20163,99.16368 C0.20163,44.49489 44.54472,0.16335 99.20691,0.16335 C153.88131,0.16335 198.22572,44.49489 198.22572,99.16368 L198.22572,99.16368 Z" id="Shape" fill="#0078FF"></path>
                    <path d="M144.46245,96.32832 L122.49699,69.80292 L104.25591,69.80292 L126.29727,96.32832 L121.05291,96.32832 L99.08745,69.80292 L57.43716,69.80292 L79.47852,96.32832 L74.23416,96.32832 L50.90085,67.82655 L74.23416,39.32478 L79.47852,39.32478 L57.51306,65.85018 L99.16335,65.85018 L121.05258,39.32478 L126.29694,39.32478 L104.33181,65.85018 L122.57289,65.85018 L144.46212,39.32478 L149.70648,39.32478 L126.29694,67.82655 L149.70648,96.32832 L144.46245,96.32832 L144.46245,96.32832 Z" id="Shape" fill="#000000"></path>
                    <path d="M121.12914,163.62951 L143.09427,137.10411 L101.44398,137.10411 L79.47852,163.62951 L74.31006,163.62951 L96.27552,137.10411 L78.03444,137.10411 L56.06898,163.62951 L50.90052,163.62951 L74.23383,135.12774 L50.90052,106.62597 L56.06898,106.62597 L78.03444,133.15137 L96.19929,133.15137 L74.31006,106.62597 L79.47852,106.62597 L101.44398,133.15137 L143.01837,133.15137 L121.12914,106.62597 L126.29727,106.62597 L149.70681,135.12774 L126.29727,163.62951 L121.12914,163.62951 L121.12914,163.62951 Z" id="Shape" fill="#000000"></path>
                </g>
                <g id="goo" transform="translate(1256.970000, 0.000000)" sketch:type="MSShapeGroup">
                    <path d="M198.24816,99.16401 C198.24816,153.84336 153.90375,198.16434 99.22935,198.16434 C44.56716,198.16434 0.22407,153.84336 0.22407,99.16401 C0.22407,44.49522 44.56716,0.16368 99.22935,0.16368 C153.90375,0.16368 198.24816,44.49522 198.24816,99.16401 L198.24816,99.16401 Z" id="Shape" fill="#0078FF"></path>
                    <path d="M87.69057,57.11706 C88.66539,58.88949 89.19702,60.9279 89.19702,63.23196 C89.19702,73.86687 77.85327,78.47499 62.07828,78.47499 C56.84943,78.47499 52.06377,78.0318 47.98728,76.96854 C46.56927,78.12057 45.94887,79.45014 45.94887,80.77938 C45.94887,84.05859 48.9621,85.12185 52.50696,85.12185 L71.20641,85.12185 C82.72737,85.12185 91.41231,89.02113 91.41231,98.23803 C91.41231,109.3158 77.32131,115.43103 60.83748,115.43103 C55.077,115.43103 43.82202,114.81063 36.20034,112.24059 L35.40273,102.22608 C43.55604,105.50529 55.6974,106.56855 60.83748,106.56855 C73.15605,106.56855 80.60052,103.8213 80.60052,99.12408 C80.60052,95.31324 77.7645,93.3636 70.49757,93.3636 L50.8233,93.3636 C41.16354,93.3636 36.02313,89.37555 36.02313,83.26065 C36.02313,79.53858 38.50473,76.08216 40.986,74.13252 C36.82074,71.65092 34.42791,68.10606 34.42791,63.23196 C34.42791,52.50861 46.30329,47.90016 62.07828,47.90016 C67.57278,47.90016 72.53565,48.52056 76.70124,49.67259 L93.09663,49.67259 L93.09663,57.64869 L87.69057,57.11706 L87.69057,57.11706 Z M62.07861,55.25586 C52.41885,55.25586 45.86043,57.29427 45.86043,63.23196 C45.86043,69.08121 52.41852,71.11929 62.07861,71.11929 C71.64993,71.11929 78.20802,69.08088 78.20802,63.23196 C78.20802,57.29427 71.64993,55.25586 62.07861,55.25586 L62.07861,55.25586 Z" id="Shape" fill="#000000"></path>
                    <path d="M127.4823,100.27644 C110.11209,100.27644 98.50269,89.90751 98.50269,74.13252 C98.50269,58.26909 110.11242,47.90016 127.4823,47.90016 C144.94095,47.90016 156.55068,58.26909 156.55068,74.13252 C156.55068,89.90751 144.94095,100.27644 127.4823,100.27644 L127.4823,100.27644 Z M127.4823,57.11706 C116.67018,57.11706 109.58046,63.76392 109.58046,74.13252 C109.58046,84.41268 116.67018,91.05954 127.4823,91.05954 C138.38286,91.05954 145.47291,84.41268 145.47291,74.13252 C145.47258,63.76392 138.38286,57.11706 127.4823,57.11706 L127.4823,57.11706 Z" id="Shape" fill="#000000"></path>
                    <path d="M127.4823,159.34644 C110.11209,159.34644 98.50269,148.97751 98.50269,133.20252 C98.50269,117.33909 110.11242,106.97016 127.4823,106.97016 C144.94095,106.97016 156.55068,117.33909 156.55068,133.20252 C156.55068,148.97751 144.94095,159.34644 127.4823,159.34644 L127.4823,159.34644 Z M127.4823,116.18706 C116.67018,116.18706 109.58046,122.83392 109.58046,133.20252 C109.58046,143.48268 116.67018,150.12954 127.4823,150.12954 C138.38286,150.12954 145.47258,143.48268 145.47258,133.20252 C145.47258,122.83392 138.38286,116.18706 127.4823,116.18706 L127.4823,116.18706 Z" id="Shape" fill="#000000"></path>
                </g>
                <g id="Ř" transform="translate(1466.520000, 0.000000)" sketch:type="MSShapeGroup">
                    <path d="M198.2706,99.16368 C198.2706,153.84336 153.92619,198.16434 99.25179,198.16434 C44.5896,198.16434 0.24651,153.84336 0.24651,99.16368 C0.24651,44.49489 44.5896,0.16335 99.25179,0.16335 C153.92619,0.16335 198.2706,44.49489 198.2706,99.16368 L198.2706,99.16368 Z" id="Shape" fill="#0078FF"></path>
                    <path d="M120.47013,155.76957 L99.4521,130.15365 L82.11225,130.15365 L82.11225,155.76957 L51.63543,155.76957 L51.63543,57.24675 L109.04124,57.24675 C139.78041,57.24675 154.88748,70.25172 154.88748,92.3208 C154.88748,107.95323 147.26844,120.43284 132.03003,126.34413 L157.12059,155.76957 L120.47013,155.76957 L120.47013,155.76957 Z M113.50779,50.67876 L81.98058,50.67876 L59.64882,30.97413 L88.41756,30.97413 L97.74435,37.41111 L107.07114,30.97413 L135.83988,30.97413 L113.50779,50.67876 L113.50779,50.67876 Z M109.04124,104.53773 C120.20745,104.53773 125.85573,101.38491 125.85573,93.89721 C125.85573,86.27817 120.20745,82.86267 109.04124,82.86267 L82.11192,82.86267 L82.11192,104.53773 L109.04124,104.53773 L109.04124,104.53773 Z" id="Shape" fill="#000000"></path>
                </g>
                <g id="B8" transform="translate(1676.070000, 0.000000)" sketch:type="MSShapeGroup">
                    <path d="M198.11616,99.16368 C198.11616,153.84336 153.77175,198.16434 99.09735,198.16434 C44.43516,198.16434 0.09207,153.84336 0.09207,99.16368 C0.09207,44.49489 44.43516,0.16335 99.09735,0.16335 C153.77175,0.16335 198.11616,44.49489 198.11616,99.16368 L198.11616,99.16368 Z" id="Shape" fill="#0078FF"></path>
                    <path d="M27.23457,130.75293 L39.21324,62.69175 L70.43058,62.69175 C87.945,62.69175 95.205,68.2275 95.205,77.12067 C95.205,87.01242 88.39875,94.63509 74.15133,96.08709 C85.5855,97.17609 91.12125,102.80259 91.12125,110.51601 C91.12125,122.04093 82.40958,130.75293 60.17616,130.75293 L27.23457,130.75293 L27.23457,130.75293 Z M35.67432,97.08534 L30.1389,128.75643 L60.53949,128.75643 C80.50416,128.75643 88.58091,120.77043 88.58091,110.60676 C88.58091,102.53034 82.04658,97.08534 66.07524,97.08534 L35.67432,97.08534 L35.67432,97.08534 Z M41.39124,64.68825 L36.03699,95.08884 L64.71333,95.08884 C84.58758,95.08884 92.57325,87.91992 92.57325,77.66517 C92.57325,69.58875 86.03892,64.68825 70.06758,64.68825 L41.39124,64.68825 L41.39124,64.68825 Z" id="Shape" fill="#000000"></path>
                    <path d="M168.34785,112.14951 C168.34785,124.76343 155.64285,132.56793 132.23034,132.56793 C112.80984,132.56793 102.55542,126.57843 102.55542,116.59626 C102.55542,105.70626 112.53792,98.08359 128.96301,96.54084 C118.25484,95.36109 111.35784,89.73459 111.35784,81.38592 C111.35784,68.772 123.24576,60.87708 144.93435,60.87708 C162.44877,60.87708 171.97752,66.77583 171.97752,76.66725 C171.97752,87.4665 162.99327,95.08917 148.20135,96.54117 C160.54302,97.90209 168.34785,103.61934 168.34785,112.14951 L168.34785,112.14951 Z M138.40068,97.53909 C116.98434,97.53909 105.09609,105.07134 105.09609,116.14251 C105.09609,125.12643 114.71526,130.57143 132.59268,130.57143 C154.00902,130.57143 165.80619,123.40218 165.80619,112.24026 C165.80652,103.25601 156.2781,97.53909 138.40068,97.53909 L138.40068,97.53909 Z M144.4806,62.87325 C124.87926,62.87325 113.71701,70.22367 113.71701,81.20442 C113.71701,90.27909 122.42901,95.63334 138.76335,95.63334 C158.45577,95.63334 169.52694,88.19217 169.52694,77.21142 C169.52727,68.2275 160.72485,62.87325 144.4806,62.87325 L144.4806,62.87325 Z" id="Shape" fill="#000000"></path>
                </g>
                <g id="fi" transform="translate(1885.620000, 0.000000)" sketch:type="MSShapeGroup">
                    <path d="M198.1386,99.16368 C198.1386,153.84336 153.79419,198.16434 99.11979,198.16434 C44.4576,198.16434 0.11451,153.84336 0.11451,99.16368 C0.11451,44.49489 44.4576,0.16335 99.11979,0.16335 C153.79419,0.16335 198.1386,44.49489 198.1386,99.16368 L198.1386,99.16368 Z" id="Shape" fill="#0078FF"></path>
                    <path d="M120.38103,148.12842 L120.38103,83.26296 L77.27511,83.26296 L77.27511,148.12842 L64.60509,148.12842 L64.60509,83.26296 L44.08503,83.26296 L44.08503,72.65874 L64.60509,72.65874 L64.60509,67.28766 C64.60509,51.58791 76.58673,42.08523 96.00459,42.08523 C99.03465,42.08523 103.30353,42.36045 107.98623,43.18677 L109.91442,52.96467 C105.5076,52.13835 101.51361,51.8628 98.7591,51.8628 C83.88567,51.8628 77.27478,58.19781 77.27478,67.42494 L77.27478,72.65808 L133.05105,72.65808 L133.05105,148.12776 L120.38103,148.12776 L120.38103,148.12842 Z M120.38103,61.77897 L120.38103,43.1871 L133.05138,43.1871 L133.05138,61.77897 L120.38103,61.77897 L120.38103,61.77897 Z" id="Shape" fill="#000000"></path>
                </g>
                <g id="SEA" transform="translate(2095.170000, 0.000000)" sketch:type="MSShapeGroup">
                    <path d="M198.16104,99.16401 C198.16104,153.84336 153.81663,198.16434 99.14223,198.16434 C44.48004,198.16434 0.13695,153.84336 0.13695,99.16401 C0.13695,44.49522 44.48004,0.16368 99.14223,0.16368 C153.81663,0.16368 198.16104,44.49522 198.16104,99.16401 L198.16104,99.16401 Z" id="Shape" fill="#0078FF"></path>
                    <path d="M24.99519,105.41553 C29.94519,107.5734 36.35478,109.28676 43.01814,109.28676 C50.76027,109.28676 54.75822,107.95389 54.75822,105.54258 C54.75822,100.08471 26.51814,105.0984 26.51814,88.5984 C26.51814,74.8275 40.22568,70.89258 53.74281,70.89258 C59.07363,70.89258 65.29281,71.84463 71.44863,73.68471 L69.2274,86.50389 C64.2774,84.34602 58.18527,82.63266 51.52191,82.63266 C44.41437,82.63266 40.47978,83.71176 40.47978,86.05971 C40.47978,92.15184 68.6565,86.82135 68.6565,103.32102 C68.6565,117.02889 55.77396,121.02684 41.43183,121.02684 C35.46642,121.02684 28.61232,119.88471 23.66232,118.23471 L24.99519,105.41553 L24.99519,105.41553 Z" id="Shape" fill="#000000"></path>
                    <path d="M72.27429,119.75799 L80.65134,72.16209 L121.07601,72.16209 L119.04552,83.9025 L92.70888,83.9025 L91.69347,89.55045 L113.58765,89.55045 L111.49347,101.29086 L89.59929,101.29086 L88.39347,108.01791 L114.73011,108.01791 L112.69962,119.75832 L72.27429,119.75832 L72.27429,119.75799 Z" id="Shape" fill="#000000"></path>
                    <path d="M156.80478,119.75799 L155.28183,112.90422 L134.72019,112.90422 L130.97601,119.75799 L115.23765,119.75799 L144.36642,72.16209 L159.08937,72.16209 L171.46437,119.75799 L156.80478,119.75799 L156.80478,119.75799 Z M141.19314,101.16381 L152.61609,101.16381 L149.31609,86.37717 L141.19314,101.16381 L141.19314,101.16381 Z" id="Shape" fill="#000000"></path>
                </g>
                <g id="mnu" transform="translate(2306.040000, 0.000000)" sketch:type="MSShapeGroup">
                    <path d="M198.18381,99.16368 C198.18381,153.84336 153.8394,198.16434 99.165,198.16434 C44.50281,198.16434 0.15972,153.84336 0.15972,99.16368 C0.15972,44.49489 44.50281,0.16335 99.165,0.16335 C153.8394,0.16335 198.18381,44.49489 198.18381,99.16368 L198.18381,99.16368 Z" id="Shape" fill="#0078FF"></path>
                    <path d="M123.83382,90.03819 L123.83382,59.7564 C123.83382,50.7936 118.00371,45.22452 109.04091,45.22452 C103.03689,45.22452 95.55348,48.61824 88.85316,53.92629 C89.20131,55.31856 89.46234,57.05898 89.46234,59.23434 L89.46234,90.03819 L84.24141,90.03819 L84.24141,59.7564 C84.24141,50.7936 78.4113,45.22452 69.36138,45.22452 C63.44415,45.22452 55.43901,48.61824 48.73836,54.1002 L48.73836,90.03819 L43.51743,90.03819 L43.51743,42.61422 L48.73836,42.61422 L48.56445,50.18475 C56.2221,43.74546 64.57572,40.8738 71.36283,40.8738 C79.45542,40.8738 85.19874,44.44176 87.80904,50.35866 C96.07587,43.65834 104.16813,40.8738 111.04236,40.8738 C122.35476,40.8738 129.05508,48.00939 129.05508,59.06043 L129.05508,90.03852 L123.83382,90.03852 L123.83382,90.03819 Z" id="Shape" fill="#000000"></path>
                    <path d="M84.41532,152.14155 L84.41532,121.85976 C84.41532,112.89696 78.67233,107.32788 69.4485,107.32788 C63.53127,107.32788 55.43901,110.7216 48.73836,116.20356 L48.73836,152.14155 L43.51743,152.14155 L43.51743,104.71758 L48.73836,104.71758 L48.56445,112.28811 C56.30922,105.84882 64.66251,102.97716 71.44995,102.97716 C83.02305,102.97716 89.63658,110.11275 89.63658,121.16379 L89.63658,152.14188 L84.41532,152.14188 L84.41532,152.14155 Z" id="Shape" fill="#000000"></path>
                    <path d="M145.50096,152.14155 L145.76199,144.4839 C138.01722,150.92319 129.66393,153.88197 122.7897,153.88197 C111.30339,153.88197 104.60307,146.8335 104.60307,135.69534 L104.60307,104.71725 L109.824,104.71725 L109.824,134.99904 C109.824,143.96184 115.56699,149.53092 124.79082,149.53092 C130.79484,149.53092 138.80031,146.1372 145.50096,140.65524 L145.50096,104.71725 L150.72189,104.71725 L150.72189,152.14122 L145.50096,152.14122 L145.50096,152.14155 Z" id="Shape" fill="#000000"></path>
                </g>
            </g>
        </g>
    </g>
</svg>