<?xml version="1.0" encoding="UTF-8" standalone="no"?>
<svg width="637px" height="482px" viewBox="0 0 637 482" version="1.1" xmlns="http://www.w3.org/2000/svg" xmlns:xlink="http://www.w3.org/1999/xlink" xmlns:sketch="http://www.bohemiancoding.com/sketch/ns">
    <!-- Generator: Sketch 3.3.2 (12043) - http://www.bohemiancoding.com/sketch -->
    <title>canvas</title>
    <desc>Created with Sketch.</desc>
    <defs></defs>
    <g id="Buttons" stroke="none" stroke-width="1" fill="none" fill-rule="evenodd" sketch:type="MSPage">
        <g id="canvas" sketch:type="MSArtboardGroup">
            <g id="vegan-sans" sketch:type="MSLayerGroup" transform="translate(7.000000, -41.000000)">
                <g id="a">
                    <path d="M151.337,123.519 C151.337,165.144 117.58,198.883 75.959,198.883 C34.347,198.883 0.591,165.144 0.591,123.519 C0.591,81.902 34.347,48.155 75.959,48.155 C117.58,48.154 151.337,81.901 151.337,123.519 L151.337,123.519 Z" id="Shape" fill="#FFFF00" sketch:type="MSShapeGroup"></path>
                    <text fill="#000000" sketch:type="MSTextLayer" font-family="Vegan Sans" font-size="170.404" font-weight="420">
                        <tspan x="27.9175" y="162.1377">a</tspan>
                    </text>
                </g>
                <g id="rrr" transform="translate(156.000000, 45.000000)">
                    <path d="M151.49,75.519 C151.49,117.144 117.732,150.883 76.111,150.883 C34.5,150.883 0.743,117.144 0.743,75.519 C0.743,33.902 34.499,0.155 76.111,0.155 C117.732,0.154 151.49,33.901 151.49,75.519 L151.49,75.519 Z" id="Shape" fill="#FFFF00" sketch:type="MSShapeGroup"></path>
                    <text id="RRr" fill="#000000" sketch:type="MSTextLayer" font-family="Vegan Sans" font-size="69.8058" font-style="italic" font-weight="686">
                        <tspan x="16.2544" y="97.1084">RRr</tspan>
                    </text>
                </g>
                <g id="65" transform="translate(314.000000, 48.000000)">
                    <path d="M151.334,75.519 C151.334,117.144 117.578,150.883 75.956,150.883 C34.344,150.883 0.588,117.144 0.588,75.519 C0.588,33.902 34.344,0.155 75.956,0.155 C117.578,0.154 151.334,33.901 151.334,75.519 L151.334,75.519 Z" id="Shape" fill="#FFFF00" sketch:type="MSShapeGroup"></path>
                    <text fill="#000000" sketch:type="MSTextLayer" font-family="Vegan Sans" font-size="92.3543" font-weight="bold">
                        <tspan x="18.1055" y="105.5234">65</tspan>
                    </text>
                </g>
                <g id="b" transform="translate(472.000000, 48.000000)">
                    <path d="M151.547,75.519 C151.547,117.144 117.789,150.883 76.168,150.883 C34.557,150.883 0.8,117.144 0.8,75.519 C0.8,33.902 34.557,0.155 76.168,0.155 C117.789,0.154 151.547,33.901 151.547,75.519 L151.547,75.519 Z" id="Shape" fill="#FFFF00" sketch:type="MSShapeGroup"></path>
                    <text id="ẞ" fill="#000000" sketch:type="MSTextLayer" font-family="Vegan Sans" font-size="110.8612" font-style="italic" font-weight="260">
                        <tspan x="32.3877" y="109.2749">ẞ</tspan>
                    </text>
                </g>
            </g>
            <g id="kunda-book" sketch:type="MSLayerGroup" transform="translate(5.000000, 129.000000)">
                <g id="g">
                    <path d="M151.337,112.053 C151.337,153.678 117.58,187.416 75.959,187.416 C34.347,187.416 0.591,153.678 0.591,112.053 C0.591,70.436 34.347,36.688 75.959,36.688 C117.58,36.688 151.337,70.436 151.337,112.053 L151.337,112.053 Z" id="Shape" fill="#FF3C32" sketch:type="MSShapeGroup"></path>
                    <text fill="#000000" sketch:type="MSTextLayer" font-family="Kunda Book" font-size="142.7511" font-weight="bold">
                        <tspan x="44" y="130">g</tspan>
                    </text>
                </g>
                <g id="34" transform="translate(158.000000, 36.000000)">
                    <path d="M151.5243,75.3689 C151.5243,116.9939 117.7663,150.7319 76.1463,150.7319 C34.5343,150.7319 0.7783,116.9939 0.7783,75.3689 C0.7783,33.7519 34.5343,0.0039 76.1463,0.0039 C117.7663,0.0039 151.5243,33.7519 151.5243,75.3689 L151.5243,75.3689 Z" id="Shape" fill="#FF3C32" sketch:type="MSShapeGroup"></path>
                    <text id="¾" fill="#000000" sketch:type="MSTextLayer" font-family="Kunda Book" font-size="107.1215" font-weight="420">
                        <tspan x="33" y="106">¾</tspan>
                    </text>
                </g>
                <g id="q" transform="translate(316.000000, 36.000000)">
                    <path d="M150.8984,75.5574 C150.8984,117.1824 117.1404,150.9204 75.5194,150.9204 C33.9084,150.9204 0.1514,117.1824 0.1514,75.5574 C0.1514,33.9404 33.9084,0.1924 75.5194,0.1924 C117.1404,0.1924 150.8984,33.9404 150.8984,75.5574 L150.8984,75.5574 Z" id="Shape" fill="#FF3C32" sketch:type="MSShapeGroup"></path>
                    <text id="Q" fill="#000000" sketch:type="MSTextLayer" font-family="Kunda Book" font-size="104.787" font-style="italic" font-weight="686">
                        <tspan x="37" y="100">Q</tspan>
                    </text>
                </g>
                <g id="ag" transform="translate(474.000000, 29.000000)">
                    <path d="M151.1493,82.6287 C151.1493,124.2537 117.3933,157.9917 75.7713,157.9917 C34.1593,157.9917 0.4033,124.2537 0.4033,82.6287 C0.4033,41.0117 34.1593,7.2637 75.7713,7.2637 C117.3933,7.2637 151.1493,41.0117 151.1493,82.6287 L151.1493,82.6287 Z" id="Shape" fill="#FF3C32" sketch:type="MSShapeGroup"></path>
                    <text fill="#000000" sketch:type="MSTextLayer" font-family="Kunda Book" font-size="109.9469" font-style="italic" font-weight="526">
                        <tspan x="23" y="100">ag</tspan>
                    </text>
                </g>
            </g>
            <g id="hrot" sketch:type="MSLayerGroup" transform="translate(6.000000, 326.000000)">
                <g id="hrot-hmm">
                    <path d="M151,75.5002216 C151,117.200426 117.185638,151 75.4946831,151 C33.813476,151 0,117.200426 0,75.5002216 C0,33.8088803 33.8130329,0 75.4946831,0 C117.185195,-6.29730763e-15 151,33.8088803 151,75.5002216 L151,75.5002216 Z" id="Shape" fill="#0078FF" sketch:type="MSShapeGroup"></path>
                    <text id="H" fill="#000000" sketch:type="MSTextLayer" font-family="Hrot" font-size="29.2608082" font-weight="900">
                        <tspan x="97.1502146" y="51">H</tspan>
                    </text>
                    <text id="mmm" fill="#000000" sketch:type="MSTextLayer" font-family="Hrot" font-size="29.2608082" font-weight="900">
                        <tspan x="22.4146524" y="73.1282348">mmm</tspan>
                    </text>
                    <text id="mm" fill="#000000" sketch:type="MSTextLayer" font-family="Hrot" font-size="29.2608082" font-weight="900">
                        <tspan x="22.4146524" y="95.2564696">mm</tspan>
                    </text>
                    <text id="m" fill="#000000" sketch:type="MSTextLayer" font-family="Hrot" font-size="29.2608082" font-weight="900">
                        <tspan x="22.4146524" y="117.384261">m</tspan>
                    </text>
                </g>
                <g id="hrot-s" transform="translate(158.000000, 0.000000)">
                    <path d="M151,75.5002216 C151,117.200426 117.186081,151 75.4951261,151 C33.813476,151 0,117.200426 0,75.5002216 C0,33.8088803 33.8130329,0 75.4951261,0 C117.186081,-6.29730763e-15 151,33.8088803 151,75.5002216 L151,75.5002216 Z" id="Shape" fill="#0078FF" sketch:type="MSShapeGroup"></path>
                    <text id="S" fill="#000000" sketch:type="MSTextLayer" font-family="Hrot" font-size="112.473994" font-weight="normal">
                        <tspan x="28" y="115">S</tspan>
                    </text>
                </g>
            </g>
        </g>
    </g>
</svg>
