<?xml version="1.0" encoding="utf-8"?>
<!-- Generator: Adobe Illustrator 16.0.3, SVG Export Plug-In . SVG Version: 6.00 Build 0)  -->
<!DOCTYPE svg PUBLIC "-//W3C//DTD SVG 1.1//EN" "http://www.w3.org/Graphics/SVG/1.1/DTD/svg11.dtd">
<svg version="1.1" id="Layer_1" xmlns="http://www.w3.org/2000/svg" xmlns:xlink="http://www.w3.org/1999/xlink" x="0px" y="0px"
	 width="2007.464px" height="3763.656px" viewBox="0 0 2007.464 3763.656" enable-background="new 0 0 2007.464 3763.656"
	 xml:space="preserve">
<rect fill="#FFFFFF" width="2007.464" height="3763.656"/>
<g>
	<path fill="#231F20" d="M265.069,209.099l-17.7-31.302l-17.701,31.302h-8.201l22.201-40.003h7.401l22.201,40.003H265.069z"/>
	<path fill="#231F20" d="M531.468,200.999c-2.7,8.5-10,12.301-16.701,12.301c-10.4,0-19.301-7.7-27.401-7.7c-5.2,0-9.7,3-11.501,7.9
		l-5.9-2.9c2.7-8.4,10.001-12.301,16.701-12.301c10.501,0,19.302,7.7,27.401,7.7c5.201,0,9.701-2.9,11.501-7.8L531.468,200.999z"/>
	<path fill="#231F20" d="M731.162,213.699v-16.7h9.2v16.7H731.162z"/>
	<path fill="#231F20" d="M966.359,235.8v-26.302h-26.302v-7.3h26.302v-26.302h7.301v26.302h26.302v7.3H973.66V235.8H966.359z"/>
	<path fill="#231F20" d="M1196.654,209.499v-7.3h59.904v7.3H1196.654z"/>
	<path fill="#231F20" d="M1479.553,229.6v-26.302h-26.302v-7.3h26.302v-26.302h7.301v26.302h26.302v7.3h-26.302V229.6H1479.553z
		 M1453.251,244.101V236.8h59.904v7.301H1453.251z"/>
	<path fill="#231F20" d="M1756.451,231.8l-20.701-20.701l-20.702,20.701l-5.2-5.301l20.602-20.601l-20.602-20.802l5.2-5.2
		l20.702,20.701l20.701-20.701l5.3,5.2l-20.801,20.802l20.801,20.701L1756.451,231.8z"/>
	<path fill="#231F20" d="M294.472,521.001l-33.902-33.902l-33.902,33.902l-5.2-5.301l33.803-33.802l-33.803-34.002l5.2-5.2
		l33.902,33.901l33.902-33.901l5.3,5.2l-34.002,34.002l34.002,33.902L294.472,521.001z"/>
	<path fill="#231F20" d="M483.53,485.499v-7.3h59.904v7.3H483.53z M509.832,465.698v-13.801h7.301v13.801H509.832z M509.832,511.8
		V498h7.301V511.8H509.832z"/>
	<path fill="#231F20" d="M727.194,485.499v-7.4l59.904-25.602v7.801l-50.403,21.501l50.403,21.502v7.8L727.194,485.499z"/>
	<path fill="#231F20" d="M970.857,511.1v-7.8l50.403-21.502l-50.403-21.501v-7.801l59.904,25.602v7.4L970.857,511.1z"/>
	<path fill="#231F20" d="M1214.521,479.899v-7.4l59.904-25.602v7.8l-50.403,21.502l50.403,21.501v7.801L1214.521,479.899z
		 M1214.521,520.101V512.8h59.904v7.301H1214.521z"/>
	<path fill="#231F20" d="M1458.185,505.5V497.7l50.403-21.501l-50.403-21.502v-7.8l59.904,25.602v7.4L1458.185,505.5z
		 M1458.185,520.101V512.8h59.904v7.301H1458.185z"/>
	<path fill="#231F20" d="M1701.848,471.499v-7.301h59.904v7.301H1701.848z M1701.848,499.5v-7.3h59.904v7.3H1701.848z"/>
	<path fill="#231F20" d="M227.367,794.201l10.201-18.701h-16.102v-7.3h20.102l11.301-20.701h-31.402v-7.301h35.402l10.4-18.901
		h8.201l-10.401,18.901h16.302v7.301h-20.302L249.769,768.2h31.603v7.3h-35.603l-10.2,18.701H227.367z"/>
	<path fill="#231F20" d="M533.284,738.998c-2.7,8.501-10,12.301-16.701,12.301c-10.4,0-19.301-7.7-27.401-7.7
		c-5.2,0-9.7,3-11.501,7.9l-5.9-2.9c2.7-8.4,10.001-12.301,16.701-12.301c10.501,0,19.302,7.7,27.401,7.7
		c5.201,0,9.701-2.899,11.501-7.8L533.284,738.998z M533.284,767c-2.7,8.5-10,12.301-16.701,12.301
		c-10.4,0-19.301-7.701-27.401-7.701c-5.2,0-9.7,3.001-11.501,7.901l-5.9-2.9c2.7-8.4,10.001-12.301,16.701-12.301
		c10.501,0,19.302,7.7,27.401,7.7c5.201,0,9.701-2.9,11.501-7.801L533.284,767z"/>
	<path fill="#231F20" d="M776.298,787.8v-26.302h-52.604v-7.3h59.904V787.8H776.298z"/>
	<path fill="#231F20" d="M979.009,810.102V707.095h9.601v103.007H979.009z"/>
	<path fill="#231F20" d="M1189.021,749.999v-42.903h9.601v42.903H1189.021z M1189.021,810.102V765.5h9.601v44.603H1189.021z"/>
	<path fill="#231F20" d="M1424.535,786.201c-17.701,0-31.102-9.701-31.102-27.402c0-17.301,13.4-27.401,31.102-27.401
		c13.101,0,24.602,5.801,28.202,15.201c3.5-9.301,14.9-15.201,28.002-15.201c17.7,0,31.102,9.701,31.102,27.401
		c0,17.701-13.401,27.402-31.102,27.402c-13.102,0-24.502-5.801-28.103-15.102C1449.037,780.4,1437.636,786.201,1424.535,786.201z
		 M1425.335,739.097c-12.801,0-22.701,7.001-22.701,19.701c0,12.701,9.9,19.701,22.701,19.701s22.702-7,22.702-19.701
		C1448.037,746.098,1438.136,739.097,1425.335,739.097z M1479.938,739.097c-12.9,0-22.701,7.001-22.701,19.701
		c0,12.701,9.801,19.701,22.701,19.701c12.801,0,22.602-7,22.602-19.701C1502.54,746.098,1492.739,739.097,1479.938,739.097z"/>
	<path fill="#231F20" d="M1727.148,796.101l-26.702-37.502l26.702-37.503h9.101l26.701,37.503l-26.701,37.502H1727.148z
		 M1752.55,758.599l-20.901-29.502l-20.901,29.502l20.901,29.502L1752.55,758.599z"/>
	<path fill="#231F20" d="M269.97,1022.698c-7.101-10.5-19.101-19.001-29.901-25.602h12.601
		c16.301,9.901,32.802,24.202,32.802,44.003c0,20.701-13,33.002-32.302,33.002c-19.301,0-31.502-11.7-31.502-29.401
		c0-16.901,11.601-27.802,28.502-27.802C256.369,1016.898,263.67,1018.598,269.97,1022.698z M274.17,1030.598
		c-5.8-4.399-14.301-7.2-20.9-7.2c-13.802,0-22.402,8.101-22.402,21.302c0,13.2,8.901,21.701,22.702,21.701
		s22.701-9.301,22.701-24.702C276.271,1037.799,275.471,1034.099,274.17,1030.598z"/>
	<path fill="#231F20" d="M460.598,1089.602v-72.305h9.2v34.803c0.3,9.101,6.2,14.301,15.4,14.301c6.101,0,14.602-3.5,21.602-9.001
		v-40.103h9.301v54.804H506.8l0.4-8.601c-8.801,7.4-18.102,10.601-25.702,10.601c-4.6,0-8.601-1-11.7-2.7v18.201H460.598z"/>
	<path fill="#231F20" d="M740.229,1072.101v-47.103h-37.002v47.103h-9.2v-54.804h55.503v54.804H740.229z"/>
	<path fill="#231F20" d="M923.058,1072.101V1064l36.302-66.904h9.701l36.302,66.904v8.101H923.058z M963.96,1006.897L933.158,1064
		h61.804L963.96,1006.897z"/>
	<path fill="#231F20" d="M1245.29,1072.101v-66.904h-56.403v66.904h-9.601v-75.005h75.604v75.005H1245.29z"/>
	<path fill="#231F20" d="M1496.62,1064v8.101h-63.004V1064l27.401-30.302l-27.401-28.502v-8.101h63.004v8.101h-49.903l27.002,28.202
		v0.7L1446.717,1064H1496.62z"/>
	<path fill="#231F20" d="M1728.85,1072.101V1064c12.501-4.101,20.701-15.001,20.701-29.802c0-19.102-13.4-31.002-33.502-31.002
		s-33.502,11.9-33.502,31.002c0,14.801,8.2,25.701,20.801,29.802v8.101h-34.401V1064h23.501
		c-10.2-4.601-19.501-16.001-19.501-31.401c0-21.502,16.101-37.503,43.103-37.503s43.103,16.001,43.103,37.503
		c0,15.4-9.4,26.801-19.602,31.401h23.602v8.101H1728.85z"/>
	<path fill="#231F20" d="M257.77,1348.101l-23.401-47.103h-14.701v-7.701h21.001l21.901,45.003l31.103-65.204h9.601l-36.603,75.005
		H257.77z"/>
	<path fill="#231F20" d="M507.481,1290.898c0-15.401,12.801-20.302,26.401-19.602l0.601,7.2c-9.801-0.3-17.701,3-17.701,12.401
		v55.403c0,15.4-12.801,20.301-26.302,19.601l-0.7-7.2c9.801,0.3,17.701-3,17.701-12.4V1290.898z"/>
	<path fill="#231F20" d="M796.299,1331.4c-6.8,11.201-19.401,18.701-33.702,18.701c-21.801,0-39.402-17.001-39.402-39.502
		c0-22.502,17.602-39.503,39.402-39.503c21.802,0,39.402,17.001,39.402,39.503h-61.104v30.701c6.001,4.301,13.601,6.9,21.701,6.9
		c13.102,0,24.502-6.6,31.103-16.801H796.299z M740.896,1308.798h43.403v-28.901c-6.001-4.301-13.602-6.9-21.702-6.9
		s-15.7,2.6-21.701,6.9V1308.798z"/>
	<path fill="#231F20" d="M1038.91,1347.501c-4,1.6-11.501,2.6-15.601,2.6c-12.301,0-18.302-7-18.302-17.401v-8.2
		c-4.4,1.601-8.5,3-12.301,4.101l0.601-8.801c3.8-1.2,7.7-2.5,11.7-4v-15.102c0-18.701,9.801-29.602,22.901-29.602
		c9.4,0,17.001,5.601,17.001,17.602c0,14.501-14.9,25.001-30.701,32.102v10.101c0,6.801,3.3,11.501,12.101,11.501
		c3.5,0,9.801-1,13.2-2.5L1038.91,1347.501z M1014.209,1312.099c12-5.4,21.801-12.701,21.801-22.502c0-7.5-3.5-10.601-8.9-10.601
		c-7.801,0-12.9,6.601-12.9,21.302V1312.099z"/>
	<path fill="#231F20" d="M1236.52,1348.801l10.801-14.501c-7.101-5.7-11.301-14.101-11.301-23.502
		c0-17.101,14.201-31.001,33.902-31.001c5.7,0,10.9,1.199,15.501,3.3l7.5-10.201h10.501l-10.801,14.602
		c7.001,5.7,11.201,14.001,11.201,23.301c0,17.102-14.201,31.002-33.902,31.002c-5.7,0-10.801-1.1-15.401-3.1l-7.5,10.101H1236.52z
		 M1252.221,1327.7l28.302-38.103c-3.2-1.2-6.7-1.899-10.601-1.899c-15.101,0-25.102,10.2-25.102,23.101
		C1244.82,1317.5,1247.521,1323.5,1252.221,1327.7z M1287.723,1294.098l-28.302,38.002c3.101,1.2,6.601,1.8,10.501,1.8
		c15.101,0,25.102-10.2,25.102-23.102C1295.023,1304.199,1292.323,1298.298,1287.723,1294.098z"/>
	<path fill="#231F20" d="M1516.335,1308.899c-12.701,0-20.802-8.201-20.802-18.901c0-10.701,8.101-18.901,20.802-18.901
		c12.7,0,20.801,8.2,20.801,18.901C1537.136,1300.698,1529.035,1308.899,1516.335,1308.899z M1516.335,1276.997
		c-8.701,0-14.001,5.801-14.001,13.001s5.3,13.001,14.001,13.001c8.7,0,14.001-5.801,14.001-13.001
		S1525.035,1276.997,1516.335,1276.997z"/>
	<path fill="#231F20" d="M1755.147,1302.999l0.2-4c-5.2,3.399-11.301,5.1-16.801,5.1c-5.301,0-9.701-2.1-9.701-7.2
		c0-6.601,9.201-11.101,26.302-11.101v-4.101c0-3.7-2.8-5.5-9.2-5.5c-3.801,0-10.9,1.1-15.602,3.5l0.5-5.7
		c4.501-2.2,11.801-3.3,15.701-3.3c10.301,0,15.201,4.2,15.201,11.101v21.201H1755.147z M1755.147,1290.097
		c-11.7,0-19.401,1.5-19.401,6.001c0,2.9,2.4,3.5,5.801,3.5c3.8,0,9.4-1.7,13.601-4.601V1290.097z"/>
	<path fill="#231F20" d="M240.769,1580.098c-11.601,0-19.302-6.601-19.302-16.701s7.701-16.7,19.302-16.7
		c11.7,0,19.401,6.6,19.401,16.7S252.469,1580.098,240.769,1580.098z M240.769,1552.197c-7.701,0-12.701,4.3-12.701,11.2
		c0,6.801,5,11.201,12.701,11.201c7.8,0,12.801-4.4,12.801-11.201C253.569,1556.497,248.568,1552.197,240.769,1552.197z"/>
	<path fill="#231F20" d="M438.208,1576.298l-1.601-27.202h9.601l-1.6,27.202H438.208z"/>
	<path fill="#231F20" d="M624.247,1576.298l-1.601-27.202h9.601l-1.6,27.202H624.247z M644.848,1576.298l-1.6-27.202h9.601
		l-1.601,27.202H644.848z"/>
	<path fill="#231F20" d="M829.286,1631.402v-7.301h40.003v7.301H829.286z"/>
	<path fill="#231F20" d="M1045.726,1599.5v-7.301h90.006v7.301H1045.726z"/>
	<path fill="#231F20" d="M1312.166,1599.5v-7.301h40.003v7.301H1312.166z"/>
	<path fill="#231F20" d="M1528.605,1604.6v-7.301l29.402-9.801v7.4L1528.605,1604.6z"/>
	<path fill="#231F20" d="M1734.445,1599.599v-7.6l27.302-25.602v10.2l-20.301,19.301l20.301,19.102v10.2L1734.445,1599.599z"/>
	<path fill="#231F20" d="M221.467,1901.201V1891l20.302-19.102l-20.302-19.301v-10.2L248.769,1868v7.6L221.467,1901.201z"/>
	<path fill="#231F20" d="M431.491,1875.599v-7.6l27.302-25.602v10.2l-20.301,19.301L458.793,1891v10.2L431.491,1875.599z
		 M460.693,1875.599v-7.6l27.302-25.602v10.2l-20.302,19.301L487.995,1891v10.2L460.693,1875.599z"/>
	<path fill="#231F20" d="M670.716,1901.201V1891l20.302-19.102l-20.302-19.301v-10.2L698.018,1868v7.6L670.716,1901.201z
		 M699.918,1901.201V1891l20.301-19.102l-20.301-19.301v-10.2L727.22,1868v7.6L699.918,1901.201z"/>
	<path fill="#231F20" d="M908.74,1910.602l8.401-26.302h9.3l-9.601,26.302H908.74z"/>
	<path fill="#231F20" d="M1107.967,1910.602l8.401-26.302h9.3l-9.601,26.302H1107.967z M1129.469,1910.602l8.4-26.302h9.301
		l-9.601,26.302H1129.469z"/>
	<path fill="#231F20" d="M1325.294,1843.097l8.4-26.301h9.301l-9.601,26.301H1325.294z"/>
	<path fill="#231F20" d="M1524.52,1843.097l8.4-26.301h9.301l-9.601,26.301H1524.52z M1546.021,1843.097l8.4-26.301h9.301
		l-9.601,26.301H1546.021z"/>
	<path fill="#231F20" d="M1745.245,1843.097l9.601-26.301h8.101l-8.4,26.301H1745.245z"/>
	<path fill="#231F20" d="M221.467,2119.097l9.601-26.301h8.101l-8.4,26.301H221.467z M242.969,2119.097l9.601-26.301h8.101
		l-8.401,26.301H242.969z"/>
	<path fill="#231F20" d="M428.752,2190.102l2.399-29.102h9.201l-3.601,29.102H428.752z"/>
	<path fill="#231F20" d="M622.435,2176.101V2161h9.601v15.101H622.435z"/>
	<path fill="#231F20" d="M814.117,2136.399v-15.102h9.601v15.102H814.117z M814.117,2176.101V2161h9.601v15.101H814.117z"/>
	<path fill="#231F20" d="M1005.198,2190.102l2.4-29.102h9.2l-3.6,29.102H1005.198z M1006.599,2136.399v-15.102h9.601v15.102
		H1006.599z"/>
	<path fill="#231F20" d="M1198.281,2176.101V2161h9.601v15.101H1198.281z M1231.482,2176.101V2161h9.701v15.101H1231.482z
		 M1264.785,2176.101V2161h9.601v15.101H1264.785z"/>
	<path fill="#231F20" d="M1475.864,2139.999c20.401,2.4,32.803-5.7,32.803-16.7c0-11.301-9.301-16.102-22.702-16.102
		c-7.5,0-20.301,2.2-30.302,6.9v-8.9c10.701-4.5,23.401-6.101,31.202-6.101c18.801,0,31.902,7.501,31.902,24.202
		c0,13.9-13.501,28.501-42.903,24.701V2139.999z M1480.064,2176.101V2161h9.602v15.101H1480.064z"/>
	<path fill="#231F20" d="M1760.749,2189.501c-10.8,4.501-23.501,6.101-31.201,6.101c-18.802,0-31.902-7.5-31.902-24.201
		c0-13.901,13.501-28.502,42.902-24.701v8c-20.4-2.4-32.901,5.7-32.901,16.701c0,11.301,9.4,16.101,22.701,16.101
		c7.601,0,20.401-2.2,30.401-6.9V2189.501z M1726.747,2133.699v-15.102h9.601v15.102H1726.747z"/>
	<path fill="#231F20" d="M228.067,2425.9l-1.2-48.804h10.4l-1.199,48.804H228.067z M227.268,2452.101V2437h9.601v15.101H227.268z"/>
	<path fill="#231F20" d="M436.479,2469.602l1.2-48.803h8.001l1.199,48.803H436.479z M436.879,2409.699v-15.102h9.601v15.102H436.879
		z"/>
	<path fill="#231F20" d="M662.79,2465.102c-9.601-8.601-21.102-27.202-21.102-50.503c0-23.302,11.501-41.903,21.102-50.504h9.2
		c-10.9,10.201-20.301,29.603-20.301,50.504s9.4,40.302,20.301,50.503H662.79z"/>
	<path fill="#231F20" d="M856,2465.102c10.801-10.201,20.201-29.602,20.201-50.503s-9.4-40.303-20.201-50.504h9.201
		c9.601,8.601,21.101,27.202,21.101,50.504c0,23.301-11.5,41.902-21.101,50.503H856z"/>
	<path fill="#231F20" d="M1080.713,2465.102v-101.007h23.001v6.301h-13.4v88.405h13.4v6.301H1080.713z"/>
	<path fill="#231F20" d="M1294.124,2465.102v-6.301h13.401v-88.405h-13.401v-6.301h23.002v101.007H1294.124z"/>
	<path fill="#231F20" d="M1536.137,2465.102c-11.101,0-22.501-5.2-17.601-29.402c3.3-16.001-2.4-17.801-9.001-18.001v-6.2
		c6.601-0.1,12.301-2,9.001-17.901c-4.9-24.201,6.5-29.502,17.601-29.502h4.001l0.8,6.301h-3.7c-6.4,0-13.101,4.101-9.001,23.201
		c3.101,15.201-2.4,19.701-8.301,21.002c6.001,1.7,11.401,5.8,8.301,21.101c-4.1,19.002,2.601,23.102,9.001,23.102h3.7l-0.8,6.301
		H1536.137z"/>
	<path fill="#231F20" d="M1732.146,2465.102l-0.801-6.301h3.7c6.4,0,13.102-4.1,9.001-23.102c-3.101-15.301,2.3-19.4,8.301-21.101
		c-5.9-1.301-11.401-5.801-8.301-21.002c4.101-19.101-2.601-23.201-9.001-23.201h-3.7l0.801-6.301h4
		c11.101,0,22.501,5.301,17.601,29.502c-3.3,15.901,2.4,17.802,9.001,17.901v6.2c-6.601,0.2-12.301,2-9.001,18.001
		c4.9,24.202-6.5,29.402-17.601,29.402H1732.146z"/>
	<path fill="#231F20" d="M218.467,2732.102l63.304-83.005h10.801l-63.304,83.005H218.467z"/>
	<path fill="#231F20" d="M537.434,2732.102l-63.304-83.005h10.801l63.304,83.005H537.434z"/>
	<path fill="#231F20" d="M751.694,2697.299l1.601-19.801l-16.401,11.201l-4.101-6.9l17.802-8.601l-17.802-8.601l4.101-6.9
		l16.401,11.201l-1.601-19.802h8.101l-1.6,19.802l16.4-11.201l4.101,6.9l-17.802,8.601l17.802,8.601l-4.101,6.9l-16.4-11.201
		l1.6,19.801H751.694z"/>
	<path fill="#231F20" d="M984.757,2705.4c-10.3,0-18.501-6.002-18.501-14.801c0-8.701,8.201-14.801,18.501-14.801
		c10.201,0,18.502,6.1,18.502,14.801C1003.259,2699.398,994.958,2705.4,984.757,2705.4z"/>
	<path fill="#231F20" d="M1193.22,2725.102c10.001,5,22.701,6.9,32.202,6.9c14.001,0,28.002-2.4,28.002-12.301
		c0-20.902-61.804,0.4-61.804-28.102c0-7.701,4.7-12.801,11.3-15.801c-6.8-2.601-11.3-6.601-11.3-14.202
		c0-16.301,19.001-20.501,36.901-20.501c8.901,0,20.602,1.399,31.303,5.5v8.9c-10.001-4.4-21.802-6.301-31.303-6.301
		c-13,0-27.301,2.301-27.301,12.102c0,20.701,61.804-1.2,61.804,28.701c0,7.502-4.501,12.201-10.801,15.201
		c6.601,2.801,10.801,6.4,10.801,14.002c0,16.301-18.401,20.9-37.202,20.9c-9.301,0-22.102-1.5-32.002-6.1L1193.22,2725.102z
		 M1211.321,2678.197c-5.501,2-10.101,5.602-10.101,11.701c0,14.801,24.201,9.5,42.802,12.701c5.201-2,9.401-5.701,9.401-11.5
		C1253.424,2676.197,1230.122,2680.898,1211.321,2678.197z"/>
	<path fill="#231F20" d="M1477.285,2728.102v-43.803h-24.902v-8.102h24.902v-23.101h9.601v23.101h24.901v8.102h-24.901v43.803
		H1477.285z"/>
	<path fill="#231F20" d="M1726.248,2728.102V2707h-24.902v-8.102h24.902v-16.6h-24.902v-8.101h24.902v-21.102h9.601v21.102h24.901
		v8.101h-24.901v16.6h24.901V2707h-24.901v21.102H1726.248z"/>
	<path fill="#231F20" d="M287.171,3004.102v-66.904h-11v66.904h-9.601v-24.303h-12.401c-22.801,0-32.502-11.4-32.502-25.5
		c0-14.102,9.701-25.203,32.502-25.203h42.603v75.006H287.171z"/>
	<path fill="#231F20" d="M506.433,3006.102c-24.502,0-41.503-17.801-41.503-39.502s17.001-39.504,41.503-39.504
		c24.501,0,41.503,17.803,41.503,39.504S530.934,3006.102,506.433,3006.102z M506.433,2930.996
		c-21.901,0-37.103,15.902-37.103,35.604s15.201,35.602,37.103,35.602s37.103-15.9,37.103-35.602S528.334,2930.996,506.433,2930.996
		z M521.434,2982c-3.9,2.199-9.001,3.4-13.901,3.4c-12.301,0-21.301-7-21.301-18.801s9-18.803,21.301-18.803
		c4.9,0,10.001,1.201,13.901,3.4v4.602c-4-2.301-9.001-3.602-13.701-3.602c-9.101,0-16.101,5.4-16.101,14.402
		c0,9,7,14.4,16.101,14.4c4.7,0,9.701-1.301,13.701-3.6V2982z"/>
	<path fill="#231F20" d="M754.195,3006.102c-24.502,0-41.503-17.801-41.503-39.502s17.001-39.504,41.503-39.504
		c24.501,0,41.502,17.803,41.502,39.504S778.696,3006.102,754.195,3006.102z M754.195,2930.996
		c-21.901,0-37.103,15.902-37.103,35.604s15.201,35.602,37.103,35.602s37.103-15.9,37.103-35.602S776.097,2930.996,754.195,2930.996
		z M744.095,2972.898v11.701h-5.2v-35.902h19.301c10.801,0,15.501,5.301,15.501,12.002c0,6.699-4.7,12.199-15.501,12.199H744.095z
		 M758.195,2968.398c7.301,0,10.601-3.199,10.601-7.6c0-4.301-3.3-7.602-10.601-7.602h-14.101v15.201H758.195z"/>
	<path fill="#231F20" d="M985.257,2973.5c-14.9,0-24.802-10.502-24.802-23.203c0-12.699,9.901-23.201,24.802-23.201
		c14.901,0,24.802,10.502,24.802,23.201C1010.059,2962.998,1000.158,2973.5,985.257,2973.5z M985.257,2930.096
		c-13.101,0-21.501,8.801-21.501,20.201c0,11.402,8.4,20.203,21.501,20.203s21.501-8.801,21.501-20.203
		C1006.758,2938.896,998.357,2930.096,985.257,2930.096z M992.058,2960.898l-6.301-7.701h-7.2v7.701h-3.2v-21.102h11.4
		c6.601,0,9.201,2.701,9.201,6.701c0,3.299-1.9,5.801-6.501,6.5l6.601,7.9H992.058z M986.757,2950.598c4.301,0,5.9-1.699,5.9-4.1
		s-1.6-4.102-5.9-4.102h-8.2v8.201H986.757z"/>
	<path fill="#231F20" d="M1188.619,2961.398v-27.402h-13.801v-4.9h34.002v4.9h-13.801v27.402H1188.619z M1248.323,2961.398v-23.801
		l-14.101,15.9h-0.601l-14.101-15.9v23.801h-5.4v-32.303h5.101l14.7,16.902l14.701-16.902h5.101v32.303H1248.323z"/>
	<path fill="#231F20" d="M1419.082,2954.697c4.3,2.102,9.7,2.9,13.9,2.9c5.9,0,10.4-0.9,10.4-4.9c0-8.301-24.901-1.5-24.901-14.801
		c0-7.6,8.101-9.6,15.802-9.6c3.8,0,8.9,0.4,13.5,2.4v4.9c-4.2-2-9.3-2.701-13.5-2.701c-5.501,0-10.102,0.801-10.102,4.801
		c0,8.5,24.902,1.1,24.902,14.9c0,7.5-7.801,9.602-16.001,9.602c-3.9,0-9.501-0.602-13.801-2.602L1419.082,2954.697z
		 M1489.486,2961.398v-23.801l-14.102,15.9h-0.6l-14.101-15.9v23.801h-5.4v-32.303h5.101l14.7,16.902l14.701-16.902h5.101v32.303
		H1489.486z"/>
	<path fill="#231F20" d="M1745.05,3018.102c-9.601,4-23.801,5.5-33.002,5.5c-27.201,0-52.203-10.801-52.203-43.201
		c0-30.104,26.102-48.303,55.903-48.303c25.002,0,45.803,11,45.803,36.201c0,22.902-14.2,37.803-27.701,37.803
		c-5.9,0-10.501-3-10.801-10.801c-9.101,6.699-16.301,9.6-23.701,9.6c-11.901,0-19.201-10-19.201-22.9
		c0-17.9,12.7-33.502,29.401-33.502c7.4,0,13.101,2.9,20.001,9.6l1.101-7.699h8l-7.4,41.902c-0.899,5.1,1.5,8.1,5.7,8.1
		c8.4,0,19.802-12.201,19.802-32.102c0-23.002-19.302-31.902-41.803-31.902c-25.302,0-50.303,15.301-50.303,44.004
		c0,30.002,23.201,38.902,48.202,38.902c8.801,0,22.602-1.5,32.502-5.602L1745.05,3018.102z M1728.349,2963.498
		c-5.7-4.799-10.8-8-17.2-8c-12.801,0-23.002,11.102-23.002,25.201c0,10.201,6,17.301,15.301,17.301c6.301,0,12.701-3.299,20.102-8
		L1728.349,2963.498z"/>
	<path fill="#231F20" d="M289.771,3247.398v27.303c-8.801,5-24.602,7.4-34.402,7.4c-21.802,0-33.702-7.201-33.702-20.102
		c0-10.102,6.801-16.801,21.001-18.801c-12.5-2-19.9-9-19.9-18.801c0-13.301,13.101-21.303,35.802-21.303
		c6.801,0,16.201,0.602,25.302,3.102v8.6c-8.4-2.699-19.102-3.6-25.302-3.6c-16.601,0-26.502,5.1-26.502,14.301
		c0,9.1,9.401,13.801,26.702,13.801h21.401v-10.602h9.601v10.602h14.101v8.1H289.771z M280.171,3247.398H258.77
		c-18.602,0-27.502,5-27.502,13.701c0,8.602,9.001,13.4,25.302,13.4c7.7,0,18.501-2,23.602-4.699V3247.398z"/>
	<path fill="#231F20" d="M463.535,3245.498v-7.299h90.006v7.299H463.535z"/>
	<path fill="#231F20" d="M715.404,3245.498v-7.299h40.003v7.299H715.404z"/>
	<path fill="#231F20" d="M917.272,3250.6v-7.301l29.402-9.801v7.4L917.272,3250.6z"/>
	<path fill="#231F20" d="M1108.541,3245.6v-7.602l27.302-25.602v10.201l-20.301,19.301l20.301,19.102v10.201L1108.541,3245.6z"/>
	<path fill="#231F20" d="M1297.709,3271.201V3261l20.302-19.102l-20.302-19.301v-10.201l27.302,25.602v7.602L1297.709,3271.201z"/>
	<path fill="#231F20" d="M1486.877,3245.6v-7.602l27.302-25.602v10.201l-20.301,19.301l20.301,19.102v10.201L1486.877,3245.6z
		 M1516.079,3245.6v-7.602l27.302-25.602v10.201l-20.302,19.301l20.302,19.102v10.201L1516.079,3245.6z"/>
	<path fill="#231F20" d="M1705.244,3271.201V3261l20.302-19.102l-20.302-19.301v-10.201l27.302,25.602v7.602L1705.244,3271.201z
		 M1734.446,3271.201V3261l20.301-19.102l-20.301-19.301v-10.201l27.302,25.602v7.602L1734.446,3271.201z"/>
	<path fill="#231F20" d="M284.771,3552c-10.8,4.502-23.501,6.102-31.201,6.102c-18.802,0-31.902-7.5-31.902-24.201
		c0-13.902,13.501-28.502,42.902-24.703v8.002c-20.4-2.4-32.901,5.699-32.901,16.701c0,11.301,9.4,16.1,22.701,16.1
		c7.601,0,20.401-2.199,30.401-6.9V3552z M250.769,3496.197v-15.102h9.601v15.102H250.769z"/>
	<path fill="#231F20" d="M451.167,3556.102l1.2-48.803h8.001l1.2,48.803H451.167z M451.567,3496.197v-15.102h9.601v15.102H451.567z"
		/>
	<path fill="#231F20" d="M712.371,3565.102c-9.601,4-23.801,5.5-33.002,5.5c-27.201,0-52.203-10.801-52.203-43.203
		c0-30.102,26.102-48.303,55.903-48.303c25.002,0,45.803,11.002,45.803,36.203c0,22.9-14.2,37.803-27.701,37.803
		c-5.9,0-10.501-3-10.801-10.801c-9.101,6.699-16.301,9.6-23.701,9.6c-11.901,0-19.201-10-19.201-22.9
		c0-17.902,12.7-33.502,29.401-33.502c7.4,0,13.101,2.9,20.001,9.6l1.101-7.699h8l-7.4,41.902c-0.899,5.1,1.5,8.1,5.7,8.1
		c8.4,0,19.802-12.201,19.802-32.102c0-23.002-19.302-31.902-41.803-31.902c-25.302,0-50.303,15.301-50.303,44.002
		c0,30.002,23.201,38.902,48.202,38.902c8.801,0,22.602-1.5,32.502-5.6L712.371,3565.102z M695.67,3510.498
		c-5.7-4.801-10.8-8-17.2-8c-12.801,0-23.002,11.1-23.002,25.201c0,10.201,6,17.301,15.301,17.301c6.301,0,12.701-3.299,20.102-8
		L695.67,3510.498z"/>
</g>
</svg>
