<?xml version="1.0" encoding="utf-8"?>
<!-- Generator: Adobe Illustrator 16.0.3, SVG Export Plug-In . SVG Version: 6.00 Build 0)  -->
<!DOCTYPE svg PUBLIC "-//W3C//DTD SVG 1.1//EN" "http://www.w3.org/Graphics/SVG/1.1/DTD/svg11.dtd">
<svg version="1.1" id="Layer_1" xmlns="http://www.w3.org/2000/svg" xmlns:xlink="http://www.w3.org/1999/xlink" x="0px" y="0px"
	 width="2007.464px" height="4849.439px" viewBox="0 0 2007.464 4849.439" enable-background="new 0 0 2007.464 4849.439"
	 xml:space="preserve">
<rect fill="#FFFFFF" width="2007.464" height="4849.439"/>
<g>
	<path fill="#231F20" d="M264.27,239.6v-1.5c7.301-1.7,8.4-3.4,6.7-7.501l-4.8-11.4h-25.302l-3.2,8.001c-2.7,6.6-0.2,9.2,7.101,10.9
		v1.5h-22.602v-1.5c5.601-1.7,8.101-4.4,11.101-11.501l21.701-52.503h2.9l25.302,56.503c1.8,4.101,2.1,5.801,9,7.501v1.5H264.27z
		 M242.368,215.499h22.201l-10.9-25.901h-0.7L242.368,215.499z"/>
	<path fill="#231F20" d="M480.596,239.6v-1.5c7.301-1.7,8.501-3,8.501-7.501v-46.303c0-4.5-1.2-5.8-8.501-7.5v-1.5h24.102
		c13.301,0,24.901,3.8,24.901,15.4c0,7.4-4.4,12.401-12.801,14.801v0.7c11.001,1.4,17.102,6.801,17.102,14.701
		c0,13.501-11.201,18.701-25.802,18.701H480.596z M505.397,204.698c7.7,0,12.801-4.3,12.801-12.801c0-8.5-5.7-12.9-14.701-12.9h-3.8
		v25.701H505.397z M509.197,235.9c8.001,0,13.201-5.5,13.201-14.101c0-8.501-5.7-13.401-14.601-13.401h-8.101V235.9H509.197z"/>
	<path fill="#231F20" d="M781.929,236.3c-7.201,3.7-15.802,4.9-22.401,4.9c-18.901,0-34.303-11.901-34.303-33.202
		c0-20.502,16.401-34.303,36.502-34.303c5.9,0,13.001,0.9,19.901,3.2v15.001h-1.5c-5-10.101-11.4-14.4-19.501-14.4
		c-15.101,0-23.401,13.101-23.401,28.401c0,12.701,5.601,31.502,23.501,31.502c8.101,0,15.102-5.7,19.701-16.401h1.501V236.3z"/>
	<path fill="#231F20" d="M974.954,239.6v-1.5c7.301-1.7,8.501-3,8.501-7.501v-46.303c0-4.5-1.2-5.8-8.501-7.5v-1.5h29.102
		c19.701,0,37.003,10.5,37.003,30.401c0,22.201-16.701,33.902-37.603,33.902H974.954z M1004.756,235.9
		c15.101,0,24.302-11.201,24.302-28.102c0-13.801-7.2-28.802-26.401-28.802h-8.601V235.9H1004.756z"/>
	<path fill="#231F20" d="M1231.385,239.6v-1.5c7.301-1.7,8.501-3,8.501-7.501v-46.303c0-4.5-1.2-5.8-8.501-7.5v-1.5h48.003v14.9
		h-1.5c-5.601-10.4-10.801-11.2-16.901-11.2h-10.5v24.701h6c6.801,0,9.601-0.7,13.4-9.301h1.501v22.302h-1.501
		c-3.8-8.501-6.6-9.301-13.4-9.301h-6V235.9h10.5c6.101,0,11.201-1.2,16.901-13.201h1.5V239.6H1231.385z"/>
	<path fill="#231F20" d="M1472.113,239.6v-1.5c7.301-1.7,8.501-3,8.501-7.501v-46.303c0-4.5-1.2-5.8-8.501-7.5v-1.5h47.003v15.9
		h-1.5c-5.601-11.4-10.801-12.2-16.901-12.2h-9.5v25.701h5.3c6.801,0,9.701-0.7,13.401-9.301h1.6v22.302h-1.6
		c-3.7-8.5-6.601-9.301-13.401-9.301h-5.3v22.201c0,4.501,1.199,5.801,10.5,7.501v1.5H1472.113z"/>
	<path fill="#231F20" d="M1742.847,241.201c-20.301,0-35.702-11.901-35.702-33.202c0-20.502,16.401-34.303,36.502-34.303
		c5.9,0,13.901,0.9,20.702,3.2v15.001h-1.501c-4.899-10.101-11.9-14.4-20.301-14.4c-15.101,0-23.401,13.101-23.401,28.401
		c0,13.101,6.101,31.502,26.701,31.502c3.301,0,6.701-0.5,9.901-1.3v-14.301c0-4.501-1.5-5.801-9.501-7.501v-1.5h20.102V235.6
		C1760.148,238.6,1751.747,241.201,1742.847,241.201z"/>
	<path fill="#231F20" d="M271.97,515.6v-1.5c7.301-1.7,8.501-3,8.501-7.501v-23.201h-36.202v23.201c0,4.501,1.2,5.801,8.5,7.501v1.5
		h-27.602v-1.5c7.301-1.7,8.501-3,8.501-7.501v-46.303c0-4.5-1.2-5.8-8.501-7.5v-1.5h27.602v1.5c-7.3,1.7-8.5,3-8.5,7.5v19.401
		h36.202v-19.401c0-4.5-1.2-5.8-8.501-7.5v-1.5h27.702v1.5c-7.301,1.7-8.501,3-8.501,7.5v46.303c0,4.501,1.2,5.801,8.501,7.501v1.5
		H271.97z"/>
	<path fill="#231F20" d="M488.78,515.6v-1.5c7.301-1.7,8.501-3,8.501-7.501v-46.303c0-4.5-1.2-5.8-8.501-7.5v-1.5h27.602v1.5
		c-7.3,1.7-8.5,3-8.5,7.5v46.303c0,4.501,1.2,5.801,8.5,7.501v1.5H488.78z"/>
	<path fill="#231F20" d="M731.895,460.296c0-4.5-1.2-5.8-10.501-7.5v-1.5h29.602v1.5c-7.3,1.7-8.5,3-8.5,7.5v33.502
		c0,16.201-10.9,23.402-20.701,23.402c-3.7,0-10.501-1.101-14.901-3.301v-15.201h1.5c4.801,10.701,8.901,14.701,15.302,14.701
		c3.399,0,8.2-2,8.2-9.2V460.296z"/>
	<path fill="#231F20" d="M997.91,452.796c-6.301,1.6-12.201,6.101-17.302,11.2l-13.101,13.102l33.302,37.002v1.5h-13.7
		l-28.802-34.603v25.602c0,4.501,1.2,5.801,8.5,7.501v1.5h-27.602v-1.5c7.301-1.7,8.501-3,8.501-7.501v-46.303
		c0-4.5-1.2-5.8-8.501-7.5v-1.5h27.602v1.5c-7.3,1.7-8.5,3-8.5,7.5v20.701l17.301-17.7c5-5.101,7.4-8.801,0.1-10.501v-1.5h22.202
		V452.796z"/>
	<path fill="#231F20" d="M1187.919,515.6v-1.5c7.301-1.7,8.501-3,8.501-7.501v-46.303c0-4.5-1.2-5.8-8.501-7.5v-1.5h29.602v1.5
		c-9.3,1.7-10.5,3-10.5,7.5V511.9h8.5c6.101,0,11.201-1.601,16.901-15.601h1.5V515.6H1187.919z"/>
	<path fill="#231F20" d="M1482.035,515.6v-1.5c7.301-1.7,8.601-3,8.4-7.501l-1.399-23.401l-0.9-20.001h-0.7l-22.301,53.604h-2.801
		l-25.102-52.604h-0.6l-0.8,20.001l-0.9,19.002c-0.3,7.2,3.3,9.2,10.9,10.9v1.5h-25.401v-1.5c6.501-1.7,9.501-3.7,9.9-10.9
		l2.101-39.503c0.399-7.2-3.2-9.2-9.701-10.9v-1.5h20.502l23.602,49.503h0.6l20.302-49.503h19.201v1.5c-7.301,1.7-8.601,3-8.401,7.5
		l2.501,46.303c0.199,4.501,1.3,5.801,8.6,7.501v1.5H1482.035z"/>
	<path fill="#231F20" d="M1757.048,516.8l-45.202-52.604h-0.601l0.301,19.802V503.2c0,7.2,3.399,9.2,11,10.9v1.5h-25.401v-1.5
		c6.5-1.7,9.801-3.7,9.801-10.9v-39.503c0-7.2-3.301-9.2-9.801-10.9v-1.5h18.701l39.103,45.603h0.7l-0.301-19.801v-13.401
		c0-7.2-3.399-9.2-11-10.9v-1.5h24.701v1.5c-5.8,1.7-9.101,3.7-9.101,10.9V516.8H1757.048z"/>
	<path fill="#231F20" d="M224.467,760.298c0-20.501,15.801-34.603,34.402-34.603c18.301,0,33.202,12.201,33.202,32.902
		c0,20.501-15.801,34.603-34.402,34.603C239.368,793.201,224.467,780.9,224.467,760.298z M280.07,761.999
		c0-13.801-5.601-32.502-22.901-32.502c-13.301,0-20.701,12.4-20.701,27.401c0,13.701,5.601,32.502,22.802,32.502
		C272.67,789.4,280.07,776.899,280.07,761.999z"/>
	<path fill="#231F20" d="M481.73,791.6v-1.5c7.301-1.7,8.501-3,8.501-7.501v-46.303c0-4.5-1.2-5.8-8.501-7.5v-1.5h25.201
		c13.301,0,24.902,5.7,24.902,18.501c0,13.601-11.201,20.301-25.802,20.301h-5.2v16.501c0,4.501,1.199,5.801,10.5,7.501v1.5H481.73z
		 M507.132,762.398c8.101,0,13.301-6.2,13.301-15.801c0-9.9-5.7-15.601-14.7-15.601h-4.9v31.401H507.132z"/>
	<path fill="#231F20" d="M721.092,760.298c0-20.501,15.801-34.603,34.402-34.603c18.301,0,33.202,12.201,33.202,32.902
		c0,15.601-9.101,27.502-21.701,32.302l25.401,18.301v1.501h-16.001L757.694,793c-1.101,0.1-2.3,0.2-3.4,0.2
		C735.993,793.201,721.092,780.9,721.092,760.298z M776.695,761.999c0-13.801-5.601-32.502-22.901-32.502
		c-13.301,0-20.701,12.4-20.701,27.401c0,13.701,5.601,32.502,22.802,32.502C769.295,789.4,776.695,776.899,776.695,761.999z"/>
	<path fill="#231F20" d="M1023.658,791.6l-17.901-27.602c-1,0.1-2.1,0.1-3.1,0.1h-5.2v18.501c0,4.501,1.199,5.801,8.5,7.501v1.5
		h-27.602v-1.5c7.301-1.7,8.501-3,8.501-7.501v-46.303c0-4.5-1.2-5.8-8.501-7.5v-1.5h25.201c13.301,0,24.902,5.5,24.902,17.501
		c0,9.101-5.601,15.001-14.102,17.701l22.602,27.602v1.5H1023.658z M1003.757,760.398c8.101,0,13.301-6.101,13.301-14.801
		c0-9.101-5.7-14.601-14.7-14.601h-4.9v29.401H1003.757z"/>
	<path fill="#231F20" d="M1226.818,774.699h1.5c4.801,10.101,10.601,14.701,16.701,14.701c6.4,0,11.4-4.3,11.4-11.2
		c0-15.501-31.202-16.001-31.202-34.603c0-12.501,11.301-17.901,20.602-17.901c4.601,0,9.501,0.601,16.301,2.9v13.601h-1.5
		c-4.9-9.4-9.9-12.7-16.001-12.7c-5.5,0-10.801,3.3-10.801,9.801c0,13.9,31.103,15.101,31.103,34.602
		c0,12.901-11.401,19.302-21.102,19.302c-5.3,0-11.601-1.001-17.001-3.701V774.699z"/>
	<path fill="#231F20" d="M1465.684,791.6v-1.5c9.301-1.7,10.501-3,10.501-7.501v-51.603h-5.801c-5.8,0-11,1.2-16.301,14.601h-1.5
		v-18.301h57.804v18.301h-1.5c-5.301-13.4-10.501-14.601-16.301-14.601h-5.801v51.603c0,4.501,1.2,5.801,10.501,7.501v1.5H1465.684z
		"/>
	<path fill="#231F20" d="M1755.25,739.697c0-7.2-2.6-9.2-9.9-10.9v-1.5h23.802v1.5c-6.001,1.7-9.301,3.7-9.301,10.9v27.401
		c0,17.602-10.101,26.103-26.002,26.103c-14.601,0-27.302-5.9-27.302-24.302v-32.603c0-4.5-1.199-5.8-8.5-7.5v-1.5h27.602v1.5
		c-7.301,1.7-8.5,3-8.5,7.5v28.603c0,17.4,6.4,24.301,18.801,24.301c11.2,0,19.301-6.5,19.301-21.101V739.697z"/>
	<path fill="#231F20" d="M256.369,1068.8l-25.202-56.504c-1.8-4.1-2.1-5.8-9-7.5v-1.5h27.901v1.5c-7.3,1.7-8.301,3.4-6.601,7.5
		l17.102,41.003h0.6l14.201-37.603c2.601-6.7,0.2-9.2-7.101-10.9v-1.5h22.602v1.5c-5.601,1.7-8.2,4.4-11.101,11.501l-20.602,52.503
		H256.369z"/>
	<path fill="#231F20" d="M533.35,1068.8l-19.901-47.303h-0.7l-16.801,47.303h-2.8l-21.502-56.504c-1.6-4.2-2.1-5.8-9-7.5v-1.5
		h27.901v1.5c-7.3,1.7-8.101,3.3-6.601,7.5L497.348,1051h0.7l16.7-48.703h2.9L537.35,1051h0.7l10.9-35.303
		c2.101-6.8,0.2-9.2-7.1-10.9v-1.5h22.601v1.5c-5.6,1.7-8.7,4.2-11.101,11.501l-17.201,52.503H533.35z"/>
	<path fill="#231F20" d="M774.328,1067.6v-1.5c6.6-1.7,6.8-3.801,4.3-7.501l-12.501-18.501h-0.699l-10.301,15.102
		c-3.9,6-3,9.2,3.7,10.9v1.5h-22.002v-1.5c5.001-1.7,9.401-5.2,13.901-11.501l12.601-17.801l-16.801-24.502
		c-2.601-3.6-4.101-5.8-10.001-7.5v-1.5h27.202v1.5c-6.601,1.7-6.701,3.8-4.301,7.5l10.601,15.802h0.7l8.4-12.401
		c3.9-5.9,3-9.2-3.7-10.9v-1.5h22.002v1.5c-5.001,1.7-9.401,5.2-13.901,11.501l-10.801,15.2l18.901,27.102
		c2.5,3.601,4.4,5.801,10.301,7.501v1.5H774.328z"/>
	<path fill="#231F20" d="M985.308,1067.6v-1.5c9.3-1.7,10.5-3,10.5-7.501v-16.801l-17.201-29.502c-2.2-3.9-4.1-5.8-9-7.5v-1.5
		h26.302v1.5c-6.601,1.7-6.4,3.7-4.301,7.5l12.501,23.302h0.7l9.4-19.901c3.101-6.4,2.4-9.2-4.2-10.9v-1.5h20.301v1.5
		c-4.7,1.7-8.5,4.601-11.9,11.501l-11.9,24.101v18.201c0,4.501,1.2,5.801,10.5,7.501v1.5H985.308z"/>
	<path fill="#231F20" d="M1205.285,1067.6v-1.5l35.303-58.403v-0.7h-15.701c-5.7,0-10.9,1.2-16.201,14.601h-1.6v-18.301h47.202v1.5
		l-35.302,58.403v0.7h16.601c5.801,0,11.001-1.8,16.302-15.601h1.5v19.301H1205.285z"/>
	<path fill="#231F20" d="M1470.969,1067.6v-1.5c7.301-1.7,8.5-3,8.5-7.501v-11.4h-24.501l-5.301,8.001c-4,6-3.7,9.2,3.601,10.9v1.5
		h-22.901v-1.5c5.601-1.7,10.301-5.101,14.601-11.501l34.502-51.303h39.603v14.9h-1.6c-5.601-10.4-10.801-11.2-16.901-11.2h-10.4
		v24.701h6c6.7,0,9.601-0.7,13.301-9.301h1.601v22.302h-1.601c-3.7-8.501-6.601-9.301-13.301-9.301h-6v28.502h10.4
		c6.101,0,11.301-1.2,16.901-13.201h1.6v16.901H1470.969z M1457.368,1043.499h22.101v-32.402h-0.6L1457.368,1043.499z"/>
	<path fill="#231F20" d="M1742.648,1088.702c6-5.001,6.601-11.501,6.601-21.002v-7.9l-37.402-43.603h-0.601l0.301,19.802v19.201
		c0,7.2,3.399,9.2,11,10.9v1.5h-25.401v-1.5c6.5-1.7,9.801-3.7,9.801-10.9v-39.503c0-7.2-3.301-9.2-9.801-10.9v-1.5h18.701
		l39.103,45.603h0.7l-0.301-19.801v-13.401c0-7.2-3.399-9.2-11-10.9v-1.5h24.701v1.5c-5.8,1.7-9.101,3.7-9.101,10.9v48.003
		c0,12.301-6.7,20.701-15.9,26.401L1742.648,1088.702z"/>
	<path fill="#231F20" d="M248.568,1327.699h1.601c3.8,9.001,9.101,13.701,15.101,13.701c5.101,0,9.301-3.8,9.301-11.7
		c0-9.501-6.4-16.802-16.001-19.802v-1.5l13.101-25.201c-3.4-1.301-7.101-1.7-10.301-1.7c-12.001,0-18.101,8.4-18.101,20.501v41.603
		h-19.102v-1.5c7.301-1.7,8.501-3,8.501-7.501v-30.901c0-16.101,11.5-26.002,26.901-26.002c4.8,0,14.001,1.101,22.201,5.7v1.501
		l-13.101,25.201c8.4,2.3,17.501,7.7,17.501,17.301c0,11.001-11.201,17.802-22.401,17.802c-5.2,0-10.501-1.4-15.201-3.9V1327.699z"
		/>
	<path fill="#231F20" d="M466.162,1343.6v-1.5c7.301-1.7,8.501-3,8.501-7.501v-23.201h-9.701v-3.7h9.701v-19.401
		c0-4.5-1.2-5.8-8.501-7.5v-1.5h29.102c19.701,0,37.003,10.5,37.003,30.401c0,22.201-16.701,33.902-37.603,33.902H466.162z
		 M495.964,1339.9c15.101,0,24.302-11.201,24.302-28.102c0-13.801-7.2-28.802-26.401-28.802h-8.601v24.701h15.301v3.7h-15.301
		v28.502H495.964z"/>
	<path fill="#231F20" d="M711.858,1343.6v-1.5c7.301-1.7,8.501-3,8.501-7.501v-46.303c0-4.5-1.2-5.8-8.501-7.5v-1.5h27.602v1.5
		c-7.3,1.7-8.5,3-8.5,7.5v46.303c0,4.501,1.2,5.801,8.5,7.501v1.5H711.858z M773.062,1288.296c0-4.5-1.2-5.8-10.501-7.5v-1.5h29.602
		v1.5c-7.3,1.7-8.5,3-8.5,7.5v33.502c0,16.201-10.901,23.402-20.701,23.402c-3.7,0-10.501-1.101-14.901-3.301v-15.201h1.5
		c4.801,10.701,8.9,14.701,15.301,14.701c3.4,0,8.201-2,8.201-9.2V1288.296z"/>
	<path fill="#231F20" d="M1005.059,1343.6c-19.701,0-36.202-10.501-36.202-31.602c0-21.102,17.401-32.702,38.402-32.702h46.803v14.9
		h-1.6c-5.601-10.4-10.801-11.2-16.901-11.2h-10.4v24.701h6c6.7,0,9.601-0.7,13.301-9.301h1.601v22.302h-1.601
		c-3.7-8.501-6.601-9.301-13.301-9.301h-6v28.502h10.4c6.101,0,11.301-1.2,16.901-13.201h1.6v16.901H1005.059z M1014.459,1282.997
		h-8.601c-17.701,0-25.102,13.2-25.102,26.901c0,17.701,9.001,30.002,25.602,30.002h8.101V1282.997z"/>
	<path fill="#231F20" d="M1239.752,1349.3l7.601-10.9c-7.4-5.601-12.001-14.501-12.001-26.102c0-20.501,15.801-34.603,34.402-34.603
		c6.301,0,12.101,1.5,17.201,4.2l7.5-10.7l3.4,2.4l-7.4,10.5c7.601,5.601,12.501,14.701,12.501,26.502
		c0,20.501-15.801,34.603-34.402,34.603c-6.5,0-12.601-1.601-17.701-4.501l-7.7,11.001L1239.752,1349.3z M1252.652,1330.899
		l30.002-42.902c-3.5-3.9-8.3-6.5-14.601-6.5c-13.301,0-20.701,12.4-20.701,27.401
		C1247.353,1315.999,1248.853,1324.399,1252.652,1330.899z M1290.955,1313.999c0-7.301-1.6-16.001-5.601-22.502l-30.201,43.003
		c3.5,4.2,8.4,6.9,15.001,6.9C1283.555,1341.4,1290.955,1328.899,1290.955,1313.999z"/>
	<path fill="#231F20" d="M1502.05,1328.399v6.2c0,4.501,1.2,5.801,10.5,7.501v1.5h-29.602v-1.5c7.301-1.7,8.501-3,8.501-7.501
		v-46.303c0-4.5-1.2-5.8-8.501-7.5v-1.5h29.602v1.5c-9.3,1.7-10.5,3-10.5,7.5v1.301h6.1c13.301,0,24.902,5.7,24.902,18.501
		c0,13.601-11.201,20.301-25.802,20.301H1502.05z M1502.05,1293.297v31.401h6.3c8.101,0,13.301-6.2,13.301-15.701
		c0-10-5.7-15.7-14.7-15.7H1502.05z"/>
	<path fill="#231F20" d="M1741.148,1343.6v-1.5c7.301-1.7,8.4-3.4,6.7-7.501l-4.8-11.4h-25.302l-3.2,8.001
		c-2.7,6.6-0.2,9.2,7.101,10.9v1.5h-22.602v-1.5c5.601-1.7,8.101-4.4,11.101-11.501l21.701-52.503h2.9l25.302,56.503
		c1.8,4.101,2.1,5.801,9,7.501v1.5H1741.148z M1719.247,1319.499h22.201l-10.9-25.901h-0.7L1719.247,1319.499z M1724.447,1273.996
		l-0.9-1.399l16.701-15.602l5.501,6.101v1.5L1724.447,1273.996z"/>
	<path fill="#231F20" d="M264.27,1619.6v-1.5c7.301-1.7,8.4-3.4,6.7-7.501l-4.8-11.4h-25.302l-3.2,8.001
		c-2.7,6.6-0.2,9.2,7.101,10.9v1.5h-22.602v-1.5c5.601-1.7,8.101-4.4,11.101-11.501l21.701-52.503h2.9l25.302,56.503
		c1.8,4.101,2.1,5.801,9,7.501v1.5H264.27z M242.368,1595.499h22.201l-10.9-25.901h-0.7L242.368,1595.499z M270.17,1533.595
		c0,8.601-4.4,15.601-13.801,15.601c-9.501,0-13.901-7-13.901-15.601l1.601-0.2c1.5,4.8,5.8,7.8,12.301,7.8c6.4,0,10.7-3,12.2-7.8
		L270.17,1533.595z"/>
	<path fill="#231F20" d="M510.749,1619.6v-1.5c7.301-1.7,8.4-3.4,6.7-7.501l-4.8-11.4h-25.302l-3.2,8.001
		c-2.7,6.6-0.2,9.2,7.101,10.9v1.5h-22.602v-1.5c5.601-1.7,8.101-4.4,11.101-11.501l21.701-52.503h2.9l25.302,56.503
		c1.8,4.101,2.1,5.801,9,7.501v1.5H510.749z M502.748,1542.395l-14.7,6.301l-1-1.5l13.601-13.401h4.3l13.602,13.401l-1.001,1.5
		L502.748,1542.395z M488.848,1595.499h22.201l-10.9-25.901h-0.7L488.848,1595.499z"/>
	<path fill="#231F20" d="M757.229,1619.6v-1.5c7.301-1.7,8.4-3.4,6.7-7.501l-4.8-11.4h-25.302l-3.2,8.001
		c-2.7,6.6-0.2,9.2,7.101,10.9v1.5h-22.602v-1.5c5.601-1.7,8.101-4.4,11.101-11.501l21.701-52.503h2.9l25.302,56.503
		c1.8,4.101,2.1,5.801,9,7.501v1.5H757.229z M731.227,1540.195c0-3.5,2.7-6.4,6.501-6.4c3.8,0,6.4,2.9,6.4,6.4
		c0,3.601-2.601,6.501-6.4,6.501C733.927,1546.696,731.227,1543.795,731.227,1540.195z M735.327,1595.499h22.201l-10.9-25.901h-0.7
		L735.327,1595.499z M754.428,1540.195c0-3.5,2.7-6.4,6.4-6.4c3.801,0,6.501,2.9,6.501,6.4c0,3.601-2.7,6.501-6.501,6.501
		C757.128,1546.696,754.428,1543.795,754.428,1540.195z"/>
	<path fill="#231F20" d="M1003.708,1619.6v-1.5c7.301-1.7,8.4-3.4,6.7-7.501l-4.8-11.4h-25.302l-3.2,8.001
		c-2.7,6.6-0.2,9.2,7.101,10.9v1.5h-22.602v-1.5c5.601-1.7,8.101-4.4,11.101-11.501l21.701-52.503h2.9l25.302,56.503
		c1.8,4.101,2.1,5.801,9,7.501v1.5H1003.708z M981.807,1595.499h22.201l-10.9-25.901h-0.7L981.807,1595.499z M983.507,1540.595v-1.5
		l5.5-6.101l16.701,15.602l-0.9,1.399L983.507,1540.595z"/>
	<path fill="#231F20" d="M1250.188,1619.6v-1.5c7.301-1.7,8.4-3.4,6.7-7.501l-4.8-11.4h-25.302l-3.2,8.001
		c-2.7,6.6-0.2,9.2,7.101,10.9v1.5h-22.602v-1.5c5.601-1.7,8.101-4.4,11.101-11.501l21.701-52.503h2.9l25.302,56.503
		c1.8,4.101,2.1,5.801,9,7.501v1.5H1250.188z M1225.486,1542.696v-4.7h33.002v4.7H1225.486z M1228.286,1595.499h22.201l-10.9-25.901
		h-0.7L1228.286,1595.499z"/>
	<path fill="#231F20" d="M1524.566,1637.101c-3.2,3.801-7.5,5.9-11.4,5.9c-5.601,0-8.601-3.4-8.601-7.601
		c0-4.601,3.4-10.2,12.101-15.801h-20.001v-1.5c7.301-1.7,8.4-3.4,6.7-7.501l-4.8-11.4h-25.302l-3.2,8.001
		c-2.7,6.6-0.2,9.2,7.101,10.9v1.5h-22.602v-1.5c5.601-1.7,8.101-4.4,11.101-11.501l21.701-52.503h2.9l25.302,56.503
		c1.8,4.101,2.1,5.801,9,7.501v1.5h-5.2c-4.9,4.7-6.801,9.7-6.801,12.801c0,3.3,2.001,5.2,5.101,5.2c1.7,0,3.801-0.5,6.101-1.8
		L1524.566,1637.101z M1474.764,1595.499h22.201l-10.9-25.901h-0.7L1474.764,1595.499z"/>
	<path fill="#231F20" d="M1743.145,1619.6v-1.5c7.301-1.7,8.4-3.4,6.7-7.501l-4.8-11.4h-25.302l-3.2,8.001
		c-2.7,6.6-0.2,9.2,7.101,10.9v1.5h-22.602v-1.5c5.601-1.7,8.101-4.4,11.101-11.501l21.701-52.503h2.9l25.302,56.503
		c1.8,4.101,2.1,5.801,9,7.501v1.5H1743.145z M1752.545,1535.295c-1.5,8.1-4.9,12.801-10.001,12.801c-5.7,0-11.8-5.201-16.2-5.201
		c-2.301,0-5.101,1.801-6.601,5.601l-1.5-0.6c1.5-8.101,4.9-12.701,10-12.701c5.7,0,11.801,5.2,16.201,5.2
		c2.3,0,5.101-1.8,6.601-5.601L1752.545,1535.295z M1721.243,1595.499h22.201l-10.9-25.901h-0.7L1721.243,1595.499z"/>
	<path fill="#231F20" d="M281.171,1892.3c-7.201,3.7-15.802,4.9-22.401,4.9c-18.901,0-34.303-11.901-34.303-33.202
		c0-20.502,16.401-34.303,36.502-34.303c5.9,0,13.001,0.9,19.901,3.2v15.001h-1.5c-5-10.101-11.4-14.4-19.501-14.4
		c-15.101,0-23.401,13.101-23.401,28.401c0,12.701,5.601,31.502,23.501,31.502c8.101,0,15.102-5.7,19.701-16.401h1.501V1892.3z
		 M246.868,1825.996l-0.899-1.399l16.7-15.602l5.501,6.101v1.5L246.868,1825.996z"/>
	<path fill="#231F20" d="M526.25,1892.3c-7.201,3.7-15.802,4.9-22.401,4.9c-18.901,0-34.303-11.901-34.303-33.202
		c0-20.502,16.401-34.303,36.502-34.303c5.9,0,13.001,0.9,19.901,3.2v15.001h-1.5c-5-10.101-11.4-14.4-19.501-14.4
		c-15.101,0-23.401,13.101-23.401,28.401c0,12.701,5.601,31.502,23.501,31.502c8.101,0,15.102-5.7,19.701-16.401h1.501V1892.3z
		 M504.349,1824.295h-4.301l-13.601-13.4l1-1.4l14.701,6.301l14.801-6.301l1,1.4L504.349,1824.295z"/>
	<path fill="#231F20" d="M741.627,1917.402c3.7-1.4,6-3.501,6-6.001c0-1.9-1.7-3.9-7.2-4.5v-1.601l5.4-8.2
		c-17.501-1.3-31.202-13.001-31.202-33.102c0-20.502,16.401-34.303,36.502-34.303c5.9,0,13.001,0.9,19.901,3.2v15.001h-1.5
		c-5-10.101-11.4-14.4-19.501-14.4c-15.101,0-23.401,13.101-23.401,28.401c0,12.701,5.601,31.502,23.501,31.502
		c8.101,0,15.102-5.7,19.701-16.401h1.501v15.302c-7.001,3.6-15.302,4.8-21.802,4.9l-2.5,4c4.9,0.899,8.5,3.7,8.5,7.7
		c0,5.4-5.5,9.001-13.4,10.101L741.627,1917.402z"/>
	<path fill="#231F20" d="M1016.408,1892.3c-7.201,3.7-15.802,4.9-22.401,4.9c-18.901,0-34.303-11.901-34.303-33.202
		c0-20.502,16.401-34.303,36.502-34.303c5.9,0,13.001,0.9,19.901,3.2v15.001h-1.5c-5-10.101-11.4-14.4-19.501-14.4
		c-15.101,0-23.401,13.101-23.401,28.401c0,12.701,5.601,31.502,23.501,31.502c8.101,0,15.102-5.7,19.701-16.401h1.501V1892.3z
		 M992.606,1818.395l-14.701,6.301l-1-1.5l13.601-13.401h4.301l13.601,13.401l-1,1.5L992.606,1818.395z"/>
	<path fill="#231F20" d="M1261.487,1892.3c-7.201,3.7-15.802,4.9-22.401,4.9c-18.901,0-34.303-11.901-34.303-33.202
		c0-20.502,16.401-34.303,36.502-34.303c5.9,0,13.001,0.9,19.901,3.2v15.001h-1.5c-5-10.101-11.4-14.4-19.501-14.4
		c-15.101,0-23.401,13.101-23.401,28.401c0,12.701,5.601,31.502,23.501,31.502c8.101,0,15.102-5.7,19.701-16.401h1.501V1892.3z
		 M1231.285,1816.195c0-3.5,2.7-6.4,6.5-6.4c3.801,0,6.4,2.9,6.4,6.4c0,3.601-2.6,6.501-6.4,6.501
		C1233.985,1822.696,1231.285,1819.795,1231.285,1816.195z"/>
	<path fill="#231F20" d="M1450.562,1895.6v-1.5c7.301-1.7,8.501-3,8.501-7.501v-46.303c0-4.5-1.2-5.8-8.501-7.5v-1.5h29.102
		c19.701,0,37.003,10.5,37.003,30.401c0,22.201-16.701,33.902-37.603,33.902H1450.562z M1480.664,1824.295h-4.3l-13.601-13.4l1-1.4
		l14.7,6.301l14.802-6.301l1,1.4L1480.664,1824.295z M1480.364,1891.9c15.101,0,24.302-11.201,24.302-28.102
		c0-13.801-7.2-28.802-26.401-28.802h-8.601v56.903H1480.364z"/>
	<path fill="#231F20" d="M1703.042,1895.6v-1.5c7.301-1.7,8.501-3,8.501-7.501v-23.201h-9.701v-3.7h9.701v-19.401
		c0-4.5-1.2-5.8-8.501-7.5v-1.5h29.102c19.701,0,37.003,10.5,37.003,30.401c0,22.201-16.701,33.902-37.603,33.902H1703.042z
		 M1732.844,1891.9c15.101,0,24.302-11.201,24.302-28.102c0-13.801-7.2-28.802-26.401-28.802h-8.601v24.701h15.301v3.7h-15.301
		v28.502H1732.844z"/>
	<path fill="#231F20" d="M225.167,2171.6v-1.5c7.301-1.7,8.501-3,8.501-7.501v-46.303c0-4.5-1.2-5.8-8.501-7.5v-1.5h48.003v14.9
		h-1.5c-5.601-10.4-10.801-11.2-16.901-11.2h-10.5v24.701h6c6.801,0,9.601-0.7,13.4-9.301h1.501v22.302h-1.501
		c-3.8-8.501-6.6-9.301-13.4-9.301h-6v28.502h10.5c6.101,0,11.201-1.2,16.901-13.201h1.5v16.901H225.167z M240.868,2101.996
		l-0.9-1.399l16.701-15.602l5.5,6.101v1.5L240.868,2101.996z"/>
	<path fill="#231F20" d="M438.535,2171.6v-1.5c7.301-1.7,8.501-3,8.501-7.501v-46.303c0-4.5-1.2-5.8-8.501-7.5v-1.5h48.003v14.9
		h-1.5c-5.601-10.4-10.801-11.2-16.901-11.2h-10.5v24.701h6c6.801,0,9.601-0.7,13.4-9.301h1.501v22.302h-1.501
		c-3.8-8.501-6.6-9.301-13.4-9.301h-6v28.502h10.5c6.101,0,11.201-1.2,16.901-13.201h1.5v16.901H438.535z M478.037,2085.595
		c0,8.601-4.399,15.601-13.801,15.601c-9.5,0-13.9-7-13.9-15.601l1.6-0.2c1.501,4.8,5.801,7.8,12.301,7.8c6.4,0,10.701-3,12.201-7.8
		L478.037,2085.595z"/>
	<path fill="#231F20" d="M651.903,2171.6v-1.5c7.301-1.7,8.501-3,8.501-7.501v-46.303c0-4.5-1.2-5.8-8.501-7.5v-1.5h48.003v14.9
		h-1.5c-5.601-10.4-10.801-11.2-16.901-11.2h-10.5v24.701h6c6.801,0,9.601-0.7,13.4-9.301h1.501v22.302h-1.501
		c-3.8-8.501-6.6-9.301-13.4-9.301h-6v28.502h10.5c6.101,0,11.201-1.2,16.901-13.201h1.5v16.901H651.903z M679.305,2100.295h-4.3
		l-13.601-13.4l1-1.4l14.7,6.301l14.802-6.301l1,1.4L679.305,2100.295z"/>
	<path fill="#231F20" d="M865.271,2171.6v-1.5c7.301-1.7,8.501-3,8.501-7.501v-46.303c0-4.5-1.2-5.8-8.501-7.5v-1.5h48.003v14.9
		h-1.5c-5.601-10.4-10.801-11.2-16.901-11.2h-10.5v24.701h6c6.801,0,9.601-0.7,13.4-9.301h1.501v22.302h-1.501
		c-3.8-8.501-6.6-9.301-13.4-9.301h-6v28.502h10.5c6.101,0,11.201-1.2,16.901-13.201h1.5v16.901H865.271z M872.271,2092.195
		c0-3.5,2.7-6.4,6.501-6.4c3.8,0,6.4,2.9,6.4,6.4c0,3.601-2.601,6.501-6.4,6.501
		C874.972,2098.696,872.271,2095.795,872.271,2092.195z M895.474,2092.195c0-3.5,2.7-6.4,6.4-6.4c3.8,0,6.5,2.9,6.5,6.4
		c0,3.601-2.7,6.501-6.5,6.501C898.174,2098.696,895.474,2095.795,895.474,2092.195z"/>
	<path fill="#231F20" d="M1078.639,2171.6v-1.5c7.301-1.7,8.501-3,8.501-7.501v-46.303c0-4.5-1.2-5.8-8.501-7.5v-1.5h48.003v14.9
		h-1.5c-5.601-10.4-10.801-11.2-16.901-11.2h-10.5v24.701h6c6.801,0,9.601-0.7,13.4-9.301h1.501v22.302h-1.501
		c-3.8-8.501-6.6-9.301-13.4-9.301h-6v28.502h10.5c6.101,0,11.201-1.2,16.901-13.201h1.5v16.901H1078.639z M1097.04,2092.195
		c0-3.5,2.7-6.4,6.5-6.4c3.801,0,6.4,2.9,6.4,6.4c0,3.601-2.6,6.501-6.4,6.501C1099.74,2098.696,1097.04,2095.795,1097.04,2092.195z
		"/>
	<path fill="#231F20" d="M1292.007,2171.6v-1.5c7.301-1.7,8.501-3,8.501-7.501v-46.303c0-4.5-1.2-5.8-8.501-7.5v-1.5h48.003v14.9
		h-1.5c-5.601-10.4-10.801-11.2-16.901-11.2h-10.5v24.701h6c6.801,0,9.601-0.7,13.4-9.301h1.501v22.302h-1.501
		c-3.8-8.501-6.6-9.301-13.4-9.301h-6v28.502h10.5c6.101,0,11.201-1.2,16.901-13.201h1.5v16.901H1292.007z M1303.508,2092.595v-1.5
		l5.5-6.101l16.701,15.602l-0.9,1.399L1303.508,2092.595z"/>
	<path fill="#231F20" d="M1505.375,2171.6v-1.5c7.301-1.7,8.501-3,8.501-7.501v-46.303c0-4.5-1.2-5.8-8.501-7.5v-1.5h48.003v14.9
		h-1.5c-5.601-10.4-10.801-11.2-16.901-11.2h-10.5v24.701h6c6.801,0,9.601-0.7,13.4-9.301h1.501v22.302h-1.501
		c-3.8-8.501-6.6-9.301-13.4-9.301h-6v28.502h10.5c6.101,0,11.201-1.2,16.901-13.201h1.5v16.901H1505.375z M1514.176,2094.696v-4.7
		h33.002v4.7H1514.176z"/>
	<path fill="#231F20" d="M1766.646,2189.101c-3.2,3.801-7.501,5.9-11.401,5.9c-5.6,0-8.601-3.4-8.601-7.601
		c0-4.601,3.4-10.2,12.102-15.801h-40.003v-1.5c7.301-1.7,8.501-3,8.501-7.501v-46.303c0-4.5-1.2-5.8-8.501-7.5v-1.5h48.003v14.9
		h-1.5c-5.601-10.4-10.801-11.2-16.901-11.2h-10.5v24.701h6c6.801,0,9.601-0.7,13.4-9.301h1.501v22.302h-1.501
		c-3.8-8.501-6.6-9.301-13.4-9.301h-6v28.502h10.5c6.101,0,11.201-1.2,16.901-13.201h1.5v16.901h-5.301
		c-4.899,4.7-6.8,9.7-6.8,12.801c0,3.3,2,5.2,5.101,5.2c1.699,0,3.8-0.5,6.1-1.8L1766.646,2189.101z"/>
	<path fill="#231F20" d="M260.169,2449.199c-20.301,0-35.702-11.9-35.702-33.201c0-20.502,16.401-34.303,36.502-34.303
		c5.9,0,13.901,0.9,20.702,3.2v15.001h-1.501c-4.899-10.101-11.9-14.4-20.301-14.4c-15.101,0-23.401,13.101-23.401,28.401
		c0,13.101,6.101,31.502,26.701,31.502c3.301,0,6.701-0.5,9.901-1.3v-14.301c0-4.501-1.5-5.801-9.501-7.501v-1.5h20.102v22.802
		C277.471,2446.599,269.069,2449.199,260.169,2449.199z M271.47,2361.594c0,8.601-4.4,15.601-13.801,15.601
		c-9.501,0-13.9-7-13.9-15.601l1.6-0.2c1.5,4.8,5.801,7.801,12.301,7.801c6.4,0,10.701-3.001,12.201-7.801L271.47,2361.594z"/>
	<path fill="#231F20" d="M507.982,2449.199c-20.301,0-35.702-11.9-35.702-33.201c0-20.502,16.401-34.303,36.502-34.303
		c5.9,0,13.901,0.9,20.702,3.2v15.001h-1.501c-4.899-10.101-11.9-14.4-20.301-14.4c-15.101,0-23.401,13.101-23.401,28.401
		c0,13.101,6.101,31.502,26.701,31.502c3.301,0,6.701-0.5,9.901-1.3v-14.301c0-4.501-1.5-5.801-9.501-7.501v-1.5h20.102v22.802
		C525.283,2446.599,516.883,2449.199,507.982,2449.199z M506.282,2370.394l-14.7,6.301l-1-1.5l13.601-13.401h4.3l13.602,13.401
		l-1.001,1.5L506.282,2370.394z"/>
	<path fill="#231F20" d="M755.796,2449.199c-20.301,0-35.702-11.9-35.702-33.201c0-20.502,16.401-34.303,36.502-34.303
		c5.9,0,13.901,0.9,20.702,3.2v15.001h-1.501c-4.899-10.101-11.9-14.4-20.301-14.4c-15.101,0-23.401,13.101-23.401,28.401
		c0,13.101,6.101,31.502,26.701,31.502c3.301,0,6.701-0.5,9.901-1.3v-14.301c0-4.501-1.5-5.801-9.501-7.501v-1.5h20.102v22.802
		C773.098,2446.599,764.696,2449.199,755.796,2449.199z M750.396,2472v-18.201h9.501v1.5L751.896,2472H750.396z"/>
	<path fill="#231F20" d="M1003.608,2449.199c-20.301,0-35.702-11.9-35.702-33.201c0-20.502,16.401-34.303,36.502-34.303
		c5.9,0,13.901,0.9,20.702,3.2v15.001h-1.501c-4.899-10.101-11.9-14.4-20.301-14.4c-15.101,0-23.401,13.101-23.401,28.401
		c0,13.101,6.101,31.502,26.701,31.502c3.301,0,6.701-0.5,9.901-1.3v-14.301c0-4.501-1.5-5.801-9.501-7.501v-1.5h20.102v22.802
		C1020.91,2446.599,1012.509,2449.199,1003.608,2449.199z M994.908,2368.194c0-3.5,2.7-6.4,6.5-6.4c3.801,0,6.4,2.9,6.4,6.4
		c0,3.601-2.6,6.501-6.4,6.501C997.608,2374.695,994.908,2371.794,994.908,2368.194z"/>
	<path fill="#231F20" d="M1263.223,2447.599v-1.5c7.301-1.7,8.501-3,8.501-7.501v-23.201h-36.202v23.201
		c0,4.501,1.199,5.801,8.5,7.501v1.5h-27.602v-1.5c7.301-1.7,8.501-3,8.501-7.501v-37.902h-8.501v-3.7h8.501v-4.7
		c0-4.5-1.2-5.8-8.501-7.5v-1.5h27.602v1.5c-7.301,1.7-8.5,3-8.5,7.5v4.7h36.202v-4.7c0-4.5-1.2-5.8-8.501-7.5v-1.5h27.702v1.5
		c-7.301,1.7-8.501,3-8.501,7.5v4.7h8.501v3.7h-8.501v37.902c0,4.501,1.2,5.801,8.501,7.501v1.5H1263.223z M1235.521,2411.697
		h36.202v-11.001h-36.202V2411.697z"/>
	<path fill="#231F20" d="M1525.235,2447.599v-1.5c7.301-1.7,8.501-3,8.501-7.501v-23.201h-36.202v23.201
		c0,4.501,1.2,5.801,8.5,7.501v1.5h-27.602v-1.5c7.301-1.7,8.501-3,8.501-7.501v-46.303c0-4.5-1.2-5.8-8.501-7.5v-1.5h27.602v1.5
		c-7.3,1.7-8.5,3-8.5,7.5v19.401h36.202v-19.401c0-4.5-1.2-5.8-8.501-7.5v-1.5h27.702v1.5c-7.301,1.7-8.501,3-8.501,7.5v46.303
		c0,4.501,1.2,5.801,8.501,7.501v1.5H1525.235z M1515.535,2370.394l-14.701,6.301l-1-1.5l13.601-13.401h4.301l13.601,13.401l-1,1.5
		L1515.535,2370.394z"/>
	<path fill="#231F20" d="M1740.444,2447.599v-1.5c7.301-1.7,8.501-3,8.501-7.501v-46.303c0-4.5-1.2-5.8-8.501-7.5v-1.5h27.602v1.5
		c-7.3,1.7-8.5,3-8.5,7.5v46.303c0,4.501,1.2,5.801,8.5,7.501v1.5H1740.444z M1744.944,2377.995l-0.899-1.399l16.701-15.602
		l5.5,6.101v1.5L1744.944,2377.995z"/>
	<path fill="#231F20" d="M252.869,2637.594c0,8.601-4.4,15.601-13.801,15.601c-9.501,0-13.901-7-13.901-15.601l1.601-0.2
		c1.5,4.8,5.8,7.801,12.301,7.801c6.4,0,10.7-3.001,12.2-7.801L252.869,2637.594z M225.167,2723.6v-1.5
		c7.301-1.701,8.501-3,8.501-7.502v-46.302c0-4.5-1.2-5.8-8.501-7.5v-1.5h27.602v1.5c-7.3,1.7-8.5,3-8.5,7.5v46.302
		c0,4.502,1.2,5.801,8.5,7.502v1.5H225.167z"/>
	<path fill="#231F20" d="M426.277,2646.394l-14.701,6.301l-1-1.5l13.602-13.401h4.3l13.601,13.401l-1,1.5L426.277,2646.394z
		 M412.477,2723.6v-1.5c7.301-1.701,8.501-3,8.501-7.502v-46.302c0-4.5-1.2-5.8-8.501-7.5v-1.5h27.602v1.5c-7.301,1.7-8.5,3-8.5,7.5
		v46.302c0,4.502,1.199,5.801,8.5,7.502v1.5H412.477z"/>
	<path fill="#231F20" d="M598.187,2644.194c0-3.5,2.7-6.4,6.5-6.4c3.7,0,6.4,2.9,6.4,6.4c0,3.601-2.7,6.501-6.4,6.501
		C600.887,2650.695,598.187,2647.794,598.187,2644.194z M599.786,2723.6v-1.5c7.301-1.701,8.501-3,8.501-7.502v-46.302
		c0-4.5-1.2-5.8-8.501-7.5v-1.5h27.602v1.5c-7.3,1.7-8.5,3-8.5,7.5v46.302c0,4.502,1.2,5.801,8.5,7.502v1.5H599.786z
		 M615.987,2644.194c0-3.5,2.7-6.4,6.5-6.4c3.801,0,6.501,2.9,6.501,6.4c0,3.601-2.7,6.501-6.501,6.501
		C618.688,2650.695,615.987,2647.794,615.987,2644.194z"/>
	<path fill="#231F20" d="M787.097,2723.6v-1.5c7.301-1.701,8.501-3,8.501-7.502v-46.302c0-4.5-1.2-5.8-8.501-7.5v-1.5h27.602v1.5
		c-7.3,1.7-8.5,3-8.5,7.5v46.302c0,4.502,1.2,5.801,8.5,7.502v1.5H787.097z M794.397,2644.194c0-3.5,2.7-6.4,6.5-6.4
		c3.801,0,6.4,2.9,6.4,6.4c0,3.601-2.6,6.501-6.4,6.501C797.098,2650.695,794.397,2647.794,794.397,2644.194z"/>
	<path fill="#231F20" d="M974.406,2723.6v-1.5c7.301-1.701,8.501-3,8.501-7.502v-46.302c0-4.5-1.2-5.8-8.501-7.5v-1.5h27.602v1.5
		c-7.301,1.7-8.5,3-8.5,7.5v46.302c0,4.502,1.199,5.801,8.5,7.502v1.5H974.406z M976.007,2644.594v-1.5l5.5-6.101l16.701,15.602
		l-0.9,1.399L976.007,2644.594z"/>
	<path fill="#231F20" d="M1161.315,2646.695v-4.701h28.402v4.701H1161.315z M1161.716,2723.6v-1.5c7.301-1.701,8.501-3,8.501-7.502
		v-46.302c0-4.5-1.2-5.8-8.501-7.5v-1.5h27.602v1.5c-7.3,1.7-8.5,3-8.5,7.5v46.302c0,4.502,1.2,5.801,8.5,7.502v1.5H1161.716z"/>
	<path fill="#231F20" d="M1376.527,2741.1c-3.2,3.801-7.501,5.9-11.401,5.9c-5.6,0-8.601-3.4-8.601-7.6
		c0-4.6,3.4-10.201,12.102-15.801h-19.602v-1.5c7.301-1.701,8.501-3,8.501-7.502v-46.302c0-4.5-1.2-5.8-8.501-7.5v-1.5h27.602v1.5
		c-7.301,1.7-8.5,3-8.5,7.5v46.302c0,4.502,1.199,5.801,8.5,7.502v1.5h-5.3c-4.9,4.699-6.801,9.699-6.801,12.801
		c0,3.299,2,5.199,5.101,5.199c1.7,0,3.8-0.5,6.1-1.799L1376.527,2741.1z"/>
	<path fill="#231F20" d="M1567.337,2639.294c-1.5,8.1-4.9,12.801-10.001,12.801c-5.7,0-11.801-5.201-16.2-5.201
		c-2.301,0-5.101,1.801-6.601,5.601l-1.5-0.6c1.5-8.101,4.9-12.701,10-12.701c5.7,0,11.801,5.2,16.201,5.2
		c2.3,0,5.101-1.8,6.601-5.6L1567.337,2639.294z M1536.335,2723.6v-1.5c7.301-1.701,8.501-3,8.501-7.502v-46.302
		c0-4.5-1.2-5.8-8.501-7.5v-1.5h27.602v1.5c-7.3,1.7-8.5,3-8.5,7.5v46.302c0,4.502,1.2,5.801,8.5,7.502v1.5H1536.335z"/>
	<path fill="#231F20" d="M1749.947,2668.295c0-4.5-1.2-5.8-10.501-7.5v-1.5h29.602v1.5c-7.3,1.7-8.5,3-8.5,7.5v33.501
		c0,16.201-10.9,23.402-20.701,23.402c-3.7,0-10.501-1.1-14.901-3.301v-15.201h1.5c4.801,10.701,8.901,14.701,15.302,14.701
		c3.399,0,8.2-2,8.2-9.199V2668.295z M1754.848,2646.394l-14.701,6.301l-1-1.5l13.601-13.401h4.301l13.601,13.401l-1,1.5
		L1754.848,2646.394z"/>
	<path fill="#231F20" d="M283.871,2936.795c-6.301,1.6-12.201,6.102-17.302,11.201l-13.101,13.102l33.302,37.002v1.5h-13.7
		l-28.802-34.604v25.602c0,4.502,1.2,5.801,8.5,7.502v1.5h-27.602v-1.5c7.301-1.701,8.501-3,8.501-7.502v-46.303
		c0-4.5-1.2-5.799-8.501-7.5v-1.5h27.602v1.5c-7.3,1.701-8.5,3-8.5,7.5v20.701l17.301-17.699c5-5.102,7.4-8.801,0.1-10.502v-1.5
		h22.202V2936.795z M249.769,3024v-18.201h9.501v1.5L251.269,3024H249.769z"/>
	<path fill="#231F20" d="M478.264,2999.6v-1.5c7.301-1.701,8.501-3,8.501-7.502v-46.303c0-4.5-1.2-5.799-8.501-7.5v-1.5h29.602v1.5
		c-9.301,1.701-10.5,3-10.5,7.5v51.604h8.5c6.101,0,11.201-1.6,16.901-15.6h1.5v19.301H478.264z M488.765,2929.994l-0.9-1.398
		l16.701-15.602l5.5,6.1v1.5L488.765,2929.994z"/>
	<path fill="#231F20" d="M716.86,2999.6v-1.5c7.301-1.701,8.501-3,8.501-7.502v-46.303c0-4.5-1.2-5.799-8.501-7.5v-1.5h29.602v1.5
		c-9.3,1.701-10.5,3-10.5,7.5v51.604h8.5c6.101,0,11.201-1.6,16.901-15.6h1.5v19.301H716.86z M750.963,2953.096v-20.102h9.3v1.502
		l-7.8,18.6H750.963z"/>
	<path fill="#231F20" d="M955.456,2999.6v-1.5c7.301-1.701,8.501-3,8.501-7.502v-46.303c0-4.5-1.2-5.799-8.501-7.5v-1.5h29.602v1.5
		c-9.3,1.701-10.5,3-10.5,7.5v51.604h8.5c6.101,0,11.201-1.6,16.901-15.6h1.5v19.301H955.456z M973.157,3024v-18.201h9.501v1.5
		L974.657,3024H973.157z"/>
	<path fill="#231F20" d="M1194.053,2999.6v-1.5c7.301-1.701,8.501-3,8.501-7.502v-46.303c0-4.5-1.2-5.799-8.501-7.5v-1.5h29.602v1.5
		c-9.301,1.701-10.5,3-10.5,7.5v51.604h8.5c6.101,0,11.201-1.6,16.901-15.6h1.5v19.301H1194.053z M1219.555,2966.498
		c0-3.301,2.6-6.102,6.1-6.102c3.601,0,6.201,2.801,6.201,6.102c0,3.398-2.601,6.199-6.201,6.199
		C1222.154,2972.697,1219.555,2969.896,1219.555,2966.498z"/>
	<path fill="#231F20" d="M1492.552,3000.799l-45.202-52.604h-0.601l0.301,19.803v19.201c0,7.199,3.399,9.199,11,10.9v1.5h-25.401
		v-1.5c6.5-1.701,9.801-3.701,9.801-10.9v-39.504c0-7.199-3.301-9.199-9.801-10.9v-1.5h18.701l39.103,45.604h0.7l-0.301-19.801
		v-13.402c0-7.199-3.399-9.199-11-10.9v-1.5h24.701v1.5c-5.8,1.701-9.101,3.701-9.101,10.9v53.104H1492.552z M1459.15,2929.994
		l-0.9-1.398l16.701-15.602l5.5,6.1v1.5L1459.15,2929.994z"/>
	<path fill="#231F20" d="M1757.048,3000.799l-45.202-52.604h-0.601l0.301,19.803v19.201c0,7.199,3.399,9.199,11,10.9v1.5h-25.401
		v-1.5c6.5-1.701,9.801-3.701,9.801-10.9v-39.504c0-7.199-3.301-9.199-9.801-10.9v-1.5h18.701l39.103,45.604h0.7l-0.301-19.801
		v-13.402c0-7.199-3.399-9.199-11-10.9v-1.5h24.701v1.5c-5.8,1.701-9.101,3.701-9.101,10.9v53.104H1757.048z M1734.547,2928.295
		h-4.301l-13.601-13.4l1-1.4l14.701,6.301l14.801-6.301l1,1.4L1734.547,2928.295z"/>
	<path fill="#231F20" d="M285.07,3276.799l-45.202-52.604h-0.601l0.301,19.803v19.201c0,7.199,3.399,9.199,11,10.9v1.5h-25.401v-1.5
		c6.5-1.701,9.801-3.701,9.801-10.9v-39.504c0-7.199-3.301-9.199-9.801-10.9v-1.5h18.701l39.103,45.604h0.7l-0.301-19.801v-13.402
		c0-7.199-3.399-9.199-11-10.9v-1.5h24.701v1.5c-5.8,1.701-9.101,3.701-9.101,10.9v53.104H285.07z M256.169,3300v-18.201h9.501v1.5
		L257.669,3300H256.169z"/>
	<path fill="#231F20" d="M532.267,3276.799l-45.202-52.604h-0.601l0.301,19.803v19.201c0,7.199,3.399,9.199,11,10.9v1.5h-25.401
		v-1.5c6.5-1.701,9.801-3.701,9.801-10.9v-39.504c0-7.199-3.301-9.199-9.801-10.9v-1.5h18.701l39.103,45.604h0.7l-0.301-19.801
		v-13.402c0-7.199-3.399-9.199-11-10.9v-1.5h24.701v1.5c-5.8,1.701-9.101,3.701-9.101,10.9v53.104H532.267z M525.267,3191.295
		c-1.5,8.1-4.9,12.801-10.001,12.801c-5.7,0-11.801-5.201-16.201-5.201c-2.3,0-5.1,1.801-6.6,5.6l-1.5-0.6
		c1.5-8.1,4.9-12.701,10-12.701c5.7,0,11.801,5.201,16.201,5.201c2.3,0,5.101-1.801,6.601-5.6L525.267,3191.295z"/>
	<path fill="#231F20" d="M717.159,3244.297c0-20.5,15.801-34.602,34.402-34.602c18.301,0,33.202,12.201,33.202,32.902
		c0,20.5-15.801,34.602-34.402,34.602C732.061,3277.199,717.159,3264.898,717.159,3244.297z M772.763,3245.998
		c0-13.801-5.601-32.502-22.901-32.502c-13.301,0-20.701,12.4-20.701,27.4c0,13.701,5.601,32.502,22.802,32.502
		C765.362,3273.398,772.763,3260.898,772.763,3245.998z M740.661,3205.994l-0.9-1.398l16.701-15.602l5.5,6.1v1.5L740.661,3205.994z"
		/>
	<path fill="#231F20" d="M962.457,3244.297c0-20.5,15.801-34.602,34.402-34.602c18.301,0,33.202,12.201,33.202,32.902
		c0,20.5-15.801,34.602-34.402,34.602C977.358,3277.199,962.457,3264.898,962.457,3244.297z M1018.061,3245.998
		c0-13.801-5.601-32.502-22.901-32.502c-13.301,0-20.701,12.4-20.701,27.4c0,13.701,5.601,32.502,22.802,32.502
		C1010.66,3273.398,1018.061,3260.898,1018.061,3245.998z M1010.061,3189.594c0,8.602-4.4,15.602-13.801,15.602
		c-9.501,0-13.901-7-13.901-15.602l1.601-0.199c1.5,4.799,5.8,7.801,12.301,7.801c6.4,0,10.7-3.002,12.2-7.801L1010.061,3189.594z"
		/>
	<path fill="#231F20" d="M1207.754,3244.297c0-20.5,15.801-34.602,34.402-34.602c18.301,0,33.202,12.201,33.202,32.902
		c0,20.5-15.801,34.602-34.402,34.602C1222.655,3277.199,1207.754,3264.898,1207.754,3244.297z M1263.357,3245.998
		c0-13.801-5.601-32.502-22.901-32.502c-13.301,0-20.701,12.4-20.701,27.4c0,13.701,5.601,32.502,22.802,32.502
		C1255.957,3273.398,1263.357,3260.898,1263.357,3245.998z M1223.455,3196.193c0-3.5,2.7-6.4,6.5-6.4c3.801,0,6.4,2.9,6.4,6.4
		c0,3.602-2.6,6.502-6.4,6.502C1226.155,3202.695,1223.455,3199.795,1223.455,3196.193z M1246.656,3196.193c0-3.5,2.7-6.4,6.4-6.4
		c3.801,0,6.501,2.9,6.501,6.4c0,3.602-2.7,6.502-6.501,6.502C1249.356,3202.695,1246.656,3199.795,1246.656,3196.193z"/>
	<path fill="#231F20" d="M1453.051,3244.297c0-20.5,15.801-34.602,34.402-34.602c18.301,0,33.202,12.201,33.202,32.902
		c0,20.5-15.801,34.602-34.402,34.602C1467.952,3277.199,1453.051,3264.898,1453.051,3244.297z M1508.654,3245.998
		c0-13.801-5.601-32.502-22.901-32.502c-13.301,0-20.701,12.4-20.701,27.4c0,13.701,5.601,32.502,22.802,32.502
		C1501.254,3273.398,1508.654,3260.898,1508.654,3245.998z M1471.252,3205.994l-0.9-1.398l14.401-15.602l6,5.6v1.6
		L1471.252,3205.994z M1488.553,3205.994l-1-1.398l14.401-15.602l6.101,5.6v1.6L1488.553,3205.994z"/>
	<path fill="#231F20" d="M1698.348,3244.297c0-20.5,15.801-34.602,34.402-34.602c18.301,0,33.202,12.201,33.202,32.902
		c0,20.5-15.801,34.602-34.402,34.602C1713.249,3277.199,1698.348,3264.898,1698.348,3244.297z M1753.951,3245.998
		c0-13.801-5.601-32.502-22.901-32.502c-13.301,0-20.701,12.4-20.701,27.4c0,13.701,5.601,32.502,22.802,32.502
		C1746.551,3273.398,1753.951,3260.898,1753.951,3245.998z M1715.549,3198.695v-4.701h33.002v4.701H1715.549z"/>
	<path fill="#231F20" d="M224.467,3520.297c0-20.5,15.801-34.602,34.402-34.602c18.301,0,33.202,12.201,33.202,32.902
		c0,20.5-15.801,34.602-34.402,34.602C239.368,3553.199,224.467,3540.898,224.467,3520.297z M280.07,3521.998
		c0-13.801-5.601-32.502-22.901-32.502c-13.301,0-20.701,12.4-20.701,27.4c0,13.701,5.601,32.502,22.802,32.502
		C272.67,3549.398,280.07,3536.898,280.07,3521.998z M275.37,3467.295c-1.5,8.1-4.9,12.801-10.001,12.801
		c-5.7,0-11.801-5.201-16.2-5.201c-2.301,0-5.101,1.801-6.601,5.6l-1.5-0.6c1.5-8.1,4.9-12.701,10-12.701
		c5.7,0,11.801,5.201,16.201,5.201c2.3,0,5.101-1.801,6.601-5.6L275.37,3467.295z"/>
	<path fill="#231F20" d="M500.467,3551.6l-17.901-27.602c-1,0.1-2.1,0.1-3.1,0.1h-5.2v18.5c0,4.502,1.199,5.801,8.5,7.502v1.5
		h-27.602v-1.5c7.301-1.701,8.501-3,8.501-7.502v-46.303c0-4.5-1.2-5.799-8.501-7.5v-1.5h25.201c13.301,0,24.902,5.5,24.902,17.502
		c0,9.1-5.601,15-14.102,17.701l22.602,27.602v1.5H500.467z M471.465,3481.994l-0.899-1.398l16.7-15.602l5.501,6.1v1.5
		L471.465,3481.994z M480.565,3520.396c8.101,0,13.301-6.1,13.301-14.801c0-9.1-5.7-14.6-14.7-14.6h-4.9v29.4H480.565z"/>
	<path fill="#231F20" d="M720.164,3551.6l-17.901-27.602c-1,0.1-2.1,0.1-3.1,0.1h-5.2v18.5c0,4.502,1.199,5.801,8.5,7.502v1.5
		h-27.602v-1.5c7.301-1.701,8.501-3,8.501-7.502v-46.303c0-4.5-1.2-5.799-8.501-7.5v-1.5h25.201c13.301,0,24.902,5.5,24.902,17.502
		c0,9.1-5.601,15-14.102,17.701l22.602,27.602v1.5H720.164z M701.163,3480.295h-4.301l-13.601-13.4l1-1.4l14.701,6.301l14.801-6.301
		l1,1.4L701.163,3480.295z M700.263,3520.396c8.101,0,13.301-6.1,13.301-14.801c0-9.1-5.7-14.6-14.7-14.6h-4.9v29.4H700.263z"/>
	<path fill="#231F20" d="M939.861,3551.6l-17.901-27.602c-1,0.1-2.1,0.1-3.1,0.1h-5.2v18.5c0,4.502,1.199,5.801,8.5,7.502v1.5
		h-27.602v-1.5c7.301-1.701,8.501-3,8.501-7.502v-46.303c0-4.5-1.2-5.799-8.501-7.5v-1.5h25.201c13.301,0,24.902,5.5,24.902,17.502
		c0,9.1-5.601,15-14.102,17.701l22.602,27.602v1.5H939.861z M919.96,3520.396c8.101,0,13.301-6.1,13.301-14.801
		c0-9.1-5.7-14.6-14.7-14.6h-4.9v29.4H919.96z M917.66,3576v-18.201h9.5v1.5l-8,16.701H917.66z"/>
	<path fill="#231F20" d="M1116.455,3534.697h1.5c4.801,10.102,10.601,14.701,16.701,14.701c6.4,0,11.4-4.299,11.4-11.199
		c0-15.502-31.202-16.002-31.202-34.604c0-12.5,11.301-17.9,20.602-17.9c4.601,0,9.501,0.6,16.301,2.9v13.6h-1.5
		c-4.9-9.4-9.9-12.699-16.001-12.699c-5.5,0-10.801,3.299-10.801,9.801c0,13.9,31.103,15.1,31.103,34.602
		c0,12.9-11.401,19.301-21.102,19.301c-5.3,0-11.601-1-17.001-3.701V3534.697z M1124.455,3481.994l-0.899-1.398l16.701-15.602
		l5.5,6.1v1.5L1124.455,3481.994z"/>
	<path fill="#231F20" d="M1320.853,3534.697h1.5c4.801,10.102,10.601,14.701,16.701,14.701c6.4,0,11.4-4.299,11.4-11.199
		c0-15.502-31.202-16.002-31.202-34.604c0-12.5,11.301-17.9,20.602-17.9c4.601,0,9.501,0.6,16.301,2.9v13.6h-1.5
		c-4.9-9.4-9.9-12.699-16.001-12.699c-5.5,0-10.801,3.299-10.801,9.801c0,13.9,31.103,15.1,31.103,34.602
		c0,12.9-11.401,19.301-21.102,19.301c-5.301,0-11.601-1-17.001-3.701V3534.697z M1340.954,3480.295h-4.301l-13.601-13.4l1-1.4
		l14.701,6.301l14.801-6.301l1,1.4L1340.954,3480.295z"/>
	<path fill="#231F20" d="M1537.751,3573.4c3.7-1.4,6-3.5,6-6c0-1.9-1.7-3.9-7.2-4.5v-1.602l5.3-8.1c-5.2-0.1-11.3-1.1-16.601-3.701
		v-14.801h1.5c4.801,10.102,10.601,14.701,16.701,14.701c6.4,0,11.4-4.299,11.4-11.199c0-15.502-31.202-16.002-31.202-34.604
		c0-12.5,11.301-17.9,20.602-17.9c4.601,0,9.501,0.6,16.301,2.9v13.6h-1.5c-4.9-9.4-9.9-12.699-16.001-12.699
		c-5.5,0-10.801,3.299-10.801,9.801c0,13.9,31.103,15.1,31.103,34.602c0,11.301-8.801,17.602-17.501,19l-2.7,4.301
		c4.9,0.9,8.5,3.701,8.5,7.701c0,5.4-5.5,9-13.4,10.1L1537.751,3573.4z"/>
	<path fill="#231F20" d="M1729.647,3534.697h1.5c4.801,10.102,10.601,14.701,16.701,14.701c6.4,0,11.4-4.299,11.4-11.199
		c0-15.502-31.202-16.002-31.202-34.604c0-12.5,11.301-17.9,20.602-17.9c4.601,0,9.501,0.6,16.301,2.9v13.6h-1.5
		c-4.9-9.4-9.9-12.699-16.001-12.699c-5.5,0-10.801,3.299-10.801,9.801c0,13.9,31.103,15.1,31.103,34.602
		c0,12.9-11.401,19.301-21.102,19.301c-5.301,0-11.601-1-17.001-3.701V3534.697z M1747.148,3474.395l-14.701,6.301l-1-1.5
		l13.602-13.402h4.3l13.601,13.402l-1,1.5L1747.148,3474.395z"/>
	<path fill="#231F20" d="M227.367,3810.697h1.5c4.801,10.102,10.601,14.701,16.701,14.701c6.4,0,11.4-4.299,11.4-11.199
		c0-15.502-31.202-16.002-31.202-34.604c0-12.5,11.301-17.9,20.602-17.9c4.601,0,9.501,0.6,16.301,2.9v13.6h-1.5
		c-4.9-9.4-9.9-12.699-16.001-12.699c-5.5,0-10.801,3.299-10.801,9.801c0,13.9,31.103,15.1,31.103,34.602
		c0,12.9-11.401,19.301-21.102,19.301c-5.3,0-11.601-1-17.001-3.701V3810.697z M240.868,3852v-18.201h9.5v1.5l-8,16.701H240.868z"/>
	<path fill="#231F20" d="M511.484,3781.596c-5.301-13.4-10.501-14.6-16.301-14.6h-5.801v24.701h12.701v3.699h-12.701v23.201
		c0,4.502,1.2,5.801,10.501,7.502v1.5h-31.603v-1.5c9.301-1.701,10.501-3,10.501-7.502v-23.201h-12.701v-3.699h12.701v-24.701
		h-5.801c-5.8,0-11,1.199-16.301,14.6h-1.5v-18.301h57.804v18.301H511.484z"/>
	<path fill="#231F20" d="M713.794,3827.6v-1.5c9.301-1.701,10.501-3,10.501-7.502v-51.602h-5.801c-5.8,0-11,1.199-16.301,14.6h-1.5
		v-18.301h57.804v18.301h-1.5c-5.301-13.4-10.501-14.6-16.301-14.6h-5.801v51.602c0,4.502,1.2,5.801,10.501,7.502v1.5H713.794z
		 M731.695,3756.295h-4.3l-13.602-13.4l1-1.4l14.701,6.301l14.801-6.301l1,1.4L731.695,3756.295z"/>
	<path fill="#231F20" d="M968.709,3849.4c3.7-1.4,6-3.5,6-6c0-1.9-1.7-3.9-7.2-4.5v-1.602l6.4-9.699h-14.602v-1.5
		c9.301-1.701,10.501-3,10.501-7.502v-51.602h-5.801c-5.8,0-11,1.199-16.301,14.6h-1.5v-18.301h57.804v18.301h-1.5
		c-5.301-13.4-10.501-14.6-16.301-14.6h-5.801v51.602c0,4.502,1.2,5.801,10.501,7.502v1.5h-13.201l-3.601,5.6
		c4.9,0.9,8.501,3.701,8.501,7.701c0,5.4-5.5,9-13.4,10.1L968.709,3849.4z"/>
	<path fill="#231F20" d="M1204.821,3827.6v-1.5c9.301-1.701,10.501-3,10.501-7.502v-51.602h-5.801c-5.8,0-11,1.199-16.301,14.6h-1.5
		v-18.301h57.804v18.301h-1.5c-5.301-13.4-10.501-14.6-16.301-14.6h-5.801v51.602c0,4.502,1.2,5.801,10.501,7.502v1.5H1204.821z
		 M1216.022,3852v-18.201h9.5v1.5l-8,16.701H1216.022z"/>
	<path fill="#231F20" d="M1495.137,3775.695c0-7.199-2.6-9.199-9.9-10.9v-1.5h23.802v1.5c-6.001,1.701-9.301,3.701-9.301,10.9
		v27.402c0,17.602-10.101,26.102-26.002,26.102c-14.601,0-27.302-5.9-27.302-24.301v-32.604c0-4.5-1.199-5.799-8.5-7.5v-1.5h27.602
		v1.5c-7.301,1.701-8.5,3-8.5,7.5v28.604c0,17.4,6.4,24.301,18.801,24.301c11.2,0,19.301-6.5,19.301-21.102V3775.695z
		 M1465.936,3757.994l-0.9-1.398l16.701-15.602l5.5,6.1v1.5L1465.936,3757.994z"/>
	<path fill="#231F20" d="M1755.25,3775.695c0-7.199-2.6-9.199-9.9-10.9v-1.5h23.802v1.5c-6.001,1.701-9.301,3.701-9.301,10.9v27.402
		c0,17.602-10.101,26.102-26.002,26.102c-14.601,0-27.302-5.9-27.302-24.301v-32.604c0-4.5-1.199-5.799-8.5-7.5v-1.5h27.602v1.5
		c-7.301,1.701-8.5,3-8.5,7.5v28.604c0,17.4,6.4,24.301,18.801,24.301c11.2,0,19.301-6.5,19.301-21.102V3775.695z M1747.75,3741.594
		c0,8.602-4.4,15.602-13.801,15.602c-9.501,0-13.901-7-13.901-15.602l1.601-0.199c1.5,4.799,5.8,7.801,12.301,7.801
		c6.4,0,10.7-3.002,12.2-7.801L1747.75,3741.594z"/>
	<path fill="#231F20" d="M281.37,4051.695c0-7.199-2.6-9.199-9.9-10.9v-1.5h23.802v1.5c-6.001,1.701-9.301,3.701-9.301,10.9v27.402
		c0,17.602-10.101,26.102-26.002,26.102c-14.601,0-27.301-5.9-27.301-24.301v-32.604c0-4.5-1.2-5.799-8.501-7.5v-1.5h27.602v1.5
		c-7.301,1.701-8.5,3-8.5,7.5v28.604c0,17.4,6.4,24.301,18.801,24.301c11.2,0,19.301-6.5,19.301-21.102V4051.695z M259.969,4026.395
		l-14.7,6.301l-1-1.5l13.601-13.402h4.3l13.602,13.402l-1,1.5L259.969,4026.395z"/>
	<path fill="#231F20" d="M527.017,4051.695c0-7.199-2.6-9.199-9.9-10.9v-1.5h23.802v1.5c-6.001,1.701-9.301,3.701-9.301,10.9v27.402
		c0,17.602-10.101,26.102-26.002,26.102c-14.601,0-27.301-5.9-27.301-24.301v-32.604c0-4.5-1.2-5.799-8.501-7.5v-1.5h27.602v1.5
		c-7.301,1.701-8.5,3-8.5,7.5v28.604c0,17.4,6.4,24.301,18.801,24.301c11.2,0,19.301-6.5,19.301-21.102V4051.695z M487.414,4024.193
		c0-3.5,2.7-6.4,6.501-6.4c3.8,0,6.4,2.9,6.4,6.4c0,3.602-2.601,6.502-6.4,6.502
		C490.114,4030.695,487.414,4027.795,487.414,4024.193z M510.616,4024.193c0-3.5,2.7-6.4,6.4-6.4c3.8,0,6.5,2.9,6.5,6.4
		c0,3.602-2.7,6.502-6.5,6.502C513.316,4030.695,510.616,4027.795,510.616,4024.193z"/>
	<path fill="#231F20" d="M772.663,4051.695c0-7.199-2.6-9.199-9.9-10.9v-1.5h23.802v1.5c-6.001,1.701-9.301,3.701-9.301,10.9v27.402
		c0,17.602-10.101,26.102-26.002,26.102c-14.601,0-27.301-5.9-27.301-24.301v-32.604c0-4.5-1.2-5.799-8.501-7.5v-1.5h27.602v1.5
		c-7.301,1.701-8.5,3-8.5,7.5v28.604c0,17.4,6.4,24.301,18.801,24.301c11.2,0,19.301-6.5,19.301-21.102V4051.695z M739.562,4024.594
		v-1.5l5.5-6.1l16.701,15.602l-0.9,1.398L739.562,4024.594z"/>
	<path fill="#231F20" d="M1018.31,4051.695c0-7.199-2.6-9.199-9.9-10.9v-1.5h23.802v1.5c-6.001,1.701-9.301,3.701-9.301,10.9v27.402
		c0,17.602-10.101,26.102-26.002,26.102c-14.601,0-27.301-5.9-27.301-24.301v-32.604c0-4.5-1.2-5.799-8.501-7.5v-1.5h27.602v1.5
		c-7.301,1.701-8.5,3-8.5,7.5v28.604c0,17.4,6.4,24.301,18.801,24.301c11.2,0,19.301-6.5,19.301-21.102V4051.695z M982.107,4033.994
		l-0.899-1.398l14.4-15.602l6.001,5.6v1.6L982.107,4033.994z M999.409,4033.994l-1.001-1.398l14.401-15.602l6.101,5.6v1.6
		L999.409,4033.994z"/>
	<path fill="#231F20" d="M1263.957,4051.695c0-7.199-2.6-9.199-9.9-10.9v-1.5h23.802v1.5c-6.001,1.701-9.301,3.701-9.301,10.9
		v27.402c0,17.602-10.101,26.102-26.002,26.102c-14.601,0-27.302-5.9-27.302-24.301v-32.604c0-4.5-1.199-5.799-8.5-7.5v-1.5h27.602
		v1.5c-7.301,1.701-8.5,3-8.5,7.5v28.604c0,17.4,6.4,24.301,18.801,24.301c11.2,0,19.301-6.5,19.301-21.102V4051.695z
		 M1226.055,4026.695v-4.701h33.002v4.701H1226.055z"/>
	<path fill="#231F20" d="M1509.604,4051.695c0-7.199-2.6-9.199-9.9-10.9v-1.5h23.802v1.5c-6.001,1.701-9.301,3.701-9.301,10.9
		v27.402c0,12.9-5.4,20.9-14.601,24.301c-4.9,4.602-6.701,9.9-6.701,13.002c0,3.299,2.001,5.199,5.101,5.199
		c1.7,0,3.7-0.5,6.001-1.799l0.899,1.299c-3.3,3.801-7.5,5.9-11.5,5.9c-5.601,0-8.601-3.4-8.601-7.6
		c0-4.301,2.899-9.701,10.601-14.9c-2.301,0.398-4.7,0.699-7.201,0.699c-14.601,0-27.302-5.9-27.302-24.301v-32.604
		c0-4.5-1.199-5.799-8.5-7.5v-1.5h27.602v1.5c-7.301,1.701-8.5,3-8.5,7.5v28.604c0,17.4,6.4,24.301,18.801,24.301
		c11.2,0,19.301-6.5,19.301-21.102V4051.695z"/>
	<path fill="#231F20" d="M1755.25,4051.695c0-7.199-2.6-9.199-9.9-10.9v-1.5h23.802v1.5c-6.001,1.701-9.301,3.701-9.301,10.9v27.402
		c0,17.602-10.101,26.102-26.002,26.102c-14.601,0-27.302-5.9-27.302-24.301v-32.604c0-4.5-1.199-5.799-8.5-7.5v-1.5h27.602v1.5
		c-7.301,1.701-8.5,3-8.5,7.5v28.604c0,17.4,6.4,24.301,18.801,24.301c11.2,0,19.301-6.5,19.301-21.102V4051.695z
		 M1733.949,4034.295c-4,0-9.201-3-9.201-8.801s5.201-8.701,9.201-8.701s9.2,2.9,9.2,8.701S1737.949,4034.295,1733.949,4034.295z
		 M1738.149,4025.494c0-2.801-2-4.4-4.2-4.4s-4.2,1.6-4.2,4.4s2,4.4,4.2,4.4S1738.149,4028.295,1738.149,4025.494z"/>
	<path fill="#231F20" d="M281.37,4327.695c0-7.199-2.6-9.199-9.9-10.9v-1.5h23.802v1.5c-6.001,1.701-9.301,3.701-9.301,10.9v27.402
		c0,17.602-10.101,26.102-26.002,26.102c-14.601,0-27.301-5.9-27.301-24.301v-32.604c0-4.5-1.2-5.799-8.501-7.5v-1.5h27.602v1.5
		c-7.301,1.701-8.5,3-8.5,7.5v28.604c0,17.4,6.4,24.301,18.801,24.301c11.2,0,19.301-6.5,19.301-21.102V4327.695z M276.87,4295.295
		c-1.5,8.1-4.9,12.801-10.001,12.801c-5.7,0-11.801-5.201-16.2-5.201c-2.301,0-5.101,1.801-6.601,5.6l-1.5-0.6
		c1.5-8.1,4.9-12.701,10-12.701c5.701,0,11.801,5.201,16.201,5.201c2.301,0,5.101-1.801,6.601-5.6L276.87,4295.295z"/>
	<path fill="#231F20" d="M524.617,4380.799l-19.901-47.303h-0.7l-16.801,47.303h-2.8l-21.502-56.504c-1.6-4.199-2.1-5.799-9-7.5
		v-1.5h27.901v1.5c-7.3,1.701-8.101,3.301-6.601,7.5l13.401,38.703h0.7l16.7-48.703h2.9l19.701,48.703h0.7l10.9-35.303
		c2.101-6.799,0.2-9.199-7.1-10.9v-1.5h22.601v1.5c-5.6,1.701-8.7,4.201-11.101,11.502l-17.201,52.502H524.617z M497.516,4309.994
		l-0.9-1.398l16.701-15.602l5.5,6.1v1.5L497.516,4309.994z"/>
	<path fill="#231F20" d="M784.164,4380.799l-19.901-47.303h-0.7l-16.801,47.303h-2.8l-21.502-56.504c-1.6-4.199-2.1-5.799-9-7.5
		v-1.5h27.901v1.5c-7.3,1.701-8.101,3.301-6.601,7.5l13.401,38.703h0.7l16.7-48.703h2.9l19.701,48.703h0.7l10.9-35.303
		c2.101-6.799,0.2-9.199-7.1-10.9v-1.5h22.601v1.5c-5.6,1.701-8.7,4.201-11.101,11.502l-17.201,52.502H784.164z M766.263,4302.395
		l-14.7,6.301l-1-1.5l13.601-13.402h4.3l13.602,13.402l-1.001,1.5L766.263,4302.395z"/>
	<path fill="#231F20" d="M1043.711,4380.799l-19.901-47.303h-0.7l-16.801,47.303h-2.8l-21.502-56.504c-1.6-4.199-2.1-5.799-9-7.5
		v-1.5h27.901v1.5c-7.3,1.701-8.101,3.301-6.601,7.5l13.401,38.703h0.7l16.7-48.703h2.9l19.701,48.703h0.7l10.9-35.303
		c2.101-6.799,0.2-9.199-7.1-10.9v-1.5h22.601v1.5c-5.6,1.701-8.7,4.201-11.101,11.502l-17.201,52.502H1043.711z M1007.809,4300.193
		c0-3.5,2.7-6.4,6.501-6.4c3.8,0,6.4,2.9,6.4,6.4c0,3.602-2.601,6.502-6.4,6.502
		C1010.509,4306.695,1007.809,4303.795,1007.809,4300.193z M1031.01,4300.193c0-3.5,2.7-6.4,6.4-6.4c3.801,0,6.501,2.9,6.501,6.4
		c0,3.602-2.7,6.502-6.501,6.502C1033.71,4306.695,1031.01,4303.795,1031.01,4300.193z"/>
	<path fill="#231F20" d="M1303.257,4380.799l-19.901-47.303h-0.7l-16.801,47.303h-2.8l-21.502-56.504c-1.6-4.199-2.1-5.799-9-7.5
		v-1.5h27.901v1.5c-7.3,1.701-8.101,3.301-6.601,7.5l13.401,38.703h0.7l16.701-48.703h2.899l19.701,48.703h0.7l10.9-35.303
		c2.101-6.799,0.2-9.199-7.1-10.9v-1.5h22.601v1.5c-5.6,1.701-8.7,4.201-11.101,11.502l-17.201,52.502H1303.257z M1270.955,4300.594
		v-1.5l5.5-6.1l16.701,15.602l-0.9,1.398L1270.955,4300.594z"/>
	<path fill="#231F20" d="M1507.802,4379.6v-1.5c9.3-1.701,10.5-3,10.5-7.502v-16.801l-17.201-29.502c-2.2-3.898-4.1-5.799-9-7.5
		v-1.5h26.302v1.5c-6.601,1.701-6.4,3.701-4.301,7.5l12.501,23.303h0.7l9.4-19.902c3.101-6.4,2.4-9.199-4.2-10.9v-1.5h20.301v1.5
		c-4.7,1.701-8.5,4.602-11.9,11.502l-11.9,24.102v18.199c0,4.502,1.2,5.801,10.5,7.502v1.5H1507.802z M1514.502,4309.994l-0.9-1.398
		l16.701-15.602l5.5,6.1v1.5L1514.502,4309.994z"/>
	<path fill="#231F20" d="M1726.146,4379.6v-1.5c9.3-1.701,10.5-3,10.5-7.502v-16.801l-17.201-29.502c-2.2-3.898-4.1-5.799-9-7.5
		v-1.5h26.302v1.5c-6.601,1.701-6.4,3.701-4.301,7.5l12.501,23.303h0.7l9.4-19.902c3.101-6.4,2.4-9.199-4.2-10.9v-1.5h20.301v1.5
		c-4.7,1.701-8.5,4.602-11.9,11.502l-11.9,24.102v18.199c0,4.502,1.2,5.801,10.5,7.502v1.5H1726.146z M1742.147,4302.395
		l-14.701,6.301l-1-1.5l13.601-13.402h4.301l13.601,13.402l-1,1.5L1742.147,4302.395z"/>
	<path fill="#231F20" d="M237.868,4655.6v-1.5c9.3-1.701,10.5-3,10.5-7.502v-16.801l-17.201-29.502c-2.2-3.898-4.1-5.799-9-7.5v-1.5
		h26.302v1.5c-6.601,1.701-6.4,3.701-4.301,7.5l12.501,23.303h0.7l9.4-19.902c3.101-6.4,2.4-9.199-4.2-10.9v-1.5h20.301v1.5
		c-4.7,1.701-8.5,4.602-11.9,11.502l-11.9,24.102v18.199c0,4.502,1.2,5.801,10.5,7.502v1.5H237.868z M235.867,4576.193
		c0-3.5,2.7-6.4,6.501-6.4c3.8,0,6.4,2.9,6.4,6.4c0,3.602-2.601,6.502-6.4,6.502
		C238.567,4582.695,235.867,4579.795,235.867,4576.193z M259.069,4576.193c0-3.5,2.7-6.4,6.4-6.4c3.8,0,6.5,2.9,6.5,6.4
		c0,3.602-2.7,6.502-6.5,6.502C261.77,4582.695,259.069,4579.795,259.069,4576.193z"/>
	<path fill="#231F20" d="M450.867,4655.6v-1.5c9.3-1.701,10.5-3,10.5-7.502v-16.801l-17.201-29.502c-2.2-3.898-4.1-5.799-9-7.5v-1.5
		h26.302v1.5c-6.601,1.701-6.4,3.701-4.301,7.5l12.501,23.303h0.7l9.4-19.902c3.101-6.4,2.4-9.199-4.2-10.9v-1.5h20.301v1.5
		c-4.7,1.701-8.5,4.602-11.9,11.502l-11.9,24.102v18.199c0,4.502,1.2,5.801,10.5,7.502v1.5H450.867z M453.667,4576.594v-1.5l5.5-6.1
		l16.701,15.602l-0.899,1.398L453.667,4576.594z"/>
	<path fill="#231F20" d="M651.466,4655.6v-1.5l35.303-58.404v-0.699h-15.701c-5.7,0-10.9,1.199-16.201,14.6h-1.6v-18.301h47.202v1.5
		l-35.302,58.404v0.699h16.601c5.801,0,11.001-1.799,16.302-15.6h1.5v19.301H651.466z M669.567,4576.193c0-3.5,2.7-6.4,6.5-6.4
		c3.801,0,6.4,2.9,6.4,6.4c0,3.602-2.6,6.502-6.4,6.502C672.268,4582.695,669.567,4579.795,669.567,4576.193z"/>
	<path fill="#231F20" d="M897.769,4655.6v-1.5c7.3-1.701,8.5-3,8.5-7.502v-11.4h-24.501l-5.301,8.002c-4,6-3.7,9.199,3.601,10.9v1.5
		h-22.901v-1.5c5.601-1.701,10.301-5.102,14.601-11.502l34.502-51.303h39.603v14.9h-1.6c-5.601-10.4-10.801-11.199-16.901-11.199
		h-10.4v24.701h6c6.7,0,9.601-0.701,13.301-9.301h1.601v22.301h-1.601c-3.7-8.5-6.601-9.301-13.301-9.301h-6v28.502h10.4
		c6.101,0,11.301-1.199,16.901-13.201h1.6v16.902H897.769z M884.168,4631.498h22.101v-32.402h-0.6L884.168,4631.498z
		 M910.469,4585.994l-0.899-1.398l16.701-15.602l5.5,6.1v1.5L910.469,4585.994z"/>
</g>
</svg>
