<?xml version="1.0" encoding="utf-8"?>
<!-- Generator: Adobe Illustrator 16.0.3, SVG Export Plug-In . SVG Version: 6.00 Build 0)  -->
<!DOCTYPE svg PUBLIC "-//W3C//DTD SVG 1.1//EN" "http://www.w3.org/Graphics/SVG/1.1/DTD/svg11.dtd">
<svg version="1.1" id="Layer_1" xmlns="http://www.w3.org/2000/svg" xmlns:xlink="http://www.w3.org/1999/xlink" x="0px" y="0px"
	 width="2007.464px" height="5137.381px" viewBox="0 0 2007.464 5137.381" enable-background="new 0 0 2007.464 5137.381"
	 xml:space="preserve">
<rect fill="#FFFFFF" width="2007.464" height="5137.381"/>
<g>
	<path fill="#231F20" d="M265.67,235.1c-2.101,3.1-5.801,6.101-10.101,6.101c-3.4,0-7.501-1.7-8.301-7.801h-0.7
		c-2.8,5-7.9,7.801-13.101,7.801c-4.801,0-9.001-2.9-9.001-7.901c0-4.6,4-6.8,22.802-13.301v-6c0-5.801-2.801-8.601-8.001-8.601
		c-4.6,0-9.801,2.2-13.301,6.2l-1.399-1.1c3.8-6.2,11.601-12.401,20.201-12.401c6.4,0,12.5,3.101,12.5,12.401V230.5
		c0,3,0.801,5,3.301,5c1.3,0,2.7-0.6,4-1.6L265.67,235.1z M247.269,226.5V223c-11.701,4.2-13.001,6.3-13.001,8.5s1.7,3.5,4.2,3.5
		C241.968,235,247.269,231.799,247.269,226.5z"/>
	<path fill="#231F20" d="M471.865,240.6h-1.601v-6.2h-0.6c-2.9,4.4-7.601,6.801-12.801,6.801c-9.001,0-17.001-6.601-17.001-20.002
		c0-14.001,9.801-23.102,21.802-23.102c2.7,0,8.4,0.801,12.601,4.601l4.9-3h1.6l-0.4,11.001V229.2c0,4.6,1.001,4.8,6.101,4.8v1.601
		L471.865,240.6z M470.265,225v-17.802c-2.6-4.5-6.3-5.9-9.2-5.9c-6.801,0-10.801,6.4-10.801,17.102c0,8.5,2.7,16.601,10.501,16.601
		C466.165,235,470.265,231.7,470.265,225z"/>
	<path fill="#231F20" d="M671.261,236.7l-5,2.9h-1.5l0.399-11.001v-48.103c0-4.601-1-4.801-6.2-4.801v-1.6l14.701-5h1.5v35.802h0.7
		c2.9-4.4,7.5-6.801,12.701-6.801c9,0,17.101,6.501,17.101,20.002c0,13.9-9.801,23.102-21.901,23.102
		C680.962,241.201,675.361,240.4,671.261,236.7z M675.161,231.9c2.601,4.7,6.301,6.1,9.301,6.1c6.8,0,10.801-6.5,10.801-17.2
		c0-8.401-2.7-16.501-10.601-16.501c-5.301,0-9.501,3.2-9.501,10V231.9z"/>
	<path fill="#231F20" d="M917.759,228.9c-3.6,9.1-10.301,12.301-16.4,12.301c-10.701,0-18.602-7.701-18.602-20.502
		s9.101-22.602,20.701-22.602c4,0,9.501,0.801,14.001,4.101l-4.7,9.101h-1.5c-3.5-6.301-7.001-9.7-10.901-9.7
		c-4.7,0-8.4,4.8-8.4,14.001c0,12.2,6.201,17.801,13.001,17.801c3.7,0,8.9-1.7,11.301-5.4L917.759,228.9z"/>
	<path fill="#231F20" d="M1125.156,240.6h-1.5v-6.2h-0.7c-2.899,4.4-7.5,6.801-12.7,6.801c-9.001,0-17.102-6.601-17.102-20.002
		c0-14.001,9.801-23.102,21.901-23.102c1.9,0,5.301,0.4,8.601,2.001v-19.602c0-4.601-1.1-4.801-6.2-4.801v-1.6l14.701-5h1.5V229.2
		c0,4.6,1.1,4.8,6.2,4.8v1.601L1125.156,240.6z M1123.656,225v-17.602c-2.6-4.6-6.3-6.101-9.3-6.101
		c-6.701,0-10.801,6.4-10.801,17.102c0,8.5,2.7,16.601,10.601,16.601C1119.557,235,1123.656,231.7,1123.656,225z"/>
	<path fill="#231F20" d="M1350.055,228.9c-3.6,9.1-10.301,12.301-16.4,12.301c-10.701,0-18.602-7.701-18.602-20.502
		s8.601-22.602,19.701-22.602c7.601,0,15.701,4.2,15.101,14.802h-25.501c-0.101,0.899-0.101,1.8-0.101,2.7
		c0,12.2,6.201,17.801,13.001,17.801c3.7,0,8.9-1.7,11.301-5.4L1350.055,228.9z M1324.753,209.898h14.802c0.1-5.7-3.001-8.8-6.4-8.8
		C1328.153,201.098,1325.653,205.098,1324.753,209.898z"/>
	<path fill="#231F20" d="M1525.549,239.6v-1.5c5.601-1.4,6.2-2.5,6.2-5.801v-29.602h-7.2v-3h7.2l-2.1-8.501
		c-4-16.9,8.4-22.701,16.701-22.701c4.1,0,9.8,0.601,15.7,4.601l-4.7,9.4h-1.6c-3.9-6.601-7.9-10.801-11.9-10.801
		c-4.001,0-8.401,2.9-6.201,11.901l4.101,16.101h13.201v3h-13.201v29.602c0,3.301,0.4,4.4,8,5.801v1.5H1525.549z"/>
	<path fill="#231F20" d="M1745.748,227.599c-1.7,0-3.3-0.1-4.9-0.399l-3.3,3.3c21.801,1.9,31.201,6.101,31.201,15.001
		c0,11.301-13.5,17.501-24.901,17.501c-10.601,0-18.301-3.9-18.301-11.2c0-5.4,5.2-10.601,13.301-13.501c-2.9-0.5-6.2-1-9.801-1.4
		l-0.8-1.5l9.301-9.2c-5.501-2.101-9.301-6.4-9.301-12.701c0-9.4,9.2-15.401,18.501-15.401c3.9,0,7.7,0.9,10.601,2.501l6.301-9.501
		h1.6l4.2,7.101l-9.5,4.2c2.7,2.4,4.4,5.601,4.4,9.7C1764.35,221.499,1755.049,227.599,1745.748,227.599z M1742.248,238.9
		c-5.301,2.7-7.301,7.801-7.301,10.701c0,6.6,5.801,9.8,12.001,9.8c7.101,0,13.301-3.8,13.301-8.8
		C1760.249,245.8,1755.849,241.701,1742.248,238.9z M1753.948,214.699c0-5.7-2.2-13.601-8.4-13.601c-4.601,0-7.101,4.1-7.101,9.9
		c0,5.7,2.301,13.501,8.4,13.501C1751.549,224.5,1753.948,220.499,1753.948,214.699z"/>
	<path fill="#231F20" d="M253.969,510.4c-2.9,4.4-7.601,6.801-12.801,6.801c-9.001,0-17.001-6.601-17.001-20.002
		c0-14.001,9.801-23.102,21.802-23.102c2.699,0,8.4,0.801,12.601,4.601l4.9-3h1.6l-0.399,11.001V506.2c2.3,4.1,4.1,9.5,4.1,13.4
		c0,13.301-11.7,19.401-21.901,19.401c-7,0-15.4-1.9-20.501-6l4.7-9.301h1.601c3.5,6.301,9.1,11.9,15.7,11.9
		c6.801,0,11.501-4.1,11.501-10.801c0-4.1-1.6-9.5-5.301-14.4H253.969z M254.568,501v-17.802c-2.6-4.5-6.3-5.9-9.2-5.9
		c-6.801,0-10.801,6.4-10.801,17.102c0,8.5,2.7,16.601,10.501,16.601C250.469,511,254.568,507.7,254.568,501z"/>
	<path fill="#231F20" d="M473.81,515.6v-1.5c5.601-1.4,5.7-2.5,5.7-5.801v-18.201c0-5.8-2.4-9.8-7.9-9.8
		c-5.4,0-9.601,3.8-9.601,11.5v16.501c0,3.301,0.1,4.4,5.601,5.801v1.5h-21.802v-1.5c5.5-1.4,6.101-2.5,6.101-5.801v-51.803
		c0-4.601-1-4.801-6.101-4.801v-1.6l14.601-5h1.601v36.802h0.6c2.7-4.7,7.701-7.801,13.901-7.801c7.2,0,13.001,4.601,13.001,13.901
		v20.301c0,3.301,0.6,4.4,6.2,5.801v1.5H473.81z"/>
	<path fill="#231F20" d="M674.348,515.6v-1.5c5.5-1.4,6.101-2.5,6.101-5.801v-22.201c0-4.7-1-4.9-6.101-4.9v-1.5l14.601-5h1.601
		v33.602c0,3.301,0.6,4.4,6.101,5.801v1.5H674.348z M678.948,460.796c0-3.3,2.6-6.1,6.2-6.1s6.101,2.8,6.101,6.1
		c0,3.4-2.5,6.201-6.101,6.201S678.948,464.197,678.948,460.796z"/>
	<path fill="#231F20" d="M872.787,538.001c6.001-5,6.601-11.601,6.601-21.102v-30.802c0-4.7-1-4.9-6.1-4.9v-1.5l14.601-5h1.6V512.9
		c0,12.4-6.1,20.802-15.301,26.502L872.787,538.001z M877.888,460.796c0-3.3,2.601-6.1,6.2-6.1c3.601,0,6.101,2.8,6.101,6.1
		c0,3.4-2.5,6.201-6.101,6.201C880.488,466.998,877.888,464.197,877.888,460.796z"/>
	<path fill="#231F20" d="M1065.526,526.3h1.5c2.601,6.001,6.101,9.501,9.7,9.501c2.601,0,5.001-1.7,5.001-6.601
		c0-3.1-1.101-7.3-4.301-12.9v-30.202c0-4.7-1-4.9-6.101-4.9v-1.5l14.602-5h1.6V515.3c1.5,3.3,2.5,6.8,2.5,10.101
		c0,9.5-8.2,13.601-14.801,13.601c-3.9,0-9.5-1.1-13.7-4.601L1065.526,526.3z M1075.927,460.796c0-3.3,2.601-6.1,6.2-6.1
		c3.601,0,6.101,2.8,6.101,6.1c0,3.4-2.5,6.201-6.101,6.201C1078.527,466.998,1075.927,464.197,1075.927,460.796z"/>
	<path fill="#231F20" d="M1313.769,477.198c-6.301,2.2-9.9,4.601-13.501,8.101l-6.3,6.2l21.701,22.602v1.5h-12.301l-17.201-20.901
		v13.601c0,3.301,0.6,4.4,6.101,5.801v1.5h-22.302v-1.5c5.5-1.4,6.101-2.5,6.101-5.801v-51.803c0-4.601-1-4.801-6.101-4.801v-1.6
		l14.601-5h1.601v49.603l10.301-10.4c3.1-3.101,2.899-5.4-1.301-7.101v-1.5h18.602V477.198z"/>
	<path fill="#231F20" d="M1492.505,515.6v-1.5c5.5-1.4,6.101-2.5,6.101-5.801v-51.803c0-4.601-1-4.801-6.101-4.801v-1.6l14.601-5
		h1.601v63.203c0,3.301,0.6,4.4,6.101,5.801v1.5H1492.505z"/>
	<path fill="#231F20" d="M1747.447,515.6v-1.5c5.4-1.4,5.501-2.5,5.501-5.801v-18.201c0-5.8-1.801-9.8-7.4-9.8
		c-5.601,0-9.101,3.8-9.101,11.301v16.7c0,3.301,0.2,4.4,5.7,5.801v1.5h-21.201v-1.5c5.3-1.4,5.4-2.5,5.4-5.801v-18.201
		c0-5.8-1.7-9.8-7.201-9.8c-5.3,0-9.5,3.8-9.5,11.301v16.7c0,3.301,0.1,4.4,5.4,5.801v1.5h-21.602v-1.5
		c5.5-1.4,6.101-2.5,6.101-5.801v-22.201c0-4.7-1-4.9-6.101-4.9v-1.5l14.601-5h1.601v7.2h0.6c2.7-4.7,7.601-7.801,13.801-7.801
		c5.4,0,9.901,2.601,11.701,7.9h0.7c2.8-4.8,7.8-7.9,14.001-7.9c7.2,0,12.601,4.601,12.601,13.901v20.301
		c0,3.301,0.6,4.4,6.101,5.801v1.5H1747.447z"/>
	<path fill="#231F20" d="M253.169,791.6v-1.5c5.601-1.4,5.7-2.5,5.7-5.801v-18.201c0-5.8-2.4-9.8-7.9-9.8
		c-5.4,0-9.601,3.8-9.601,11.5v16.501c0,3.301,0.1,4.4,5.601,5.801v1.5h-21.802v-1.5c5.5-1.4,6.101-2.5,6.101-5.801v-22.201
		c0-4.7-1-4.9-6.101-4.9v-1.5l14.601-5h1.601v7.2h0.6c2.7-4.7,7.701-7.801,13.901-7.801c7.2,0,13.001,4.601,13.001,13.901v20.301
		c0,3.301,0.6,4.4,6.2,5.801v1.5H253.169z"/>
	<path fill="#231F20" d="M450.82,771.899c0-12.701,10.501-21.802,22.001-21.802c10.701,0,20.502,7.201,20.502,21.302
		c0,12.601-10.501,21.802-22.102,21.802C460.521,793.201,450.82,786,450.82,771.899z M482.723,774.5
		c0-8.001-2.601-20.901-11.801-20.901c-6.601,0-9.501,6.7-9.501,15.101c0,8,2.5,21.001,11.701,21.001
		C479.822,789.7,482.723,782.9,482.723,774.5z"/>
	<path fill="#231F20" d="M666.575,813.402v-1.501c5.601-1.399,6.2-2.5,6.2-5.8v-44.003c0-4.7-1-4.9-6.2-4.9v-1.5l14.701-5h1.5v6.2
		h0.7c2.9-4.4,7.5-6.801,12.701-6.801c9,0,17.101,6.501,17.101,20.002c0,13.9-9.801,23.102-21.901,23.102c-2,0-5.301-0.4-8.601-1.9
		v14.801c0,3.3,0.5,4.4,8.001,5.8v1.501H666.575z M682.776,783.9c2.601,4.7,6.301,6.1,9.301,6.1c6.8,0,10.801-6.5,10.801-17.2
		c0-8.401-2.7-16.501-10.601-16.501c-5.301,0-9.501,3.2-9.501,10V783.9z"/>
	<path fill="#231F20" d="M912.33,813.402v-1.501c7.601-1.399,8-2.5,8-5.8V786.4h-0.6c-2.9,4.4-7.601,6.801-12.801,6.801
		c-9.001,0-17.001-6.601-17.001-20.002c0-14.001,9.801-23.102,21.802-23.102c2.699,0,8.4,0.801,12.601,4.601l4.9-3h1.6
		l-0.399,11.001v43.402c0,3.3,0.6,4.4,6.1,5.8v1.501H912.33z M920.33,777v-17.802c-2.6-4.5-6.3-5.9-9.2-5.9
		c-6.801,0-10.801,6.4-10.801,17.102c0,8.5,2.7,16.601,10.501,16.601C916.23,787,920.33,783.7,920.33,777z"/>
	<path fill="#231F20" d="M1110.582,791.6v-1.5c5.601-1.4,6.2-2.5,6.2-5.801v-22.201c0-4.7-1.1-4.9-6.2-4.9v-1.5l14.701-5h1.5v11.501
		h0.7c1.9-6.701,8-12.501,14.501-12.102v9.401c-11.501,0-15.201,4.6-15.201,12.7v12.101c0,3.301,0.4,4.4,8,5.801v1.5H1110.582z"/>
	<path fill="#231F20" d="M1319.836,780.7h1.501c2.7,5.5,6.4,9.3,11,9.3c3.2,0,5.9-2.1,5.9-5.399
		c0-10.801-21.602-8.401-21.602-21.901c0-7.9,7.801-12.602,15.102-12.602c4,0,9.601,0.5,14.601,3.801l-4,7.601h-1.5
		c-3.301-5.4-7.2-8.201-10.4-8.201c-3.001,0-5.601,1.9-5.601,4.9c0,9.801,21.801,7.601,21.801,21.701
		c0,7.801-7.601,13.302-15.9,13.302c-3.7,0-9.9-0.501-15.102-3.801L1319.836,780.7z"/>
	<path fill="#231F20" d="M1552.192,786c-3,4.4-7.301,7.201-12.4,7.201c-7.001,0-11.601-4.301-11.601-13.201v-25.302h-6.201v-1.5
		l14.701-10.801h1.5v9.301h13.201v3h-13.201V778c0,6.601,2.601,9.2,6.301,9.2c1.8,0,4.8-0.9,6.601-2.4L1552.192,786z"/>
	<path fill="#231F20" d="M1746.946,792.8l-16.501-33.502c-1.399-2.9-2.3-4.601-6.2-6.101v-1.5h20.802v1.5
		c-3.601,1.5-4.9,2.8-3.7,5.4l9.7,21.401h0.7l8-19.701c1.301-3.4,0-5.4-4.2-7.101v-1.5h15.901v1.5c-4.801,1.601-6.5,4.3-8.101,8.101
		l-13.501,31.502H1746.946z"/>
	<path fill="#231F20" d="M268.069,1068.8l-11.9-26.102h-0.7l-10.301,26.102h-2.8l-14.401-33.502c-1.3-2.9-2.3-4.601-6.2-6.101v-1.5
		h20.602v1.5c-3.601,1.5-4.7,2.7-3.601,5.4l7.701,20.102h0.6l10.4-27.002h2.9l11.9,27.002h0.7l6.301-18.401
		c1.2-3.4,0.1-5.4-4.2-7.101v-1.5h15.9v1.5c-4.8,1.601-6.6,4.3-8.101,8.101l-12,31.502H268.069z"/>
	<path fill="#231F20" d="M479.137,1067.6v-1.5c3.6-1.601,3.6-3.101,1.9-5.4l-6.501-9.301h-0.7l-5.2,7.7c-2,3.001-2.3,5.201,2,7.001
		v1.5h-15.601v-1.5c4.5-1.601,7.4-4.801,9.9-8.001l7.4-9.5l-9.601-13.301c-2.1-3.101-3.8-4.9-7.601-6.101v-1.5h20.802v1.5
		c-3.601,1.5-3.7,3.101-2,5.4l5.1,7.4h0.7l3.9-5.801c1.9-3,2.101-5.3-2.1-7v-1.5h15.5v1.5c-4.399,1.601-7.3,4.7-9.8,8.001
		l-6.001,7.7L492.237,1060c2.101,3,4,4.9,7.7,6.101v1.5H479.137z"/>
	<path fill="#231F20" d="M670.104,1089.402v-1.501l13.7-19.601l-16.201-33.002c-1.399-2.9-2.3-4.601-6.2-6.101v-1.5h20.802v1.5
		c-3.601,1.5-4.9,2.8-3.7,5.4l10.101,22.201h0.7l7.8-20.501c1.2-3.4,0-5.4-4.3-7.101v-1.5h15.9v1.5c-4.7,1.601-6.5,4.3-8,8.101
		l-13.301,32.302l-6.501,19.802H670.104z"/>
	<path fill="#231F20" d="M872.273,1067.6v-1.5l21.601-34.702v-0.7h-5.4c-6.1,0-9.3,1.2-13.601,9.9h-1.6v-12.9h32.702v1.5
		l-21.602,34.702v0.6h5.5c6.101,0,9.301-1.1,13.601-10.2h1.5v13.301H872.273z"/>
	<path fill="#231F20" d="M1129.745,1056.9c-3.501,9.1-10.301,12.301-16.401,12.301c-7.7,0-13.701-3.9-16.701-10.501h-0.7
		c-3.399,7.4-10.2,10.501-15.4,10.501c-4.801,0-9.001-2.9-9.001-7.901c0-4.6,4-6.8,22.802-13.301v-6
		c0-5.801-2.801-8.601-8.001-8.601c-4.6,0-9.801,2.2-13.301,6.2l-1.399-1.1c3.8-6.2,11.601-12.401,20.201-12.401
		c4.1,0,8.2,1.301,10.4,4.601c3.3-2.9,7.601-4.601,12.2-4.601c7.601,0,15.802,4.2,15.102,14.802h-25.502c-0.1,0.899-0.1,1.8-0.1,2.7
		c0,12.2,6.2,17.801,13.001,17.801c3.7,0,8.9-1.7,11.301-5.4L1129.745,1056.9z M1094.343,1054.5v-3.5
		c-11.701,4.2-13.001,6.3-13.001,8.5s1.7,3.5,4.2,3.5C1089.042,1063,1094.343,1059.799,1094.343,1054.5z M1104.443,1037.898h14.801
		c0.1-5.7-3-8.8-6.4-8.8C1107.844,1029.098,1105.344,1033.098,1104.443,1037.898z"/>
	<path fill="#231F20" d="M1323.713,1090.001c6-5,6.601-11.601,6.601-21.102v-26.802c0-5.8-2.4-9.8-7.9-9.8
		c-5.4,0-9.601,3.8-9.601,11.5v16.501c0,3.301,0.1,4.4,5.601,5.801v1.5h-21.802v-1.5c5.5-1.4,6.101-2.5,6.101-5.801v-22.201
		c0-4.7-1-4.9-6.101-4.9v-1.5l14.601-5h1.601v7.2h0.6c2.7-4.7,7.701-7.801,13.901-7.801c7.2,0,13.001,4.601,13.001,13.901v24.901
		c0,12.4-6.101,20.802-15.302,26.502L1323.713,1090.001z"/>
	<path fill="#231F20" d="M1536.28,1057.2h1.601c1.6,4.9,4.6,8.8,8.4,8.8c2.8,0,4.8-2.1,4.8-5.399
		c0-10.401-18.001-13.401-18.001-25.602c0-10.301,12.601-12.801,12.601-24.602c0-7.101-3.9-10.801-8.601-10.801
		c-11.4,0-12.5,11.9-12.5,24.301v36.402c0,3.301,0.399,4.4,4.899,5.801v1.5h-21.201v-1.5c5.601-1.4,6.2-2.5,6.2-5.801v-34.401
		c0-18.602,12.001-29.802,24.102-29.802c8.801,0,15.501,3.5,15.501,11.3c0,9.801-12.801,15.302-12.801,22.401
		c0,8.801,18.302,12.801,18.302,25.902c0,7.8-7.201,13.501-15.001,13.501c-2.601,0-8.001-0.7-12.101-3.801L1536.28,1057.2z"/>
	<path fill="#231F20" d="M1751.747,1009.296c10.001,8.9,17.302,21.201,17.302,35.202c0,14.401-8.9,24.702-22.302,24.702
		c-11.001,0-20.701-7.401-20.701-21.502c0-12.601,9.601-21.602,21.102-21.602c2,0,4.9,0.301,7.7,1.301
		c-2.101-5.501-4.9-10.601-8.601-15.201l-13.801,7.5l-2-3.6l13.101-7.101c-4.101-4.301-8.9-8.001-14.4-10.801l0.6-1.7
		c6.4,2.101,12.801,5.5,18.501,9.9l14.001-7.6l1.9,3.7L1751.747,1009.296z M1755.848,1030.398c-2.3-0.8-4.601-1.2-6.5-1.2
		c-7.301,0-12.801,6.2-12.801,17.101c0,7.401,2.6,19.401,12,19.401c7.801,0,10.001-8.9,10.001-18.001
		C1758.548,1041.899,1757.647,1035.999,1755.848,1030.398z"/>
	<path fill="#231F20" d="M224.467,1343.6v-1.5c5.601-1.4,6.2-2.5,6.2-5.801v-32.602l-2.1-8.501c-4-16.9,8.4-22.701,16.701-22.701
		c4.1,0,9.8,0.601,15.7,4.601l-4.7,9.4h-1.6c-3.9-6.601-7.9-10.801-11.9-10.801c-4.001,0-8.401,2.9-6.201,11.901l4.101,16.101
		v32.602c0,3.301,0.4,4.4,8,5.801v1.5H224.467z"/>
	<path fill="#231F20" d="M418.193,1343.6v-1.5c5.5-1.4,6.101-2.5,6.101-5.801v-22.201c0-4.7-1-4.9-6.101-4.9v-1.5l14.601-5h1.601
		v33.602c0,3.301,0.6,4.4,6.101,5.801v1.5H418.193z M422.794,1288.796c0-3.3,2.6-6.1,6.2-6.1s6.101,2.8,6.101,6.1
		c0,3.4-2.5,6.201-6.101,6.201S422.794,1292.197,422.794,1288.796z M444.695,1366.001c6-5,6.6-11.601,6.6-21.102v-30.802
		c0-4.7-1-4.9-6.1-4.9v-1.5l14.601-5h1.601v38.202c0,12.4-6.101,20.802-15.302,26.502L444.695,1366.001z M449.795,1288.796
		c0-3.3,2.601-6.1,6.201-6.1c3.6,0,6.1,2.8,6.1,6.1c0,3.4-2.5,6.201-6.1,6.201C452.396,1294.998,449.795,1292.197,449.795,1288.796z
		"/>
	<path fill="#231F20" d="M635.119,1343.6v-1.5c5.5-1.4,6.101-2.5,6.101-5.801v-22.201c0-4.7-1-4.9-6.101-4.9v-1.5l14.601-5h1.601
		v33.602c0,3.301,0.6,4.4,6.101,5.801v1.5H635.119z M639.72,1288.796c0-3.3,2.6-6.1,6.2-6.1s6.101,2.8,6.101,6.1
		c0,3.4-2.5,6.201-6.101,6.201S639.72,1292.197,639.72,1288.796z M656.421,1354.3h1.5c2.6,6.001,6.1,9.501,9.7,9.501
		c2.601,0,5-1.7,5-6.601c0-3.1-1.1-7.3-4.3-12.9v-30.202c0-4.7-1-4.9-6.101-4.9v-1.5l14.601-5h1.601v40.603
		c1.5,3.3,2.5,6.8,2.5,10.101c0,9.5-8.2,13.601-14.801,13.601c-3.9,0-9.501-1.1-13.701-4.601L656.421,1354.3z M666.821,1288.796
		c0-3.3,2.6-6.1,6.2-6.1s6.101,2.8,6.101,6.1c0,3.4-2.5,6.201-6.101,6.201S666.821,1292.197,666.821,1288.796z"/>
	<path fill="#231F20" d="M896.248,1305.198c-6.301,2.2-9.9,4.601-13.501,8.101l-6.3,6.2l21.701,22.602v1.5h-12.301l-17.201-20.901
		v13.601c0,3.301,0.6,4.4,6.101,5.801v1.5h-22.302v-1.5c5.5-1.4,6.101-2.5,6.101-5.801v-21.601c0-4.601-1-4.801-6.101-4.801v-1.5
		l14.601-5.101h1.601v19.401l10.301-10.4c3.1-3.101,2.899-5.4-1.301-7.101v-1.5h18.602V1305.198z"/>
	<path fill="#231F20" d="M1133.273,1332.9c-3.6,9.1-10.4,12.301-16.501,12.301c-6,0-11.101-2.501-14.4-7.201
		c-4,4.7-9.9,7.201-16.001,7.201c-10.701,0-20.401-7.201-20.401-21.302c0-12.701,10.501-21.802,22.001-21.802
		c6.001,0,11.901,2.501,15.701,7.301c3.5-4.601,8.601-7.301,14.301-7.301c7.601,0,15.701,4.2,15.102,14.802h-25.602
		c-0.101,0.899-0.101,1.8-0.101,2.7c0,12.2,6.2,17.801,13.001,17.801c3.8,0,8.9-1.7,11.301-5.4L1133.273,1332.9z M1097.872,1326.5
		c0-8.001-2.601-20.901-11.901-20.901c-6.601,0-9.4,6.7-9.4,15.101c0,8,2.601,21.001,11.9,21.001
		C1095.071,1341.7,1097.872,1334.9,1097.872,1326.5z M1107.872,1313.898h14.901c0.1-5.7-3-8.8-6.501-8.8
		C1111.272,1305.098,1108.772,1309.098,1107.872,1313.898z"/>
	<path fill="#231F20" d="M1305.194,1349.3l5.9-8.601c-4.301-3.6-7.101-9.2-7.101-16.801c0-12.701,10.501-21.802,22.001-21.802
		c3.501,0,6.9,0.801,9.901,2.301l6-8.801l3.5,2.3l-6,8.801c4.3,3.601,7.101,9.101,7.101,16.701
		c0,12.601-10.501,21.802-22.102,21.802c-3.5,0-6.9-0.801-9.801-2.2l-6,8.7L1305.194,1349.3z M1316.295,1333l15.601-22.802
		c-1.8-2.7-4.4-4.6-7.9-4.6c-6.601,0-9.7,6.7-9.7,15.101C1314.295,1324.299,1314.795,1329,1316.295,1333z M1336.096,1326.5
		c0-3.501-0.6-8.101-2-12.001l-15.601,22.701c1.9,2.7,4.5,4.5,8,4.5C1333.096,1341.7,1336.096,1334.9,1336.096,1326.5z"/>
	<path fill="#231F20" d="M1513.921,1365.402v-1.501c5.601-1.399,6.201-2.5,6.201-5.8v-73.604c0-4.601-1.101-4.801-6.201-4.801v-1.6
		l14.701-5h1.5v35.802h0.7c2.9-4.4,7.501-6.801,12.701-6.801c9,0,17.101,6.501,17.101,20.002c0,13.9-9.801,23.102-21.901,23.102
		c-2,0-5.3-0.4-8.601-1.9v14.801c0,3.3,0.4,4.4,8.001,5.8v1.501H1513.921z M1530.122,1335.9c2.601,4.7,6.301,6.1,9.301,6.1
		c6.7,0,10.801-6.5,10.801-17.2c0-8.401-2.7-16.501-10.601-16.501c-5.4,0-9.501,3.2-9.501,10V1335.9z"/>
	<path fill="#231F20" d="M1770.748,1339.1c-2.101,3.1-5.801,6.101-10.101,6.101c-3.4,0-7.501-1.7-8.301-7.801h-0.7
		c-2.8,5-7.9,7.801-13.101,7.801c-4.801,0-9.001-2.9-9.001-7.901c0-4.6,4-6.8,22.802-13.301v-6c0-5.801-2.801-8.601-8.001-8.601
		c-4.6,0-9.801,2.2-13.301,6.2l-1.399-1.1c3.8-6.2,11.601-12.401,20.201-12.401c6.4,0,12.5,3.101,12.5,12.401v20.001
		c0,3,0.801,5,3.301,5c1.3,0,2.7-0.6,4-1.6L1770.748,1339.1z M1752.347,1330.5v-3.5c-11.701,4.2-13.001,6.3-13.001,8.5
		s1.7,3.5,4.2,3.5C1747.046,1339,1752.347,1335.799,1752.347,1330.5z M1741.646,1299.397l-1.3-1.1l10.201-17.701h1.5l6.3,5.601
		L1741.646,1299.397z"/>
	<path fill="#231F20" d="M265.67,1615.1c-2.101,3.1-5.801,6.101-10.101,6.101c-3.4,0-7.501-1.7-8.301-7.801h-0.7
		c-2.8,5-7.9,7.801-13.101,7.801c-4.801,0-9.001-2.9-9.001-7.901c0-4.6,4-6.8,22.802-13.301v-6c0-5.801-2.801-8.601-8.001-8.601
		c-4.6,0-9.801,2.2-13.301,6.2l-1.399-1.1c3.8-6.2,11.601-12.401,20.201-12.401c6.4,0,12.5,3.101,12.5,12.401v20.001
		c0,3,0.801,5,3.301,5c1.3,0,2.7-0.6,4-1.6L265.67,1615.1z M255.869,1556.896c0,9.601-3.4,17.001-12.501,17.001
		s-12.4-7.4-12.4-17.001l1.6-0.2c1.5,6.001,4.7,9.401,10.801,9.401s9.4-3.4,10.9-9.401L255.869,1556.896z M247.269,1606.5v-3.5
		c-11.701,4.2-13.001,6.3-13.001,8.5s1.7,3.5,4.2,3.5C241.968,1615,247.269,1611.799,247.269,1606.5z"/>
	<path fill="#231F20" d="M480.681,1615.1c-2.101,3.1-5.801,6.101-10.101,6.101c-3.4,0-7.501-1.7-8.301-7.801h-0.7
		c-2.8,5-7.9,7.801-13.101,7.801c-4.801,0-9.001-2.9-9.001-7.901c0-4.6,4-6.8,22.802-13.301v-6c0-5.801-2.801-8.601-8.001-8.601
		c-4.6,0-9.8,2.2-13.301,6.2l-1.399-1.1c3.8-6.2,11.601-12.401,20.201-12.401c6.4,0,12.5,3.101,12.5,12.401v20.001
		c0,3,0.801,5,3.301,5c1.3,0,2.7-0.6,4-1.6L480.681,1615.1z M470.68,1574.897l-12.301-8.4l-12.301,8.4l-1.2-1.1l11.4-16.501h4.2
		l11.401,16.501L470.68,1574.897z M462.279,1606.5v-3.5c-11.701,4.2-13.001,6.3-13.001,8.5s1.7,3.5,4.2,3.5
		C456.979,1615,462.279,1611.799,462.279,1606.5z"/>
	<path fill="#231F20" d="M695.691,1615.1c-2.101,3.1-5.801,6.101-10.101,6.101c-3.4,0-7.501-1.7-8.301-7.801h-0.7
		c-2.8,5-7.9,7.801-13.101,7.801c-4.801,0-9.001-2.9-9.001-7.901c0-4.6,4-6.8,22.802-13.301v-6c0-5.801-2.801-8.601-8.001-8.601
		c-4.6,0-9.801,2.2-13.301,6.2l-1.399-1.1c3.8-6.2,11.601-12.401,20.201-12.401c6.4,0,12.5,3.101,12.5,12.401v20.001
		c0,3,0.801,5,3.301,5c1.3,0,2.7-0.6,4-1.6L695.691,1615.1z M658.089,1564.796c0-3.2,2.5-5.9,6-5.9s6.001,2.7,6.001,5.9
		c0,3.301-2.501,6.101-6.001,6.101S658.089,1568.097,658.089,1564.796z M677.29,1606.5v-3.5c-11.701,4.2-13.001,6.3-13.001,8.5
		s1.7,3.5,4.2,3.5C671.989,1615,677.29,1611.799,677.29,1606.5z M676.689,1564.796c0-3.2,2.601-5.9,6.101-5.9s5.9,2.7,5.9,5.9
		c0,3.301-2.4,6.101-5.9,6.101S676.689,1568.097,676.689,1564.796z"/>
	<path fill="#231F20" d="M910.702,1615.1c-2.101,3.1-5.801,6.101-10.101,6.101c-3.4,0-7.501-1.7-8.301-7.801h-0.7
		c-2.8,5-7.9,7.801-13.101,7.801c-4.801,0-9.001-2.9-9.001-7.901c0-4.6,4-6.8,22.802-13.301v-6c0-5.801-2.801-8.601-8.001-8.601
		c-4.6,0-9.8,2.2-13.301,6.2l-1.399-1.1c3.8-6.2,11.601-12.401,20.201-12.401c6.4,0,12.5,3.101,12.5,12.401v20.001
		c0,3,0.801,5,3.301,5c1.3,0,2.7-0.6,4-1.6L910.702,1615.1z M895.801,1575.397l-16.701-13.2l6.2-5.601h1.601l10.2,17.701
		L895.801,1575.397z M892.301,1606.5v-3.5c-11.701,4.2-13.001,6.3-13.001,8.5s1.7,3.5,4.2,3.5
		C887,1615,892.301,1611.799,892.301,1606.5z"/>
	<path fill="#231F20" d="M1125.713,1615.1c-2.101,3.1-5.801,6.101-10.101,6.101c-3.4,0-7.501-1.7-8.301-7.801h-0.7
		c-2.8,5-7.9,7.801-13.101,7.801c-4.801,0-9.001-2.9-9.001-7.901c0-4.6,4-6.8,22.802-13.301v-6c0-5.801-2.801-8.601-8.001-8.601
		c-4.6,0-9.801,2.2-13.301,6.2l-1.399-1.1c3.8-6.2,11.601-12.401,20.201-12.401c6.4,0,12.5,3.101,12.5,12.401v20.001
		c0,3,0.801,5,3.301,5c1.3,0,2.7-0.6,4-1.6L1125.713,1615.1z M1089.41,1567.797v-4.701h27.302v4.701H1089.41z M1107.312,1606.5v-3.5
		c-11.701,4.2-13.001,6.3-13.001,8.5s1.7,3.5,4.2,3.5C1102.011,1615,1107.312,1611.799,1107.312,1606.5z"/>
	<path fill="#231F20" d="M1340.724,1615.1c-1.501,2.2-3.7,4.3-6.301,5.3c-4.101,4.4-5.7,9.101-5.7,12.001c0,3.3,2,5.2,5.101,5.2
		c1.699,0,3.8-0.5,6.1-1.8l0.801,1.3c-3.2,3.801-7.501,5.9-11.401,5.9c-5.6,0-8.601-3.4-8.601-7.601c0-4.1,2.7-9.2,9.501-14.2
		c-3.301-0.101-7.2-1.9-7.9-7.801h-0.7c-2.8,5-7.9,7.801-13.101,7.801c-4.801,0-9.001-2.9-9.001-7.901c0-4.6,4-6.8,22.802-13.301v-6
		c0-5.801-2.801-8.601-8.001-8.601c-4.6,0-9.8,2.2-13.301,6.2l-1.399-1.1c3.8-6.2,11.601-12.401,20.201-12.401
		c6.4,0,12.5,3.101,12.5,12.401v20.001c0,3,0.801,5,3.301,5c1.3,0,2.7-0.6,4-1.6L1340.724,1615.1z M1322.322,1606.5v-3.5
		c-11.701,4.2-13.001,6.3-13.001,8.5s1.7,3.5,4.2,3.5C1317.021,1615,1322.322,1611.799,1322.322,1606.5z"/>
	<path fill="#231F20" d="M1555.734,1615.1c-2.101,3.1-5.801,6.101-10.101,6.101c-3.4,0-7.501-1.7-8.301-7.801h-0.7
		c-2.8,5-7.9,7.801-13.101,7.801c-4.801,0-9.001-2.9-9.001-7.901c0-4.6,4-6.8,22.802-13.301v-6c0-5.801-2.801-8.601-8.001-8.601
		c-4.6,0-9.801,2.2-13.301,6.2l-1.399-1.1c3.8-6.2,11.601-12.401,20.201-12.401c6.4,0,12.5,3.101,12.5,12.401v20.001
		c0,3,0.801,5,3.301,5c1.3,0,2.7-0.6,4-1.6L1555.734,1615.1z M1537.333,1606.5v-3.5c-11.701,4.2-13.001,6.3-13.001,8.5
		s1.7,3.5,4.2,3.5C1532.032,1615,1537.333,1611.799,1537.333,1606.5z M1534.133,1574.297c-4,0-9.201-2.9-9.201-8.7
		c0-5.801,5.201-8.801,9.201-8.801s9.2,3,9.2,8.801C1543.333,1571.397,1538.133,1574.297,1534.133,1574.297z M1538.333,1565.597
		c0-2.801-2-4.4-4.2-4.4s-4.2,1.6-4.2,4.4c0,2.8,2,4.4,4.2,4.4S1538.333,1568.397,1538.333,1565.597z"/>
	<path fill="#231F20" d="M1770.745,1615.1c-2.101,3.1-5.801,6.101-10.101,6.101c-3.4,0-7.501-1.7-8.301-7.801h-0.7
		c-2.8,5-7.9,7.801-13.101,7.801c-4.801,0-9.001-2.9-9.001-7.901c0-4.6,4-6.8,22.802-13.301v-6c0-5.801-2.801-8.601-8.001-8.601
		c-4.6,0-9.8,2.2-13.301,6.2l-1.399-1.1c3.8-6.2,11.601-12.401,20.201-12.401c6.4,0,12.5,3.101,12.5,12.401v20.001
		c0,3,0.801,5,3.301,5c1.3,0,2.7-0.6,4-1.6L1770.745,1615.1z M1764.444,1559.096c-1.601,7.801-4.9,12.101-9.4,12.101
		c-5.801,0-10.901-5-15.301-5c-2.001,0-4.301,1.601-5.801,5.4l-1.5-0.6c1.6-7.801,4.9-12.102,9.4-12.102
		c5.801,0,10.9,5.001,15.301,5.001c2,0,4.301-1.601,5.801-5.4L1764.444,1559.096z M1752.344,1606.5v-3.5
		c-11.701,4.2-13.001,6.3-13.001,8.5s1.7,3.5,4.2,3.5C1747.043,1615,1752.344,1611.799,1752.344,1606.5z"/>
	<path fill="#231F20" d="M256.169,1896.6h-1.601v-6.2h-0.6c-2.9,4.4-7.601,6.801-12.801,6.801c-9.001,0-17.001-6.601-17.001-20.002
		c0-14.001,9.801-23.102,21.802-23.102c2.699,0,8.4,0.801,12.601,4.601l4.9-3h1.6l-0.399,11.001v18.501c0,4.6,1,4.8,6.1,4.8v1.601
		L256.169,1896.6z M254.568,1881v-17.802c-2.6-4.5-6.3-5.9-9.2-5.9c-6.801,0-10.801,6.4-10.801,17.102
		c0,8.5,2.7,16.601,10.501,16.601C250.469,1891,254.568,1887.7,254.568,1881z M240.368,1851.397l-1.3-1.1l10.2-17.701h1.5
		l6.301,5.601L240.368,1851.397z"/>
	<path fill="#231F20" d="M470.209,1896.6h-1.601v-6.2h-0.6c-2.9,4.4-7.601,6.801-12.801,6.801c-9.001,0-17.001-6.601-17.001-20.002
		c0-14.001,9.801-23.102,21.802-23.102c2.7,0,8.4,0.801,12.601,4.601l4.9-3h1.6l-0.4,11.001v18.501c0,4.6,1.001,4.8,6.101,4.8v1.601
		L470.209,1896.6z M472.909,1832.896c0,9.601-3.4,17.001-12.501,17.001s-12.4-7.4-12.4-17.001l1.6-0.2
		c1.5,6.001,4.7,9.401,10.801,9.401s9.4-3.4,10.9-9.401L472.909,1832.896z M468.608,1881v-17.802c-2.6-4.5-6.3-5.9-9.2-5.9
		c-6.801,0-10.801,6.4-10.801,17.102c0,8.5,2.7,16.601,10.501,16.601C464.509,1891,468.608,1887.7,468.608,1881z"/>
	<path fill="#231F20" d="M684.249,1896.6h-1.601v-6.2h-0.6c-2.9,4.4-7.601,6.801-12.801,6.801c-9.001,0-17.001-6.601-17.001-20.002
		c0-14.001,9.801-23.102,21.802-23.102c2.699,0,8.4,0.801,12.601,4.601l4.9-3h1.6l-0.399,11.001v18.501c0,4.6,1,4.8,6.1,4.8v1.601
		L684.249,1896.6z M686.35,1850.897l-12.301-8.4l-12.301,8.4l-1.2-1.1l11.4-16.501h4.2l11.4,16.501L686.35,1850.897z M682.648,1881
		v-17.802c-2.6-4.5-6.3-5.9-9.2-5.9c-6.801,0-10.801,6.4-10.801,17.102c0,8.5,2.7,16.601,10.501,16.601
		C678.549,1891,682.648,1887.7,682.648,1881z"/>
	<path fill="#231F20" d="M898.289,1896.6h-1.601v-6.2h-0.6c-2.9,4.4-7.601,6.801-12.801,6.801c-9.001,0-17.001-6.601-17.001-20.002
		c0-14.001,9.801-23.102,21.802-23.102c2.7,0,8.4,0.801,12.601,4.601l4.9-3h1.6l-0.4,11.001v18.501c0,4.6,1.001,4.8,6.101,4.8v1.601
		L898.289,1896.6z M873.888,1840.796c0-3.2,2.5-5.9,6-5.9s6.001,2.7,6.001,5.9c0,3.301-2.501,6.101-6.001,6.101
		S873.888,1844.097,873.888,1840.796z M896.688,1881v-17.802c-2.6-4.5-6.3-5.9-9.2-5.9c-6.801,0-10.801,6.4-10.801,17.102
		c0,8.5,2.7,16.601,10.501,16.601C892.589,1891,896.688,1887.7,896.688,1881z M892.488,1840.796c0-3.2,2.601-5.9,6.101-5.9
		s5.9,2.7,5.9,5.9c0,3.301-2.4,6.101-5.9,6.101S892.488,1844.097,892.488,1840.796z"/>
	<path fill="#231F20" d="M1112.328,1896.6h-1.601v-6.2h-0.6c-2.9,4.4-7.601,6.801-12.801,6.801c-9.001,0-17.001-6.601-17.001-20.002
		c0-14.001,9.801-23.102,21.802-23.102c2.7,0,8.4,0.801,12.601,4.601l4.9-3h1.6l-0.4,11.001v18.501c0,4.6,1.001,4.8,6.101,4.8v1.601
		L1112.328,1896.6z M1110.728,1881v-17.802c-2.6-4.5-6.3-5.9-9.2-5.9c-6.801,0-10.801,6.4-10.801,17.102
		c0,8.5,2.7,16.601,10.501,16.601C1106.628,1891,1110.728,1887.7,1110.728,1881z M1109.228,1851.397l-16.7-13.2l6.2-5.601h1.6
		l10.201,17.701L1109.228,1851.397z"/>
	<path fill="#231F20" d="M1326.368,1896.6h-1.601v-6.2h-0.6c-2.9,4.4-7.601,6.801-12.801,6.801c-9.001,0-17.001-6.601-17.001-20.002
		c0-14.001,9.801-23.102,21.802-23.102c2.699,0,8.4,0.801,12.601,4.601l4.9-3h1.6l-0.399,11.001v18.501c0,4.6,1,4.8,6.1,4.8v1.601
		L1326.368,1896.6z M1303.267,1843.797v-4.701h27.302v4.701H1303.267z M1324.768,1881v-17.802c-2.6-4.5-6.3-5.9-9.2-5.9
		c-6.801,0-10.801,6.4-10.801,17.102c0,8.5,2.7,16.601,10.501,16.601C1320.668,1891,1324.768,1887.7,1324.768,1881z"/>
	<path fill="#231F20" d="M1550.509,1893.2c-5.601,5.601-7.5,12.101-7.5,15.201c0,3.3,2,5.2,5.1,5.2c1.7,0,3.801-0.5,6.101-1.8
		l0.8,1.3c-3.2,3.801-7.5,5.9-11.5,5.9c-5.601,0-8.501-3.4-8.501-7.601c0-4.3,3.2-11.001,11.4-16.9l-6,2.1h-1.601v-6.2h-0.6
		c-2.9,4.4-7.601,6.801-12.801,6.801c-9.001,0-17.001-6.601-17.001-20.002c0-14.001,9.801-23.102,21.802-23.102
		c2.7,0,8.4,0.801,12.601,4.601l4.9-3h1.6l-0.4,11.001v18.501c0,4.6,1.001,4.8,6.101,4.8v1.601L1550.509,1893.2z M1538.808,1881
		v-17.802c-2.6-4.5-6.3-5.9-9.2-5.9c-6.801,0-10.801,6.4-10.801,17.102c0,8.5,2.7,16.601,10.501,16.601
		C1534.708,1891,1538.808,1887.7,1538.808,1881z M1546.509,1894.5h-0.101H1546.509z"/>
	<path fill="#231F20" d="M1754.448,1896.6h-1.601v-6.2h-0.6c-2.9,4.4-7.601,6.801-12.801,6.801c-9.001,0-17.001-6.601-17.001-20.002
		c0-14.001,9.801-23.102,21.802-23.102c2.699,0,8.4,0.801,12.601,4.601l4.9-3h1.6l-0.399,11.001v18.501c0,4.6,1,4.8,6.1,4.8v1.601
		L1754.448,1896.6z M1752.848,1881v-17.802c-2.6-4.5-6.3-5.9-9.2-5.9c-6.801,0-10.801,6.4-10.801,17.102
		c0,8.5,2.7,16.601,10.501,16.601C1748.748,1891,1752.848,1887.7,1752.848,1881z M1744.647,1850.297c-4,0-9.2-2.9-9.2-8.7
		c0-5.801,5.2-8.801,9.2-8.801s9.201,3,9.201,8.801C1753.849,1847.397,1748.647,1850.297,1744.647,1850.297z M1748.848,1841.597
		c0-2.801-2-4.4-4.2-4.4s-4.2,1.6-4.2,4.4c0,2.8,2,4.4,4.2,4.4S1748.848,1844.397,1748.848,1841.597z"/>
	<path fill="#231F20" d="M259.169,2160.9c-3.6,9.1-10.301,12.301-16.4,12.301c-10.701,0-18.602-7.701-18.602-20.502
		s9.101-22.602,20.701-22.602c4,0,9.501,0.801,14.001,4.101l-4.7,9.101h-1.5c-3.5-6.301-7.001-9.7-10.901-9.7
		c-4.7,0-8.4,4.8-8.4,14.001c0,12.2,6.201,17.801,13.001,17.801c3.7,0,8.9-1.7,11.301-5.4L259.169,2160.9z M235.567,2127.397
		l-1.3-1.1l10.2-17.701h1.501l6.3,5.601L235.567,2127.397z"/>
	<path fill="#231F20" d="M470.938,2160.9c-3.6,9.1-10.301,12.301-16.4,12.301c-10.701,0-18.602-7.701-18.602-20.502
		s9.101-22.602,20.701-22.602c4,0,9.501,0.801,14.001,4.101l-4.7,9.101h-1.5c-3.5-6.301-7.001-9.7-10.901-9.7
		c-4.7,0-8.4,4.8-8.4,14.001c0,12.2,6.201,17.801,13.001,17.801c3.7,0,8.9-1.7,11.301-5.4L470.938,2160.9z M452.036,2126.198
		l-11.4-16.401l1.2-1.101l12.301,8.301l12.301-8.301l1.2,1.101l-11.401,16.401H452.036z"/>
	<path fill="#231F20" d="M659.806,2193.402c3.7-1.4,6.001-3.501,6.001-6.001c0-1.9-1.7-3.9-7.201-4.5v-1.601l5.4-8.3
		c-9.5-1-16.301-8.4-16.301-20.302c0-12.801,9.101-22.602,20.701-22.602c4,0,9.501,0.801,14.001,4.101l-4.7,9.101h-1.5
		c-3.5-6.301-7.001-9.7-10.901-9.7c-4.7,0-8.4,4.8-8.4,14.001c0,12.2,6.201,17.801,13.001,17.801c3.7,0,8.9-1.7,11.301-5.4l1.5,0.9
		c-3.3,8.4-9.2,11.7-14.9,12.2l-2.601,4.101c4.9,0.899,8.501,3.7,8.501,7.7c0,5.4-5.501,9.001-13.401,10.101L659.806,2193.402z"/>
	<path fill="#231F20" d="M894.476,2160.9c-3.6,9.1-10.301,12.301-16.4,12.301c-10.701,0-18.602-7.701-18.602-20.502
		s9.101-22.602,20.701-22.602c4,0,9.501,0.801,14.001,4.101l-4.7,9.101h-1.5c-3.5-6.301-7.001-9.7-10.901-9.7
		c-4.7,0-8.4,4.8-8.4,14.001c0,12.2,6.201,17.801,13.001,17.801c3.7,0,8.9-1.7,11.301-5.4L894.476,2160.9z M889.875,2126.897
		l-12.301-8.4l-12.3,8.4l-1.2-1.1l11.4-16.501h4.2l11.4,16.501L889.875,2126.897z"/>
	<path fill="#231F20" d="M1106.244,2160.9c-3.6,9.1-10.301,12.301-16.4,12.301c-10.701,0-18.602-7.701-18.602-20.502
		s9.101-22.602,20.701-22.602c4,0,9.501,0.801,14.001,4.101l-4.7,9.101h-1.5c-3.5-6.301-7.001-9.7-10.901-9.7
		c-4.7,0-8.4,4.8-8.4,14.001c0,12.2,6.201,17.801,13.001,17.801c3.7,0,8.9-1.7,11.301-5.4L1106.244,2160.9z M1082.843,2116.796
		c0-3.3,2.601-6.1,6.101-6.1c3.6,0,6.2,2.8,6.2,6.1c0,3.4-2.601,6.201-6.2,6.201
		C1085.443,2122.998,1082.843,2120.197,1082.843,2116.796z"/>
	<path fill="#231F20" d="M1315.613,2172.6h-1.5v-6.2h-0.7c-2.899,4.4-7.5,6.801-12.7,6.801c-9.001,0-17.102-6.601-17.102-20.002
		c0-14.001,9.801-23.102,21.901-23.102c1.9,0,5.301,0.4,8.601,2.001v-19.602c0-4.601-1.1-4.801-6.2-4.801v-1.6l14.701-5h1.5v60.104
		c0,4.6,1.1,4.8,6.2,4.8v1.601L1315.613,2172.6z M1314.113,2157v-17.602c-2.6-4.6-6.3-6.101-9.3-6.101
		c-6.701,0-10.801,6.4-10.801,17.102c0,8.5,2.7,16.601,10.601,16.601C1310.014,2167,1314.113,2163.7,1314.113,2157z
		 M1328.715,2122.397v-20.102h9.3v1.501l-7.8,18.601H1328.715z"/>
	<path fill="#231F20" d="M1540.682,2172.6h-1.5v-6.2h-0.7c-2.899,4.4-7.5,6.801-12.7,6.801c-9.001,0-17.102-6.601-17.102-20.002
		c0-14.001,9.801-23.102,21.901-23.102c1.9,0,5.301,0.4,8.601,2.001v-12.102h-12.7v-3.7h12.7v-3.8c0-4.601-1.1-4.801-6.2-4.801v-1.6
		l14.701-5h1.5v15.2h8v3.7h-8v41.203c0,4.6,1.1,4.8,6.2,4.8v1.601L1540.682,2172.6z M1539.182,2157v-17.602
		c-2.6-4.6-6.3-6.101-9.3-6.101c-6.701,0-10.801,6.4-10.801,17.102c0,8.5,2.7,16.601,10.601,16.601
		C1535.082,2167,1539.182,2163.7,1539.182,2157z"/>
	<path fill="#231F20" d="M1768.55,2160.9c-3.6,9.1-10.301,12.301-16.4,12.301c-10.701,0-18.602-7.701-18.602-20.502
		s8.601-22.602,19.701-22.602c7.601,0,15.701,4.2,15.101,14.802h-25.501c-0.101,0.899-0.101,1.8-0.101,2.7
		c0,12.2,6.201,17.801,13.001,17.801c3.7,0,8.9-1.7,11.301-5.4L1768.55,2160.9z M1743.248,2141.898h14.801c0.101-5.7-3-8.8-6.4-8.8
		C1746.648,2133.098,1744.148,2137.098,1743.248,2141.898z M1745.849,2127.397l-1.3-1.1l10.2-17.701h1.5l6.301,5.601
		L1745.849,2127.397z"/>
	<path fill="#231F20" d="M259.169,2436.899c-3.6,9.101-10.301,12.3-16.4,12.3c-10.701,0-18.602-7.7-18.602-20.501
		s8.601-22.602,19.701-22.602c7.601,0,15.701,4.2,15.101,14.802h-25.501c-0.101,0.899-0.101,1.8-0.101,2.699
		c0,12.201,6.201,17.802,13.001,17.802c3.7,0,8.9-1.7,11.301-5.4L259.169,2436.899z M254.369,2384.895
		c0,9.601-3.4,17.001-12.501,17.001s-12.401-7.4-12.401-17.001l1.601-0.2c1.5,6.001,4.7,9.401,10.801,9.401s9.4-3.4,10.9-9.401
		L254.369,2384.895z M233.867,2417.897h14.801c0.101-5.7-3-8.8-6.4-8.8C237.268,2409.097,234.768,2413.097,233.867,2417.897z"/>
	<path fill="#231F20" d="M474.966,2436.899c-3.6,9.101-10.301,12.3-16.4,12.3c-10.701,0-18.602-7.7-18.602-20.501
		s8.601-22.602,19.701-22.602c7.601,0,15.701,4.2,15.101,14.802h-25.501c-0.101,0.899-0.101,1.8-0.101,2.699
		c0,12.201,6.201,17.802,13.001,17.802c3.7,0,8.9-1.7,11.301-5.4L474.966,2436.899z M455.465,2402.197l-11.4-16.401l1.199-1.101
		l12.301,8.301l12.301-8.301l1.2,1.101l-11.4,16.401H455.465z M449.664,2417.897h14.801c0.101-5.7-3-8.8-6.4-8.8
		C453.064,2409.097,450.564,2413.097,449.664,2417.897z"/>
	<path fill="#231F20" d="M690.764,2436.899c-3.6,9.101-10.301,12.3-16.4,12.3c-10.701,0-18.602-7.7-18.602-20.501
		s8.601-22.602,19.701-22.602c7.601,0,15.701,4.2,15.101,14.802h-25.501c-0.101,0.899-0.101,1.8-0.101,2.699
		c0,12.201,6.201,17.802,13.001,17.802c3.7,0,8.9-1.7,11.301-5.4L690.764,2436.899z M685.964,2402.896l-12.301-8.4l-12.301,8.4
		l-1.2-1.1l11.4-16.501h4.2l11.401,16.501L685.964,2402.896z M665.462,2417.897h14.802c0.1-5.7-3.001-8.8-6.4-8.8
		C668.862,2409.097,666.362,2413.097,665.462,2417.897z"/>
	<path fill="#231F20" d="M906.561,2436.899c-3.6,9.101-10.301,12.3-16.4,12.3c-10.701,0-18.602-7.7-18.602-20.501
		s8.601-22.602,19.701-22.602c7.601,0,15.701,4.2,15.101,14.802h-25.501c-0.101,0.899-0.101,1.8-0.101,2.699
		c0,12.201,6.201,17.802,13.001,17.802c3.7,0,8.9-1.7,11.301-5.4L906.561,2436.899z M874.358,2392.795c0-3.2,2.501-5.9,6.001-5.9
		s6,2.7,6,5.9c0,3.301-2.5,6.101-6,6.101S874.358,2396.096,874.358,2392.795z M881.259,2417.897h14.802c0.1-5.7-3.001-8.8-6.4-8.8
		C884.659,2409.097,882.159,2413.097,881.259,2417.897z M892.96,2392.795c0-3.2,2.6-5.9,6.101-5.9c3.5,0,5.9,2.7,5.9,5.9
		c0,3.301-2.4,6.101-5.9,6.101C895.56,2398.896,892.96,2396.096,892.96,2392.795z"/>
	<path fill="#231F20" d="M1122.358,2436.899c-3.6,9.101-10.301,12.3-16.4,12.3c-10.701,0-18.602-7.7-18.602-20.501
		s8.601-22.602,19.701-22.602c7.601,0,15.701,4.2,15.101,14.802h-25.501c-0.101,0.899-0.101,1.8-0.101,2.699
		c0,12.201,6.201,17.802,13.001,17.802c3.7,0,8.9-1.7,11.301-5.4L1122.358,2436.899z M1097.057,2417.897h14.801
		c0.101-5.7-3-8.8-6.4-8.8C1100.457,2409.097,1097.957,2413.097,1097.057,2417.897z M1098.957,2392.795c0-3.3,2.601-6.1,6.101-6.1
		c3.601,0,6.2,2.8,6.2,6.1c0,3.4-2.6,6.201-6.2,6.201C1101.558,2398.997,1098.957,2396.196,1098.957,2392.795z"/>
	<path fill="#231F20" d="M1338.156,2436.899c-3.6,9.101-10.301,12.3-16.4,12.3c-10.701,0-18.602-7.7-18.602-20.501
		s8.601-22.602,19.701-22.602c7.601,0,15.701,4.2,15.101,14.802h-25.501c-0.101,0.899-0.101,1.8-0.101,2.699
		c0,12.201,6.201,17.802,13.001,17.802c3.7,0,8.9-1.7,11.301-5.4L1338.156,2436.899z M1326.956,2403.396l-16.701-13.2l6.2-5.601h1.6
		l10.201,17.701L1326.956,2403.396z M1312.854,2417.897h14.802c0.1-5.7-3.001-8.8-6.4-8.8
		C1316.255,2409.097,1313.755,2413.097,1312.854,2417.897z"/>
	<path fill="#231F20" d="M1553.953,2436.899c-3.6,9.101-10.301,12.3-16.4,12.3c-10.701,0-18.602-7.7-18.602-20.501
		s8.601-22.602,19.701-22.602c7.601,0,15.701,4.2,15.101,14.802h-25.501c-0.101,0.899-0.101,1.8-0.101,2.699
		c0,12.201,6.201,17.802,13.001,17.802c3.7,0,8.9-1.7,11.301-5.4L1553.953,2436.899z M1522.951,2395.796v-4.701h27.302v4.701
		H1522.951z M1528.651,2417.897h14.802c0.1-5.7-3.001-8.8-6.4-8.8C1532.052,2409.097,1529.552,2413.097,1528.651,2417.897z"/>
	<path fill="#231F20" d="M1769.751,2436.899c-1.1,2.6-2.4,4.8-3.8,6.5c-6.4,8.7-8.001,14.001-8.001,17.001c0,3.3,2,5.2,5.101,5.2
		c1.7,0,3.7-0.5,6-1.8l0.9,1.3c-3.2,3.801-7.5,5.9-11.501,5.9c-5.601,0-8.5-3.4-8.5-7.601c0-4,3.1-8.7,10-15.601
		c-2.2,0.899-4.4,1.399-6.6,1.399c-10.701,0-18.602-7.7-18.602-20.501s8.601-22.602,19.701-22.602c7.601,0,15.701,4.2,15.101,14.802
		h-25.501c-0.101,0.899-0.101,1.8-0.101,2.699c0,12.201,6.201,17.802,13.001,17.802c3.7,0,8.9-1.7,11.301-5.4L1769.751,2436.899z
		 M1744.449,2417.897h14.801c0.101-5.7-3-8.8-6.4-8.8C1747.85,2409.097,1745.35,2413.097,1744.449,2417.897z"/>
	<path fill="#231F20" d="M243.368,2711.598c-1.7,0-3.3-0.1-4.9-0.398l-3.3,3.299c21.801,1.9,31.201,6.102,31.201,15.002
		c0,11.301-13.5,17.5-24.901,17.5c-10.601,0-18.301-3.9-18.301-11.199c0-5.4,5.2-10.602,13.301-13.502c-2.9-0.5-6.2-1-9.801-1.4
		l-0.8-1.5l9.301-9.199c-5.501-2.102-9.301-6.4-9.301-12.701c0-9.4,9.2-15.402,18.501-15.402c3.9,0,7.7,0.9,10.601,2.502
		l6.301-9.501h1.6l4.2,7.101l-9.5,4.199c2.7,2.4,4.4,5.602,4.4,9.701C261.97,2705.498,252.669,2711.598,243.368,2711.598z
		 M255.869,2660.895c0,9.601-3.4,17.001-12.501,17.001s-12.4-7.401-12.4-17.001l1.6-0.2c1.5,6.001,4.7,9.401,10.801,9.401
		s9.4-3.4,10.9-9.401L255.869,2660.895z M239.868,2722.898c-5.301,2.701-7.301,7.801-7.301,10.701c0,6.6,5.801,9.801,12.001,9.801
		c7.101,0,13.301-3.801,13.301-8.801C257.869,2729.799,253.469,2725.699,239.868,2722.898z M251.568,2698.697
		c0-5.699-2.2-13.6-8.4-13.6c-4.601,0-7.101,4.1-7.101,9.9c0,5.699,2.301,13.5,8.4,13.5
		C249.169,2708.498,251.568,2704.498,251.568,2698.697z"/>
	<path fill="#231F20" d="M456.521,2711.598c-1.7,0-3.3-0.1-4.9-0.398l-3.3,3.299c21.801,1.9,31.201,6.102,31.201,15.002
		c0,11.301-13.5,17.5-24.901,17.5c-10.601,0-18.301-3.9-18.301-11.199c0-5.4,5.2-10.602,13.301-13.502c-2.9-0.5-6.2-1-9.801-1.4
		l-0.8-1.5l9.301-9.199c-5.501-2.102-9.301-6.4-9.301-12.701c0-9.4,9.2-15.402,18.501-15.402c3.9,0,7.7,0.9,10.601,2.502
		l6.301-9.501h1.6l4.2,7.101l-9.5,4.199c2.7,2.4,4.4,5.602,4.4,9.701C475.123,2705.498,465.822,2711.598,456.521,2711.598z
		 M468.822,2678.896l-12.301-8.401l-12.301,8.401l-1.2-1.1l11.4-16.501h4.2l11.401,16.501L468.822,2678.896z M453.021,2722.898
		c-5.301,2.701-7.301,7.801-7.301,10.701c0,6.6,5.801,9.801,12.001,9.801c7.101,0,13.301-3.801,13.301-8.801
		C471.022,2729.799,466.622,2725.699,453.021,2722.898z M464.722,2698.697c0-5.699-2.2-13.6-8.4-13.6c-4.601,0-7.101,4.1-7.101,9.9
		c0,5.699,2.301,13.5,8.4,13.5C462.322,2708.498,464.722,2704.498,464.722,2698.697z"/>
	<path fill="#231F20" d="M669.675,2711.598c-1.7,0-3.3-0.1-4.9-0.398l-3.3,3.299c21.801,1.9,31.201,6.102,31.201,15.002
		c0,11.301-13.5,17.5-24.901,17.5c-10.601,0-18.301-3.9-18.301-11.199c0-5.4,5.2-10.602,13.301-13.502c-2.9-0.5-6.2-1-9.801-1.4
		l-0.8-1.5l9.301-9.199c-5.501-2.102-9.301-6.4-9.301-12.701c0-9.4,9.2-15.402,18.501-15.402c3.9,0,7.7,0.9,10.601,2.502
		l6.301-9.501h1.6l4.2,7.101l-9.5,4.199c2.7,2.4,4.4,5.602,4.4,9.701C688.276,2705.498,678.976,2711.598,669.675,2711.598z
		 M666.175,2722.898c-5.301,2.701-7.301,7.801-7.301,10.701c0,6.6,5.801,9.801,12.001,9.801c7.101,0,13.301-3.801,13.301-8.801
		C684.176,2729.799,679.775,2725.699,666.175,2722.898z M677.875,2698.697c0-5.699-2.2-13.6-8.4-13.6c-4.601,0-7.101,4.1-7.101,9.9
		c0,5.699,2.301,13.5,8.4,13.5C675.476,2708.498,677.875,2704.498,677.875,2698.697z M673.575,2657.895v18.201h-9.501v-1.5
		l8.001-16.701H673.575z"/>
	<path fill="#231F20" d="M882.828,2711.598c-1.7,0-3.3-0.1-4.9-0.398l-3.3,3.299c21.801,1.9,31.201,6.102,31.201,15.002
		c0,11.301-13.5,17.5-24.901,17.5c-10.601,0-18.301-3.9-18.301-11.199c0-5.4,5.2-10.602,13.301-13.502c-2.9-0.5-6.2-1-9.801-1.4
		l-0.8-1.5l9.301-9.199c-5.501-2.102-9.301-6.4-9.301-12.701c0-9.4,9.2-15.402,18.501-15.402c3.9,0,7.7,0.9,10.601,2.502
		l6.301-9.501h1.6l4.2,7.101l-9.5,4.199c2.7,2.4,4.4,5.602,4.4,9.701C901.43,2705.498,892.129,2711.598,882.828,2711.598z
		 M879.328,2722.898c-5.301,2.701-7.301,7.801-7.301,10.701c0,6.6,5.801,9.801,12.001,9.801c7.101,0,13.301-3.801,13.301-8.801
		C897.329,2729.799,892.929,2725.699,879.328,2722.898z M891.028,2698.697c0-5.699-2.2-13.6-8.4-13.6c-4.601,0-7.101,4.1-7.101,9.9
		c0,5.699,2.301,13.5,8.4,13.5C888.629,2708.498,891.028,2704.498,891.028,2698.697z M876.728,2668.795c0-3.3,2.601-6.1,6.101-6.1
		c3.601,0,6.2,2.8,6.2,6.1c0,3.4-2.6,6.201-6.2,6.201C879.328,2674.997,876.728,2672.196,876.728,2668.795z"/>
	<path fill="#231F20" d="M1103.781,2718.398c-2.9,4.4-7.601,6.801-12.801,6.801c-9.001,0-17.001-6.6-17.001-20.002
		c0-14,9.801-23.102,21.802-23.102c2.699,0,8.4,0.801,12.601,4.602l4.9-3h1.6l-0.399,11v19.502c2.3,4.1,4.1,9.5,4.1,13.4
		c0,13.301-11.7,19.4-21.901,19.4c-7,0-15.4-1.9-20.501-6l4.7-9.301h1.601c3.5,6.301,9.1,11.9,15.7,11.9
		c6.801,0,11.501-4.1,11.501-10.801c0-4.1-1.6-9.5-5.301-14.4H1103.781z M1108.481,2660.895c0,9.601-3.4,17.001-12.501,17.001
		s-12.4-7.401-12.4-17.001l1.6-0.2c1.501,6.001,4.701,9.401,10.801,9.401c6.101,0,9.401-3.4,10.901-9.401L1108.481,2660.895z
		 M1104.381,2708.998v-17.801c-2.6-4.5-6.3-5.9-9.2-5.9c-6.801,0-10.801,6.4-10.801,17.102c0,8.5,2.7,16.6,10.501,16.6
		C1100.281,2718.998,1104.381,2715.699,1104.381,2708.998z"/>
	<path fill="#231F20" d="M1318.735,2718.398c-2.9,4.4-7.601,6.801-12.801,6.801c-9.001,0-17.001-6.6-17.001-20.002
		c0-14,9.801-23.102,21.802-23.102c2.7,0,8.4,0.801,12.601,4.602l4.9-3h1.6l-0.4,11v19.502c2.301,4.1,4.101,9.5,4.101,13.4
		c0,13.301-11.7,19.4-21.901,19.4c-7,0-15.4-1.9-20.501-6l4.7-9.301h1.6c3.501,6.301,9.101,11.9,15.701,11.9
		c6.801,0,11.501-4.1,11.501-10.801c0-4.1-1.601-9.5-5.301-14.4H1318.735z M1323.035,2678.896l-12.3-8.401l-12.301,8.401l-1.2-1.1
		l11.4-16.501h4.2l11.4,16.501L1323.035,2678.896z M1319.335,2708.998v-17.801c-2.6-4.5-6.3-5.9-9.2-5.9
		c-6.801,0-10.801,6.4-10.801,17.102c0,8.5,2.7,16.6,10.501,16.6C1315.235,2718.998,1319.335,2715.699,1319.335,2708.998z"/>
	<path fill="#231F20" d="M1533.69,2718.398c-2.9,4.4-7.601,6.801-12.801,6.801c-9.001,0-17.001-6.6-17.001-20.002
		c0-14,9.801-23.102,21.802-23.102c2.7,0,8.4,0.801,12.601,4.602l4.9-3h1.6l-0.4,11v19.502c2.301,4.1,4.101,9.5,4.101,13.4
		c0,13.301-11.7,19.4-21.901,19.4c-7,0-15.4-1.9-20.501-6l4.7-9.301h1.6c3.501,6.301,9.101,11.9,15.701,11.9
		c6.801,0,11.501-4.1,11.501-10.801c0-4.1-1.601-9.5-5.301-14.4H1533.69z M1534.29,2708.998v-17.801c-2.6-4.5-6.3-5.9-9.2-5.9
		c-6.801,0-10.801,6.4-10.801,17.102c0,8.5,2.7,16.6,10.501,16.6C1530.19,2718.998,1534.29,2715.699,1534.29,2708.998z
		 M1529.69,2657.895v18.201h-9.501v-1.5l8.001-16.701H1529.69z"/>
	<path fill="#231F20" d="M1746.846,2723.6v-1.5c5.601-1.4,5.7-2.5,5.7-5.801v-18.201c0-5.801-2.4-9.801-7.9-9.801
		c-5.4,0-9.601,3.801-9.601,11.5v16.502c0,3.301,0.1,4.4,5.601,5.801v1.5h-21.802v-1.5c5.5-1.4,6.101-2.5,6.101-5.801v-44.303
		h-8.001v-3.7h8.001v-3.8c0-4.601-1-4.801-6.101-4.801v-1.6l14.601-5h1.601v15.2h12.601v3.7h-12.601v17.901h0.6
		c2.7-4.699,7.701-7.801,13.901-7.801c7.2,0,13.001,4.602,13.001,13.902v20.301c0,3.301,0.6,4.4,6.2,5.801v1.5H1746.846z"/>
	<path fill="#231F20" d="M236.067,2920.395l-14.7,6.301l-1-1.5l13.601-13.402h4.3l13.602,13.402l-1.001,1.5L236.067,2920.395z
		 M253.169,2999.6v-1.5c5.601-1.4,5.7-2.5,5.7-5.801v-18.201c0-5.801-2.4-9.801-7.9-9.801c-5.4,0-9.601,3.801-9.601,11.5v16.502
		c0,3.301,0.1,4.4,5.601,5.801v1.5h-21.802v-1.5c5.5-1.4,6.101-2.5,6.101-5.801v-51.803c0-4.602-1-4.801-6.101-4.801v-1.6l14.601-5
		h1.601v36.801h0.6c2.7-4.699,7.701-7.801,13.901-7.801c7.2,0,13.001,4.602,13.001,13.902v20.301c0,3.301,0.6,4.4,6.2,5.801v1.5
		H253.169z"/>
	<path fill="#231F20" d="M439.877,2999.6v-1.5c5.5-1.4,6.101-2.5,6.101-5.801v-22.201c0-4.701-1-4.9-6.101-4.9v-1.5l14.601-5h1.601
		v33.602c0,3.301,0.6,4.4,6.101,5.801v1.5H439.877z M444.678,2955.396l-1.301-1.1l10.201-17.701h1.5l6.3,5.6L444.678,2955.396z"/>
	<path fill="#231F20" d="M649.889,2936.895c0,9.602-3.4,17.002-12.501,17.002s-12.4-7.4-12.4-17.002l1.6-0.199
		c1.5,6,4.7,9.4,10.801,9.4s9.4-3.4,10.9-9.4L649.889,2936.895z M626.587,2999.6v-1.5c5.5-1.4,6.101-2.5,6.101-5.801v-22.201
		c0-4.701-1-4.9-6.101-4.9v-1.5l14.601-5h1.601v33.602c0,3.301,0.6,4.4,6.101,5.801v1.5H626.587z"/>
	<path fill="#231F20" d="M836.397,2954.896l-12.301-8.4l-12.301,8.4l-1.2-1.1l11.4-16.502h4.2l11.401,16.502L836.397,2954.896z
		 M813.296,2999.6v-1.5c5.5-1.4,6.101-2.5,6.101-5.801v-22.201c0-4.701-1-4.9-6.101-4.9v-1.5l14.601-5h1.601v33.602
		c0,3.301,0.6,4.4,6.101,5.801v1.5H813.296z"/>
	<path fill="#231F20" d="M997.105,2944.795c0-3.199,2.601-5.9,6.101-5.9s5.9,2.701,5.9,5.9c0,3.301-2.4,6.102-5.9,6.102
		S997.105,2948.096,997.105,2944.795z M1000.006,2999.6v-1.5c5.5-1.4,6.101-2.5,6.101-5.801v-22.201c0-4.701-1-4.9-6.101-4.9v-1.5
		l14.601-5h1.601v33.602c0,3.301,0.6,4.4,6.101,5.801v1.5H1000.006z M1012.507,2944.795c0-3.199,2.5-5.9,6-5.9
		s6.001,2.701,6.001,5.9c0,3.301-2.501,6.102-6.001,6.102S1012.507,2948.096,1012.507,2944.795z"/>
	<path fill="#231F20" d="M1186.715,2999.6v-1.5c5.5-1.4,6.101-2.5,6.101-5.801v-22.201c0-4.701-1-4.9-6.101-4.9v-1.5l14.601-5h1.601
		v33.602c0,3.301,0.6,4.4,6.101,5.801v1.5H1186.715z"/>
	<path fill="#231F20" d="M1389.326,2955.396l-16.701-13.201l6.2-5.6h1.6l10.201,17.701L1389.326,2955.396z M1373.425,2999.6v-1.5
		c5.5-1.4,6.101-2.5,6.101-5.801v-22.201c0-4.701-1-4.9-6.101-4.9v-1.5l14.601-5h1.601v33.602c0,3.301,0.6,4.4,6.101,5.801v1.5
		H1373.425z"/>
	<path fill="#231F20" d="M1559.233,2947.797v-4.701h23.401v4.701H1559.233z M1560.134,2999.6v-1.5c5.5-1.4,6.101-2.5,6.101-5.801
		v-22.201c0-4.701-1-4.9-6.101-4.9v-1.5l14.601-5h1.601v33.602c0,3.301,0.6,4.4,6.101,5.801v1.5H1560.134z"/>
	<path fill="#231F20" d="M1767.744,3017.1c-3.2,3.801-7.501,5.9-11.4,5.9c-5.601,0-8.601-3.4-8.601-7.6
		c0-4.6,3.399-10.201,12.101-15.801h-13.001v-1.5c5.5-1.4,6.101-2.5,6.101-5.801v-22.201c0-4.701-1-4.9-6.101-4.9v-1.5l14.601-5
		h1.601v33.602c0,3.301,0.6,4.4,6.101,5.801v1.5h-6.601c-4.9,4.699-6.801,9.699-6.801,12.801c0,3.299,2,5.199,5.101,5.199
		c1.7,0,3.8-0.5,6.101-1.799L1767.744,3017.1z M1751.443,2944.795c0-3.299,2.6-6.1,6.2-6.1s6.101,2.801,6.101,6.1
		c0,3.4-2.5,6.201-6.101,6.201S1751.443,2948.195,1751.443,2944.795z"/>
	<path fill="#231F20" d="M251.869,3215.096c-1.601,7.801-4.9,12.1-9.401,12.1c-5.8,0-10.9-5-15.301-5c-2,0-4.3,1.602-5.8,5.4
		l-1.5-0.6c1.6-7.801,4.899-12.102,9.4-12.102c5.8,0,10.9,5.002,15.301,5.002c2,0,4.3-1.602,5.8-5.4L251.869,3215.096z
		 M225.167,3275.6v-1.5c5.5-1.4,6.101-2.5,6.101-5.801v-22.201c0-4.701-1-4.9-6.101-4.9v-1.5l14.601-5h1.601v33.602
		c0,3.301,0.6,4.4,6.101,5.801v1.5H225.167z"/>
	<path fill="#231F20" d="M433.591,3230.896l-12.301-8.4l-12.301,8.4l-1.2-1.1l11.4-16.502h4.2l11.4,16.502L433.591,3230.896z
		 M410.189,3298c6-5,6.6-11.6,6.6-21.102v-30.801c0-4.701-1-4.9-6.1-4.9v-1.5l14.601-5h1.6v38.201c0,12.4-6.1,20.803-15.301,26.502
		L410.189,3298z"/>
	<path fill="#231F20" d="M589.211,3286.299h1.5c2.9,6.301,6.2,9.502,10.101,9.502c2.6,0,5.4-1.701,5.4-6.602
		c0-3.1-1.301-7-4.801-12.9v-30.201c0-4.701-1-4.9-6.101-4.9v-1.5l14.602-5h1.6v39.902c1.801,3.6,3,7.199,3,10.4
		c0,9.9-9.4,14-15.601,14c-3.601,0-9.2-0.9-13.801-4.6L589.211,3286.299z M618.212,3230.896l-12.3-8.4l-12.301,8.4l-1.2-1.1
		l11.4-16.502h4.2l11.4,16.502L618.212,3230.896z"/>
	<path fill="#231F20" d="M824.335,3237.197c-6.301,2.199-9.9,4.6-13.501,8.1l-6.3,6.201l21.701,22.602v1.5h-12.301l-17.201-20.902
		v13.602c0,3.301,0.6,4.4,6.101,5.801v1.5h-22.302v-1.5c5.5-1.4,6.101-2.5,6.101-5.801v-51.803c0-4.602-1-4.801-6.101-4.801v-1.6
		l14.601-5h1.601v49.602l10.301-10.4c3.1-3.1,2.899-5.4-1.301-7.1v-1.5h18.602V3237.197z M797.533,3300v-18.201h9.501v1.5
		L799.033,3300H797.533z"/>
	<path fill="#231F20" d="M989.655,3275.6v-1.5c5.5-1.4,6.101-2.5,6.101-5.801v-51.803c0-4.602-1-4.801-6.101-4.801v-1.6l14.601-5
		h1.601v63.203c0,3.301,0.6,4.4,6.101,5.801v1.5H989.655z M991.556,3203.994l-0.9-1.4l16.701-15.6l5.5,6.1v1.5L991.556,3203.994z"/>
	<path fill="#231F20" d="M1177.177,3275.6v-1.5c5.5-1.4,6.101-2.5,6.101-5.801v-51.803c0-4.602-1-4.801-6.101-4.801v-1.6l14.601-5
		h1.601v63.203c0,3.301,0.6,4.4,6.101,5.801v1.5H1177.177z M1197.979,3226.396v-20.102h9.3v1.5l-7.8,18.602H1197.979z"/>
	<path fill="#231F20" d="M1369.3,3275.6v-1.5c5.5-1.4,6.101-2.5,6.101-5.801v-51.803c0-4.602-1-4.801-6.101-4.801v-1.6l14.601-5
		h1.601v63.203c0,3.301,0.6,4.4,6.101,5.801v1.5H1369.3z M1376,3300v-18.201h9.501v1.5L1377.5,3300H1376z"/>
	<path fill="#231F20" d="M1556.821,3275.6v-1.5c5.5-1.4,6.101-2.5,6.101-5.801v-51.803c0-4.602-1-4.801-6.101-4.801v-1.6l14.601-5
		h1.601v63.203c0,3.301,0.6,4.4,6.101,5.801v1.5H1556.821z M1577.223,3242.498c0-3.301,2.6-6.102,6.101-6.102
		c3.6,0,6.2,2.801,6.2,6.102c0,3.398-2.601,6.199-6.2,6.199C1579.822,3248.697,1577.223,3245.896,1577.223,3242.498z"/>
	<path fill="#231F20" d="M1746.442,3275.6v-1.5c5.5-1.4,6.101-2.5,6.101-5.801v-21.402l-7.001,4.4l-1.899-3l8.9-5.6v-26.201
		c0-4.602-1-4.801-6.101-4.801v-1.6l14.601-5h1.601v31.301l6.9-4.4l2,3l-8.9,5.602v27.701c0,3.301,0.6,4.4,6.101,5.801v1.5H1746.442
		z"/>
	<path fill="#231F20" d="M253.169,3551.6v-1.5c5.601-1.4,5.7-2.5,5.7-5.801v-18.201c0-5.801-2.4-9.801-7.9-9.801
		c-5.4,0-9.601,3.801-9.601,11.5v16.502c0,3.301,0.1,4.4,5.601,5.801v1.5h-21.802v-1.5c5.5-1.4,6.101-2.5,6.101-5.801v-22.201
		c0-4.701-1-4.9-6.101-4.9v-1.5l14.601-5h1.601v7.199h0.6c2.7-4.699,7.701-7.801,13.901-7.801c7.2,0,13.001,4.602,13.001,13.902
		v20.301c0,3.301,0.6,4.4,6.2,5.801v1.5H253.169z M241.968,3507.396l-1.3-1.1l10.2-17.701h1.501l6.3,5.6L241.968,3507.396z"/>
	<path fill="#231F20" d="M470.667,3551.6v-1.5c5.601-1.4,5.7-2.5,5.7-5.801v-18.201c0-5.801-2.4-9.801-7.9-9.801
		c-5.4,0-9.601,3.801-9.601,11.5v16.502c0,3.301,0.1,4.4,5.601,5.801v1.5h-21.802v-1.5c5.5-1.4,6.101-2.5,6.101-5.801v-22.201
		c0-4.701-1-4.9-6.101-4.9v-1.5l14.601-5h1.601v7.199h0.6c2.7-4.699,7.701-7.801,13.901-7.801c7.2,0,13.001,4.602,13.001,13.902
		v20.301c0,3.301,0.6,4.4,6.2,5.801v1.5H470.667z M463.767,3506.197l-11.401-16.402l1.2-1.1l12.301,8.301l12.301-8.301l1.2,1.1
		l-11.4,16.402H463.767z"/>
	<path fill="#231F20" d="M688.163,3551.6v-1.5c5.601-1.4,5.7-2.5,5.7-5.801v-18.201c0-5.801-2.4-9.801-7.9-9.801
		c-5.4,0-9.601,3.801-9.601,11.5v16.502c0,3.301,0.1,4.4,5.601,5.801v1.5h-21.802v-1.5c5.5-1.4,6.101-2.5,6.101-5.801v-22.201
		c0-4.701-1-4.9-6.101-4.9v-1.5l14.601-5h1.601v7.199h0.6c2.7-4.699,7.701-7.801,13.901-7.801c7.2,0,13.001,4.602,13.001,13.902
		v20.301c0,3.301,0.6,4.4,6.2,5.801v1.5H688.163z M679.962,3576v-18.201h9.501v1.5l-8,16.701H679.962z"/>
	<path fill="#231F20" d="M905.661,3551.6v-1.5c5.601-1.4,5.7-2.5,5.7-5.801v-18.201c0-5.801-2.4-9.801-7.9-9.801
		c-5.4,0-9.601,3.801-9.601,11.5v16.502c0,3.301,0.1,4.4,5.601,5.801v1.5h-21.802v-1.5c5.5-1.4,6.101-2.5,6.101-5.801v-22.201
		c0-4.701-1-4.9-6.101-4.9v-1.5l14.601-5h1.601v7.199h0.6c2.7-4.699,7.701-7.801,13.901-7.801c7.2,0,13.001,4.602,13.001,13.902
		v20.301c0,3.301,0.6,4.4,6.2,5.801v1.5H905.661z M917.162,3491.096c-1.601,7.801-4.9,12.1-9.401,12.1c-5.8,0-10.9-5-15.301-5
		c-2,0-4.3,1.602-5.8,5.4l-1.5-0.6c1.6-7.801,4.899-12.102,9.4-12.102c5.8,0,10.9,5.002,15.301,5.002c2,0,4.3-1.602,5.8-5.4
		L917.162,3491.096z"/>
	<path fill="#231F20" d="M1094.557,3531.898c0-12.701,10.501-21.803,22.001-21.803c10.701,0,20.502,7.201,20.502,21.303
		c0,12.6-10.501,21.801-22.102,21.801C1104.257,3553.199,1094.557,3545.998,1094.557,3531.898z M1126.459,3534.498
		c0-8-2.601-20.9-11.801-20.9c-6.601,0-9.501,6.699-9.501,15.1c0,8,2.5,21.002,11.701,21.002
		C1123.559,3549.699,1126.459,3542.898,1126.459,3534.498z M1109.357,3507.396l-1.3-1.1l10.2-17.701h1.5l6.301,5.6
		L1109.357,3507.396z"/>
	<path fill="#231F20" d="M1304.854,3531.898c0-12.701,10.501-21.803,22.001-21.803c10.701,0,20.502,7.201,20.502,21.303
		c0,12.6-10.501,21.801-22.102,21.801C1314.554,3553.199,1304.854,3545.998,1304.854,3531.898z M1338.455,3488.895
		c0,9.602-3.399,17.002-12.5,17.002s-12.401-7.4-12.401-17.002l1.601-0.199c1.5,6,4.7,9.4,10.801,9.4c6.1,0,9.4-3.4,10.9-9.4
		L1338.455,3488.895z M1336.756,3534.498c0-8-2.601-20.9-11.801-20.9c-6.601,0-9.501,6.699-9.501,15.1c0,8,2.5,21.002,11.701,21.002
		C1333.855,3549.699,1336.756,3542.898,1336.756,3534.498z"/>
	<path fill="#231F20" d="M1515.149,3531.898c0-12.701,10.501-21.803,22.001-21.803c10.701,0,20.502,7.201,20.502,21.303
		c0,12.6-10.501,21.801-22.102,21.801C1524.85,3553.199,1515.149,3545.998,1515.149,3531.898z M1548.552,3506.896l-12.301-8.4
		l-12.301,8.4l-1.2-1.1l11.4-16.502h4.2l11.401,16.502L1548.552,3506.896z M1547.052,3534.498c0-8-2.601-20.9-11.801-20.9
		c-6.601,0-9.501,6.699-9.501,15.1c0,8,2.5,21.002,11.701,21.002C1544.151,3549.699,1547.052,3542.898,1547.052,3534.498z"/>
	<path fill="#231F20" d="M1725.446,3531.898c0-12.701,10.501-21.803,22.001-21.803c10.701,0,20.502,7.201,20.502,21.303
		c0,12.6-10.501,21.801-22.102,21.801C1735.146,3553.199,1725.446,3545.998,1725.446,3531.898z M1731.247,3496.795
		c0-3.199,2.5-5.9,6-5.9s6,2.701,6,5.9c0,3.301-2.5,6.102-6,6.102S1731.247,3500.096,1731.247,3496.795z M1757.349,3534.498
		c0-8-2.601-20.9-11.801-20.9c-6.601,0-9.501,6.699-9.501,15.1c0,8,2.5,21.002,11.701,21.002
		C1754.448,3549.699,1757.349,3542.898,1757.349,3534.498z M1749.848,3496.795c0-3.199,2.601-5.9,6.101-5.9s5.9,2.701,5.9,5.9
		c0,3.301-2.4,6.102-5.9,6.102S1749.848,3500.096,1749.848,3496.795z"/>
	<path fill="#231F20" d="M224.167,3807.898c0-12.701,10.501-21.803,22.001-21.803c10.701,0,20.502,7.201,20.502,21.303
		c0,12.6-10.501,21.801-22.102,21.801C233.867,3829.199,224.167,3821.998,224.167,3807.898z M251.469,3783.396l-16.701-13.201
		l6.2-5.6h1.601l10.2,17.701L251.469,3783.396z M256.069,3810.498c0-8-2.601-20.9-11.801-20.9c-6.601,0-9.501,6.699-9.501,15.1
		c0,8,2.5,21.002,11.701,21.002C253.169,3825.699,256.069,3818.898,256.069,3810.498z"/>
	<path fill="#231F20" d="M446.863,3807.898c0-12.701,10.501-21.803,22.001-21.803c10.701,0,20.502,7.201,20.502,21.303
		c0,12.6-10.501,21.801-22.102,21.801C456.563,3829.199,446.863,3821.998,446.863,3807.898z M456.464,3782.297l8.2-17.701h1.5
		l6.301,5l-14.701,13.801L456.464,3782.297z M478.766,3810.498c0-8-2.601-20.9-11.801-20.9c-6.601,0-9.501,6.699-9.501,15.1
		c0,8,2.5,21.002,11.701,21.002C475.865,3825.699,478.766,3818.898,478.766,3810.498z M470.165,3782.297l8.2-17.701h1.5l6.301,5
		l-14.701,13.801L470.165,3782.297z"/>
	<path fill="#231F20" d="M669.56,3807.898c0-12.701,10.501-21.803,22.001-21.803c10.701,0,20.502,7.201,20.502,21.303
		c0,12.6-10.501,21.801-22.102,21.801C679.26,3829.199,669.56,3821.998,669.56,3807.898z M677.06,3775.797v-4.701h27.302v4.701
		H677.06z M701.462,3810.498c0-8-2.601-20.9-11.801-20.9c-6.601,0-9.501,6.699-9.501,15.1c0,8,2.5,21.002,11.701,21.002
		C698.562,3825.699,701.462,3818.898,701.462,3810.498z"/>
	<path fill="#231F20" d="M892.256,3807.898c0-12.701,10.501-21.803,22.001-21.803c10.701,0,20.502,7.201,20.502,21.303
		c0,12.6-10.501,21.801-22.102,21.801C901.956,3829.199,892.256,3821.998,892.256,3807.898z M929.358,3767.096
		c-1.601,7.801-4.9,12.1-9.401,12.1c-5.8,0-10.9-5-15.301-5c-2,0-4.3,1.602-5.8,5.4l-1.5-0.6c1.6-7.801,4.9-12.102,9.4-12.102
		c5.8,0,10.9,5.002,15.301,5.002c2,0,4.3-1.602,5.801-5.4L929.358,3767.096z M924.158,3810.498c0-8-2.601-20.9-11.801-20.9
		c-6.601,0-9.501,6.699-9.501,15.1c0,8,2.5,21.002,11.701,21.002C921.258,3825.699,924.158,3818.898,924.158,3810.498z"/>
	<path fill="#231F20" d="M1113.354,3827.6v-1.5c5.601-1.4,6.2-2.5,6.2-5.801v-22.201c0-4.701-1.1-4.9-6.2-4.9v-1.5l14.701-5h1.5
		v11.5h0.7c1.9-6.701,8-12.5,14.501-12.102v9.402c-11.501,0-15.201,4.6-15.201,12.699v12.102c0,3.301,0.4,4.4,8.001,5.801v1.5
		H1113.354z M1122.355,3783.396l-1.301-1.1l10.201-17.701h1.5l6.301,5.6L1122.355,3783.396z"/>
	<path fill="#231F20" d="M1321.35,3827.6v-1.5c5.601-1.4,6.2-2.5,6.2-5.801v-22.201c0-4.701-1.1-4.9-6.2-4.9v-1.5l14.701-5h1.5v11.5
		h0.7c1.9-6.701,8-12.5,14.501-12.102v9.402c-11.501,0-15.201,4.6-15.201,12.699v12.102c0,3.301,0.4,4.4,8,5.801v1.5H1321.35z
		 M1334.95,3782.197l-11.4-16.402l1.2-1.1l12.301,8.301l12.301-8.301l1.2,1.1l-11.401,16.402H1334.95z"/>
	<path fill="#231F20" d="M1529.346,3827.6v-1.5c5.601-1.4,6.2-2.5,6.2-5.801v-22.201c0-4.701-1.1-4.9-6.2-4.9v-1.5l14.701-5h1.5
		v11.5h0.7c1.9-6.701,8-12.5,14.501-12.102v9.402c-11.501,0-15.201,4.6-15.201,12.699v12.102c0,3.301,0.4,4.4,8,5.801v1.5H1529.346z
		 M1536.146,3852v-18.201h9.5v1.5l-8,16.701H1536.146z"/>
	<path fill="#231F20" d="M1742.242,3816.699h1.501c2.7,5.5,6.4,9.301,11,9.301c3.2,0,5.9-2.102,5.9-5.4
		c0-10.801-21.602-8.402-21.602-21.902c0-7.9,7.801-12.602,15.102-12.602c4,0,9.601,0.5,14.601,3.801l-4,7.602h-1.5
		c-3.301-5.4-7.2-8.201-10.4-8.201c-3.001,0-5.601,1.9-5.601,4.9c0,9.801,21.801,7.6,21.801,21.701
		c0,7.801-7.601,13.301-15.9,13.301c-3.7,0-9.9-0.5-15.102-3.801L1742.242,3816.699z M1746.143,3783.396l-1.3-1.1l10.2-17.701h1.501
		l6.3,5.6L1746.143,3783.396z"/>
	<path fill="#231F20" d="M228.967,4092.699h1.501c2.7,5.5,6.4,9.301,11,9.301c3.2,0,5.9-2.102,5.9-5.4
		c0-10.801-21.602-8.402-21.602-21.902c0-7.9,7.801-12.602,15.102-12.602c4,0,9.601,0.5,14.601,3.801l-4,7.602h-1.5
		c-3.301-5.4-7.2-8.201-10.4-8.201c-3.001,0-5.601,1.9-5.601,4.9c0,9.801,21.801,7.6,21.801,21.701
		c0,7.801-7.601,13.301-15.9,13.301c-3.7,0-9.9-0.5-15.102-3.801L228.967,4092.699z M237.868,4058.197l-11.401-16.402l1.2-1.1
		l12.301,8.301l12.301-8.301l1.2,1.1l-11.4,16.402H237.868z"/>
	<path fill="#231F20" d="M423.064,4125.4c3.7-1.4,6.001-3.5,6.001-6c0-1.9-1.7-3.9-7.2-4.5v-1.602l5.3-8.199
		c-3.7-0.1-8.801-0.9-13.201-3.701l4.2-8.699h1.501c2.7,5.5,6.4,9.301,11,9.301c3.2,0,5.9-2.102,5.9-5.4
		c0-10.801-21.602-8.402-21.602-21.902c0-7.9,7.801-12.602,15.102-12.602c4,0,9.601,0.5,14.601,3.801l-4,7.602h-1.5
		c-3.301-5.4-7.2-8.201-10.4-8.201c-3.001,0-5.601,1.9-5.601,4.9c0,9.801,21.801,7.6,21.801,21.701c0,7.201-6.4,12.4-13.9,13.201
		l-2.601,4.1c4.9,0.9,8.501,3.701,8.501,7.701c0,5.4-5.501,9-13.401,10.1L423.064,4125.4z"/>
	<path fill="#231F20" d="M607.362,4092.699h1.501c2.7,5.5,6.4,9.301,11,9.301c3.2,0,5.9-2.102,5.9-5.4
		c0-10.801-21.602-8.402-21.602-21.902c0-7.9,7.801-12.602,15.102-12.602c4,0,9.601,0.5,14.601,3.801l-4,7.602h-1.5
		c-3.301-5.4-7.2-8.201-10.4-8.201c-3.001,0-5.601,1.9-5.601,4.9c0,9.801,21.801,7.6,21.801,21.701
		c0,7.801-7.601,13.301-15.9,13.301c-3.7,0-9.9-0.5-15.102-3.801L607.362,4092.699z M630.964,4058.896l-12.301-8.4l-12.301,8.4
		l-1.199-1.1l11.4-16.502h4.2l11.4,16.502L630.964,4058.896z"/>
	<path fill="#231F20" d="M797.259,4092.699h1.501c2.7,5.5,6.4,9.301,11,9.301c3.2,0,5.9-2.102,5.9-5.4
		c0-10.801-21.602-8.402-21.602-21.902c0-7.9,7.801-12.602,15.102-12.602c4,0,9.601,0.5,14.601,3.801l-4,7.602h-1.5
		c-3.301-5.4-7.2-8.201-10.4-8.201c-3.001,0-5.601,1.9-5.601,4.9c0,9.801,21.801,7.6,21.801,21.701
		c0,7.801-7.601,13.301-15.9,13.301c-3.7,0-9.9-0.5-15.102-3.801L797.259,4092.699z M804.359,4128v-18.201h9.501v1.5L805.859,4128
		H804.359z"/>
	<path fill="#231F20" d="M998.157,4066.697v12.301h13.201v3.699h-13.201v7.301c0,6.602,2.601,9.201,6.301,9.201
		c1.8,0,4.8-0.9,6.601-2.4l1.1,1.199c-3,4.4-7.301,7.201-12.4,7.201c-7.001,0-11.601-4.301-11.601-13.201v-9.301h-6.201v-3.699
		h6.201v-12.301h-6.201v-1.5l14.701-10.801h1.5v9.301h13.201v3H998.157z"/>
	<path fill="#231F20" d="M1197.256,4097.998c-3,4.4-7.301,7.201-12.4,7.201c-7.001,0-11.601-4.301-11.601-13.201v-25.301h-6.201
		v-1.5l14.701-10.801h1.5v9.301h13.201v3h-13.201v23.301c0,6.602,2.601,9.201,6.301,9.201c1.8,0,4.8-0.9,6.601-2.4
		L1197.256,4097.998z M1186.556,4057.096v-20.102h9.3v1.502l-7.8,18.6H1186.556z"/>
	<path fill="#231F20" d="M1361.652,4125.4c3.7-1.4,6-3.5,6-6c0-1.9-1.7-3.9-7.2-4.5v-1.602l5.601-8.6
		c-4.801-1.301-7.7-5.5-7.7-12.701v-25.301h-6.201v-1.5l14.701-10.801h1.5v9.301h13.201v3h-13.201v23.301
		c0,6.602,2.601,9.201,6.301,9.201c1.8,0,4.8-0.9,6.601-2.4l1.1,1.199c-3,4.4-7.301,7.201-12.4,7.201h-0.4l-2.5,4
		c4.9,0.9,8.5,3.701,8.5,7.701c0,5.4-5.5,9-13.4,10.1L1361.652,4125.4z"/>
	<path fill="#231F20" d="M1567.451,4097.998c-3,4.4-7.301,7.201-12.4,7.201c-7.001,0-11.601-4.301-11.601-13.201v-25.301h-6.201
		v-1.5l14.701-10.801h1.5v9.301h13.201v3h-13.201v23.301c0,6.602,2.601,9.201,6.301,9.201c1.8,0,4.8-0.9,6.601-2.4
		L1567.451,4097.998z M1547.85,4128v-18.201h9.501v1.5L1549.35,4128H1547.85z"/>
	<path fill="#231F20" d="M1757.449,4104.6h-1.5v-7.201h-0.7c-2.7,4.701-7.5,7.801-13.701,7.801c-7.2,0-12.7-4.6-12.7-13.9v-17.201
		c0-4.701-1-4.9-6.101-4.9v-1.5l14.601-5h1.601v26.4c0,5.801,1.899,9.701,7.5,9.701c5.4,0,9.501-3.801,9.501-11.602v-13.1
		c0-4.701-1.101-4.9-6.2-4.9v-1.5l14.7-5h1.5v30.502c0,4.6,1.101,4.799,6.201,4.799v1.602L1757.449,4104.6z M1742.448,4059.396
		l-1.3-1.1l10.2-17.701h1.5l6.301,5.6L1742.448,4059.396z"/>
	<path fill="#231F20" d="M258.869,4380.6h-1.5v-7.201h-0.7c-2.7,4.701-7.5,7.801-13.701,7.801c-7.2,0-12.7-4.6-12.7-13.9v-17.201
		c0-4.701-1-4.9-6.101-4.9v-1.5l14.601-5h1.601v26.4c0,5.801,1.899,9.701,7.5,9.701c5.4,0,9.501-3.801,9.501-11.602v-13.1
		c0-4.701-1.101-4.9-6.2-4.9v-1.5l14.7-5h1.5v30.502c0,4.6,1.101,4.799,6.201,4.799v1.602L258.869,4380.6z M261.569,4316.895
		c0,9.602-3.4,17.002-12.501,17.002s-12.4-7.4-12.4-17.002l1.6-0.199c1.5,6,4.7,9.4,10.801,9.4s9.4-3.4,10.9-9.4L261.569,4316.895z"
		/>
	<path fill="#231F20" d="M472.951,4380.6h-1.5v-7.201h-0.7c-2.7,4.701-7.5,7.801-13.701,7.801c-7.2,0-12.7-4.6-12.7-13.9v-17.201
		c0-4.701-1-4.9-6.101-4.9v-1.5l14.601-5h1.601v26.4c0,5.801,1.899,9.701,7.5,9.701c5.4,0,9.501-3.801,9.501-11.602v-13.1
		c0-4.701-1.101-4.9-6.2-4.9v-1.5l14.7-5h1.5v30.502c0,4.6,1.101,4.799,6.201,4.799v1.602L472.951,4380.6z M475.151,4334.896
		l-12.301-8.4l-12.301,8.4l-1.2-1.1l11.4-16.502h4.2l11.401,16.502L475.151,4334.896z"/>
	<path fill="#231F20" d="M687.033,4380.6h-1.5v-7.201h-0.7c-2.7,4.701-7.5,7.801-13.701,7.801c-7.2,0-12.7-4.6-12.7-13.9v-17.201
		c0-4.701-1-4.9-6.101-4.9v-1.5l14.601-5h1.601v26.4c0,5.801,1.899,9.701,7.5,9.701c5.4,0,9.501-3.801,9.501-11.602v-13.1
		c0-4.701-1.101-4.9-6.2-4.9v-1.5l14.7-5h1.5v30.502c0,4.6,1.101,4.799,6.201,4.799v1.602L687.033,4380.6z M661.932,4324.795
		c0-3.199,2.5-5.9,6-5.9c3.501,0,6.001,2.701,6.001,5.9c0,3.301-2.5,6.102-6.001,6.102
		C664.432,4330.896,661.932,4328.096,661.932,4324.795z M680.533,4324.795c0-3.199,2.6-5.9,6.1-5.9c3.501,0,5.9,2.701,5.9,5.9
		c0,3.301-2.399,6.102-5.9,6.102C683.133,4330.896,680.533,4328.096,680.533,4324.795z"/>
	<path fill="#231F20" d="M901.115,4380.6h-1.5v-7.201h-0.7c-2.7,4.701-7.5,7.801-13.701,7.801c-7.2,0-12.7-4.6-12.7-13.9v-17.201
		c0-4.701-1-4.9-6.101-4.9v-1.5l14.601-5h1.601v26.4c0,5.801,1.899,9.701,7.5,9.701c5.4,0,9.501-3.801,9.501-11.602v-13.1
		c0-4.701-1.101-4.9-6.2-4.9v-1.5l14.7-5h1.5v30.502c0,4.6,1.101,4.799,6.201,4.799v1.602L901.115,4380.6z M897.115,4335.396
		l-16.701-13.201l6.2-5.6h1.601l10.2,17.701L897.115,4335.396z"/>
	<path fill="#231F20" d="M1115.196,4380.6h-1.5v-7.201h-0.7c-2.7,4.701-7.5,7.801-13.701,7.801c-7.2,0-12.7-4.6-12.7-13.9v-17.201
		c0-4.701-1-4.9-6.101-4.9v-1.5l14.601-5h1.601v26.4c0,5.801,1.9,9.701,7.5,9.701c5.4,0,9.501-3.801,9.501-11.602v-13.1
		c0-4.701-1.101-4.9-6.2-4.9v-1.5l14.7-5h1.5v30.502c0,4.6,1.101,4.799,6.201,4.799v1.602L1115.196,4380.6z M1093.295,4334.297
		l8.2-17.701h1.5l6.301,5l-14.701,13.801L1093.295,4334.297z M1106.996,4334.297l8.2-17.701h1.5l6.301,5l-14.701,13.801
		L1106.996,4334.297z"/>
	<path fill="#231F20" d="M1329.279,4380.6h-1.5v-7.201h-0.7c-2.7,4.701-7.5,7.801-13.701,7.801c-7.2,0-12.7-4.6-12.7-13.9v-17.201
		c0-4.701-1-4.9-6.101-4.9v-1.5l14.601-5h1.601v26.4c0,5.801,1.899,9.701,7.5,9.701c5.4,0,9.501-3.801,9.501-11.602v-13.1
		c0-4.701-1.101-4.9-6.2-4.9v-1.5l14.7-5h1.5v30.502c0,4.6,1.101,4.799,6.201,4.799v1.602L1329.279,4380.6z M1305.878,4327.797
		v-4.701h27.302v4.701H1305.878z"/>
	<path fill="#231F20" d="M1553.462,4377.199c-5.601,5.6-7.4,12.1-7.4,15.201c0,3.299,2,5.199,5.101,5.199c1.7,0,3.7-0.5,6-1.799
		l0.9,1.299c-3.2,3.801-7.501,5.9-11.501,5.9c-5.601,0-8.601-3.4-8.601-7.6c0-4.301,3.3-11,11.4-16.801l-6,2h-1.5v-7.201h-0.7
		c-2.7,4.701-7.5,7.801-13.701,7.801c-7.2,0-12.7-4.6-12.7-13.9v-17.201c0-4.701-1-4.9-6.101-4.9v-1.5l14.601-5h1.601v26.4
		c0,5.801,1.899,9.701,7.5,9.701c5.4,0,9.501-3.801,9.501-11.602v-13.1c0-4.701-1.101-4.9-6.2-4.9v-1.5l14.7-5h1.5v30.502
		c0,4.6,1.101,4.799,6.201,4.799v1.602L1553.462,4377.199z"/>
	<path fill="#231F20" d="M1757.443,4380.6h-1.5v-7.201h-0.7c-2.7,4.701-7.5,7.801-13.701,7.801c-7.2,0-12.7-4.6-12.7-13.9v-17.201
		c0-4.701-1-4.9-6.101-4.9v-1.5l14.601-5h1.601v26.4c0,5.801,1.899,9.701,7.5,9.701c5.4,0,9.501-3.801,9.501-11.602v-13.1
		c0-4.701-1.101-4.9-6.2-4.9v-1.5l14.7-5h1.5v30.502c0,4.6,1.101,4.799,6.201,4.799v1.602L1757.443,4380.6z M1747.442,4334.297
		c-4,0-9.2-2.9-9.2-8.701s5.2-8.801,9.2-8.801c4.001,0,9.201,3,9.201,8.801S1751.443,4334.297,1747.442,4334.297z
		 M1751.643,4325.596c0-2.801-2-4.4-4.2-4.4s-4.2,1.6-4.2,4.4s2,4.4,4.2,4.4S1751.643,4328.396,1751.643,4325.596z"/>
	<path fill="#231F20" d="M258.869,4656.6h-1.5v-7.201h-0.7c-2.7,4.701-7.5,7.801-13.701,7.801c-7.2,0-12.7-4.6-12.7-13.9v-17.201
		c0-4.701-1-4.9-6.101-4.9v-1.5l14.601-5h1.601v26.4c0,5.801,1.899,9.701,7.5,9.701c5.4,0,9.501-3.801,9.501-11.602v-13.1
		c0-4.701-1.101-4.9-6.2-4.9v-1.5l14.7-5h1.5v30.502c0,4.6,1.101,4.799,6.201,4.799v1.602L258.869,4656.6z M265.17,4595.096
		c-1.601,7.801-4.9,12.1-9.401,12.1c-5.8,0-10.9-5-15.301-5c-2,0-4.3,1.602-5.8,5.4l-1.5-0.6c1.6-7.801,4.899-12.102,9.4-12.102
		c5.8,0,10.9,5.002,15.301,5.002c2,0,4.3-1.602,5.8-5.4L265.17,4595.096z"/>
	<path fill="#231F20" d="M471.938,4656.799l-11.9-26.102h-0.7l-10.301,26.102h-2.8l-14.401-33.502c-1.3-2.9-2.3-4.6-6.2-6.1v-1.5
		h20.602v1.5c-3.601,1.5-4.7,2.699-3.601,5.4l7.701,20.102h0.6l10.4-27.002h2.9l11.9,27.002h0.7l6.301-18.402
		c1.2-3.4,0.1-5.4-4.2-7.1v-1.5h15.9v1.5c-4.8,1.6-6.6,4.299-8.101,8.1l-12,31.502H471.938z M455.137,4611.396l-1.3-1.1l10.2-17.701
		h1.5l6.301,5.6L455.137,4611.396z"/>
	<path fill="#231F20" d="M695.605,4656.799l-11.9-26.102h-0.7l-10.301,26.102h-2.8l-14.401-33.502c-1.3-2.9-2.3-4.6-6.2-6.1v-1.5
		h20.602v1.5c-3.601,1.5-4.7,2.699-3.601,5.4l7.701,20.102h0.6l10.4-27.002h2.9l11.9,27.002h0.7l6.301-18.402
		c1.2-3.4,0.1-5.4-4.2-7.1v-1.5h15.9v1.5c-4.8,1.6-6.6,4.299-8.101,8.1l-12,31.502H695.605z M697.506,4610.896l-12.301-8.4
		l-12.301,8.4l-1.2-1.1l11.401-16.502h4.2l11.4,16.502L697.506,4610.896z"/>
	<path fill="#231F20" d="M919.273,4656.799l-11.9-26.102h-0.7l-10.301,26.102h-2.8l-14.401-33.502c-1.3-2.9-2.3-4.6-6.2-6.1v-1.5
		h20.602v1.5c-3.601,1.5-4.7,2.699-3.601,5.4l7.701,20.102h0.6l10.4-27.002h2.9l11.9,27.002h0.7l6.301-18.402
		c1.2-3.4,0.1-5.4-4.2-7.1v-1.5h15.9v1.5c-4.8,1.6-6.6,4.299-8.101,8.1l-12,31.502H919.273z M893.572,4600.795
		c0-3.199,2.5-5.9,6-5.9s6.001,2.701,6.001,5.9c0,3.301-2.501,6.102-6.001,6.102S893.572,4604.096,893.572,4600.795z
		 M912.173,4600.795c0-3.199,2.601-5.9,6.101-5.9s5.9,2.701,5.9,5.9c0,3.301-2.4,6.102-5.9,6.102S912.173,4604.096,912.173,4600.795
		z"/>
	<path fill="#231F20" d="M1142.942,4656.799l-11.9-26.102h-0.7l-10.301,26.102h-2.8l-14.401-33.502c-1.3-2.9-2.3-4.6-6.2-6.1v-1.5
		h20.602v1.5c-3.601,1.5-4.7,2.699-3.601,5.4l7.701,20.102h0.6l10.4-27.002h2.9l11.9,27.002h0.7l6.301-18.402
		c1.2-3.4,0.1-5.4-4.2-7.1v-1.5h15.9v1.5c-4.8,1.6-6.6,4.299-8.101,8.1l-12,31.502H1142.942z M1136.843,4611.396l-16.701-13.201
		l6.2-5.6h1.6l10.201,17.701L1136.843,4611.396z"/>
	<path fill="#231F20" d="M1329.01,4677.4v-1.5l13.7-19.602l-16.201-33.002c-1.399-2.9-2.3-4.6-6.2-6.1v-1.5h20.802v1.5
		c-3.601,1.5-4.9,2.799-3.7,5.4l10.101,22.201h0.7l7.8-20.502c1.2-3.4,0-5.4-4.3-7.1v-1.5h15.9v1.5c-4.7,1.6-6.5,4.299-8,8.1
		l-13.301,32.303l-6.501,19.801H1329.01z M1341.01,4611.396l-1.3-1.1l10.2-17.701h1.501l6.3,5.6L1341.01,4611.396z"/>
	<path fill="#231F20" d="M1530.877,4677.4v-1.5l13.7-19.602l-16.201-33.002c-1.399-2.9-2.3-4.6-6.2-6.1v-1.5h20.802v1.5
		c-3.601,1.5-4.9,2.799-3.7,5.4l10.101,22.201h0.7l7.8-20.502c1.2-3.4,0-5.4-4.3-7.1v-1.5h15.9v1.5c-4.7,1.6-6.5,4.299-8,8.1
		l-13.301,32.303l-6.501,19.801H1530.877z M1559.479,4610.896l-12.301-8.4l-12.301,8.4l-1.2-1.1l11.4-16.502h4.2l11.401,16.502
		L1559.479,4610.896z"/>
	<path fill="#231F20" d="M1732.746,4677.4v-1.5l13.7-19.602l-16.201-33.002c-1.399-2.9-2.3-4.6-6.2-6.1v-1.5h20.802v1.5
		c-3.601,1.5-4.9,2.799-3.7,5.4l10.101,22.201h0.7l7.8-20.502c1.2-3.4,0-5.4-4.3-7.1v-1.5h15.9v1.5c-4.7,1.6-6.5,4.299-8,8.1
		l-13.301,32.303l-6.501,19.801H1732.746z M1733.746,4600.795c0-3.199,2.5-5.9,6-5.9s6,2.701,6,5.9c0,3.301-2.5,6.102-6,6.102
		S1733.746,4604.096,1733.746,4600.795z M1752.347,4600.795c0-3.199,2.601-5.9,6.101-5.9s5.9,2.701,5.9,5.9
		c0,3.301-2.4,6.102-5.9,6.102S1752.347,4604.096,1752.347,4600.795z"/>
	<path fill="#231F20" d="M230.468,4953.4v-1.5l13.7-19.602l-16.201-33.002c-1.399-2.898-2.3-4.6-6.2-6.1v-1.5h20.802v1.5
		c-3.601,1.5-4.9,2.801-3.7,5.4l10.101,22.201h0.7l7.8-20.502c1.2-3.398,0-5.4-4.3-7.1v-1.5h15.9v1.5c-4.7,1.6-6.5,4.301-8,8.1
		l-13.301,32.303l-6.501,19.801H230.468z M251.469,4887.396l-16.701-13.201l6.2-5.6h1.601l10.2,17.701L251.469,4887.396z"/>
	<path fill="#231F20" d="M422.068,4931.6v-1.5l21.601-34.703v-0.699h-5.4c-6.1,0-9.3,1.199-13.601,9.9h-1.6v-12.9h32.702v1.5
		l-21.602,34.701v0.602h5.5c6.101,0,9.301-1.102,13.601-10.201h1.5v13.301H422.068z M433.568,4887.396l-1.3-1.1l10.2-17.701h1.501
		l6.3,5.6L433.568,4887.396z"/>
	<path fill="#231F20" d="M613.067,4931.6v-1.5l21.601-34.703v-0.699h-5.4c-6.1,0-9.3,1.199-13.601,9.9h-1.6v-12.9h32.702v1.5
		l-21.602,34.701v0.602h5.5c6.101,0,9.301-1.102,13.601-10.201h1.5v13.301H613.067z M627.868,4886.197l-11.401-16.402l1.2-1.1
		l12.301,8.301l12.301-8.301l1.2,1.1l-11.4,16.402H627.868z"/>
	<path fill="#231F20" d="M804.066,4931.6v-1.5l21.601-34.703v-0.699h-5.4c-6.1,0-9.3,1.199-13.601,9.9h-1.6v-12.9h32.702v1.5
		l-21.602,34.701v0.602h5.5c6.101,0,9.301-1.102,13.601-10.201h1.5v13.301H804.066z M814.967,4876.797
		c0-3.301,2.6-6.102,6.101-6.102c3.6,0,6.2,2.801,6.2,6.102c0,3.4-2.601,6.199-6.2,6.199
		C817.566,4882.996,814.967,4880.197,814.967,4876.797z"/>
	<path fill="#231F20" d="M1050.969,4920.898c-3.501,9.102-10.301,12.301-16.401,12.301c-7.7,0-13.701-3.9-16.701-10.5h-0.7
		c-3.4,7.4-10.2,10.5-15.4,10.5c-4.801,0-9.001-2.9-9.001-7.9c0-4.6,4-6.801,22.802-13.301v-6c0-5.801-2.801-8.6-8.001-8.6
		c-4.6,0-9.8,2.199-13.301,6.199l-1.399-1.1c3.8-6.201,11.601-12.4,20.201-12.4c4.1,0,8.2,1.299,10.4,4.6
		c3.3-2.9,7.601-4.6,12.2-4.6c7.601,0,15.802,4.199,15.102,14.801h-25.502c-0.1,0.9-0.1,1.799-0.1,2.699
		c0,12.201,6.2,17.801,13.001,17.801c3.7,0,8.9-1.699,11.301-5.4L1050.969,4920.898z M1015.566,4918.498v-3.5
		c-11.701,4.201-13.001,6.301-13.001,8.502c0,2.199,1.7,3.5,4.2,3.5C1010.266,4927,1015.566,4923.799,1015.566,4918.498z
		 M1018.267,4887.396l-1.3-1.1l10.2-17.701h1.5l6.301,5.6L1018.267,4887.396z M1025.667,4901.898h14.801
		c0.1-5.701-3-8.801-6.4-8.801C1029.067,4893.098,1026.566,4897.098,1025.667,4901.898z"/>
</g>
</svg>
