<?xml version="1.0" encoding="utf-8"?>
<!-- Generator: Adobe Illustrator 16.0.3, SVG Export Plug-In . SVG Version: 6.00 Build 0)  -->
<!DOCTYPE svg PUBLIC "-//W3C//DTD SVG 1.1//EN" "http://www.w3.org/Graphics/SVG/1.1/DTD/svg11.dtd">
<svg version="1.1" id="Layer_1" xmlns="http://www.w3.org/2000/svg" xmlns:xlink="http://www.w3.org/1999/xlink" x="0px" y="0px"
	 width="2007.464px" height="4561.496px" viewBox="0 0 2007.464 4561.496" enable-background="new 0 0 2007.464 4561.496"
	 xml:space="preserve">
<rect fill="#FFFFFF" width="2007.464" height="4561.496"/>
<g>
	<path fill="#231F20" d="M224.467,209.398c0-18.9,10.001-31.701,24.802-31.701c14.701,0,24.802,12.801,24.802,31.701
		c0,18.901-10.101,31.803-24.802,31.803C234.468,241.201,224.467,228.299,224.467,209.398z M262.369,209.398
		c0-19.601-5.3-27.901-13.101-27.901s-13.201,8.301-13.201,27.901c0,19.602,5.4,28.002,13.201,28.002S262.369,229,262.369,209.398z"
		/>
	<path fill="#231F20" d="M444.864,209.398c0-18.9,10.001-31.701,24.802-31.701c14.701,0,24.802,12.801,24.802,31.701
		c0,18.901-10.101,31.803-24.802,31.803C454.865,241.201,444.864,228.299,444.864,209.398z M459.966,230.299l16.001-46.402
		c-1.9-1.601-4.001-2.4-6.301-2.4c-7.801,0-13.201,8.301-13.201,27.901C456.465,218.899,457.766,225.799,459.966,230.299z
		 M482.767,209.398c0-10.2-1.5-17.301-3.9-21.801L462.766,234.5c1.9,2,4.3,2.9,6.9,2.9C477.467,237.4,482.767,229,482.767,209.398z"
		/>
	<path fill="#231F20" d="M666.261,239.6v-1.5c8.301-1.7,9.801-3,9.801-7.501v-38.902c0-4.6-1.4-4.8-6.5-4.8h-3.601v-1.601l19.201-8
		h1.601v53.303c0,4.501,1.5,5.801,9.8,7.501v1.5H666.261z"/>
	<path fill="#231F20" d="M865.957,239.6v-1.5c12.4-12.501,30.302-27.102,30.302-43.603c0-9.4-4.2-13.001-9.5-13.001
		c-7.301,0-12.401,5.3-16.701,14.701h-1.5v-14.602c6.2-2.399,14.101-3.899,19.901-3.899c10.5,0,19.301,5.3,19.301,16.7
		c0,15.001-17.501,24.702-29.602,35.902v0.5h14.301c6.101,0,9.601-0.399,13.9-8.7h1.601V239.6H865.957z"/>
	<path fill="#231F20" d="M1081.753,222.699h1.5c3.9,9.401,9.301,14.701,17.102,14.701c6.1,0,11.9-3.4,11.9-12.9
		c0-10.201-8.2-14.501-17.101-15.901v-1.5l16.001-18.501v-0.5h-14.701c-6.101,0-9.201,0.399-13.201,8.7h-1.5v-17.501h40.603v1.5
		l-19.102,22.602c11.701,1.9,20.102,7.801,20.102,18.101c0,12.301-12.301,19.702-23.802,19.702c-5.8,0-12.5-1.4-17.801-3.9V222.699z
		"/>
	<path fill="#231F20" d="M1313.65,239.6v-1.5c7.301-1.7,8.501-3,8.501-7.501V226.2h-29.702v-1.501l32.202-45.402h7.501v38.402h10.2
		v8.501h-10.2v4.399c0,4.501,1.199,5.801,8.5,7.501v1.5H1313.65z M1322.151,189.597h-0.5l-19.501,27.401v0.7h20.001V189.597z"/>
	<path fill="#231F20" d="M1551.248,196.797c-4-8.301-7.101-8.7-13.201-8.7h-16.2l-1.101,15.4c3.5-0.8,7.501-1.1,10.501-1.1
		c16.301,0,25.302,7.601,25.302,18.801c0,12.301-12.102,20.002-24.002,20.002c-5.8,0-12.001-1.4-17.401-3.9v-14.602h1.601
		c3.9,9.401,8.301,14.701,16.101,14.701c6.801,0,12.602-5,12.602-14.4c0-10.201-7.101-16.102-18.802-16.102c-2.6,0-6.5,0.3-9.601,1
		l-0.8-1.399l2-27.202h34.502v17.501H1551.248z"/>
	<path fill="#231F20" d="M1740.743,205.698c3.8-2.399,9.2-3.5,12.7-3.5c12.101,0,19.602,6.9,19.602,18.102
		c0,11.9-10.801,20.901-21.802,20.901c-13.4,0-22.901-9.602-22.901-24.502c0-18.901,15.701-34.002,34.103-39.002l0.7,1.699
		C1753.443,184.197,1744.143,192.597,1740.743,205.698z M1740.043,208.999c-0.4,2.399-0.601,5-0.601,7.7
		c0,15.001,5.2,20.701,11.801,20.701c6.301,0,10.701-5.7,10.701-15.4c0-10.901-5.7-15.302-13.301-15.302
		C1746.043,206.698,1742.943,207.398,1740.043,208.999z"/>
	<path fill="#231F20" d="M232.468,515.6v-1.5l28.501-49.503v-0.5h-20.4c-6.101,0-9.601,0.399-13.901,8.7h-1.5v-17.501h41.603v1.5
		L242.769,515.6H232.468z"/>
	<path fill="#231F20" d="M470.096,482.499c6.9,3.399,13.001,7.6,13.001,15.7c0,12.901-12.801,19.002-22.401,19.002
		c-11.2,0-21.602-4.801-21.602-15.401c0-7.7,5.501-13.101,13.201-16.301c-6.301-3.2-11.601-7.4-11.601-14.901
		c0-11.801,11.2-16.9,20.701-16.9c9.7,0,20.001,4.8,20.001,14.4C481.396,475.297,475.896,479.598,470.096,482.499z M454.896,486.699
		c-4.2,3.7-5.801,9-5.801,13.801c0,8.601,5.9,12.9,12.801,12.9c6.4,0,12.301-4.101,12.301-11.101
		C474.196,493.899,463.996,490.899,454.896,486.699z M467.096,481.198c2.9-3.1,4.301-7.4,4.301-12.101
		c0-7.7-5.4-11.601-11.201-11.601c-5.5,0-10.601,3.101-10.601,9.001C449.595,474.297,458.495,477.398,467.096,481.198z"/>
	<path fill="#231F20" d="M667.519,515.5c9.7-4.801,19.001-13.102,22.401-26.202c-3.7,2.4-9.101,3.4-12.601,3.4
		c-12.102,0-19.602-6.9-19.602-18.102c0-11.9,10.801-20.9,21.802-20.9c13.301,0,22.901,9.601,22.901,24.501
		c0,18.901-15.701,34.002-34.202,39.003L667.519,515.5z M690.62,485.898c0.399-2.399,0.699-5,0.699-7.7
		c0-15.001-5.2-20.701-11.8-20.701c-6.301,0-10.701,5.7-10.701,15.401c0,10.9,5.7,15.301,13.301,15.301
		C684.619,488.199,687.72,487.499,690.62,485.898z"/>
	<path fill="#231F20" d="M877.443,492.099c0-15.401,10.301-25.002,21.501-25.002c11.201,0,21.502,9.601,21.502,25.002
		c0,15.5-10.301,25.102-21.502,25.102C887.744,517.201,877.443,507.599,877.443,492.099z M909.646,492.099
		c0-12.001-2.9-21.502-10.701-21.502c-7.8,0-10.7,9.501-10.7,21.502c0,12.101,2.9,21.601,10.7,21.601
		C906.745,513.7,909.646,504.2,909.646,492.099z"/>
	<path fill="#231F20" d="M1095.169,492.099c0-15.401,10.301-25.002,21.501-25.002c11.201,0,21.502,9.601,21.502,25.002
		c0,15.5-10.301,25.102-21.502,25.102C1105.47,517.201,1095.169,507.599,1095.169,492.099z M1109.069,509l12.701-36.602
		c-1.4-1.101-3.101-1.801-5.101-1.801c-7.8,0-10.7,9.501-10.7,21.502C1105.97,499,1106.869,505,1109.069,509z M1127.371,492.099
		c0-6.201-0.8-11.801-2.7-15.701L1112.17,512.4c1.3,0.9,2.8,1.3,4.5,1.3C1124.471,513.7,1127.371,504.2,1127.371,492.099z"/>
	<path fill="#231F20" d="M1313.894,515.6v-1.5c6.5-1.4,7.101-2.5,7.101-5.801v-28.302c0-4.6-1.7-4.8-5.101-4.8h-2v-1.601l15.601-5.3
		h1.601v40.002c0,3.301,0.6,4.4,7.101,5.801v1.5H1313.894z"/>
	<path fill="#231F20" d="M1512.219,515.6v-1.5c13.101-12.501,27.702-20.401,27.702-33.502c0-6.4-3.501-10.001-8.301-10.001
		c-4.5,0-8.7,3.801-12.201,11.4h-1.5l-4.7-9.1c5-3.501,13.401-5.801,19.501-5.801c9.501,0,17.901,4,17.901,12.601
		c0,12.401-14.001,18.602-25.001,26.602v0.5h25.901v8.801H1512.219z"/>
	<path fill="#231F20" d="M1729.344,519.6h1.601c3.4,6.501,9.001,11.001,14.301,11.001c5.5,0,11.801-4.4,11.801-13.801
		c0-10.201-8.2-15.301-17.201-17.001v-1.5l15.601-20.302v-0.6h-27.701v-8.701h38.603v1.501l-18.901,24.501
		c12.101,2.4,20.301,8.501,20.301,19.001c0,12.701-12.801,20.401-23.401,20.401c-6.4,0-14.4-2-19.501-5.8L1729.344,519.6z"/>
	<path fill="#231F20" d="M251.869,808.501v-14.301h-30.103V792.7l32.603-48.003h7.1V785.7h10.201v8.501h-10.201v14.301H251.869z
		 M251.869,755.498h-0.501L231.167,785.1v0.6h20.702V755.498z"/>
	<path fill="#231F20" d="M444.677,795.6h1.5c3.4,6.501,8.401,11.001,13.401,11.001c6.8,0,11.501-5,11.501-15.001
		c0-10.301-7.101-16.801-18.802-16.801c-2.6,0-4.9,0.3-8,1l-0.7-1.5l2-29.603h33.502v8.701h-30.102l-1.2,18.001
		c2.8-0.8,6.101-1.101,9.101-1.101c16.301,0,25.302,8.301,25.302,19.401c0,13.001-12.001,20.401-23.502,20.401
		c-6.4,0-13.501-2-18.601-5.8L444.677,795.6z"/>
	<path fill="#231F20" d="M660.891,755.898c3.8-2.601,9.501-3.7,13.101-3.7c12.101,0,19.602,7.9,19.602,19.102
		c0,12.9-10.801,21.901-21.802,21.901c-13.4,0-22.901-9.602-22.901-25.802c0-18.901,17.001-39.902,36.803-46.903l0.7,1.7
		C674.991,728.596,664.591,741.097,660.891,755.898z M660.19,759.298c-0.5,2.6-0.7,5.4-0.7,8.101c0,16.301,5.7,22.301,12.301,22.301
		c6.301,0,11.301-6,11.301-16.701c0-10.9-6.3-16.301-13.9-16.301C666.491,756.698,663.19,757.498,660.19,759.298z"/>
	<path fill="#231F20" d="M865.902,808.501v-1.601l28.501-52.903v-0.6h-35.502v-8.701h41.303v1.501l-24.001,62.304H865.902z"/>
	<path fill="#231F20" d="M1096.215,756.298c7.4,4.8,14.301,10.2,14.301,19.001c0,12.801-11.501,17.901-21.001,17.901
		c-9.701,0-19.602-5.101-19.602-15.001c0-8.001,7.601-14.201,14.201-17.502c-7.9-5-15.302-10.9-15.302-20.9
		c0-13.201,12.401-19.302,22.102-19.302c11.201,0,21.302,5.101,21.302,16.001C1112.216,744.797,1104.815,752.698,1096.215,756.298z
		 M1093.914,754.798c5.201-3.801,8.601-11.602,8.601-16.901c0-9.001-5.9-13.801-12.801-13.801c-6.4,0-12.301,4.3-12.301,11.601
		C1077.413,744.498,1085.614,749.498,1093.914,754.798z M1086.514,762.298c-4,3.3-6.9,9.501-6.9,14.9
		c0,7.901,5.301,12.201,11.101,12.201c5.501,0,11.201-3.101,11.201-10.001C1101.915,771.799,1094.414,767.298,1086.514,762.298z"/>
	<path fill="#231F20" d="M1290.624,808.301c9.601-4.801,19.101-14.401,22.701-27.802c-3.8,2.5-9.4,3.5-12.9,3.5
		c-12.102,0-19.602-7.801-19.602-19.101c0-12.801,10.801-21.802,21.802-21.802c13.301,0,22.901,9.501,22.901,25.802
		c0,18.901-15.701,36.202-34.202,41.202L1290.624,808.301z M1314.125,777.099c0.5-2.6,0.7-5.3,0.7-8.2
		c0-16.301-5.601-22.201-12.2-22.201c-6.301,0-11.102,5.9-11.102,16.601c0,10.9,6.101,16.301,13.701,16.301
		C1307.825,779.599,1311.125,778.899,1314.125,777.099z"/>
	<path fill="#231F20" d="M1495.335,761.398c0-18.9,10.101-31.701,24.802-31.701s24.802,12.801,24.802,31.701
		c0,18.901-10.101,31.803-24.802,31.803S1495.335,780.299,1495.335,761.398z M1533.237,761.398c0-19.601-5.3-27.901-13.101-27.901
		s-13.101,8.301-13.101,27.901c0,19.602,5.3,28.002,13.101,28.002S1533.237,781,1533.237,761.398z"/>
	<path fill="#231F20" d="M1716.944,761.398c0-18.9,10.101-31.701,24.802-31.701s24.802,12.801,24.802,31.701
		c0,18.901-10.101,31.803-24.802,31.803S1716.944,780.299,1716.944,761.398z M1732.045,782.299l16.001-46.402
		c-1.899-1.601-4-2.4-6.3-2.4c-7.801,0-13.101,8.301-13.101,27.901C1728.646,770.899,1729.846,777.7,1732.045,782.299z
		 M1754.847,761.398c0-10.2-1.5-17.301-3.9-21.801l-16.101,46.902c2,2,4.3,2.9,6.9,2.9
		C1749.547,789.4,1754.847,781,1754.847,761.398z"/>
	<path fill="#231F20" d="M232.167,1067.6v-1.5c11.001-1.7,13.802-3.4,13.802-8.501v-37.902c0-4.6-1.301-4.8-6.501-4.8h-7.601v-1.601
		l23.302-8h1.5v52.303c0,5.101,2.9,6.801,13.801,8.501v1.5H232.167z"/>
	<path fill="#231F20" d="M442.664,1067.6v-1.5c12.4-12.501,30.302-27.102,30.302-43.603c0-9.4-4.101-13.001-9.501-13.001
		c-7.3,0-12.4,5.3-16.601,14.701h-1.601v-14.602c6.2-2.399,14.102-3.899,19.901-3.899c10.601,0,19.302,5.3,19.302,16.7
		c0,15.001-17.502,24.702-29.603,35.902v0.5h14.301c6.101,0,9.601-0.399,14.001-8.7h1.5v17.501H442.664z"/>
	<path fill="#231F20" d="M657.262,1050.699h1.5c4,9.401,9.301,14.701,17.101,14.701c6.101,0,11.901-3.4,11.901-12.9
		c0-10.201-8.201-14.501-17.102-15.901v-1.5l16.001-18.501v-0.5h-14.601c-6.101,0-9.301,0.399-13.301,8.7h-1.5v-17.501h40.603v1.5
		l-19.102,22.602c11.7,1.9,20.102,7.801,20.102,18.101c0,12.301-12.201,19.702-23.802,19.702c-5.801,0-12.501-1.4-17.801-3.9
		V1050.699z"/>
	<path fill="#231F20" d="M885.959,1067.6v-1.5c7.3-1.7,8.5-3,8.5-7.501v-4.399h-29.701v-1.501l32.201-45.402h7.501v38.402h10.2
		v8.501h-10.2v4.399c0,4.501,1.2,5.801,8.501,7.501v1.5H885.959z M894.459,1017.597h-0.5l-19.501,27.401v0.7h20.001V1017.597z"/>
	<path fill="#231F20" d="M1119.157,1024.797c-4.4-8.301-7.2-8.7-13.301-8.7h-16.201l-1.1,15.4c3.4-0.8,7.601-1.1,10.601-1.1
		c16.201,0,25.201,7.601,25.201,18.801c0,12.301-12.101,20.002-23.901,20.002c-5.9,0-12.101-1.4-17.4-3.9v-14.602h1.5
		c4,9.401,8.4,14.701,16.201,14.701c6.8,0,12.5-5,12.5-14.4c0-10.201-7-16.102-18.801-16.102c-2.601,0-6.5,0.3-9.601,1l-0.7-1.399
		l2-27.202h34.502v17.501H1119.157z"/>
	<path fill="#231F20" d="M1306.452,1033.698c3.801-2.399,9.201-3.5,12.701-3.5c12.101,0,19.701,6.9,19.701,18.102
		c0,11.9-10.801,20.901-21.901,20.901c-13.301,0-22.901-9.602-22.901-24.502c0-18.901,15.801-34.002,34.202-39.002l0.7,1.699
		C1319.253,1012.197,1309.853,1020.597,1306.452,1033.698z M1305.752,1036.999c-0.399,2.399-0.6,5-0.6,7.7
		c0,15.001,5.2,20.701,11.801,20.701c6.301,0,10.801-5.7,10.801-15.4c0-10.901-5.7-15.302-13.301-15.302
		C1311.853,1034.698,1308.652,1035.398,1305.752,1036.999z"/>
	<path fill="#231F20" d="M1516.25,1067.6v-1.5l28.501-49.503v-0.5h-20.4c-6.101,0-9.501,0.399-13.901,8.7h-1.5v-17.501h41.603v1.5
		l-23.901,58.804H1516.25z"/>
	<path fill="#231F20" d="M1750.747,1034.499c6.9,3.399,13.001,7.6,13.001,15.7c0,12.901-12.801,19.002-22.401,19.002
		c-11.2,0-21.601-4.801-21.601-15.401c0-7.7,5.5-13.101,13.2-16.301c-6.3-3.2-11.601-7.4-11.601-14.901
		c0-11.801,11.201-16.9,20.701-16.9c9.701,0,19.901,4.8,19.901,14.4C1761.948,1027.297,1756.548,1031.598,1750.747,1034.499z
		 M1735.547,1038.699c-4.2,3.7-5.801,9-5.801,13.801c0,8.601,5.9,12.9,12.801,12.9c6.4,0,12.301-4.101,12.301-11.101
		C1754.848,1045.899,1744.647,1042.899,1735.547,1038.699z M1747.747,1033.198c2.9-3.1,4.301-7.4,4.301-12.101
		c0-7.7-5.4-11.601-11.201-11.601c-5.5,0-10.601,3.101-10.601,9.001C1730.246,1026.297,1739.146,1029.398,1747.747,1033.198z"/>
	<path fill="#231F20" d="M238.468,1343.5c9.7-4.801,19.001-13.102,22.401-26.202c-3.8,2.4-9.101,3.4-12.601,3.4
		c-12.101,0-19.701-6.9-19.701-18.102c0-11.9,10.801-20.9,21.901-20.9c13.301,0,22.801,9.601,22.801,24.501
		c0,18.901-15.7,34.002-34.102,39.003L238.468,1343.5z M261.569,1313.898c0.4-2.399,0.7-5,0.7-7.7
		c0-15.001-5.2-20.701-11.801-20.701c-6.301,0-10.801,5.7-10.801,15.401c0,10.9,5.7,15.301,13.301,15.301
		C255.469,1316.199,258.669,1315.499,261.569,1313.898z"/>
	<path fill="#231F20" d="M451.221,1320.099c0-15.401,10.301-25.002,21.501-25.002c11.201,0,21.502,9.601,21.502,25.002
		c0,15.5-10.301,25.102-21.502,25.102C461.521,1345.201,451.221,1335.599,451.221,1320.099z M483.423,1320.099
		c0-12.001-2.9-21.502-10.701-21.502c-7.8,0-10.7,9.501-10.7,21.502c0,12.101,2.9,21.601,10.7,21.601
		C480.522,1341.7,483.423,1332.2,483.423,1320.099z"/>
	<path fill="#231F20" d="M666.675,1320.099c0-15.401,10.301-25.002,21.501-25.002c11.201,0,21.502,9.601,21.502,25.002
		c0,15.5-10.301,25.102-21.502,25.102C676.976,1345.201,666.675,1335.599,666.675,1320.099z M680.575,1337l12.701-36.602
		c-1.4-1.101-3.101-1.801-5.101-1.801c-7.8,0-10.7,9.501-10.7,21.502C677.476,1327,678.375,1333,680.575,1337z M698.877,1320.099
		c0-6.201-0.8-11.801-2.7-15.701l-12.501,36.002c1.3,0.9,2.8,1.3,4.5,1.3C695.977,1341.7,698.877,1332.2,698.877,1320.099z"/>
	<path fill="#231F20" d="M883.128,1343.6v-1.5c6.5-1.4,7.101-2.5,7.101-5.801v-28.302c0-4.6-1.7-4.8-5.101-4.8h-2v-1.601l15.601-5.3
		h1.601v40.002c0,3.301,0.6,4.4,7.101,5.801v1.5H883.128z"/>
	<path fill="#231F20" d="M1079.182,1343.6v-1.5c13.101-12.501,27.702-20.401,27.702-33.502c0-6.4-3.501-10.001-8.301-10.001
		c-4.5,0-8.7,3.801-12.201,11.4h-1.5l-4.7-9.1c5-3.501,13.401-5.801,19.501-5.801c9.501,0,17.901,4,17.901,12.601
		c0,12.401-14.001,18.602-25.001,26.602v0.5h25.901v8.801H1079.182z"/>
	<path fill="#231F20" d="M1294.036,1347.6h1.601c3.4,6.501,9.001,11.001,14.301,11.001c5.5,0,11.801-4.4,11.801-13.801
		c0-10.201-8.2-15.301-17.201-17.001v-1.5l15.602-20.302v-0.6h-27.702v-8.701h38.603v1.501l-18.901,24.501
		c12.101,2.4,20.301,8.501,20.301,19.001c0,12.701-12.801,20.401-23.401,20.401c-6.4,0-14.4-2-19.501-5.8L1294.036,1347.6z"/>
	<path fill="#231F20" d="M1533.893,1360.501v-14.301h-30.103v-1.501l32.603-48.003h7.1v41.003h10.201v8.501h-10.201v14.301H1533.893
		z M1533.893,1307.498h-0.501l-20.201,29.603v0.6h20.702V1307.498z"/>
	<path fill="#231F20" d="M1732.143,1347.6h1.5c3.4,6.501,8.4,11.001,13.401,11.001c6.8,0,11.501-5,11.501-15.001
		c0-10.301-7.101-16.801-18.802-16.801c-2.6,0-4.9,0.3-8,1l-0.7-1.5l2-29.603h33.502v8.701h-30.102l-1.2,18.001
		c2.8-0.8,6.101-1.101,9.101-1.101c16.301,0,25.302,8.301,25.302,19.401c0,13.001-12.001,20.401-23.502,20.401
		c-6.4,0-13.501-2-18.601-5.8L1732.143,1347.6z"/>
	<path fill="#231F20" d="M236.468,1583.898c3.8-2.601,9.501-3.7,13.101-3.7c12.101,0,19.602,7.9,19.602,19.102
		c0,12.9-10.801,21.901-21.802,21.901c-13.4,0-22.901-9.602-22.901-25.802c0-18.901,17.001-39.902,36.803-46.903l0.7,1.7
		C250.568,1556.596,240.168,1569.097,236.468,1583.898z M235.768,1587.298c-0.5,2.6-0.7,5.4-0.7,8.101
		c0,16.301,5.7,22.301,12.301,22.301c6.301,0,11.301-6,11.301-16.701c0-10.9-6.3-16.301-13.9-16.301
		C242.068,1584.698,238.768,1585.498,235.768,1587.298z"/>
	<path fill="#231F20" d="M438.793,1636.501v-1.601l28.501-52.903v-0.6h-35.502v-8.701h41.303v1.501l-24.001,62.304H438.793z"/>
	<path fill="#231F20" d="M666.421,1584.298c7.4,4.8,14.301,10.2,14.301,19.001c0,12.801-11.501,17.901-21.001,17.901
		c-9.701,0-19.602-5.101-19.602-15.001c0-8.001,7.601-14.201,14.201-17.502c-7.9-5-15.302-10.9-15.302-20.9
		c0-13.201,12.401-19.302,22.102-19.302c11.201,0,21.302,5.101,21.302,16.001C682.422,1572.797,675.021,1580.698,666.421,1584.298z
		 M664.12,1582.798c5.201-3.801,8.601-11.602,8.601-16.901c0-9.001-5.9-13.801-12.801-13.801c-6.4,0-12.301,4.3-12.301,11.601
		C647.619,1572.498,655.82,1577.498,664.12,1582.798z M656.72,1590.298c-4,3.3-6.9,9.501-6.9,14.9
		c0,7.901,5.301,12.201,11.101,12.201c5.501,0,11.201-3.101,11.201-10.001C672.121,1599.799,664.62,1595.298,656.72,1590.298z"/>
	<path fill="#231F20" d="M858.145,1636.301c9.601-4.801,19.101-14.401,22.701-27.802c-3.8,2.5-9.4,3.5-12.9,3.5
		c-12.102,0-19.602-7.801-19.602-19.101c0-12.801,10.801-21.802,21.802-21.802c13.301,0,22.901,9.501,22.901,25.802
		c0,18.901-15.701,36.202-34.202,41.202L858.145,1636.301z M881.646,1605.099c0.5-2.6,0.7-5.3,0.7-8.2
		c0-16.301-5.601-22.201-12.2-22.201c-6.301,0-11.102,5.9-11.102,16.601c0,10.9,6.101,16.301,13.701,16.301
		C875.346,1607.599,878.646,1606.899,881.646,1605.099z"/>
	<path fill="#231F20" d="M1063.471,1596.099c0-15.401,10.3-25.002,21.501-25.002c11.2,0,21.501,9.601,21.501,25.002
		c0,15.5-10.301,25.102-21.501,25.102C1073.771,1621.201,1063.471,1611.599,1063.471,1596.099z M1095.672,1596.099
		c0-12.001-2.899-21.502-10.7-21.502s-10.701,9.501-10.701,21.502c0,12.101,2.9,21.601,10.701,21.601
		S1095.672,1608.2,1095.672,1596.099z"/>
	<path fill="#231F20" d="M1282.396,1596.099c0-15.401,10.3-25.002,21.501-25.002c11.2,0,21.501,9.601,21.501,25.002
		c0,15.5-10.301,25.102-21.501,25.102C1292.695,1621.201,1282.396,1611.599,1282.396,1596.099z M1296.296,1613l12.701-36.602
		c-1.4-1.101-3.101-1.801-5.101-1.801c-7.801,0-10.701,9.501-10.701,21.502C1293.195,1603,1294.096,1609,1296.296,1613z
		 M1314.597,1596.099c0-6.201-0.8-11.801-2.7-15.701l-12.5,36.002c1.3,0.9,2.8,1.3,4.5,1.3
		C1311.697,1617.7,1314.597,1608.2,1314.597,1596.099z"/>
	<path fill="#231F20" d="M1506.921,1619.6v-1.5c7.301-1.4,11.201-2.5,11.201-6.801v-27.302c0-4.6-1.7-4.8-5.2-4.8h-6.001v-1.601
		l19.701-5.3h1.5v39.002c0,4.301,4.001,5.4,11.201,6.801v1.5H1506.921z"/>
	<path fill="#231F20" d="M1721.346,1619.6v-1.5c13.101-12.501,27.702-20.401,27.702-33.502c0-6.4-3.501-10.001-8.201-10.001
		c-4.6,0-8.801,3.801-12.2,11.4h-1.601l-4.7-9.1c5-3.501,13.4-5.801,19.501-5.801c9.501,0,18.001,4,18.001,12.601
		c0,12.401-14,18.602-25.102,26.602v0.5h26.002v8.801H1721.346z"/>
	<path fill="#231F20" d="M233.668,1899.6h1.5c3.399,6.501,9,11.001,14.4,11.001c5.5,0,11.701-4.4,11.701-13.801
		c0-10.201-8.201-15.301-17.102-17.001v-1.5l15.602-20.302v-0.6h-27.702v-8.701h38.603v1.501l-18.901,24.501
		c12.001,2.4,20.302,8.501,20.302,19.001c0,12.701-12.901,20.401-23.402,20.401c-6.4,0-14.5-2-19.601-5.8L233.668,1899.6z"/>
	<path fill="#231F20" d="M470.78,1912.501v-14.301h-30.102v-1.501l32.602-48.003h7.101v41.003h10.201v8.501h-10.201v14.301H470.78z
		 M470.78,1859.498h-0.6l-20.102,29.603v0.6h20.701V1859.498z"/>
	<path fill="#231F20" d="M664.39,1899.6h1.601c3.399,6.501,8.3,11.001,13.4,11.001c6.7,0,11.4-5,11.4-15.001
		c0-10.301-7-16.801-18.801-16.801c-2.601,0-4.801,0.3-7.9,1l-0.8-1.5l2-29.603h33.602v8.701h-30.202l-1.199,18.001
		c2.8-0.8,6.2-1.101,9.2-1.101c16.201,0,25.201,8.301,25.201,19.401c0,13.001-11.9,20.401-23.401,20.401c-6.4,0-13.501-2-18.601-5.8
		L664.39,1899.6z"/>
	<path fill="#231F20" d="M886.002,1859.898c3.8-2.601,9.5-3.7,13.101-3.7c12.101,0,19.701,7.9,19.701,19.102
		c0,12.9-10.801,21.901-21.901,21.901c-13.301,0-22.901-9.602-22.901-25.802c0-18.901,17.101-39.902,36.902-46.903l0.7,1.7
		C900.202,1832.596,889.802,1845.097,886.002,1859.898z M885.302,1863.198c-0.5,2.7-0.7,5.4-0.7,8.201
		c0,16.301,5.7,22.301,12.301,22.301c6.301,0,11.301-6,11.301-16.701c0-10.9-6.2-16.301-13.801-16.301
		C891.702,1860.698,888.401,1861.498,885.302,1863.198z"/>
	<path fill="#231F20" d="M1097.012,1912.501v-1.601l28.502-52.903v-0.6h-35.502v-8.701h41.303v1.501l-23.902,62.304H1097.012z"/>
	<path fill="#231F20" d="M1331.225,1860.298c7.4,4.8,14.301,10.2,14.301,19.001c0,12.801-11.501,17.901-21.001,17.901
		c-9.701,0-19.602-5.101-19.602-15.001c0-8.001,7.601-14.201,14.201-17.502c-7.9-5-15.301-10.9-15.301-20.9
		c0-13.201,12.4-19.302,22.101-19.302c11.102,0,21.302,5.101,21.302,16.001C1347.226,1848.797,1339.825,1856.698,1331.225,1860.298z
		 M1328.925,1858.798c5.2-3.801,8.601-11.602,8.601-16.901c0-9.001-5.9-13.801-12.801-13.801c-6.4,0-12.301,4.3-12.301,11.601
		C1312.424,1848.498,1320.624,1853.498,1328.925,1858.798z M1321.524,1866.298c-4.001,3.3-6.9,9.501-6.9,14.9
		c0,7.901,5.3,12.201,11.101,12.201c5.5,0,11.2-3.101,11.2-10.001C1336.925,1875.799,1329.425,1871.298,1321.524,1866.298z"/>
	<path fill="#231F20" d="M1527.335,1912.301c9.601-4.801,19.001-14.301,22.602-27.702c-3.801,2.4-9.301,3.4-12.801,3.4
		c-12.101,0-19.701-7.801-19.701-19.101c0-12.801,10.801-21.802,21.901-21.802c13.301,0,22.801,9.501,22.801,25.802
		c0,18.901-15.7,36.202-34.102,41.202L1527.335,1912.301z M1550.736,1881.199c0.5-2.699,0.7-5.399,0.7-8.3
		c0-16.301-5.5-22.201-12.101-22.201c-6.301,0-11.201,5.9-11.201,16.601c0,10.9,6.101,16.301,13.701,16.301
		C1544.437,1883.599,1547.736,1882.899,1550.736,1881.199z"/>
	<path fill="#231F20" d="M1728.145,1872.199c0-14.701,8.201-24.901,20.201-24.901c12.201,0,20.401,10.2,20.401,24.901
		c0,14.601-8.2,25.002-20.401,25.002C1736.346,1897.201,1728.145,1886.799,1728.145,1872.199z M1757.946,1872.199
		c0-15.201-3.8-21.701-9.601-21.701c-5.7,0-9.4,6.5-9.4,21.701s3.7,21.801,9.4,21.801
		C1754.146,1894,1757.946,1887.4,1757.946,1872.199z"/>
	<path fill="#231F20" d="M224.467,2148.199c0-14.701,8.201-24.901,20.201-24.901c12.201,0,20.401,10.2,20.401,24.901
		c0,14.601-8.2,25.002-20.401,25.002C232.668,2173.201,224.467,2162.799,224.467,2148.199z M237.168,2163.4l12.501-34.702
		c-1.4-1.4-3.101-2.2-5.001-2.2c-5.7,0-9.4,6.5-9.4,21.701C235.268,2154.899,235.968,2159.799,237.168,2163.4z M254.269,2148.199
		c0-7.101-0.899-12.301-2.399-15.901l-12.602,35.003c1.5,1.899,3.301,2.699,5.4,2.699C250.469,2170,254.269,2163.4,254.269,2148.199
		z"/>
	<path fill="#231F20" d="M447.834,2171.6v-1.5c6.601-1.3,7.7-2.2,7.7-6.301v-28.201c0-4.001-1.7-4.2-5.2-4.2h-2.7v-1.5l16.401-6.601
		h1.5v40.502c0,4.101,1,5.001,7.7,6.301v1.5H447.834z"/>
	<path fill="#231F20" d="M653.802,2171.6v-1.5c9.9-9.7,23.602-22.501,23.602-34.603c0-6-3.2-8.8-7.101-8.8
		c-5.3,0-9.4,3.899-13.4,11.5h-1.5v-11.4c5-2,11.5-3.3,16.101-3.3c8.7,0,16.301,3.899,16.301,13.101
		c0,11.001-13.001,18.101-23.001,26.401v0.7h9.9c4.9,0,8.001-0.5,11.9-7.001h1.601v14.901H653.802z"/>
	<path fill="#231F20" d="M870.871,2158.599h1.5c3.5,7.301,7.9,11.4,13.9,11.4c4.4,0,9.001-3,9.001-10.101
		c0-7.3-6.201-10-13.701-11.4v-1.5l12.301-13.501v-0.7h-9.301c-4.8,0-7.801,0.5-11.9,7.001h-1.5v-14.901h33.102v1.5l-15.501,17.102
		c9.801,1.4,16.602,5.601,16.602,13.4c0,9.901-10.301,16.302-19.802,16.302c-4.6,0-10.2-1.001-14.7-3.201V2158.599z"/>
	<path fill="#231F20" d="M1099.44,2144.598c3.2-2,7.5-2.6,10.101-2.6c9.4,0,15.9,5.3,15.9,14.501
		c0,9.601-9.101,16.701-18.301,16.701c-10.9,0-18.901-7.501-18.901-20.002c0-14.601,12.401-25.701,27.902-29.602l0.6,1.6
		C1108.541,2128.898,1101.84,2134.798,1099.44,2144.598z M1098.84,2147.599c-0.3,1.699-0.399,3.6-0.399,5.6
		c0,12.301,3.899,16.801,8.7,16.801c4.601,0,8.301-3.6,8.301-11.8c0-8.701-4.601-12.301-10.201-12.301
		C1103.341,2145.899,1101.04,2146.399,1098.84,2147.599z"/>
	<path fill="#231F20" d="M1309.108,2171.6v-1.5l23.101-36.603v-0.7h-15.4c-4.9,0-8.001,0.5-12.001,7.001h-1.5v-14.901h34.202v1.4
		l-18.201,45.303H1309.108z"/>
	<path fill="#231F20" d="M1540.278,2145.298c6.2,2.7,11.801,6.2,11.801,13.101c0,10.001-10.601,14.802-18.502,14.802
		c-9.5,0-18.201-3.4-18.201-11.602c0-5.9,4.9-10.101,11.301-12.4c-5.4-2.7-10-6.101-10-12.501c0-9.4,9.4-13.4,17.4-13.4
		c8.201,0,16.701,3.5,16.701,10.9C1550.778,2139.499,1545.479,2143.098,1540.278,2145.298z M1528.877,2150.199
		c-3,2.601-4.5,6.2-4.5,10.001c0,6.601,4.7,9.8,10.2,9.8c4.801,0,9.301-3.1,9.301-8
		C1543.878,2155.899,1536.078,2153.499,1528.877,2150.199z M1537.777,2144.199c2.4-2.2,3.9-5.4,3.9-9.201c0-5.8-4-8.5-8.601-8.5
		c-4.2,0-8.3,2.3-8.3,6.7C1524.777,2138.898,1531.178,2141.298,1537.777,2144.199z"/>
	<path fill="#231F20" d="M1757.546,2152.099c-3.3,2-7.5,2.5-10.101,2.5c-9.4,0-15.801-5.301-15.801-14.501
		c0-9.601,9.001-16.701,18.201-16.701c10.9,0,18.901,7.501,18.901,20.001c0,14.602-12.401,25.702-27.902,29.603l-0.6-1.601
		C1748.346,2167.7,1755.046,2161.799,1757.546,2152.099z M1758.146,2149.099c0.199-1.801,0.399-3.7,0.399-5.701
		c0-12.301-3.8-16.801-8.7-16.801c-4.5,0-8.2,3.601-8.2,11.801c0,8.7,4.5,12.301,10.101,12.301
		C1753.546,2150.699,1755.946,2150.199,1758.146,2149.099z"/>
	<path fill="#231F20" d="M223.267,2385.496c0-11.401,6.801-19.001,16.701-19.001s16.701,7.6,16.701,19.001
		c0,11.301-6.801,19.101-16.701,19.101S223.267,2396.796,223.267,2385.496z M246.969,2385.496c0-11.801-2.601-16.301-7.001-16.301
		s-7,4.5-7,16.301c0,11.7,2.6,16.4,7,16.4S246.969,2397.196,246.969,2385.496z"/>
	<path fill="#231F20" d="M417.29,2403.596v-1.1c5.4-1,6.2-1.801,6.2-5.2v-21.401c0-3.101-1.6-3.301-4.2-3.301h-2.1v-1l14.301-5.4
		h1.1v31.103c0,3.399,0.7,4.2,6.101,5.2v1.1H417.29z"/>
	<path fill="#231F20" d="M598.412,2403.596v-1.1c8.101-7.501,18.701-18.201,18.701-27.102c0-4.101-2.1-6.301-5.3-6.301
		c-4.301,0-7.801,3.2-11.201,8.9h-1.1v-8.8c4.1-1.801,9.5-2.7,13.301-2.7c7.2,0,13.601,2.899,13.601,10
		c0,8.301-10.4,13.301-18.701,19.802v0.5h7.601c4,0,6.9-0.5,10.4-5.501h1v12.301H598.412z"/>
	<path fill="#231F20" d="M787.434,2392.996h1c3,5.7,7.001,8.9,11.701,8.9c3.3,0,7-1.399,7-6.8c0-5.301-4.8-7.9-11.001-9.101v-1.101
		l9.601-10v-0.601h-7.1c-4.001,0-6.9,0.4-10.101,5.501h-1.101v-12.401h27.502v1.101l-12.301,13.4
		c7.801,1,13.301,4.601,13.301,10.601c0,7.801-8.601,12.101-16.401,12.101c-3.8,0-8.5-0.899-12.101-2.8V2392.996z"/>
	<path fill="#231F20" d="M988.557,2403.596v-1.1c4.8-1,5.6-1.9,5.6-4.9v-1.4h-19.301v-1.1l20.901-27.702h6.801v21.901h6.8v6.9h-6.8
		v1.4c0,3,0.8,3.9,5.5,4.9v1.1H988.557z M994.156,2374.195h-0.5l-11.2,14.601v0.5h11.7V2374.195z"/>
	<path fill="#231F20" d="M1194.279,2379.795c-3.1-5.101-6.101-5.501-10-5.501h-9.901l-0.6,8.101c2.3-0.5,5.4-0.7,7.2-0.7
		c11.301,0,17.201,4.001,17.201,11.001c0,8.4-9.301,11.9-16.901,11.9c-3.6,0-7.9-0.899-11.601-2.8v-8.801h1.101
		c2.9,5.7,6.3,8.9,11.101,8.9c4,0,7.5-2.3,7.5-7.5c0-6.2-4.8-9.4-12.101-9.4c-1.7,0-4.2,0.1-6.2,0.6l-0.5-1.1l1.3-17.102h23.502
		v12.401H1194.279z"/>
	<path fill="#231F20" d="M1368.201,2381.996c2.7-1.501,6.1-1.9,8.3-1.9c7.401,0,12.801,3.8,12.801,11.101c0,7.5-7.6,13.4-15.2,13.4
		c-9.001,0-15.602-5.4-15.602-15.501c0-11.4,10.001-19.601,22.901-22.601l0.601,1.3
		C1375.302,2370.594,1370.201,2374.794,1368.201,2381.996z M1367.601,2384.595c-0.2,1.4-0.3,2.9-0.3,4.5
		c0,9.301,3.101,12.801,6.801,12.801c3.6,0,6.3-3,6.3-9.3c0-6.701-3.5-9.201-7.8-9.201
		C1371.102,2383.395,1369.301,2383.795,1367.601,2384.595z"/>
	<path fill="#231F20" d="M1570.323,2382.895c4.9,2,9.2,4.801,9.2,10.301c0,7.7-8.8,11.4-15.4,11.4c-7.9,0-15.201-2.7-15.201-9.101
		c0-4.3,3.801-7.601,8.7-9.5c-4.2-1.9-7.7-4.301-7.7-9.001c0-7.5,8.001-10.5,14.501-10.5c7.001,0,14.001,2.5,14.001,8.3
		C1578.424,2378.595,1574.724,2381.195,1570.323,2382.895z M1559.822,2386.996c-1.8,1.9-2.899,4.6-2.899,7.3
		c0,5.001,3.5,7.601,8,7.601c4,0,7.301-2.5,7.301-5.9C1572.224,2390.996,1565.823,2389.295,1559.822,2386.996z M1567.823,2381.895
		c1.5-1.5,2.7-3.7,2.7-6.5c0-4.4-3.2-6.2-6.9-6.2c-3.5,0-6.501,1.8-6.501,4.899
		C1557.122,2378.195,1562.323,2379.795,1567.823,2381.895z"/>
	<path fill="#231F20" d="M1746.346,2403.296c6.7-2.8,11.8-7,13.801-14.201c-2.7,1.5-6.101,1.9-8.201,1.9
		c-7.5,0-12.801-3.8-12.801-11.2c0-7.501,7.601-13.301,15.102-13.301c9,0,15.601,5.3,15.601,15.4c0,11.4-9.801,19.701-22.901,22.701
		L1746.346,2403.296z M1760.746,2386.395c0.2-1.399,0.3-2.899,0.3-4.5c0-9.301-3.1-12.801-6.8-12.801
		c-3.601,0-6.201,3.101-6.201,9.301c0,6.8,3.501,9.2,7.701,9.2C1757.246,2387.595,1759.046,2387.295,1760.746,2386.395z"/>
	<path fill="#231F20" d="M226.467,2718.498c0-3.699,2.801-6.699,6.801-6.699c3.9,0,6.7,3,6.7,6.699c0,3.701-2.8,6.701-6.7,6.701
		C229.268,2725.199,226.467,2722.199,226.467,2718.498z"/>
	<path fill="#231F20" d="M412.488,2735.1c2.5-1.5,5.7-5.301,5.7-9c0-2.9-1.8-5.4-6.801-6.102v-1.5l5.2-7.1
		c6.501,0.699,10.001,4.5,10.001,9.1c0,6.102-4.9,12.301-13.301,16.002L412.488,2735.1z"/>
	<path fill="#231F20" d="M608.712,2672.996v-11.9h-12.701v-2.7h12.701v-11.801h3v11.801h12.9v2.7h-12.9v11.9H608.712z"/>
	<path fill="#231F20" d="M792.034,2661.095v-2.7h28.602v2.7H792.034z"/>
	<path fill="#231F20" d="M988.057,2655.095v-2.7h28.602v2.7H988.057z M988.057,2667.095v-2.699h28.602v2.699H988.057z"/>
	<path fill="#231F20" d="M1201.681,2686.896c-9.701-4.5-17.602-14.401-17.602-26.401c0-12.001,7.9-22.002,17.602-26.502l0.7,0.9
		c-5.601,5.3-8.701,14.4-8.701,25.602c0,11.101,3.101,20.202,8.701,25.5L1201.681,2686.896z"/>
	<path fill="#231F20" d="M1365.801,2685.996c5.601-5.299,8.7-14.4,8.7-25.5c0-11.201-3.1-20.302-8.7-25.602l0.6-0.9
		c9.701,4.5,17.701,14.501,17.701,26.502c0,12-8,21.901-17.701,26.401L1365.801,2685.996z"/>
	<path fill="#231F20" d="M1550.323,2717.498c0-11.4,6.801-19,16.701-19s16.701,7.6,16.701,19c0,11.301-6.801,19.102-16.701,19.102
		S1550.323,2728.799,1550.323,2717.498z M1574.025,2717.498c0-11.801-2.601-16.301-7.001-16.301s-7,4.5-7,16.301
		c0,11.701,2.6,16.402,7,16.402S1574.025,2729.199,1574.025,2717.498z"/>
	<path fill="#231F20" d="M1748.945,2735.6v-1.1c5.4-1,6.2-1.801,6.2-5.201v-21.4c0-3.1-1.6-3.301-4.2-3.301h-2.1v-1l14.301-5.4h1.1
		v31.102c0,3.4,0.7,4.201,6.101,5.201v1.1H1748.945z"/>
	<path fill="#231F20" d="M222.967,3011.6v-1.1c8.101-7.5,18.701-18.201,18.701-27.102c0-4.1-2.1-6.301-5.3-6.301
		c-4.301,0-7.801,3.201-11.201,8.9h-1.1v-8.801c4.1-1.799,9.5-2.699,13.301-2.699c7.2,0,13.601,2.9,13.601,10
		c0,8.301-10.4,13.301-18.701,19.801v0.5h7.601c4,0,6.9-0.5,10.4-5.5h1v12.301H222.967z"/>
	<path fill="#231F20" d="M414.25,3001h1c3,5.699,7.001,8.9,11.701,8.9c3.3,0,7-1.4,7-6.801c0-5.301-4.8-7.9-11.001-9.102v-1.1
		l9.601-10v-0.6h-7.1c-4.001,0-6.9,0.398-10.101,5.5h-1.101v-12.4h27.502v1.1l-12.301,13.4c7.801,1,13.301,4.6,13.301,10.602
		c0,7.799-8.601,12.1-16.401,12.1c-3.8,0-8.5-0.9-12.101-2.801V3001z"/>
	<path fill="#231F20" d="M617.637,3011.6v-1.1c4.8-1,5.6-1.9,5.6-4.9v-1.4h-19.301v-1.1l20.901-27.701h6.801v21.9h6.8v6.9h-6.8v1.4
		c0,3,0.8,3.9,5.5,4.9v1.1H617.637z M623.236,2982.197h-0.5l-11.2,14.602v0.5h11.7V2982.197z"/>
	<path fill="#231F20" d="M825.621,2987.799c-3.1-5.102-6.101-5.5-10-5.5h-9.901l-0.6,8.1c2.3-0.5,5.4-0.699,7.2-0.699
		c11.301,0,17.201,4,17.201,11c0,8.4-9.301,11.9-16.901,11.9c-3.6,0-7.9-0.9-11.601-2.801V3001h1.101c2.9,5.699,6.3,8.9,11.101,8.9
		c4,0,7.5-2.301,7.5-7.502c0-6.199-4.8-9.4-12.101-9.4c-1.7,0-4.2,0.102-6.2,0.602l-0.5-1.102l1.3-17.1h23.502v12.4H825.621z"/>
	<path fill="#231F20" d="M1001.806,2989.998c2.7-1.5,6.101-1.9,8.3-1.9c7.4,0,12.801,3.801,12.801,11.102c0,7.5-7.6,13.4-15.2,13.4
		c-9.001,0-15.602-5.4-15.602-15.5c0-11.4,10.001-19.602,22.901-22.602l0.601,1.299
		C1008.906,2978.598,1003.806,2982.799,1001.806,2989.998z M1001.205,2992.6c-0.2,1.398-0.3,2.898-0.3,4.5
		c0,9.301,3.101,12.801,6.801,12.801c3.6,0,6.3-3,6.3-9.301c0-6.701-3.5-9.201-7.8-9.201
		C1004.705,2991.398,1002.905,2991.799,1001.205,2992.6z"/>
	<path fill="#231F20" d="M1187.588,3011.6v-1.1l19.102-27.602v-0.6h-12.801c-3.9,0-6.9,0.398-10.101,5.5h-1v-12.4h28.302v1.1
		l-14.301,35.102H1187.588z"/>
	<path fill="#231F20" d="M1392.377,2990.898c4.9,2,9.2,4.801,9.2,10.301c0,7.701-8.8,11.4-15.4,11.4c-7.9,0-15.201-2.699-15.201-9.1
		c0-4.301,3.801-7.602,8.7-9.502c-4.2-1.898-7.7-4.299-7.7-9c0-7.5,8.001-10.5,14.501-10.5c7,0,14.001,2.5,14.001,8.301
		C1400.478,2986.598,1396.777,2989.199,1392.377,2990.898z M1381.876,2994.998c-1.8,1.9-2.899,4.602-2.899,7.301
		c0,5,3.5,7.602,8,7.602c4,0,7.301-2.5,7.301-5.9C1394.277,2999,1387.877,2997.299,1381.876,2994.998z M1389.877,2989.898
		c1.5-1.5,2.7-3.699,2.7-6.5c0-4.4-3.2-6.201-6.9-6.201c-3.5,0-6.501,1.801-6.501,4.9
		C1379.176,2986.199,1384.377,2987.799,1389.877,2989.898z"/>
	<path fill="#231F20" d="M1570.661,3011.301c6.7-2.801,11.8-7.002,13.801-14.201c-2.7,1.5-6.101,1.9-8.201,1.9
		c-7.5,0-12.801-3.801-12.801-11.201c0-7.5,7.601-13.301,15.102-13.301c9,0,15.601,5.301,15.601,15.4
		c0,11.4-9.801,19.701-22.901,22.701L1570.661,3011.301z M1585.062,2994.398c0.2-1.4,0.3-2.9,0.3-4.5c0-9.301-3.1-12.801-6.8-12.801
		c-3.601,0-6.201,3.1-6.201,9.301c0,6.801,3.501,9.201,7.701,9.201C1581.562,2995.6,1583.361,2995.299,1585.062,2994.398z"/>
	<path fill="#231F20" d="M1758.145,3007.5c0-2.801,2.301-5.201,5.301-5.201c3.1,0,5.3,2.4,5.3,5.201c0,2.699-2.2,5.1-5.3,5.1
		C1760.445,3012.6,1758.145,3010.199,1758.145,3007.5z"/>
	<path fill="#231F20" d="M225.467,3294.301c1.801-0.9,3.601-2.801,3.601-5.102c0-2-1.2-3.5-4.601-4.1v-1.1l4-5
		c4.9,0.5,7.601,3,7.601,6.1c0,4.1-3.8,7.801-10.101,10.201L225.467,3294.301z"/>
	<path fill="#231F20" d="M410.203,3281v-11.9h-12.701v-2.701h12.701v-11.801h3v11.801h12.9v2.701h-12.9v11.9H410.203z"/>
	<path fill="#231F20" d="M587.537,3269.1v-2.701h28.602v2.701H587.537z"/>
	<path fill="#231F20" d="M777.572,3263.098v-2.699h28.602v2.699H777.572z M777.572,3275.1v-2.701h28.602v2.701H777.572z"/>
	<path fill="#231F20" d="M985.209,3294.9c-9.701-4.5-17.602-14.4-17.602-26.402c0-12,7.9-22,17.602-26.5l0.7,0.898
		c-5.601,5.301-8.701,14.402-8.701,25.602c0,11.102,3.101,20.201,8.701,25.502L985.209,3294.9z"/>
	<path fill="#231F20" d="M1143.342,3294c5.601-5.301,8.7-14.4,8.7-25.502c0-11.199-3.1-20.301-8.7-25.602l0.6-0.898
		c9.701,4.5,17.701,14.5,17.701,26.5c0,12.002-8,21.902-17.701,26.402L1143.342,3294z"/>
	<path fill="#231F20" d="M1323.076,3245.396c0-18.9,10.001-31.701,24.802-31.701c14.701,0,24.802,12.801,24.802,31.701
		c0,18.902-10.101,31.803-24.802,31.803C1333.077,3277.199,1323.076,3264.299,1323.076,3245.396z M1360.979,3245.396
		c0-19.6-5.3-27.9-13.101-27.9s-13.201,8.301-13.201,27.9c0,19.602,5.4,28.002,13.201,28.002S1360.979,3264.998,1360.979,3245.396z"
		/>
	<path fill="#231F20" d="M1535.111,3275.6v-1.5c8.301-1.701,9.801-3,9.801-7.502v-38.902c0-4.6-1.4-4.799-6.5-4.799h-3.601v-1.602
		l19.201-8h1.601v53.303c0,4.502,1.5,5.801,9.8,7.502v1.5H1535.111z"/>
	<path fill="#231F20" d="M1725.445,3275.6v-1.5c12.4-12.502,30.302-27.102,30.302-43.604c0-9.4-4.2-13-9.5-13
		c-7.301,0-12.401,5.301-16.701,14.701h-1.5v-14.602c6.2-2.4,14.101-3.9,19.901-3.9c10.5,0,19.301,5.301,19.301,16.701
		c0,15-17.501,24.701-29.602,35.902v0.5h14.301c6.101,0,9.601-0.4,13.9-8.701h1.601v17.502H1725.445z"/>
	<path fill="#231F20" d="M226.167,3534.697h1.5c3.9,9.402,9.301,14.701,17.102,14.701c6.1,0,11.9-3.4,11.9-12.9
		c0-10.201-8.2-14.5-17.101-15.9v-1.5l16.001-18.502v-0.5h-14.701c-6.101,0-9.201,0.4-13.201,8.701h-1.5v-17.502h40.603v1.5
		l-19.102,22.602c11.701,1.9,20.102,7.801,20.102,18.102c0,12.301-12.301,19.701-23.802,19.701c-5.8,0-12.5-1.4-17.801-3.9V3534.697
		z"/>
	<path fill="#231F20" d="M457.421,3551.6v-1.5c7.301-1.701,8.501-3,8.501-7.502v-4.398H436.22v-1.502l32.202-45.402h7.5v38.402
		h10.201v8.502h-10.201v4.398c0,4.502,1.2,5.801,8.501,7.502v1.5H457.421z M465.922,3501.596h-0.5l-19.501,27.402v0.699h20.001
		V3501.596z"/>
	<path fill="#231F20" d="M694.375,3508.797c-4-8.301-7.101-8.701-13.201-8.701h-16.2l-1.101,15.4c3.5-0.799,7.501-1.1,10.501-1.1
		c16.301,0,25.302,7.602,25.302,18.801c0,12.301-12.102,20.002-24.002,20.002c-5.8,0-12.001-1.4-17.401-3.9v-14.602h1.601
		c3.9,9.402,8.301,14.701,16.101,14.701c6.801,0,12.602-5,12.602-14.4c0-10.201-7.101-16.102-18.802-16.102
		c-2.6,0-6.5,0.301-9.601,1l-0.8-1.398l2-27.203h34.502v17.502H694.375z"/>
	<path fill="#231F20" d="M883.228,3517.697c3.8-2.4,9.2-3.5,12.7-3.5c12.101,0,19.602,6.9,19.602,18.102
		c0,11.9-10.801,20.9-21.802,20.9c-13.4,0-22.901-9.6-22.901-24.502c0-18.9,15.701-34.002,34.103-39.002l0.7,1.699
		C895.928,3496.195,886.627,3504.596,883.228,3517.697z M882.527,3520.998c-0.4,2.398-0.601,5-0.601,7.699
		c0,15.002,5.2,20.701,11.801,20.701c6.301,0,10.701-5.699,10.701-15.4c0-10.9-5.7-15.301-13.301-15.301
		C888.527,3518.697,885.428,3519.396,882.527,3520.998z"/>
	<path fill="#231F20" d="M1089.383,3551.6v-1.5l28.501-49.504v-0.5h-20.4c-6.101,0-9.601,0.4-13.901,8.701h-1.5v-17.502h41.603v1.5
		l-24.001,58.805H1089.383z"/>
	<path fill="#231F20" d="M1321.838,3518.498c6.9,3.398,13.001,7.6,13.001,15.699c0,12.902-12.801,19.002-22.401,19.002
		c-11.2,0-21.602-4.801-21.602-15.4c0-7.701,5.501-13.102,13.201-16.301c-6.301-3.201-11.601-7.4-11.601-14.902
		c0-11.801,11.2-16.9,20.701-16.9c9.7,0,20.001,4.801,20.001,14.4C1333.139,3511.297,1327.639,3515.598,1321.838,3518.498z
		 M1306.638,3522.697c-4.2,3.701-5.801,9-5.801,13.801c0,8.602,5.9,12.9,12.801,12.9c6.4,0,12.301-4.1,12.301-11.1
		C1325.938,3529.898,1315.738,3526.898,1306.638,3522.697z M1318.838,3517.197c2.9-3.1,4.301-7.4,4.301-12.102
		c0-7.699-5.4-11.6-11.201-11.6c-5.5,0-10.601,3.1-10.601,9C1301.337,3510.297,1310.237,3513.396,1318.838,3517.197z"/>
	<path fill="#231F20" d="M1514.091,3551.5c9.7-4.801,19.001-13.102,22.401-26.203c-3.7,2.4-9.101,3.4-12.601,3.4
		c-12.102,0-19.602-6.9-19.602-18.102c0-11.9,10.801-20.9,21.802-20.9c13.301,0,22.901,9.602,22.901,24.502
		c0,18.9-15.701,34.002-34.202,39.002L1514.091,3551.5z M1537.192,3521.896c0.399-2.398,0.699-5,0.699-7.699
		c0-15.002-5.2-20.701-11.8-20.701c-6.301,0-10.701,5.699-10.701,15.4c0,10.9,5.7,15.301,13.301,15.301
		C1531.191,3524.197,1534.292,3523.498,1537.192,3521.896z"/>
	<path fill="#231F20" d="M1719.144,3521.396c0-18.9,10.001-31.701,24.802-31.701c14.701,0,24.802,12.801,24.802,31.701
		c0,18.902-10.101,31.803-24.802,31.803C1729.145,3553.199,1719.144,3540.299,1719.144,3521.396z M1757.046,3521.396
		c0-19.6-5.3-27.9-13.101-27.9s-13.201,8.301-13.201,27.9c0,19.602,5.4,28.002,13.201,28.002S1757.046,3540.998,1757.046,3521.396z"
		/>
	<path fill="#231F20" d="M225.467,3827.6v-1.5c8.301-1.701,9.801-3,9.801-7.502v-38.902c0-4.6-1.4-4.799-6.5-4.799h-3.601v-1.602
		l19.201-8h1.601v53.303c0,4.502,1.5,5.801,9.8,7.502v1.5H225.467z"/>
	<path fill="#231F20" d="M427.392,3827.6v-1.5c12.401-12.502,30.302-27.102,30.302-43.604c0-9.4-4.2-13-9.5-13
		c-7.301,0-12.401,5.301-16.701,14.701h-1.5v-14.602c6.2-2.4,14.101-3.9,19.901-3.9c10.5,0,19.301,5.301,19.301,16.701
		c0,15-17.501,24.701-29.602,35.902v0.5h14.301c6.101,0,9.601-0.4,13.9-8.701h1.601v17.502H427.392z"/>
	<path fill="#231F20" d="M645.417,3810.697h1.5c3.9,9.402,9.301,14.701,17.102,14.701c6.1,0,11.9-3.4,11.9-12.9
		c0-10.201-8.2-14.5-17.101-15.9v-1.5l16.001-18.502v-0.5h-14.701c-6.101,0-9.201,0.4-13.201,8.701h-1.5v-17.502h40.603v1.5
		l-19.102,22.602c11.701,1.9,20.102,7.801,20.102,18.102c0,12.301-12.301,19.701-23.802,19.701c-5.8,0-12.5-1.4-17.801-3.9V3810.697
		z"/>
	<path fill="#231F20" d="M879.542,3827.6v-1.5c7.301-1.701,8.501-3,8.501-7.502v-4.398h-29.702v-1.502l32.202-45.402h7.5v38.402
		h10.201v8.502h-10.201v4.398c0,4.502,1.2,5.801,8.501,7.502v1.5H879.542z M888.043,3777.596h-0.5l-19.501,27.402v0.699h20.001
		V3777.596z"/>
	<path fill="#231F20" d="M1094.367,3793.697c3.8-2.4,9.2-3.5,12.7-3.5c12.101,0,19.602,6.9,19.602,18.102
		c0,11.9-10.801,20.9-21.802,20.9c-13.4,0-22.901-9.6-22.901-24.502c0-18.9,15.701-34.002,34.103-39.002l0.7,1.699
		C1107.067,3772.195,1097.767,3780.596,1094.367,3793.697z M1093.667,3796.998c-0.4,2.398-0.601,5-0.601,7.699
		c0,15.002,5.2,20.701,11.801,20.701c6.301,0,10.701-5.699,10.701-15.4c0-10.9-5.7-15.301-13.301-15.301
		C1099.667,3794.697,1096.566,3795.396,1093.667,3796.998z"/>
	<path fill="#231F20" d="M1303.394,3827.6v-1.5l28.501-49.504v-0.5h-20.4c-6.101,0-9.601,0.4-13.901,8.701h-1.5v-17.502h41.603v1.5
		l-24.001,58.805H1303.394z"/>
	<path fill="#231F20" d="M1538.721,3794.498c6.9,3.398,13.001,7.6,13.001,15.699c0,12.902-12.801,19.002-22.401,19.002
		c-11.2,0-21.602-4.801-21.602-15.4c0-7.701,5.501-13.102,13.201-16.301c-6.301-3.201-11.601-7.4-11.601-14.902
		c0-11.801,11.2-16.9,20.701-16.9c9.7,0,20.001,4.801,20.001,14.4C1550.021,3787.297,1544.521,3791.598,1538.721,3794.498z
		 M1523.521,3798.697c-4.2,3.701-5.801,9-5.801,13.801c0,8.602,5.9,12.9,12.801,12.9c6.4,0,12.301-4.1,12.301-11.1
		C1542.821,3805.898,1532.621,3802.898,1523.521,3798.697z M1535.721,3793.197c2.9-3.1,4.301-7.4,4.301-12.102
		c0-7.699-5.4-11.6-11.201-11.6c-5.5,0-10.601,3.1-10.601,9C1518.22,3786.297,1527.12,3789.396,1535.721,3793.197z"/>
	<path fill="#231F20" d="M1733.845,3827.5c9.7-4.801,19.001-13.102,22.401-26.203c-3.7,2.4-9.101,3.4-12.601,3.4
		c-12.102,0-19.602-6.9-19.602-18.102c0-11.9,10.801-20.9,21.802-20.9c13.301,0,22.901,9.602,22.901,24.502
		c0,18.9-15.701,34.002-34.202,39.002L1733.845,3827.5z M1756.946,3797.896c0.399-2.398,0.699-5,0.699-7.699
		c0-15.002-5.2-20.701-11.8-20.701c-6.301,0-10.701,5.699-10.701,15.4c0,10.9,5.7,15.301,13.301,15.301
		C1750.945,3800.197,1754.046,3799.498,1756.946,3797.896z"/>
	<path fill="#231F20" d="M226.567,4075.498v-1.102c5.4-1,6.2-1.799,6.2-5.199v-21.402c0-3.1-1.601-3.299-4.2-3.299h-2.101v-1
		l14.301-5.4h1.101v31.102c0,3.4,0.7,4.199,6.101,5.199v1.102H226.567z M234.468,4104.799l43.003-68.805l3.899,2.4l-43.002,68.805
		L234.468,4104.799z M266.97,4103.6v-1.1c4.8-1.002,5.601-1.9,5.601-4.9v-1.4h-19.302v-1.102l20.901-27.701h6.801v21.902h6.8v6.9
		h-6.8v1.4c0,3,0.8,3.898,5.5,4.9v1.1H266.97z M272.57,4074.197h-0.5l-11.201,14.602v0.5h11.701V4074.197z"/>
	<path fill="#231F20" d="M465.513,4075.498v-1.102c5.4-1,6.2-1.799,6.2-5.199v-21.402c0-3.1-1.601-3.299-4.2-3.299h-2.101v-1
		l14.301-5.4h1.101v31.102c0,3.4,0.7,4.199,6.101,5.199v1.102H465.513z M473.413,4104.799l43.003-68.805l3.899,2.4l-43.002,68.805
		L473.413,4104.799z M504.314,4103.6v-1.1c8.101-7.502,18.701-18.201,18.701-27.104c0-4.1-2.1-6.299-5.3-6.299
		c-4.301,0-7.801,3.199-11.201,8.9h-1.1v-8.801c4.1-1.801,9.5-2.701,13.301-2.701c7.2,0,13.601,2.9,13.601,10.002
		c0,8.301-10.4,13.301-18.701,19.801v0.5h7.601c4,0,6.9-0.5,10.4-5.5h1v12.301H504.314z"/>
	<path fill="#231F20" d="M710.359,4064.896h1c3,5.701,7,8.9,11.7,8.9c3.301,0,7.001-1.4,7.001-6.801c0-5.299-4.801-7.9-11.001-9.1
		v-1.1l9.601-10.002v-0.6h-7.101c-4,0-6.9,0.4-10.101,5.5h-1.1v-12.4h27.501v1.1l-12.301,13.402c7.801,1,13.302,4.6,13.302,10.6
		c0,7.801-8.601,12.102-16.401,12.102c-3.801,0-8.501-0.9-12.101-2.801V4064.896z M722.76,4104.799l43.003-68.805l3.9,2.4
		l-43.003,68.805L722.76,4104.799z M755.262,4103.6v-1.1c4.801-1.002,5.601-1.9,5.601-4.9v-1.4h-19.302v-1.102l20.901-27.701h6.801
		v21.902h6.801v6.9h-6.801v1.4c0,3,0.8,3.898,5.5,4.9v1.1H755.262z M760.862,4074.197h-0.5l-11.201,14.602v0.5h11.701V4074.197z"/>
	<path fill="#231F20" d="M953.806,4075.498v-1.102c5.4-1,6.2-1.799,6.2-5.199v-21.402c0-3.1-1.601-3.299-4.2-3.299h-2.101v-1
		l14.301-5.4h1.101v31.102c0,3.4,0.7,4.199,6.101,5.199v1.102H953.806z M961.706,4104.799l43.003-68.805l3.899,2.4l-43.002,68.805
		L961.706,4104.799z M1013.309,4082.898c4.9,2,9.201,4.799,9.201,10.301c0,7.699-8.801,11.4-15.401,11.4
		c-7.9,0-15.2-2.701-15.2-9.102c0-4.299,3.8-7.6,8.7-9.5c-4.2-1.9-7.7-4.301-7.7-9c0-7.502,8-10.502,14.5-10.502
		c7.001,0,14.001,2.5,14.001,8.301C1021.409,4078.598,1017.709,4081.197,1013.309,4082.898z M1002.809,4086.998
		c-1.801,1.9-2.9,4.6-2.9,7.301c0,5,3.5,7.6,8,7.6c4.001,0,7.301-2.5,7.301-5.9
		C1015.209,4090.998,1008.809,4089.299,1002.809,4086.998z M1010.809,4081.898c1.5-1.5,2.7-3.701,2.7-6.502
		c0-4.398-3.2-6.199-6.9-6.199c-3.5,0-6.5,1.801-6.5,4.9C1000.108,4078.197,1005.309,4079.797,1010.809,4081.898z"/>
	<path fill="#231F20" d="M1200.152,4064.896h1c3,5.701,7,8.9,11.7,8.9c3.301,0,7.001-1.4,7.001-6.801c0-5.299-4.801-7.9-11.001-9.1
		v-1.1l9.601-10.002v-0.6h-7.101c-4,0-6.9,0.4-10.101,5.5h-1.1v-12.4h27.501v1.1l-12.301,13.402c7.801,1,13.302,4.6,13.302,10.6
		c0,7.801-8.601,12.102-16.401,12.102c-3.801,0-8.501-0.9-12.101-2.801V4064.896z M1212.553,4104.799l43.003-68.805l3.9,2.4
		l-43.003,68.805L1212.553,4104.799z M1264.156,4082.898c4.9,2,9.2,4.799,9.2,10.301c0,7.699-8.801,11.4-15.4,11.4
		c-7.901,0-15.201-2.701-15.201-9.102c0-4.299,3.8-7.6,8.7-9.5c-4.2-1.9-7.7-4.301-7.7-9c0-7.502,8-10.502,14.501-10.502
		c7,0,14.001,2.5,14.001,8.301C1272.257,4078.598,1268.557,4081.197,1264.156,4082.898z M1253.655,4086.998
		c-1.8,1.9-2.9,4.6-2.9,7.301c0,5,3.501,7.6,8.001,7.6c4,0,7.3-2.5,7.3-5.9C1266.056,4090.998,1259.655,4089.299,1253.655,4086.998z
		 M1261.656,4081.898c1.5-1.5,2.7-3.701,2.7-6.502c0-4.398-3.2-6.199-6.901-6.199c-3.5,0-6.5,1.801-6.5,4.9
		C1250.955,4078.197,1256.155,4079.797,1261.656,4081.898z"/>
	<path fill="#231F20" d="M1475.399,4051.695c-3.101-5.1-6.101-5.5-10.001-5.5h-9.9l-0.6,8.102c2.3-0.5,5.4-0.701,7.2-0.701
		c11.301,0,17.201,4,17.201,11.002c0,8.4-9.301,11.9-16.901,11.9c-3.601,0-7.9-0.9-11.601-2.801v-8.801h1.1
		c2.9,5.701,6.301,8.9,11.101,8.9c4.001,0,7.501-2.299,7.501-7.5c0-6.201-4.801-9.4-12.101-9.4c-1.7,0-4.2,0.1-6.2,0.6l-0.5-1.1
		l1.3-17.102h23.501v12.4H1475.399z M1463.498,4104.799l43.003-68.805l3.9,2.4l-43.003,68.805L1463.498,4104.799z
		 M1515.002,4082.898c4.9,2,9.2,4.799,9.2,10.301c0,7.699-8.801,11.4-15.4,11.4c-7.901,0-15.201-2.701-15.201-9.102
		c0-4.299,3.8-7.6,8.7-9.5c-4.2-1.9-7.7-4.301-7.7-9c0-7.502,8-10.502,14.501-10.502c7,0,14.001,2.5,14.001,8.301
		C1523.103,4078.598,1519.402,4081.197,1515.002,4082.898z M1504.501,4086.998c-1.8,1.9-2.9,4.6-2.9,7.301c0,5,3.501,7.6,8.001,7.6
		c4,0,7.3-2.5,7.3-5.9C1516.901,4090.998,1510.501,4089.299,1504.501,4086.998z M1512.502,4081.898c1.5-1.5,2.7-3.701,2.7-6.502
		c0-4.398-3.2-6.199-6.901-6.199c-3.5,0-6.5,1.801-6.5,4.9C1501.801,4078.197,1507.001,4079.797,1512.502,4081.898z"/>
	<path fill="#231F20" d="M1706.646,4075.498v-1.102l19.101-27.602v-0.6h-12.801c-3.899,0-6.9,0.4-10.101,5.5h-1v-12.4h28.302v1.1
		l-14.301,35.104H1706.646z M1705.945,4104.799l43.003-68.805l3.899,2.4l-43.002,68.805L1705.945,4104.799z M1757.448,4082.898
		c4.9,2,9.201,4.799,9.201,10.301c0,7.699-8.801,11.4-15.401,11.4c-7.9,0-15.201-2.701-15.201-9.102c0-4.299,3.801-7.6,8.701-9.5
		c-4.2-1.9-7.701-4.301-7.701-9c0-7.502,8.001-10.502,14.501-10.502c7.001,0,14.001,2.5,14.001,8.301
		C1765.549,4078.598,1761.849,4081.197,1757.448,4082.898z M1746.948,4086.998c-1.801,1.9-2.9,4.6-2.9,7.301c0,5,3.5,7.6,8,7.6
		c4.001,0,7.301-2.5,7.301-5.9C1759.349,4090.998,1752.948,4089.299,1746.948,4086.998z M1754.948,4081.898
		c1.5-1.5,2.7-3.701,2.7-6.502c0-4.398-3.2-6.199-6.9-6.199c-3.5,0-6.5,1.801-6.5,4.9
		C1744.248,4078.197,1749.448,4079.797,1754.948,4081.898z"/>
	<path fill="#231F20" d="M226.567,4351.498v-1.102c5.4-1,6.2-1.799,6.2-5.199v-21.402c0-3.1-1.601-3.299-4.2-3.299h-2.101v-1
		l14.301-5.4h1.101v31.102c0,3.4,0.7,4.199,6.101,5.199v1.102H226.567z M234.468,4380.799l43.003-68.805l3.899,2.4l-43.002,68.805
		L234.468,4380.799z M267.869,4368.998h1.001c3,5.701,7,8.9,11.7,8.9c3.301,0,7.001-1.4,7.001-6.801c0-5.299-4.801-7.9-11.001-9.1
		v-1.1l9.601-10.002v-0.6h-7.101c-4,0-6.9,0.4-10.101,5.5h-1.101v-12.4h27.502v1.1l-12.301,13.402c7.801,1,13.301,4.6,13.301,10.6
		c0,7.801-8.601,12.102-16.4,12.102c-3.801,0-8.501-0.9-12.102-2.801V4368.998z"/>
	<path fill="#231F20" d="M456.466,4351.498v-1.102c8.101-7.5,18.701-18.201,18.701-27.102c0-4.1-2.1-6.299-5.3-6.299
		c-4.301,0-7.801,3.199-11.201,8.9h-1.1v-8.801c4.1-1.801,9.5-2.701,13.301-2.701c7.2,0,13.601,2.9,13.601,10.002
		c0,8.299-10.4,13.301-18.701,19.801v0.5h7.601c4,0,6.9-0.5,10.4-5.5h1v12.301H456.466z M471.867,4380.799l43.003-68.805l3.899,2.4
		l-43.002,68.805L471.867,4380.799z M523.37,4358.898c4.9,2,9.2,4.799,9.2,10.301c0,7.699-8.8,11.4-15.4,11.4
		c-7.9,0-15.201-2.701-15.201-9.102c0-4.299,3.801-7.6,8.701-9.5c-4.201-1.9-7.701-4.301-7.701-9
		c0-7.502,8.001-10.502,14.501-10.502c7.001,0,14.001,2.5,14.001,8.301C531.471,4354.598,527.771,4357.197,523.37,4358.898z
		 M512.869,4362.998c-1.8,1.9-2.899,4.6-2.899,7.301c0,5,3.5,7.6,8,7.6c4,0,7.301-2.5,7.301-5.9
		C525.271,4366.998,518.87,4365.299,512.869,4362.998z M520.87,4357.898c1.5-1.5,2.7-3.701,2.7-6.502c0-4.398-3.2-6.199-6.9-6.199
		c-3.5,0-6.501,1.801-6.501,4.9C510.169,4354.197,515.37,4355.797,520.87,4357.898z"/>
	<path fill="#231F20" d="M692.566,4333.396c0-11.4,6.801-19.002,16.701-19.002s16.701,7.602,16.701,19.002
		c0,11.301-6.801,19.102-16.701,19.102S692.566,4344.697,692.566,4333.396z M716.268,4333.396c0-11.801-2.6-16.301-7-16.301
		s-7.001,4.5-7.001,16.301c0,11.701,2.601,16.4,7.001,16.4S716.268,4345.098,716.268,4333.396z M707.268,4380.799l43.002-68.805
		l3.9,2.4l-43.003,68.805L707.268,4380.799z M735.569,4361.498c0-11.4,6.8-19.002,16.7-19.002c9.901,0,16.701,7.602,16.701,19.002
		c0,11.301-6.8,19.102-16.701,19.102C742.369,4380.6,735.569,4372.799,735.569,4361.498z M759.271,4361.498
		c0-11.801-2.601-16.301-7.001-16.301c-4.399,0-7,4.5-7,16.301c0,11.701,2.601,16.4,7,16.4
		C756.67,4377.898,759.271,4373.199,759.271,4361.498z"/>
	<path fill="#231F20" d="M928.966,4333.396c0-11.4,6.801-19.002,16.701-19.002s16.701,7.602,16.701,19.002
		c0,11.301-6.801,19.102-16.701,19.102S928.966,4344.697,928.966,4333.396z M952.667,4333.396c0-11.801-2.6-16.301-7-16.301
		s-7.001,4.5-7.001,16.301c0,11.701,2.601,16.4,7.001,16.4S952.667,4345.098,952.667,4333.396z M943.667,4380.799l43.002-68.805
		l3.9,2.4l-43.003,68.805L943.667,4380.799z M971.969,4361.498c0-11.4,6.8-19.002,16.7-19.002c9.901,0,16.701,7.602,16.701,19.002
		c0,11.301-6.8,19.102-16.701,19.102C978.769,4380.6,971.969,4372.799,971.969,4361.498z M995.67,4361.498
		c0-11.801-2.601-16.301-7.001-16.301c-4.399,0-7,4.5-7,16.301c0,11.701,2.601,16.4,7,16.4
		C993.069,4377.898,995.67,4373.199,995.67,4361.498z M1009.371,4361.498c0-11.4,6.8-19.002,16.7-19.002
		c9.901,0,16.701,7.602,16.701,19.002c0,11.301-6.8,19.102-16.701,19.102C1016.171,4380.6,1009.371,4372.799,1009.371,4361.498z
		 M1033.072,4361.498c0-11.801-2.601-16.301-7.001-16.301c-4.399,0-7,4.5-7,16.301c0,11.701,2.601,16.4,7,16.4
		C1030.472,4377.898,1033.072,4373.199,1033.072,4361.498z"/>
</g>
</svg>
