<?xml version="1.0" encoding="utf-8"?>
<!-- Generator: Adobe Illustrator 16.0.3, SVG Export Plug-In . SVG Version: 6.00 Build 0)  -->
<!DOCTYPE svg PUBLIC "-//W3C//DTD SVG 1.1//EN" "http://www.w3.org/Graphics/SVG/1.1/DTD/svg11.dtd">
<svg version="1.1" id="Layer_1" xmlns="http://www.w3.org/2000/svg" xmlns:xlink="http://www.w3.org/1999/xlink" x="0px" y="0px"
	 width="2007.464px" height="4603.488px" viewBox="0 0 2007.464 4603.488" enable-background="new 0 0 2007.464 4603.488"
	 xml:space="preserve">
<rect fill="#FFFFFF" width="2007.464" height="4603.488"/>
<g>
	<path fill="#231F20" d="M255.769,239.6v-1.5c5.801-1.3,6.301-2.5,4.7-6.301l-3.3-7.7h-19.001l-1.9,4.7
		c-2.2,5.601,0,8.001,5.9,9.301v1.5h-19.001v-1.5c4.3-1.3,6.7-4,9.4-10.4l16.401-38.703h3.3l19.901,42.803
		c1.8,3.801,2.1,5.001,7.4,6.301v1.5H255.769z M239.468,221.099h16.401l-8.001-18.901h-0.7L239.468,221.099z"/>
	<path fill="#231F20" d="M443.592,239.6v-1.5c5.801-1.3,6.801-2.3,6.801-6.4v-34.002c0-4.101-1-5.101-6.801-6.4v-1.5h20.802
		c11.7,0,20.801,3.2,20.801,11.9c0,5.4-3.4,9.501-10.2,11.501v0.6c8.8,1.4,13.301,5.501,13.301,11.501
		c0,10.001-9.001,14.301-21.602,14.301H443.592z M464.593,212.398c5.7,0,9.801-3.3,9.801-9.7s-4.101-9.801-10.9-9.801h-3.101v19.501
		H464.593z M467.493,236.5c5.9,0,10.101-4.1,10.101-10.601c0-6.4-4.2-10.3-11.101-10.3h-6.101v20.9H467.493z"/>
	<path fill="#231F20" d="M699.319,238.1c-5.7,2.3-12.2,3.101-17.2,3.101c-15.701,0-27.902-10.201-27.902-26.202
		s13.701-26.802,29.602-26.802c4.301,0,9.801,0.601,15.302,2.2v11.9h-1.501c-4.3-8.1-8.9-10.9-14.5-10.9
		c-12.001,0-17.701,11.101-17.701,21.802c0,9,3.6,24.801,17.601,24.801c6.001,0,11.101-4,14.701-12.2h1.6V238.1z"/>
	<path fill="#231F20" d="M866.042,239.6v-1.5c5.801-1.3,6.801-2.3,6.801-6.4v-34.002c0-4.101-1-5.101-6.801-6.4v-1.5h23.901
		c15.401,0,29.702,8.3,29.702,23.801c0,17.102-14.001,26.002-30.802,26.002H866.042z M890.144,236.5
		c11.7,0,18.301-9.3,18.301-21.001c0-11.001-5.4-22.602-19.701-22.602h-5.9V236.5H890.144z"/>
	<path fill="#231F20" d="M1084.268,239.6v-1.5c5.801-1.3,6.801-2.3,6.801-6.4v-34.002c0-4.101-1-5.101-6.801-6.4v-1.5h39.402v11.801
		h-1.5c-5.5-8.301-10.001-8.701-15.301-8.701h-5.801v18.802h3.9c5.101,0,7.501-0.9,10.801-7.4h1.5v17.9h-1.5
		c-3.3-6.6-5.7-7.5-10.801-7.5h-3.9V236.5h5.801c5.3,0,9.801-0.399,15.301-10.3h1.5v13.4H1084.268z"/>
	<path fill="#231F20" d="M1290.992,239.6v-1.5c5.801-1.3,6.801-2.3,6.801-6.4v-34.002c0-4.101-1-5.101-6.801-6.4v-1.5h38.603v12.601
		h-1.5c-5.501-9.101-10.001-9.501-15.301-9.501h-5.001v19.602h3.5c5.101,0,7.501-0.8,10.801-7.4h1.5V223h-1.5
		c-3.3-6.501-5.7-7.4-10.801-7.4h-3.5V231.7c0,4.101,1,5.101,8.4,6.4v1.5H1290.992z"/>
	<path fill="#231F20" d="M1524.02,238c2.1,0,4.2-0.199,6.3-0.6v-10.7c0-4.101-1.5-5.001-7.601-6.4v-1.501h17.602V237.1
		c-4.9,2.2-11.601,4.101-18.701,4.101c-17.001,0-29.202-10.201-29.202-26.202s13.801-26.802,30.002-26.802
		c4.4,0,10.801,0.7,16.301,2.301v11.9h-1.5c-4.3-8.101-9.9-11.001-15.501-11.001c-12.301,0-18.101,11.101-18.101,21.802
		C1503.618,223,1508.318,238,1524.02,238z"/>
	<path fill="#231F20" d="M1744.445,239.6v-1.5c5.8-1.3,6.8-2.3,6.8-6.4v-17.001h-27.102V231.7c0,4.101,1.101,5.101,6.801,6.4v1.5
		h-23.602v-1.5c5.801-1.3,6.801-2.3,6.801-6.4v-34.002c0-4.101-1-5.101-6.801-6.4v-1.5h23.602v1.5c-5.7,1.3-6.801,2.3-6.801,6.4
		v14.001h27.102v-14.001c0-4.101-1-5.101-6.8-6.4v-1.5h23.602v1.5c-5.701,1.3-6.801,2.3-6.801,6.4V231.7
		c0,4.101,1.1,5.101,6.801,6.4v1.5H1744.445z"/>
	<path fill="#231F20" d="M225.167,515.6v-1.5c5.801-1.3,6.801-2.3,6.801-6.4v-34.002c0-4.101-1-5.101-6.801-6.4v-1.5h23.602v1.5
		c-5.7,1.3-6.801,2.3-6.801,6.4V507.7c0,4.101,1.101,5.101,6.801,6.4v1.5H225.167z"/>
	<path fill="#231F20" d="M436.109,473.698c0-4.101-0.9-5.101-8.401-6.4v-1.5h25.202v1.5c-5.801,1.3-6.801,2.3-6.801,6.4v24.701
		c0,13.301-9,18.802-17.201,18.802c-3,0-8.2-0.601-11.801-2.301v-12.301h1.5c4.001,8.301,6.9,11.4,11.501,11.4
		c2.8,0,6.001-1.6,6.001-6.4V473.698z"/>
	<path fill="#231F20" d="M669.051,467.297c-4.501,0.899-8.601,3.6-13.102,8l-10.101,9.801l25.702,29.002v1.5H658.95l-21.502-26.802
		V507.7c0,4.101,1.101,5.101,6.801,6.4v1.5h-23.602v-1.5c5.801-1.3,6.801-2.3,6.801-6.4v-34.002c0-4.101-1-5.101-6.801-6.4v-1.5
		h23.602v1.5c-5.7,1.3-6.801,2.3-6.801,6.4v15.101l13.701-13.601c3.601-3.7,5.8-6.601,0-7.9v-1.5h17.901V467.297z"/>
	<path fill="#231F20" d="M838.287,515.6v-1.5c5.801-1.3,6.801-2.3,6.801-6.4v-34.002c0-4.101-1-5.101-6.801-6.4v-1.5h25.201v1.5
		c-7.4,1.3-8.4,2.3-8.4,6.4V512.5h5.2c4.9,0,8.901-1.8,14.302-12.5h1.5V515.6H838.287z"/>
	<path fill="#231F20" d="M1090.929,515.6v-1.5c5.9-1.3,6.801-2.2,6.601-6.301l-0.899-16.001l-0.7-15.501h-0.601l-16.9,40.103h-3.4
		l-19.001-40.202h-0.7l-0.601,15.501l-0.7,13.101c-0.3,5.9,2.301,8.001,8.701,9.301v1.5h-20.602v-1.5c5.4-1.3,7.501-3.4,7.801-9.301
		l1.6-28.302c0.4-5.8-2.1-7.9-7.5-9.2v-1.5h18.501l17.201,36.402h0.6l15.301-36.402h16.901v1.5c-5.9,1.3-7,2.2-6.7,6.3l1.9,34.202
		c0.199,4.101,1.199,5.001,7,6.301v1.5H1090.929z"/>
	<path fill="#231F20" d="M1329.367,516.4l-35.502-38.502h-0.7l0.2,14.801v12.101c0,5.9,2.5,8.001,9.001,9.301v1.5h-20.602v-1.5
		c5.301-1.3,7.7-3.4,7.7-9.301v-28.302c0-5.8-2.399-7.9-7.7-9.2v-1.5h15.601l30.603,33.102h0.6l-0.2-14.9v-7.501
		c0-5.8-2.1-7.9-8.5-9.2v-1.5h19.901v1.5c-5.101,1.3-7.4,3.4-7.4,9.2V516.4H1329.367z"/>
	<path fill="#231F20" d="M1505.705,491.098c0-15.9,12.601-26.901,28.002-26.901c14.801,0,26.602,10.101,26.602,26.002
		c0,15.9-12.601,27.002-27.901,27.002C1517.506,517.201,1505.705,507,1505.705,491.098z M1549.008,493.399
		c0-9.9-3.5-26.002-16.801-26.002c-10.701,0-15.301,10.301-15.301,20.602c0,9.801,3.7,26.001,16.9,26.001
		C1544.508,514,1549.008,503.5,1549.008,493.399z"/>
	<path fill="#231F20" d="M1727.945,515.6v-1.5c5.801-1.3,6.801-2.3,6.801-6.4v-34.002c0-4.101-1-5.101-6.801-6.4v-1.5h21.201
		c11.601,0,20.602,4.9,20.602,14.801c0,10.301-8.701,15.701-21.502,15.701h-3.5v11.4c0,4.101,1,5.101,8.4,6.4v1.5H1727.945z
		 M1749.047,493.199c5.8,0,10-4.5,10-12.101c0-7.801-4.2-12.201-10.801-12.201h-3.5v24.302H1749.047z"/>
	<path fill="#231F20" d="M224.467,767.098c0-15.9,12.601-26.901,28.002-26.901c14.801,0,26.602,10.101,26.602,26.002
		c0,11.801-7,21.001-16.801,24.901l19.401,13.801v1.5H267.27L253.269,793.1c-0.7,0-1.399,0.101-2.1,0.101
		C236.268,793.201,224.467,783,224.467,767.098z M267.77,769.399c0-9.9-3.5-26.002-16.801-26.002
		c-10.701,0-15.301,10.301-15.301,20.602c0,9.801,3.7,26.001,16.9,26.001C263.27,790,267.77,779.5,267.77,769.399z"/>
	<path fill="#231F20" d="M476.98,791.6l-14.101-20.802h-2.001h-3.5V783.7c0,4.101,1.101,5.101,6.801,6.4v1.5h-23.602v-1.5
		c5.801-1.3,6.801-2.3,6.801-6.4v-34.002c0-4.101-1-5.101-6.801-6.4v-1.5h21.201c11.601,0,20.602,4.5,20.602,14.001
		c0,6.9-4.2,11.5-11.101,13.601l17.801,20.701v1.5H476.98z M461.68,767.599c5.8,0,10-4.501,10-11.201c0-7.101-4.2-11.4-10.801-11.4
		h-3.5v22.602H461.68z"/>
	<path fill="#231F20" d="M650.99,778.599h1.7c3.9,7.501,8.2,11.4,13.101,11.4c5.2,0,8.701-3.1,8.701-8
		c0-11.9-24.902-12.301-24.902-27.702c0-9.7,9.301-14.101,17.201-14.101c4.301,0,8.101,0.5,13.401,2v11.101h-1.601
		c-4.2-7.3-7.9-9.9-12.801-9.9c-4.2,0-8.101,2.4-8.101,7.001c0,10.601,24.902,12.2,24.902,27.701
		c0,10.001-9.401,15.102-17.701,15.102c-4.601,0-9.401-0.601-13.901-2.4V778.599z"/>
	<path fill="#231F20" d="M886.104,756.598c-4.501-10.4-8.4-11.601-12.901-11.601h-3.7V783.7c0,4.101,1.101,5.101,7.9,6.4v1.5
		h-25.801v-1.5c6.9-1.3,7.9-2.3,7.9-6.4v-38.702h-3.601c-4.601,0-8.4,1.2-13.001,11.601h-1.5v-14.801h46.203v14.801H886.104z"/>
	<path fill="#231F20" d="M1093.315,752.498c0-5.8-2.101-7.9-7.9-9.2v-1.5h19.201v1.5c-5,1.3-7.2,3.4-7.2,9.2v20.302
		c0,13.9-8.4,20.401-21.102,20.401c-11.701,0-22.001-4.801-22.001-19.002v-24.602c0-4.1-1-5-6.801-6.3v-1.5h23.701v1.5
		c-5.8,1.3-6.8,2.2-6.8,6.3v21.502c0,12.9,4.7,18.501,14.301,18.501c8.8,0,14.601-5.5,14.601-16.001V752.498z"/>
	<path fill="#231F20" d="M1290.426,792.4l-20.102-42.803c-1.7-3.8-1.9-5-7.2-6.3v-1.5h23.802v1.5c-5.801,1.3-6.4,2.5-4.801,6.3
		l12.9,29.603h0.601l10.101-26.702c2.1-5.5,0-7.9-5.801-9.2v-1.5h19.102v1.5c-4.301,1.3-6.9,4-9.501,10.4l-15.601,38.702H1290.426z"
		/>
	<path fill="#231F20" d="M1532.139,792.4l-14.901-34.402h-0.699l-12.102,34.402h-3.399l-17.602-42.803c-1.5-3.899-1.9-5-7.2-6.3
		v-1.5h23.802v1.5c-5.801,1.3-6.201,2.4-4.801,6.3l10.101,27.902h0.601l12.2-36.003h3.4l14.801,36.003h0.7l8.301-25.002
		c1.8-5.5-0.101-7.9-6.001-9.2v-1.5h19.201v1.5c-4.5,1.3-7.3,3.9-9.5,10.4l-13.501,38.702H1532.139z"/>
	<path fill="#231F20" d="M1745.947,791.6v-1.5c5.501-1.3,5.601-3,3.2-6.301l-8.7-12.2h-0.6l-7.001,9.2
		c-3.4,4.801-2.7,8.001,2.9,9.301v1.5h-18.801v-1.5c4.1-1.3,8.3-4.9,12.5-10.4l8.501-11.001l-13.901-19.102
		c-2.399-3.399-3.6-5-8-6.3v-1.5h23.501v1.5c-5.5,1.3-5.7,2.9-3.2,6.3l7.501,10.901h0.7l5.8-8.001c3.5-4.7,2.801-7.9-2.7-9.2v-1.5
		h18.701v1.5c-4.1,1.3-8.2,4.9-12.4,10.4l-7.501,9.7l14.901,20.401c2.5,3.4,4.3,5.001,8.7,6.301v1.5H1745.947z"/>
	<path fill="#231F20" d="M235.367,1067.6v-1.5c7.401-1.3,8.401-2.3,8.401-6.4v-11.701l-13.901-22.401c-2.2-3.5-3.7-5-7.7-6.3v-1.5
		h23.201v1.5c-5.601,1.3-5.3,2.8-3.3,6.3l9.3,16.102h0.7l6.801-13.201c2.6-5.2,2.1-7.9-3.5-9.2v-1.5h17.801v1.5
		c-4.5,1.3-7.7,4.3-10.9,10.4l-8.4,16.101v13.901c0,4.101,1,5.101,8.4,6.4v1.5H235.367z"/>
	<path fill="#231F20" d="M427.406,1067.6v-1.5l27.302-44.603v-0.601h-10.9c-4.301,0-8.801,1.301-13.301,11.701h-1.5v-14.801h38.502
		v1.5l-27.401,44.603v0.6h11.7c4.301,0,8.901-1.5,13.301-12.5h1.501v15.601H427.406z"/>
	<path fill="#231F20" d="M654.35,1067.6v-1.5c5.801-1.3,6.801-2.3,6.801-6.4v-7.601h-19.401l-3.2,4.7c-3.4,5-3.101,8.001,2.7,9.301
		v1.5h-19.201v-1.5c4.3-1.3,8.801-4.7,12.7-10.4l26.402-37.902h32.702v11.801h-1.601c-5.5-8.301-9.9-8.701-15.301-8.701h-5.7v18.802
		h3.8c5.101,0,7.501-0.9,10.801-7.4h1.601v17.9h-1.601c-3.3-6.6-5.7-7.5-10.801-7.5h-3.8v21.801h5.7c5.4,0,9.801-0.399,15.301-10.3
		h1.601v13.4H654.35z M643.749,1049.099h17.401v-24.401h-0.601L643.749,1049.099z"/>
	<path fill="#231F20" d="M865.888,1029.898h-0.7l0.2,14.801v12.101c0,5.9,2.5,8.001,9.001,9.301v1.5h-20.602v-1.5
		c5.301-1.3,7.7-3.4,7.7-9.301v-28.302c0-5.8-2.399-7.9-7.7-9.2v-1.5h15.601l30.603,33.102h0.6l-0.2-14.9v-7.501
		c0-5.8-2.1-7.9-8.5-9.2v-1.5h19.901v1.5c-5.101,1.3-7.4,3.4-7.4,9.2V1064c0,10.201-7.001,16.701-14.301,21.102l-1.2-1.2
		c4.8-3.8,5.4-9.4,5.4-16.801v-6.4L865.888,1029.898z"/>
	<path fill="#231F20" d="M1089.127,1055.5h1.601c3.101,6.9,6.801,10.5,11.601,10.5c3.601,0,7.301-2.8,7.301-8.9
		c0-7.2-5.2-12.7-12.901-15.101v-1.601l10.801-19.801c-2.2-0.8-5.4-1.3-7.9-1.3c-9.101,0-14.501,6.3-14.501,16.601v31.702h-16.801
		v-1.5c5.801-1.3,6.801-2.3,6.801-6.4v-22.501c0-13.102,10.4-21.002,23.101-21.002c3.9,0,11.801,0.9,18.901,4.4v1.5l-10.7,19.501
		c6.9,1.801,13.9,6.101,13.9,13.102c0,9.601-10,14.501-18.901,14.501c-4.1,0-8.1-0.9-12.301-3.101V1055.5z"/>
	<path fill="#231F20" d="M1278.266,1067.6v-1.5c5.801-1.3,6.801-2.3,6.801-6.4v-17.001h-7.601v-3h7.601v-14.001
		c0-4.101-1-5.101-6.801-6.4v-1.5h23.901c15.401,0,29.702,8.3,29.702,23.801c0,17.102-14.001,26.002-30.802,26.002H1278.266z
		 M1302.367,1064.5c11.7,0,18.301-9.3,18.301-21.001c0-11.001-5.4-22.602-19.701-22.602h-5.9v18.802h11.701v3h-11.701v21.801
		H1302.367z"/>
	<path fill="#231F20" d="M1489.104,1067.6v-1.5c5.801-1.3,6.801-2.3,6.801-6.4v-34.002c0-4.101-1-5.101-6.801-6.4v-1.5h23.602v1.5
		c-5.7,1.3-6.801,2.3-6.801,6.4v34.002c0,4.101,1.101,5.101,6.801,6.4v1.5H1489.104z M1540.308,1025.698c0-4.101-0.9-5.101-8.4-6.4
		v-1.5h25.201v1.5c-5.8,1.3-6.8,2.3-6.8,6.4v24.701c0,13.301-9.001,18.802-17.201,18.802c-3,0-8.201-0.601-11.801-2.301v-12.301h1.5
		c4,8.301,6.9,11.4,11.501,11.4c2.8,0,6-1.6,6-6.4V1025.698z"/>
	<path fill="#231F20" d="M1717.845,1072.3l6.101-8.5c-6-4.501-9.801-11.701-9.801-20.702c0-15.9,12.601-26.901,28.002-26.901
		c5,0,9.601,1.2,13.601,3.301l5.9-8.301l2.7,2l-5.8,8.101c6.2,4.5,10.2,11.7,10.2,20.901c0,15.9-12.601,27.002-27.901,27.002
		c-5.2,0-10.001-1.2-14.001-3.4l-6.101,8.5L1717.845,1072.3z M1728.945,1056.9l22.802-31.902c-2.5-3.3-6.101-5.601-11.101-5.601
		c-10.701,0-15.301,10.301-15.301,20.602C1725.346,1044.999,1726.245,1051.599,1728.945,1056.9z M1757.447,1045.399
		c0-5.101-0.9-12.001-3.7-17.301l-22.901,32.002c2.601,3.5,6.301,5.899,11.4,5.899C1752.947,1066,1757.447,1055.5,1757.447,1045.399
		z"/>
	<path fill="#231F20" d="M225.167,1343.6v-1.5c5.801-1.3,6.801-2.3,6.801-6.4v-34.002c0-4.101-1-5.101-6.801-6.4v-1.5h23.602v1.5
		c-5.7,1.3-6.801,2.3-6.801,6.3h4.4c11.601,0,20.602,4.9,20.602,14.801c0,10.301-8.7,15.701-21.501,15.701h-3.501v3.601
		c0,4.101,1.101,5.101,6.801,6.4v1.5H225.167z M241.968,1304.698v24.401h4.301c5.8,0,10-4.601,10-12.101
		c0-7.801-4.2-12.301-10.8-12.301H241.968z"/>
	<path fill="#231F20" d="M451.038,1343.6v-1.5c5.801-1.3,6.301-2.5,4.7-6.301l-3.3-7.7h-19.001l-1.9,4.7
		c-2.2,5.601,0,8.001,5.9,9.301v1.5h-19.001v-1.5c4.3-1.3,6.7-4,9.4-10.4l16.401-38.703h3.3l19.901,42.803
		c1.8,3.801,2.1,5.001,7.4,6.301v1.5H451.038z M434.737,1325.099h16.401l-8.001-18.901h-0.7L434.737,1325.099z M439.038,1289.897
		l-0.7-1.3l13.4-12.801l5,5.7v1.399L439.038,1289.897z"/>
	<path fill="#231F20" d="M666.905,1343.6v-1.5c5.801-1.3,6.301-2.5,4.7-6.301l-3.3-7.7h-19.001l-1.9,4.7
		c-2.2,5.601,0,8.001,5.9,9.301v1.5h-19.001v-1.5c4.3-1.3,6.7-4,9.4-10.4l16.401-38.703h3.3l19.901,42.803
		c1.8,3.801,2.1,5.001,7.4,6.301v1.5H666.905z M650.604,1325.099h16.401l-8.001-18.901h-0.7L650.604,1325.099z M651.104,1276.796
		l1.5-0.101c1.2,3.601,4.9,5.501,9.9,5.501c4.9,0,8.601-1.9,9.801-5.501l1.5,0.101c0,7.5-4,12.2-11.301,12.2
		C655.104,1288.997,651.104,1284.296,651.104,1276.796z"/>
	<path fill="#231F20" d="M882.773,1343.6v-1.5c5.801-1.3,6.301-2.5,4.7-6.301l-3.3-7.7h-19.001l-1.9,4.7
		c-2.2,5.601,0,8.001,5.9,9.301v1.5h-19.001v-1.5c4.3-1.3,6.7-4,9.4-10.4l16.401-38.703h3.3l19.901,42.803
		c1.8,3.801,2.101,5.001,7.4,6.301v1.5H882.773z M878.273,1284.497l-12.101,4.5l-0.9-1.3l11.101-10.701h3.801l11.2,10.701
		l-0.899,1.3L878.273,1284.497z M866.473,1325.099h16.401l-8.001-18.901h-0.7L866.473,1325.099z"/>
	<path fill="#231F20" d="M1098.642,1343.6v-1.5c5.801-1.3,6.301-2.5,4.7-6.301l-3.3-7.7h-19.001l-1.9,4.7
		c-2.2,5.601,0,8.001,5.9,9.301v1.5h-19.001v-1.5c4.3-1.3,6.7-4,9.4-10.4l16.401-38.703h3.3l19.901,42.803
		c1.8,3.801,2.1,5.001,7.4,6.301v1.5H1098.642z M1084.841,1287.796c-3.3,0-5.7-2.5-5.7-5.6c0-3.101,2.4-5.601,5.7-5.601
		c3.4,0,5.801,2.5,5.801,5.601C1090.642,1285.296,1088.241,1287.796,1084.841,1287.796z M1082.341,1325.099h16.401l-8.001-18.901
		h-0.7L1082.341,1325.099z M1103.542,1287.796c-3.3,0-5.7-2.5-5.7-5.6c0-3.101,2.4-5.601,5.7-5.601c3.4,0,5.801,2.5,5.801,5.601
		C1109.343,1285.296,1106.942,1287.796,1103.542,1287.796z"/>
	<path fill="#231F20" d="M1314.509,1343.6v-1.5c5.801-1.3,6.301-2.5,4.7-6.301l-3.3-7.7h-19.001l-1.9,4.7
		c-2.2,5.601,0,8.001,5.9,9.301v1.5h-19.001v-1.5c4.3-1.3,6.7-4,9.4-10.4l16.401-38.703h3.3l19.901,42.803
		c1.8,3.801,2.1,5.001,7.4,6.301v1.5H1314.509z M1298.208,1325.099h16.401l-8.001-18.901h-0.7L1298.208,1325.099z
		 M1299.809,1282.896v-1.399l5-5.7l13.4,12.801l-0.699,1.3L1299.809,1282.896z"/>
	<path fill="#231F20" d="M1530.377,1343.6v-1.5c5.801-1.3,6.301-2.5,4.7-6.301l-3.3-7.7h-19.001l-1.9,4.7
		c-2.2,5.601,0,8.001,5.9,9.301v1.5h-19.001v-1.5c4.3-1.3,6.7-4,9.4-10.4l16.401-38.703h3.3l19.901,42.803
		c1.8,3.801,2.101,5.001,7.4,6.301v1.5H1530.377z M1511.576,1284.396v-4h28.102v4H1511.576z M1514.076,1325.099h16.401
		l-8.001-18.901h-0.7L1514.076,1325.099z"/>
	<path fill="#231F20" d="M1769.947,1361.101c-3.2,3.801-7.501,5.9-11.401,5.9c-5.6,0-8.601-3.4-8.601-7.601
		c0-4.601,3.4-10.2,12.102-15.801h-15.802v-1.5c5.801-1.3,6.301-2.5,4.7-6.301l-3.3-7.7h-19.001l-1.9,4.7
		c-2.2,5.601,0,8.001,5.9,9.301v1.5h-19.001v-1.5c4.3-1.3,6.7-4,9.4-10.4l16.401-38.703h3.3l19.901,42.803
		c1.8,3.801,2.1,5.001,7.4,6.301v1.5h-5.301c-4.899,4.7-6.8,9.7-6.8,12.801c0,3.3,2,5.2,5.101,5.2c1.699,0,3.8-0.5,6.1-1.8
		L1769.947,1361.101z M1729.944,1325.099h16.401l-8.001-18.901h-0.7L1729.944,1325.099z"/>
	<path fill="#231F20" d="M255.769,1619.6v-1.5c5.801-1.3,6.301-2.5,4.7-6.301l-3.3-7.7h-19.001l-1.9,4.7
		c-2.2,5.601,0,8.001,5.9,9.301v1.5h-19.001v-1.5c4.3-1.3,6.7-4,9.4-10.4l16.401-38.703h3.3l19.901,42.803
		c1.8,3.801,2.1,5.001,7.4,6.301v1.5H255.769z M239.468,1601.099h16.401l-8.001-18.901h-0.7L239.468,1601.099z M250.969,1565.997
		c-3.601,0-7.601-2.399-7.601-7.101c0-4.7,4-7.1,7.601-7.1c3.6,0,7.601,2.399,7.601,7.1
		C258.569,1563.597,254.568,1565.997,250.969,1565.997z M250.969,1562.197c1.6,0,3.4-1.101,3.4-3.301s-1.801-3.3-3.4-3.3
		c-1.601,0-3.4,1.1-3.4,3.3S249.368,1562.197,250.969,1562.197z"/>
	<path fill="#231F20" d="M474.45,1619.6v-1.5c5.801-1.3,6.301-2.5,4.7-6.301l-3.3-7.7H456.85l-1.9,4.7c-2.2,5.601,0,8.001,5.9,9.301
		v1.5h-19.001v-1.5c4.3-1.3,6.7-4,9.4-10.4l16.401-38.703h3.3l19.901,42.803c1.8,3.801,2.1,5.001,7.4,6.301v1.5H474.45z
		 M462.649,1560.596c-1.8,0-4.1,1.2-5.3,4.101l-1.4-0.4c1.2-6.2,3.7-10.5,8.4-10.5c4.801,0,9.501,3.8,13.001,3.8
		c1.8,0,4.101-1.2,5.301-4.101l1.399,0.301c-1.3,6.2-3.8,10.601-8.5,10.601S466.15,1560.596,462.649,1560.596z M458.149,1601.099
		h16.401l-8.001-18.901h-0.7L458.149,1601.099z"/>
	<path fill="#231F20" d="M702.935,1618.1c-5.7,2.3-12.2,3.101-17.2,3.101c-15.701,0-27.902-10.201-27.902-26.202
		s13.701-26.802,29.602-26.802c4.301,0,9.801,0.601,15.302,2.2v11.9h-1.501c-4.3-8.1-8.9-10.9-14.5-10.9
		c-12.001,0-17.701,11.101-17.701,21.802c0,9,3.6,24.801,17.601,24.801c6.001,0,11.101-4,14.701-12.2h1.6V1618.1z M675.533,1565.897
		l-0.7-1.3l13.401-12.801l5,5.7v1.399L675.533,1565.897z"/>
	<path fill="#231F20" d="M914.316,1618.1c-5.7,2.3-12.2,3.101-17.2,3.101c-15.701,0-27.902-10.201-27.902-26.202
		s13.701-26.802,29.602-26.802c4.301,0,9.801,0.601,15.302,2.2v11.9h-1.5c-4.301-8.1-8.901-10.9-14.501-10.9
		c-12.001,0-17.701,11.101-17.701,21.802c0,9,3.6,24.801,17.601,24.801c6.001,0,11.101-4,14.701-12.2h1.6V1618.1z M908.616,1552.696
		l0.9,1.2l-11.201,10.701h-3.8l-11.101-10.701l0.9-1.2l12.101,4.501L908.616,1552.696z"/>
	<path fill="#231F20" d="M1101.798,1641.402c3.7-1.4,6.001-3.501,6.001-6.001c0-1.9-1.7-3.9-7.201-4.5v-1.601l5.4-8.2
		c-14.501-1.1-25.401-10.9-25.401-26.102c0-16.001,13.701-26.802,29.602-26.802c4.301,0,9.801,0.601,15.302,2.2v11.9h-1.5
		c-4.301-8.1-8.901-10.9-14.501-10.9c-12.001,0-17.701,11.101-17.701,21.802c0,9,3.6,24.801,17.601,24.801
		c6.001,0,11.101-4,14.701-12.2h1.6v12.301c-5.3,2.1-11.2,3-16.001,3.101l-2.5,4c4.9,0.899,8.501,3.7,8.501,7.7
		c0,5.4-5.501,9.001-13.401,10.101L1101.798,1641.402z"/>
	<path fill="#231F20" d="M1337.081,1618.1c-5.7,2.3-12.2,3.101-17.2,3.101c-15.701,0-27.902-10.201-27.902-26.202
		s13.701-26.802,29.602-26.802c4.301,0,9.801,0.601,15.302,2.2v11.9h-1.501c-4.3-8.1-8.9-10.9-14.5-10.9
		c-12.001,0-17.701,11.101-17.701,21.802c0,9,3.6,24.801,17.601,24.801c6.001,0,11.101-4,14.701-12.2h1.6V1618.1z M1318.48,1560.497
		l-12.101,4.5l-0.9-1.3l11.101-10.701h3.801l11.2,10.701l-0.9,1.3L1318.48,1560.497z"/>
	<path fill="#231F20" d="M1548.463,1618.1c-5.7,2.3-12.2,3.101-17.2,3.101c-15.701,0-27.902-10.201-27.902-26.202
		s13.701-26.802,29.602-26.802c4.301,0,9.801,0.601,15.302,2.2v11.9h-1.5c-4.301-8.1-8.901-10.9-14.501-10.9
		c-12.001,0-17.701,11.101-17.701,21.802c0,9,3.6,24.801,17.601,24.801c6.001,0,11.101-4,14.701-12.2h1.6V1618.1z
		 M1529.862,1563.796c-3.301,0-5.7-2.5-5.7-5.6c0-3.101,2.399-5.601,5.7-5.601c3.4,0,5.8,2.5,5.8,5.601
		C1535.662,1561.296,1533.263,1563.796,1529.862,1563.796z"/>
	<path fill="#231F20" d="M1715.443,1619.6v-1.5c5.801-1.3,6.801-2.3,6.801-6.4v-34.002c0-4.101-1-5.101-6.801-6.4v-1.5h23.901
		c15.401,0,29.702,8.3,29.702,23.801c0,17.102-14.001,26.002-30.802,26.002H1715.443z M1750.945,1552.696l0.9,1.2l-11.201,10.701
		h-3.8l-11.101-10.701l0.9-1.2l12.101,4.501L1750.945,1552.696z M1739.545,1616.5c11.7,0,18.301-9.3,18.301-21.001
		c0-11.001-5.4-22.602-19.701-22.602h-5.9v43.603H1739.545z"/>
	<path fill="#231F20" d="M225.167,1895.6v-1.5c5.801-1.3,6.801-2.3,6.801-6.4v-17.001h-7.601v-3h7.601v-14.001
		c0-4.101-1-5.101-6.801-6.4v-1.5h23.901c15.401,0,29.702,8.3,29.702,23.801c0,17.102-14.001,26.002-30.802,26.002H225.167z
		 M249.269,1892.5c11.7,0,18.301-9.3,18.301-21.001c0-11.001-5.4-22.602-19.701-22.602h-5.9v18.802h11.701v3h-11.701v21.801H249.269
		z"/>
	<path fill="#231F20" d="M449.622,1895.6v-1.5c5.801-1.3,6.801-2.3,6.801-6.4v-34.002c0-4.101-1-5.101-6.801-6.4v-1.5h39.402v11.801
		h-1.5c-5.5-8.301-10.001-8.701-15.301-8.701h-5.801v18.802h3.9c5.101,0,7.501-0.9,10.801-7.4h1.5v17.9h-1.5
		c-3.3-6.6-5.7-7.5-10.801-7.5h-3.9v21.801h5.801c5.3,0,9.801-0.399,15.301-10.3h1.5v13.4H449.622z M462.022,1841.897l-0.699-1.3
		l13.4-12.801l5,5.7v1.399L462.022,1841.897z"/>
	<path fill="#231F20" d="M662.576,1895.6v-1.5c5.801-1.3,6.801-2.3,6.801-6.4v-34.002c0-4.101-1-5.101-6.801-6.4v-1.5h39.402v11.801
		h-1.5c-5.5-8.301-10.001-8.701-15.301-8.701h-5.801v18.802h3.9c5.101,0,7.501-0.9,10.801-7.4h1.5v17.9h-1.5
		c-3.3-6.6-5.7-7.5-10.801-7.5h-3.9v21.801h5.801c5.3,0,9.801-0.399,15.301-10.3h1.5v13.4H662.576z M671.776,1828.796l1.501-0.101
		c1.199,3.601,4.899,5.501,9.9,5.501c4.9,0,8.601-1.9,9.801-5.501l1.5,0.101c0,7.5-4.001,12.2-11.301,12.2
		C675.777,1840.997,671.776,1836.296,671.776,1828.796z"/>
	<path fill="#231F20" d="M875.529,1895.6v-1.5c5.801-1.3,6.801-2.3,6.801-6.4v-34.002c0-4.101-1-5.101-6.801-6.4v-1.5h39.402v11.801
		h-1.5c-5.5-8.301-10.001-8.701-15.301-8.701h-5.801v18.802h3.9c5.101,0,7.501-0.9,10.801-7.4h1.5v17.9h-1.5
		c-3.3-6.6-5.7-7.5-10.801-7.5h-3.9v21.801h5.801c5.3,0,9.801-0.399,15.301-10.3h1.5v13.4H875.529z M908.932,1828.696l0.899,1.2
		l-11.2,10.701h-3.801l-11.101-10.701l0.9-1.2l12.101,4.501L908.932,1828.696z"/>
	<path fill="#231F20" d="M1088.483,1895.6v-1.5c5.801-1.3,6.801-2.3,6.801-6.4v-34.002c0-4.101-1-5.101-6.801-6.4v-1.5h39.402
		v11.801h-1.5c-5.5-8.301-10.001-8.701-15.301-8.701h-5.801v18.802h3.9c5.101,0,7.501-0.9,10.801-7.4h1.5v17.9h-1.5
		c-3.3-6.6-5.7-7.5-10.801-7.5h-3.9v21.801h5.801c5.3,0,9.801-0.399,15.301-10.3h1.5v13.4H1088.483z M1109.085,1836.497l-12.101,4.5
		l-0.9-1.3l11.101-10.701h3.8l11.201,10.701l-0.9,1.3L1109.085,1836.497z"/>
	<path fill="#231F20" d="M1301.438,1895.6v-1.5c5.801-1.3,6.801-2.3,6.801-6.4v-34.002c0-4.101-1-5.101-6.801-6.4v-1.5h39.402
		v11.801h-1.5c-5.5-8.301-10.001-8.701-15.301-8.701h-5.801v18.802h3.9c5.101,0,7.501-0.9,10.801-7.4h1.5v17.9h-1.5
		c-3.3-6.6-5.7-7.5-10.801-7.5h-3.9v21.801h5.801c5.3,0,9.801-0.399,15.301-10.3h1.5v13.4H1301.438z M1312.639,1839.796
		c-3.301,0-5.701-2.5-5.701-5.6c0-3.101,2.4-5.601,5.701-5.601c3.399,0,5.8,2.5,5.8,5.601
		C1318.438,1837.296,1316.038,1839.796,1312.639,1839.796z M1331.34,1839.796c-3.301,0-5.701-2.5-5.701-5.6
		c0-3.101,2.4-5.601,5.701-5.601c3.399,0,5.8,2.5,5.8,5.601C1337.14,1837.296,1334.739,1839.796,1331.34,1839.796z"/>
	<path fill="#231F20" d="M1514.392,1895.6v-1.5c5.801-1.3,6.801-2.3,6.801-6.4v-34.002c0-4.101-1-5.101-6.801-6.4v-1.5h39.402
		v11.801h-1.5c-5.5-8.301-10.001-8.701-15.301-8.701h-5.801v18.802h3.9c5.101,0,7.501-0.9,10.801-7.4h1.5v17.9h-1.5
		c-3.3-6.6-5.7-7.5-10.801-7.5h-3.9v21.801h5.801c5.3,0,9.801-0.399,15.301-10.3h1.5v13.4H1514.392z M1534.893,1839.796
		c-3.3,0-5.7-2.5-5.7-5.6c0-3.101,2.4-5.601,5.7-5.601c3.4,0,5.801,2.5,5.801,5.601
		C1540.693,1837.296,1538.293,1839.796,1534.893,1839.796z"/>
	<path fill="#231F20" d="M1727.345,1895.6v-1.5c5.801-1.3,6.801-2.3,6.801-6.4v-34.002c0-4.101-1-5.101-6.801-6.4v-1.5h39.402
		v11.801h-1.5c-5.5-8.301-10.001-8.701-15.301-8.701h-5.801v18.802h3.9c5.101,0,7.501-0.9,10.801-7.4h1.5v17.9h-1.5
		c-3.3-6.6-5.7-7.5-10.801-7.5h-3.9v21.801h5.801c5.3,0,9.801-0.399,15.301-10.3h1.5v13.4H1727.345z M1736.745,1834.896v-1.399
		l5.001-5.7l13.4,12.801l-0.7,1.3L1736.745,1834.896z"/>
	<path fill="#231F20" d="M225.167,2171.6v-1.5c5.801-1.3,6.801-2.3,6.801-6.4v-34.002c0-4.101-1-5.101-6.801-6.4v-1.5h39.402v11.801
		h-1.5c-5.5-8.301-10.001-8.701-15.301-8.701h-5.801v18.802h3.9c5.101,0,7.501-0.9,10.801-7.4h1.5v17.9h-1.5
		c-3.3-6.6-5.7-7.5-10.801-7.5h-3.9v21.801h5.801c5.3,0,9.801-0.399,15.301-10.3h1.5v13.4H225.167z M231.768,2112.396v-4h28.102v4
		H231.768z"/>
	<path fill="#231F20" d="M469.123,2189.101c-3.2,3.801-7.501,5.9-11.401,5.9c-5.6,0-8.601-3.4-8.601-7.601
		c0-4.601,3.4-10.2,12.102-15.801H429.82v-1.5c5.801-1.3,6.801-2.3,6.801-6.4v-34.002c0-4.101-1-5.101-6.801-6.4v-1.5h39.402v11.801
		h-1.5c-5.5-8.301-10.001-8.701-15.301-8.701h-5.801v18.802h3.9c5.101,0,7.501-0.9,10.801-7.4h1.5v17.9h-1.5
		c-3.3-6.6-5.7-7.5-10.801-7.5h-3.9v21.801h5.801c5.3,0,9.801-0.399,15.301-10.3h1.5v13.4h-5.3c-4.9,4.7-6.801,9.7-6.801,12.801
		c0,3.3,2,5.2,5.101,5.2c1.7,0,3.8-0.5,6.1-1.8L469.123,2189.101z"/>
	<path fill="#231F20" d="M664.976,2170c2.1,0,4.2-0.199,6.3-0.6v-10.7c0-4.101-1.5-5.001-7.601-6.4v-1.501h17.602v18.302
		c-4.9,2.2-11.601,4.101-18.701,4.101c-17.001,0-29.202-10.201-29.202-26.202s13.801-26.802,30.002-26.802
		c4.4,0,10.801,0.7,16.301,2.301v11.9h-1.5c-4.3-8.101-9.9-11.001-15.501-11.001c-12.301,0-18.101,11.101-18.101,21.802
		C644.574,2155,649.274,2170,664.976,2170z M649.874,2104.796l1.5-0.101c1.2,3.601,4.9,5.501,9.901,5.501c4.899,0,8.6-1.9,9.8-5.501
		l1.5,0.101c0,7.5-4,12.2-11.3,12.2C653.874,2116.997,649.874,2112.296,649.874,2104.796z"/>
	<path fill="#231F20" d="M877.13,2170c2.1,0,4.2-0.199,6.3-0.6v-10.7c0-4.101-1.5-5.001-7.601-6.4v-1.501h17.602v18.302
		c-4.9,2.2-11.601,4.101-18.701,4.101c-17.001,0-29.202-10.201-29.202-26.202s13.801-26.802,30.002-26.802
		c4.4,0,10.801,0.7,16.301,2.301v11.9h-1.5c-4.3-8.101-9.9-11.001-15.501-11.001c-12.301,0-18.101,11.101-18.101,21.802
		C856.729,2155,861.429,2170,877.13,2170z M873.329,2112.497l-12.101,4.5l-0.9-1.3l11.101-10.701h3.801l11.2,10.701l-0.899,1.3
		L873.329,2112.497z"/>
	<path fill="#231F20" d="M1089.283,2170c2.1,0,4.2-0.199,6.3-0.6v-10.7c0-4.101-1.5-5.001-7.601-6.4v-1.501h17.602v18.302
		c-4.9,2.2-11.601,4.101-18.701,4.101c-17.001,0-29.202-10.201-29.202-26.202s13.801-26.802,30.002-26.802
		c4.4,0,10.801,0.7,16.301,2.301v11.9h-1.5c-4.3-8.101-9.9-11.001-15.501-11.001c-12.301,0-18.101,11.101-18.101,21.802
		C1068.882,2155,1073.582,2170,1089.283,2170z M1081.183,2196.001V2177.8h9.5v1.5l-8,16.701H1081.183z"/>
	<path fill="#231F20" d="M1301.438,2170c2.1,0,4.2-0.199,6.3-0.6v-10.7c0-4.101-1.5-5.001-7.601-6.4v-1.501h17.602v18.302
		c-4.9,2.2-11.601,4.101-18.701,4.101c-17.001,0-29.202-10.201-29.202-26.202s13.801-26.802,30.002-26.802
		c4.4,0,10.801,0.7,16.301,2.301v11.9h-1.5c-4.3-8.101-9.9-11.001-15.501-11.001c-12.301,0-18.101,11.101-18.101,21.802
		C1281.036,2155,1285.736,2170,1301.438,2170z M1297.637,2115.796c-3.3,0-5.7-2.5-5.7-5.6c0-3.101,2.4-5.601,5.7-5.601
		c3.4,0,5.801,2.5,5.801,5.601C1303.438,2113.296,1301.037,2115.796,1297.637,2115.796z"/>
	<path fill="#231F20" d="M1482.688,2171.6v-1.5c5.801-1.3,6.801-2.3,6.801-6.4v-28.502h-7.001v-3.1h7.001v-2.4
		c0-4.101-1-5.101-6.801-6.4v-1.5h23.602v1.5c-5.7,1.3-6.801,2.3-6.801,6.4v2.4h27.102v-2.4c0-4.101-1-5.101-6.8-6.4v-1.5h23.602
		v1.5c-5.701,1.3-6.801,2.3-6.801,6.4v2.4h7v3.1h-7v28.502c0,4.101,1.1,5.101,6.801,6.4v1.5h-23.602v-1.5c5.8-1.3,6.8-2.3,6.8-6.4
		v-17.001h-27.102v17.001c0,4.101,1.101,5.101,6.801,6.4v1.5H1482.688z M1499.489,2143.699h27.102v-8.501h-27.102V2143.699z"/>
	<path fill="#231F20" d="M1744.445,2171.6v-1.5c5.8-1.3,6.8-2.3,6.8-6.4v-17.001h-27.102v17.001c0,4.101,1.101,5.101,6.801,6.4v1.5
		h-23.602v-1.5c5.801-1.3,6.801-2.3,6.801-6.4v-34.002c0-4.101-1-5.101-6.801-6.4v-1.5h23.602v1.5c-5.7,1.3-6.801,2.3-6.801,6.4
		v14.001h27.102v-14.001c0-4.101-1-5.101-6.8-6.4v-1.5h23.602v1.5c-5.701,1.3-6.801,2.3-6.801,6.4v34.002
		c0,4.101,1.1,5.101,6.801,6.4v1.5H1744.445z M1737.645,2112.497l-12.101,4.5l-0.9-1.3l11.101-10.701h3.801l11.2,10.701l-0.899,1.3
		L1737.645,2112.497z"/>
	<path fill="#231F20" d="M225.167,2447.599v-1.5c5.801-1.3,6.801-2.3,6.801-6.4v-34.002c0-4.101-1-5.101-6.801-6.4v-1.5h23.602v1.5
		c-5.7,1.3-6.801,2.3-6.801,6.4v34.002c0,4.101,1.101,5.101,6.801,6.4v1.5H225.167z M229.367,2393.896l-0.7-1.3l13.401-12.801l5,5.7
		v1.399L229.367,2393.896z"/>
	<path fill="#231F20" d="M415.289,2447.599v-1.5c5.801-1.3,6.801-2.3,6.801-6.4v-34.002c0-4.101-1-5.101-6.801-6.4v-1.5h23.602v1.5
		c-5.7,1.3-6.801,2.3-6.801,6.4v34.002c0,4.101,1.101,5.101,6.801,6.4v1.5H415.289z M415.789,2380.795l1.5-0.101
		c1.2,3.601,4.9,5.501,9.9,5.501c4.9,0,8.601-1.9,9.801-5.501l1.5,0.101c0,7.5-4,12.2-11.301,12.2
		C419.789,2392.996,415.789,2388.295,415.789,2380.795z"/>
	<path fill="#231F20" d="M617.213,2388.496l-12.101,4.5l-0.9-1.3l11.101-10.701h3.801l11.2,10.701l-0.899,1.3L617.213,2388.496z
		 M605.412,2447.599v-1.5c5.801-1.3,6.801-2.3,6.801-6.4v-34.002c0-4.101-1-5.101-6.801-6.4v-1.5h23.602v1.5
		c-5.7,1.3-6.801,2.3-6.801,6.4v34.002c0,4.101,1.101,5.101,6.801,6.4v1.5H605.412z"/>
	<path fill="#231F20" d="M798.034,2391.795c-3.3,0-5.7-2.5-5.7-5.6c0-3.101,2.4-5.601,5.7-5.601c3.4,0,5.801,2.5,5.801,5.601
		C803.835,2389.295,801.435,2391.795,798.034,2391.795z M795.534,2447.599v-1.5c5.801-1.3,6.801-2.3,6.801-6.4v-34.002
		c0-4.101-1-5.101-6.801-6.4v-1.5h23.602v1.5c-5.7,1.3-6.801,2.3-6.801,6.4v34.002c0,4.101,1.101,5.101,6.801,6.4v1.5H795.534z
		 M816.735,2391.795c-3.3,0-5.7-2.5-5.7-5.6c0-3.101,2.4-5.601,5.7-5.601c3.4,0,5.801,2.5,5.801,5.601
		C822.536,2389.295,820.136,2391.795,816.735,2391.795z"/>
	<path fill="#231F20" d="M985.656,2447.599v-1.5c5.801-1.3,6.801-2.3,6.801-6.4v-34.002c0-4.101-1-5.101-6.801-6.4v-1.5h23.602v1.5
		c-5.7,1.3-6.801,2.3-6.801,6.4v34.002c0,4.101,1.101,5.101,6.801,6.4v1.5H985.656z M997.357,2391.795c-3.301,0-5.701-2.5-5.701-5.6
		c0-3.101,2.4-5.601,5.701-5.601c3.399,0,5.8,2.5,5.8,5.601C1003.157,2389.295,1000.757,2391.795,997.357,2391.795z"/>
	<path fill="#231F20" d="M1175.779,2447.599v-1.5c5.801-1.3,6.801-2.3,6.801-6.4v-34.002c0-4.101-1-5.101-6.801-6.4v-1.5h23.602v1.5
		c-5.7,1.3-6.801,2.3-6.801,6.4v34.002c0,4.101,1.101,5.101,6.801,6.4v1.5H1175.779z M1177.279,2386.895v-1.399l5-5.7l13.401,12.801
		l-0.7,1.3L1177.279,2386.895z"/>
	<path fill="#231F20" d="M1365.701,2388.396v-4.001h24.102v4.001H1365.701z M1365.901,2447.599v-1.5c5.801-1.3,6.801-2.3,6.801-6.4
		v-34.002c0-4.101-1-5.101-6.801-6.4v-1.5h23.602v1.5c-5.7,1.3-6.801,2.3-6.801,6.4v34.002c0,4.101,1.101,5.101,6.801,6.4v1.5
		H1365.901z"/>
	<path fill="#231F20" d="M1579.525,2465.1c-3.199,3.801-7.5,5.9-11.4,5.9c-5.601,0-8.601-3.4-8.601-7.601
		c0-4.6,3.4-10.2,12.101-15.801h-15.601v-1.5c5.801-1.3,6.801-2.3,6.801-6.4v-34.002c0-4.101-1-5.101-6.801-6.4v-1.5h23.602v1.5
		c-5.7,1.3-6.801,2.3-6.801,6.4v34.002c0,4.101,1.101,5.101,6.801,6.4v1.5h-5.301c-4.9,4.7-6.8,9.7-6.8,12.801c0,3.3,2,5.2,5.1,5.2
		c1.7,0,3.801-0.5,6.101-1.8L1579.525,2465.1z"/>
	<path fill="#231F20" d="M1750.646,2388.595c-1.8,0-4.1,1.2-5.3,4.101l-1.4-0.4c1.2-6.2,3.7-10.5,8.4-10.5
		c4.801,0,9.501,3.8,13.001,3.8c1.8,0,4.101-1.2,5.301-4.101l1.399,0.301c-1.3,6.2-3.8,10.601-8.5,10.601
		S1754.147,2388.595,1750.646,2388.595z M1746.146,2447.599v-1.5c5.801-1.3,6.801-2.3,6.801-6.4v-34.002c0-4.101-1-5.101-6.801-6.4
		v-1.5h23.602v1.5c-5.7,1.3-6.801,2.3-6.801,6.4v34.002c0,4.101,1.101,5.101,6.801,6.4v1.5H1746.146z"/>
	<path fill="#231F20" d="M245.469,2681.697c0-4.102-0.9-5.102-8.401-6.401v-1.5h25.202v1.5c-5.801,1.299-6.801,2.299-6.801,6.401
		v24.701c0,13.301-9,18.801-17.201,18.801c-3,0-8.2-0.6-11.801-2.301v-12.301h1.5c4.001,8.301,6.9,11.402,11.501,11.402
		c2.8,0,6.001-1.602,6.001-6.4V2681.697z M250.469,2664.496l-12.101,4.5l-0.9-1.3l11.101-10.701h3.801l11.2,10.701l-0.9,1.3
		L250.469,2664.496z"/>
	<path fill="#231F20" d="M483.525,2675.296c-4.501,0.899-8.601,3.6-13.102,8l-10.101,9.801l25.702,29.002v1.5h-12.601
		l-21.502-26.803v18.902c0,4.1,1.101,5.1,6.801,6.4v1.5h-23.602v-1.5c5.801-1.301,6.801-2.301,6.801-6.4v-34.002
		c0-4.102-1-5.102-6.801-6.401v-1.5h23.602v1.5c-5.7,1.299-6.801,2.299-6.801,6.401v15.1l13.701-13.6c3.601-3.701,5.8-6.602,0-7.901
		v-1.5h17.901V2675.296z M455.823,2748v-18.201h9.501v1.5L457.323,2748H455.823z"/>
	<path fill="#231F20" d="M657.876,2723.6v-1.5c5.801-1.301,6.801-2.301,6.801-6.4v-34.002c0-4.102-1-5.102-6.801-6.401v-1.5h25.201
		v1.5c-7.4,1.299-8.4,2.299-8.4,6.401v38.801h5.2c4.9,0,8.901-1.799,14.301-12.5h1.501v15.602H657.876z M662.076,2669.896l-0.7-1.3
		l13.401-12.801l5,5.7v1.399L662.076,2669.896z"/>
	<path fill="#231F20" d="M868.53,2723.6v-1.5c5.801-1.301,6.801-2.301,6.801-6.4v-34.002c0-4.102-1-5.102-6.801-6.401v-1.5h25.201
		v1.5c-7.4,1.299-8.4,2.299-8.4,6.401v38.801h5.2c4.9,0,8.901-1.799,14.301-12.5h1.501v15.602H868.53z M898.933,2691.598v-20.102
		h9.3v1.5l-7.8,18.602H898.933z"/>
	<path fill="#231F20" d="M1079.184,2723.6v-1.5c5.801-1.301,6.801-2.301,6.801-6.4v-34.002c0-4.102-1-5.102-6.801-6.401v-1.5h25.201
		v1.5c-7.4,1.299-8.4,2.299-8.4,6.401v38.801h5.2c4.9,0,8.901-1.799,14.302-12.5h1.5v15.602H1079.184z M1093.284,2748v-18.201h9.501
		v1.5l-8.001,16.701H1093.284z"/>
	<path fill="#231F20" d="M1289.837,2723.6v-1.5c5.801-1.301,6.801-2.301,6.801-6.4v-34.002c0-4.102-1-5.102-6.801-6.401v-1.5h25.201
		v1.5c-7.4,1.299-8.4,2.299-8.4,6.401v38.801h5.2c4.9,0,8.901-1.799,14.301-12.5h1.501v15.602H1289.837z M1312.038,2696.398
		c0-3.301,2.601-6.102,6.101-6.102c3.601,0,6.2,2.801,6.2,6.102c0,3.398-2.6,6.199-6.2,6.199
		C1314.639,2702.598,1312.038,2699.797,1312.038,2696.398z"/>
	<path fill="#231F20" d="M1500.49,2723.6v-1.5c5.801-1.301,6.801-2.301,6.801-6.4v-12.701l-5.701,2.199l-1.199-3l6.9-2.699v-17.801
		c0-4.102-1-5.102-6.801-6.401v-1.5h25.201v1.5c-7.4,1.299-8.4,2.299-8.4,6.401v13.9l10.701-4.301l1.2,2.9l-11.901,4.801v21.5h5.2
		c4.9,0,8.901-1.799,14.302-12.5h1.5v15.602H1500.49z"/>
	<path fill="#231F20" d="M1758.747,2724.398l-35.502-38.502h-0.7l0.2,14.801v12.102c0,5.9,2.5,8,9.001,9.301v1.5h-20.602v-1.5
		c5.301-1.301,7.7-3.4,7.7-9.301v-28.303c0-5.799-2.399-7.9-7.7-9.2v-1.5h15.601l30.603,33.102h0.6l-0.2-14.9v-7.502
		c0-5.799-2.1-7.9-8.5-9.2v-1.5h19.901v1.5c-5.101,1.299-7.4,3.401-7.4,9.2v39.902H1758.747z M1731.846,2669.896l-0.7-1.3
		l13.401-12.801l5,5.7v1.399L1731.846,2669.896z"/>
	<path fill="#231F20" d="M272.77,3000.398l-35.502-38.502h-0.7l0.2,14.801v12.102c0,5.9,2.5,8,9.001,9.301v1.5h-20.602v-1.5
		c5.301-1.301,7.7-3.4,7.7-9.301v-28.303c0-5.799-2.399-7.9-7.7-9.199v-1.5h15.601l30.603,33.102h0.6l-0.2-14.9v-7.502
		c0-5.799-2.1-7.9-8.5-9.199v-1.5h19.901v1.5c-5.101,1.299-7.4,3.4-7.4,9.199v39.902H272.77z M265.569,2932.695l0.9,1.199
		l-11.201,10.701h-3.8l-11.101-10.701l0.899-1.199l12.102,4.5L265.569,2932.695z"/>
	<path fill="#231F20" d="M521.666,3000.398l-35.502-38.502h-0.7l0.2,14.801v12.102c0,5.9,2.5,8,9.001,9.301v1.5h-20.602v-1.5
		c5.301-1.301,7.7-3.4,7.7-9.301v-28.303c0-5.799-2.399-7.9-7.7-9.199v-1.5h15.601l30.603,33.102h0.6l-0.2-14.9v-7.502
		c0-5.799-2.1-7.9-8.5-9.199v-1.5h19.901v1.5c-5.101,1.299-7.4,3.4-7.4,9.199v39.902H521.666z M498.565,3024v-18.201h9.5v1.5
		l-8,16.701H498.565z"/>
	<path fill="#231F20" d="M770.562,3000.398l-35.502-38.502h-0.7l0.2,14.801v12.102c0,5.9,2.5,8,9.001,9.301v1.5H722.96v-1.5
		c5.301-1.301,7.7-3.4,7.7-9.301v-28.303c0-5.799-2.399-7.9-7.7-9.199v-1.5h15.601l30.603,33.102h0.6l-0.2-14.9v-7.502
		c0-5.799-2.1-7.9-8.5-9.199v-1.5h19.901v1.5c-5.101,1.299-7.4,3.4-7.4,9.199v39.902H770.562z M744.461,2940.596
		c-1.8,0-4.1,1.199-5.3,4.1l-1.4-0.4c1.2-6.199,3.7-10.5,8.4-10.5c4.801,0,9.501,3.801,13.001,3.801c1.8,0,4.101-1.201,5.301-4.102
		l1.399,0.301c-1.3,6.201-3.8,10.602-8.5,10.602S747.962,2940.596,744.461,2940.596z"/>
	<path fill="#231F20" d="M970.156,2975.098c0-15.9,12.601-26.902,28.002-26.902c14.801,0,26.602,10.102,26.602,26.002
		s-12.601,27.002-27.901,27.002C981.957,3001.199,970.156,2990.998,970.156,2975.098z M1013.459,2977.398
		c0-9.9-3.5-26.002-16.801-26.002c-10.701,0-15.301,10.301-15.301,20.602c0,9.801,3.7,26.002,16.9,26.002
		C1008.959,2998,1013.459,2987.498,1013.459,2977.398z M989.857,2945.896l-0.7-1.301l13.401-12.801l5,5.701v1.398L989.857,2945.896z
		"/>
	<path fill="#231F20" d="M1218.152,2975.098c0-15.9,12.601-26.902,28.002-26.902c14.801,0,26.602,10.102,26.602,26.002
		s-12.601,27.002-27.901,27.002C1229.953,3001.199,1218.152,2990.998,1218.152,2975.098z M1261.455,2977.398
		c0-9.9-3.5-26.002-16.801-26.002c-10.701,0-15.301,10.301-15.301,20.602c0,9.801,3.7,26.002,16.9,26.002
		C1256.955,2998,1261.455,2987.498,1261.455,2977.398z M1233.953,2932.795l1.5-0.1c1.2,3.6,4.9,5.5,9.901,5.5
		c4.9,0,8.601-1.9,9.8-5.5l1.501,0.1c0,7.5-4.001,12.201-11.301,12.201C1237.954,2944.996,1233.953,2940.295,1233.953,2932.795z"/>
	<path fill="#231F20" d="M1466.148,2975.098c0-15.9,12.601-26.902,28.002-26.902c14.801,0,26.602,10.102,26.602,26.002
		s-12.601,27.002-27.901,27.002C1477.949,3001.199,1466.148,2990.998,1466.148,2975.098z M1509.451,2977.398
		c0-9.9-3.5-26.002-16.801-26.002c-10.701,0-15.301,10.301-15.301,20.602c0,9.801,3.7,26.002,16.9,26.002
		C1504.951,2998,1509.451,2987.498,1509.451,2977.398z M1493.351,2940.496l-12.101,4.5l-0.9-1.301l11.101-10.701h3.8l11.201,10.701
		l-0.9,1.301L1493.351,2940.496z"/>
	<path fill="#231F20" d="M1714.145,2975.098c0-15.9,12.601-26.902,28.002-26.902c14.801,0,26.602,10.102,26.602,26.002
		s-12.601,27.002-27.901,27.002C1725.945,3001.199,1714.145,2990.998,1714.145,2975.098z M1757.447,2977.398
		c0-9.9-3.5-26.002-16.801-26.002c-10.701,0-15.301,10.301-15.301,20.602c0,9.801,3.7,26.002,16.9,26.002
		C1752.947,2998,1757.447,2987.498,1757.447,2977.398z M1732.046,2943.795c-3.3,0-5.7-2.5-5.7-5.6s2.4-5.6,5.7-5.6
		c3.4,0,5.8,2.5,5.8,5.6S1735.446,2943.795,1732.046,2943.795z M1750.747,2943.795c-3.301,0-5.7-2.5-5.7-5.6s2.399-5.6,5.7-5.6
		c3.4,0,5.8,2.5,5.8,5.6S1754.147,2943.795,1750.747,2943.795z"/>
	<path fill="#231F20" d="M224.467,3251.098c0-15.9,12.601-26.902,28.002-26.902c14.801,0,26.602,10.102,26.602,26.002
		s-12.601,27.002-27.901,27.002C236.268,3277.199,224.467,3266.998,224.467,3251.098z M267.77,3253.398
		c0-9.9-3.5-26.002-16.801-26.002c-10.701,0-15.301,10.301-15.301,20.602c0,9.801,3.7,26.002,16.9,26.002
		C263.27,3274,267.77,3263.498,267.77,3253.398z M241.168,3214.895v-1.398l5-5.701l13.401,12.801l-0.7,1.301L241.168,3214.895z"/>
	<path fill="#231F20" d="M445.062,3251.098c0-15.9,12.601-26.902,28.002-26.902c14.801,0,26.602,10.102,26.602,26.002
		s-12.601,27.002-27.901,27.002C456.863,3277.199,445.062,3266.998,445.062,3251.098z M488.365,3253.398
		c0-9.9-3.5-26.002-16.801-26.002c-10.701,0-15.301,10.301-15.301,20.602c0,9.801,3.7,26.002,16.9,26.002
		C483.865,3274,488.365,3263.498,488.365,3253.398z M459.863,3221.896l-0.8-1.201l11.4-12.9l5.4,4.9v1.4L459.863,3221.896z
		 M474.265,3221.896l-0.9-1.201l11.301-12.9l5.601,4.9v1.4L474.265,3221.896z"/>
	<path fill="#231F20" d="M665.659,3251.098c0-15.9,12.601-26.902,28.002-26.902c14.801,0,26.602,10.102,26.602,26.002
		s-12.601,27.002-27.901,27.002C677.46,3277.199,665.659,3266.998,665.659,3251.098z M708.962,3253.398
		c0-9.9-3.5-26.002-16.801-26.002c-10.701,0-15.301,10.301-15.301,20.602c0,9.801,3.7,26.002,16.9,26.002
		C704.462,3274,708.962,3263.498,708.962,3253.398z M678.86,3216.396v-4.002h28.102v4.002H678.86z"/>
	<path fill="#231F20" d="M886.256,3251.098c0-15.9,12.601-26.902,28.002-26.902c14.801,0,26.602,10.102,26.602,26.002
		s-12.601,27.002-27.901,27.002C898.057,3277.199,886.256,3266.998,886.256,3251.098z M929.559,3253.398
		c0-9.9-3.5-26.002-16.801-26.002c-10.701,0-15.301,10.301-15.301,20.602c0,9.801,3.7,26.002,16.9,26.002
		C925.059,3274,929.559,3263.498,929.559,3253.398z M906.157,3216.596c-1.8,0-4.101,1.199-5.3,4.1l-1.4-0.4
		c1.2-6.199,3.7-10.5,8.4-10.5c4.8,0,9.501,3.801,13.001,3.801c1.8,0,4.1-1.201,5.3-4.102l1.4,0.301
		c-1.3,6.201-3.8,10.602-8.501,10.602C914.357,3220.396,909.657,3216.596,906.157,3216.596z"/>
	<path fill="#231F20" d="M1140.755,3275.6l-14.101-20.801h-2h-3.501v12.9c0,4.1,1.101,5.1,6.801,6.4v1.5h-23.602v-1.5
		c5.801-1.301,6.801-2.301,6.801-6.4v-34.002c0-4.102-1-5.102-6.801-6.4v-1.5h21.201c11.601,0,20.602,4.5,20.602,14
		c0,6.9-4.2,11.5-11.101,13.602l17.801,20.701v1.5H1140.755z M1118.054,3221.896l-0.7-1.301l13.4-12.801l5.001,5.701v1.398
		L1118.054,3221.896z M1125.454,3251.598c5.8,0,10-4.5,10-11.201c0-7.1-4.2-11.4-10.8-11.4h-3.501v22.602H1125.454z"/>
	<path fill="#231F20" d="M1351.152,3275.6l-14.101-20.801h-2.001h-3.5v12.9c0,4.1,1.101,5.1,6.801,6.4v1.5h-23.602v-1.5
		c5.801-1.301,6.801-2.301,6.801-6.4v-34.002c0-4.102-1-5.102-6.801-6.4v-1.5h21.201c11.601,0,20.602,4.5,20.602,14
		c0,6.9-4.2,11.5-11.101,13.602l17.801,20.701v1.5H1351.152z M1347.752,3208.695l0.9,1.199l-11.201,10.701h-3.8l-11.101-10.701
		l0.899-1.199l12.102,4.5L1347.752,3208.695z M1335.852,3251.598c5.8,0,10-4.5,10-11.201c0-7.1-4.2-11.4-10.801-11.4h-3.5v22.602
		H1335.852z"/>
	<path fill="#231F20" d="M1561.551,3275.6l-14.101-20.801h-2.001h-3.5v12.9c0,4.1,1.101,5.1,6.801,6.4v1.5h-23.602v-1.5
		c5.801-1.301,6.801-2.301,6.801-6.4v-34.002c0-4.102-1-5.102-6.801-6.4v-1.5h21.201c11.601,0,20.602,4.5,20.602,14
		c0,6.9-4.2,11.5-11.101,13.602l17.801,20.701v1.5H1561.551z M1546.25,3251.598c5.8,0,10-4.5,10-11.201c0-7.1-4.2-11.4-10.801-11.4
		h-3.5v22.602H1546.25z M1543.949,3300v-18.201h9.501v1.5l-8.001,16.701H1543.949z"/>
	<path fill="#231F20" d="M1737.546,3262.598h1.7c3.9,7.502,8.2,11.402,13.101,11.402c5.2,0,8.701-3.102,8.701-8.002
		c0-11.9-24.902-12.301-24.902-27.701c0-9.701,9.301-14.102,17.201-14.102c4.301,0,8.101,0.5,13.401,2v11.102h-1.601
		c-4.2-7.301-7.9-9.9-12.801-9.9c-4.2,0-8.101,2.4-8.101,7c0,10.602,24.902,12.201,24.902,27.701
		c0,10.002-9.401,15.102-17.701,15.102c-4.601,0-9.401-0.6-13.901-2.4V3262.598z M1744.047,3221.896l-0.7-1.301l13.4-12.801l5,5.701
		v1.398L1744.047,3221.896z"/>
	<path fill="#231F20" d="M227.167,3538.598h1.7c3.9,7.502,8.2,11.402,13.101,11.402c5.2,0,8.701-3.102,8.701-8.002
		c0-11.9-24.902-12.301-24.902-27.701c0-9.701,9.301-14.102,17.201-14.102c4.301,0,8.101,0.5,13.401,2v11.102h-1.601
		c-4.2-7.301-7.9-9.9-12.801-9.9c-4.2,0-8.101,2.4-8.101,7c0,10.602,24.902,12.201,24.902,27.701
		c0,10.002-9.401,15.102-17.701,15.102c-4.601,0-9.401-0.6-13.901-2.4V3538.598z M254.369,3484.695l0.899,1.199l-11.2,10.701h-3.801
		l-11.101-10.701l0.9-1.199l12.101,4.5L254.369,3484.695z"/>
	<path fill="#231F20" d="M446.592,3573.4c3.7-1.4,6.001-3.5,6.001-6c0-1.9-1.7-3.9-7.201-4.5v-1.602l5.301-8.1
		c-4.5-0.1-9.101-0.699-13.501-2.4v-12.201h1.7c3.9,7.502,8.2,11.402,13.101,11.402c5.2,0,8.701-3.102,8.701-8.002
		c0-11.9-24.902-12.301-24.902-27.701c0-9.701,9.301-14.102,17.201-14.102c4.301,0,8.101,0.5,13.401,2v11.102h-1.601
		c-4.2-7.301-7.9-9.9-12.801-9.9c-4.2,0-8.101,2.4-8.101,7c0,10.602,24.902,12.201,24.902,27.701
		c0,8.602-6.901,13.502-14.001,14.701l-2.801,4.4c4.9,0.9,8.501,3.701,8.501,7.701c0,5.4-5.501,9-13.401,10.1L446.592,3573.4z"/>
	<path fill="#231F20" d="M647.217,3538.598h1.7c3.9,7.502,8.2,11.402,13.101,11.402c5.2,0,8.701-3.102,8.701-8.002
		c0-11.9-24.902-12.301-24.902-27.701c0-9.701,9.301-14.102,17.201-14.102c4.301,0,8.101,0.5,13.401,2v11.102h-1.601
		c-4.2-7.301-7.9-9.9-12.801-9.9c-4.2,0-8.101,2.4-8.101,7c0,10.602,24.902,12.201,24.902,27.701
		c0,10.002-9.401,15.102-17.701,15.102c-4.601,0-9.401-0.6-13.901-2.4V3538.598z M662.218,3492.496l-12.101,4.5l-0.9-1.301
		l11.101-10.701h3.801l11.2,10.701l-0.899,1.301L662.218,3492.496z"/>
	<path fill="#231F20" d="M857.241,3538.598h1.7c3.9,7.502,8.2,11.402,13.101,11.402c5.2,0,8.701-3.102,8.701-8.002
		c0-11.9-24.902-12.301-24.902-27.701c0-9.701,9.301-14.102,17.201-14.102c4.301,0,8.101,0.5,13.401,2v11.102h-1.601
		c-4.2-7.301-7.9-9.9-12.801-9.9c-4.2,0-8.101,2.4-8.101,7c0,10.602,24.902,12.201,24.902,27.701
		c0,10.002-9.401,15.102-17.701,15.102c-4.601,0-9.401-0.6-13.901-2.4V3538.598z M867.842,3576v-18.201h9.501v1.5L869.342,3576
		H867.842z"/>
	<path fill="#231F20" d="M1107.27,3516.598c-4.501-10.4-8.4-11.602-12.901-11.602h-3.7v18.701h10.001v3h-10.001v17.002
		c0,4.1,1.101,5.1,7.9,6.4v1.5h-25.801v-1.5c6.9-1.301,7.9-2.301,7.9-6.4v-17.002h-9.601v-3h9.601v-18.701h-3.601
		c-4.601,0-8.4,1.201-13.001,11.602h-1.5v-14.801h46.203v14.801H1107.27z"/>
	<path fill="#231F20" d="M1327.596,3516.598c-4.501-10.4-8.4-11.602-12.901-11.602h-3.7v38.703c0,4.1,1.101,5.1,7.9,6.4v1.5h-25.801
		v-1.5c6.9-1.301,7.9-2.301,7.9-6.4v-38.703h-3.601c-4.601,0-8.4,1.201-13.001,11.602h-1.5v-14.801h46.203v14.801H1327.596z
		 M1318.095,3484.695l0.9,1.199l-11.201,10.701h-3.8l-11.101-10.701l0.899-1.199l12.102,4.5L1318.095,3484.695z"/>
	<path fill="#231F20" d="M1547.923,3516.598c-4.501-10.4-8.4-11.602-12.901-11.602h-3.7v38.703c0,4.1,1.101,5.1,7.9,6.4v1.5h-9.9
		l-3.6,5.6c4.899,0.9,8.5,3.701,8.5,7.701c0,5.4-5.5,9-13.4,10.1l-0.5-1.6c3.7-1.4,6-3.5,6-6c0-1.9-1.7-3.9-7.2-4.5v-1.602
		l6.4-9.699h-12.101v-1.5c6.9-1.301,7.9-2.301,7.9-6.4v-38.703h-3.601c-4.601,0-8.4,1.201-13.001,11.602h-1.5v-14.801h46.203v14.801
		H1547.923z"/>
	<path fill="#231F20" d="M1768.249,3516.598c-4.501-10.4-8.4-11.602-12.901-11.602h-3.7v38.703c0,4.1,1.101,5.1,7.9,6.4v1.5h-25.801
		v-1.5c6.9-1.301,7.9-2.301,7.9-6.4v-38.703h-3.601c-4.601,0-8.4,1.201-13.001,11.602h-1.5v-14.801h46.203v14.801H1768.249z
		 M1742.247,3576v-18.201h9.501v1.5l-8.001,16.701H1742.247z"/>
	<path fill="#231F20" d="M269.97,3788.496c0-5.799-2.101-7.9-7.9-9.199v-1.5h19.201v1.5c-5,1.299-7.2,3.4-7.2,9.199v20.303
		c0,13.9-8.4,20.4-21.102,20.4c-11.701,0-22.001-4.801-22.001-19.002v-24.602c0-4.1-1-5-6.801-6.299v-1.5h23.701v1.5
		c-5.8,1.299-6.8,2.199-6.8,6.299v21.502c0,12.9,4.7,18.502,14.301,18.502c8.8,0,14.601-5.5,14.601-16.002V3788.496z
		 M245.769,3773.896l-0.7-1.301l13.4-12.801l5.001,5.701v1.398L245.769,3773.896z"/>
	<path fill="#231F20" d="M482.523,3788.496c0-5.799-2.1-7.9-7.9-9.199v-1.5h19.201v1.5c-5,1.299-7.2,3.4-7.2,9.199v20.303
		c0,13.9-8.4,20.4-21.102,20.4c-11.701,0-22.001-4.801-22.001-19.002v-24.602c0-4.1-1-5-6.801-6.299v-1.5h23.701v1.5
		c-5.8,1.299-6.8,2.199-6.8,6.299v21.502c0,12.9,4.7,18.502,14.301,18.502c8.8,0,14.601-5.5,14.601-16.002V3788.496z
		 M454.521,3760.795l1.5-0.1c1.2,3.6,4.9,5.5,9.901,5.5c4.899,0,8.601-1.9,9.8-5.5l1.5,0.1c0,7.5-4,12.201-11.3,12.201
		C458.522,3772.996,454.521,3768.295,454.521,3760.795z"/>
	<path fill="#231F20" d="M695.078,3788.496c0-5.799-2.1-7.9-7.9-9.199v-1.5h19.201v1.5c-5,1.299-7.2,3.4-7.2,9.199v20.303
		c0,13.9-8.4,20.4-21.102,20.4c-11.701,0-22.001-4.801-22.001-19.002v-24.602c0-4.1-1-5-6.801-6.299v-1.5h23.701v1.5
		c-5.8,1.299-6.8,2.199-6.8,6.299v21.502c0,12.9,4.7,18.502,14.301,18.502c8.8,0,14.601-5.5,14.601-16.002V3788.496z
		 M678.377,3768.496l-12.101,4.5l-0.9-1.301l11.101-10.701h3.801l11.2,10.701l-0.899,1.301L678.377,3768.496z"/>
	<path fill="#231F20" d="M907.632,3788.496c0-5.799-2.101-7.9-7.9-9.199v-1.5h19.201v1.5c-5,1.299-7.2,3.4-7.2,9.199v20.303
		c0,13.9-8.4,20.4-21.102,20.4c-11.701,0-22.001-4.801-22.001-19.002v-24.602c0-4.1-1-5-6.801-6.299v-1.5h23.701v1.5
		c-5.8,1.299-6.8,2.199-6.8,6.299v21.502c0,12.9,4.7,18.502,14.301,18.502c8.8,0,14.601-5.5,14.601-16.002V3788.496z
		 M881.63,3771.795c-3.3,0-5.7-2.5-5.7-5.6s2.4-5.6,5.7-5.6c3.4,0,5.801,2.5,5.801,5.6S885.03,3771.795,881.63,3771.795z
		 M900.331,3771.795c-3.3,0-5.7-2.5-5.7-5.6s2.4-5.6,5.7-5.6c3.4,0,5.801,2.5,5.801,5.6S903.731,3771.795,900.331,3771.795z"/>
	<path fill="#231F20" d="M1120.187,3788.496c0-5.799-2.101-7.9-7.9-9.199v-1.5h19.201v1.5c-5,1.299-7.2,3.4-7.2,9.199v20.303
		c0,13.9-8.4,20.4-21.102,20.4c-11.701,0-22.001-4.801-22.001-19.002v-24.602c0-4.1-1-5-6.801-6.299v-1.5h23.701v1.5
		c-5.8,1.299-6.8,2.199-6.8,6.299v21.502c0,12.9,4.7,18.502,14.301,18.502c8.8,0,14.601-5.5,14.601-16.002V3788.496z
		 M1090.385,3773.896l-0.8-1.201l11.4-12.9l5.4,4.9v1.4L1090.385,3773.896z M1104.785,3773.896l-0.899-1.201l11.301-12.9l5.6,4.9
		v1.4L1104.785,3773.896z"/>
	<path fill="#231F20" d="M1332.74,3788.496c0-5.799-2.1-7.9-7.9-9.199v-1.5h19.201v1.5c-5,1.299-7.2,3.4-7.2,9.199v20.303
		c0,13.9-8.4,20.4-21.102,20.4c-11.701,0-22.001-4.801-22.001-19.002v-24.602c0-4.1-1-5-6.801-6.299v-1.5h23.701v1.5
		c-5.8,1.299-6.8,2.199-6.8,6.299v21.502c0,12.9,4.7,18.502,14.301,18.502c8.8,0,14.601-5.5,14.601-16.002V3788.496z
		 M1301.738,3768.396v-4.002h28.102v4.002H1301.738z"/>
	<path fill="#231F20" d="M1545.295,3788.496c0-5.799-2.1-7.9-7.9-9.199v-1.5h19.201v1.5c-5,1.299-7.2,3.4-7.2,9.199v20.303
		c0,9.699-4.101,15.801-10.901,18.6c-4.8,4.602-6.7,9.9-6.7,13.002c0,3.299,2,5.199,5.101,5.199c1.7,0,3.8-0.5,6.101-1.799
		l0.8,1.299c-3.2,3.801-7.501,5.9-11.4,5.9c-5.601,0-8.601-3.4-8.601-7.6c0-4.201,2.8-9.602,10.2-14.701c-1.8,0.301-3.7,0.5-5.7,0.5
		c-11.701,0-22.001-4.801-22.001-19.002v-24.602c0-4.1-1-5-6.801-6.299v-1.5h23.701v1.5c-5.8,1.299-6.8,2.199-6.8,6.299v21.502
		c0,12.9,4.7,18.502,14.301,18.502c8.8,0,14.601-5.5,14.601-16.002V3788.496z"/>
	<path fill="#231F20" d="M1757.849,3788.496c0-5.799-2.101-7.9-7.9-9.199v-1.5h19.201v1.5c-5,1.299-7.2,3.4-7.2,9.199v20.303
		c0,13.9-8.4,20.4-21.102,20.4c-11.701,0-22.001-4.801-22.001-19.002v-24.602c0-4.1-1-5-6.801-6.299v-1.5h23.701v1.5
		c-5.8,1.299-6.8,2.199-6.8,6.299v21.502c0,12.9,4.7,18.502,14.301,18.502c8.8,0,14.601-5.5,14.601-16.002V3788.496z
		 M1741.848,3773.996c-3.601,0-7.601-2.4-7.601-7.102c0-4.699,4-7.1,7.601-7.1s7.601,2.4,7.601,7.1
		C1749.448,3771.596,1745.448,3773.996,1741.848,3773.996z M1741.848,3770.195c1.601,0,3.4-1.1,3.4-3.301
		c0-2.199-1.8-3.299-3.4-3.299c-1.6,0-3.4,1.1-3.4,3.299C1738.447,3769.096,1740.248,3770.195,1741.848,3770.195z"/>
	<path fill="#231F20" d="M269.97,4064.496c0-5.799-2.101-7.9-7.9-9.199v-1.5h19.201v1.5c-5,1.299-7.2,3.4-7.2,9.199v20.303
		c0,13.9-8.4,20.4-21.102,20.4c-11.701,0-22.001-4.801-22.001-19.002v-24.602c0-4.1-1-5-6.801-6.299v-1.5h23.701v1.5
		c-5.8,1.299-6.8,2.199-6.8,6.299v21.502c0,12.9,4.7,18.502,14.301,18.502c8.8,0,14.601-5.5,14.601-16.002V4064.496z
		 M245.568,4044.596c-1.8,0-4.101,1.199-5.301,4.1l-1.399-0.4c1.2-6.199,3.7-10.5,8.4-10.5c4.8,0,9.5,3.801,13.001,3.801
		c1.8,0,4.1-1.201,5.3-4.102l1.4,0.301c-1.3,6.201-3.801,10.602-8.501,10.602S249.068,4044.596,245.568,4044.596z"/>
	<path fill="#231F20" d="M514.733,4104.398l-14.901-34.4h-0.699l-12.102,34.4h-3.399l-17.602-42.803c-1.5-3.898-1.9-5-7.2-6.299
		v-1.5h23.802v1.5c-5.801,1.299-6.201,2.4-4.801,6.299l10.101,27.902h0.6l12.201-36.002h3.4l14.801,36.002h0.7l8.301-25.002
		c1.8-5.5-0.101-7.9-6.001-9.199v-1.5h19.201v1.5c-4.5,1.299-7.3,3.9-9.5,10.4l-13.501,38.701H514.733z M494.732,4049.896
		l-0.7-1.301l13.4-12.801l5.001,5.701v1.398L494.732,4049.896z"/>
	<path fill="#231F20" d="M773.197,4104.398l-14.901-34.4h-0.699l-12.102,34.4h-3.399l-17.602-42.803c-1.5-3.898-1.9-5-7.2-6.299
		v-1.5h23.802v1.5c-5.801,1.299-6.201,2.4-4.801,6.299l10.101,27.902h0.601l12.2-36.002h3.4l14.801,36.002h0.7l8.301-25.002
		c1.8-5.5-0.101-7.9-6.001-9.199v-1.5h19.201v1.5c-4.5,1.299-7.3,3.9-9.5,10.4l-13.501,38.701H773.197z M760.297,4044.496
		l-12.102,4.5l-0.899-1.301l11.101-10.701h3.8l11.201,10.701l-0.9,1.301L760.297,4044.496z"/>
	<path fill="#231F20" d="M1031.66,4104.398l-14.901-34.4h-0.699l-12.102,34.4h-3.399l-17.602-42.803c-1.5-3.898-1.9-5-7.2-6.299
		v-1.5h23.802v1.5c-5.801,1.299-6.201,2.4-4.801,6.299l10.101,27.902h0.601l12.2-36.002h3.4l14.801,36.002h0.7l8.301-25.002
		c1.8-5.5-0.101-7.9-6.001-9.199v-1.5h19.201v1.5c-4.5,1.299-7.3,3.9-9.5,10.4l-13.501,38.701H1031.66z M1009.459,4047.795
		c-3.301,0-5.7-2.5-5.7-5.6s2.399-5.6,5.7-5.6c3.4,0,5.8,2.5,5.8,5.6S1012.859,4047.795,1009.459,4047.795z M1028.16,4047.795
		c-3.301,0-5.7-2.5-5.7-5.6s2.399-5.6,5.7-5.6c3.4,0,5.8,2.5,5.8,5.6S1031.561,4047.795,1028.16,4047.795z"/>
	<path fill="#231F20" d="M1290.123,4104.398l-14.901-34.4h-0.699l-12.102,34.4h-3.399l-17.602-42.803c-1.5-3.898-1.9-5-7.2-6.299
		v-1.5h23.802v1.5c-5.801,1.299-6.201,2.4-4.801,6.299l10.101,27.902h0.601l12.2-36.002h3.4l14.801,36.002h0.7l8.301-25.002
		c1.8-5.5-0.101-7.9-6.001-9.199v-1.5h19.201v1.5c-4.5,1.299-7.3,3.9-9.5,10.4l-13.501,38.701H1290.123z M1265.722,4042.895v-1.398
		l5-5.701l13.401,12.801l-0.7,1.301L1265.722,4042.895z"/>
	<path fill="#231F20" d="M1506.583,4103.6v-1.5c7.401-1.301,8.401-2.301,8.401-6.4v-11.701l-13.901-22.402c-2.2-3.5-3.7-5-7.7-6.299
		v-1.5h23.201v1.5c-5.601,1.299-5.3,2.799-3.3,6.299l9.3,16.102h0.7l6.801-13.201c2.601-5.199,2.1-7.9-3.5-9.199v-1.5h17.801v1.5
		c-4.5,1.299-7.7,4.299-10.9,10.4l-8.4,16.1v13.902c0,4.1,1,5.1,8.4,6.4v1.5H1506.583z M1512.584,4049.896l-0.7-1.301l13.4-12.801
		l5.001,5.701v1.398L1512.584,4049.896z"/>
	<path fill="#231F20" d="M1733.245,4103.6v-1.5c7.401-1.301,8.401-2.301,8.401-6.4v-11.701l-13.901-22.402c-2.2-3.5-3.7-5-7.7-6.299
		v-1.5h23.201v1.5c-5.601,1.299-5.3,2.799-3.3,6.299l9.3,16.102h0.7l6.801-13.201c2.601-5.199,2.1-7.9-3.5-9.199v-1.5h17.801v1.5
		c-4.5,1.299-7.7,4.299-10.9,10.4l-8.4,16.1v13.902c0,4.1,1,5.1,8.4,6.4v1.5H1733.245z M1747.746,4044.496l-12.101,4.5l-0.899-1.301
		l11.101-10.701h3.8l11.201,10.701l-0.9,1.301L1747.746,4044.496z"/>
	<path fill="#231F20" d="M235.367,4379.6v-1.5c7.401-1.301,8.401-2.301,8.401-6.4v-11.701l-13.901-22.402c-2.2-3.5-3.7-5-7.7-6.299
		v-1.5h23.201v1.5c-5.601,1.299-5.3,2.799-3.3,6.299l9.3,16.102h0.7l6.801-13.201c2.6-5.199,2.1-7.9-3.5-9.199v-1.5h17.801v1.5
		c-4.5,1.299-7.7,4.299-10.9,10.4l-8.4,16.1v13.902c0,4.1,1,5.1,8.4,6.4v1.5H235.367z M240.268,4323.795c-3.3,0-5.7-2.5-5.7-5.6
		s2.4-5.6,5.7-5.6c3.4,0,5.801,2.5,5.801,5.6S243.668,4323.795,240.268,4323.795z M258.969,4323.795c-3.3,0-5.7-2.5-5.7-5.6
		s2.4-5.6,5.7-5.6c3.4,0,5.801,2.5,5.801,5.6S262.369,4323.795,258.969,4323.795z"/>
	<path fill="#231F20" d="M437.766,4379.6v-1.5c7.401-1.301,8.401-2.301,8.401-6.4v-11.701l-13.901-22.402c-2.2-3.5-3.7-5-7.7-6.299
		v-1.5h23.201v1.5c-5.601,1.299-5.3,2.799-3.3,6.299l9.3,16.102h0.7l6.801-13.201c2.6-5.199,2.1-7.9-3.5-9.199v-1.5h17.801v1.5
		c-4.5,1.299-7.7,4.299-10.9,10.4l-8.4,16.1v13.902c0,4.1,1,5.1,8.4,6.4v1.5H437.766z M440.767,4318.895v-1.398l5-5.701l13.4,12.801
		l-0.699,1.301L440.767,4318.895z"/>
	<path fill="#231F20" d="M628.564,4379.6v-1.5l27.302-44.604v-0.6h-10.9c-4.301,0-8.801,1.301-13.301,11.701h-1.5v-14.801h38.502
		v1.5l-27.401,44.602v0.6h11.7c4.301,0,8.901-1.5,13.301-12.5h1.501v15.602H628.564z M641.966,4325.896l-0.7-1.301l13.4-12.801
		l5.001,5.701v1.398L641.966,4325.896z"/>
	<path fill="#231F20" d="M825.266,4379.6v-1.5l27.302-44.604v-0.6h-10.9c-4.301,0-8.801,1.301-13.301,11.701h-1.5v-14.801h38.502
		v1.5l-27.401,44.602v0.6h11.7c4.301,0,8.901-1.5,13.301-12.5h1.501v15.602H825.266z M857.368,4312.695l0.899,1.199l-11.2,10.701
		h-3.801l-11.101-10.701l0.9-1.199l12.101,4.5L857.368,4312.695z"/>
	<path fill="#231F20" d="M1021.967,4379.6v-1.5l27.302-44.604v-0.6h-10.9c-4.301,0-8.801,1.301-13.301,11.701h-1.5v-14.801h38.502
		v1.5l-27.401,44.602v0.6h11.7c4.301,0,8.901-1.5,13.301-12.5h1.501v15.602H1021.967z M1041.868,4323.795c-3.3,0-5.7-2.5-5.7-5.6
		s2.4-5.6,5.7-5.6c3.4,0,5.801,2.5,5.801,5.6S1045.269,4323.795,1041.868,4323.795z"/>
	<path fill="#231F20" d="M1247.67,4379.6v-1.5c5.801-1.301,6.801-2.301,6.801-6.4v-7.602h-19.401l-3.2,4.701
		c-3.4,5-3.101,8,2.7,9.301v1.5h-19.201v-1.5c4.3-1.301,8.801-4.701,12.7-10.4l26.402-37.902h32.702v11.801h-1.601
		c-5.5-8.301-9.9-8.701-15.301-8.701h-5.7v18.801h3.8c5.101,0,7.501-0.9,10.801-7.4h1.601v17.9h-1.601c-3.3-6.6-5.7-7.5-10.801-7.5
		h-3.8v21.801h5.7c5.4,0,9.801-0.398,15.301-10.299h1.601v13.4H1247.67z M1237.069,4361.098h17.401v-24.4h-0.601L1237.069,4361.098z
		 M1257.371,4325.896l-0.7-1.301l13.4-12.801l5,5.701v1.398L1257.371,4325.896z"/>
</g>
</svg>
