<?xml version="1.0" encoding="utf-8"?>
<!-- Generator: Adobe Illustrator 16.0.3, SVG Export Plug-In . SVG Version: 6.00 Build 0)  -->
<!DOCTYPE svg PUBLIC "-//W3C//DTD SVG 1.1//EN" "http://www.w3.org/Graphics/SVG/1.1/DTD/svg11.dtd">
<svg version="1.1" id="Layer_1" xmlns="http://www.w3.org/2000/svg" xmlns:xlink="http://www.w3.org/1999/xlink" x="0px" y="0px"
	 width="2007.464px" height="4857.652px" viewBox="0 0 2007.464 4857.652" enable-background="new 0 0 2007.464 4857.652"
	 xml:space="preserve">
<rect fill="#FFFFFF" width="2007.464" height="4857.652"/>
<g>
	<path d="M252.37,243.646l-6.301-18.102h-26.602l-5.9,18.102h-11.101l24.602-70.004h12.101l25.702,70.004H252.37z M222.268,216.845
		h20.802l-6.101-17.501l-4.6-14.9l-4.4,14.9L222.268,216.845z"/>
	<path d="M459.264,243.646v-70.004h22.701c12.201,0,24.802,4,24.802,17.801c0,7.101-4.601,13.701-11.2,15.601
		c7.9,1.4,14.101,6.2,14.101,16.001c0,13.701-11.201,20.602-25.502,20.602H459.264z M481.965,204.044
		c7.701,0,13.001-3.8,13.001-11.7c0-7.801-5.4-10.001-13.001-10.001h-11.101v21.701H481.965z M484.165,234.946
		c9.101,0,13.602-4.2,13.602-11.901c0-7.9-5.9-10.5-13.602-10.5h-13.301v22.401H484.165z"/>
	<path d="M762.062,220.445c-1.9,16.9-12.601,24.701-27.702,24.701c-19.901,0-30.302-14.4-30.302-36.502s12.001-36.502,30.302-36.502
		c15.102,0,25.802,7.8,27.702,24.701h-12.601c-1.301-11.001-6.501-15.801-15.102-15.801c-10.2,0-17.901,9.101-17.901,27.602
		s6.801,27.602,17.901,27.602c8.601,0,13.801-4.801,15.102-15.801H762.062z"/>
	<path d="M959.854,243.646v-70.004h22.001c21.502,0,35.803,12.9,35.803,35.002s-14.301,35.002-35.803,35.002H959.854z
		 M981.855,234.746c13.501,0,23.502-7.601,23.502-26.102s-10.001-26.102-23.502-26.102h-10.4v52.203H981.855z"/>
	<path d="M1215.752,243.646v-70.004h41.803v8.9h-30.202v19.801h28.202v8.9h-28.202v23.502h30.202v8.9H1215.752z"/>
	<path d="M1456.247,243.646v-70.004h40.803v8.9h-29.202v21.901h27.202v8.9h-27.202v30.302H1456.247z"/>
	<path d="M1734.547,216.945h-15.601v-8.601h26.802v35.302h-11.201v-6.7c-4.2,4.6-11.9,8.2-19.001,8.2
		c-17.601,0-27.302-14.101-27.302-36.502c0-22.102,12.001-36.502,30.602-36.502c14.701,0,24.802,7.6,26.902,23.101h-12.602
		c-1.399-9.7-6.1-14.2-14.301-14.2c-10.5,0-18.201,9.101-18.201,27.602c0,18.801,8.101,27.701,18.102,27.701
		c6.101,0,12.101-3.1,15.801-6.8V216.945z"/>
	<path d="M254.67,519.646v-32.402h-33.202v32.402h-11.601v-70.004h11.601v28.701h33.202v-28.701h11.601v70.004H254.67z"/>
	<path d="M469.463,519.646v-70.004h11.601v70.004H469.463z"/>
	<path d="M714.462,449.643h11.501v48.803c0,16.101-11.602,22.701-23.402,22.701c-13.101,0-23.201-6-23.701-24.401h12.001
		c0.4,11.801,4.5,15.701,11.7,15.701c7.601,0,11.901-3.9,11.901-12.001V449.643z"/>
	<path d="M928.156,519.646v-70.004h11.601v32.701l24.502-32.701h12.001l-25.002,32.302l28.802,37.702h-14.201l-26.102-35.702v35.702
		H928.156z"/>
	<path d="M1177.253,519.646v-70.004h11.601v61.104h27.002v8.9H1177.253z"/>
	<path d="M1474.053,519.646v-37.002l0.2-12.901l-18.401,45.903h-10.601l-19.201-47.003l0.2,14.2v36.803h-10.501v-70.004h12.701
		l22.501,54.503l22.502-54.503h11.601v70.004H1474.053z"/>
	<path d="M1731.648,519.646l-33.102-52.903l0.3,14.201v38.702h-10.601v-70.004h11.701l33.102,52.903l-0.3-14.201v-38.702h10.601
		v70.004H1731.648z"/>
	<path d="M206.167,760.645c0-22.102,12.601-36.502,32.402-36.502c19.801,0,32.302,14.4,32.302,36.502s-12.501,36.502-32.302,36.502
		C218.768,797.146,206.167,782.746,206.167,760.645z M258.57,760.645c0-18.501-8.2-27.602-20.001-27.602
		s-20.002,9.101-20.002,27.602s8.201,27.602,20.002,27.602S258.57,779.146,258.57,760.645z"/>
	<path d="M466.03,795.646v-70.004h22.602c12.9,0,25.401,7.2,25.401,22.801c0,15.602-12.501,22.701-25.401,22.701h-11.001v24.502
		H466.03z M488.632,762.444c7.7,0,13.601-4.4,13.601-14.001s-5.9-14.101-13.601-14.101h-11.001v28.102H488.632z"/>
	<path d="M751.396,810.747l-12.501-13.7c-1,0.1-2,0.1-3,0.1c-19.802,0-32.402-14.4-32.402-36.502s12.601-36.502,32.402-36.502
		c19.801,0,32.302,14.4,32.302,36.502c0,16.101-6.7,28.102-17.901,33.502l15.701,16.601H751.396z M735.896,788.246
		c11.801,0,20.001-9.101,20.001-27.602s-8.2-27.602-20.001-27.602s-20.002,9.101-20.002,27.602S724.095,788.246,735.896,788.246z"/>
	<path d="M992.059,797.146c-19.802,0-32.402-14.4-32.402-36.502s12.601-36.502,32.402-36.502c19.801,0,32.302,14.4,32.302,36.502
		S1011.859,797.146,992.059,797.146z M992.059,788.246c11.801,0,20.001-9.101,20.001-27.602s-8.2-27.602-20.001-27.602
		s-20.002,9.101-20.002,27.602S980.258,788.246,992.059,788.246z M979.058,810.147v-8.9h36.902v8.9H979.058z"/>
	<path d="M1257.021,795.646l-17.2-26.802h-8.701v26.802h-11.601v-70.004h22.102c12.9,0,25.401,6.2,25.401,21.601
		c0,11.501-6.9,17.802-15.701,20.302l19.401,28.102H1257.021z M1241.621,760.345c7.7,0,13.601-3.501,13.601-13.102
		c0-9.4-5.9-12.9-13.601-12.9h-10.501v26.002H1241.621z"/>
	<path d="M1498.886,745.644c-0.7-9.301-5.701-12.801-13.802-12.801c-7.4,0-13,3.2-13,10.301c0,9.101,8,10.4,16.501,12.2
		c10.4,2.2,23.201,4.7,23.201,20.002c0,12.801-11.501,21.801-25.102,21.801c-16.101,0-26.201-7.301-26.802-22.401h12.101
		c0.8,10.301,6.601,13.701,14.701,13.701c7.4,0,13.801-3.801,13.801-11.601c0-9.101-8.4-10.401-16.901-12.201
		c-10.4-2.3-22.901-5-22.901-20.201c0-12.301,10.301-20.301,24.401-20.301c16.201,0,25.202,7.4,26.002,21.501H1498.886z"/>
	<path d="M1718.347,795.646v-61.104h-18.802v-8.9h49.203v8.9h-18.801v61.104H1718.347z"/>
	<path d="M253.37,1001.643h10.501v45.002c0,17.102-10.701,26.502-27.302,26.502c-16.602,0-27.702-8.4-27.702-24.501v-47.003h11.601
		v45.002c0,11.301,4.301,17.602,16.102,17.602s16.801-6.301,16.801-15.601V1001.643z"/>
	<path d="M474.064,1071.646l-25.401-70.004h12.501l15.001,43.103l4.6,14.9l4.501-14.9l14.001-43.103h11.2l-24.302,70.004H474.064z"
		/>
	<path d="M748.764,1071.646l-11.101-40.103l-3.7-15.101l-3.6,15.101l-10.801,40.103h-12.102l-19.301-70.004h12.4l10.401,41.502
		l3.399,14.901l3.501-14.901l10.801-41.502h12l11.201,41.502l3.6,15.201l3.2-15.201l9.501-41.502h10.9l-18.201,70.004H748.764z"/>
	<path d="M1000.858,1071.646l-16.4-27.302l-15.802,27.302h-11.2l21.602-35.502l-21.201-34.502h12.7l14.901,25.001l14.4-25.001
		h11.201l-20.201,33.201l22.601,36.803H1000.858z"/>
	<path d="M1215.454,1071.646v-25.502l-22.201-44.502h12.501l16.501,35.302l15.501-35.302h10.601l-21.302,44.502v25.502H1215.454z"/>
	<path d="M1430.45,1071.646v-8.9l33.103-52.203h-32.402v-8.9h45.403v8.9l-33.103,52.203h33.103v8.9H1430.45z"/>
	<path d="M1704.549,1071.646v-18.102h-23.201l-11.701,18.102h-12.7l47.003-70.004h42.502v8.9h-30.302v19.801h28.302v8.9h-28.302
		v23.502h30.302v8.9H1704.549z M1686.948,1044.845h17.601v-27.802l-8.101,13.101L1686.948,1044.845z"/>
	<path d="M220.168,1294.743l0.3,14.201v38.702h-10.601v-70.004h11.701l33.102,52.903l-0.3-14.201v-38.702h10.601v70.004
		c0,17.301-11.301,22.302-22.602,22.302c-2.1,0-6-0.601-8.2-1.7v-8.201c2.6,0.801,6,1.2,8.2,1.2c7.001,0,11.801-2.399,11.801-12.301
		L220.168,1294.743z"/>
	<path d="M452.28,1347.646v-39.902c0-21.602,10.9-30.502,27.502-30.502h24.102v8.801l-15.102,22.001
		c15.802,3.101,19.201,14.701,19.201,21.501c0,13.301-10.3,19.602-20.501,19.602c-11.501,0-18.301-5.8-18.601-15.201h11.601
		c0.399,4.801,3,6.9,7.3,6.9c4.801,0,8.4-3.1,8.4-10.7c0-7.7-5.3-14.001-16.2-14.001h-3.001v-8.9l14.602-21.201h-11.801
		c-9.801,0-15.901,5.6-15.901,20.701v40.902H452.28z"/>
	<path d="M690.893,1347.646v-30.302h-10.4v-8.9h10.4v-30.802h22.002c21.501,0,35.802,12.9,35.802,35.002
		s-14.301,35.002-35.802,35.002H690.893z M712.895,1338.746c13.5,0,23.501-7.601,23.501-26.102s-10.001-26.102-23.501-26.102
		h-10.401v21.901h14.701v8.9h-14.701v21.401H712.895z"/>
	<path d="M932.307,1347.646v-70.004h11.601v70.004H932.307z M990.811,1277.643h11.5v48.803c0,16.101-11.601,22.701-23.401,22.701
		c-13.101,0-23.201-6-23.701-24.401h12.001c0.4,11.801,4.5,15.701,11.7,15.701c7.601,0,11.901-3.9,11.901-12.001V1277.643z"/>
	<path d="M1221.722,1347.646c-21.401,0-35.802-12.9-35.802-35.002s14.4-35.002,35.802-35.002h49.503v8.9h-30.302v19.801h28.302v8.9
		h-28.302v23.502h30.302v8.9H1221.722z M1229.422,1286.543h-7.7c-13.4,0-23.401,7.601-23.401,26.102s10.001,26.102,23.401,26.102
		h7.7V1286.543z"/>
	<path d="M1454.332,1356.647l8.3-15.302c-7-6.3-10.9-16.301-10.9-28.701c0-22.102,12.601-36.502,32.402-36.502
		c4.6,0,8.8,0.8,12.601,2.3l5.3-9.801h11.901l-8.301,15.401c6.9,6.3,10.801,16.301,10.801,28.602
		c0,22.102-12.501,36.502-32.302,36.502c-4.601,0-8.9-0.8-12.601-2.2l-5.301,9.701H1454.332z M1468.133,1331.146l24.102-44.402
		c-2.501-1.101-5.201-1.7-8.101-1.7c-11.801,0-20.002,9.101-20.002,27.602C1464.132,1320.545,1465.532,1326.646,1468.133,1331.146z
		 M1504.135,1312.645c0-7.801-1.5-13.901-4.101-18.401l-24.001,44.303c2.4,1.2,5.101,1.7,8.101,1.7
		C1495.935,1340.246,1504.135,1331.146,1504.135,1312.645z"/>
	<path d="M1700.045,1347.646v-70.004h11.601v11.301h11.001c12.9,0,25.401,7.1,25.401,22.701c0,15.601-12.501,22.801-25.401,22.801
		h-11.001v13.201H1700.045z M1722.646,1325.646c7.7,0,13.601-4.4,13.601-14.001s-5.9-14.001-13.601-14.001h-11.001v28.002H1722.646z
		"/>
	<path d="M252.37,1623.646l-6.301-18.102h-26.602l-5.9,18.102h-11.101l24.602-70.004h12.101l25.702,70.004H252.37z
		 M232.068,1548.441h-9.801l13.201-14.101h14.701L232.068,1548.441z M222.268,1596.845h20.802l-6.101-17.501l-4.6-14.9l-4.4,14.9
		L222.268,1596.845z"/>
	<path d="M500.016,1623.646l-6.301-18.102h-26.602l-5.9,18.102h-11.101l24.602-70.004h12.101l25.702,70.004H500.016z
		 M496.215,1534.341c0,10.101-6.8,15.102-15.601,15.102s-15.701-5.001-15.701-15.102h7.7c0,3.7,2.501,6.601,8.001,6.601
		c5.4,0,7.9-2.9,7.9-6.601H496.215z M469.914,1596.845h20.801l-6.101-17.501l-4.6-14.9l-4.4,14.9L469.914,1596.845z"/>
	<path d="M747.662,1623.646l-6.301-18.102H714.76l-5.9,18.102h-11.101l24.602-70.004h12.101l25.702,70.004H747.662z
		 M737.961,1548.441l-9.8-6.6l-9.701,6.6h-10.4l14.801-14.101h10.601l14.901,14.101H737.961z M717.561,1596.845h20.801
		l-6.101-17.501l-4.6-14.9l-4.4,14.9L717.561,1596.845z"/>
	<path d="M995.308,1623.646l-6.301-18.102h-26.602l-5.9,18.102h-11.101l24.602-70.004h12.101l25.702,70.004H995.308z
		 M965.006,1547.342c-3.801,0-6.801-2.8-6.801-6.5s3-6.601,6.801-6.601c3.7,0,6.7,2.9,6.7,6.601S968.706,1547.342,965.006,1547.342z
		 M965.205,1596.845h20.802l-6.101-17.501l-4.6-14.9l-4.4,14.9L965.205,1596.845z M986.707,1547.342c-3.801,0-6.801-2.8-6.801-6.5
		s3-6.601,6.801-6.601c3.8,0,6.8,2.9,6.8,6.601S990.507,1547.342,986.707,1547.342z"/>
	<path d="M1242.954,1623.646l-6.301-18.102h-26.602l-5.9,18.102h-11.101l24.602-70.004h12.101l25.702,70.004H1242.954z
		 M1224.353,1548.441l-18.101-14.101h14.7l13.201,14.101H1224.353z M1212.852,1596.845h20.802l-6.101-17.501l-4.6-14.9l-4.4,14.9
		L1212.852,1596.845z"/>
	<path d="M1490.6,1623.646l-6.301-18.102h-26.602l-5.9,18.102h-11.101l24.602-70.004h12.101l25.702,70.004H1490.6z
		 M1454.897,1545.242v-7.801h32.502v7.801H1454.897z M1460.498,1596.845h20.801l-6.101-17.501l-4.6-14.9l-4.4,14.9
		L1460.498,1596.845z"/>
	<path d="M1750.646,1646.048c-2.3,1.3-5.9,2.4-10,2.4c-6.801,0-10.901-4.4-10.901-10.001c0-5.8,3.801-10.7,11.101-14.801h-2.6
		l-6.301-18.102h-26.602l-5.9,18.102h-11.101l24.602-70.004h12.101l25.702,70.004h-0.101c-7.9,4.101-11.9,8.2-11.9,13.301
		c0,3,2.4,4.7,4.8,4.7c2.301,0,4.801-0.9,7.101-2.1V1646.048z M1708.145,1596.845h20.801l-6.101-17.501l-4.6-14.9l-4.4,14.9
		L1708.145,1596.845z"/>
	<path d="M252.37,1899.646l-6.301-18.102h-26.602l-5.9,18.102h-11.101l24.602-70.004h12.101l25.702,70.004H252.37z M251.67,1813.541
		c-2.5,6.7-7,9.9-11.4,9.9c-5.501,0-11.501-4.5-14.801-4.5c-1.9,0-3.701,0.9-5.301,4.101l-6-2.801c2.6-6.7,7.1-9.9,11.4-9.9
		c5.5,0,11.601,4.501,14.801,4.501c1.8,0,3.7-0.9,5.301-4.101L251.67,1813.541z M222.268,1872.845h20.802l-6.101-17.501l-4.6-14.9
		l-4.4,14.9L222.268,1872.845z"/>
	<path d="M506.318,1876.445c-1.9,16.9-12.601,24.701-27.702,24.701c-19.901,0-30.302-14.4-30.302-36.502
		s12.001-36.502,30.302-36.502c15.102,0,25.802,7.8,27.702,24.701h-12.601c-1.301-11.001-6.501-15.801-15.102-15.801
		c-10.2,0-17.901,9.101-17.901,27.602s6.801,27.602,17.901,27.602c8.601,0,13.801-4.801,15.102-15.801H506.318z M475.017,1824.441
		h-9.801l13.2-14.101h14.701L475.017,1824.441z"/>
	<path d="M753.764,1876.445c-1.9,16.9-12.601,24.701-27.702,24.701c-19.901,0-30.302-14.4-30.302-36.502
		s12.001-36.502,30.302-36.502c15.102,0,25.802,7.8,27.702,24.701h-12.601c-1.301-11.001-6.501-15.801-15.102-15.801
		c-10.2,0-17.901,9.101-17.901,27.602s6.801,27.602,17.901,27.602c8.601,0,13.801-4.801,15.102-15.801H753.764z M729.962,1824.441
		h-10.601l-14.801-14.101h10.4l9.701,6.601l9.8-6.601h10.401L729.962,1824.441z"/>
	<path d="M962.508,1917.447c2.199,1,4.399,1.301,6.4,1.301c2.399,0,5.2-1.2,5.2-3.9s-2.801-3.801-5.2-3.801
		c-1.001,0-2.7,0.2-4.001,0.601l-2.1-3.601l5.4-7.301c-16.501-2.3-25.002-16.001-25.002-36.102
		c0-22.102,12.001-36.502,30.302-36.502c15.102,0,25.802,7.8,27.702,24.701h-12.601c-1.301-11.001-6.501-15.801-15.102-15.801
		c-10.2,0-17.901,9.101-17.901,27.602s6.801,27.602,17.901,27.602c8.601,0,13.801-4.801,15.102-15.801h12.601
		c-1.9,16.4-12.001,24.201-26.302,24.701l-3.801,5c5.701-0.399,11.201,2.2,11.201,8.401c0,6.5-6.101,9.9-12.601,9.9
		c-2.5,0-4.9-0.3-7.2-1.4V1917.447z"/>
	<path d="M1248.655,1876.445c-1.9,16.9-12.601,24.701-27.702,24.701c-19.901,0-30.302-14.4-30.302-36.502
		s12.001-36.502,30.302-36.502c15.102,0,25.802,7.8,27.702,24.701h-12.601c-1.301-11.001-6.501-15.801-15.102-15.801
		c-10.2,0-17.901,9.101-17.901,27.602s6.801,27.602,17.901,27.602c8.601,0,13.801-4.801,15.102-15.801H1248.655z M1229.354,1824.441
		l-9.801-6.6l-9.7,6.6h-10.4l14.801-14.101h10.601l14.901,14.101H1229.354z"/>
	<path d="M1496.101,1876.445c-1.9,16.9-12.601,24.701-27.702,24.701c-19.901,0-30.302-14.4-30.302-36.502
		s12.001-36.502,30.302-36.502c15.102,0,25.802,7.8,27.702,24.701H1483.5c-1.301-11.001-6.501-15.801-15.102-15.801
		c-10.2,0-17.901,9.101-17.901,27.602s6.801,27.602,17.901,27.602c8.601,0,13.801-4.801,15.102-15.801H1496.101z M1466.998,1823.542
		c-3.8,0-6.9-2.9-6.9-6.7c0-3.801,3.101-6.701,6.9-6.701c3.9,0,7.001,2.9,7.001,6.701
		C1473.999,1820.642,1470.898,1823.542,1466.998,1823.542z"/>
	<path d="M1689.242,1899.646v-70.004h22.002c21.501,0,35.802,12.9,35.802,35.002s-14.301,35.002-35.802,35.002H1689.242z
		 M1716.444,1824.441h-10.601l-14.802-14.101h10.401l9.7,6.601l9.801-6.601h10.4L1716.444,1824.441z M1711.244,1890.746
		c13.5,0,23.501-7.601,23.501-26.102s-10.001-26.102-23.501-26.102h-10.401v52.203H1711.244z"/>
	<path d="M209.867,2175.646v-30.302h-10.4v-8.9h10.4v-30.802h22.002c21.501,0,35.802,12.9,35.802,35.002
		s-14.301,35.002-35.802,35.002H209.867z M231.869,2166.746c13.5,0,23.501-7.601,23.501-26.102s-10.001-26.102-23.501-26.102
		h-10.401v21.901h14.701v8.9h-14.701v21.401H231.869z"/>
	<path d="M471.831,2175.646v-70.004h41.803v8.9h-30.202v19.801h28.202v8.9h-28.202v23.502h30.202v8.9H471.831z M490.832,2100.441
		h-9.801l13.201-14.101h14.701L490.832,2100.441z"/>
	<path d="M718.394,2175.646v-70.004h41.803v8.9h-30.202v19.801h28.202v8.9h-28.202v23.502h30.202v8.9H718.394z M754.896,2086.341
		c0,10.101-6.8,15.102-15.601,15.102s-15.701-5.001-15.701-15.102h7.701c0,3.7,2.5,6.601,8,6.601c5.4,0,7.9-2.9,7.9-6.601H754.896z"
		/>
	<path d="M964.956,2175.646v-70.004h41.803v8.9h-30.202v19.801h28.202v8.9h-28.202v23.502h30.202v8.9H964.956z M991.158,2100.441
		h-10.602l-14.801-14.101h10.401l9.7,6.601l9.801-6.601h10.4L991.158,2100.441z"/>
	<path d="M1211.52,2175.646v-70.004h41.803v8.9h-30.202v19.801h28.202v8.9h-28.202v23.502h30.202v8.9H1211.52z M1221.521,2099.342
		c-3.801,0-6.801-2.8-6.801-6.5s3-6.601,6.801-6.601c3.7,0,6.7,2.9,6.7,6.601S1225.221,2099.342,1221.521,2099.342z
		 M1243.222,2099.342c-3.801,0-6.801-2.8-6.801-6.5s3-6.601,6.801-6.601c3.8,0,6.801,2.9,6.801,6.601
		S1247.021,2099.342,1243.222,2099.342z"/>
	<path d="M1458.082,2175.646v-70.004h41.803v8.9h-30.202v19.801h28.202v8.9h-28.202v23.502h30.202v8.9H1458.082z M1478.884,2099.542
		c-3.801,0-6.9-2.9-6.9-6.7c0-3.801,3.1-6.701,6.9-6.701c3.899,0,7,2.9,7,6.701
		C1485.884,2096.642,1482.783,2099.542,1478.884,2099.542z"/>
	<path d="M1704.645,2175.646v-70.004h41.803v8.9h-30.202v19.801h28.202v8.9h-28.202v23.502h30.202v8.9H1704.645z M1724.946,2100.441
		l-18.102-14.101h14.701l13.2,14.101H1724.946z"/>
	<path d="M209.867,2451.646v-70.004h41.803v8.9h-30.202v19.801h28.202v8.9h-28.202v23.502h30.202v8.9H209.867z M214.468,2373.242
		v-7.801h32.502v7.801H214.468z"/>
	<path d="M489.383,2474.048c-2.3,1.3-5.9,2.4-10.001,2.4c-6.8,0-10.9-4.4-10.9-10.001c0-5.8,3.8-10.7,11.101-14.801H447.58v-70.004
		h41.803v8.9h-30.202v19.801h28.202v8.9h-28.202v23.502h30.202v8.9c-7.9,4.101-11.9,8.2-11.9,13.301c0,3,2.399,4.7,4.8,4.7
		c2.3,0,4.801-0.9,7.101-2.1V2474.048z"/>
	<path d="M727.896,2424.945h-15.601v-8.601h26.802v35.302h-11.201v-6.7c-4.2,4.6-11.9,8.2-19.001,8.2
		c-17.602,0-27.302-14.101-27.302-36.502c0-22.102,12.001-36.502,30.602-36.502c14.701,0,24.802,7.6,26.902,23.101h-12.601
		c-1.4-9.7-6.101-14.2-14.302-14.2c-10.5,0-18.201,9.101-18.201,27.602c0,18.801,8.101,27.701,18.102,27.701
		c6.101,0,12.101-3.1,15.801-6.8V2424.945z M726.296,2362.341c0,10.101-6.801,15.102-15.602,15.102c-8.8,0-15.7-5.001-15.7-15.102
		h7.7c0,3.7,2.5,6.601,8,6.601c5.4,0,7.9-2.9,7.9-6.601H726.296z"/>
	<path d="M978.309,2424.945h-15.601v-8.601h26.802v35.302h-11.201v-6.7c-4.2,4.6-11.9,8.2-19.001,8.2
		c-17.601,0-27.302-14.101-27.302-36.502c0-22.102,12.001-36.502,30.602-36.502c14.701,0,24.802,7.6,26.902,23.101h-12.602
		c-1.399-9.7-6.1-14.2-14.301-14.2c-10.5,0-18.201,9.101-18.201,27.602c0,18.801,8.101,27.701,18.102,27.701
		c6.101,0,12.101-3.1,15.801-6.8V2424.945z M970.809,2376.441l-9.801-6.6l-9.701,6.6h-10.4l14.801-14.101h10.601l14.901,14.101
		H970.809z"/>
	<path d="M1228.722,2424.945h-15.601v-8.601h26.802v35.302h-11.201v-6.7c-4.2,4.6-11.9,8.2-19.001,8.2
		c-17.602,0-27.302-14.101-27.302-36.502c0-22.102,12.001-36.502,30.602-36.502c14.701,0,24.802,7.6,26.902,23.101h-12.601
		c-1.4-9.7-6.101-14.2-14.302-14.2c-10.5,0-18.201,9.101-18.201,27.602c0,18.801,8.101,27.701,18.102,27.701
		c6.101,0,12.101-3.1,15.801-6.8V2424.945z M1206.12,2476.448l2.001-18.602h10.2l-4.5,18.602H1206.12z"/>
	<path d="M1479.135,2424.945h-15.601v-8.601h26.802v35.302h-11.201v-6.7c-4.2,4.6-11.9,8.2-19.001,8.2
		c-17.601,0-27.302-14.101-27.302-36.502c0-22.102,12.001-36.502,30.602-36.502c14.701,0,24.802,7.6,26.902,23.101h-12.602
		c-1.399-9.7-6.1-14.2-14.301-14.2c-10.5,0-18.201,9.101-18.201,27.602c0,18.801,8.101,27.701,18.102,27.701
		c6.101,0,12.101-3.1,15.801-6.8V2424.945z M1461.534,2375.542c-3.801,0-6.9-2.9-6.9-6.7c0-3.801,3.1-6.701,6.9-6.701
		c3.9,0,7,2.9,7,6.701C1468.534,2372.642,1465.435,2375.542,1461.534,2375.542z"/>
	<path d="M1731.748,2451.646v-30.902h-33.202v30.902h-11.601v-50.703h-7.7v-8.9h7.7v-10.4h11.601v10.4h33.202v-10.4h11.601v10.4
		h7.701v8.9h-7.701v50.703H1731.748z M1731.748,2411.844v-10.9h-33.202v10.9H1731.748z"/>
	<path d="M254.67,2727.646v-32.402h-33.202v32.402h-11.601v-70.004h11.601v28.701h33.202v-28.701h11.601v70.004H254.67z
		 M247.77,2652.441l-9.801-6.6l-9.7,6.6h-10.4l14.801-14.101h10.601l14.9,14.101H247.77z"/>
	<path d="M471.678,2652.441h-9.8l13.2-14.101h14.701L471.678,2652.441z M465.678,2727.646v-70.004h11.601v70.004H465.678z"/>
	<path d="M698.09,2638.341c0,10.101-6.801,15.102-15.601,15.102c-8.801,0-15.701-5.001-15.701-15.102h7.7
		c0,3.7,2.5,6.601,8.001,6.601c5.4,0,7.9-2.9,7.9-6.601H698.09z M676.688,2727.646v-70.004h11.601v70.004H676.688z"/>
	<path d="M903.301,2652.441l-9.801-6.6l-9.701,6.6h-10.4l14.801-14.101H898.8l14.901,14.101H903.301z M887.699,2727.646v-70.004
		H899.3v70.004H887.699z"/>
	<path d="M1096.311,2651.342c-3.7,0-6.7-2.8-6.7-6.5s3-6.601,6.7-6.601c3.801,0,6.801,2.9,6.801,6.601
		S1100.111,2651.342,1096.311,2651.342z M1098.711,2727.646v-70.004h11.601v70.004H1098.711z M1112.612,2651.342
		c-3.801,0-6.801-2.8-6.801-6.5s3-6.601,6.801-6.601c3.7,0,6.8,2.9,6.8,6.601S1116.312,2651.342,1112.612,2651.342z"/>
	<path d="M1315.422,2651.542c-3.8,0-6.9-2.9-6.9-6.7c0-3.801,3.101-6.701,6.9-6.701c3.9,0,7.001,2.9,7.001,6.701
		C1322.423,2648.642,1319.322,2651.542,1315.422,2651.542z M1309.722,2727.646v-70.004h11.601v70.004H1309.722z"/>
	<path d="M1523.633,2652.441l-18.102-14.101h14.701l13.201,14.101H1523.633z M1520.732,2727.646v-70.004h11.601v70.004H1520.732z"/>
	<path d="M1724.943,2649.242v-7.801h25.101v7.801H1724.943z M1731.743,2727.646v-70.004h11.601v70.004H1731.743z"/>
	<path d="M221.468,3026.048c-2.3,1.3-5.9,2.4-10,2.4c-6.801,0-10.901-4.4-10.901-10.001c0-5.8,3.801-10.7,11.101-14.801h-1.8
		v-70.004h11.601v70.004c-7.9,4.101-11.9,8.2-11.9,13.301c0,3,2.4,4.7,4.8,4.7c2.301,0,4.801-0.9,7.101-2.1V3026.048z"/>
	<path d="M429.279,2917.541c-2.5,6.7-7,9.9-11.4,9.9c-5.501,0-11.501-4.5-14.801-4.5c-1.9,0-3.7,0.9-5.301,4.101l-6-2.801
		c2.6-6.7,7.101-9.9,11.4-9.9c5.5,0,11.601,4.501,14.801,4.501c1.8,0,3.7-0.9,5.301-4.101L429.279,2917.541z M404.678,3003.646
		v-70.004h11.601v70.004H404.678z"/>
	<path d="M629.691,2933.643h11.501v48.803c0,16.101-11.602,22.701-23.402,22.701c-13.101,0-23.201-6-23.701-24.401h12.001
		c0.4,11.801,4.5,15.701,11.7,15.701c7.601,0,11.901-3.9,11.901-12.001V2933.643z M645.192,2928.441l-9.801-6.6l-9.7,6.6H615.29
		l14.801-14.101h10.601l14.901,14.101H645.192z"/>
	<path d="M823.4,3003.646v-70.004h11.601v32.701l24.502-32.701h12.001l-25.002,32.302l28.802,37.702h-14.201l-26.102-35.702v35.702
		H823.4z M837.501,3028.448l2.001-18.602h10.2l-4.5,18.602H837.501z"/>
	<path d="M1058.512,2928.441h-9.8l13.2-14.101h14.701L1058.512,2928.441z M1052.512,3003.646v-70.004h11.601v61.104h27.002v8.9
		H1052.512z"/>
	<path d="M1271.023,3003.646v-70.004h11.601v61.104h27.002v8.9H1271.023z M1288.225,2945.943v-22.602h9.9l-2.2,22.602H1288.225z"/>
	<path d="M1489.534,3003.646v-70.004h11.601v61.104h27.002v8.9H1489.534z M1501.035,3028.448l2-18.602h10.2l-4.5,18.602H1501.035z"
		/>
	<path d="M1708.045,3003.646v-70.004h11.601v61.104h27.002v8.9H1708.045z M1734.247,2974.345c-4.101,0-7.201-3-7.201-7.2
		s3.101-7.201,7.201-7.201c4.1,0,7.2,3.001,7.2,7.201S1738.347,2974.345,1734.247,2974.345z"/>
	<path d="M253.27,3279.646l-33.102-52.903l0.3,14.201v38.702h-10.601v-70.004h11.701l33.102,52.903l-0.3-14.201v-38.702h10.601
		v70.004H253.27z M236.569,3204.441h-9.801l13.2-14.101h14.701L236.569,3204.441z"/>
	<path d="M498.565,3279.646l-33.102-52.903l0.3,14.201v38.702h-10.601v-70.004h11.701l33.102,52.903l-0.3-14.201v-38.702h10.601
		v70.004H498.565z M487.965,3204.441h-10.601l-14.801-14.101h10.4l9.701,6.601l9.801-6.601h10.4L487.965,3204.441z"/>
	<path d="M743.862,3279.646l-33.102-52.903l0.3,14.201v38.702H700.46v-70.004h11.701l33.102,52.903l-0.3-14.201v-38.702h10.601
		v70.004H743.862z M721.161,3304.448l2-18.602h10.201l-4.501,18.602H721.161z"/>
	<path d="M989.158,3279.646l-33.102-52.903l0.3,14.201v38.702h-10.601v-70.004h11.701l33.102,52.903l-0.3-14.201v-38.702h10.601
		v70.004H989.158z M992.059,3193.541c-2.5,6.7-7,9.9-11.4,9.9c-5.5,0-11.501-4.5-14.801-4.5c-1.9,0-3.7,0.9-5.301,4.101l-6-2.801
		c2.6-6.7,7.101-9.9,11.4-9.9c5.501,0,11.601,4.501,14.801,4.501c1.801,0,3.7-0.9,5.301-4.101L992.059,3193.541z"/>
	<path d="M1187.352,3244.645c0-22.102,12.601-36.502,32.402-36.502c19.801,0,32.302,14.4,32.302,36.502
		s-12.501,36.502-32.302,36.502C1199.952,3281.146,1187.352,3266.746,1187.352,3244.645z M1239.755,3244.645
		c0-18.501-8.2-27.602-20.001-27.602s-20.002,9.101-20.002,27.602s8.201,27.602,20.002,27.602S1239.755,3263.146,1239.755,3244.645z
		 M1218.854,3204.441h-9.801l13.201-14.101h14.701L1218.854,3204.441z"/>
	<path d="M1434.848,3244.645c0-22.102,12.601-36.502,32.402-36.502c19.801,0,32.302,14.4,32.302,36.502
		s-12.501,36.502-32.302,36.502C1447.448,3281.146,1434.848,3266.746,1434.848,3244.645z M1487.251,3244.645
		c0-18.501-8.2-27.602-20.001-27.602s-20.002,9.101-20.002,27.602s8.201,27.602,20.002,27.602S1487.251,3263.146,1487.251,3244.645z
		 M1482.751,3190.341c0,10.101-6.801,15.102-15.602,15.102c-8.8,0-15.7-5.001-15.7-15.102h7.7c0,3.7,2.5,6.601,8,6.601
		c5.4,0,7.9-2.9,7.9-6.601H1482.751z"/>
	<path d="M1682.345,3244.645c0-22.102,12.601-36.502,32.402-36.502c19.801,0,32.302,14.4,32.302,36.502
		s-12.501,36.502-32.302,36.502C1694.945,3281.146,1682.345,3266.746,1682.345,3244.645z M1734.748,3244.645
		c0-18.501-8.2-27.602-20.001-27.602s-20.002,9.101-20.002,27.602s8.201,27.602,20.002,27.602S1734.748,3263.146,1734.748,3244.645z
		 M1703.846,3203.342c-3.8,0-6.8-2.8-6.8-6.5s3-6.601,6.8-6.601c3.7,0,6.701,2.9,6.701,6.601S1707.546,3203.342,1703.846,3203.342z
		 M1725.548,3203.342c-3.801,0-6.801-2.8-6.801-6.5s3-6.601,6.801-6.601c3.8,0,6.8,2.9,6.8,6.601
		S1729.348,3203.342,1725.548,3203.342z"/>
	<path d="M206.167,3520.645c0-22.102,12.601-36.502,32.402-36.502c19.801,0,32.302,14.4,32.302,36.502s-12.501,36.502-32.302,36.502
		C218.768,3557.146,206.167,3542.746,206.167,3520.645z M258.57,3520.645c0-18.501-8.2-27.602-20.001-27.602
		s-20.002,9.101-20.002,27.602s8.201,27.602,20.002,27.602S258.57,3539.146,258.57,3520.645z M228.969,3480.441h-9.101l10.9-14.101
		h13.701L228.969,3480.441z M248.17,3480.441h-9.101l10.9-14.101h13.701L248.17,3480.441z"/>
	<path d="M460.38,3520.645c0-22.102,12.601-36.502,32.402-36.502c19.801,0,32.302,14.4,32.302,36.502s-12.501,36.502-32.302,36.502
		C472.98,3557.146,460.38,3542.746,460.38,3520.645z M512.783,3520.645c0-18.501-8.2-27.602-20.001-27.602
		s-20.002,9.101-20.002,27.602s8.201,27.602,20.002,27.602S512.783,3539.146,512.783,3520.645z M476.48,3477.242v-7.801h32.503
		v7.801H476.48z"/>
	<path d="M714.593,3520.645c0-22.102,12.601-36.502,32.402-36.502c19.801,0,32.302,14.4,32.302,36.502s-12.501,36.502-32.302,36.502
		C727.193,3557.146,714.593,3542.746,714.593,3520.645z M766.996,3520.645c0-18.501-8.2-27.602-20.001-27.602
		s-20.002,9.101-20.002,27.602s8.201,27.602,20.002,27.602S766.996,3539.146,766.996,3520.645z M765.696,3469.541
		c-2.5,6.7-7.001,9.9-11.401,9.9c-5.5,0-11.5-4.5-14.801-4.5c-1.899,0-3.7,0.9-5.3,4.101l-6.001-2.801
		c2.601-6.7,7.101-9.9,11.401-9.9c5.5,0,11.601,4.501,14.801,4.501c1.8,0,3.7-0.9,5.3-4.101L765.696,3469.541z"/>
	<path d="M1010.008,3555.646l-17.2-26.802h-8.701v26.802h-11.601v-70.004h22.102c12.9,0,25.401,6.2,25.401,21.601
		c0,11.501-6.9,17.802-15.701,20.302l19.401,28.102H1010.008z M991.007,3480.441h-9.801l13.201-14.101h14.701L991.007,3480.441z
		 M994.607,3520.345c7.7,0,13.601-3.501,13.601-13.102c0-9.4-5.9-12.9-13.601-12.9h-10.501v26.002H994.607z"/>
	<path d="M1239.82,3480.441h-10.601l-14.801-14.101h10.401l9.7,6.601l9.801-6.601h10.4L1239.82,3480.441z M1252.121,3555.646
		l-17.2-26.802h-8.701v26.802h-11.601v-70.004h22.102c12.9,0,25.401,6.2,25.401,21.601c0,11.501-6.9,17.802-15.701,20.302
		l19.401,28.102H1252.121z M1236.721,3520.345c7.7,0,13.601-3.501,13.601-13.102c0-9.4-5.9-12.9-13.601-12.9h-10.501v26.002
		H1236.721z"/>
	<path d="M1494.235,3555.646l-17.2-26.802h-8.701v26.802h-11.601v-70.004h22.102c12.9,0,25.401,6.2,25.401,21.601
		c0,11.501-6.9,17.802-15.701,20.302l19.401,28.102H1494.235z M1478.835,3520.345c7.7,0,13.601-3.501,13.601-13.102
		c0-9.4-5.9-12.9-13.601-12.9h-10.501v26.002H1478.835z M1471.834,3580.448l2.001-18.602h10.2l-4.5,18.602H1471.834z"/>
	<path d="M1734.149,3505.644c-0.7-9.301-5.701-12.801-13.802-12.801c-7.4,0-13,3.2-13,10.301c0,9.101,8,10.4,16.501,12.2
		c10.4,2.2,23.201,4.7,23.201,20.002c0,12.801-11.501,21.801-25.102,21.801c-16.101,0-26.201-7.301-26.802-22.401h12.101
		c0.8,10.301,6.601,13.701,14.701,13.701c7.4,0,13.801-3.801,13.801-11.601c0-9.101-8.4-10.401-16.901-12.201
		c-10.4-2.3-22.901-5-22.901-20.201c0-12.301,10.301-20.301,24.401-20.301c16.201,0,25.202,7.4,26.002,21.501H1734.149z
		 M1718.248,3480.441h-9.801l13.201-14.101h14.7L1718.248,3480.441z"/>
	<path d="M245.17,3781.644c-0.7-9.301-5.701-12.801-13.802-12.801c-7.4,0-13,3.2-13,10.301c0,9.101,8,10.4,16.501,12.2
		c10.4,2.2,23.201,4.7,23.201,20.002c0,12.801-11.501,21.801-25.102,21.801c-16.101,0-26.201-7.301-26.802-22.401h12.101
		c0.801,10.301,6.601,13.701,14.701,13.701c7.4,0,13.801-3.801,13.801-11.601c0-9.101-8.4-10.401-16.901-12.201
		c-10.4-2.3-22.901-5-22.901-20.201c0-12.301,10.301-20.301,24.401-20.301c16.201,0,25.202,7.4,26.002,21.501H245.17z
		 M236.369,3756.441h-10.601l-14.801-14.101h10.4l9.7,6.601l9.801-6.601h10.4L236.369,3756.441z"/>
	<path d="M474.014,3849.447c2.2,1,4.4,1.301,6.4,1.301c2.4,0,5.2-1.2,5.2-3.9s-2.8-3.801-5.2-3.801c-1,0-2.7,0.2-4,0.601l-2.1-3.601
		l5.3-7.2c-13.201-1.3-21.401-8.601-21.901-22.102h12.101c0.8,10.301,6.601,13.701,14.701,13.701c7.4,0,13.801-3.801,13.801-11.601
		c0-9.101-8.4-10.401-16.901-12.201c-10.4-2.3-22.901-5-22.901-20.201c0-12.301,10.301-20.301,24.401-20.301
		c16.201,0,25.202,7.4,26.002,21.501h-12.2c-0.7-9.301-5.701-12.801-13.802-12.801c-7.4,0-13,3.2-13,10.301
		c0,9.101,8,10.4,16.501,12.2c10.4,2.2,23.201,4.7,23.201,20.002c0,12.2-10.501,20.9-23.201,21.701l-3.801,5.1
		c5.7-0.399,11.201,2.2,11.201,8.401c0,6.5-6.101,9.9-12.601,9.9c-2.501,0-4.9-0.3-7.201-1.4V3849.447z"/>
	<path d="M748.262,3781.644c-0.7-9.301-5.701-12.801-13.802-12.801c-7.4,0-13,3.2-13,10.301c0,9.101,8,10.4,16.501,12.2
		c10.4,2.2,23.201,4.7,23.201,20.002c0,12.801-11.501,21.801-25.102,21.801c-16.101,0-26.201-7.301-26.802-22.401h12.101
		c0.801,10.301,6.601,13.701,14.701,13.701c7.4,0,13.801-3.801,13.801-11.601c0-9.101-8.4-10.401-16.901-12.201
		c-10.4-2.3-22.901-5-22.901-20.201c0-12.301,10.301-20.301,24.401-20.301c16.201,0,25.202,7.4,26.002,21.501H748.262z
		 M744.961,3756.441l-9.801-6.6l-9.7,6.6h-10.4l14.801-14.101h10.601l14.9,14.101H744.961z"/>
	<path d="M999.809,3781.644c-0.7-9.301-5.701-12.801-13.802-12.801c-7.4,0-13,3.2-13,10.301c0,9.101,8,10.4,16.501,12.2
		c10.4,2.2,23.201,4.7,23.201,20.002c0,12.801-11.501,21.801-25.102,21.801c-16.101,0-26.201-7.301-26.802-22.401h12.101
		c0.801,10.301,6.601,13.701,14.701,13.701c7.4,0,13.801-3.801,13.801-11.601c0-9.101-8.4-10.401-16.901-12.201
		c-10.4-2.3-22.901-5-22.901-20.201c0-12.301,10.301-20.301,24.401-20.301c16.201,0,25.202,7.4,26.002,21.501H999.809z
		 M979.907,3856.448l2-18.602h10.2l-4.5,18.602H979.907z"/>
	<path d="M1227.454,3831.646v-30.302h-12.801v-8.9h12.801v-21.901h-18.802v-8.9h49.203v8.9h-18.801v21.901h13.101v8.9h-13.101
		v30.302H1227.454z"/>
	<path d="M1472.899,3831.646v-61.104h-18.802v-8.9h49.203v8.9H1484.5v61.104H1472.899z M1484,3756.441h-10.601l-14.802-14.101
		h10.401l9.7,6.601l9.801-6.601h10.4L1484,3756.441z"/>
	<path d="M1714.944,3849.447c2.2,1,4.4,1.301,6.4,1.301c2.399,0,5.2-1.2,5.2-3.9s-2.801-3.801-5.2-3.801c-1,0-2.7,0.2-4.001,0.601
		l-2.1-3.601l6.301-8.4h-3.2v-61.104h-18.802v-8.9h49.203v8.9h-18.801v61.104h-1.5l-4.9,6.5c5.7-0.399,11.2,2.2,11.2,8.401
		c0,6.5-6.101,9.9-12.601,9.9c-2.5,0-4.9-0.3-7.2-1.4V3849.447z"/>
	<path d="M223.269,4107.646v-61.104h-18.802v-8.9h49.203v8.9h-18.801v61.104H223.269z M221.968,4132.448l2-18.602h10.201
		l-4.5,18.602H221.968z"/>
	<path d="M487.249,4037.643h10.501v45.002c0,17.102-10.701,26.502-27.302,26.502c-16.602,0-27.702-8.4-27.702-24.501v-47.003h11.601
		v45.002c0,11.301,4.301,17.602,16.102,17.602s16.801-6.301,16.801-15.601V4037.643z M468.748,4032.441h-9.801l13.201-14.101h14.7
		L468.748,4032.441z"/>
	<path d="M736.43,4037.643h10.5v45.002c0,17.102-10.7,26.502-27.301,26.502c-16.602,0-27.702-8.4-27.702-24.501v-47.003h11.601
		v45.002c0,11.301,4.301,17.602,16.102,17.602s16.801-6.301,16.801-15.601V4037.643z M735.029,4018.341
		c0,10.101-6.8,15.102-15.601,15.102s-15.701-5.001-15.701-15.102h7.7c0,3.7,2.5,6.601,8.001,6.601c5.4,0,7.9-2.9,7.9-6.601H735.029
		z"/>
	<path d="M985.609,4037.643h10.5v45.002c0,17.102-10.7,26.502-27.301,26.502c-16.602,0-27.702-8.4-27.702-24.501v-47.003h11.601
		v45.002c0,11.301,4.301,17.602,16.102,17.602s16.801-6.301,16.801-15.601V4037.643z M978.409,4032.441l-9.801-6.6l-9.701,6.6h-10.4
		l14.801-14.101h10.601l14.901,14.101H978.409z"/>
	<path d="M1234.79,4037.643h10.501v45.002c0,17.102-10.701,26.502-27.302,26.502c-16.602,0-27.702-8.4-27.702-24.501v-47.003h11.601
		v45.002c0,11.301,4.301,17.602,16.102,17.602s16.801-6.301,16.801-15.601V4037.643z M1206.889,4031.342
		c-3.801,0-6.801-2.8-6.801-6.5s3-6.601,6.801-6.601c3.7,0,6.7,2.9,6.7,6.601S1210.589,4031.342,1206.889,4031.342z
		 M1228.59,4031.342c-3.801,0-6.801-2.8-6.801-6.5s3-6.601,6.801-6.601c3.8,0,6.8,2.9,6.8,6.601S1232.39,4031.342,1228.59,4031.342z
		"/>
	<path d="M1483.97,4037.643h10.501v45.002c0,17.102-10.701,26.502-27.302,26.502c-16.602,0-27.702-8.4-27.702-24.501v-47.003h11.601
		v45.002c0,11.301,4.301,17.602,16.102,17.602s16.801-6.301,16.801-15.601V4037.643z M1468.269,4032.441l-18.101-14.101h14.7
		l13.201,14.101H1468.269z"/>
	<path d="M1733.15,4037.643h10.5v45.002c0,17.102-10.7,26.502-27.301,26.502c-16.602,0-27.702-8.4-27.702-24.501v-47.003h11.601
		v45.002c0,11.301,4.301,17.602,16.102,17.602s16.801-6.301,16.801-15.601V4037.643z M1706.648,4032.441h-9.101l10.901-14.101h13.7
		L1706.648,4032.441z M1725.85,4032.441h-9.101l10.901-14.101h13.7L1725.85,4032.441z"/>
	<path d="M253.37,4313.643h10.501v45.002c0,17.102-10.701,26.502-27.302,26.502c-16.602,0-27.702-8.4-27.702-24.501v-47.003h11.601
		v45.002c0,11.301,4.301,17.602,16.102,17.602s16.801-6.301,16.801-15.601V4313.643z M220.068,4305.242v-7.801h32.502v7.801H220.068
		z"/>
	<path d="M481.9,4406.048c-2.301,1.3-5.9,2.4-10.001,2.4c-6.8,0-10.9-4.4-10.9-10.001c0-5.2,2.9-9.601,8.7-13.4
		c-15.301-0.7-25.401-9.001-25.401-24.401v-47.003h11.601v45.002c0,11.301,4.301,17.602,16.102,17.602s16.801-6.301,16.801-15.601
		v-47.003h10.5v45.002c0,13.801-6.9,22.602-18.301,25.402c-7.301,4-11.001,8-11.001,12.9c0,3,2.4,4.7,4.801,4.7
		c2.3,0,4.8-0.9,7.101-2.1V4406.048z"/>
	<path d="M724.23,4313.643h10.5v45.002c0,17.102-10.7,26.502-27.301,26.502c-16.602,0-27.702-8.4-27.702-24.501v-47.003h11.601
		v45.002c0,11.301,4.301,17.602,16.102,17.602s16.801-6.301,16.801-15.601V4313.643z M707.129,4311.442
		c-6.5,0-11.7-3.801-11.7-9.901c0-6.1,5.2-9.9,11.7-9.9c6.601,0,11.801,3.801,11.801,9.9
		C718.93,4307.642,713.729,4311.442,707.129,4311.442z M710.529,4300.342c-0.8-2.301-2.6-2.9-4.6-2.2c-2.101,0.6-2.9,2.3-2.101,4.6
		c0.7,2.2,2.601,2.9,4.601,2.2S711.229,4302.542,710.529,4300.342z"/>
	<path d="M959.661,4313.643h10.501v45.002c0,17.102-10.701,26.502-27.302,26.502c-16.602,0-27.702-8.4-27.702-24.501v-47.003h11.601
		v45.002c0,11.301,4.301,17.602,16.102,17.602s16.801-6.301,16.801-15.601V4313.643z M961.461,4297.541c-2.5,6.7-7,9.9-11.4,9.9
		c-5.5,0-11.501-4.5-14.801-4.5c-1.9,0-3.7,0.9-5.301,4.101l-6-2.801c2.6-6.7,7.101-9.9,11.4-9.9c5.5,0,11.601,4.501,14.801,4.501
		c1.801,0,3.7-0.9,5.301-4.101L961.461,4297.541z"/>
	<path d="M1204.791,4383.646l-11.101-40.103l-3.7-15.101l-3.6,15.101l-10.801,40.103h-12.102l-19.301-70.004h12.4l10.401,41.502
		l3.399,14.901l3.501-14.901l10.801-41.502h12l11.201,41.502l3.6,15.201l3.2-15.201l9.501-41.502h10.9l-18.201,70.004H1204.791z
		 M1188.09,4308.441h-9.8l13.2-14.101h14.701L1188.09,4308.441z"/>
	<path d="M1462.621,4383.646l-11.101-40.103l-3.7-15.101l-3.6,15.101l-10.801,40.103h-12.102l-19.301-70.004h12.4l10.401,41.502
		l3.399,14.901l3.501-14.901l10.801-41.502h12l11.201,41.502l3.6,15.201l3.2-15.201l9.501-41.502h10.9l-18.201,70.004H1462.621z
		 M1457.221,4308.441l-9.801-6.6l-9.7,6.6h-10.4l14.801-14.101h10.601l14.901,14.101H1457.221z"/>
	<path d="M1720.45,4383.646l-11.101-40.103l-3.7-15.101l-3.601,15.101l-10.8,40.103h-12.102l-19.301-70.004h12.4l10.401,41.502
		l3.4,14.901l3.5-14.901l10.801-41.502h12l11.201,41.502l3.6,15.201l3.2-15.201l9.501-41.502h10.9l-18.201,70.004H1720.45z
		 M1694.349,4307.342c-3.8,0-6.8-2.8-6.8-6.5s3-6.601,6.8-6.601c3.7,0,6.7,2.9,6.7,6.601S1698.049,4307.342,1694.349,4307.342z
		 M1716.05,4307.342c-3.8,0-6.8-2.8-6.8-6.5s3-6.601,6.8-6.601c3.801,0,6.801,2.9,6.801,6.601S1719.851,4307.342,1716.05,4307.342z"
		/>
	<path d="M263.07,4659.646l-11.101-40.103l-3.7-15.101l-3.6,15.101l-10.801,40.103h-12.102l-19.301-70.004h12.4l10.401,41.502
		l3.399,14.901l3.501-14.901l10.801-41.502h12l11.201,41.502l3.6,15.201l3.2-15.201l9.501-41.502h10.9l-18.201,70.004H263.07z
		 M249.47,4584.441l-18.102-14.101h14.701l13.201,14.101H249.47z"/>
	<path d="M496.997,4659.646v-25.502l-22.201-44.502h12.501l16.501,35.302l15.501-35.302h10.601l-21.302,44.502v25.502H496.997z
		 M501.098,4584.441h-9.801l13.2-14.101h14.701L501.098,4584.441z"/>
	<path d="M734.928,4659.646v-25.502l-22.201-44.502h12.501l16.501,35.302l15.501-35.302h10.601l-21.302,44.502v25.502H734.928z
		 M750.028,4584.441l-9.801-6.6l-9.7,6.6h-10.4l14.801-14.101h10.601l14.901,14.101H750.028z"/>
	<path d="M972.858,4659.646v-25.502l-22.201-44.502h12.501l16.501,35.302l15.501-35.302h10.601l-21.302,44.502v25.502H972.858z
		 M967.358,4583.342c-3.801,0-6.801-2.8-6.801-6.5s3-6.601,6.801-6.601c3.7,0,6.7,2.9,6.7,6.601S971.059,4583.342,967.358,4583.342z
		 M989.06,4583.342c-3.801,0-6.801-2.8-6.801-6.5s3-6.601,6.801-6.601c3.8,0,6.8,2.9,6.8,6.601S992.859,4583.342,989.06,4583.342z"
		/>
	<path d="M1210.789,4659.646v-25.502l-22.201-44.502h12.501l16.501,35.302l15.501-35.302h10.601l-21.302,44.502v25.502H1210.789z
		 M1217.39,4584.441l-18.102-14.101h14.701l13.201,14.101H1217.39z"/>
	<path d="M1428.118,4659.646v-8.9l33.103-52.203h-32.402v-8.9h45.403v8.9l-33.103,52.203h33.103v8.9H1428.118z M1451.12,4583.542
		c-3.801,0-6.9-2.9-6.9-6.7c0-3.801,3.1-6.701,6.9-6.701c3.9,0,7,2.9,7,6.701C1458.12,4580.642,1455.021,4583.542,1451.12,4583.542z
		"/>
	<path d="M1704.55,4659.646v-18.102h-23.201l-11.701,18.102h-12.7l47.003-70.004h42.502v8.9h-30.302v19.801h28.302v8.9h-28.302
		v23.502h30.302v8.9H1704.55z M1686.949,4632.845h17.601v-27.802l-8.101,13.101L1686.949,4632.845z M1716.451,4584.441h-9.801
		l13.2-14.101h14.701L1716.451,4584.441z"/>
</g>
</svg>
