<?xml version="1.0" encoding="utf-8"?>
<!-- Generator: Adobe Illustrator 16.0.3, SVG Export Plug-In . SVG Version: 6.00 Build 0)  -->
<!DOCTYPE svg PUBLIC "-//W3C//DTD SVG 1.1//EN" "http://www.w3.org/Graphics/SVG/1.1/DTD/svg11.dtd">
<svg version="1.1" id="Layer_1" xmlns="http://www.w3.org/2000/svg" xmlns:xlink="http://www.w3.org/1999/xlink" x="0px" y="0px"
	 width="2007.464px" height="1010.207px" viewBox="0 0 2007.464 1010.207" enable-background="new 0 0 2007.464 1010.207"
	 xml:space="preserve">
<rect fill="#FFFFFF" width="2007.464" height="1010.207"/>
<g>
	<path d="M245.069,243.5v-67.404c-2.5-0.6-5-0.899-7.7-0.899c-7.601,0-14.201,3.399-14.201,11.9v4.5h11.4v7.7h-11.4V243.5h-11.001
		v-44.203h-8.7v-7.7h8.7v-4.4c0-13.4,11.201-19.601,25.202-19.601c5,0,12.801,0.8,18.701,2.899v26.402
		c4.5-4.501,9.601-6.9,16.001-6.9c10.9,0,19.801,9.3,19.801,27.501S280.972,245,269.471,245c-5.5,0-10.301-2.4-13.4-6.101v4.601
		H245.069z M256.07,203.498v28.401c3,3,6.7,4.7,11.4,4.7c6.601,0,13.001-5.7,13.001-19.102c0-13.4-5.5-19.101-12.201-19.101
		C263.57,198.397,259.07,200.497,256.07,203.498z"/>
	<path d="M474.663,243.5v-44.203h-8.7v-7.7h8.7v-8.101c0-10.7,6.301-15.9,16.701-15.9c2.2,0,6.4,0.5,8.701,1.7v7.1
		c-2.301-0.5-4.601-0.899-6.501-0.899c-4.6,0-7.9,2.1-7.9,7.9v8.2h21.901v-8.101c0-10.7,6.301-15.9,16.701-15.9
		c2.2,0,6.4,0.5,8.7,1.7v7.1c-2.3-0.5-4.6-0.899-6.5-0.899c-4.601,0-7.9,2.1-7.9,7.9v8.2h14.4v7.7h-14.4V243.5h-11.001v-44.203
		h-21.901V243.5H474.663z"/>
	<path d="M747.761,243.5v-67.404c-2.5-0.6-5-0.899-7.7-0.899c-7.601,0-14.201,3.399-14.201,11.9v4.5h11.4v7.7h-11.4V243.5h-11.001
		v-44.203h-8.7v-7.7h8.7v-4.4c0-13.4,11.201-19.601,25.202-19.601c5,0,12.801,0.8,18.701,2.899v27.702c4.8-4.9,11.4-8.2,18.101-8.2
		c8.501,0,16.001,4.4,16.001,17.001V243.5h-11v-34.202c0-7.2-3.301-10.4-9.701-10.4c-4.8,0-10.301,2.8-13.4,5.9V243.5H747.761z"/>
	<path d="M1011.759,243.5v-44.203h-21.901V243.5h-11.001v-44.203h-8.7v-7.7h8.7v-8.101c0-10.7,6.301-15.9,16.701-15.9
		c2.2,0,6.101,0.5,8.4,1.7v7.1c-2.3-0.5-4.3-0.899-6.2-0.899c-4.6,0-7.9,2.1-7.9,7.9v8.2h32.902V243.5H1011.759z M1017.259,184.096
		c-3.899,0-6.9-3.001-6.9-6.801s3.001-6.9,6.9-6.9c3.9,0,6.901,3.101,6.901,6.9S1021.159,184.096,1017.259,184.096z"/>
	<path d="M1243.654,264.3v-65.004h-21.901V243.5h-11.001v-44.203h-8.7v-7.7h8.7v-8.101c0-10.7,6.301-15.9,16.701-15.9
		c2.2,0,6.101,0.5,8.4,1.7v7.1c-2.3-0.5-4.3-0.899-6.2-0.899c-4.6,0-7.9,2.1-7.9,7.9v8.2h32.902V264.3H1243.654z M1249.154,184.096
		c-3.899,0-6.9-3.001-6.9-6.801s3.001-6.9,6.9-6.9c3.9,0,6.9,3.101,6.9,6.9S1253.055,184.096,1249.154,184.096z"/>
	<path d="M1475.551,243.5v-67.504c-2.5-0.601-5-0.9-7.7-0.9c-7.601,0-14.201,3.5-14.201,12.001v4.5h11.4v7.7h-11.4V243.5h-11.001
		v-44.203h-8.7v-7.7h8.7v-4.4c0-13.4,11.201-19.601,25.202-19.601c5,0,12.801,0.8,18.701,2.899v44.803l19.901-23.701h11.601
		l-20.602,23.201l22.602,28.702h-13.301l-20.201-26.701V243.5H1475.551z"/>
	<path d="M1733.347,243.5v-67.404c-2.5-0.6-5-0.899-7.7-0.899c-7.601,0-14.201,3.399-14.201,11.9v4.5h11.4v7.7h-11.4V243.5h-11.001
		v-44.203h-8.7v-7.7h8.7v-4.4c0-13.4,11.201-19.601,25.202-19.601c5,0,12.801,0.8,18.701,2.899V243.5H1733.347z"/>
	<path d="M256.07,475.296v29.202c0,5.801,2.2,8.601,6.8,8.601c2.001,0,5.201-0.7,8.001-1.5v7.101c-3.101,1.399-8.501,2.3-11.601,2.3
		c-8.001,0-14.201-4.4-14.201-14.4v-31.303h-21.901V519.5h-11.001v-44.203h-8.7v-7.7h8.7v-8.101c0-10.7,6.301-15.9,16.701-15.9
		c2.2,0,6.4,0.5,8.701,1.7v7.1c-2.301-0.5-4.601-0.899-6.501-0.899c-4.6,0-7.9,2.1-7.9,7.9v8.2h21.901v-14.101h11.001v14.101h14.101
		v7.7H256.07z"/>
	<path d="M477.283,519.5v-44.203h-8.7v-7.7h8.7v-8.101c0-10.7,6.301-15.9,16.701-15.9c2.2,0,6.4,0.5,8.701,1.7v7.1
		c-2.301-0.5-4.601-0.899-6.501-0.899c-4.6,0-7.9,2.1-7.9,7.9v8.2h21.901v-14.101h11.001v14.101h11.4v7.7h-11.4V519.5h-11.001
		v-44.203h-21.901V519.5H477.283z"/>
	<path d="M804.803,519.5v-67.404c-2.5-0.6-5.001-0.899-7.701-0.899c-7.6,0-14.2,3.399-14.2,11.9v4.5h11.4v7.7h-11.4V519.5H771.9
		v-44.203h-21.901V519.5h-11.001v-44.203h-8.7v-7.7h8.7v-8.101c0-10.7,6.301-15.9,16.701-15.9c2.2,0,6.4,0.5,8.701,1.7v7.1
		c-2.301-0.5-4.601-0.899-6.501-0.899c-4.6,0-7.9,2.1-7.9,7.9v8.2H771.9v-4.4c0-13.4,11.201-19.601,25.201-19.601
		c5.001,0,12.801,0.8,18.701,2.899v26.402c4.501-4.501,9.601-6.9,16.001-6.9c10.901,0,19.802,9.3,19.802,27.501
		S840.705,521,829.204,521c-5.5,0-10.301-2.4-13.401-6.101v4.601H804.803z M815.803,507.899c3.001,3,6.701,4.7,11.401,4.7
		c6.601,0,13.001-5.7,13.001-19.102c0-13.4-5.501-19.101-12.201-19.101c-4.7,0-9.2,2.1-12.201,5.101V507.899z"/>
	<path d="M1158.121,519.5v-34.202c0-7.2-3.3-10.4-9.7-10.4c-4.801,0-10.301,2.8-13.401,5.9V519.5h-11v-67.404
		c-2.5-0.6-5.001-0.899-7.701-0.899c-7.6,0-14.2,3.399-14.2,11.9v4.5h11.4v7.7h-11.4V519.5h-11.001v-44.203h-21.901V519.5h-11.001
		v-44.203h-8.7v-7.7h8.7v-8.101c0-10.7,6.301-15.9,16.701-15.9c2.2,0,6.4,0.5,8.701,1.7v7.1c-2.301-0.5-4.601-0.899-6.501-0.899
		c-4.6,0-7.9,2.1-7.9,7.9v8.2h21.901v-4.4c0-13.4,11.201-19.601,25.201-19.601c5.001,0,12.801,0.8,18.701,2.899v27.702
		c4.801-4.9,11.401-8.2,18.102-8.2c8.501,0,16.001,4.4,16.001,17.001V519.5H1158.121z"/>
	<path d="M1378.931,519.5v-44.203h-8.7v-7.7h8.7v-8.101c0-10.7,6.301-15.9,16.701-15.9c2.2,0,6.4,0.5,8.701,1.7v7.1
		c-2.301-0.5-4.601-0.899-6.501-0.899c-4.6,0-7.9,2.1-7.9,7.9v8.2h21.901v-8.101c0-10.7,6.301-15.9,16.701-15.9
		c2.2,0,6.101,0.5,8.4,1.7v7.1c-2.3-0.5-4.3-0.899-6.2-0.899c-4.601,0-7.9,2.1-7.9,7.9v8.2h32.901V519.5h-11v-44.203h-21.901V519.5
		h-11.001v-44.203h-21.901V519.5H1378.931z M1450.235,460.096c-3.9,0-6.9-3.001-6.9-6.801s3-6.9,6.9-6.9s6.9,3.101,6.9,6.9
		S1454.136,460.096,1450.235,460.096z"/>
	<path d="M1667.546,519.5v-44.203h-8.7v-7.7h8.7v-8.101c0-10.7,6.301-15.9,16.701-15.9c2.2,0,6.4,0.5,8.701,1.7v7.1
		c-2.301-0.5-4.601-0.899-6.501-0.899c-4.6,0-7.9,2.1-7.9,7.9v8.2h21.901v-8.101c0-10.7,6.301-15.9,16.701-15.9
		c2.2,0,6.101,0.5,8.4,1.7v7.1c-2.3-0.5-4.3-0.899-6.2-0.899c-4.601,0-7.9,2.1-7.9,7.9v8.2h32.901V540.3h-11v-65.004h-21.901V519.5
		h-11.001v-44.203h-21.901V519.5H1667.546z M1738.851,460.096c-3.9,0-6.9-3.001-6.9-6.801s3-6.9,6.9-6.9s6.9,3.101,6.9,6.9
		S1742.751,460.096,1738.851,460.096z"/>
	<path d="M212.167,795.5v-44.203h-8.7v-7.7h8.7v-8.101c0-10.7,6.301-15.9,16.701-15.9c2.2,0,6.4,0.5,8.701,1.7v7.1
		c-2.301-0.5-4.601-0.899-6.501-0.899c-4.6,0-7.9,2.1-7.9,7.9v8.2h21.901v-8.101c0-10.7,6.301-15.9,16.701-15.9
		c2.2,0,6.101,0.5,8.4,1.7v7.1c-2.3-0.5-4.3-0.899-6.2-0.899c-4.601,0-7.9,2.1-7.9,7.9v8.2h32.901V801.9
		c0,10.7-6.6,15.901-17.301,15.901c-2.2,0-5.601-0.601-7.8-1.7V809c2,0.5,4.5,1,6.6,1c4.2,0,7.501-2.2,7.501-8.001v-50.703H256.07
		V795.5h-11.001v-44.203h-21.901V795.5H212.167z M283.472,736.096c-3.9,0-6.9-3.001-6.9-6.801s3-6.9,6.9-6.9s6.9,3.101,6.9,6.9
		S287.372,736.096,283.472,736.096z"/>
	<path d="M563.428,795.5v-67.404c-2.5-0.6-5.001-0.899-7.701-0.899c-7.6,0-14.2,3.399-14.2,11.9v4.5h11.4v7.7h-11.4V795.5h-11.001
		v-44.203h-21.901V795.5h-11.001v-44.203h-8.7v-7.7h8.7v-8.101c0-10.7,6.301-15.9,16.701-15.9c2.2,0,6.4,0.5,8.701,1.7v7.1
		c-2.301-0.5-4.601-0.899-6.501-0.899c-4.6,0-7.9,2.1-7.9,7.9v8.2h21.901v-4.4c0-13.4,11.201-19.601,25.201-19.601
		c5.001,0,12.801,0.8,18.701,2.899v44.803l19.901-23.701h11.601l-20.601,23.201l22.602,28.702H594.63l-20.202-26.701V795.5H563.428z
		"/>
	<path d="M808.978,795.5v-44.203h-8.7v-7.7h8.7v-8.101c0-10.7,6.301-15.9,16.701-15.9c2.2,0,6.4,0.5,8.701,1.7v7.1
		c-2.301-0.5-4.601-0.899-6.501-0.899c-4.6,0-7.9,2.1-7.9,7.9v8.2h21.901v-4.4c0-13.4,11.201-19.601,25.202-19.601
		c5,0,12.801,0.8,18.7,2.899V795.5h-11v-67.204c-2.5-0.5-4.9-0.8-7.601-0.8c-7.601,0-14.301,3.1-14.301,11.601v4.5h11.4v7.7h-11.4
		V795.5H841.88v-44.203h-21.901V795.5H808.978z"/>
	<path d="M1191.74,794.7c-3.101,1.399-8.501,2.3-11.602,2.3c-8,0-14.2-4.4-14.2-14.4v-31.303h-21.901V795.5h-11.001v-44.203h-21.901
		V795.5h-11.001v-44.203h-8.7v-7.7h8.7v-8.101c0-10.7,6.301-15.9,16.701-15.9c2.2,0,6.4,0.5,8.701,1.7v7.1
		c-2.301-0.5-4.601-0.899-6.501-0.899c-4.6,0-7.9,2.1-7.9,7.9v8.2h21.901v-8.101c0-10.7,6.301-15.9,16.701-15.9
		c2.2,0,6.4,0.5,8.7,1.7v7.1c-2.3-0.5-4.6-0.899-6.5-0.899c-4.601,0-7.9,2.1-7.9,7.9v8.2h21.901v-14.101h11v14.101h14.102v7.7
		h-14.102v29.202c0,5.801,2.2,8.601,6.801,8.601c2,0,5.2-0.7,8.001-1.5V794.7z"/>
	<path d="M1462.095,795.5v-44.203h-21.901V795.5h-11.001v-44.203h-21.901V795.5h-11.001v-44.203h-8.7v-7.7h8.7v-8.101
		c0-10.7,6.301-15.9,16.701-15.9c2.2,0,6.4,0.5,8.701,1.7v7.1c-2.301-0.5-4.601-0.899-6.501-0.899c-4.6,0-7.9,2.1-7.9,7.9v8.2
		h21.901v-8.101c0-10.7,6.301-15.9,16.701-15.9c2.2,0,6.4,0.5,8.7,1.7v7.1c-2.3-0.5-4.6-0.899-6.5-0.899c-4.601,0-7.9,2.1-7.9,7.9
		v8.2h21.901v-14.101h11v14.101h11.401v7.7h-11.401V795.5H1462.095z"/>
	<path d="M1748.448,794.7c-3.101,1.399-8.5,2.3-11.601,2.3c-8.001,0-14.201-4.4-14.201-14.4v-31.303h-23.901v29.202
		c0,5.801,2.2,8.601,6.801,8.601c2,0,5.2-0.7,8-1.5v7.101c-3.1,1.399-8.5,2.3-11.601,2.3c-8,0-14.201-4.4-14.201-14.4v-31.303h-8.7
		v-7.7h8.7v-14.101h11.001v14.101h23.901v-14.101h11.001v14.101h14.101v7.7h-14.101v29.202c0,5.801,2.2,8.601,6.801,8.601
		c2,0,5.2-0.7,8-1.5V794.7z"/>
</g>
</svg>
