<?xml version="1.0" encoding="utf-8"?>
<!-- Generator: Adobe Illustrator 16.0.3, SVG Export Plug-In . SVG Version: 6.00 Build 0)  -->
<!DOCTYPE svg PUBLIC "-//W3C//DTD SVG 1.1//EN" "http://www.w3.org/Graphics/SVG/1.1/DTD/svg11.dtd">
<svg version="1.1" id="Layer_1" xmlns="http://www.w3.org/2000/svg" xmlns:xlink="http://www.w3.org/1999/xlink" x="0px" y="0px"
	 width="2007.464px" height="1262.156px" viewBox="0 0 2007.464 1262.156" enable-background="new 0 0 2007.464 1262.156"
	 xml:space="preserve">
<rect fill="#FFFFFF" width="2007.464" height="1262.156"/>
<g>
	<path d="M222.568,221.298l19.601,19.601l-6.3,6.301l-30.402-30.302l30.402-30.402l6.3,6.301l-19.701,19.701h50.104v8.801H222.568z"
		/>
	<path d="M496.516,247.2l-6.3-6.301l19.601-19.601h-50.003v-8.801h50.104l-19.701-19.701l6.3-6.301l30.402,30.402L496.516,247.2z"/>
	<path d="M740.062,250.4v-50.003l-19.701,19.602l-6.2-6.301l30.302-30.302l30.402,30.302l-6.301,6.301l-19.601-19.602V250.4H740.062
		z"/>
	<path d="M992.408,250.4l-30.302-30.302l6.2-6.301l19.701,19.602v-50.003h8.901v50.003l19.601-19.602l6.301,6.301L992.408,250.4z"/>
	<path d="M1222.954,206.697v27.802h-8.901v-42.902h42.903v8.9h-27.802l35.302,35.402l-6.2,6.2L1222.954,206.697z"/>
	<path d="M1493.301,234.499v-27.802l-35.402,35.402l-6.2-6.2l35.303-35.402h-27.802v-8.9h42.902v42.902H1493.301z"/>
	<path d="M1700.846,242.099v-8.9h27.802l-35.303-35.402l6.2-6.2l35.402,35.402v-27.802h8.801v42.902H1700.846z"/>
	<path d="M209.467,518.099v-42.902h8.901v27.802l35.302-35.402l6.2,6.2l-35.302,35.402h27.802v8.9H209.467z"/>
	<path d="M475.725,497.298l19.601,19.601l-6.3,6.301l-30.402-30.302l30.402-30.402l6.3,6.301l-19.701,19.701h112.808v8.801H475.725z
		"/>
	<path d="M886.584,523.2l-6.301-6.301l19.602-19.601H787.178v-8.801h112.707l-19.602-19.701l6.301-6.301l30.402,30.402
		L886.584,523.2z"/>
	<path d="M1132.734,487.097l26.302,26.202l-6.3,6.2l-37.003-36.902l37.003-37.002l6.3,6.2l-26.302,26.401h63.304v8.9H1132.734z"/>
	<path d="M1438.092,519.5l-6.3-6.2l26.201-26.202h-63.204v-8.9h63.304l-26.301-26.401l6.3-6.2l37.002,37.002L1438.092,519.5z"/>
	<path d="M1706.448,522.7v-63.304l-26.402,26.401l-6.2-6.3l37.003-37.103l36.901,37.103l-6.2,6.3l-26.201-26.302V522.7H1706.448z"/>
	<path d="M205.467,761.698l6.2-6.301l26.402,26.302v-63.304h8.9v63.304l26.201-26.302l6.2,6.301L242.47,798.7L205.467,761.698z"/>
	<path d="M503.143,744.497v37.202h-8.801v-52.304h52.304v8.901h-37.202l44.702,44.803l-6.2,6.2L503.143,744.497z"/>
	<path d="M816.121,781.699v-37.202l-44.803,44.803l-6.2-6.2l44.703-44.803h-37.202v-8.901h52.303v52.304H816.121z"/>
	<path d="M1047.395,789.299v-8.9l37.202,0.1l-44.703-44.902l6.2-6.201l44.803,44.903v-37.303h8.801v52.304H1047.395z"/>
	<path d="M1318.67,789.299v-52.304h8.8v37.303l44.803-44.903l6.2,6.201l-44.702,44.902l37.202-0.1v8.9H1318.67z"/>
	<path d="M1606.446,763.097l26.302,26.202l-6.3,6.2l-37.003-36.902l37.003-37.002l6.3,6.2l-26.302,26.401h141.309v8.9H1606.446z"/>
	<path d="M326.675,1071.5l-6.301-6.2l26.302-26.202H205.467v-8.9h141.309l-26.401-26.401l6.301-6.2l37.102,37.002L326.675,1071.5z"
		/>
</g>
</svg>
