<?xml version="1.0" encoding="utf-8"?>
<!-- Generator: Adobe Illustrator 16.0.3, SVG Export Plug-In . SVG Version: 6.00 Build 0)  -->
<!DOCTYPE svg PUBLIC "-//W3C//DTD SVG 1.1//EN" "http://www.w3.org/Graphics/SVG/1.1/DTD/svg11.dtd">
<svg version="1.1" id="Layer_1" xmlns="http://www.w3.org/2000/svg" xmlns:xlink="http://www.w3.org/1999/xlink" x="0px" y="0px"
	 width="2007.464px" height="2383.933px" viewBox="0 0 2007.464 2383.933" enable-background="new 0 0 2007.464 2383.933"
	 xml:space="preserve">
<rect fill="#FFFFFF" width="2007.464" height="2383.933"/>
<g>
	<path d="M226.868,255.5v-10.901c-12.501-1.699-20.201-8.9-20.701-22.001h12.101c0.601,7.501,3.801,11.301,8.601,12.901v-23.602
		c-9.7-2.301-19.901-5.801-19.901-19.602c0-10.9,8.101-18.401,19.901-20.001v-10.801h10.601v10.9
		c12.301,1.7,19.201,8.9,19.901,21.102h-12.2c-0.5-6.601-3.2-10.301-7.701-11.9v22.201c9.801,2.1,20.602,5.4,20.602,19.401
		c0,11.4-9.101,19.801-20.602,21.501V255.5H226.868z M226.868,201.297v-20.102c-5.101,1.1-8.5,4.3-8.5,9.801
		C218.368,197.097,221.968,199.697,226.868,201.297z M237.469,214.297v21.502c5.301-1.2,9.301-4.9,9.301-11.101
		C246.77,218.398,242.77,215.898,237.469,214.297z"/>
	<path d="M470.498,255.5V244.5c-12.401-2.2-18.102-12.501-18.102-26.901c0-14.301,6.4-24.502,18.102-26.901v-11.102h10.601v10.901
		c10.101,1.7,16.101,8.4,17.101,18.301h-11.301c-0.899-5.601-2.6-8.801-5.8-10.2V236.5c3-1.4,4.9-4.501,5.7-9.901h11.4
		c-1.1,9.801-7.2,16.401-17.101,18.001V255.5H470.498z M470.498,236.099v-36.803c-4.101,2.601-6.701,8.501-6.701,18.302
		C463.797,227.598,466.197,233.599,470.498,236.099z"/>
	<path d="M689.426,243.5v-8.9h8.4v-20.302h-8.4v-8.8h8.4v-12.501c0-13.301,9.2-21.001,21.701-21.001
		c13.601,0,22.001,6.7,22.701,20.101h-12.201c-0.699-8.601-5-11.4-10.5-11.4c-5.2,0-10.201,2.8-10.201,11.001v13.801h21.102v8.8
		h-21.102v20.302h31.103v8.9H689.426z"/>
	<path d="M954.156,243.5v-8.9h-17.102v-8.801h17.102v-11.501h-17.102v-8.8h14.701l-19.801-32.002h12.501l16.301,27.602
		l15.701-27.602h10.601l-19.102,32.002h14.901v8.8h-17.102v11.501h17.102v8.801h-17.102v8.9H954.156z"/>
	<path d="M1211.288,223.499v21.301c0,13.301-8.9,21.002-20.501,21.002c-12.801,0-20.302-6.701-21.002-18.701h12.101
		c0.801,7.2,4.101,10,8.901,10c4.4,0,8.9-2.8,8.9-11v-22.602h-15.701v-8.801h15.701v-21.701c0-13.301,8.9-21.001,20.501-21.001
		c12.801,0,20.302,6.7,21.001,18.801h-12.101c-0.8-7.301-4.1-10.101-8.9-10.101c-4.4,0-8.9,2.8-8.9,11.001v23.001h15.701v8.801
		H1211.288z"/>
	<path d="M1444.616,223.499c2.3,8.4,6.9,12.601,14.001,12.601c7.601,0,12.601-4.801,13.9-15.801h12.601
		c-1.899,16.9-12.4,24.701-26.501,24.701c-14.201,0-22.901-8.101-26.302-21.501h-8.501v-8.801h7.001c-0.101-2-0.2-4-0.2-6.2
		c0-1.801,0.1-3.601,0.2-5.301h-7.001v-8.8h8.501c3.601-13.901,13.001-22.401,26.302-22.401c14.101,0,24.602,7.8,26.501,24.701
		h-12.601c-1.3-11.001-6.3-15.801-13.9-15.801c-6.701,0-11.701,4.5-14.102,13.501h17.802v8.8h-19.102c-0.1,1.7-0.2,3.5-0.2,5.301
		c0,2.2,0.101,4.3,0.2,6.2h19.102v8.801H1444.616z"/>
	<path d="M1716.447,223.398c1.3-9.101,2.2-16.601,2.2-22.601c0-12.701-4.001-18.401-14.901-18.401h-10.001V243.5h-10v-70.004h21.001
		c15.701,0,23.602,6.7,23.602,26.102c0,6.6-0.8,14.4-2.5,23.801H1716.447z M1700.446,243.5v-49.903h10v41.003h9.601
		c11.001,0,15.602-8.301,15.602-25.802c0-9.4-1.7-22.501-4.101-35.302h9.4c2.3,10.601,4.2,25.201,4.2,34.901
		c0,25.002-8.4,35.103-24.102,35.103H1700.446z"/>
	<path d="M204.167,531.5l7.301-24.002c-3.501-6-5.301-13.801-5.301-23.001c0-19.102,9.001-32.502,23.302-35.702l3.4-11.301h10.9
		l-3.301,10.7c2.4,0.301,4.601,0.7,6.701,1.4l3.7-12.101h11l-5.4,17.701c4.101,4,6.801,9.801,7.701,17.501H251.57
		c-1.301-11.001-6.501-15.801-15.102-15.801c-10.2,0-17.901,9.101-17.901,27.602s6.801,27.602,17.901,27.602
		c8.601,0,13.801-4.801,15.102-15.801h12.601c-1.9,16.9-12.601,24.701-27.702,24.701h-0.1l-3.2,10.501h-11.001l3.601-12.101
		c-2.2-0.7-4.301-1.801-6.101-3.001l-4.601,15.102H204.167z"/>
	<path d="M460.864,519.5h-11.001v-51.903h11.001v6.601c4.8-4.9,11.101-8.2,17.801-8.2c6.2,0,11.801,2.399,14.301,8.7
		c2.7-2.7,5.501-4.7,8.4-6.101l8.101-12.7h10.9l-6.5,10.2c7.7,0.601,14.001,5.2,14.001,16.901V519.5h-11.001v-34.202
		c0-6.9-2.9-10.101-8.601-10.4l-13.9,21.901V519.5h-11.001V514l-10.5,16.501h-10.901l21.401-33.603v-11.601c0-7.2-3-10.4-9.4-10.4
		c-4.801,0-10.001,2.8-13.101,5.9V519.5z"/>
	<path d="M760.264,519.5l-29.802-52.604l0.3,14.201V519.5h-10.601v-20.602h-9.701v-8.9h9.701v-11.4h-9.701v-8.801h9.701v-20.301
		h11.7l29.802,52.603l-0.3-14.2v-38.402h10.601v20.301h9.701v8.801h-9.701v11.4h9.701v8.9h-9.701V519.5H760.264z"/>
	<path d="M967.856,493.598v-8.501h10.801c6.9,0,12.4-2.8,13.4-10.801h-31.802v-8.8h31.002c-1.801-4.9-6.101-6.801-11.501-7.101
		h-19.501v-8.9h10h1.2h39.902v8.9h-13.2c2.2,2,3.8,4.4,4.8,7.101h8.4v8.8h-7.5c-1.2,13.001-11.4,18.502-22.602,19.201l27.102,26.002
		h-14.301L967.856,493.598z"/>
	<path d="M1251.655,519.5l-10-40.103l-3.601-15.101l-3.4,15.101l-10.2,40.103h-12.101l-5.4-20.602h-15.602v-8.9h13.301l-3-11.4
		h-10.301v-8.801h8.001l-5.301-20.301h12.401l9.2,41.502l3.3,14.901l3.4-14.901l10.201-41.502h12l10.301,41.502l3.5,15.201
		l3.101-15.201l8.601-41.502h10.9l-5,20.301h7.7v8.801h-9.9l-2.8,11.4h12.7v8.9h-14.9l-5.001,20.602H1251.655z"/>
	<path d="M1496.551,504.899v-5.2c-3.6,4.3-8.301,6.7-14.501,6.7c-9.601,0-18.501-7.2-18.501-21.802
		c0-14.701,9.801-21.901,19.901-21.901c5.4,0,10.4,2.301,13.101,6.001v-9.401h-11.801v-7.8h11.801v-6.4h10.801v6.4h7.2v7.8h-7.2
		v45.604H1496.551z M1463.549,519.5v-8.101h51.003v8.101H1463.549z M1496.551,475.397c-2.9-2.9-6.3-4.601-10.9-4.601
		c-5.601,0-11.101,4.2-11.101,13.801c0,9.501,5,13.701,10.601,13.701c4.601,0,8.5-2,11.4-5V475.397z"/>
	<path d="M1700.046,519.5v-32.302h-9.001v-8.9h9.001v-28.802h11.601v28.802h0.4l21.801-28.802h12.001l-22.802,28.802h23.102v8.9
		h-21.701l24.901,32.302h-14.2l-23.502-32.202V519.5H1700.046z"/>
	<path d="M234.869,755.998v8.4l12.4-5.2v9.2l-12.4,5.3V795.5h-11.601v-16.901l-12.401,5.2v-9.3l12.401-5.2v-8.401l-12.401,5.201
		v-9.301l12.401-5.2v-17.201h-18.802v-8.9h49.203v8.9h-18.801v12.301l12.4-5.2v9.2L234.869,755.998z"/>
	<path d="M494.799,752.797c-2.1,12.5-13.4,18.2-25.002,18.2h-8.7V795.5h-11.601v-42.702h-9.001v-8.901h9.001v-18.4h20.301
		c11.602,0,22.902,5.9,25.002,18.4h7.7v8.901H494.799z M461.097,743.896h21.802c-1.5-6.5-6.701-9.7-13.102-9.7h-8.7V743.896z
		 M469.797,762.297c6.301,0,11.501-3,13.102-9.5h-21.802v9.5H469.797z"/>
	<path d="M719.627,756.297c6.501-2.601,11.701-5.9,11.701-12.701c0-7.101-4.2-10.9-12.301-10.9s-12.701,3.5-13.501,11.4h-12.101
		c0.8-12.7,9.501-20.101,25.602-20.101c15.101,0,23.701,7.3,23.701,18.2c0,6.801-3,11.001-7.3,14.102h10v8.9h-30.201
		c-5.9,2.6-10.401,5.9-10.401,12.2c0,7.101,4.2,10.901,12.301,10.901s13.401-3.5,14.102-11.301h12.2
		c-0.8,12.601-10.2,20.001-26.302,20.001c-15.101,0-23.701-7.2-23.701-18.201c0-6.4,2.601-10.5,6.5-13.601h-8.2v-8.9H719.627z"/>
	<path d="M962.657,807.5V796.5c-16.201-2.5-24.602-16.101-24.602-36.002c0-19.701,9.501-33.302,24.602-36.002v-11.001h10.501v10.801
		c12.5,1.6,21.201,9.4,22.901,24.401h-12.601c-1.101-8.801-4.601-13.601-10.301-15.201V787.5c5.7-1.601,9.2-6.4,10.301-15.201
		h12.601c-1.7,15.101-10.401,22.901-22.901,24.401V807.5H962.657z M962.657,787.199v-53.203c-7.301,2.9-12.201,11.701-12.201,26.502
		C950.456,775.598,954.957,784.399,962.657,787.199z"/>
	<path d="M1208.687,807.5V795.5h-16.602v-70.004h16.602v-12.001h10.5v12.2c10.601,0.9,20.401,5.501,20.401,17.602
		c0,7.101-4.601,13.701-11.2,15.601c7.9,1.4,14.101,6.2,14.101,16.001c0,13.001-10.101,19.901-23.302,20.602V807.5H1208.687z
		 M1208.687,755.897v-21.701h-5.001v21.701H1208.687z M1208.687,786.799v-22.401h-5.001v22.401H1208.687z M1219.187,734.496v21.002
		c5.2-1.301,8.601-5.001,8.601-11.301C1227.787,737.996,1224.387,735.396,1219.187,734.496z M1219.187,764.498v22.201
		c7.601-0.6,11.401-4.7,11.401-11.801S1225.787,764.998,1219.187,764.498z"/>
	<path d="M1478.017,780.699c-4,2.6-8.9,4.101-14.501,4.101c-5.6,0-10.601-1.4-14.5-4.101l-8.201,8.2l-6.3-6.2l8.3-8.301
		c-2.8-4.1-4.3-9.101-4.3-14.9c0-5.7,1.5-10.701,4.2-14.801l-8.2-8.301l6.2-6.301l8.2,8.301c3.9-2.7,8.9-4.2,14.601-4.2
		c5.601,0,10.602,1.5,14.602,4.2l8.2-8.301l6.301,6.301l-8.301,8.2c2.7,4.101,4.3,9.201,4.3,14.901c0,5.8-1.6,10.9-4.3,15.001
		l8.2,8.2l-6.2,6.2L1478.017,780.699z M1477.217,759.498c0-11.701-5.7-17.701-13.701-17.701c-8,0-13.601,6-13.601,17.701
		c0,11.7,5.601,17.801,13.601,17.801C1471.517,777.298,1477.217,771.198,1477.217,759.498z"/>
	<path d="M1688.245,795.5l4.8-18.901h-9v-8.801h11.301l3.8-14.9h-10.101v-8.801h12.4l4.801-18.601h10.601l-4.801,18.601h15.901
		l4.801-18.601h10.601l-4.801,18.601h9.101v8.801h-11.4l-3.801,14.9h10.201v8.801h-12.501l-4.801,18.901h-10.601l4.801-18.901
		h-15.901l-4.8,18.901H1688.245z M1705.946,767.797h15.9l3.801-14.9h-15.901L1705.946,767.797z"/>
	<path d="M226.168,1083.5v-10.901c-12.5-1.699-20.101-8.9-20.601-22.001h12.101c0.6,7.4,3.7,11.301,8.5,12.801v-23.602
		c-9.601-2.2-19.801-5.8-19.801-19.501c0-10.9,8.101-18.401,19.801-20.001v-10.801h10.601v10.9c12.401,1.7,19.302,8.9,20.002,21.102
		h-12.201c-0.5-6.7-3.3-10.4-7.801-11.9v22.201c9.801,2.1,20.702,5.3,20.702,19.401c0,11.4-9.101,19.801-20.702,21.501v10.801
		H226.168z M226.168,1029.297v-20.102c-5,1.2-8.4,4.3-8.4,9.801C217.768,1025.097,221.268,1027.697,226.168,1029.297z
		 M236.769,1042.297v21.602c5.4-1.3,9.401-5,9.401-11.2C246.17,1046.398,242.069,1043.898,236.769,1042.297z"/>
	<path d="M439.564,1083.5V1072.5c-12.4-2.2-18.101-12.501-18.101-26.901c0-14.301,6.4-24.502,18.101-26.901v-11.102h10.601v10.901
		c10.101,1.7,16.102,8.4,17.102,18.301h-11.301c-0.9-5.601-2.601-8.801-5.801-10.2v37.902c3.001-1.4,4.9-4.501,5.701-9.901h11.4
		c-1.101,9.801-7.2,16.401-17.102,18.001v10.901H439.564z M439.564,1064.099v-36.803c-4.1,2.601-6.7,8.501-6.7,18.302
		C432.864,1055.598,435.265,1061.599,439.564,1064.099z"/>
	<path d="M630.661,1071.5v-8.9h8.4v-20.302h-8.4v-8.8h8.4v-12.501c0-13.301,9.2-21.001,21.701-21.001
		c13.601,0,22.001,6.7,22.701,20.101h-12.2c-0.7-8.601-5.001-11.4-10.501-11.4c-5.2,0-10.2,2.8-10.2,11.001v13.801h21.101v8.8
		h-21.101v20.302h31.102v8.9H630.661z"/>
	<path d="M864.858,1071.5v-8.9h-17.101v-8.801h17.101v-11.501h-17.101v-8.8h14.701l-19.602-32.002h12.501l16.101,27.602
		l15.401-27.602h10.5l-18.801,32.002h14.901v8.8h-17.102v11.501h17.102v8.801h-17.102v8.9H864.858z"/>
	<path d="M1077.255,1051.499h-15.7v-8.801h15.7v-22.302c0-13.301,6.501-20.4,17.501-20.4c11.301,0,16.901,6.1,17.701,15.801h-11.2
		c-0.7-4.9-2.2-7.101-6.2-7.101c-4.001,0-6.201,2.5-6.201,10.101v23.901h15.701v8.801h-15.701v21.901
		c0,13.301-8.3,20.401-19.301,20.401c-11.301,0-18.701-6.101-19.401-17.802h11.201c0.7,6.9,3.9,9.101,7.9,9.101s8-2.5,8-10.101
		V1051.499z"/>
	<path d="M1287.452,1051.499c1.7,8.4,5.4,12.601,11.601,12.601c7.301,0,10.102-4.801,11.401-15.801h12.601
		c-1.9,16.9-10.301,24.701-24.002,24.701c-13.2,0-20.501-8.101-23.301-21.501h-6.4v-8.801h5.3c-0.199-2-0.199-4-0.199-6.2
		c0-1.801,0.1-3.601,0.199-5.301h-5.3v-8.8h6.5c3-13.901,10.9-22.401,23.201-22.401c13.701,0,22.102,7.8,24.002,24.701h-12.601
		c-1.3-11.001-4.101-15.801-11.401-15.801c-5.8,0-9.8,4.5-11.601,13.501h13.401v8.8h-14.501c-0.101,1.7-0.101,3.5-0.101,5.301
		c0,2.2,0,4.3,0.101,6.2h14.501v8.801H1287.452z"/>
	<path d="M1483.748,1071.5l4.8-18.901h-6.7v-8.801h9.001l3.8-14.9h-7.801v-8.801h10.102l4.8-18.601h10.2l-4.8,18.601h11.801
		l4.8-18.601h10.201l-4.801,18.601h6.801v8.801h-9.101l-3.8,14.9h7.9v8.801h-10.201l-4.8,18.901h-10.201l4.801-18.901h-11.801
		l-4.801,18.901H1483.748z M1501.049,1043.797h11.801l3.801-14.9h-11.801L1501.049,1043.797z"/>
	<path d="M1723.046,1051.598c1.5-9.4,2.4-17.101,2.4-23.201c0-13.401-4.2-19.602-15.801-19.602h-6.501v62.704h-8.3v-70.004h15.801
		c14.7,0,22.801,6.2,22.801,26.201c0,6.5-0.8,14.301-2.6,23.901H1723.046z M1709.745,1071.5v-50.003h8.301v42.702h6.3
		c11.501,0,16.401-8.2,16.401-27.201c0-9.301-1.7-22.802-4.3-35.502h7.7c2.4,10.4,4.4,25.301,4.4,34.802
		c0,25.901-8.701,35.202-23.202,35.202H1709.745z"/>
	<path d="M213.367,1347.5h-8.9v-51.604h8.9v5.001c3.301-4.001,7.601-6.501,11.101-6.501c4.9,0,8.501,2.301,9.901,7.101
		c2.7-3.3,5.6-5.4,8.3-6.4l5.9-11.2h9.501l-6.301,11.9c3.101,1.7,5.001,5.301,5.001,10.7v41.003h-8.901v-38.803
		c0-1.7-0.3-3-0.699-4.1l-12.102,23.102v19.801h-8.9v-2.9l-7.3,13.901h-9.501l16.801-31.902v-17.901c0-4.6-1.7-6.7-4.7-6.7
		c-2.399,0-5.4,1.7-8.101,5V1347.5z M235.068,1309.597l2.801-5.4c-0.9,0.7-1.9,1.7-2.801,2.8V1309.597z"/>
	<path d="M456.065,1347.5l-9.8-21.302h-15.102v21.302h-9.101v-21.302h-5.8v-7.8h5.8v-12.301h-5.8v-7.801h5.8v-20.801h10.601
		l9.501,20.801h15.401v-20.801h9v20.801h5.9v7.801h-5.9v12.301h5.9v7.8h-5.9v21.302H456.065z M430.964,1298.296h2.4l-2.5-5.5
		L430.964,1298.296z M431.164,1306.097v12.301h11.501l-5.7-12.301H431.164z M451.466,1318.398h6.101v-12.301h-11.801
		L451.466,1318.398z M457.666,1326.198h-2.7l2.8,6.001L457.666,1326.198z"/>
	<path d="M666.763,1347.5l-3.399-21.302h-10.801l-3.4,21.302h-9.001l-2.899-21.302h-9.401v-7.8h8.401l-1.7-12.301h-6.701v-7.801
		h5.701l-2.801-20.801h8.801l2.101,20.801h8.6l3.2-20.801h9.301l3.101,20.801h8.301l1.8-20.801h7.801l-2.4,20.801h5.3v7.801h-6.2
		l-1.5,12.301h7.7v7.8h-8.601l-2.399,21.302H666.763z M643.662,1318.398h3.6l1.9-12.301h-6.7L643.662,1318.398z M645.162,1334.798
		l1.1-8.601h-1.9L645.162,1334.798z M653.763,1318.398h8.3l-1.899-12.301h-4.4L653.763,1318.398z M656.862,1298.296h2.101l-1-7.7
		L656.862,1298.296z M668.863,1318.398h3.5l1.101-12.301h-6.501L668.863,1318.398z M671.063,1335.199l0.7-9.001h-1.9
		L671.063,1335.199z"/>
	<path d="M879.159,1333.199v-5.5c-3.5,4.5-8.2,7-14.601,7c-9.301,0-18.801-7-18.801-22.102c0-15.101,10.2-22.001,20.201-22.001
		c5.601,0,10.7,2.4,13.2,6v-9.801h-12.4v-7.1h12.4v-6.601h9.401v6.601h7.7v7.1h-7.7v46.403H879.159z M845.758,1347.5v-7.4h50.503
		v7.4H845.758z M879.159,1303.097c-3.1-3.301-6.7-5.101-11.9-5.101c-5.7,0-11.7,4.2-11.7,14.601c0,10.501,5.5,14.701,11.2,14.701
		c5.2,0,9.301-2.3,12.4-5.5V1303.097z"/>
	<path d="M1063.555,1347.5v-32.902h-8.501v-7.8h8.501v-29.302h10.101v29.302h0.3l22.201-29.302h10.801l-23.102,29.302h23.401v7.8
		h-22.201l25.201,32.902h-12.601l-24.001-32.702v32.702H1063.555z"/>
	<path d="M1300.953,1308.397v6.9l12.701-5.7v8.2l-12.701,5.7v24.002h-10.101v-19.602l-12.7,5.601v-8.2l12.7-5.601v-6.9l-12.7,5.601
		v-8.201l12.7-5.6v-19.302h-19.301v-7.8h48.703v7.8h-19.302v14.901l12.701-5.7v8.2L1300.953,1308.397z"/>
	<path d="M1508.949,1308.797c7.4-2.7,13.501-5.9,13.501-13.401c0-7.7-4.601-11.7-13.101-11.7c-8.4,0-13.401,3.6-14.201,11.801h-10.7
		c0.7-12.001,9.301-19.501,24.901-19.501c14.801,0,23.102,7.5,23.102,18.301c0,7.101-3.2,11.4-7.601,14.501h10.301v7.8h-28.502
		c-6.9,2.7-12.4,5.9-12.4,13.001c0,7.701,4.6,11.701,13.2,11.701c8.4,0,14.101-3.601,15.001-11.801h10.701
		c-0.7,12.001-10.101,19.501-25.702,19.501c-14.801,0-23.201-7.5-23.201-18.301c0-6.7,2.9-11.001,7-14.102h-8.7v-7.8H1508.949z"/>
	<path d="M1718.346,1359.5V1348.5c-15.001-2.4-23.401-16.001-23.401-36.002c0-19.802,9.301-33.402,23.401-36.002v-11.001h9.2v10.801
		c11.301,1.399,19.901,9.101,21.802,23.801h-11.201c-1.199-9.2-5.1-14.2-10.601-15.7v56.303c5.501-1.5,9.401-6.4,10.601-15.801
		h11.201c-1.9,14.801-10.501,22.401-21.802,23.802v10.801H1718.346z M1718.346,1340.399v-55.604
		c-7.2,2.7-12.801,11.701-12.801,27.702C1705.545,1328.898,1710.646,1337.799,1718.346,1340.399z"/>
	<path d="M225.668,1635.5V1623.5h-16.9v-70.004h16.9v-12.001h9.201v12.2c10.5,0.801,20.301,5.4,20.301,17.502
		c0,7.4-5,14.101-11.4,15.9c7.4,1,14.301,5.5,14.301,15.801c0,12.901-9.7,20.002-23.201,20.602v12.001H225.668z M225.668,1584.397
		v-23.201h-6.8v23.201H225.668z M225.668,1615.799v-23.802h-6.8v23.802H225.668z M234.869,1561.396v22.701
		c6.2-1.2,9.9-5.4,9.9-12.301C244.77,1565.096,240.869,1562.196,234.869,1561.396z M234.869,1592.097v23.702
		c8.9-0.601,12.801-5.2,12.801-12.901C247.67,1595.297,242.369,1592.498,234.869,1592.097z"/>
	<path d="M464.509,1609.099c-3.7,2.399-8.301,3.7-13.601,3.7c-5.4,0-10.001-1.301-13.701-3.7l-7.8,7.8l-6.201-6.2l7.801-7.801
		c-2.8-4.2-4.2-9.5-4.2-15.4s1.4-11.101,4.2-15.301l-7.801-7.801l6.201-6.301l7.8,7.9c3.7-2.399,8.301-3.8,13.701-3.8
		c5.3,0,10,1.4,13.701,3.8l7.8-7.9l6.2,6.301l-7.8,7.801c2.7,4.2,4.2,9.4,4.2,15.301s-1.5,11.2-4.2,15.4l7.8,7.801l-6.2,6.2
		L464.509,1609.099z M463.608,1587.498c0-11.701-4.7-17.701-12.7-17.701c-8.001,0-12.701,6-12.701,17.701
		c0,11.7,4.7,17.801,12.701,17.801C458.908,1605.298,463.608,1599.198,463.608,1587.498z"/>
	<path d="M645.246,1623.5l4.8-18.901h-6.7v-8.801h9.001l3.8-14.9h-7.801v-8.801h10.102l4.8-18.601h10.2l-4.8,18.601h11.801
		l4.8-18.601h10.201l-4.801,18.601h6.801v8.801h-9.101l-3.8,14.9h7.9v8.801h-10.201l-4.8,18.901h-10.201l4.801-18.901h-11.801
		l-4.801,18.901H645.246z M662.547,1595.797h11.801l3.801-14.9h-11.801L662.547,1595.797z"/>
	<path d="M881.986,1632.8v-8.201c-10.4-1.399-16.801-7.3-17.201-17.101h9.901c0.5,5.301,3.3,8.501,7.3,9.9v-18.401
		c-8.301-1.899-16.4-4.8-16.4-15.4c0-8.4,6.7-14.401,16.4-15.601v-8.101h8.9v8.3c10.201,1.4,16.001,7.201,16.501,16.401h-9.9
		c-0.399-4.801-2.9-7.801-6.601-9.101v16.901c8.4,2,17.001,5.2,17.001,15.9c0,8.9-7.4,15.201-17.001,16.501v8.001H881.986z
		 M881.986,1590.398v-15.401c-4.1,0.9-7.2,3.5-7.2,7.601C874.786,1586.998,877.887,1589.097,881.986,1590.398z M890.887,1600.999
		v16.801c4.301-1,7.9-3.801,7.9-8.501C898.787,1604.798,895.287,1602.499,890.887,1600.999z"/>
	<path d="M1092.027,1632.8v-8.201c-9.901-1.8-14.602-10-14.602-21.201c0-11,4.7-19.201,14.602-21.101v-8.201h8.9v8.201
		c8,1.3,12.9,6.5,13.7,13.7h-9.101c-0.8-4.2-2.199-6.2-4.6-7.101V1618c2.4-0.9,3.8-2.9,4.5-7.001h9.101
		c-0.8,7.2-5.7,12.301-13.601,13.601v8.201H1092.027z M1092.027,1617.599v-28.302c-3.601,1.8-5.501,6.2-5.501,14.101
		C1086.526,1611.399,1088.526,1615.799,1092.027,1617.599z"/>
	<path d="M1280.365,1623.5v-7h6.4v-15.201h-6.4v-7.001h6.4v-9.9c0-10.601,8.001-16.601,17.802-16.601c10.3,0,17.701,5.1,18.201,15.4
		h-9.801c-0.8-6.3-4-8.601-8.4-8.601c-4.501,0-8.301,2.501-8.301,8.801v10.9h16.801v7.001h-16.801v15.201h24.802v7H1280.365z"/>
	<path d="M1507.307,1623.5v-6.801h-13.701v-6.9h13.701v-8.7h-13.701v-6.9h11.301l-16.101-25.002h10.501l13.4,21.901l12.501-21.901
		h9.2l-15.301,25.002h11.301v6.9h-13.701v8.7h13.701v6.9h-13.701v6.801H1507.307z"/>
	<path d="M1729.547,1607.899v16.601c0,10.601-7.801,16.602-17.001,16.602c-9.4,0-16.601-5.101-17.101-14.501h9.9
		c0.7,5.6,3.7,7.7,7.2,7.7c3.9,0,7.4-2.2,7.4-8.801v-17.601h-11.801v-7.001h11.801v-16.501c0-10.601,7.801-16.601,17.001-16.601
		c9.4,0,16.501,5.1,17.102,14.501h-9.9c-0.7-5.701-3.701-7.701-7.201-7.701c-4,0-7.4,2.2-7.4,8.801v17.501h12.001v7.001H1729.547z"
		/>
	<path d="M220.168,1883.798c2,6.9,6,10.301,11.501,10.301c6.1,0,10-3.4,11.2-12.101h10.301c-1.7,12.801-10.7,19.001-21.501,19.001
		c-11.201,0-18.602-6.5-21.502-17.201h-6.6v-6.9h5.399c-0.199-1.4-0.199-2.9-0.199-4.5c0-1.4,0.1-2.8,0.199-4.101h-5.399v-6.8h6.5
		c2.8-10.901,10.301-17.701,21.602-17.701c10.801,0,19.801,6.2,21.501,19.001h-10.301c-1.2-8.7-5.101-12.101-11.2-12.101
		c-5.601,0-9.701,3.6-11.701,10.801h14.301v6.8h-15.4c-0.101,1.301-0.101,2.7-0.101,4.101c0,1.6,0.101,3.1,0.2,4.5h15.301v6.9
		H220.168z"/>
	<path d="M444.551,1884.098c1.2-7.3,1.9-13.2,1.9-18.001c0-9.3-3.4-13.9-12.601-13.9h-7.7v47.303h-8.201v-54.304h16.701
		c13.001,0,19.802,4.9,19.802,20.302c0,5.101-0.601,11.2-2.001,18.601H444.551z M431.75,1899.5v-38.803h8.201v31.803h6.8
		c9.501,0,13.401-6.501,13.401-19.802c0-7.2-1.301-17.601-3.4-27.502h7.801c1.899,8.201,3.6,19.602,3.6,27.002
		c0,20.102-7.5,27.302-20.601,27.302H431.75z"/>
	<path d="M629.232,1908.8l5.7-17.901c-3.101-4.8-4.8-11.101-4.8-18.501c0-15.301,7.2-26.002,19.801-28.202l2.7-8.3h8.9l-2.7,8.2
		c1.7,0.2,3.2,0.5,4.7,1l3-9.2h8.901l-4.301,13.4c3.5,3.2,5.9,7.601,6.7,13.501h-10.2l-0.3-1.7L656.634,1894
		c6.001-0.5,9.801-4.101,11.001-12.001h10.2c-1.6,12.801-11.301,19.001-23.001,19.001h-0.4l-2.5,7.801h-8.801l2.9-9.201
		c-1.5-0.5-3-1.199-4.4-2l-3.6,11.201H629.232z M639.433,1876.999l7.701-24.102c-4.801,3.2-7.901,9.7-7.901,19.501
		C639.232,1873.998,639.232,1875.598,639.433,1876.999z M648.233,1892.799l13.101-40.703c-1.399-0.699-2.9-1.1-4.6-1.3
		l-12.602,39.003C645.333,1891.099,646.733,1892.099,648.233,1892.799z"/>
	<path d="M852.115,1908l16.601-23.702v-10c0-6.001-1.899-8.801-7.3-8.801c-4.2,0-8.301,2.5-10.801,5v29.002h-8.9v-40.103h8.9v5.2
		c3.7-3.8,8.4-6.5,13.601-6.5c5.801,0,9.801,2.1,11.801,6.5c2.8-2.7,6.601-4.8,10.501-5.8l6-8.601h9.001l-5.9,8.4
		c5.5,1.4,9,5.7,9,13.701v27.201h-8.9v-25.201c0-5.101-1.4-7.801-5.101-8.601l-13,18.701v15.101h-8.901v-2.3L861.115,1908H852.115z
		 M877.517,1871.598l3.101-4.4c-1.301,0.6-2.4,1.399-3.2,2.2C877.517,1870.098,877.517,1870.898,877.517,1871.598z"/>
	<path d="M1104.7,1899.5l-8.701-15.701h-14.601v15.701h-8.5v-15.701h-7.701v-6.9h7.701v-8.601h-7.701v-6.8h7.701v-16.302h9.8
		l9.001,16.302H1106v-16.302h8.501v16.302h7.7v6.8h-7.7v8.601h7.7v6.9h-7.7v15.701H1104.7z M1081.299,1861.498h2.399l-2.399-4.301
		V1861.498z M1081.398,1868.297v8.601h10.801l-4.801-8.601H1081.398z M1100.199,1876.898H1106v-8.601h-10.501L1100.199,1876.898z
		 M1106.1,1883.798h-2l2.101,3.801L1106.1,1883.798z"/>
	<path d="M1313.582,1864.297c-1,9.501-8.4,13.9-17.601,14.801l21.601,20.401h-12.101l-21.301-20.301v-6.801h8.3
		c6.201,0,10.501-2.4,11.301-8.101h-25.201v-6.801h24.602c-1.5-3.5-5-5.3-9.7-5.5h-14.901v-6.801h8.4h1.101h30.502v6.801h-9.001
		c1.6,1.601,2.7,3.4,3.4,5.5h5.601v6.801H1313.582z"/>
	<path d="M1527.066,1899.5l-4.601-15.701h-15.2l-4.301,15.701h-8.7l-4.501-15.701h-13.301v-6.9h11.301l-2.5-8.601h-8.801v-6.8h6.9
		l-4.7-16.302h10.501l3.9,16.302h13.101l4.601-16.302h8.601l4.7,16.302h12.9l3.601-16.302h9.2l-4.3,16.302h6.5v6.8h-8.301
		l-2.199,8.601h10.5v6.9h-12.301l-4.1,15.701H1527.066z M1496.665,1876.898h5.1l2.5-8.601h-9.601L1496.665,1876.898z
		 M1499.064,1887.699l1-3.9h-1.899L1499.064,1887.699z M1509.165,1876.898h11.301l-2.5-8.601h-6.4L1509.165,1876.898z
		 M1513.365,1861.498h2.601l-1.3-4.9L1513.365,1861.498z M1528.467,1876.898h5.1l1.9-8.601h-9.5L1528.467,1876.898z
		 M1531.467,1887.798l0.8-4h-1.9L1531.467,1887.798z"/>
	<path d="M1735.948,1888.099v-4.301c-2.801,3.601-6.4,5.501-11.501,5.501c-7.4,0-15.102-5.501-15.102-17.001
		c0-11.501,8.201-17.002,16.302-17.002c4.4,0,8.3,2.001,10.301,4.801v-7.7h-9.701v-6.301h9.701v-4.3h8.601v4.3h5.2v6.301h-5.2
		v35.702H1735.948z M1709.346,1899.5v-6.801h40.403v6.801H1709.346z M1735.948,1865.898c-2.501-2.501-5.101-4.001-9.401-4.001
		c-4.2,0-8.2,3-8.2,10.401c0,7.5,3.601,10.4,7.801,10.4c4.3,0,7.3-1.7,9.801-4.301V1865.898z"/>
	<path d="M228.868,2144.898v6l9.701-4.101v7.301l-9.701,4.101v17.301h-9.5v-13.301l-9.701,4.101v-7.4l9.701-4.001v-6l-9.701,4v-7.4
		l9.701-4v-13.301h-14.901v-7.001h39.303v7.001h-14.901v9.301l9.701-4.101v7.4L228.868,2144.898z"/>
	<path d="M486.749,2141.998c-1.601,9.801-10.501,14.4-19.901,14.4h-7.2v19.102h-9.401v-33.502h-7.1v-6.801h7.1v-14.001h16.602
		c9.301,0,18.001,4.601,19.801,14.001h6.101v6.801H486.749z M459.647,2135.197h17.301c-1.101-5-4.9-7.101-10.101-7.101h-7.2
		V2135.197z M466.848,2149.498c5.3,0,9.2-2.1,10.2-7.5h-17.4v7.5H466.848z"/>
	<path d="M714.027,2151.999c-5.101,2-9.201,4.5-9.201,9.9c0,5,3.801,8.3,9.701,8.3c6.7,0,10.5-3,11.101-8.4h9.9
		c-0.601,9.301-8.4,15.201-21.001,15.201c-12.001,0-18.901-5.9-18.901-14.4c0-4.9,1.8-8.201,4.601-10.601h-6.9v-6.801h21.801
		c5.801-2.101,10.601-4.5,10.601-10.301c0-5.101-3.7-8.301-9.7-8.301c-6.701,0-9.701,2.9-10.501,8.4h-9.801
		c0.601-9.4,7.701-15.2,20.302-15.2c12,0,18.9,5.9,18.9,14.301c0,5.3-2.199,8.7-5.3,11.101h8.2v6.801H714.027z"/>
	<path d="M962.307,2184.8v-8.201c-12.7-2.1-19.9-12.801-19.9-28.201c0-15.301,7.2-26.102,19.9-28.202v-8.3h8.9v8.2
		c9.801,1.3,17.502,7.5,18.901,18.701h-10.2c-1.101-6.9-4-10.4-8.701-11.601v42.502c4.701-1.199,7.601-4.8,8.701-11.7h10.2
		c-1.399,11.301-9.101,17.401-18.901,18.701v8.101H962.307z M962.307,2169.299v-41.703c-6.2,2.301-9.8,9.301-9.8,20.802
		C952.507,2159.999,956.106,2166.999,962.307,2169.299z"/>
	<path d="M1211.888,2184.8v-9.301h-13.602v-54.304h13.602v-9.3h8.9v9.4c9.601,0.8,17.201,5,17.201,14.501
		c0,5.7-4.001,10.101-9.101,11.5c5.9,0.801,11.4,4.9,11.4,12.801c0,10.001-8.001,15.001-19.501,15.401v9.301H1211.888z
		 M1211.888,2144.797v-16.801h-4.2v16.801H1211.888z M1211.888,2168.699v-17.201h-4.2v17.201H1211.888z M1220.788,2128.197v16.4
		c4.6-0.8,7.5-3.3,7.5-8.5C1228.288,2130.997,1225.388,2128.796,1220.788,2128.197z M1220.788,2151.598v17.101
		c6.7-0.3,9.801-2.8,9.801-8.601C1230.589,2154.398,1226.488,2151.898,1220.788,2151.598z"/>
	<path d="M1479.168,2164.099c-3.1,1.899-6.9,2.899-11.101,2.899s-7.9-1-11.001-2.899l-6.8,6.6l-5.7-5.5l6.7-6.5
		c-2.101-3.101-3.2-6.9-3.2-11.101c0-4.101,1.1-7.9,3.2-11.001l-6.801-6.601l5.801-5.5l6.8,6.601c3.101-1.801,6.801-2.9,11.001-2.9
		s8.001,1.1,11.101,2.9l6.801-6.601l5.7,5.5l-6.801,6.601c2.101,3.101,3.301,6.801,3.301,11.001s-1.2,8-3.301,11.101l6.701,6.5
		l-5.601,5.5L1479.168,2164.099z M1468.067,2160.899c5.9,0,11.001-4.001,11.001-13.301c0-9.201-5.101-13.301-11.001-13.301
		c-5.8,0-10.9,4.1-10.9,13.301C1457.167,2156.898,1462.268,2160.899,1468.067,2160.899z"/>
	<path d="M1699.245,2175.5l3.801-14.4h-7.501v-6.801h9.301l3.101-11.701h-8.4v-6.8h10.2l3.9-14.602h8.7l-3.9,14.602h12.501
		l3.9-14.602h8.7l-3.9,14.602h7.601v6.8h-9.4l-3.1,11.701h8.5v6.801h-10.301l-3.8,14.4h-8.701l3.801-14.4h-12.501l-3.8,14.4
		H1699.245z M1713.546,2154.298h12.501l3.101-11.701h-12.501L1713.546,2154.298z"/>
</g>
</svg>
