<?xml version="1.0" encoding="utf-8"?>
<!-- Generator: Adobe Illustrator 16.0.3, SVG Export Plug-In . SVG Version: 6.00 Build 0)  -->
<!DOCTYPE svg PUBLIC "-//W3C//DTD SVG 1.1//EN" "http://www.w3.org/Graphics/SVG/1.1/DTD/svg11.dtd">
<svg version="1.1" id="Layer_1" xmlns="http://www.w3.org/2000/svg" xmlns:xlink="http://www.w3.org/1999/xlink" x="0px" y="0px"
	 width="2007.464px" height="1562.097px" viewBox="0 0 2007.464 1562.097" enable-background="new 0 0 2007.464 1562.097"
	 xml:space="preserve">
<rect fill="#FFFFFF" width="2007.464" height="1562.097"/>
<g>
	<path d="M223.769,199.497v-3c-2.2,1.9-5.501,3.9-10.101,3.9c-6.601,0-9.801-3.7-9.801-8.4c0-5.7,4.5-9.601,15.301-9.601
		c1.4,0,2.9,0.1,4.601,0.3v-2.8c0-3.7-2.4-5.101-5.101-5.101c-3.9,0-5.601,2.1-5.7,5h-8.301c0.1-7.101,6-10.801,14.001-10.801
		c5.7,0,13.301,2.101,13.301,10.201v20.301H223.769z M223.769,187.296c-1.601-0.101-2.9-0.2-4.2-0.2c-5.801,0-7.501,2-7.501,4.101
		c0,2.3,1.601,3.5,4.601,3.5s5.8-1.7,7.101-2.801V187.296z"/>
	<path d="M398.177,199.497v-42.402h8.101v15.901c2.7-2.601,5-4.001,8.8-4.001c6.701,0,12.301,5.301,12.301,15.701
		c0,10.301-6.3,15.701-13.4,15.701c-3.3,0-5.801-1.4-7.7-3.5v2.6H398.177z M406.277,178.295v13.001c1.7,1.8,3.7,2.8,6.3,2.8
		c3.7,0,6.4-2.5,6.4-9.4s-2.6-9.4-6.3-9.4C410.277,175.295,407.978,176.595,406.277,178.295z"/>
	<path d="M618.889,189.896c-0.601,6.4-5.801,10.501-13.701,10.501c-9.701,0-15.001-6.301-15.001-15.701s5.9-15.701,15.001-15.701
		c7.9,0,13.2,4.101,13.801,10.701h-8.301c-0.8-3.301-2.3-4.9-5.5-4.9c-3.4,0-6.601,2.4-6.601,9.9c0,7.501,2.8,9.9,6.601,9.9
		c3,0,4.7-1.5,5.4-4.7H618.889z"/>
	<path d="M802.798,199.497v-3c-2.7,2.5-4.9,3.9-8.7,3.9c-6.7,0-12.301-5.4-12.301-15.701c0-10.4,6.2-15.701,13.4-15.701
		c3.301,0,5.801,1.4,7.601,3.501v-15.401h8.201v42.402H802.798z M802.798,191.096v-13.001c-1.6-1.7-3.6-2.8-6.2-2.8
		c-3.7,0-6.5,2.5-6.5,9.4s2.7,9.4,6.4,9.4C798.897,194.096,801.198,192.796,802.798,191.096z"/>
	<path d="M983.907,186.096c0.3,6.2,2.601,8.5,6.601,8.5c3.5,0,4.3-1.399,5-3.5h8.4c-0.7,5.4-6,9.301-13.4,9.301
		c-9.601,0-15.001-6.301-15.001-15.701s6.2-15.701,14.701-15.701c9,0,14.9,5.4,14.2,17.102H983.907z M984.107,180.996h11.9
		c-0.1-3.9-1.8-6.301-5.8-6.301C986.907,174.695,984.808,176.496,984.107,180.996z"/>
	<path d="M1171.717,199.497v-23.701h-5.301v-5.9h5.301v-3.4c0-7.7,4.5-10.301,10.7-10.301c1.4,0,4.101,0.301,5.501,1v5.601
		c-1.4-0.3-2.801-0.5-3.9-0.5c-2.801,0-4.2,1.101-4.2,4.2v3.4h8.101v5.9h-8.101v23.701H1171.717z"/>
	<path d="M1370.827,196.197c-2.7,2.6-4.9,3.9-8.7,3.9c-6.7,0-12.301-5.2-12.301-15.602c0-10.301,6.2-15.501,13.4-15.501
		c3.301,0,5.801,1.4,7.601,3.501v-2.601h8.201v29.302c0,8.9-7.301,13.001-14.501,13.001c-8.501,0-13.901-3.4-14.102-9.801h8.201
		c0.3,2.9,2.3,4.101,5.9,4.101c3.399,0,6.3-1.4,6.3-6.601V196.197z M1370.827,190.896v-12.801c-1.6-1.7-3.6-2.8-6.2-2.8
		c-3.7,0-6.5,2.3-6.5,9.2c0,7.001,2.7,9.4,6.4,9.4C1366.927,193.896,1369.228,192.596,1370.827,190.896z"/>
	<path d="M1545.236,199.497v-42.402h8.101v16.401c2.899-2.801,6.2-4.501,10.2-4.501c5.101,0,10.501,2.601,10.501,9.801v20.701h-8.2
		v-18.001c0-4.101-1.601-5.9-5.4-5.9c-2.9,0-5.201,1.4-7.101,3.2v20.701H1545.236z"/>
	<path d="M1744.846,165.794c-2.699,0-4.899-2.1-4.899-4.8s2.2-4.7,4.899-4.7c2.801,0,4.9,2,4.9,4.7
		S1747.646,165.794,1744.846,165.794z M1740.846,199.497v-29.602h8.101v29.602H1740.846z"/>
	<path d="M209.467,441.794c-2.699,0-4.899-2.1-4.899-4.8s2.2-4.7,4.899-4.7c2.801,0,4.9,2,4.9,4.7S212.268,441.794,209.467,441.794z
		 M205.467,487.398v-41.503h8.101v41.503H205.467z"/>
	<path d="M380.026,475.497v-42.402h8.101v26.302l10.2-13.501h8.601l-10.601,13.201l11.801,16.4h-9.601l-10.4-15.2v15.2H380.026z"/>
	<path d="M570.786,475.497v-42.402h8.101v42.402H570.786z"/>
	<path d="M745.946,475.497v-29.602h8.101v3.601c2.9-2.801,6.1-4.501,10-4.501c3.601,0,7.301,1.301,9.101,4.7
		c3.501-3.2,7.501-4.7,11.201-4.7c5.101,0,10.2,2.601,10.2,9.801v20.701h-8.101v-18.001c0-4.101-1.7-5.9-5.2-5.9
		c-2.5,0-5.1,1.4-6.9,3.101v0.1v20.701h-8.2v-18.001c0-4.101-1.7-5.9-5.2-5.9c-2.5,0-5.101,1.4-6.9,3.2v20.701H745.946z"/>
	<path d="M959.905,460.696c0-9.4,6.101-15.701,15.601-15.701c9.4,0,15.401,6.301,15.401,15.701s-6.001,15.701-15.401,15.701
		C966.006,476.397,959.905,470.096,959.905,460.696z M982.606,460.696c0-6.8-2.6-9.9-7.101-9.9c-4.6,0-7.2,3.101-7.2,9.9
		c0,6.801,2.601,9.9,7.2,9.9C980.007,470.596,982.606,467.497,982.606,460.696z"/>
	<path d="M1156.266,487.398v-41.503h8.101v3.101c2.7-2.601,5-4.001,8.8-4.001c6.701,0,12.301,5.301,12.301,15.701
		c0,10.301-6.3,15.701-13.4,15.701c-3.3,0-5.801-1.4-7.7-3.5v14.501H1156.266z M1164.366,454.295v13.001c1.7,1.8,3.7,2.8,6.3,2.8
		c3.7,0,6.4-2.5,6.4-9.4s-2.6-9.4-6.3-9.4C1168.366,451.295,1166.066,452.595,1164.366,454.295z"/>
	<path d="M1350.825,475.497v-29.602h8.2v4.601c2.4-3.501,5-5.501,8.2-5.501c1.7,0,2.9,0.5,3.801,1.4v6.801
		c-1.4-0.601-2.5-0.9-4.301-0.9c-3.399,0-6.2,1.7-7.7,3.8v19.401H1350.825z"/>
	<path d="M1546.485,451.795v13.801c0,3.2,0.7,4.7,3.399,4.7c1.301,0,3.101-0.3,4.701-0.8v5.5c-1.9,0.8-5.101,1.4-7.001,1.4
		c-5.4,0-9.2-2.601-9.2-9.7v-14.901h-5.301v-5.9h5.301v-8.001h8.101v8.001h7.7v5.9H1546.485z"/>
	<path d="M1740.246,445.895h8.101v29.602h-8.101v-3.5c-2.9,2.8-6,4.5-10,4.5c-5.101,0-10.301-2.6-10.301-9.8v-20.802h8.101v18.102
		c0,4.1,1.5,5.899,5.3,5.899c2.9,0,5.101-1.399,6.9-3.199V445.895z"/>
	<path d="M214.367,751.497l-12.101-29.602h8.9l4.301,12.501l2.9,8.4l2.8-8.4l4.301-12.501h7.8l-11.7,29.602H214.367z"/>
	<path d="M420.565,751.497l-3.8-12.101l-2.501-8.301l-2.5,8.301l-3.8,12.101h-7.2l-10.901-29.602h8.601l3.9,12.301l2.3,8.301
		l2.4-8.301l3.801-12.301h7l4,12.301l2.5,8.4l2.301-8.4l3.8-12.201h7.7l-10.601,29.502H420.565z"/>
	<path d="M616.963,751.497l-6.9-10.101l-6.9,10.101h-8.301l10.901-15.2l-10.301-14.401h8.9l5.9,8.7l5.9-8.7h8.2l-9.801,13.801
		l11.401,15.801H616.963z"/>
	<path d="M789.459,763.398l5.001-12.301l-11.901-29.202h8.9l4.301,12.501l2.9,8.4l2.8-8.4l4.3-12.501h7.801l-16.201,41.503H789.459z
		"/>
	<path d="M971.056,751.497v-5.9l14.9-17.801h-14.301v-5.9h23.702v5.9l-14.901,17.801h14.901v5.9H971.056z"/>
	<path d="M1174.355,807.5v-3c-2.2,1.899-5.501,3.899-10.101,3.899c-6.601,0-9.801-3.7-9.801-8.4c0-5.7,4.5-9.601,15.301-9.601
		c1.4,0,2.9,0.101,4.601,0.3v-2.8c0-3.7-2.4-5.101-5.101-5.101c-3.9,0-5.601,2.101-5.7,5.001h-8.301
		c0.1-7.101,6-10.801,14.001-10.801c5.7,0,13.301,2.1,13.301,10.2V807.5H1174.355z M1174.355,795.299c-1.601-0.1-2.9-0.2-4.2-0.2
		c-5.801,0-7.501,2-7.501,4.101c0,2.3,1.601,3.5,4.601,3.5s5.8-1.7,7.101-2.8V795.299z"/>
	<path d="M1344.351,807.5v-42.403h8.101v15.901c2.7-2.6,5-4,8.8-4c6.701,0,12.301,5.3,12.301,15.701c0,10.3-6.3,15.7-13.4,15.7
		c-3.3,0-5.801-1.399-7.7-3.5v2.601H1344.351z M1352.451,786.299v13c1.7,1.801,3.7,2.801,6.3,2.801c3.7,0,6.4-2.5,6.4-9.4
		s-2.6-9.401-6.3-9.401C1356.451,783.298,1354.151,784.599,1352.451,786.299z"/>
	<path d="M1560.648,797.9c-0.6,6.4-5.8,10.5-13.7,10.5c-9.701,0-15.001-6.3-15.001-15.7c0-9.401,5.9-15.701,15.001-15.701
		c7.9,0,13.2,4.101,13.801,10.7h-8.301c-0.8-3.3-2.3-4.9-5.5-4.9c-3.4,0-6.601,2.4-6.601,9.901c0,7.5,2.8,9.9,6.601,9.9
		c3,0,4.7-1.5,5.4-4.7H1560.648z"/>
	<path d="M1740.146,807.5v-3c-2.7,2.5-4.9,3.899-8.7,3.899c-6.7,0-12.301-5.4-12.301-15.7c0-10.401,6.2-15.701,13.4-15.701
		c3.301,0,5.801,1.4,7.601,3.5v-15.401h8.201V807.5H1740.146z M1740.146,799.1v-13.001c-1.6-1.7-3.6-2.801-6.2-2.801
		c-3.7,0-6.5,2.501-6.5,9.401s2.7,9.4,6.4,9.4C1736.245,802.1,1738.546,800.8,1740.146,799.1z"/>
	<path d="M211.567,1070.099c0.3,6.101,2.601,8.501,6.601,8.501c3.5,0,4.3-1.4,5-3.5h8.4c-0.7,5.4-6,9.3-13.4,9.3
		c-9.601,0-15.001-6.3-15.001-15.7c0-9.401,6.2-15.701,14.701-15.701c9,0,14.9,5.4,14.2,17.101H211.567z M211.768,1065h11.9
		c-0.1-3.9-1.8-6.301-5.8-6.301C214.567,1058.699,212.468,1060.499,211.768,1065z"/>
	<path d="M419.416,1080.2c-2.7,2.601-4.9,3.9-8.7,3.9c-6.7,0-12.301-5.2-12.301-15.601c0-10.301,6.2-15.501,13.4-15.501
		c3.301,0,5.801,1.4,7.601,3.5v-2.601h8.201v29.303c0,8.9-7.301,13-14.501,13c-8.501,0-13.901-3.399-14.102-9.8h8.201
		c0.3,2.899,2.3,4.1,5.9,4.1c3.399,0,6.3-1.399,6.3-6.601V1080.2z M419.416,1074.9v-12.801c-1.6-1.7-3.6-2.801-6.2-2.801
		c-3.7,0-6.5,2.301-6.5,9.201c0,7,2.7,9.4,6.4,9.4C415.516,1077.9,417.816,1076.6,419.416,1074.9z"/>
	<path d="M597.263,1083.5v-42.403h8.101v16.401c2.9-2.8,6.2-4.5,10.2-4.5c5.101,0,10.501,2.6,10.501,9.801v20.701h-8.201V1065.5
		c0-4.101-1.6-5.9-5.399-5.9c-2.9,0-5.201,1.399-7.101,3.2v20.701H597.263z"/>
	<path d="M800.309,1049.798c-2.699,0-4.899-2.101-4.899-4.801s2.2-4.7,4.899-4.7c2.801,0,4.9,2,4.9,4.7
		S803.109,1049.798,800.309,1049.798z M796.309,1083.5v-29.603h8.101v29.603H796.309z"/>
	<path d="M978.057,1049.798c-2.7,0-4.9-2.101-4.9-4.801s2.2-4.7,4.9-4.7c2.8,0,4.899,2,4.899,4.7S980.856,1049.798,978.057,1049.798
		z M974.056,1095.401v-41.503h8.101v41.503H974.056z"/>
	<path d="M1151.203,1083.5v-42.403h8.101v26.302l10.2-13.501h8.601l-10.601,13.201l11.801,16.401h-9.601l-10.4-15.201v15.201
		H1151.203z"/>
	<path d="M1344.551,1083.5v-42.403h8.101v42.403H1344.551z"/>
	<path d="M1522.297,1083.5v-29.603h8.101v3.601c2.899-2.8,6.2-4.5,10.2-4.5c5.101,0,10.501,2.6,10.501,9.801v20.701h-8.2V1065.5
		c0-4.101-1.601-5.9-5.4-5.9c-2.9,0-5.201,1.399-7.101,3.2v20.701H1522.297z"/>
	<path d="M1719.044,1068.7c0-9.401,6.101-15.701,15.601-15.701c9.4,0,15.401,6.3,15.401,15.701c0,9.4-6.001,15.7-15.401,15.7
		C1725.145,1084.4,1719.044,1078.1,1719.044,1068.7z M1741.745,1068.7c0-6.801-2.6-9.901-7.101-9.901c-4.6,0-7.2,3.101-7.2,9.901
		c0,6.8,2.601,9.9,7.2,9.9C1739.146,1078.6,1741.745,1075.5,1741.745,1068.7z"/>
	<path d="M204.867,1371.401v-41.503h8.101v3.101c2.7-2.6,5-4,8.8-4c6.701,0,12.301,5.3,12.301,15.701c0,10.3-6.3,15.7-13.4,15.7
		c-3.3,0-5.801-1.399-7.7-3.5v14.501H204.867z M212.968,1338.299v13c1.7,1.801,3.7,2.801,6.3,2.801c3.7,0,6.4-2.5,6.4-9.4
		s-2.6-9.401-6.3-9.401C216.968,1335.298,214.668,1336.599,212.968,1338.299z"/>
	<path d="M415.928,1371.401v-14.9c-2.7,2.5-4.9,3.899-8.7,3.899c-6.7,0-12.301-5.4-12.301-15.7c0-10.401,6.2-15.701,13.4-15.701
		c3.301,0,5.801,1.4,7.601,3.5v-2.601h8.201v41.503H415.928z M415.928,1351.1v-13.001c-1.6-1.7-3.6-2.801-6.2-2.801
		c-3.7,0-6.5,2.501-6.5,9.401s2.7,9.4,6.4,9.4C412.027,1354.1,414.328,1352.8,415.928,1351.1z"/>
	<path d="M588.387,1359.5v-29.603h8.2v4.601c2.4-3.5,5-5.5,8.2-5.5c1.7,0,2.9,0.5,3.801,1.4v6.8c-1.4-0.6-2.5-0.9-4.301-0.9
		c-3.399,0-6.2,1.7-7.7,3.801v19.401H588.387z"/>
	<path d="M786.646,1337.899c-0.2-2.101-1.801-3.4-5.001-3.4c-3,0-5,1.101-5,3c0,2.101,1.601,2.801,6.7,3.601
		c5.801,0.9,12.401,2.101,12.401,9.301c0,6-5.501,10-13.102,10c-9,0-13.7-4.1-13.9-9.8h8.2c0.2,2.3,1.801,4.3,5.9,4.3
		c3,0,5.101-1.3,5.101-3.5c0-2.301-1.8-3.101-7.001-3.801c-5.7-0.899-12.101-2.1-12.101-9.4c0-6,5.501-9.2,13.001-9.2
		c8.301,0,12.901,3.5,13.101,8.9H786.646z"/>
	<path d="M969.105,1335.798v13.802c0,3.2,0.7,4.7,3.4,4.7c1.3,0,3.1-0.301,4.7-0.801V1359c-1.9,0.8-5.101,1.399-7.001,1.399
		c-5.4,0-9.2-2.6-9.2-9.7v-14.901h-5.301v-5.9h5.301v-8h8.101v8h7.7v5.9H969.105z"/>
	<path d="M1167.866,1359.5l-3.8-12.101l-2.501-8.301l-2.5,8.301l-3.8,12.101h-7.2l-10.901-29.603h8.601l3.9,12.301l2.3,8.301
		l2.4-8.301l3.801-12.301h7l4,12.301l2.5,8.401l2.301-8.401l3.8-12.2h7.7l-10.601,29.502H1167.866z"/>
	<path d="M1366.727,1359.5l-6.9-10.101l-6.9,10.101h-8.301l10.901-15.201l-10.301-14.401h8.9l5.9,8.701l5.9-8.701h8.2l-9.801,13.802
		l11.401,15.801H1366.727z"/>
	<path d="M1541.686,1371.401l5.001-12.301l-11.901-29.202h8.9l4.301,12.501l2.9,8.4l2.8-8.4l4.3-12.501h7.801l-16.201,41.503
		H1541.686z"/>
	<path d="M1725.744,1359.5v-5.9l14.9-17.802h-14.301v-5.9h23.702v5.9l-14.901,17.802h14.901v5.9H1725.744z"/>
</g>
</svg>
