<?xml version="1.0" encoding="UTF-8" standalone="no"?>
<svg width="1024px" height="768px" viewBox="0 0 1024 768" version="1.1" xmlns="http://www.w3.org/2000/svg" xmlns:xlink="http://www.w3.org/1999/xlink" xmlns:sketch="http://www.bohemiancoding.com/sketch/ns">
    <!-- Generator: Sketch 3.3.2 (12043) - http://www.bohemiancoding.com/sketch -->
    <title>canvas</title>
    <desc>Created with Sketch.</desc>
    <defs></defs>
    <g id="VeganSans" stroke="none" stroke-width="1" fill="none" fill-rule="evenodd" sketch:type="MSPage">
        <g id="canvas" sketch:type="MSArtboardGroup">
            <g id="slide-1" sketch:type="MSLayerGroup" transform="translate(90.000000, 48.000000)">
                <g id="madame-géniale" transform="translate(6.000000, 0.000000)" fill="#000000" sketch:type="MSShapeGroup">
                    <path d="M94.2017646,96 L94.2017646,5.72814 L79.2424278,5.72814 L50.2264728,76.011231 L21.2105178,5.72814 L4.8326232,5.72814 L4.8326232,96 L18.3734022,96 L18.3734022,48.5427936 L18.1154826,30.230502 L42.8757642,90.841608 L56.545503,90.841608 L80.2741062,31.6490598 L80.0161866,48.284874 L80.0161866,96 L94.2017646,96 Z M167.321971,96 L167.321971,49.7034318 C167.321971,31.7780196 153.652232,27.1354668 141.272092,27.1354668 C124.120438,27.1354668 113.287815,35.388894 113.029895,51.3799092 L127.473393,51.3799092 C127.860272,40.9341654 132.244906,36.9364116 141.272092,36.9364116 C147.204242,36.9364116 153.136393,39.257688 153.136393,51.3799092 L153.136393,58.9885374 C149.525519,58.7306178 146.172564,58.4726982 142.948569,58.4726982 C118.833086,58.4726982 110.708619,69.1763616 110.708619,80.1379446 C110.708619,90.841608 118.317247,97.934397 131.084267,97.934397 C139.982494,97.934397 147.204242,93.9366432 153.136393,88.1334522 L153.136393,96 L167.321971,96 Z M153.136393,79.7510652 C149.267599,83.748819 142.819609,87.4886532 137.145378,87.4886532 C129.923629,87.4886532 125.023157,84.7804974 125.023157,78.0745878 C125.023157,71.7555576 129.923629,66.8550852 143.851288,66.8550852 C146.559443,66.8550852 149.783438,66.984045 153.136393,67.3709244 L153.136393,79.7510652 Z M243.279293,96 L243.279293,0.0539088 L229.093715,0.0539088 L229.093715,35.0020146 C225.095962,30.230502 219.034851,27.1354668 211.813102,27.1354668 C197.111685,27.1354668 182.926107,39.1287282 182.926107,62.5994118 C182.926107,85.9411356 194.403529,97.934397 208.589107,97.934397 C216.842534,97.934397 223.290524,94.8393618 229.093715,89.0361708 L229.093715,96 L243.279293,96 Z M229.093715,80.524824 C225.224921,84.393618 219.42173,87.1017738 213.36062,87.1017738 C204.720313,87.1017738 197.627524,79.7510652 197.627524,62.5994118 C197.627524,45.3187986 205.880951,37.96809 214.521258,37.96809 C220.582369,37.96809 225.224921,40.1604066 229.093715,44.0292006 L229.093715,80.524824 Z M315.109902,96 L315.109902,49.7034318 C315.109902,31.7780196 301.440163,27.1354668 289.060022,27.1354668 C271.908369,27.1354668 261.075746,35.388894 260.817826,51.3799092 L275.261324,51.3799092 C275.648203,40.9341654 280.032836,36.9364116 289.060022,36.9364116 C294.992173,36.9364116 300.924324,39.257688 300.924324,51.3799092 L300.924324,58.9885374 C297.31345,58.7306178 293.960495,58.4726982 290.7365,58.4726982 C266.621017,58.4726982 258.49655,69.1763616 258.49655,80.1379446 C258.49655,90.841608 266.105178,97.934397 278.872198,97.934397 C287.770424,97.934397 294.992173,93.9366432 300.924324,88.1334522 L300.924324,96 L315.109902,96 Z M300.924324,79.7510652 C297.05553,83.748819 290.60754,87.4886532 284.933309,87.4886532 C277.71156,87.4886532 272.811088,84.7804974 272.811088,78.0745878 C272.811088,71.7555576 277.71156,66.8550852 291.639218,66.8550852 C294.347374,66.8550852 297.571369,66.984045 300.924324,67.3709244 L300.924324,79.7510652 Z M348.38153,96 L348.38153,46.350477 C352.379284,42.3527232 359.085194,38.612889 365.275264,38.612889 C373.528691,38.612889 377.397485,42.7396026 377.397485,52.153668 L377.397485,96 L391.583063,96 L391.583063,49.1875926 C391.583063,48.284874 391.583063,47.3821554 391.454104,46.4794368 C395.709777,42.2237634 402.415687,38.612889 408.476797,38.612889 C416.601265,38.612889 420.599018,42.7396026 420.599018,52.153668 L420.599018,96 L434.784596,96 L434.784596,49.1875926 C434.784596,32.9386578 425.499491,27.1354668 414.537908,27.1354668 C406.5424,27.1354668 397.515214,30.6173814 389.777626,38.3549694 C386.553631,30.230502 379.331882,27.1354668 371.336375,27.1354668 C362.696068,27.1354668 354.571601,31.5201 348.38153,37.8391302 L348.38153,29.0698638 L334.195952,29.0698638 L334.195952,96 L348.38153,96 Z M493.719225,77.0429094 C492.171707,84.7804974 488.044994,88.1334522 480.307406,88.1334522 C471.0223,88.1334522 465.090149,81.5565024 464.70327,64.5338088 L509.323361,64.5338088 C510.870878,40.2893664 499.651376,27.1354668 480.178446,27.1354668 C462.124074,27.1354668 450.388732,41.4500046 450.388732,62.5994118 C450.388732,83.748819 459.802798,97.934397 480.307406,97.934397 C496.427381,97.934397 506.873125,89.1651306 508.291682,77.0429094 L493.719225,77.0429094 Z M480.178446,36.8074518 C488.818753,36.8074518 494.364024,42.7396026 494.621944,55.6355826 L465.090149,55.6355826 C466.508707,42.3527232 472.569818,36.8074518 480.178446,36.8074518 L480.178446,36.8074518 Z" id="Madame"></path>
                    <path d="M59.769498,191.316668 C54.9979854,196.088181 47.2603974,200.085935 39.3938496,200.085935 C26.4978696,200.085935 16.0521258,188.608512 16.0521258,164.36407 C16.0521258,140.506507 25.9820304,128.771165 39.5228094,128.771165 C50.097513,128.771165 56.1586236,134.574356 57.9640608,147.083457 L74.2129956,147.083457 C71.5048398,127.094688 58.4799,117.293743 39.5228094,117.293743 C15.5362866,117.293743 0.0611106,135.863954 0.0611106,164.36407 C0.0611106,193.251065 12.5702112,211.434397 35.267136,211.434397 C44.4232818,211.434397 54.3531864,206.791844 59.769498,200.859693 L59.769498,209.5 L74.2129956,209.5 L74.2129956,163.977191 L39.6517692,163.977191 L39.6517692,175.067733 L59.769498,175.067733 L59.769498,191.316668 Z M131.342187,190.542909 C129.794669,198.280497 125.667956,201.633452 117.930368,201.633452 C108.645262,201.633452 102.713111,195.056502 102.326232,178.033809 L146.946323,178.033809 C148.49384,153.789366 137.274338,140.635467 117.801408,140.635467 C99.747036,140.635467 88.0116942,154.950005 88.0116942,176.099412 C88.0116942,197.248819 97.4257596,211.434397 117.930368,211.434397 C134.050343,211.434397 144.496087,202.665131 145.914644,190.542909 L131.342187,190.542909 Z M117.801408,150.307452 C126.441715,150.307452 131.986986,156.239603 132.244906,169.135583 L102.713111,169.135583 C104.131669,155.852723 110.19278,150.307452 117.801408,150.307452 L117.801408,150.307452 Z M117.672448,134.445396 L136.758499,114.585587 L119.091006,114.585587 L105.937106,134.445396 L117.672448,134.445396 Z M176.993956,209.5 L176.993956,159.850477 C180.99171,155.852723 188.084499,152.112889 194.274569,152.112889 C202.527997,152.112889 206.78367,156.239603 206.78367,165.653668 L206.78367,209.5 L220.969248,209.5 L220.969248,162.687593 C220.969248,146.438658 211.297263,140.635467 200.33568,140.635467 C191.695373,140.635467 183.184027,145.0201 176.993956,151.33913 L176.993956,142.569864 L162.808378,142.569864 L162.808378,209.5 L176.993956,209.5 Z M254.240876,209.5 L254.240876,142.569864 L240.055298,142.569864 L240.055298,209.5 L254.240876,209.5 Z M256.046314,124.128612 C256.046314,119.22814 252.17752,115.230386 247.148087,115.230386 C242.118655,115.230386 238.249861,119.22814 238.249861,124.128612 C238.249861,129.029085 242.118655,132.897879 247.148087,132.897879 C252.17752,132.897879 256.046314,129.029085 256.046314,124.128612 L256.046314,124.128612 Z M326.071485,209.5 L326.071485,163.203432 C326.071485,145.27802 312.401746,140.635467 300.021605,140.635467 C282.869952,140.635467 272.037329,148.888894 271.779409,164.879909 L286.222907,164.879909 C286.609786,154.434165 290.994419,150.436412 300.021605,150.436412 C305.953756,150.436412 311.885907,152.757688 311.885907,164.879909 L311.885907,172.488537 C308.275033,172.230618 304.922078,171.972698 301.698083,171.972698 C277.5826,171.972698 269.458133,182.676362 269.458133,193.637945 C269.458133,204.341608 277.066761,211.434397 289.833781,211.434397 C298.732007,211.434397 305.953756,207.436643 311.885907,201.633452 L311.885907,209.5 L326.071485,209.5 Z M311.885907,193.251065 C308.017113,197.248819 301.569123,200.988653 295.894892,200.988653 C288.673143,200.988653 283.772671,198.280497 283.772671,191.574588 C283.772671,185.255558 288.673143,180.355085 302.600801,180.355085 C305.308957,180.355085 308.532952,180.484045 311.885907,180.870924 L311.885907,193.251065 Z M359.343113,209.5 L359.343113,113.553909 L345.157535,113.553909 L345.157535,209.5 L359.343113,209.5 Z M418.277742,190.542909 C416.730224,198.280497 412.603511,201.633452 404.865923,201.633452 C395.580817,201.633452 389.648666,195.056502 389.261787,178.033809 L433.881878,178.033809 C435.429395,153.789366 424.209893,140.635467 404.736963,140.635467 C386.682591,140.635467 374.947249,154.950005 374.947249,176.099412 C374.947249,197.248819 384.361315,211.434397 404.865923,211.434397 C420.985898,211.434397 431.431642,202.665131 432.850199,190.542909 L418.277742,190.542909 Z M404.736963,150.307452 C413.37727,150.307452 418.922541,156.239603 419.180461,169.135583 L389.648666,169.135583 C391.067224,155.852723 397.128335,150.307452 404.736963,150.307452 L404.736963,150.307452 Z M457.739441,230.133568 L462.768873,194.798583 L448.583295,194.798583 L446.004099,230.133568 L457.739441,230.133568 Z" id="Géniale,"></path>
                </g>
                <g id="monsieur-joyeux" transform="translate(3.000000, 459.000000)" fill="#000000" sketch:type="MSShapeGroup">
                    <path d="M46.7784828,183.739718 C46.7784828,194.185462 41.2332114,199.214894 31.4322666,199.214894 C22.147161,199.214894 16.8598092,194.185462 16.34397,178.968206 L0.868794,178.968206 C1.513593,202.696809 14.5385328,210.434397 31.4322666,210.434397 C46.649523,210.434397 61.6088598,201.92305 61.6088598,181.160522 L61.6088598,118.22814 L46.7784828,118.22814 L46.7784828,183.739718 Z M109.066066,200.633452 C98.7492822,200.633452 91.9144128,192.766904 91.9144128,175.099412 C91.9144128,157.431919 98.7492822,149.436412 109.066066,149.436412 C119.38285,149.436412 126.21772,157.431919 126.21772,175.099412 C126.21772,192.766904 119.38285,200.633452 109.066066,200.633452 L109.066066,200.633452 Z M109.066066,210.434397 C129.312755,210.434397 141.048097,196.248819 141.048097,175.099412 C141.048097,153.950005 129.312755,139.635467 109.066066,139.635467 C88.8193776,139.635467 77.2129956,153.950005 77.2129956,175.099412 C77.2129956,196.248819 88.8193776,210.434397 109.066066,210.434397 L109.066066,210.434397 Z M177.54372,235.323638 L211.975987,141.569864 L198.564167,141.569864 L187.731544,172.262296 L181.799393,191.090427 L175.738283,172.262296 L164.90566,141.569864 L149.301524,141.569864 L174.835564,207.984161 L164.38982,235.323638 L177.54372,235.323638 Z M263.559907,189.542909 C262.012389,197.280497 257.885675,200.633452 250.148087,200.633452 C240.862982,200.633452 234.930831,194.056502 234.543952,177.033809 L279.164042,177.033809 C280.71156,152.789366 269.492057,139.635467 250.019128,139.635467 C231.964756,139.635467 220.229414,153.950005 220.229414,175.099412 C220.229414,196.248819 229.643479,210.434397 250.148087,210.434397 C266.268062,210.434397 276.713806,201.665131 278.132364,189.542909 L263.559907,189.542909 Z M250.019128,149.307452 C258.659434,149.307452 264.204706,155.239603 264.462625,168.135583 L234.930831,168.135583 C236.349389,154.852723 242.410499,149.307452 250.019128,149.307452 L250.019128,149.307452 Z M338.356591,191.219387 C334.487797,195.217141 327.523967,198.956975 321.333897,198.956975 C313.20943,198.956975 309.211676,194.830261 309.211676,185.545156 L309.211676,141.569864 L295.026098,141.569864 L295.026098,188.511231 C295.026098,204.760166 304.440163,210.434397 315.401746,210.434397 C324.042053,210.434397 332.16652,206.049764 338.356591,199.730734 L338.356591,208.5 L352.542169,208.5 L352.542169,141.569864 L338.356591,141.569864 L338.356591,191.219387 Z M427.209893,208.5 L402.707531,172.649176 L423.985898,141.569864 L410.187199,141.569864 L395.485782,163.879909 L380.784365,141.569864 L365.438149,141.569864 L387.748194,174.325653 L364.27751,208.5 L378.076209,208.5 L394.840983,182.96596 L411.734717,208.5 L427.209893,208.5 Z M454.162491,201.149291 C454.162491,195.73298 450.164737,191.864186 444.877385,191.864186 C439.590034,191.864186 435.59228,195.73298 435.59228,201.149291 C435.59228,206.565603 439.590034,210.434397 444.877385,210.434397 C450.164737,210.434397 454.162491,206.565603 454.162491,201.149291 L454.162491,201.149291 Z" id="Joyeux."></path>
                    <path d="M97.2017646,94.5 L97.2017646,4.22814 L82.2424278,4.22814 L53.2264728,74.511231 L24.2105178,4.22814 L7.8326232,4.22814 L7.8326232,94.5 L21.3734022,94.5 L21.3734022,47.0427936 L21.1154826,28.730502 L45.8757642,89.341608 L59.545503,89.341608 L83.2741062,30.1490598 L83.0161866,46.784874 L83.0161866,94.5 L97.2017646,94.5 Z M145.948569,86.6334522 C135.631785,86.6334522 128.796916,78.7669044 128.796916,61.0994118 C128.796916,43.4319192 135.631785,35.4364116 145.948569,35.4364116 C156.265353,35.4364116 163.100222,43.4319192 163.100222,61.0994118 C163.100222,78.7669044 156.265353,86.6334522 145.948569,86.6334522 L145.948569,86.6334522 Z M145.948569,96.434397 C166.195258,96.434397 177.930599,82.248819 177.930599,61.0994118 C177.930599,39.9500046 166.195258,25.6354668 145.948569,25.6354668 C125.70188,25.6354668 114.095498,39.9500046 114.095498,61.0994118 C114.095498,82.248819 125.70188,96.434397 145.948569,96.434397 L145.948569,96.434397 Z M207.720313,94.5 L207.720313,44.850477 C211.718067,40.8527232 218.810856,37.112889 225.000926,37.112889 C233.254354,37.112889 237.510027,41.2396026 237.510027,50.653668 L237.510027,94.5 L251.695605,94.5 L251.695605,47.6875926 C251.695605,31.4386578 242.02362,25.6354668 231.062037,25.6354668 C222.42173,25.6354668 213.910384,30.0201 207.720313,36.3391302 L207.720313,27.5698638 L193.534735,27.5698638 L193.534735,94.5 L207.720313,94.5 Z M320.044299,45.1083966 C319.65742,32.7282558 311.403992,25.6354668 293.47858,25.6354668 C278.390284,25.6354668 267.299741,33.1151352 267.299741,46.2690348 C267.299741,61.615251 280.96948,64.194447 292.060022,66.2578038 C300.18449,67.8053214 308.566877,69.0949194 308.566877,76.445628 C308.566877,83.6673768 302.763686,86.8913718 295.541937,86.8913718 C285.354113,86.8913718 281.614279,82.5067386 281.227399,75.15603 L266.912861,75.15603 C267.170781,88.1809698 275.940047,96.434397 295.155058,96.434397 C310.372314,96.434397 321.591817,87.407211 321.591817,74.1243516 C321.591817,58.7781354 307.277279,56.5858188 296.186736,54.522462 C287.675389,52.8459846 280.45364,51.8143062 280.45364,44.205678 C280.45364,38.0156076 285.869952,35.178492 293.091701,35.178492 C301.474088,35.178492 305.213922,38.0156076 305.729761,45.1083966 L320.044299,45.1083966 Z M350.994651,94.5 L350.994651,27.5698638 L336.809073,27.5698638 L336.809073,94.5 L350.994651,94.5 Z M352.800088,9.1286124 C352.800088,4.22814 348.931294,0.2303862 343.901862,0.2303862 C338.87243,0.2303862 335.003636,4.22814 335.003636,9.1286124 C335.003636,14.0290848 338.87243,17.8978788 343.901862,17.8978788 C348.931294,17.8978788 352.800088,14.0290848 352.800088,9.1286124 L352.800088,9.1286124 Z M409.92928,75.5429094 C408.381762,83.2804974 404.255048,86.6334522 396.51746,86.6334522 C387.232355,86.6334522 381.300204,80.0565024 380.913325,63.0338088 L425.533415,63.0338088 C427.080933,38.7893664 415.86143,25.6354668 396.388501,25.6354668 C378.334129,25.6354668 366.598787,39.9500046 366.598787,61.0994118 C366.598787,82.248819 376.012852,96.434397 396.51746,96.434397 C412.637435,96.434397 423.083179,87.6651306 424.501737,75.5429094 L409.92928,75.5429094 Z M396.388501,35.3074518 C405.028807,35.3074518 410.574079,41.2396026 410.831998,54.1355826 L381.300204,54.1355826 C382.718762,40.8527232 388.779872,35.3074518 396.388501,35.3074518 L396.388501,35.3074518 Z M484.725964,77.2193868 C480.85717,81.2171406 473.89334,84.9569748 467.70327,84.9569748 C459.578803,84.9569748 455.581049,80.8302612 455.581049,71.5451556 L455.581049,27.5698638 L441.395471,27.5698638 L441.395471,74.511231 C441.395471,90.7601658 450.809536,96.434397 461.771119,96.434397 C470.411426,96.434397 478.535893,92.0497638 484.725964,85.7307336 L484.725964,94.5 L498.911542,94.5 L498.911542,27.5698638 L484.725964,27.5698638 L484.725964,77.2193868 Z M532.18317,94.5 L532.18317,49.7509494 C535.536125,44.0767182 542.370994,38.6604066 549.979622,38.6604066 C553.848416,38.6604066 556.040733,39.4341654 559.135768,40.7237634 L559.135768,28.730502 C557.072411,26.796105 554.622175,25.6354668 551.140261,25.6354668 C544.176431,25.6354668 537.212602,30.664899 532.18317,39.4341654 L532.18317,27.5698638 L517.997592,27.5698638 L517.997592,94.5 L532.18317,94.5 Z" id="Monsieur"></path>
                </g>
                <g id="oval-ampersand" transform="translate(0.000000, 247.000000)" sketch:type="MSShapeGroup">
                    <ellipse id="Oval" fill="#FFFF00" cx="92.5" cy="93" rx="92.5" ry="92.5"></ellipse>
                    <path d="M109.029664,84.850477 C109.029664,89.8799092 108.384865,94.9093414 107.095267,99.5518942 L87.1064978,78.9183262 C81.3033068,72.8572156 79.6268294,70.5359392 79.6268294,66.6671452 C79.6268294,61.7666728 83.3666636,59.5743562 87.4933772,59.5743562 C92.780729,59.5743562 96.5205632,61.3797934 97.1653622,67.440904 L121.409805,67.440904 C119.604367,50.2892506 109.287583,42.293743 87.4933772,42.293743 C68.923166,42.293743 56.9299046,52.7394868 56.9299046,68.730502 C56.9299046,75.3074518 60.4118192,81.2396026 64.409573,86.140075 C55.7692664,91.0405474 50.868794,99.5518942 50.868794,108.96596 C50.868794,127.536171 68.0204474,136.434397 85.8168998,136.434397 C93.8124074,136.434397 101.034156,134.24208 107.224227,130.502246 L111.22198,134.5 L141.398574,134.5 L122.699403,115.41395 C128.631553,106.386764 131.984508,95.4251806 131.984508,84.850477 L109.029664,84.850477 Z M87.1064978,119.153784 C78.9820304,119.153784 72.2761208,114.640191 72.2761208,106.902603 C72.2761208,103.162769 73.8236384,100.325653 75.8869952,98.391256 L94.5861662,117.477306 C92.2648898,118.508985 89.8146536,119.153784 87.1064978,119.153784 L87.1064978,119.153784 Z" id="&amp;" fill="#000000"></path>
                </g>
                <g id="oval-et" transform="translate(185.000000, 247.000000)" sketch:type="MSShapeGroup">
                    <ellipse id="Oval" fill="#FFFF00" cx="92.5" cy="93" rx="92.5" ry="92.5"></ellipse>
                    <path d="M98.059096,134.5 L98.059096,116.574588 L63.884749,116.574588 L63.884749,95.9410198 L95.4799,95.9410198 L95.4799,78.0156076 L63.884749,78.0156076 L63.884749,62.1535522 L98.059096,62.1535522 L98.059096,44.22814 L40.027186,44.22814 L40.027186,134.5 L98.059096,134.5 Z M157.380604,82.1423212 L157.380604,66.6671452 L141.905428,66.6671452 L141.905428,49.386532 L118.692664,49.386532 L118.692664,66.6671452 L108.37588,66.6671452 L108.37588,82.1423212 L118.692664,82.1423212 L118.692664,113.350593 C118.692664,130.760166 128.493609,136.434397 141.518549,136.434397 C145.516302,136.434397 152.480132,135.273759 157.380604,133.597281 L157.380604,120.056502 C154.672448,120.701301 151.964292,121.3461 149.643016,121.3461 C145.258383,121.3461 141.905428,118.251065 141.905428,110.384517 L141.905428,82.1423212 L157.380604,82.1423212 Z" id="Et" fill="#000000"></path>
                </g>
            </g>
            <g id="slide-2" sketch:type="MSLayerGroup" transform="translate(100.000000, 78.000000)" fill="#000000">
                <path d="M68.7113166,175.99853 C123.489818,125.152845 154.109595,92.2857439 154.109595,56.6094893 C154.109595,19.8095732 129.389041,0.145495824 91.4654632,0.145495824 C50.7327316,0.145495824 25.1694311,22.3378117 23.2030234,64.1942048 L57.1937856,64.1942048 C59.4411087,35.540835 72.3632167,24.5851348 91.4654632,24.5851348 C108.882217,24.5851348 120.680664,34.6980889 120.680664,56.6094893 C120.680664,90.6002516 84.4425785,122.624606 27.978585,175.99853 L27.978585,201 L156.918749,201 L156.918749,175.99853 L68.7113166,175.99853 Z M239.788789,112.511652 C270.689482,112.511652 283.61159,126.557422 283.61159,144.536007 C283.61159,166.728322 268.723075,180.774092 248.216251,180.774092 C226.866681,180.774092 213.944573,170.942053 211.69725,147.906991 L177.706488,147.906991 C179.672896,184.425992 202.707958,205.213731 248.216251,205.213731 C286.70166,205.213731 316.759606,181.616838 316.759606,144.536007 C316.759606,125.152845 306.084822,103.52236 277.712367,98.4658825 C299.623768,91.7239131 311.703129,72.0598358 311.703129,54.3621662 C311.703129,19.5286578 285.858913,0.145495824 248.216251,0.145495824 C207.764435,0.145495824 182.48205,21.4950655 179.672896,57.7331509 L213.944573,57.7331509 C216.753727,34.6980889 229.39492,24.5851348 248.216251,24.5851348 C265.633005,24.5851348 278.555113,34.4171735 278.555113,54.3621662 C278.555113,72.3407512 265.913921,87.5101823 239.788789,87.5101823 L219.843797,87.5101823 L219.843797,112.511652 L239.788789,112.511652 Z M476.881379,48.1820276 C473.79131,18.1240808 452.44174,0.145495824 415.922739,0.145495824 C370.695361,0.145495824 341.199245,39.7545659 341.199245,113.073483 C341.199245,170.380222 366.200715,205.213731 413.394501,205.213731 C450.756248,205.213731 482.218771,179.931346 482.218771,138.917699 C482.218771,95.6567286 458.902794,73.4644127 423.507455,73.4644127 C404.686124,73.4644127 386.988454,83.2964514 375.751838,96.4994748 C378.280077,45.3728737 392.044931,24.5851348 415.922739,24.5851348 C431.654001,24.5851348 439.800547,31.3271042 442.890617,48.1820276 L476.881379,48.1820276 Z M415.360908,98.1849671 C438.39597,98.1849671 448.78984,114.197144 448.78984,138.917699 C448.78984,164.200084 435.305901,180.774092 413.394501,180.774092 C389.235777,180.774092 376.313669,161.671845 375.470923,117.568129 C384.1793,106.331513 399.067816,98.1849671 415.360908,98.1849671 L415.360908,98.1849671 Z M508.624818,151.839807 C510.591226,186.3924 533.345372,205.213731 575.201766,205.213731 C612.001682,205.213731 641.216882,180.774092 641.216882,136.951291 C641.216882,90.8811669 617.61999,69.8125127 584.191058,69.8125127 C568.178881,69.8125127 551.885788,77.1163128 541.772834,90.6002516 L541.772834,29.3606964 L629.418436,29.3606964 L629.418436,4.35922668 L513.681295,4.35922668 L513.681295,112.230737 L541.772834,112.230737 C550.481211,99.8704594 562.560573,94.533067 576.044512,94.533067 C597.113166,94.533067 607.787951,107.455175 607.787951,136.951291 C607.787951,165.323745 595.146758,180.774092 575.201766,180.774092 C557.223181,180.774092 544.862903,172.908461 542.61558,151.839807 L508.624818,151.839807 Z" id="2365" sketch:type="MSShapeGroup"></path>
                <path d="M101.303007,578 L281.444017,295.899984 L237.114014,295.899984 L56.9730042,578 L101.303007,578 Z M118.632008,325.318986 L118.632008,295.899984 L4.58300135,295.899984 L4.58300135,389.79899 L37.2260031,389.79899 C43.2710035,382.544989 52.540004,378.111989 65.0330047,378.111989 C83.5710057,378.111989 92.0340062,388.58999 92.0340062,409.948991 C92.0340062,430.904992 81.5560056,440.979992 64.2270046,440.979992 C48.1070037,440.979992 41.2560034,433.725992 39.2410033,422.844991 L0.150001109,422.844991 C1.7620012,452.666993 25.1360025,468.786994 64.2270046,468.786994 C98.4820065,468.786994 130.319008,447.830993 130.319008,409.948991 C130.319008,370.454989 105.736007,350.304987 74.7050052,350.304987 C59.7940044,350.304987 46.4950037,354.737988 37.2260031,363.603988 L37.2260031,325.318986 L118.632008,325.318986 Z M310.460018,528.833997 C310.460018,547.774998 295.952017,553.819999 279.429016,553.819999 C262.503016,553.819999 247.995015,547.774998 247.995015,528.833997 C247.995015,513.519996 258.876015,505.459996 279.429016,505.459996 C299.579018,505.459996 310.460018,513.519996 310.460018,528.833997 L310.460018,528.833997 Z M305.624018,455.890993 C305.624018,469.592994 296.758017,477.652994 279.429016,477.652994 C261.697015,477.652994 252.831015,469.592994 252.831015,455.890993 C252.831015,438.964992 265.324016,432.919992 279.429016,432.919992 C293.131017,432.919992 305.624018,438.964992 305.624018,455.890993 L305.624018,455.890993 Z M313.281018,490.145995 C331.416019,484.503995 344.31202,471.204994 344.31202,451.860993 C344.31202,422.038991 316.908019,405.11299 279.429016,405.11299 C241.547014,405.11299 214.143013,422.038991 214.143013,451.860993 C214.143013,471.204994 227.039014,484.503995 245.174015,490.145995 C222.203013,495.787995 209.307013,512.713996 209.307013,532.460997 C209.307013,566.715999 239.935014,581.627 279.429016,581.627 C318.520019,581.627 349.14802,566.715999 349.14802,532.460997 C349.14802,512.713996 336.25202,495.787995 313.281018,490.145995 L313.281018,490.145995 Z M476.496027,451.054993 C520.82603,451.054993 539.364031,471.204994 539.364031,496.996996 C539.364031,528.833997 518.00503,548.983998 488.586028,548.983998 C457.958026,548.983998 439.420025,534.878998 436.196025,501.832996 L387.433022,501.832996 C390.254023,554.222999 423.300024,584.045 488.586028,584.045 C543.797031,584.045 586.918033,550.192998 586.918033,496.996996 C586.918033,469.189994 571.604033,438.158992 530.90103,430.904992 C562.335032,421.232991 579.664033,393.02299 579.664033,367.633988 C579.664033,317.661986 542.588031,289.854984 488.586028,289.854984 C430.554025,289.854984 394.284023,320.482986 390.254023,372.469989 L439.420025,372.469989 C443.450025,339.423987 461.585026,324.915986 488.586028,324.915986 C513.572029,324.915986 532.11003,339.020987 532.11003,367.633988 C532.11003,393.42599 513.975029,415.187991 476.496027,415.187991 L447.883026,415.187991 L447.883026,451.054993 L476.496027,451.054993 Z M716.684041,548.983998 C693.713039,548.983998 677.996038,538.102998 674.369038,508.280996 L625.606036,508.280996 C628.830036,557.849999 663.488038,584.045 716.684041,584.045 C784.791044,584.045 824.285046,527.221997 824.285046,422.038991 C824.285046,339.826987 788.418044,289.854984 720.714041,289.854984 C667.115038,289.854984 621.979035,324.915986 621.979035,382.947989 C621.979035,443.397993 655.428037,472.010994 706.20604,472.010994 C733.207041,472.010994 758.999043,457.905993 774.716044,438.561992 C772.701044,517.146997 755.372043,548.983998 716.684041,548.983998 L716.684041,548.983998 Z M717.893041,436.546992 C684.847039,436.546992 669.533038,416.799991 669.533038,382.947989 C669.533038,346.274987 689.280039,324.915986 720.714041,324.915986 C753.760043,324.915986 772.298044,350.707987 774.716044,409.545991 C761.820043,425.262992 740.864042,436.546992 717.893041,436.546992 L717.893041,436.546992 Z" id="⅝39" sketch:type="MSShapeGroup"></path>
            </g>
        </g>
    </g>
</svg>