<?xml version="1.0" encoding="UTF-8" standalone="no"?>
<svg width="637px" height="482px" viewBox="0 0 637 482" version="1.1" xmlns="http://www.w3.org/2000/svg" xmlns:xlink="http://www.w3.org/1999/xlink" xmlns:sketch="http://www.bohemiancoding.com/sketch/ns">
    <!-- Generator: Sketch 3.3.2 (12043) - http://www.bohemiancoding.com/sketch -->
    <title>canvas</title>
    <desc>Created with Sketch.</desc>
    <defs></defs>
    <g id="Buttons" stroke="none" stroke-width="1" fill="none" fill-rule="evenodd" sketch:type="MSPage">
        <g id="canvas" sketch:type="MSArtboardGroup">
            <g id="vegan-sans" sketch:type="MSLayerGroup" transform="translate(7.000000, 4.000000)">
                <g id="a" transform="translate(0.000000, 3.000000)" sketch:type="MSShapeGroup">
                    <path d="M151.337,75.519 C151.337,117.144 117.58,150.883 75.959,150.883 C34.347,150.883 0.591,117.144 0.591,75.519 C0.591,33.902 34.347,0.155 75.959,0.155 C117.58,0.154 151.337,33.901 151.337,75.519 L151.337,75.519 Z" id="Shape" fill="#FFFF00"></path>
                    <path d="M110.222632,114.1377 L110.222632,52.962664 C110.222632,29.276508 92.159808,23.141964 75.801024,23.141964 C53.137292,23.141964 38.823356,34.04782 38.482548,55.177916 L57.567796,55.177916 C58.079008,41.375192 63.872744,36.092668 75.801024,36.092668 C83.639608,36.092668 91.478192,39.15994 91.478192,55.177916 L91.478192,65.231752 C86.70688,64.890944 82.276376,64.550136 78.016276,64.550136 C46.150728,64.550136 35.415276,78.693668 35.415276,93.178008 C35.415276,107.32154 45.469112,116.69376 62.339108,116.69376 C74.096984,116.69376 83.639608,111.411236 91.478192,103.743056 L91.478192,114.1377 L110.222632,114.1377 Z M91.478192,92.666796 C86.366072,97.94932 77.845872,102.891036 70.348096,102.891036 C60.805472,102.891036 54.33012,99.312552 54.33012,90.451544 C54.33012,82.101748 60.805472,75.626396 79.209104,75.626396 C82.787588,75.626396 87.047688,75.7968 91.478192,76.308012 L91.478192,92.666796 Z" fill="#000000"></path>
                </g>
                <g id="rrr" transform="translate(156.000000, 0.000000)" sketch:type="MSShapeGroup">
                    <path d="M151.49,75.519 C151.49,117.144 117.732,150.883 76.111,150.883 C34.5,150.883 0.743,117.144 0.743,75.519 C0.743,33.902 34.499,0.155 76.111,0.155 C117.732,0.154 151.49,33.901 151.49,75.519 L151.49,75.519 Z" id="Shape" fill="#FFFF00"></path>
                    <path d="M57.0209872,97.1084 L46.3406998,77.3533586 C54.0193378,75.6082136 60.6508888,70.4425844 60.6508888,60.6697724 C60.6508888,51.8742416 53.6703088,48.24434 45.6426418,48.24434 L30.7740064,48.24434 L22.187893,97.1084 L29.168473,97.1084 L32.5191514,77.9816108 L39.5695372,77.9816108 L48.9933202,97.1084 L57.0209872,97.1084 Z M33.4266268,72.7461758 L36.847111,53.5495808 L44.7351664,53.5495808 C49.9007956,53.5495808 53.4608914,55.7135606 53.4608914,61.158413 C53.4608914,69.3954974 48.2254564,72.7461758 41.3146822,72.7461758 L33.4266268,72.7461758 Z M99.7421368,97.1084 L89.0618494,77.3533586 C96.7404874,75.6082136 103.372038,70.4425844 103.372038,60.6697724 C103.372038,51.8742416 96.3914584,48.24434 88.3637914,48.24434 L73.495156,48.24434 L64.9090426,97.1084 L71.8896226,97.1084 L75.240301,77.9816108 L82.2906868,77.9816108 L91.7144698,97.1084 L99.7421368,97.1084 Z M76.1477764,72.7461758 L79.5682606,53.5495808 L87.456316,53.5495808 C92.6219452,53.5495808 96.182041,55.7135606 96.182041,61.158413 C96.182041,69.3954974 90.946606,72.7461758 84.0358318,72.7461758 L76.1477764,72.7461758 Z M112.865627,97.1084 L117.193587,72.4669526 C119.566984,69.18608 123.964749,65.9750132 128.153097,65.9750132 C130.247271,65.9750132 131.224553,66.393848 132.830086,67.091906 L133.807367,61.7168594 C132.899892,60.5999666 131.643387,59.9717144 129.758631,59.9717144 C125.919312,59.9717144 121.730964,62.6941406 118.101062,67.3013234 L119.217955,61.0188014 L112.726016,61.0188014 L106.303882,97.1084 L112.865627,97.1084 Z" id="RRr" fill="#000000"></path>
                </g>
                <g id="65" transform="translate(314.000000, 3.000000)" sketch:type="MSShapeGroup">
                    <path d="M151.334,75.519 C151.334,117.144 117.578,150.883 75.956,150.883 C34.344,150.883 0.588,117.144 0.588,75.519 C0.588,33.902 34.344,0.155 75.956,0.155 C117.578,0.154 151.334,33.901 151.334,75.519 L151.334,75.519 Z" id="Shape" fill="#FFFF00"></path>
                    <path d="M69.0850736,56.8526839 C67.8844677,45.4007507 59.664935,39.4900755 47.3818131,39.4900755 C32.5127708,39.4900755 21.9843806,52.1426146 21.9843806,76.2470869 C21.9843806,95.4567813 31.3121649,106.908715 47.2894588,106.908715 C60.3114151,106.908715 70.6550967,98.3197646 70.6550967,84.8360368 C70.6550967,71.1676004 63.6361699,63.6869021 51.9995281,63.6869021 C46.5506244,63.6869021 40.8246578,66.734594 37.4075487,70.8905375 C37.9616745,57.0373925 40.8246578,50.2955286 47.3818131,50.2955286 C51.353048,50.2955286 53.2924883,52.2349689 53.9389684,56.8526839 L69.0850736,56.8526839 Z M47.0123959,74.6770638 C53.6619055,74.6770638 55.6937001,79.8489046 55.6937001,84.8360368 C55.6937001,90.5620034 52.9230711,96.1032614 47.2894588,96.1032614 C40.4552406,96.1032614 37.6846116,89.823169 37.3151944,78.740653 C39.6240519,76.3394412 43.5952868,74.6770638 47.0123959,74.6770638 L47.0123959,74.6770638 Z M78.4128579,87.8837287 C79.2440466,100.443914 87.1865164,106.908715 101.778496,106.908715 C114.708098,106.908715 124.682362,98.5044732 124.682362,84.0972024 C124.682362,69.4128687 117.75579,62.0245247 106.396211,62.0245247 C101.132016,62.0245247 95.5907577,64.9798623 92.912483,68.6740343 L92.912483,52.0502603 L120.618773,52.0502603 L120.618773,40.87539 L80.1675896,40.87539 L80.1675896,77.0782756 L92.912483,77.0782756 C95.1289862,74.4923552 98.2690324,73.1070407 101.409079,73.1070407 C107.87388,73.1070407 109.720966,77.9094643 109.720966,84.0972024 C109.720966,90.746712 107.2274,96.1032614 101.778496,96.1032614 C96.5143007,96.1032614 94.0207346,93.4249867 93.6513174,87.8837287 L78.4128579,87.8837287 Z" fill="#000000"></path>
                </g>
                <g id="b" transform="translate(472.000000, 3.000000)" sketch:type="MSShapeGroup">
                    <path d="M151.547,75.519 C151.547,117.144 117.789,150.883 76.168,150.883 C34.557,150.883 0.8,117.144 0.8,75.519 C0.8,33.902 34.557,0.155 76.168,0.155 C117.789,0.154 151.547,33.901 151.547,75.519 L151.547,75.519 Z" id="Shape" fill="#FFFF00"></path>
                    <path d="M108.549344,39.0997604 L109.768818,31.67206 L84.0490192,31.67206 C66.6438108,31.67206 54.3382176,41.4278456 50.2363532,64.7086976 L42.365208,109.2749 L51.8992712,109.2749 L59.9921388,63.6000856 C63.0962524,45.8622936 70.9673976,39.0997604 82.829546,39.0997604 L98.1283916,39.0997604 L74.9584008,65.2630036 L73.6280664,72.690704 L76.9539024,72.690704 C88.8160508,72.690704 94.3591108,79.0097924 94.3591108,86.8809376 C94.3591108,98.2996412 87.263994,103.510118 79.3928488,103.510118 C73.7389276,103.510118 70.080508,101.182032 70.634814,95.6389724 L60.3247224,95.6389724 C58.7726656,104.729591 65.64606,110.937818 77.5082084,110.937818 C89.5920792,110.937818 104.44748,102.290644 104.44748,85.994048 C104.44748,78.3446252 100.456477,68.0345336 84.9359088,65.7064484 L108.549344,39.0997604 Z" id="ẞ" fill="#000000"></path>
                </g>
            </g>
            <g id="kunda-book" sketch:type="MSLayerGroup" transform="translate(5.000000, 165.000000)">
                <g id="g" sketch:type="MSShapeGroup">
                    <path d="M151.337,76.053 C151.337,117.678 117.58,151.416 75.959,151.416 C34.347,151.416 0.591,117.678 0.591,76.053 C0.591,34.436 34.347,0.688 75.959,0.688 C117.58,0.688 151.337,34.436 151.337,76.053 L151.337,76.053 Z" id="Shape" fill="#FF3C32"></path>
                    <path d="M65.5554161,95.427511 C51.7085594,99.8527951 45.427511,105.991092 45.427511,113.271398 C45.427511,122.264718 57.1331012,127.403757 74.1204821,127.403757 C91.3933652,127.403757 111.806773,117.125678 111.806773,100.281048 C111.806773,87.4334494 99.8156801,81.4379032 63.985154,80.2958944 L67.8394337,75.8706103 C70.6944557,76.5843658 73.5494777,76.869868 76.6900019,76.869868 C89.9658542,76.869868 105.240222,68.8758064 105.240222,54.3151942 C105.240222,48.6051502 102.956204,44.037115 99.2446757,40.4683375 L114.661795,34.7582935 L106.524982,22.4816989 L103.955462,22.4816989 L94.9621427,37.3278133 C90.2513564,34.6155424 84.3985613,33.1880314 78.1175129,33.1880314 C64.8416606,33.1880314 49.5672929,41.182093 49.5672929,55.7427052 C49.5672929,64.5932734 54.8490836,70.8743218 62.557643,74.1575971 L47.5687775,91.4304802 L48.7107863,93.8572489 C55.8483413,94.1427511 61.9866386,94.8565066 67.2684293,95.5702621 L65.5554161,95.427511 Z M95.5331471,109.988123 C95.5331471,116.411923 88.9665965,120.979958 78.4030151,120.979958 C69.695198,120.979958 63.1286474,116.411923 63.1286474,108.703363 C63.1286474,105.991092 64.8416606,99.8527951 71.5509623,96.1412665 C88.5383432,98.9962885 95.5331471,103.849826 95.5331471,109.988123 L95.5331471,109.988123 Z M78.5457662,71.7308284 C71.4082112,71.7308284 69.4096958,58.7404783 69.4096958,51.3174211 C69.4096958,44.1798661 71.5509623,38.327071 76.2617486,38.327071 C83.3993036,38.327071 85.397819,51.3174211 85.397819,58.7404783 C85.397819,65.8780333 83.2565525,71.7308284 78.5457662,71.7308284 L78.5457662,71.7308284 Z" fill="#000000"></path>
                </g>
                <g id="34" transform="translate(158.000000, 0.000000)" sketch:type="MSShapeGroup">
                    <path d="M151.5243,75.3689 C151.5243,116.9939 117.7663,150.7319 76.1463,150.7319 C34.5343,150.7319 0.7783,116.9939 0.7783,75.3689 C0.7783,33.7519 34.5343,0.0039 76.1463,0.0039 C117.7663,0.0039 151.5243,33.7519 151.5243,75.3689 L151.5243,75.3689 Z" id="Shape" fill="#FF3C32"></path>
                    <path d="M107.449443,106 L107.449443,104.821663 C102.414732,103.750449 101.55776,102.786355 101.55776,99.57271 L101.55776,98.073009 L108.842022,98.073009 L108.842022,90.6816255 L101.55776,90.6816255 L101.55776,67.222017 L94.273498,67.222017 L71.8851045,96.8946725 L71.8851045,98.073009 L92.559554,98.073009 L92.559554,99.57271 C92.559554,102.786355 91.702582,103.750449 86.56075,104.821663 L86.56075,106 L107.449443,106 Z M38.4631965,73.9706715 C42.3195705,76.00598 47.354281,76.9700735 51.424898,76.9700735 C59.780375,76.9700735 68.992824,72.363849 68.992824,64.008372 C68.992824,57.581082 63.1011415,53.724708 54.7456645,52.653493 L67.921609,38.299212 L67.921609,37.1208755 L38.4631965,37.1208755 L38.4631965,50.4039415 L39.641533,50.4039415 C43.069421,44.940745 46.1759445,44.512259 50.4608045,44.512259 L58.066431,44.512259 L58.066431,45.154988 L47.782767,55.867138 L47.782767,57.0454745 C54.4243,58.3309325 59.566132,61.1160915 59.566132,66.793531 C59.566132,72.578092 55.6026365,74.077793 52.067627,74.077793 C47.0329165,74.077793 42.7480565,70.649905 39.5344115,64.5439795 L38.4631965,64.5439795 L38.4631965,73.9706715 Z M55.924001,109.856374 L101.986246,36.156782 L97.8085075,33.585866 L51.7462625,107.285458 L55.924001,109.856374 Z M92.559554,90.6816255 L80.0263385,90.6816255 L80.0263385,90.146018 L92.0239465,74.506279 L92.559554,74.506279 L92.559554,90.6816255 Z" id="¾" fill="#000000"></path>
                </g>
                <g id="q" transform="translate(316.000000, 0.000000)" sketch:type="MSShapeGroup">
                    <path d="M150.8984,75.5574 C150.8984,117.1824 117.1404,150.9204 75.5194,150.9204 C33.9084,150.9204 0.1514,117.1824 0.1514,75.5574 C0.1514,33.9404 33.9084,0.1924 75.5194,0.1924 C117.1404,0.1924 150.8984,33.9404 150.8984,75.5574 L150.8984,75.5574 Z" id="Shape" fill="#FF3C32"></path>
                    <path d="M100.051998,108.649451 C97.117962,113.888801 93.869565,116.298902 89.887659,116.298902 C83.286078,116.298902 72.073869,109.802108 66.310584,104.877119 L64.843566,104.877119 L59.394642,110.640404 C65.05314,115.460606 78.989811,122.690909 86.115327,122.690909 C93.34563,122.690909 98.58498,116.298902 101.414229,109.38296 L100.051998,108.649451 Z M67.777602,99.009047 C56.774967,99.009047 53.212209,88.949495 53.212209,78.156434 C53.212209,56.046377 67.14888,35.612912 83.600439,35.612912 C94.603074,35.612912 98.270619,45.777251 98.270619,56.570312 C98.270619,78.680369 84.124374,99.009047 67.777602,99.009047 L67.777602,99.009047 Z M65.157927,102.676592 C84.124374,102.676592 107.387088,78.680369 107.387088,55.208081 C107.387088,40.22354 98.794554,31.945367 86.324901,31.945367 C67.358454,31.945367 44.09574,55.94159 44.09574,79.413878 C44.09574,94.398419 52.688274,102.676592 65.157927,102.676592 L65.157927,102.676592 Z" id="Q" fill="#000000"></path>
                </g>
                <g id="ag" transform="translate(474.000000, 0.000000)" sketch:type="MSShapeGroup">
                    <path d="M151.1493,75.6287 C151.1493,117.2537 117.3933,150.9917 75.7713,150.9917 C34.1593,150.9917 0.4033,117.2537 0.4033,75.6287 C0.4033,34.0117 34.1593,0.2637 75.7713,0.2637 C117.3933,0.2637 151.1493,34.0117 151.1493,75.6287 L151.1493,75.6287 Z" id="Shape" fill="#FF3C32"></path>
                    <path d="M56.4238576,61.6651335 C50.9265126,75.1886022 42.3506544,87.502655 39.0522474,87.502655 C36.9632563,87.502655 36.5234687,84.5340887 36.5234687,82.5550445 C36.5234687,71.7802483 44.8794331,49.6809214 54.3348665,49.6809214 C56.2039638,49.6809214 57.6332735,51.1102311 58.4029018,54.1887443 L56.4238576,61.6651335 Z M72.8059457,80.7958941 C69.3975918,84.3141949 65.2196096,87.1728143 62.580884,87.1728143 C60.9316805,87.1728143 60.4918929,85.6335577 61.0416274,83.4346197 L71.5965298,46.7123551 L69.7274325,46.7123551 L64.8897689,49.9008152 C62.9107247,47.5919303 59.9421584,46.7123551 56.9735921,46.7123551 C40.7014509,46.7123551 25.198938,69.4713634 25.198938,84.9738763 C25.198938,90.801062 27.9476105,94.7591504 32.5653803,94.7591504 C39.492035,94.7591504 46.1987959,86.9529205 52.0259816,76.1781243 L52.7956099,76.1781243 L49.1673622,86.2932391 C47.0783711,92.2303717 50.1568843,94.7591504 53.785132,94.7591504 C59.9421584,94.7591504 68.078229,89.3717523 74.1253085,82.1152569 L72.8059457,80.7958941 Z M69.177698,108.832354 C69.177698,115.649061 75.9944058,118.727575 83.2509012,118.727575 C97.5439982,118.727575 110.847573,109.162194 110.847573,96.8481415 C110.847573,88.602124 102.711502,81.7854162 84.9001047,80.1362127 L76.4341934,86.0733453 L76.7640341,87.9424426 C80.5022287,88.3822302 83.6906888,88.8220178 86.4393613,89.4816992 C75.1148306,95.5287787 69.177698,102.23554 69.177698,108.832354 L69.177698,108.832354 Z M125.910298,43.8537357 L119.753272,37.2569217 L118.214015,37.2569217 L112.496777,47.7018772 C110.627679,47.0421958 108.428741,46.7123551 106.119856,46.7123551 C94.3555381,46.7123551 81.9315384,57.816992 81.9315384,69.8012041 C81.9315384,76.6179119 87.6487772,79.806372 95.3450602,79.806372 C107.219325,79.806372 119.533378,68.811682 119.533378,56.717523 C119.533378,53.0892753 117.884175,50.4505497 115.135502,48.8013462 L125.910298,43.8537357 Z M101.831927,102.015646 C101.831927,109.272141 94.9052726,115.319221 87.2089896,115.319221 C82.5912198,115.319221 78.9629721,111.910867 78.9629721,107.403044 C78.9629721,102.785274 82.0414853,95.6387256 89.6278214,90.3612744 C99.1932017,93.2198938 101.831927,97.8376636 101.831927,102.015646 L101.831927,102.015646 Z M97.6539451,76.8378057 C93.8058036,76.8378057 92.8162815,72.9896642 92.8162815,68.9216289 C92.8162815,62.214868 96.5544761,49.6809214 103.810971,49.6809214 C107.659113,49.6809214 108.758582,53.6390098 108.758582,57.7070451 C108.758582,64.413806 104.91044,76.8378057 97.6539451,76.8378057 L97.6539451,76.8378057 Z" fill="#000000"></path>
                </g>
            </g>
            <g id="hrot" sketch:type="MSLayerGroup" transform="translate(6.000000, 326.000000)">
                <g id="hrot-hmm" sketch:type="MSShapeGroup">
                    <path d="M151,75.5002216 C151,117.200426 117.185638,151 75.4946831,151 C33.813476,151 0,117.200426 0,75.5002216 C0,33.8088803 33.8130329,0 75.4946831,0 C117.185195,-6.29730763e-15 151,33.8088803 151,75.5002216 L151,75.5002216 Z" id="Shape" fill="#0078FF"></path>
                    <path d="M122.870465,51 L122.870465,29.0543939 L116.081957,29.0543939 L116.081957,36.9255513 L105.694371,36.9255513 L105.694371,29.0543939 L98.9058631,29.0543939 L98.9058631,51 L105.694371,51 L105.694371,42.6314089 L116.081957,42.6314089 L116.081957,51 L122.870465,51 Z" id="H" fill="#000000"></path>
                    <path d="M55.0111927,73.1282348 L55.0111927,62.9454735 C55.0111927,58.6733956 52.7873712,56.156966 49.0419878,56.156966 C47.0815136,56.156966 45.0332571,56.771443 41.9316114,59.2000901 C40.9660047,57.1810943 39.1518346,56.156966 36.7231876,56.156966 C34.7627134,56.156966 32.3633271,56.9177471 30.0809841,59.0245252 L30.3735922,56.7421822 L23.8776928,56.7421822 L23.8776928,73.1282348 L30.3735922,73.1282348 L30.3735922,62.9454735 C31.5732853,62.1261709 33.0655865,61.5702156 34.0311932,61.5702156 C34.9967999,61.5702156 36.196493,62.1261709 36.196493,63.940341 L36.196493,73.1282348 L42.6923924,73.1282348 L42.6923924,62.9454735 C43.8920856,62.1261709 45.3843868,61.5702156 46.3499934,61.5702156 C47.3156001,61.5702156 48.5152932,62.1261709 48.5152932,63.940341 L48.5152932,73.1282348 L55.0111927,73.1282348 Z M89.0707734,73.1282348 L89.0707734,62.9454735 C89.0707734,58.6733956 86.8469519,56.156966 83.1015685,56.156966 C81.1410943,56.156966 79.0928378,56.771443 75.9911921,59.2000901 C75.0255854,57.1810943 73.2114153,56.156966 70.7827683,56.156966 C68.8222941,56.156966 66.4229078,56.9177471 64.1405648,59.0245252 L64.4331729,56.7421822 L57.9372735,56.7421822 L57.9372735,73.1282348 L64.4331729,73.1282348 L64.4331729,62.9454735 C65.632866,62.1261709 67.1251672,61.5702156 68.0907739,61.5702156 C69.0563806,61.5702156 70.2560737,62.1261709 70.2560737,63.940341 L70.2560737,73.1282348 L76.7519731,73.1282348 L76.7519731,62.9454735 C77.9516663,62.1261709 79.4439675,61.5702156 80.4095741,61.5702156 C81.3751808,61.5702156 82.5748739,62.1261709 82.5748739,63.940341 L82.5748739,73.1282348 L89.0707734,73.1282348 Z M123.130354,73.1282348 L123.130354,62.9454735 C123.130354,58.6733956 120.906533,56.156966 117.161149,56.156966 C115.200675,56.156966 113.152418,56.771443 110.050773,59.2000901 C109.085166,57.1810943 107.270996,56.156966 104.842349,56.156966 C102.881875,56.156966 100.482489,56.9177471 98.2001455,59.0245252 L98.4927536,56.7421822 L91.9968542,56.7421822 L91.9968542,73.1282348 L98.4927536,73.1282348 L98.4927536,62.9454735 C99.6924467,62.1261709 101.184748,61.5702156 102.150355,61.5702156 C103.115961,61.5702156 104.315654,62.1261709 104.315654,63.940341 L104.315654,73.1282348 L110.811554,73.1282348 L110.811554,62.9454735 C112.011247,62.1261709 113.503548,61.5702156 114.469155,61.5702156 C115.434762,61.5702156 116.634455,62.1261709 116.634455,63.940341 L116.634455,73.1282348 L123.130354,73.1282348 Z" id="mmm" fill="#000000"></path>
                    <path d="M55.0111927,95.2564696 L55.0111927,85.0737083 C55.0111927,80.8016303 52.7873712,78.2852008 49.0419878,78.2852008 C47.0815136,78.2852008 45.0332571,78.8996778 41.9316114,81.3283249 C40.9660047,79.3093291 39.1518346,78.2852008 36.7231876,78.2852008 C34.7627134,78.2852008 32.3633271,79.0459818 30.0809841,81.15276 L30.3735922,78.870417 L23.8776928,78.870417 L23.8776928,95.2564696 L30.3735922,95.2564696 L30.3735922,85.0737083 C31.5732853,84.2544057 33.0655865,83.6984503 34.0311932,83.6984503 C34.9967999,83.6984503 36.196493,84.2544057 36.196493,86.0685758 L36.196493,95.2564696 L42.6923924,95.2564696 L42.6923924,85.0737083 C43.8920856,84.2544057 45.3843868,83.6984503 46.3499934,83.6984503 C47.3156001,83.6984503 48.5152932,84.2544057 48.5152932,86.0685758 L48.5152932,95.2564696 L55.0111927,95.2564696 Z M89.0707734,95.2564696 L89.0707734,85.0737083 C89.0707734,80.8016303 86.8469519,78.2852008 83.1015685,78.2852008 C81.1410943,78.2852008 79.0928378,78.8996778 75.9911921,81.3283249 C75.0255854,79.3093291 73.2114153,78.2852008 70.7827683,78.2852008 C68.8222941,78.2852008 66.4229078,79.0459818 64.1405648,81.15276 L64.4331729,78.870417 L57.9372735,78.870417 L57.9372735,95.2564696 L64.4331729,95.2564696 L64.4331729,85.0737083 C65.632866,84.2544057 67.1251672,83.6984503 68.0907739,83.6984503 C69.0563806,83.6984503 70.2560737,84.2544057 70.2560737,86.0685758 L70.2560737,95.2564696 L76.7519731,95.2564696 L76.7519731,85.0737083 C77.9516663,84.2544057 79.4439675,83.6984503 80.4095741,83.6984503 C81.3751808,83.6984503 82.5748739,84.2544057 82.5748739,86.0685758 L82.5748739,95.2564696 L89.0707734,95.2564696 Z" id="mm" fill="#000000"></path>
                    <path d="M55.0111927,117.384261 L55.0111927,107.2015 C55.0111927,102.929422 52.7873712,100.412992 49.0419878,100.412992 C47.0815136,100.412992 45.0332571,101.027469 41.9316114,103.456116 C40.9660047,101.43712 39.1518346,100.412992 36.7231876,100.412992 C34.7627134,100.412992 32.3633271,101.173773 30.0809841,103.280551 L30.3735922,100.998208 L23.8776928,100.998208 L23.8776928,117.384261 L30.3735922,117.384261 L30.3735922,107.2015 C31.5732853,106.382197 33.0655865,105.826242 34.0311932,105.826242 C34.9967999,105.826242 36.196493,106.382197 36.196493,108.196367 L36.196493,117.384261 L42.6923924,117.384261 L42.6923924,107.2015 C43.8920856,106.382197 45.3843868,105.826242 46.3499934,105.826242 C47.3156001,105.826242 48.5152932,106.382197 48.5152932,108.196367 L48.5152932,117.384261 L55.0111927,117.384261 Z" id="m" fill="#000000"></path>
                </g>
                <g id="hrot-s" transform="translate(158.000000, 0.000000)" sketch:type="MSShapeGroup">
                    <path d="M151,75.5002216 C151,117.200426 117.186081,151 75.4951261,151 C33.813476,151 0,117.200426 0,75.5002216 C0,33.8088803 33.8130329,0 75.4951261,0 C117.186081,-6.29730763e-15 151,33.8088803 151,75.5002216 L151,75.5002216 Z" id="Shape" fill="#0078FF"></path>
                    <path d="M36.9979195,109.038878 C49.4825328,115.787318 63.091886,117.24948 73.5519674,117.24948 C92.1101764,117.24948 112.692917,112.300624 112.692917,94.7546811 C112.692917,58.7630032 36.5480235,85.0819177 36.5480235,50.8898236 C36.5480235,33.7937766 57.4681863,28.9573948 74.4517594,28.9573948 C84.4619448,28.9573948 97.3964541,30.5320307 109.881067,36.1557304 L109.881067,35.4808865 C97.3964541,29.8571868 84.9118408,28.3950249 74.4517594,28.3950249 C57.0182904,28.3950249 35.8731796,33.3438806 35.8731796,50.8898236 C35.8731796,85.7567616 112.018073,59.4378471 112.018073,94.7546811 C112.018073,111.850728 91.6602804,116.68711 73.5519674,116.68711 C63.541782,116.68711 49.4825328,115.112474 36.9979195,108.364034 L36.9979195,109.038878 Z" id="S" fill="#000000"></path>
                </g>
                <g id="hrot-u" transform="translate(315.000000, 0.000000)" sketch:type="MSShapeGroup">
                    <path d="M151,75.5002216 C151,117.200426 117.186081,151 75.4951261,151 C33.813476,151 0,117.200426 0,75.5002216 C0,33.8088803 33.8130329,0 75.4951261,0 C117.186081,-6.29730763e-15 151,33.8088803 151,75.5002216 L151,75.5002216 Z" id="Shape-Copy" fill="#0078FF"></path>
                    <path d="M100.792,85.17 C100.792,100.636 88.878,108.11 74.818,108.11 C60.758,108.11 48.844,100.636 48.844,85.17 L48.844,51.5 L48.4,51.5 L48.4,85.17 C48.4,100.932 60.462,108.48 74.818,108.48 C89.174,108.48 101.236,100.932 101.236,85.17 L101.236,51.5 L100.792,51.5 L100.792,85.17 Z" id="U" fill="#000000"></path>
                </g>
                <g id="hrot-p" transform="translate(472.000000, 0.000000)" sketch:type="MSShapeGroup">
                    <path d="M151,75.5002216 C151,117.200426 117.186081,151 75.4951261,151 C33.813476,151 0,117.200426 0,75.5002216 C0,33.8088803 33.8130329,0 75.4951261,0 C117.186081,-6.29730763e-15 151,33.8088803 151,75.5002216 L151,75.5002216 Z" id="Shape-Copy-2" fill="#0078FF"></path>
                    <path d="M54.844,85.91 L54.844,51.87 L82.372,51.87 C98.652,51.87 104.794,60.084 104.794,68.89 C104.794,77.696 98.652,85.91 82.372,85.91 L54.844,85.91 Z M82.372,86.28 C98.948,86.28 105.238,77.992 105.238,68.89 C105.238,59.788 98.948,51.5 82.372,51.5 L54.4,51.5 L54.4,107 L54.844,107 L54.844,86.28 L82.372,86.28 Z" id="P" fill="#000000"></path>
                </g>
            </g>
        </g>
    </g>
</svg>