<?xml version="1.0" encoding="UTF-8" standalone="no"?>
<svg width="1024px" height="768px" viewBox="0 0 1024 768" version="1.1" xmlns="http://www.w3.org/2000/svg" xmlns:xlink="http://www.w3.org/1999/xlink" xmlns:sketch="http://www.bohemiancoding.com/sketch/ns">
    <!-- Generator: Sketch 3.3.2 (12043) - http://www.bohemiancoding.com/sketch -->
    <title>canvas</title>
    <desc>Created with Sketch.</desc>
    <defs></defs>
    <g id="Buttons" stroke="none" stroke-width="1" fill="none" fill-rule="evenodd" sketch:type="MSPage">
        <g id="canvas" sketch:type="MSArtboardGroup">
            <g id="vegan-sans" sketch:type="MSLayerGroup" transform="translate(13.000000, 16.000000)">
                <g id="a" sketch:type="MSShapeGroup">
                    <path d="M212.070928,105.52655 C212.070928,163.691285 164.766711,210.83651 106.442546,210.83651 C48.1309934,210.83651 0.828177632,163.691285 0.828177632,105.52655 C0.828177632,47.3729934 48.1309934,0.216589404 106.442546,0.216589404 C164.766711,0.215192053 212.070928,47.371596 212.070928,105.52655 L212.070928,105.52655 Z" id="Shape" fill="#FFFF00"></path>
                    <g transform="translate(49.046053, 32.139073)" fill="#000000">
                        <path d="M105.410662,127.351356 L105.410662,41.8683583 C105.410662,8.77048469 80.0989415,0.198373536 57.1751192,0.198373536 C25.4160737,0.198373536 5.35772913,15.4376823 4.8801495,44.9638429 L31.6246089,44.9638429 C32.3409783,25.6765928 40.4598321,18.2950526 57.1751192,18.2950526 C68.1594507,18.2950526 79.1437822,22.5811082 79.1437822,44.9638429 L79.1437822,59.0125806 C72.4576674,58.5363522 66.2491322,58.0601238 60.2793868,58.0601238 C15.6256912,58.0601238 0.581932816,77.8236023 0.581932816,98.0633092 C0.581932816,117.826788 14.6705319,130.923069 38.3107237,130.923069 C54.787221,130.923069 68.1594507,123.541528 79.1437822,112.82639 L79.1437822,127.351356 L105.410662,127.351356 Z M79.1437822,97.3489666 C71.9800877,104.730507 60.0405969,111.635819 49.5338451,111.635819 C36.1616154,111.635819 27.0876024,106.63542 27.0876024,94.253482 C27.0876024,82.5858863 36.1616154,73.5375467 61.9509155,73.5375467 C66.9655016,73.5375467 72.935247,73.7756609 79.1437822,74.4900035 L79.1437822,97.3489666 Z"></path>
                    </g>
                </g>
                <g id="rrr" transform="translate(262.000000, 0.000000)" sketch:type="MSShapeGroup">
                    <path d="M212.285329,105.52655 C212.285329,163.691285 164.979711,210.83651 106.655546,210.83651 C48.3453947,210.83651 1.04117763,163.691285 1.04117763,105.52655 C1.04117763,47.3729934 48.3439934,0.216589404 106.655546,0.216589404 C164.979711,0.215192053 212.285329,47.371596 212.285329,105.52655 L212.285329,105.52655 Z" id="Shape" fill="#FFFF00"></path>
                    <g id="RRr" transform="translate(30.828947, 67.072848)" fill="#000000">
                        <path d="M49.0754623,68.6216715 L34.109007,41.0169448 C44.8692036,38.5783647 54.1621008,31.3601676 54.1621008,17.704119 C54.1621008,5.41367535 44.3801038,0.341428742 33.1308073,0.341428742 L12.2951537,0.341428742 L0.263297428,68.6216715 L10.0452944,68.6216715 L14.7406529,41.8948336 L24.6204699,41.8948336 L37.8261658,68.6216715 L49.0754623,68.6216715 Z M16.0123126,34.5790933 L20.8054911,7.75471224 L31.8591477,7.75471224 C39.0978254,7.75471224 44.0866439,10.7785516 44.0866439,18.3869215 C44.0866439,29.8970195 36.7501461,34.5790933 27.0659691,34.5790933 L16.0123126,34.5790933 Z M108.941284,68.6216715 L93.9748284,41.0169448 C104.735025,38.5783647 114.027922,31.3601676 114.027922,17.704119 C114.027922,5.41367535 104.245925,0.341428742 92.9966287,0.341428742 L72.1609752,0.341428742 L60.1291189,68.6216715 L69.9111159,68.6216715 L74.6064744,41.8948336 L84.4862914,41.8948336 L97.6919873,68.6216715 L108.941284,68.6216715 Z M75.878134,34.5790933 L80.6713126,7.75471224 L91.7249691,7.75471224 C98.9636469,7.75471224 103.952465,10.7785516 103.952465,18.3869215 C103.952465,29.8970195 96.6159676,34.5790933 86.9317906,34.5790933 L75.878134,34.5790933 Z M127.331438,68.6216715 L133.396276,34.1889205 C136.722155,29.6043899 142.884813,25.1174026 148.754011,25.1174026 C151.688611,25.1174026 153.05809,25.7026618 155.307949,26.6780938 L156.677429,19.1672671 C155.405769,17.6065758 153.64501,16.728687 151.003871,16.728687 C145.623772,16.728687 139.754574,20.532872 134.667936,26.9707234 L136.233055,18.1918351 L127.135798,18.1918351 L118.136361,68.6216715 L127.331438,68.6216715 Z"></path>
                    </g>
                </g>
                <g id="65" transform="translate(524.000000, 0.000000)" sketch:type="MSShapeGroup">
                    <path d="M212.066724,105.52655 C212.066724,163.691285 164.763908,210.83651 106.438342,210.83651 C48.1267895,210.83651 0.823973684,163.691285 0.823973684,105.52655 C0.823973684,47.3729934 48.1267895,0.216589404 106.438342,0.216589404 C164.763908,0.215192053 212.066724,47.371596 212.066724,105.52655 L212.066724,105.52655 Z" id="Shape" fill="#FFFF00"></path>
                    <g transform="translate(29.427632, 54.496689)" fill="#000000">
                        <path d="M67.3823729,24.9464656 C65.6999449,8.94409535 54.1817839,0.684807487 36.9692513,0.684807487 C16.1330275,0.684807487 1.37942808,18.3648456 1.37942808,52.0472539 C1.37942808,78.8899394 14.4505995,94.8923097 36.8398337,94.8923097 C55.0877067,94.8923097 69.582471,82.890532 69.582471,64.0490316 C69.582471,44.9494284 59.7467381,34.4962672 43.4401282,34.4962672 C35.8044934,34.4962672 27.780606,38.7549625 22.9921571,44.5622743 C23.7686623,25.2045683 27.780606,15.7838181 36.9692513,15.7838181 C42.5342054,15.7838181 45.2519737,18.4938969 46.1578965,24.9464656 L67.3823729,24.9464656 Z M36.4515811,49.8533805 C45.7696439,49.8533805 48.6168297,57.0802574 48.6168297,64.0490316 C48.6168297,72.0502167 44.7343036,79.793299 36.8398337,79.793299 C27.2629358,79.793299 23.3804097,71.0178057 22.8627395,55.5316409 C26.098178,52.1763053 31.6631322,49.8533805 36.4515811,49.8533805 L36.4515811,49.8533805 Z M80.4535443,68.3077269 C81.6183021,85.8587136 92.7482105,94.8923097 113.196182,94.8923097 C131.314637,94.8923097 145.291731,83.1486347 145.291731,63.0166206 C145.291731,42.4974523 135.585416,32.1733425 119.667059,32.1733425 C112.290259,32.1733425 104.525207,36.3029864 100.772098,41.4650413 L100.772098,18.2357942 L139.59736,18.2357942 L139.59736,2.62057808 L82.9124775,2.62057808 L82.9124775,53.2087162 L100.772098,53.2087162 C103.878119,49.5952778 108.278315,47.6595072 112.678511,47.6595072 C121.737739,47.6595072 124.32609,54.3701786 124.32609,63.0166206 C124.32609,72.3083194 120.831816,79.793299 113.196182,79.793299 C105.819382,79.793299 102.325108,76.0508092 101.807438,68.3077269 L80.4535443,68.3077269 Z"></path>
                    </g>
                </g>
                <g id="b" transform="translate(786.000000, 0.000000)" sketch:type="MSShapeGroup">
                    <path d="M212.365204,105.52655 C212.365204,163.691285 165.059586,210.83651 106.735421,210.83651 C48.4252697,210.83651 1.12105263,163.691285 1.12105263,105.52655 C1.12105263,47.3729934 48.4252697,0.216589404 106.735421,0.216589404 C165.059586,0.215192053 212.365204,47.371596 212.365204,105.52655 L212.365204,105.52655 Z" id="Shape" fill="#FFFF00"></path>
                    <g id="ẞ" transform="translate(58.855263, 43.317881)" fill="#000000">
                        <path d="M93.2566471,11.3182082 L94.9655141,0.939103709 L58.9239545,0.939103709 C34.5337612,0.939103709 17.2897391,14.5713604 11.5417318,47.1028821 L0.511771737,109.377509 L13.872005,109.377509 L25.2126682,45.553762 C29.5625116,20.7678407 40.5924716,11.3182082 57.2150875,11.3182082 L78.6536014,11.3182082 L46.1851274,47.8774421 L44.3209088,58.2565466 L48.9814553,58.2565466 C65.6040712,58.2565466 73.3716487,67.0865311 73.3716487,78.0852837 C73.3716487,94.0412205 63.4291495,101.322085 52.3991894,101.322085 C44.4762604,101.322085 39.3496592,98.0689327 40.126417,90.3233323 L25.6787228,90.3233323 C23.5038011,103.026117 33.1355972,111.701189 49.7582131,111.701189 C66.691532,111.701189 87.5086397,99.6180528 87.5086397,76.8459876 C87.5086397,66.1570591 81.9159839,51.7502423 60.1667669,48.4970901 L93.2566471,11.3182082 Z"></path>
                    </g>
                </g>
            </g>
            <g id="kunda-book" sketch:type="MSLayerGroup" transform="translate(13.000000, 274.000000)">
                <g id="g" sketch:type="MSShapeGroup">
                    <path d="M212.070928,106.57427 C212.070928,164.904039 164.766711,212.181632 106.442546,212.181632 C48.1309934,212.181632 0.828177632,164.904039 0.828177632,106.57427 C0.828177632,48.2557105 48.1309934,0.964105263 106.442546,0.964105263 C164.766711,0.964105263 212.070928,48.2557105 212.070928,106.57427 L212.070928,106.57427 Z" id="Shape" fill="#FF3C32"></path>
                    <g transform="translate(63.059211, 30.828947)" fill="#000000">
                        <path d="M28.8046291,102.895131 C9.40081021,109.096351 0.599077914,117.698044 0.599077914,127.900052 C0.599077914,140.502532 17.0023063,147.70395 40.8069914,147.70395 C65.0117552,147.70395 93.6173851,133.301115 93.6173851,109.696469 C93.6173851,91.6929258 76.814078,83.2912722 26.6041961,81.6909573 L32.0052591,75.4897368 C36.0060465,76.4899337 40.0068339,76.8900124 44.4077,76.8900124 C63.0113615,76.8900124 84.4155741,65.6878077 84.4155741,45.2837919 C84.4155741,37.2822171 81.2149442,30.8809572 76.0139206,25.8799729 L97.6181726,17.8783981 L86.2159284,0.675012274 L82.6152198,0.675012274 L70.0127394,21.4791068 C63.4114402,17.6783588 55.209826,15.6779651 46.4080937,15.6779651 C27.8044323,15.6779651 6.40021966,26.8801698 6.40021966,47.2841856 C6.40021966,59.6866265 13.8016764,68.4883588 24.6038024,73.0892644 L3.59966847,97.2940282 L5.19998343,100.694697 C15.201952,101.094776 23.8036449,102.094973 31.2051016,103.09517 L28.8046291,102.895131 Z M70.8128969,123.299146 C70.8128969,132.300918 61.6110859,138.702178 46.8081725,138.702178 C34.6057709,138.702178 25.4039598,132.300918 25.4039598,121.498792 C25.4039598,117.698044 27.8044323,109.096351 37.2062827,103.895327 C61.0109678,107.896115 70.8128969,114.697453 70.8128969,123.299146 L70.8128969,123.299146 Z M47.0082118,69.6885951 C37.0062433,69.6885951 34.2056921,51.4850124 34.2056921,41.0829651 C34.2056921,31.0809966 37.2062827,22.8793824 43.8075819,22.8793824 C53.8095504,22.8793824 56.6101016,41.0829651 56.6101016,51.4850124 C56.6101016,61.4869809 53.6095111,69.6885951 47.0082118,69.6885951 L47.0082118,69.6885951 Z"></path>
                    </g>
                </g>
                <g id="34" transform="translate(262.000000, 1.000000)" sketch:type="MSShapeGroup">
                    <path d="M212.333394,105.316807 C212.333394,163.481542 165.027776,210.62537 106.705012,210.62537 C48.3934599,210.62537 1.09064408,163.481542 1.09064408,105.316807 C1.09064408,47.163251 48.3934599,0.00544966887 106.705012,0.00544966887 C165.027776,0.00544966887 212.333394,47.163251 212.333394,105.316807 L212.333394,105.316807 Z" id="Shape" fill="#FF3C32"></path>
                    <g id="¾" transform="translate(53.250000, 46.112583)" fill="#000000">
                        <path d="M97.3206003,102.006623 L97.3206003,100.360073 C90.265381,98.8632095 89.0644926,97.5160325 89.0644926,93.0254425 L89.0644926,90.9298338 L99.272044,90.9298338 L99.272044,80.6014767 L89.0644926,80.6014767 L89.0644926,47.8201695 L78.8569413,47.8201695 L47.483732,89.2832841 L47.483732,90.9298338 L76.4551645,90.9298338 L76.4551645,93.0254425 C76.4551645,97.5160325 75.2542761,98.8632095 68.0489457,100.360073 L68.0489457,102.006623 L97.3206003,102.006623 Z M0.649084569,57.2504085 C6.05308235,60.0944489 13.1083017,61.4416259 18.8125215,61.4416259 C30.5211834,61.4416259 43.4307336,55.0051135 43.4307336,43.3295794 C43.4307336,34.3483994 35.1746259,28.9596913 23.4659641,27.462828 L41.9296231,7.40485915 L41.9296231,5.75830947 L0.649084569,5.75830947 L0.649084569,24.3194149 L2.30030611,24.3194149 C7.10385969,16.6854119 11.4570801,16.0866665 17.4615221,16.0866665 L28.1194066,16.0866665 L28.1194066,16.9847846 L13.7087459,31.953418 L13.7087459,33.5999677 C23.0156309,35.3962037 30.2209613,39.2880484 30.2209613,47.2214241 C30.2209613,55.3044862 24.6668525,57.4000949 19.7131878,57.4000949 C12.6579685,57.4000949 6.65352654,52.6101322 2.15019506,44.0780111 L0.649084569,44.0780111 L0.649084569,57.2504085 Z M25.1171856,107.395331 L89.6649368,4.41113246 L83.8106059,0.818660437 L19.2628547,103.802859 L25.1171856,107.395331 Z M76.4551645,80.6014767 L58.8921717,80.6014767 L58.8921717,79.853045 L75.7046092,57.9988402 L76.4551645,57.9988402 L76.4551645,80.6014767 Z"></path>
                    </g>
                </g>
                <g id="q" transform="translate(524.000000, 1.000000)" sketch:type="MSShapeGroup">
                    <path d="M210.858029,105.580208 C210.858029,163.744943 163.686254,210.888771 105.527109,210.888771 C47.3819364,210.888771 0.21155894,163.744943 0.21155894,105.580208 C0.21155894,47.4266517 47.3819364,0.268850331 105.527109,0.268850331 C163.686254,0.268850331 210.858029,47.4266517 210.858029,105.580208 L210.858029,105.580208 Z" id="Shape" fill="#FF3C32"></path>
                    <g id="Q" transform="translate(61.483444, 43.317881)" fill="#000000">
                        <path d="M78.3243151,108.503537 C74.224437,115.824748 69.6852862,119.192505 64.1211659,119.192505 C54.8964401,119.192505 39.2290487,110.114204 31.1757167,103.232266 L29.1257777,103.232266 L21.5117183,111.285598 C29.4186261,118.021112 48.8930472,128.124383 58.849894,128.124383 C68.9531651,128.124383 76.274376,119.192505 80.2278299,109.528507 L78.3243151,108.503537 Z M33.2256558,95.0325094 C17.8511128,95.0325094 12.8726894,80.9757844 12.8726894,65.8940899 C12.8726894,34.9985798 32.3471105,6.44585717 55.3357128,6.44585717 C70.7102557,6.44585717 75.8351034,20.6490064 75.8351034,35.7307009 C75.8351034,66.626211 56.0678339,95.0325094 33.2256558,95.0325094 L33.2256558,95.0325094 Z M29.5650503,100.157357 C56.0678339,100.157357 88.5740104,66.626211 88.5740104,33.827186 C88.5740104,12.8885228 76.5672245,1.32100952 59.1427425,1.32100952 C32.6399589,1.32100952 0.133782384,34.8521556 0.133782384,67.6511805 C0.133782384,88.5898438 12.1405683,100.157357 29.5650503,100.157357 L29.5650503,100.157357 Z"></path>
                    </g>
                </g>
                <g id="ag" transform="translate(786.000000, 1.000000)" sketch:type="MSShapeGroup">
                    <path d="M211.807901,105.679839 C211.807901,163.844574 164.505085,210.988402 106.179519,210.988402 C47.8679664,210.988402 0.565150658,163.844574 0.565150658,105.679839 C0.565150658,47.5262828 47.8679664,0.368481457 106.179519,0.368481457 C164.505085,0.368481457 211.807901,47.5262828 211.807901,105.679839 L211.807901,105.679839 Z" id="Shape" fill="#FF3C32"></path>
                    <g transform="translate(35.032895, 51.701987)" fill="#000000">
                        <path d="M44.0347478,34.4658488 C36.3312315,53.3628812 24.313746,70.5699351 19.6916362,70.5699351 C16.7642999,70.5699351 16.1480186,66.4218061 16.1480186,63.6563867 C16.1480186,48.6002145 27.8573635,17.7196981 41.1074116,17.7196981 C43.7266072,17.7196981 45.7295214,19.7169454 46.8080137,24.0187089 L44.0347478,34.4658488 Z M66.9912265,61.1982361 C62.2150464,66.1145372 56.360374,70.1090319 52.6626861,70.1090319 C50.3516312,70.1090319 49.7353499,67.9581502 50.5057016,64.885462 L65.2964529,13.571569 L62.6772574,13.571569 L55.898163,18.0269669 C53.1248971,14.8006443 48.9649983,13.571569 44.8050995,13.571569 C22.0026911,13.571569 0.278774961,45.3738919 0.278774961,67.0363437 C0.278774961,75.1789674 4.13053313,80.7098062 10.6014869,80.7098062 C20.3079175,80.7098062 29.7062074,69.8017631 37.8719347,54.7455909 L38.950427,54.7455909 L33.8661062,68.8799566 C30.93877,77.1762148 35.2527392,80.7098062 40.33706,80.7098062 C48.9649983,80.7098062 60.3662025,73.1817201 68.8400705,63.041849 L66.9912265,61.1982361 Z M61.9069057,100.375011 C61.9069057,109.900344 71.459266,114.202108 81.6279076,114.202108 C101.65705,114.202108 120.29956,100.835914 120.29956,83.62886 C120.29956,72.1062792 108.898355,62.5809458 83.9389625,60.2764297 L72.0755473,68.5726878 L72.5377583,71.1844728 C77.7761494,71.7990104 82.2441889,72.4135481 86.0959471,73.3353545 C70.2267034,81.7852471 61.9069057,91.1569461 61.9069057,100.375011 L61.9069057,100.375011 Z M141.407194,9.57707439 L132.779256,0.359009793 L130.622272,0.359009793 L122.610615,14.9542787 C119.991419,14.0324723 116.910012,13.571569 113.674536,13.571569 C97.1890106,13.571569 79.7790637,29.0886445 79.7790637,45.8347951 C79.7790637,55.3601285 87.7907207,59.8155264 98.5756436,59.8155264 C115.215239,59.8155264 132.471116,44.4520854 132.471116,27.5523004 C132.471116,22.4823648 130.160061,18.795139 126.308302,16.4906228 L141.407194,9.57707439 Z M107.665793,90.8496772 C107.665793,100.989548 97.9593623,109.439441 87.1744394,109.439441 C80.7034856,109.439441 75.6191649,104.676774 75.6191649,98.3777633 C75.6191649,91.9251181 79.933134,81.9388815 90.5639866,74.5644298 C103.968105,78.5589244 107.665793,85.0115697 107.665793,90.8496772 L107.665793,90.8496772 Z M101.81112,55.6673974 C96.418659,55.6673974 95.032026,50.290193 95.032026,44.6057199 C95.032026,35.2340208 100.270417,17.7196981 110.439059,17.7196981 C115.83152,17.7196981 117.372223,23.2505369 117.372223,28.93501 C117.372223,38.306709 111.979762,55.6673974 101.81112,55.6673974 L101.81112,55.6673974 Z"></path>
                    </g>
                </g>
            </g>
            <g id="hrot" sketch:type="MSLayerGroup" transform="translate(13.000000, 535.000000)">
                <g id="hrot-hmm" sketch:type="MSShapeGroup">
                    <path d="M211,105.50031 C211,163.770131 163.749467,211 105.49257,211 C47.2492943,211 0,163.770131 0,105.50031 C0,47.2428724 47.2486752,0 105.49257,0 C163.748848,-8.79954907e-15 211,47.2428724 211,105.50031 L211,105.50031 Z" id="Shape" fill="#0078FF"></path>
                    <g id="hmmmmm" transform="translate(32.139073, 40.523179)" fill="#000000">
                        <path d="M139.554093,30.7417219 L139.554093,0.0760073401 L130.068166,0.0760073401 L130.068166,11.0747769 L115.553061,11.0747769 L115.553061,0.0760073401 L106.067133,0.0760073401 L106.067133,30.7417219 L115.553061,30.7417219 L115.553061,19.0478627 L130.068166,19.0478627 L130.068166,30.7417219 L139.554093,30.7417219 Z" id="H"></path>
                        <path d="M44.7308719,61.6626327 L44.7308719,47.4337412 C44.7308719,41.4641487 41.6234128,37.9478135 36.3897975,37.9478135 C33.650327,37.9478135 30.7881937,38.8064535 26.454106,42.2001259 C25.1048146,39.3788802 22.5697822,37.9478135 19.1761098,37.9478135 C16.4366393,37.9478135 13.0838545,39.0108916 9.89462016,41.9548002 L10.3034964,38.7655659 L1.22644486,38.7655659 L1.22644486,61.6626327 L10.3034964,61.6626327 L10.3034964,47.4337412 C11.9798888,46.2888878 14.0651573,45.5120231 15.4144488,45.5120231 C16.7637402,45.5120231 18.4401326,46.2888878 18.4401326,48.8239202 L18.4401326,61.6626327 L27.5171841,61.6626327 L27.5171841,47.4337412 C29.1935765,46.2888878 31.2788451,45.5120231 32.6281365,45.5120231 C33.977428,45.5120231 35.6538204,46.2888878 35.6538204,48.8239202 L35.6538204,61.6626327 L44.7308719,61.6626327 Z M92.3240608,61.6626327 L92.3240608,47.4337412 C92.3240608,41.4641487 89.2166017,37.9478135 83.9829864,37.9478135 C81.2435159,37.9478135 78.3813826,38.8064535 74.0472949,42.2001259 C72.6980035,39.3788802 70.1629711,37.9478135 66.7692987,37.9478135 C64.0298282,37.9478135 60.6770434,39.0108916 57.4878091,41.9548002 L57.8966853,38.7655659 L48.8196338,38.7655659 L48.8196338,61.6626327 L57.8966853,61.6626327 L57.8966853,47.4337412 C59.5730777,46.2888878 61.6583463,45.5120231 63.0076377,45.5120231 C64.3569291,45.5120231 66.0333215,46.2888878 66.0333215,48.8239202 L66.0333215,61.6626327 L75.110373,61.6626327 L75.110373,47.4337412 C76.7867654,46.2888878 78.872034,45.5120231 80.2213255,45.5120231 C81.5706169,45.5120231 83.2470093,46.2888878 83.2470093,48.8239202 L83.2470093,61.6626327 L92.3240608,61.6626327 Z M139.91725,61.6626327 L139.91725,47.4337412 C139.91725,41.4641487 136.809791,37.9478135 131.576175,37.9478135 C128.836705,37.9478135 125.974572,38.8064535 121.640484,42.2001259 C120.291192,39.3788802 117.75616,37.9478135 114.362488,37.9478135 C111.623017,37.9478135 108.270232,39.0108916 105.080998,41.9548002 L105.489874,38.7655659 L96.4128227,38.7655659 L96.4128227,61.6626327 L105.489874,61.6626327 L105.489874,47.4337412 C107.166267,46.2888878 109.251535,45.5120231 110.600827,45.5120231 C111.950118,45.5120231 113.62651,46.2888878 113.62651,48.8239202 L113.62651,61.6626327 L122.703562,61.6626327 L122.703562,47.4337412 C124.379954,46.2888878 126.465223,45.5120231 127.814514,45.5120231 C129.163806,45.5120231 130.840198,46.2888878 130.840198,48.8239202 L130.840198,61.6626327 L139.91725,61.6626327 Z" id="mmm"></path>
                        <path d="M44.7308719,92.5835436 L44.7308719,78.354652 C44.7308719,72.3850596 41.6234128,68.8687243 36.3897975,68.8687243 C33.650327,68.8687243 30.7881937,69.7273643 26.454106,73.1210368 C25.1048146,70.299791 22.5697822,68.8687243 19.1761098,68.8687243 C16.4366393,68.8687243 13.0838545,69.9318024 9.89462016,72.875711 L10.3034964,69.6864767 L1.22644486,69.6864767 L1.22644486,92.5835436 L10.3034964,92.5835436 L10.3034964,78.354652 C11.9798888,77.2097987 14.0651573,76.4329339 15.4144488,76.4329339 C16.7637402,76.4329339 18.4401326,77.2097987 18.4401326,79.7448311 L18.4401326,92.5835436 L27.5171841,92.5835436 L27.5171841,78.354652 C29.1935765,77.2097987 31.2788451,76.4329339 32.6281365,76.4329339 C33.977428,76.4329339 35.6538204,77.2097987 35.6538204,79.7448311 L35.6538204,92.5835436 L44.7308719,92.5835436 Z M92.3240608,92.5835436 L92.3240608,78.354652 C92.3240608,72.3850596 89.2166017,68.8687243 83.9829864,68.8687243 C81.2435159,68.8687243 78.3813826,69.7273643 74.0472949,73.1210368 C72.6980035,70.299791 70.1629711,68.8687243 66.7692987,68.8687243 C64.0298282,68.8687243 60.6770434,69.9318024 57.4878091,72.875711 L57.8966853,69.6864767 L48.8196338,69.6864767 L48.8196338,92.5835436 L57.8966853,92.5835436 L57.8966853,78.354652 C59.5730777,77.2097987 61.6583463,76.4329339 63.0076377,76.4329339 C64.3569291,76.4329339 66.0333215,77.2097987 66.0333215,79.7448311 L66.0333215,92.5835436 L75.110373,92.5835436 L75.110373,78.354652 C76.7867654,77.2097987 78.872034,76.4329339 80.2213255,76.4329339 C81.5706169,76.4329339 83.2470093,77.2097987 83.2470093,79.7448311 L83.2470093,92.5835436 L92.3240608,92.5835436 Z" id="mm"></path>
                        <path d="M44.7308719,123.503835 L44.7308719,109.274943 C44.7308719,103.305351 41.6234128,99.7890155 36.3897975,99.7890155 C33.650327,99.7890155 30.7881937,100.647656 26.454106,104.041328 C25.1048146,101.220082 22.5697822,99.7890155 19.1761098,99.7890155 C16.4366393,99.7890155 13.0838545,100.852094 9.89462016,103.796002 L10.3034964,100.606768 L1.22644486,100.606768 L1.22644486,123.503835 L10.3034964,123.503835 L10.3034964,109.274943 C11.9798888,108.13009 14.0651573,107.353225 15.4144488,107.353225 C16.7637402,107.353225 18.4401326,108.13009 18.4401326,110.665122 L18.4401326,123.503835 L27.5171841,123.503835 L27.5171841,109.274943 C29.1935765,108.13009 31.2788451,107.353225 32.6281365,107.353225 C33.977428,107.353225 35.6538204,108.13009 35.6538204,110.665122 L35.6538204,123.503835 L44.7308719,123.503835 Z" id="m"></path>
                    </g>
                </g>
                <g id="hrot-s" transform="translate(262.000000, 0.000000)" sketch:type="MSShapeGroup">
                    <path d="M211,105.50031 C211,163.770131 163.750087,211 105.49319,211 C47.2492943,211 0,163.770131 0,105.50031 C0,47.2428724 47.2486752,0 105.49319,0 C163.750087,-8.79954907e-15 211,47.2428724 211,105.50031 L211,105.50031 Z" id="Shape" fill="#0078FF"></path>
                    <g id="S" transform="translate(48.907285, 39.125828)" fill="#000000">
                        <path d="M2.79179479,113.239757 C20.2371816,122.669696 39.2542248,124.712849 53.87063,124.712849 C79.8029617,124.712849 108.564275,117.797561 108.564275,93.27972 C108.564275,42.986713 2.1631322,79.7634744 2.1631322,31.9851177 C2.1631322,8.09593943 31.3959425,1.33781662 55.1279552,1.33781662 C69.1156977,1.33781662 87.1897471,3.53813567 104.635134,11.396418 L104.635134,10.4534241 C87.1897471,2.59514179 69.7443603,0.551988384 55.1279552,0.551988384 C30.7672799,0.551988384 1.22013832,7.46727684 1.22013832,31.9851177 C1.22013832,80.7064683 107.621281,43.9297069 107.621281,93.27972 C107.621281,117.168898 79.1742991,123.927021 53.87063,123.927021 C39.8828874,123.927021 20.2371816,121.726702 2.79179479,112.296763 L2.79179479,113.239757 Z"></path>
                    </g>
                </g>
                <g id="hrot-u" transform="translate(524.000000, 0.000000)" sketch:type="MSShapeGroup">
                    <path d="M211,105.50031 C211,163.770131 163.750087,211 105.49319,211 C47.2492943,211 0,163.770131 0,105.50031 C0,47.2428724 47.2486752,0 105.49319,0 C163.750087,-8.79954907e-15 211,47.2428724 211,105.50031 L211,105.50031 Z" id="Shape-Copy" fill="#0078FF"></path>
                    <g id="U" transform="translate(67.072848, 71.264901)" fill="#000000">
                        <path d="M73.7689536,47.7474834 C73.7689536,69.3589139 57.1209139,79.8027152 37.4741589,79.8027152 C17.827404,79.8027152 1.17936424,69.3589139 1.17936424,47.7474834 L1.17936424,0.698675497 L0.558940397,0.698675497 L0.558940397,47.7474834 C0.558940397,69.7725298 17.4137881,80.3197351 37.4741589,80.3197351 C57.5345298,80.3197351 74.3893775,69.7725298 74.3893775,47.7474834 L74.3893775,0.698675497 L73.7689536,0.698675497 L73.7689536,47.7474834 Z"></path>
                    </g>
                </g>
                <g id="hrot-p" transform="translate(788.000000, 0.000000)" sketch:type="MSShapeGroup">
                    <path d="M211,105.50031 C211,163.770131 163.750087,211 105.49319,211 C47.2492943,211 0,163.770131 0,105.50031 C0,47.2428724 47.2486752,0 105.49319,0 C163.750087,-8.79954907e-15 211,47.2428724 211,105.50031 L211,105.50031 Z" id="Shape-Copy-2" fill="#0078FF"></path>
                    <g id="P" transform="translate(75.456954, 71.264901)" fill="#000000">
                        <path d="M1.17936424,48.7815232 L1.17936424,1.21569536 L39.6456424,1.21569536 C62.3945166,1.21569536 70.9770464,12.6935364 70.9770464,24.9986093 C70.9770464,37.3036821 62.3945166,48.7815232 39.6456424,48.7815232 L1.17936424,48.7815232 Z M39.6456424,49.298543 C62.8081325,49.298543 71.5974702,37.717298 71.5974702,24.9986093 C71.5974702,12.2799205 62.8081325,0.698675497 39.6456424,0.698675497 L0.558940397,0.698675497 L0.558940397,78.2516556 L1.17936424,78.2516556 L1.17936424,49.298543 L39.6456424,49.298543 Z"></path>
                    </g>
                </g>
            </g>
        </g>
    </g>
</svg>