<?xml version="1.0" encoding="UTF-8" standalone="no"?>
<svg width="1556px" height="4770px" viewBox="0 0 1556 4770" version="1.1" xmlns="http://www.w3.org/2000/svg" xmlns:xlink="http://www.w3.org/1999/xlink" xmlns:sketch="http://www.bohemiancoding.com/sketch/ns">
    <!-- Generator: Sketch 3.3.2 (12043) - http://www.bohemiancoding.com/sketch -->
    <title>Artboard 1</title>
    <desc>Created with Sketch.</desc>
    <defs></defs>
    <g id="Page-1" stroke="none" stroke-width="1" fill="none" fill-rule="evenodd" sketch:type="MSPage">
        <g id="Artboard-1" sketch:type="MSArtboardGroup" fill="#231F20">
            <g id="hrot-glyphs-upper-case" sketch:type="MSLayerGroup" transform="translate(-6.000000, 0.000000)">
                <path d="M87.571,77.101 L77.97,58.6 L30.068,58.6 L20.567,77.101 L10.266,77.101 L49.569,2.096 L59.269,2.096 L98.572,77.101 L87.571,77.101 L87.571,77.101 Z M34.168,50.5 L73.871,50.5 L53.97,11.897 L34.168,50.5 L34.168,50.5 Z" id="Shape" sketch:type="MSShapeGroup"></path>
                <path d="M268.097,77.101 L268.097,2.096 L307.799,2.096 C330.401,2.096 339.801,9.297 339.801,21.497 C339.801,30.397 334.001,36.998 323.3,38.998 C335.301,40.698 341.802,47.398 341.802,56.999 C341.802,69.5 332.401,77.101 309.4,77.101 L268.097,77.101 L268.097,77.101 Z M277.697,9.497 L277.697,35.499 L307.799,35.499 C322.901,35.499 329.801,30.898 329.801,22.498 C329.801,14.197 322.901,9.497 307.799,9.497 L277.697,9.497 L277.697,9.497 Z M277.697,42.699 L277.697,69.701 L309.399,69.701 C324.9,69.701 331.8,64.6 331.8,56.2 C331.8,47.7 324.9,42.699 309.399,42.699 L277.697,42.699 L277.697,42.699 Z" id="Shape" sketch:type="MSShapeGroup"></path>
                <path d="M585.031,72 C576.93,76.7 566.03,79.101 556.229,79.101 C530.227,79.101 511.726,64.3 511.726,39.599 C511.726,14.897 530.227,0.096 556.229,0.096 C566.429,0.096 576.93,2.496 585.031,6.996 L585.031,16.197 C576.93,10.996 566.929,8.196 556.629,8.196 C536.328,8.196 521.728,20.096 521.728,39.598 C521.728,59.099 536.329,70.999 556.629,70.999 C566.53,70.999 577.931,68.199 585.631,62.999 L585.031,72 L585.031,72 Z" id="Shape" sketch:type="MSShapeGroup"></path>
                <path d="M758.756,77.101 L758.756,2.096 L793.559,2.096 C820.161,2.096 838.461,15.698 838.461,39.599 C838.461,63.5 820.16,77.101 793.559,77.101 L758.756,77.101 L758.756,77.101 Z M793.559,69 C814.459,69 828.361,58.699 828.361,39.599 C828.361,20.497 814.46,10.197 793.559,10.197 L768.357,10.197 L768.357,69 L793.559,69 L793.559,69 Z" id="Shape" sketch:type="MSShapeGroup"></path>
                <path d="M1011.586,77.101 L1011.586,2.096 L1074.59,2.096 L1074.59,10.197 L1021.187,10.197 L1021.187,34.799 L1068.79,34.799 L1068.79,42.9 L1021.187,42.9 L1021.187,69 L1074.59,69 L1074.59,77.101 L1011.586,77.101 L1011.586,77.101 Z" id="Shape" sketch:type="MSShapeGroup"></path>
                <path d="M1257.717,46.099 L1257.717,77.101 L1248.116,77.101 L1248.116,2.096 L1310.32,2.096 L1310.32,10.197 L1257.716,10.197 L1257.716,37.999 L1304.519,37.999 L1304.519,46.1 L1257.717,46.1 L1257.717,46.099 Z" id="Shape" sketch:type="MSShapeGroup"></path>
                <path d="M1541.352,42.399 L1550.953,42.399 L1550.953,71.101 C1542.152,76.701 1529.552,79.101 1519.751,79.101 C1492.149,79.101 1474.448,64.3 1474.448,39.599 C1474.448,14.897 1492.949,0.096 1520.151,0.096 C1530.351,0.096 1541.252,2.496 1549.352,7.397 L1549.352,16.198 C1541.251,10.997 1530.851,8.197 1520.55,8.197 C1499.049,8.197 1484.448,20.097 1484.448,39.599 C1484.448,59.1 1499.049,71.5 1520.95,71.5 C1528.65,71.5 1536.251,69.8 1541.351,67 L1541.351,42.399 L1541.352,42.399 Z" id="Shape" sketch:type="MSShapeGroup"></path>
                <path d="M81.871,353.101 L81.871,318.899 L25.468,318.899 L25.468,353.101 L15.867,353.101 L15.867,278.096 L25.468,278.096 L25.468,310.798 L81.871,310.798 L81.871,278.096 L91.472,278.096 L91.472,353.101 L81.871,353.101 L81.871,353.101 Z" id="Shape" sketch:type="MSShapeGroup"></path>
                <path d="M275.414,353.101 L275.414,278.096 L285.015,278.096 L285.015,353.101 L275.414,353.101 L275.414,353.101 Z" id="Shape" sketch:type="MSShapeGroup"></path>
                <path d="M513.863,278.096 L523.563,278.096 L523.563,326.7 C523.563,345.901 507.762,355.101 487.361,355.101 C480.661,355.101 472.36,354.001 465.66,351.901 L464.96,343.6 C471.66,345.701 479.86,347 486.562,347 C501.663,347 513.864,340.3 513.864,326.699 L513.864,278.096 L513.863,278.096 Z" id="Shape" sketch:type="MSShapeGroup"></path>
                <path d="M768.211,353.101 L725.408,318.099 L715.907,324.899 L715.907,353.101 L706.306,353.101 L706.306,278.096 L715.907,278.096 L715.907,313.998 L764.011,278.096 L777.612,278.096 L732.609,311.899 L781.812,353.101 L768.211,353.101 L768.211,353.101 Z" id="Shape" sketch:type="MSShapeGroup"></path>
                <path d="M960.152,353.101 L960.152,278.096 L969.753,278.096 L969.753,345 L1018.556,345 L1018.556,353.101 L960.152,353.101 L960.152,353.101 Z" id="Shape" sketch:type="MSShapeGroup"></path>
                <path d="M1280.504,353.101 L1280.504,291.897 L1244.502,335.1 L1243.802,335.1 L1207.4,291.897 L1207.4,353.101 L1198.099,353.101 L1198.099,278.096 L1206.799,278.096 L1244.201,322.299 L1281.103,278.096 L1289.804,278.096 L1289.804,353.101 L1280.504,353.101 L1280.504,353.101 Z" id="Shape" sketch:type="MSShapeGroup"></path>
                <path d="M1540.648,353.101 L1483.044,291.897 L1483.044,353.101 L1473.743,353.101 L1473.743,278.096 L1482.443,278.096 L1540.047,339.3 L1540.047,278.096 L1549.348,278.096 L1549.348,353.101 L1540.648,353.101 L1540.648,353.101 Z" id="Shape" sketch:type="MSShapeGroup"></path>
                <path d="M58.17,631.101 C31.969,631.101 13.867,615.9 13.867,591.599 C13.867,567.297 31.969,552.096 58.17,552.096 C84.371,552.096 102.473,567.297 102.473,591.599 C102.473,615.9 84.371,631.101 58.17,631.101 L58.17,631.101 Z M58.17,560.197 C38.068,560.197 23.868,572.097 23.868,591.599 C23.868,611.1 38.068,623 58.17,623 C78.272,623 92.472,611.1 92.472,591.599 C92.472,572.097 78.271,560.197 58.17,560.197 L58.17,560.197 Z" id="Shape" sketch:type="MSShapeGroup"></path>
                <path d="M278.331,604.9 L278.331,629.101 L268.73,629.101 L268.73,554.096 L308.932,554.096 C331.734,554.096 341.434,565.197 341.434,579.497 C341.434,593.799 331.734,604.899 308.932,604.899 L278.331,604.899 L278.331,604.9 Z M308.933,596.799 C325.535,596.799 332.235,589.099 332.235,579.497 C332.235,569.797 325.535,562.196 308.933,562.196 L278.331,562.196 L278.331,596.799 L308.933,596.799 L308.933,596.799 Z" id="Shape" sketch:type="MSShapeGroup"></path>
                <path d="M572.897,625.5 L594.198,644.502 L581.298,644.502 L563.897,629.101 C559.097,630.401 553.897,631.101 548.296,631.101 C522.095,631.101 503.993,615.9 503.993,591.599 C503.993,567.297 522.095,552.096 548.296,552.096 C574.497,552.096 592.599,567.297 592.599,591.599 C592.599,607.2 585.098,619 572.897,625.5 L572.897,625.5 Z M548.296,560.197 C528.194,560.197 513.994,572.097 513.994,591.599 C513.994,611.1 528.194,623 548.296,623 C568.398,623 582.598,611.1 582.598,591.599 C582.598,572.097 568.397,560.197 548.296,560.197 L548.296,560.197 Z" id="Shape" sketch:type="MSShapeGroup"></path>
                <path d="M805.56,630.901 C805.66,636.502 810.06,641.102 821.161,641.102 C825.462,641.102 832.962,640.001 838.763,638.001 L837.962,646.702 C831.962,648.401 825.262,649.202 820.961,649.202 C801.36,649.202 796.16,639.901 796.06,630.9 C772.659,629.1 756.858,614.299 756.858,591.598 C756.858,567.296 774.96,552.095 801.161,552.095 C827.362,552.095 845.464,567.296 845.464,591.598 C845.462,614.5 829.361,629.301 805.56,630.901 L805.56,630.901 Z M801.159,560.197 C781.057,560.197 766.857,572.097 766.857,591.599 C766.857,611.1 781.057,623 801.159,623 C821.261,623 835.461,611.1 835.461,591.599 C835.461,572.097 821.261,560.197 801.159,560.197 L801.159,560.197 Z" id="Shape" sketch:type="MSShapeGroup"></path>
                <path d="M1073.322,629.101 L1051.421,602.099 L1021.319,602.099 L1021.319,629.101 L1011.718,629.101 L1011.718,554.096 L1051.92,554.096 C1075.321,554.096 1084.422,563.597 1084.422,577.698 C1084.422,589.899 1077.122,599.3 1062.321,601.599 L1084.923,629.101 L1073.322,629.101 L1073.322,629.101 Z M1054.922,593.999 C1068.523,593.999 1075.223,587.599 1075.223,578.198 C1075.223,568.698 1069.122,562.197 1051.921,562.197 L1021.319,562.197 L1021.319,593.999 L1054.922,593.999 L1054.922,593.999 Z" id="Shape" sketch:type="MSShapeGroup"></path>
                <path d="M1248.282,616.1 C1258.283,621.101 1270.983,623 1280.484,623 C1294.485,623 1308.486,620 1308.486,609.499 C1308.486,587.398 1246.682,605.299 1246.682,573.797 C1246.682,556.897 1265.683,552.096 1283.583,552.096 C1292.484,552.096 1304.185,553.496 1314.886,557.597 L1314.886,566.497 C1304.885,562.097 1293.084,560.196 1283.583,560.196 C1270.583,560.196 1256.282,563.096 1256.282,573.497 C1256.282,595.398 1318.086,577.298 1318.086,609.399 C1318.086,626.3 1299.685,631.1 1280.884,631.1 C1271.583,631.1 1258.782,629.6 1248.882,624.999 L1248.282,616.1 L1248.282,616.1 Z" id="Shape" sketch:type="MSShapeGroup"></path>
                <path d="M1509.748,629.101 L1509.748,562.197 L1475.245,562.197 L1475.245,554.096 L1553.95,554.096 L1553.95,562.197 L1519.448,562.197 L1519.448,629.101 L1509.748,629.101 L1509.748,629.101 Z" id="Shape" sketch:type="MSShapeGroup"></path>
                <path d="M81.371,830.096 L90.672,830.096 L90.672,873.499 C90.672,896 73.971,907.101 52.869,907.101 C31.568,907.101 15.067,896 15.067,873.499 L15.067,830.096 L24.668,830.096 L24.668,872.599 C24.668,890.5 37.068,899 53.17,899 C69.271,899 81.371,890.5 81.371,872.599 L81.371,830.096 L81.371,830.096 Z" id="Shape" sketch:type="MSShapeGroup"></path>
                <path d="M332.245,905.101 L293.343,830.096 L304.343,830.096 L337.545,893.7 L370.547,830.096 L380.848,830.096 L341.946,905.101 L332.245,905.101 L332.245,905.101 Z" id="Shape" sketch:type="MSShapeGroup"></path>
                <path d="M679.823,905.101 L651.321,842.697 L622.92,905.101 L613.22,905.101 L578.518,830.096 L589.518,830.096 L618.42,892.8 L646.821,830.096 L656.521,830.096 L685.124,892.8 L713.825,830.096 L724.126,830.096 L689.523,905.101 L679.823,905.101 L679.823,905.101 Z" id="Shape" sketch:type="MSShapeGroup"></path>
                <path d="M988.599,905.101 L961.397,874.599 L933.896,905.101 L921.995,905.101 L955.697,867.998 L921.995,830.096 L934.296,830.096 L962.098,861.199 L990.3,830.096 L1002,830.096 L967.798,867.798 L1001.2,905.101 L988.599,905.101 L988.599,905.101 Z" id="Shape" sketch:type="MSShapeGroup"></path>
                <path d="M1238.072,905.101 L1238.072,877.299 L1199.87,830.096 L1211.67,830.096 L1243.072,868.498 L1274.674,830.096 L1285.475,830.096 L1247.673,877.299 L1247.673,905.101 L1238.072,905.101 L1238.072,905.101 Z" id="Shape" sketch:type="MSShapeGroup"></path>
                <path d="M1483.545,905.101 L1483.545,897.5 L1538.149,838.196 L1483.845,838.196 L1483.845,830.095 L1551.549,830.095 L1551.549,837.696 L1496.346,897 L1551.549,897 L1551.549,905.101 L1483.545,905.101 L1483.545,905.101 Z" id="Shape" sketch:type="MSShapeGroup"></path>
                <path d="M86.771,1181.101 L86.771,1162.6 L40.468,1162.6 L21.567,1181.101 L8.667,1181.101 L86.771,1106.096 L149.675,1106.096 L149.675,1114.197 L96.371,1114.197 L96.371,1138.799 L143.874,1138.799 L143.874,1146.9 L96.371,1146.9 L96.371,1173 L149.675,1173 L149.675,1181.101 L86.771,1181.101 L86.771,1181.101 Z M48.77,1154.5 L86.772,1154.5 L86.772,1117.397 L48.77,1154.5 L48.77,1154.5 Z" id="Shape" sketch:type="MSShapeGroup"></path>
                <path d="M350.444,1119.498 L350.444,1181.102 L341.143,1181.102 L341.143,1106.097 L349.843,1106.097 L407.447,1167.701 L407.447,1106.097 L416.748,1106.097 L416.748,1175.902 C416.748,1190.703 400.947,1198.704 380.646,1198.704 C374.145,1198.704 368.145,1197.903 361.644,1195.703 L360.945,1187.403 C367.445,1189.603 374.445,1190.603 380.646,1190.603 C393.546,1190.603 405.248,1185.802 406.248,1179.102 L350.444,1119.498 L350.444,1119.498 Z" id="Shape" sketch:type="MSShapeGroup"></path>
                <path d="M610.22,1181.101 L610.22,1138.098 C610.22,1117.797 626.721,1106.096 647.823,1106.096 L683.625,1106.096 L683.625,1113.697 L654.523,1141.599 C677.424,1142.998 686.025,1150.599 686.025,1161.8 C686.025,1175.3 673.024,1183.101 650.523,1183.101 C645.722,1183.101 637.022,1182.201 632.322,1180.801 L631.822,1172.7 C636.722,1174 645.722,1175 650.423,1175 C667.124,1175 676.425,1169.6 676.425,1161.3 C676.425,1152.799 667.124,1148.399 646.823,1148.399 L643.522,1148.399 L643.522,1141.298 L672.625,1113.496 L647.823,1113.496 C634.122,1113.496 619.821,1121.597 619.821,1138.098 L619.821,1181.101 L610.22,1181.101 L610.22,1181.101 Z" id="Shape" sketch:type="MSShapeGroup"></path>
                <path d="M875.494,1181.101 L875.494,1146.899 L862.493,1146.899 L862.493,1138.798 L875.494,1138.798 L875.494,1106.096 L910.297,1106.096 C936.899,1106.096 955.199,1119.698 955.199,1143.599 C955.199,1167.5 936.898,1181.101 910.297,1181.101 L875.494,1181.101 L875.494,1181.101 Z M910.297,1173 C931.197,1173 945.099,1162.699 945.099,1143.599 C945.099,1124.497 931.198,1114.197 910.297,1114.197 L885.095,1114.197 L885.095,1138.799 L911.697,1138.799 L911.697,1146.9 L885.095,1146.9 L885.095,1173 L910.297,1173 L910.297,1173 Z" id="Shape" sketch:type="MSShapeGroup"></path>
                <path d="M1146.67,1181.101 L1146.67,1106.096 L1156.271,1106.096 L1156.271,1181.101 L1146.67,1181.101 L1146.67,1181.101 Z M1217.975,1106.096 L1227.675,1106.096 L1227.675,1154.7 C1227.675,1173.901 1211.874,1183.101 1191.473,1183.101 C1184.773,1183.101 1176.472,1182.001 1169.772,1179.901 L1169.072,1171.6 C1175.772,1173.701 1183.973,1175 1190.674,1175 C1205.775,1175 1217.976,1168.3 1217.976,1154.699 L1217.976,1106.096 L1217.975,1106.096 Z" id="Shape" sketch:type="MSShapeGroup"></path>
                <path d="M1462.848,1181.101 C1436.246,1181.101 1417.946,1167.5 1417.946,1143.599 C1417.946,1119.698 1436.247,1106.096 1462.848,1106.096 L1550.953,1106.096 L1550.953,1114.197 L1497.65,1114.197 L1497.65,1138.799 L1545.153,1138.799 L1545.153,1146.9 L1497.65,1146.9 L1497.65,1173 L1550.953,1173 L1550.953,1181.101 L1462.848,1181.101 L1462.848,1181.101 Z M1487.949,1114.197 L1462.847,1114.197 C1441.947,1114.197 1427.946,1124.498 1427.946,1143.599 C1427.946,1162.7 1441.947,1173 1462.847,1173 L1487.949,1173 L1487.949,1114.197 L1487.949,1114.197 Z" id="Shape" sketch:type="MSShapeGroup"></path>
                <path d="M13.067,1465.101 L26.967,1449.101 C18.667,1442.3 13.866,1432.2 13.866,1419.599 C13.866,1395.297 31.968,1380.096 58.169,1380.096 C67.27,1380.096 75.47,1381.896 82.17,1385.397 L91.971,1374.096 L103.372,1374.096 L89.471,1390.197 C97.671,1396.998 102.472,1407.098 102.472,1419.599 C102.472,1443.9 84.37,1459.101 58.169,1459.101 C49.068,1459.101 40.968,1457.201 34.167,1453.901 L24.467,1465.101 L13.067,1465.101 L13.067,1465.101 Z M32.969,1442.2 L76.272,1392.197 C71.171,1389.597 64.971,1388.197 58.17,1388.197 C38.068,1388.197 23.868,1400.097 23.868,1419.599 C23.868,1429.099 27.168,1436.8 32.969,1442.2 L32.969,1442.2 Z M83.371,1397.097 L40.068,1447.1 C45.269,1449.601 51.369,1451 58.17,1451 C78.272,1451 92.472,1439.1 92.472,1419.599 C92.472,1410.198 89.072,1402.498 83.371,1397.097 L83.371,1397.097 Z" id="Shape" sketch:type="MSShapeGroup"></path>
                <path d="M276.867,1444.1 L276.867,1457.101 L267.266,1457.101 L267.266,1382.096 L276.867,1382.096 L276.867,1393.297 L307.469,1393.297 C330.271,1393.297 339.971,1404.398 339.971,1418.698 C339.971,1432.998 330.271,1444.099 307.469,1444.099 L276.867,1444.099 L276.867,1444.1 Z M307.469,1436 C324.071,1436 330.771,1428.3 330.771,1418.699 C330.771,1408.999 324.071,1401.398 307.469,1401.398 L276.867,1401.398 L276.867,1436 L307.469,1436 L307.469,1436 Z" id="Shape" sketch:type="MSShapeGroup"></path>
                <path d="M568.271,1457.101 L558.67,1438.6 L510.768,1438.6 L501.267,1457.101 L490.966,1457.101 L530.269,1382.096 L539.969,1382.096 L579.272,1457.101 L568.271,1457.101 L568.271,1457.101 Z M514.867,1430.5 L554.57,1430.5 L534.669,1391.897 L514.867,1430.5 L514.867,1430.5 Z M533.169,1375.896 L523.468,1375.896 L540.27,1362.695 L553.17,1362.695 L533.169,1375.896 L533.169,1375.896 Z" id="Shape" sketch:type="MSShapeGroup"></path>
                <path d="M812.17,1457.101 L802.569,1438.6 L754.667,1438.6 L745.166,1457.101 L734.865,1457.101 L774.168,1382.096 L783.868,1382.096 L823.171,1457.101 L812.17,1457.101 L812.17,1457.101 Z M758.767,1430.5 L798.47,1430.5 L778.569,1391.897 L758.767,1430.5 L758.767,1430.5 Z M798.369,1362.695 C797.47,1372.096 790.169,1377.396 778.969,1377.396 C767.768,1377.396 760.467,1372.096 759.667,1362.695 L767.168,1362.695 C767.968,1367.496 771.567,1370.996 778.969,1370.996 C786.469,1370.996 790.07,1367.496 790.869,1362.695 L798.369,1362.695 L798.369,1362.695 Z" id="Shape" sketch:type="MSShapeGroup"></path>
                <path d="M1056.069,1457.101 L1046.468,1438.6 L998.566,1438.6 L989.065,1457.101 L978.764,1457.101 L1018.067,1382.096 L1027.767,1382.096 L1067.07,1457.101 L1056.069,1457.101 L1056.069,1457.101 Z M1045.77,1375.896 L1035.569,1375.896 L1022.869,1367.795 L1010.168,1375.896 L999.968,1375.896 L1017.368,1362.695 L1028.268,1362.695 L1045.77,1375.896 L1045.77,1375.896 Z M1002.666,1430.5 L1042.369,1430.5 L1022.468,1391.897 L1002.666,1430.5 L1002.666,1430.5 Z" id="Shape" sketch:type="MSShapeGroup"></path>
                <path d="M1299.969,1457.101 L1290.368,1438.6 L1242.466,1438.6 L1232.965,1457.101 L1222.664,1457.101 L1261.967,1382.096 L1271.667,1382.096 L1310.97,1457.101 L1299.969,1457.101 L1299.969,1457.101 Z M1246.565,1374.896 L1246.565,1362.095 L1256.166,1362.095 L1256.166,1374.896 L1246.565,1374.896 L1246.565,1374.896 Z M1246.565,1430.5 L1286.268,1430.5 L1266.367,1391.897 L1246.565,1430.5 L1246.565,1430.5 Z M1277.468,1374.896 L1277.468,1362.095 L1287.069,1362.095 L1287.069,1374.896 L1277.468,1374.896 L1277.468,1374.896 Z" id="Shape" sketch:type="MSShapeGroup"></path>
                <path d="M1543.868,1457.101 L1534.267,1438.6 L1486.365,1438.6 L1476.864,1457.101 L1466.563,1457.101 L1505.866,1382.096 L1515.566,1382.096 L1554.869,1457.101 L1543.868,1457.101 L1543.868,1457.101 Z M1490.465,1430.5 L1530.168,1430.5 L1510.267,1391.897 L1490.465,1430.5 L1490.465,1430.5 Z M1490.665,1362.695 L1503.566,1362.695 L1520.367,1375.896 L1510.667,1375.896 L1490.665,1362.695 L1490.665,1362.695 Z" id="Shape" sketch:type="MSShapeGroup"></path>
                <path d="M87.571,1733.101 L77.97,1714.6 L30.068,1714.6 L20.567,1733.101 L10.266,1733.101 L49.569,1658.096 L59.269,1658.096 L98.572,1733.101 L87.571,1733.101 L87.571,1733.101 Z M34.168,1706.5 L73.871,1706.5 L53.97,1667.897 L34.168,1706.5 L34.168,1706.5 Z M35.469,1648.396 L35.469,1641.896 L73.271,1641.896 L73.271,1648.396 L35.469,1648.396 L35.469,1648.396 Z" id="Shape" sketch:type="MSShapeGroup"></path>
                <path d="M330.467,1746.802 C330.467,1750.402 333.167,1753.402 338.568,1753.402 C341.968,1753.402 345.068,1752.503 347.768,1751.503 L347.068,1758.003 C343.968,1759.003 340.467,1759.903 335.868,1759.903 C327.968,1759.903 322.967,1755.403 322.967,1748.602 C322.967,1742.102 328.167,1735.702 336.069,1731.801 L327.168,1714.6 L279.266,1714.6 L269.765,1733.101 L259.464,1733.101 L298.767,1658.096 L308.467,1658.096 L347.77,1733.101 C336.367,1735.702 330.467,1741.602 330.467,1746.802 L330.467,1746.802 Z M283.363,1706.5 L323.066,1706.5 L303.165,1667.897 L283.363,1706.5 L283.363,1706.5 Z" id="Shape" sketch:type="MSShapeGroup"></path>
                <path d="M585.963,1733.101 L576.362,1714.6 L528.46,1714.6 L518.959,1733.101 L508.658,1733.101 L547.961,1658.096 L557.661,1658.096 L596.964,1733.101 L585.963,1733.101 L585.963,1733.101 Z M575.463,1638.295 C575.063,1648.396 568.662,1653.195 562.262,1653.195 C552.762,1653.195 549.161,1644.295 543.561,1644.295 C539.961,1644.295 537.761,1647.096 537.261,1652.396 L530.06,1652.396 C530.46,1642.295 536.861,1637.496 543.261,1637.496 C552.862,1637.496 556.262,1646.396 561.962,1646.396 C565.563,1646.396 567.762,1643.595 568.262,1638.295 L575.463,1638.295 L575.463,1638.295 Z M532.56,1706.5 L572.263,1706.5 L552.362,1667.897 L532.56,1706.5 L532.56,1706.5 Z" id="Shape" sketch:type="MSShapeGroup"></path>
                <path d="M828.359,1728 C820.258,1732.7 809.358,1735.101 799.557,1735.101 C773.555,1735.101 755.054,1720.3 755.054,1695.599 C755.054,1670.897 773.555,1656.096 799.557,1656.096 C809.757,1656.096 820.258,1658.496 828.359,1662.996 L828.359,1672.197 C820.258,1666.996 810.257,1664.196 799.957,1664.196 C779.656,1664.196 765.056,1676.096 765.056,1695.598 C765.056,1715.099 779.657,1726.999 799.957,1726.999 C809.858,1726.999 821.259,1724.199 828.959,1718.999 L828.359,1728 L828.359,1728 Z M792.457,1651.896 L782.757,1651.896 L799.558,1638.695 L812.458,1638.695 L792.457,1651.896 L792.457,1651.896 Z" id="Shape" sketch:type="MSShapeGroup"></path>
                <path d="M1069.456,1728 C1061.355,1732.7 1050.455,1735.101 1040.654,1735.101 C1014.652,1735.101 996.151,1720.3 996.151,1695.599 C996.151,1670.897 1014.652,1656.096 1040.654,1656.096 C1050.854,1656.096 1061.355,1658.496 1069.456,1662.996 L1069.456,1672.197 C1061.355,1666.996 1051.354,1664.196 1041.054,1664.196 C1020.753,1664.196 1006.153,1676.096 1006.153,1695.598 C1006.153,1715.099 1020.754,1726.999 1041.054,1726.999 C1050.955,1726.999 1062.356,1724.199 1070.056,1718.999 L1069.456,1728 L1069.456,1728 Z M1042.854,1651.896 L1031.953,1651.896 L1014.553,1638.695 L1024.753,1638.695 L1037.454,1646.796 L1050.154,1638.695 L1060.355,1638.695 L1042.854,1651.896 L1042.854,1651.896 Z" id="Shape" sketch:type="MSShapeGroup"></path>
                <path d="M1310.553,1728 C1302.452,1732.7 1291.552,1735.101 1281.751,1735.101 C1255.749,1735.101 1237.248,1720.3 1237.248,1695.599 C1237.248,1670.897 1255.749,1656.096 1281.751,1656.096 C1291.951,1656.096 1302.452,1658.496 1310.553,1662.996 L1310.553,1672.197 C1302.452,1666.996 1292.451,1664.196 1282.151,1664.196 C1261.85,1664.196 1247.25,1676.096 1247.25,1695.598 C1247.25,1715.099 1261.851,1726.999 1282.151,1726.999 C1292.052,1726.999 1303.453,1724.199 1311.153,1718.999 L1310.553,1728 L1310.553,1728 Z M1265.75,1753.002 C1270.95,1753.901 1275.351,1754.202 1278.45,1754.202 C1284.751,1754.202 1287.551,1752.601 1287.551,1749.502 C1287.551,1746.401 1284.751,1744.802 1278.45,1744.802 C1275.35,1744.802 1270.95,1745.102 1265.75,1746.001 L1265.75,1740.501 C1270.45,1739.601 1274.65,1739.101 1278.251,1739.101 C1289.751,1739.101 1294.552,1743.102 1294.552,1749.502 C1294.552,1755.902 1289.751,1759.902 1278.251,1759.902 C1274.65,1759.902 1270.45,1759.402 1265.75,1758.502 L1265.75,1753.002 L1265.75,1753.002 Z" id="Shape" sketch:type="MSShapeGroup"></path>
                <path d="M1551.649,1728 C1543.548,1732.7 1532.648,1735.101 1522.847,1735.101 C1496.845,1735.101 1478.344,1720.3 1478.344,1695.599 C1478.344,1670.897 1496.845,1656.096 1522.847,1656.096 C1533.047,1656.096 1543.548,1658.496 1551.649,1662.996 L1551.649,1672.197 C1543.548,1666.996 1533.547,1664.196 1523.247,1664.196 C1502.946,1664.196 1488.346,1676.096 1488.346,1695.598 C1488.346,1715.099 1502.947,1726.999 1523.247,1726.999 C1533.148,1726.999 1544.549,1724.199 1552.249,1718.999 L1551.649,1728 L1551.649,1728 Z M1542.549,1651.896 L1532.348,1651.896 L1519.648,1643.795 L1506.947,1651.896 L1496.747,1651.896 L1514.147,1638.695 L1525.048,1638.695 L1542.549,1651.896 L1542.549,1651.896 Z" id="Shape" sketch:type="MSShapeGroup"></path>
                <path d="M87.172,2004 C79.071,2008.7 68.171,2011.101 58.37,2011.101 C32.368,2011.101 13.867,1996.3 13.867,1971.599 C13.867,1946.897 32.368,1932.096 58.37,1932.096 C68.57,1932.096 79.071,1934.496 87.172,1938.996 L87.172,1948.197 C79.071,1942.996 69.07,1940.196 58.77,1940.196 C38.469,1940.196 23.869,1952.096 23.869,1971.598 C23.869,1991.099 38.47,2002.999 58.77,2002.999 C68.671,2002.999 80.072,2000.199 87.772,1994.999 L87.172,2004 L87.172,2004 Z M50.97,1926.896 L50.97,1914.095 L60.571,1914.095 L60.571,1926.896 L50.97,1926.896 L50.97,1926.896 Z" id="Shape" sketch:type="MSShapeGroup"></path>
                <path d="M262.863,2009.101 L262.863,1934.096 L297.666,1934.096 C324.268,1934.096 342.568,1947.698 342.568,1971.599 C342.568,1995.5 324.267,2009.101 297.666,2009.101 L262.863,2009.101 L262.863,2009.101 Z M299.865,1927.896 L288.965,1927.896 L271.564,1914.695 L281.765,1914.695 L294.465,1922.796 L307.166,1914.695 L317.367,1914.695 L299.865,1927.896 L299.865,1927.896 Z M297.666,2001 C318.566,2001 332.468,1990.699 332.468,1971.599 C332.468,1952.497 318.567,1942.197 297.666,1942.197 L272.464,1942.197 L272.464,2001 L297.666,2001 L297.666,2001 Z" id="Shape" sketch:type="MSShapeGroup"></path>
                <path d="M517.659,2009.101 L517.659,1974.899 L504.658,1974.899 L504.658,1966.798 L517.659,1966.798 L517.659,1934.096 L552.461,1934.096 C579.064,1934.096 597.364,1947.698 597.364,1971.599 C597.364,1995.5 579.063,2009.101 552.461,2009.101 L517.659,2009.101 L517.659,2009.101 Z M552.461,2001 C573.362,2001 587.264,1990.699 587.264,1971.599 C587.264,1952.497 573.363,1942.197 552.461,1942.197 L527.26,1942.197 L527.26,1966.799 L553.862,1966.799 L553.862,1974.9 L527.26,1974.9 L527.26,2001 L552.461,2001 L552.461,2001 Z" id="Shape" sketch:type="MSShapeGroup"></path>
                <path d="M772.455,2009.101 L772.455,1934.096 L835.459,1934.096 L835.459,1942.197 L782.056,1942.197 L782.056,1966.799 L829.659,1966.799 L829.659,1974.9 L782.056,1974.9 L782.056,2001 L835.459,2001 L835.459,2009.101 L772.455,2009.101 L772.455,2009.101 Z M800.356,1927.896 L790.656,1927.896 L807.457,1914.695 L820.358,1914.695 L800.356,1927.896 L800.356,1927.896 Z" id="Shape" sketch:type="MSShapeGroup"></path>
                <path d="M1010.952,2009.101 L1010.952,1934.096 L1073.956,1934.096 L1073.956,1942.197 L1020.553,1942.197 L1020.553,1966.799 L1068.157,1966.799 L1068.157,1974.9 L1020.553,1974.9 L1020.553,2001 L1073.956,2001 L1073.956,2009.101 L1010.952,2009.101 L1010.952,2009.101 Z M1061.756,1914.695 C1060.856,1924.096 1053.555,1929.396 1042.355,1929.396 C1031.154,1929.396 1023.854,1924.096 1023.053,1914.695 L1030.554,1914.695 C1031.354,1919.496 1034.954,1922.996 1042.355,1922.996 C1049.855,1922.996 1053.456,1919.496 1054.255,1914.695 L1061.756,1914.695 L1061.756,1914.695 Z" id="Shape" sketch:type="MSShapeGroup"></path>
                <path d="M1249.449,2009.101 L1249.449,1934.096 L1312.453,1934.096 L1312.453,1942.197 L1259.05,1942.197 L1259.05,1966.799 L1306.653,1966.799 L1306.653,1974.9 L1259.05,1974.9 L1259.05,2001 L1312.453,2001 L1312.453,2009.101 L1249.449,2009.101 L1249.449,2009.101 Z M1286.252,1927.896 L1275.351,1927.896 L1257.951,1914.695 L1268.151,1914.695 L1280.852,1922.796 L1293.552,1914.695 L1303.753,1914.695 L1286.252,1927.896 L1286.252,1927.896 Z" id="Shape" sketch:type="MSShapeGroup"></path>
                <path d="M1487.946,2009.101 L1487.946,1934.096 L1550.95,1934.096 L1550.95,1942.197 L1497.547,1942.197 L1497.547,1966.799 L1545.151,1966.799 L1545.151,1974.9 L1497.547,1974.9 L1497.547,2001 L1550.95,2001 L1550.95,2009.101 L1487.946,2009.101 L1487.946,2009.101 Z M1499.147,1926.896 L1499.147,1914.095 L1508.748,1914.095 L1508.748,1926.896 L1499.147,1926.896 L1499.147,1926.896 Z M1530.049,1926.896 L1530.049,1914.095 L1539.65,1914.095 L1539.65,1926.896 L1530.049,1926.896 L1530.049,1926.896 Z" id="Shape" sketch:type="MSShapeGroup"></path>
                <path d="M15.867,2285.101 L15.867,2210.096 L78.871,2210.096 L78.871,2218.197 L25.468,2218.197 L25.468,2242.799 L73.071,2242.799 L73.071,2250.9 L25.468,2250.9 L25.468,2277 L78.871,2277 L78.871,2285.101 L15.867,2285.101 L15.867,2285.101 Z M42.469,2202.896 L42.469,2190.095 L52.07,2190.095 L52.07,2202.896 L42.469,2202.896 L42.469,2202.896 Z" id="Shape" sketch:type="MSShapeGroup"></path>
                <path d="M256.331,2285.101 L256.331,2210.096 L319.335,2210.096 L319.335,2218.197 L265.932,2218.197 L265.932,2242.799 L313.536,2242.799 L313.536,2250.9 L265.932,2250.9 L265.932,2277 L319.335,2277 L319.335,2285.101 L256.331,2285.101 L256.331,2285.101 Z M267.932,2190.695 L280.833,2190.695 L297.634,2203.896 L287.934,2203.896 L267.932,2190.695 L267.932,2190.695 Z" id="Shape" sketch:type="MSShapeGroup"></path>
                <path d="M496.795,2285.101 L496.795,2210.096 L559.799,2210.096 L559.799,2218.197 L506.396,2218.197 L506.396,2242.799 L553.999,2242.799 L553.999,2250.9 L506.396,2250.9 L506.396,2277 L559.799,2277 L559.799,2285.101 L496.795,2285.101 L496.795,2285.101 Z M509.296,2200.396 L509.296,2193.896 L547.098,2193.896 L547.098,2200.396 L509.296,2200.396 L509.296,2200.396 Z" id="Shape" sketch:type="MSShapeGroup"></path>
                <path d="M782.961,2298.802 C782.961,2302.402 785.661,2305.402 791.062,2305.402 C794.461,2305.402 797.562,2304.503 800.262,2303.503 L799.562,2310.003 C796.462,2311.003 792.961,2311.903 788.362,2311.903 C780.462,2311.903 775.461,2307.403 775.461,2300.602 C775.461,2294.702 779.562,2289.101 786.162,2285.101 L737.259,2285.101 L737.259,2210.096 L800.263,2210.096 L800.263,2218.197 L746.86,2218.197 L746.86,2242.799 L794.463,2242.799 L794.463,2250.9 L746.86,2250.9 L746.86,2277 L800.263,2277 L800.263,2285.101 C788.861,2287.702 782.961,2293.602 782.961,2298.802 L782.961,2298.802 Z" id="Shape" sketch:type="MSShapeGroup"></path>
                <path d="M1037.428,2250.399 L1047.029,2250.399 L1047.029,2279.101 C1038.228,2284.701 1025.628,2287.101 1015.827,2287.101 C988.225,2287.101 970.524,2272.3 970.524,2247.599 C970.524,2222.897 989.025,2208.096 1016.227,2208.096 C1026.427,2208.096 1037.328,2210.496 1045.428,2215.397 L1045.428,2224.198 C1037.327,2218.997 1026.927,2216.197 1016.626,2216.197 C995.125,2216.197 980.524,2228.097 980.524,2247.599 C980.524,2267.1 995.125,2279.5 1017.026,2279.5 C1024.726,2279.5 1032.327,2277.8 1037.427,2275 L1037.427,2250.399 L1037.428,2250.399 Z M1032.127,2190.695 C1031.228,2200.096 1023.927,2205.396 1012.726,2205.396 C1001.526,2205.396 994.225,2200.096 993.425,2190.695 L1000.926,2190.695 C1001.726,2195.496 1005.325,2198.996 1012.726,2198.996 C1020.227,2198.996 1023.828,2195.496 1024.627,2190.695 L1032.127,2190.695 L1032.127,2190.695 Z" id="Shape" sketch:type="MSShapeGroup"></path>
                <path d="M1289.391,2250.399 L1298.992,2250.399 L1298.992,2279.101 C1290.191,2284.701 1277.591,2287.101 1267.79,2287.101 C1240.188,2287.101 1222.487,2272.3 1222.487,2247.599 C1222.487,2222.897 1240.988,2208.096 1268.19,2208.096 C1278.39,2208.096 1289.291,2210.496 1297.391,2215.397 L1297.391,2224.198 C1289.29,2218.997 1278.89,2216.197 1268.589,2216.197 C1247.088,2216.197 1232.487,2228.097 1232.487,2247.599 C1232.487,2267.1 1247.088,2279.5 1268.989,2279.5 C1276.689,2279.5 1284.29,2277.8 1289.39,2275 L1289.39,2250.399 L1289.391,2250.399 Z M1287.59,2203.896 L1277.39,2203.896 L1264.689,2195.795 L1251.989,2203.896 L1241.788,2203.896 L1259.189,2190.695 L1270.089,2190.695 L1287.59,2203.896 L1287.59,2203.896 Z" id="Shape" sketch:type="MSShapeGroup"></path>
                <path d="M1541.354,2250.399 L1550.955,2250.399 L1550.955,2279.101 C1542.154,2284.701 1529.554,2287.101 1519.753,2287.101 C1492.151,2287.101 1474.45,2272.3 1474.45,2247.599 C1474.45,2222.897 1492.951,2208.096 1520.153,2208.096 C1530.353,2208.096 1541.254,2210.496 1549.354,2215.397 L1549.354,2224.198 C1541.253,2218.997 1530.853,2216.197 1520.552,2216.197 C1499.051,2216.197 1484.45,2228.097 1484.45,2247.599 C1484.45,2267.1 1499.051,2279.5 1520.952,2279.5 C1528.652,2279.5 1536.253,2277.8 1541.353,2275 L1541.353,2250.399 L1541.354,2250.399 Z M1512.651,2311.103 L1514.551,2291.402 L1522.751,2291.402 L1519.651,2311.103 L1512.651,2311.103 L1512.651,2311.103 Z" id="Shape" sketch:type="MSShapeGroup"></path>
                <path d="M80.771,2526.398 L90.372,2526.398 L90.372,2555.101 C81.571,2560.701 68.971,2563.101 59.17,2563.101 C31.568,2563.101 13.867,2548.3 13.867,2523.599 C13.867,2498.896 32.368,2484.096 59.57,2484.096 C69.77,2484.096 80.671,2486.496 88.771,2491.397 L88.771,2500.198 C80.67,2494.997 70.27,2492.197 59.969,2492.197 C38.468,2492.197 23.867,2504.097 23.867,2523.6 C23.867,2543.1 38.468,2555.5 60.369,2555.5 C68.069,2555.5 75.67,2553.801 80.77,2551 L80.77,2526.398 L80.771,2526.398 Z M52.27,2478.896 L52.27,2466.095 L61.871,2466.095 L61.871,2478.896 L52.27,2478.896 L52.27,2478.896 Z" id="Shape" sketch:type="MSShapeGroup"></path>
                <path d="M334.968,2561.102 L334.968,2530.1 L278.565,2530.1 L278.565,2561.102 L268.964,2561.102 L268.964,2507.498 L257.564,2507.498 L257.564,2499.798 L268.964,2499.798 L268.964,2486.097 L278.565,2486.097 L278.565,2499.798 L334.968,2499.798 L334.968,2486.097 L344.569,2486.097 L344.569,2499.798 L355.97,2499.798 L355.97,2507.498 L344.569,2507.498 L344.569,2561.102 L334.968,2561.102 L334.968,2561.102 Z M334.968,2521.998 L334.968,2507.498 L278.565,2507.498 L278.565,2521.998 L334.968,2521.998 L334.968,2521.998 Z" id="Shape" sketch:type="MSShapeGroup"></path>
                <path d="M590.766,2561.102 L590.766,2526.899 L534.363,2526.899 L534.363,2561.102 L524.762,2561.102 L524.762,2486.097 L534.363,2486.097 L534.363,2518.8 L590.766,2518.8 L590.766,2486.097 L600.367,2486.097 L600.367,2561.102 L590.766,2561.102 L590.766,2561.102 Z M585.466,2479.896 L575.265,2479.896 L562.565,2471.795 L549.864,2479.896 L539.664,2479.896 L557.064,2466.695 L567.965,2466.695 L585.466,2479.896 L585.466,2479.896 Z" id="Shape" sketch:type="MSShapeGroup"></path>
                <path d="M785.159,2479.896 L775.458,2479.896 L792.26,2466.695 L805.16,2466.695 L785.159,2479.896 L785.159,2479.896 Z M780.559,2561.102 L780.559,2486.097 L790.16,2486.097 L790.16,2561.102 L780.559,2561.102 L780.559,2561.102 Z" id="Shape" sketch:type="MSShapeGroup"></path>
                <path d="M994.557,2466.695 C993.658,2476.096 986.357,2481.396 975.157,2481.396 C963.956,2481.396 956.655,2476.096 955.855,2466.695 L963.356,2466.695 C964.156,2471.496 967.756,2474.996 975.157,2474.996 C982.657,2474.996 986.258,2471.496 987.057,2466.695 L994.557,2466.695 L994.557,2466.695 Z M970.355,2561.102 L970.355,2486.097 L979.956,2486.097 L979.956,2561.102 L970.355,2561.102 L970.355,2561.102 Z" id="Shape" sketch:type="MSShapeGroup"></path>
                <path d="M1187.954,2479.896 L1177.754,2479.896 L1165.053,2471.795 L1152.352,2479.896 L1142.152,2479.896 L1159.553,2466.695 L1170.453,2466.695 L1187.954,2479.896 L1187.954,2479.896 Z M1160.152,2561.102 L1160.152,2486.097 L1169.753,2486.097 L1169.753,2561.102 L1160.152,2561.102 L1160.152,2561.102 Z" id="Shape" sketch:type="MSShapeGroup"></path>
                <path d="M1343.55,2478.896 L1343.55,2466.095 L1352.151,2466.095 L1352.151,2478.896 L1343.55,2478.896 L1343.55,2478.896 Z M1349.95,2561.102 L1349.95,2486.097 L1359.551,2486.097 L1359.551,2561.102 L1349.95,2561.102 L1349.95,2561.102 Z M1357.451,2478.896 L1357.451,2466.095 L1366.052,2466.095 L1366.052,2478.896 L1357.451,2478.896 L1357.451,2478.896 Z" id="Shape" sketch:type="MSShapeGroup"></path>
                <path d="M1539.747,2478.896 L1539.747,2466.095 L1549.348,2466.095 L1549.348,2478.896 L1539.747,2478.896 L1539.747,2478.896 Z M1539.747,2561.102 L1539.747,2486.097 L1549.348,2486.097 L1549.348,2561.102 L1539.747,2561.102 L1539.747,2561.102 Z" id="Shape" sketch:type="MSShapeGroup"></path>
                <path d="M0.566,2742.695 L13.466,2742.695 L30.268,2755.896 L20.567,2755.896 L0.566,2742.695 L0.566,2742.695 Z M15.867,2837.102 L15.867,2762.096 L25.468,2762.096 L25.468,2837.102 L15.867,2837.102 L15.867,2837.102 Z" id="Shape" sketch:type="MSShapeGroup"></path>
                <path d="M199.507,2752.396 L199.507,2745.896 L222.109,2745.896 L222.109,2752.396 L199.507,2752.396 L199.507,2752.396 Z M206.007,2837.102 L206.007,2762.096 L215.608,2762.096 L215.608,2837.102 L206.007,2837.102 L206.007,2837.102 Z" id="Shape" sketch:type="MSShapeGroup"></path>
                <path d="M405.147,2862.002 C402.046,2863.002 398.546,2863.902 393.946,2863.902 C386.046,2863.902 381.046,2859.402 381.046,2852.601 C381.046,2845.701 386.246,2839.001 396.147,2834.601 L396.147,2762.095 L405.748,2762.095 L405.748,2836.7 L405.849,2837.1 C394.448,2839.7 388.547,2845.6 388.547,2850.801 C388.547,2854.401 391.247,2857.401 396.648,2857.401 C400.048,2857.401 403.149,2856.501 405.849,2855.501 L405.147,2862.002 L405.147,2862.002 Z" id="Shape" sketch:type="MSShapeGroup"></path>
                <path d="M613.888,2742.295 C613.489,2752.397 607.088,2757.195 600.688,2757.195 C591.187,2757.195 587.586,2748.295 581.987,2748.295 C578.386,2748.295 576.186,2751.096 575.686,2756.397 L568.486,2756.397 C568.885,2746.295 575.286,2741.497 581.686,2741.497 C591.287,2741.497 594.687,2750.397 600.387,2750.397 C603.988,2750.397 606.188,2747.596 606.688,2742.295 L613.888,2742.295 L613.888,2742.295 Z M586.286,2837.102 L586.286,2762.096 L595.887,2762.096 L595.887,2837.102 L586.286,2837.102 L586.286,2837.102 Z" id="Shape" sketch:type="MSShapeGroup"></path>
                <path d="M821.33,2762.096 L831.03,2762.096 L831.03,2810.7 C831.03,2829.901 815.229,2839.102 794.828,2839.102 C788.128,2839.102 779.827,2838.002 773.127,2835.901 L772.427,2827.6 C779.127,2829.702 787.327,2831 794.029,2831 C809.13,2831 821.331,2824.301 821.331,2810.699 L821.331,2762.096 L821.33,2762.096 Z M849.031,2755.896 L838.831,2755.896 L826.13,2747.794 L813.429,2755.896 L803.229,2755.896 L820.63,2742.695 L831.53,2742.695 L849.031,2755.896 L849.031,2755.896 Z" id="Shape" sketch:type="MSShapeGroup"></path>
                <path d="M1072.271,2837.102 L1029.468,2802.1 L1019.967,2808.899 L1019.967,2837.102 L1010.366,2837.102 L1010.366,2762.096 L1019.967,2762.096 L1019.967,2797.998 L1068.071,2762.096 L1081.672,2762.096 L1036.669,2795.899 L1085.872,2837.102 L1072.271,2837.102 L1072.271,2837.102 Z M1036.268,2863.104 L1038.168,2843.403 L1046.368,2843.403 L1043.268,2863.104 L1036.268,2863.104 L1036.268,2863.104 Z" id="Shape" sketch:type="MSShapeGroup"></path>
                <path d="M1268.406,2755.896 L1258.706,2755.896 L1275.507,2742.695 L1288.407,2742.695 L1268.406,2755.896 L1268.406,2755.896 Z M1260.806,2837.102 L1260.806,2762.096 L1270.407,2762.096 L1270.407,2829 L1319.21,2829 L1319.21,2837.102 L1260.806,2837.102 L1260.806,2837.102 Z" id="Shape" sketch:type="MSShapeGroup"></path>
                <path d="M1495.345,2837.102 L1495.345,2762.096 L1504.946,2762.096 L1504.946,2829 L1553.749,2829 L1553.749,2837.102 L1495.345,2837.102 L1495.345,2837.102 Z M1513.746,2777.098 L1515.146,2755.297 L1522.946,2755.297 L1520.346,2777.098 L1513.746,2777.098 L1513.746,2777.098 Z" id="Shape" sketch:type="MSShapeGroup"></path>
                <path d="M15.867,3113.102 L15.867,3038.096 L25.468,3038.096 L25.468,3105 L74.271,3105 L74.271,3113.102 L15.867,3113.102 L15.867,3113.102 Z M38.369,3139.104 L40.268,3119.403 L48.469,3119.403 L45.368,3139.104 L38.369,3139.104 L38.369,3139.104 Z" id="Shape" sketch:type="MSShapeGroup"></path>
                <path d="M242.946,3113.102 L242.946,3038.096 L252.547,3038.096 L252.547,3105 L301.35,3105 L301.35,3113.102 L242.946,3113.102 L242.946,3113.102 Z M275.948,3082.699 L275.948,3065.998 L285.149,3065.998 L285.149,3082.699 L275.948,3082.699 L275.948,3082.699 Z" id="Shape" sketch:type="MSShapeGroup"></path>
                <path d="M536.93,3113.102 L479.326,3051.897 L479.326,3113.102 L470.025,3113.102 L470.025,3038.096 L478.725,3038.096 L536.329,3099.301 L536.329,3038.096 L545.63,3038.096 L545.63,3113.102 L536.93,3113.102 L536.93,3113.102 Z M504.228,3031.896 L494.528,3031.896 L511.329,3018.695 L524.229,3018.695 L504.228,3031.896 L504.228,3031.896 Z" id="Shape" sketch:type="MSShapeGroup"></path>
                <path d="M785.609,3113.102 L728.005,3051.897 L728.005,3113.102 L718.704,3113.102 L718.704,3038.096 L727.404,3038.096 L785.008,3099.301 L785.008,3038.096 L794.309,3038.096 L794.309,3113.102 L785.609,3113.102 L785.609,3113.102 Z M761.908,3031.896 L751.007,3031.896 L733.607,3018.695 L743.807,3018.695 L756.508,3026.795 L769.208,3018.695 L779.409,3018.695 L761.908,3031.896 L761.908,3031.896 Z" id="Shape" sketch:type="MSShapeGroup"></path>
                <path d="M1034.288,3113.102 L976.684,3051.897 L976.684,3113.102 L967.383,3113.102 L967.383,3038.096 L976.083,3038.096 L1033.687,3099.301 L1033.687,3038.096 L1042.988,3038.096 L1042.988,3113.102 L1034.288,3113.102 L1034.288,3113.102 Z M1000.486,3139.104 L1002.385,3119.403 L1010.586,3119.403 L1007.485,3139.104 L1000.486,3139.104 L1000.486,3139.104 Z" id="Shape" sketch:type="MSShapeGroup"></path>
                <path d="M1282.968,3113.102 L1225.364,3051.897 L1225.364,3113.102 L1216.063,3113.102 L1216.063,3038.096 L1224.763,3038.096 L1282.367,3099.301 L1282.367,3038.096 L1291.668,3038.096 L1291.668,3113.102 L1282.968,3113.102 L1282.968,3113.102 Z M1276.467,3018.295 C1276.068,3028.397 1269.667,3033.195 1263.267,3033.195 C1253.766,3033.195 1250.166,3024.295 1244.566,3024.295 C1240.965,3024.295 1238.765,3027.096 1238.265,3032.397 L1231.065,3032.397 C1231.465,3022.295 1237.866,3017.497 1244.266,3017.497 C1253.867,3017.497 1257.266,3026.397 1262.967,3026.397 C1266.567,3026.397 1268.767,3023.596 1269.267,3018.295 L1276.467,3018.295 L1276.467,3018.295 Z" id="Shape" sketch:type="MSShapeGroup"></path>
                <path d="M1507.046,3115.102 C1480.845,3115.102 1462.743,3099.901 1462.743,3075.6 C1462.743,3051.297 1480.845,3036.096 1507.046,3036.096 C1533.247,3036.096 1551.349,3051.297 1551.349,3075.6 C1551.349,3099.9 1533.247,3115.102 1507.046,3115.102 L1507.046,3115.102 Z M1507.046,3044.197 C1486.944,3044.197 1472.744,3056.097 1472.744,3075.599 C1472.744,3095.099 1486.944,3106.999 1507.046,3106.999 C1527.148,3106.999 1541.348,3095.099 1541.348,3075.599 C1541.348,3056.098 1527.147,3044.197 1507.046,3044.197 L1507.046,3044.197 Z M1505.346,3031.896 L1495.646,3031.896 L1512.447,3018.695 L1525.347,3018.695 L1505.346,3031.896 L1505.346,3031.896 Z" id="Shape" sketch:type="MSShapeGroup"></path>
                <path d="M58.17,3391.102 C31.969,3391.102 13.867,3375.901 13.867,3351.6 C13.867,3327.297 31.969,3312.096 58.17,3312.096 C84.371,3312.096 102.473,3327.297 102.473,3351.6 C102.473,3375.9 84.371,3391.102 58.17,3391.102 L58.17,3391.102 Z M58.17,3320.197 C38.068,3320.197 23.868,3332.097 23.868,3351.599 C23.868,3371.099 38.068,3382.999 58.17,3382.999 C78.272,3382.999 92.472,3371.099 92.472,3351.599 C92.472,3332.098 78.271,3320.197 58.17,3320.197 L58.17,3320.197 Z M77.471,3294.695 C76.572,3304.095 69.271,3309.396 58.071,3309.396 C46.87,3309.396 39.569,3304.095 38.769,3294.695 L46.27,3294.695 C47.07,3299.496 50.67,3302.996 58.071,3302.996 C65.571,3302.996 69.172,3299.496 69.971,3294.695 L77.471,3294.695 L77.471,3294.695 Z" id="Shape" sketch:type="MSShapeGroup"></path>
                <path d="M351.006,3391.102 C324.805,3391.102 306.703,3375.901 306.703,3351.6 C306.703,3327.297 324.805,3312.096 351.006,3312.096 C377.207,3312.096 395.309,3327.297 395.309,3351.6 C395.309,3375.9 377.207,3391.102 351.006,3391.102 L351.006,3391.102 Z M351.006,3320.197 C330.904,3320.197 316.704,3332.097 316.704,3351.599 C316.704,3371.099 330.904,3382.999 351.006,3382.999 C371.108,3382.999 385.308,3371.099 385.308,3351.599 C385.308,3332.098 371.107,3320.197 351.006,3320.197 L351.006,3320.197 Z M330.705,3306.896 L330.705,3294.095 L340.305,3294.095 L340.305,3306.896 L330.705,3306.896 L330.705,3306.896 Z M361.606,3306.896 L361.606,3294.095 L371.207,3294.095 L371.207,3306.896 L361.606,3306.896 L361.606,3306.896 Z" id="Shape" sketch:type="MSShapeGroup"></path>
                <path d="M643.842,3391.102 C617.641,3391.102 599.539,3375.901 599.539,3351.6 C599.539,3327.297 617.641,3312.096 643.842,3312.096 C670.043,3312.096 688.145,3327.297 688.145,3351.6 C688.145,3375.9 670.043,3391.102 643.842,3391.102 L643.842,3391.102 Z M643.842,3320.197 C623.74,3320.197 609.54,3332.097 609.54,3351.599 C609.54,3371.099 623.74,3382.999 643.842,3382.999 C663.944,3382.999 678.144,3371.099 678.144,3351.599 C678.144,3332.098 663.943,3320.197 643.842,3320.197 L643.842,3320.197 Z M622.74,3306.695 L626.041,3299.896 L647.442,3292.695 L642.542,3299.496 L622.74,3306.695 L622.74,3306.695 Z M648.742,3306.695 L652.042,3299.896 L673.443,3292.695 L668.543,3299.496 L648.742,3306.695 L648.742,3306.695 Z" id="Shape" sketch:type="MSShapeGroup"></path>
                <path d="M936.677,3391.102 C910.476,3391.102 892.374,3375.901 892.374,3351.6 C892.374,3327.297 910.476,3312.096 936.677,3312.096 C962.878,3312.096 980.98,3327.297 980.98,3351.6 C980.979,3375.9 962.878,3391.102 936.677,3391.102 L936.677,3391.102 Z M936.677,3320.197 C916.575,3320.197 902.375,3332.097 902.375,3351.599 C902.375,3371.099 916.575,3382.999 936.677,3382.999 C956.779,3382.999 970.979,3371.099 970.979,3351.599 C970.979,3332.098 956.778,3320.197 936.677,3320.197 L936.677,3320.197 Z M917.775,3304.396 L917.775,3297.896 L955.578,3297.896 L955.578,3304.396 L917.775,3304.396 L917.775,3304.396 Z" id="Shape" sketch:type="MSShapeGroup"></path>
                <path d="M1229.513,3391.102 C1203.312,3391.102 1185.21,3375.901 1185.21,3351.6 C1185.21,3327.297 1203.312,3312.096 1229.513,3312.096 C1255.714,3312.096 1273.816,3327.297 1273.816,3351.6 C1273.815,3375.9 1255.714,3391.102 1229.513,3391.102 L1229.513,3391.102 Z M1229.513,3320.197 C1209.411,3320.197 1195.211,3332.097 1195.211,3351.599 C1195.211,3371.099 1209.411,3382.999 1229.513,3382.999 C1249.615,3382.999 1263.815,3371.099 1263.815,3351.599 C1263.814,3332.098 1249.614,3320.197 1229.513,3320.197 L1229.513,3320.197 Z M1252.214,3294.295 C1251.815,3304.397 1245.414,3309.195 1239.014,3309.195 C1229.513,3309.195 1225.912,3300.295 1220.313,3300.295 C1216.712,3300.295 1214.512,3303.096 1214.012,3308.397 L1206.812,3308.397 C1207.211,3298.295 1213.612,3293.497 1220.012,3293.497 C1229.613,3293.497 1233.013,3302.397 1238.713,3302.397 C1242.314,3302.397 1244.514,3299.596 1245.014,3294.295 L1252.214,3294.295 L1252.214,3294.295 Z" id="Shape" sketch:type="MSShapeGroup"></path>
                <path d="M1541.649,3389.102 L1519.748,3362.1 L1489.646,3362.1 L1489.646,3389.102 L1480.045,3389.102 L1480.045,3314.096 L1520.247,3314.096 C1543.649,3314.096 1552.749,3323.598 1552.749,3337.698 C1552.749,3349.899 1545.449,3359.3 1530.648,3361.6 L1553.249,3389.102 L1541.649,3389.102 L1541.649,3389.102 Z M1523.249,3353.998 C1536.85,3353.998 1543.55,3347.598 1543.55,3338.197 C1543.55,3328.697 1537.449,3322.197 1520.248,3322.197 L1489.646,3322.197 L1489.646,3353.998 L1523.249,3353.998 L1523.249,3353.998 Z M1508.348,3307.896 L1498.648,3307.896 L1515.449,3294.695 L1528.349,3294.695 L1508.348,3307.896 L1508.348,3307.896 Z" id="Shape" sketch:type="MSShapeGroup"></path>
                <path d="M77.471,3665.102 L55.57,3638.1 L25.468,3638.1 L25.468,3665.102 L15.867,3665.102 L15.867,3590.096 L56.069,3590.096 C79.47,3590.096 88.571,3599.598 88.571,3613.698 C88.571,3625.899 81.271,3635.3 66.47,3637.6 L89.072,3665.102 L77.471,3665.102 L77.471,3665.102 Z M52.27,3583.896 L41.37,3583.896 L23.969,3570.695 L34.169,3570.695 L46.87,3578.795 L59.571,3570.695 L69.771,3570.695 L52.27,3583.896 L52.27,3583.896 Z M59.07,3629.998 C72.671,3629.998 79.371,3623.598 79.371,3614.197 C79.371,3604.697 73.27,3598.197 56.069,3598.197 L25.467,3598.197 L25.467,3629.998 L59.07,3629.998 L59.07,3629.998 Z" id="Shape" sketch:type="MSShapeGroup"></path>
                <path d="M325.001,3665.102 L303.1,3638.1 L272.998,3638.1 L272.998,3665.102 L263.397,3665.102 L263.397,3590.096 L303.6,3590.096 C327.002,3590.096 336.102,3599.598 336.102,3613.698 C336.102,3625.899 328.802,3635.3 314.001,3637.6 L336.602,3665.102 L325.001,3665.102 L325.001,3665.102 Z M306.601,3629.998 C320.202,3629.998 326.902,3623.598 326.902,3614.197 C326.902,3604.697 320.801,3598.197 303.6,3598.197 L272.998,3598.197 L272.998,3629.998 L306.601,3629.998 L306.601,3629.998 Z M290.899,3691.104 L292.799,3671.403 L300.999,3671.403 L297.898,3691.104 L290.899,3691.104 L290.899,3691.104 Z" id="Shape" sketch:type="MSShapeGroup"></path>
                <path d="M509.928,3652.1 C519.929,3657.102 532.629,3659 542.13,3659 C556.131,3659 570.132,3656 570.132,3645.5 C570.132,3623.398 508.328,3641.299 508.328,3609.797 C508.328,3592.897 527.329,3588.096 545.229,3588.096 C554.13,3588.096 565.831,3589.496 576.532,3593.598 L576.532,3602.498 C566.531,3598.098 554.73,3596.197 545.229,3596.197 C532.229,3596.197 517.928,3599.097 517.928,3609.498 C517.928,3631.398 579.732,3613.299 579.732,3645.4 C579.732,3662.3 561.331,3667.101 542.529,3667.101 C533.229,3667.101 520.428,3665.601 510.527,3660.999 L509.928,3652.1 L509.928,3652.1 Z M540.229,3583.896 L530.529,3583.896 L547.33,3570.695 L560.23,3570.695 L540.229,3583.896 L540.229,3583.896 Z" id="Shape" sketch:type="MSShapeGroup"></path>
                <path d="M753.957,3652.1 C763.958,3657.102 776.658,3659 786.159,3659 C800.16,3659 814.161,3656 814.161,3645.5 C814.161,3623.398 752.357,3641.299 752.357,3609.797 C752.357,3592.897 771.358,3588.096 789.258,3588.096 C798.159,3588.096 809.86,3589.496 820.561,3593.598 L820.561,3602.498 C810.56,3598.098 798.759,3596.197 789.258,3596.197 C776.258,3596.197 761.957,3599.097 761.957,3609.498 C761.957,3631.398 823.761,3613.299 823.761,3645.4 C823.761,3662.3 805.36,3667.101 786.558,3667.101 C777.258,3667.101 764.457,3665.601 754.556,3660.999 L753.957,3652.1 L753.957,3652.1 Z M792.959,3583.896 L782.059,3583.896 L764.659,3570.695 L774.859,3570.695 L787.56,3578.795 L800.26,3570.695 L810.461,3570.695 L792.959,3583.896 L792.959,3583.896 Z" id="Shape" sketch:type="MSShapeGroup"></path>
                <path d="M997.987,3652.1 C1007.988,3657.102 1020.688,3659 1030.189,3659 C1044.19,3659 1058.191,3656 1058.191,3645.5 C1058.191,3623.398 996.387,3641.299 996.387,3609.797 C996.387,3592.897 1015.388,3588.096 1033.288,3588.096 C1042.189,3588.096 1053.89,3589.496 1064.591,3593.598 L1064.591,3602.498 C1054.59,3598.098 1042.789,3596.197 1033.288,3596.197 C1020.288,3596.197 1005.987,3599.097 1005.987,3609.498 C1005.987,3631.398 1067.791,3613.299 1067.791,3645.4 C1067.791,3662.3 1049.39,3667.101 1030.589,3667.101 C1021.288,3667.101 1008.487,3665.601 998.587,3660.999 L997.987,3652.1 L997.987,3652.1 Z M1017.988,3685.002 C1023.188,3685.902 1027.589,3686.203 1030.689,3686.203 C1036.99,3686.203 1039.79,3684.601 1039.79,3681.502 C1039.79,3678.403 1036.99,3676.803 1030.689,3676.803 C1027.588,3676.803 1023.188,3677.102 1017.988,3678.002 L1017.988,3672.502 C1022.688,3671.602 1026.888,3671.102 1030.489,3671.102 C1041.99,3671.102 1046.79,3675.102 1046.79,3681.502 C1046.79,3687.902 1041.99,3691.902 1030.489,3691.902 C1026.888,3691.902 1022.688,3691.402 1017.988,3690.502 L1017.988,3685.002 L1017.988,3685.002 Z" id="Shape" sketch:type="MSShapeGroup"></path>
                <path d="M1242.017,3652.1 C1252.018,3657.102 1264.718,3659 1274.219,3659 C1288.22,3659 1302.221,3656 1302.221,3645.5 C1302.221,3623.398 1240.417,3641.299 1240.417,3609.797 C1240.417,3592.897 1259.418,3588.096 1277.318,3588.096 C1286.219,3588.096 1297.92,3589.496 1308.621,3593.598 L1308.621,3602.498 C1298.62,3598.098 1286.819,3596.197 1277.318,3596.197 C1264.318,3596.197 1250.017,3599.097 1250.017,3609.498 C1250.017,3631.398 1311.821,3613.299 1311.821,3645.4 C1311.821,3662.3 1293.42,3667.101 1274.619,3667.101 C1265.318,3667.101 1252.517,3665.601 1242.617,3660.999 L1242.017,3652.1 L1242.017,3652.1 Z M1298.521,3583.896 L1288.32,3583.896 L1275.62,3575.794 L1262.919,3583.896 L1252.719,3583.896 L1270.119,3570.695 L1281.02,3570.695 L1298.521,3583.896 L1298.521,3583.896 Z" id="Shape" sketch:type="MSShapeGroup"></path>
                <path d="M1486.046,3652.1 C1496.047,3657.102 1508.747,3659 1518.248,3659 C1532.249,3659 1546.25,3656 1546.25,3645.5 C1546.25,3623.398 1484.446,3641.299 1484.446,3609.797 C1484.446,3592.897 1503.447,3588.096 1521.347,3588.096 C1530.248,3588.096 1541.949,3589.496 1552.65,3593.598 L1552.65,3602.498 C1542.649,3598.098 1530.848,3596.197 1521.347,3596.197 C1508.347,3596.197 1494.046,3599.097 1494.046,3609.498 C1494.046,3631.398 1555.85,3613.299 1555.85,3645.4 C1555.85,3662.3 1537.449,3667.101 1518.648,3667.101 C1509.347,3667.101 1496.546,3665.601 1486.646,3660.999 L1486.046,3652.1 L1486.046,3652.1 Z M1514.647,3691.104 L1516.547,3671.403 L1524.747,3671.403 L1521.647,3691.104 L1514.647,3691.104 L1514.647,3691.104 Z" id="Shape" sketch:type="MSShapeGroup"></path>
                <path d="M45.77,3941.102 L45.77,3907.299 L24.369,3907.299 L24.369,3899.598 L45.77,3899.598 L45.77,3874.198 L11.267,3874.198 L11.267,3866.096 L89.972,3866.096 L89.972,3874.198 L55.47,3874.198 L55.47,3899.598 L76.871,3899.598 L76.871,3907.299 L55.47,3907.299 L55.47,3941.102 L45.77,3941.102 L45.77,3941.102 Z" id="Shape" sketch:type="MSShapeGroup"></path>
                <path d="M287.516,3941.102 L287.516,3874.198 L253.013,3874.198 L253.013,3866.096 L331.718,3866.096 L331.718,3874.198 L297.216,3874.198 L297.216,3941.102 L287.516,3941.102 L287.516,3941.102 Z M297.716,3859.896 L286.816,3859.896 L269.415,3846.695 L279.616,3846.695 L292.316,3854.795 L305.017,3846.695 L315.217,3846.695 L297.716,3859.896 L297.716,3859.896 Z" id="Shape" sketch:type="MSShapeGroup"></path>
                <path d="M529.262,3941.102 L529.262,3874.198 L494.759,3874.198 L494.759,3866.096 L573.464,3866.096 L573.464,3874.198 L538.962,3874.198 L538.962,3941.102 L529.262,3941.102 L529.262,3941.102 Z M520.061,3961.002 C525.261,3961.902 529.662,3962.203 532.762,3962.203 C539.062,3962.203 541.863,3960.601 541.863,3957.502 C541.863,3954.403 539.062,3952.803 532.762,3952.803 C529.661,3952.803 525.261,3953.102 520.061,3954.002 L520.061,3948.502 C524.761,3947.602 528.961,3947.102 532.562,3947.102 C544.063,3947.102 548.863,3951.102 548.863,3957.502 C548.863,3963.902 544.063,3967.902 532.562,3967.902 C528.961,3967.902 524.761,3967.402 520.061,3966.502 L520.061,3961.002 L520.061,3961.002 Z" id="Shape" sketch:type="MSShapeGroup"></path>
                <path d="M771.008,3941.102 L771.008,3874.198 L736.505,3874.198 L736.505,3866.096 L815.21,3866.096 L815.21,3874.198 L780.708,3874.198 L780.708,3941.102 L771.008,3941.102 L771.008,3941.102 Z M769.607,3967.104 L771.507,3947.403 L779.707,3947.403 L776.606,3967.104 L769.607,3967.104 L769.607,3967.104 Z" id="Shape" sketch:type="MSShapeGroup"></path>
                <path d="M1048.355,3866.096 L1057.656,3866.096 L1057.656,3909.5 C1057.656,3932 1040.955,3943.102 1019.853,3943.102 C998.552,3943.102 982.051,3932 982.051,3909.5 L982.051,3866.096 L991.652,3866.096 L991.652,3908.6 C991.652,3926.5 1004.052,3935 1020.154,3935 C1036.255,3935 1048.355,3926.5 1048.355,3908.6 L1048.355,3866.096 L1048.355,3866.096 Z M1017.854,3859.896 L1008.154,3859.896 L1024.955,3846.695 L1037.856,3846.695 L1017.854,3859.896 L1017.854,3859.896 Z" id="Shape" sketch:type="MSShapeGroup"></path>
                <path d="M1294.602,3866.096 L1303.903,3866.096 L1303.903,3909.5 C1303.903,3932 1287.202,3943.102 1266.1,3943.102 C1244.799,3943.102 1228.298,3932 1228.298,3909.5 L1228.298,3866.096 L1237.899,3866.096 L1237.899,3908.6 C1237.899,3926.5 1250.299,3935 1266.401,3935 C1282.502,3935 1294.602,3926.5 1294.602,3908.6 L1294.602,3866.096 L1294.602,3866.096 Z M1285.401,3846.695 C1284.501,3856.095 1277.201,3861.396 1266,3861.396 C1254.8,3861.396 1247.499,3856.095 1246.699,3846.695 L1254.199,3846.695 C1254.999,3851.496 1258.599,3854.996 1266,3854.996 C1273.5,3854.996 1277.101,3851.496 1277.9,3846.695 L1285.401,3846.695 L1285.401,3846.695 Z" id="Shape" sketch:type="MSShapeGroup"></path>
                <path d="M1540.848,3866.096 L1550.149,3866.096 L1550.149,3909.5 C1550.149,3932 1533.448,3943.102 1512.346,3943.102 C1491.045,3943.102 1474.544,3932 1474.544,3909.5 L1474.544,3866.096 L1484.145,3866.096 L1484.145,3908.6 C1484.145,3926.5 1496.545,3935 1512.647,3935 C1528.748,3935 1540.848,3926.5 1540.848,3908.6 L1540.848,3866.096 L1540.848,3866.096 Z M1535.247,3859.896 L1525.047,3859.896 L1512.346,3851.794 L1499.646,3859.896 L1489.445,3859.896 L1506.846,3846.695 L1517.746,3846.695 L1535.247,3859.896 L1535.247,3859.896 Z" id="Shape" sketch:type="MSShapeGroup"></path>
                <path d="M81.371,4142.096 L90.672,4142.096 L90.672,4185.5 C90.672,4208 73.971,4219.102 52.869,4219.102 C31.568,4219.102 15.067,4208 15.067,4185.5 L15.067,4142.096 L24.668,4142.096 L24.668,4184.6 C24.668,4202.5 37.068,4211 53.17,4211 C69.271,4211 81.371,4202.5 81.371,4184.6 L81.371,4142.096 L81.371,4142.096 Z M32.568,4134.896 L32.568,4122.095 L42.169,4122.095 L42.169,4134.896 L32.568,4134.896 L32.568,4134.896 Z M63.471,4134.896 L63.471,4122.095 L73.071,4122.095 L73.071,4134.896 L63.471,4134.896 L63.471,4134.896 Z" id="Shape" sketch:type="MSShapeGroup"></path>
                <path d="M324.617,4142.096 L333.918,4142.096 L333.918,4185.5 C333.918,4208 317.217,4219.102 296.115,4219.102 C274.814,4219.102 258.313,4208 258.313,4185.5 L258.313,4142.096 L267.914,4142.096 L267.914,4184.6 C267.914,4202.5 280.314,4211 296.416,4211 C312.517,4211 324.617,4202.5 324.617,4184.6 L324.617,4142.096 L324.617,4142.096 Z M277.015,4122.695 L289.915,4122.695 L306.717,4135.896 L297.016,4135.896 L277.015,4122.695 L277.015,4122.695 Z" id="Shape" sketch:type="MSShapeGroup"></path>
                <path d="M567.864,4142.096 L577.165,4142.096 L577.165,4185.5 C577.165,4208 560.464,4219.102 539.362,4219.102 C518.061,4219.102 501.56,4208 501.56,4185.5 L501.56,4142.096 L511.161,4142.096 L511.161,4184.6 C511.161,4202.5 523.561,4211 539.663,4211 C555.764,4211 567.864,4202.5 567.864,4184.6 L567.864,4142.096 L567.864,4142.096 Z M522.962,4135.896 L513.261,4135.896 L530.063,4122.695 L542.963,4122.695 L522.962,4135.896 L522.962,4135.896 Z M551.363,4135.896 L541.663,4135.896 L558.464,4122.695 L571.364,4122.695 L551.363,4135.896 L551.363,4135.896 Z" id="Shape" sketch:type="MSShapeGroup"></path>
                <path d="M811.111,4142.096 L820.412,4142.096 L820.412,4185.5 C820.412,4208 803.711,4219.102 782.609,4219.102 C761.308,4219.102 744.807,4208 744.807,4185.5 L744.807,4142.096 L754.408,4142.096 L754.408,4184.6 C754.408,4202.5 766.808,4211 782.91,4211 C799.011,4211 811.111,4202.5 811.111,4184.6 L811.111,4142.096 L811.111,4142.096 Z M763.608,4132.396 L763.608,4125.896 L801.411,4125.896 L801.411,4132.396 L763.608,4132.396 L763.608,4132.396 Z" id="Shape" sketch:type="MSShapeGroup"></path>
                <path d="M1054.357,4142.096 L1063.658,4142.096 L1063.658,4185.5 C1063.658,4201.9 1054.758,4212.301 1041.757,4216.701 C1031.857,4221.002 1026.756,4225.902 1026.756,4230.803 C1026.756,4234.403 1029.456,4237.403 1034.857,4237.403 C1038.257,4237.403 1041.357,4236.503 1044.057,4235.503 L1043.358,4242.003 C1040.257,4243.003 1036.757,4243.903 1032.157,4243.903 C1024.257,4243.903 1019.257,4239.403 1019.257,4232.602 C1019.257,4227.602 1021.957,4222.903 1027.257,4219.102 L1025.857,4219.102 C1004.556,4219.102 988.055,4208 988.055,4185.5 L988.055,4142.096 L997.656,4142.096 L997.656,4184.6 C997.656,4202.5 1010.056,4211 1026.158,4211 C1042.259,4211 1054.359,4202.5 1054.359,4184.6 L1054.359,4142.096 L1054.357,4142.096 Z" id="Shape" sketch:type="MSShapeGroup"></path>
                <path d="M1297.604,4142.096 L1306.905,4142.096 L1306.905,4185.5 C1306.905,4208 1290.204,4219.102 1269.102,4219.102 C1247.801,4219.102 1231.3,4208 1231.3,4185.5 L1231.3,4142.096 L1240.901,4142.096 L1240.901,4184.6 C1240.901,4202.5 1253.301,4211 1269.403,4211 C1285.504,4211 1297.604,4202.5 1297.604,4184.6 L1297.604,4142.096 L1297.604,4142.096 Z M1269.002,4138.697 C1257.802,4138.697 1251.101,4134.695 1251.101,4128.496 C1251.101,4122.295 1257.802,4118.295 1269.002,4118.295 C1280.203,4118.295 1286.903,4122.295 1286.903,4128.496 C1286.903,4134.695 1280.203,4138.697 1269.002,4138.697 L1269.002,4138.697 Z M1269.002,4123.695 C1263.302,4123.695 1258.201,4124.996 1258.201,4128.496 C1258.201,4131.996 1263.302,4133.297 1269.002,4133.297 C1274.702,4133.297 1279.803,4131.996 1279.803,4128.496 C1279.803,4124.996 1274.702,4123.695 1269.002,4123.695 L1269.002,4123.695 Z" id="Shape" sketch:type="MSShapeGroup"></path>
                <path d="M1540.851,4142.096 L1550.152,4142.096 L1550.152,4185.5 C1550.152,4208 1533.451,4219.102 1512.349,4219.102 C1491.048,4219.102 1474.547,4208 1474.547,4185.5 L1474.547,4142.096 L1484.148,4142.096 L1484.148,4184.6 C1484.148,4202.5 1496.548,4211 1512.65,4211 C1528.751,4211 1540.851,4202.5 1540.851,4184.6 L1540.851,4142.096 L1540.851,4142.096 Z M1534.95,4122.295 C1534.551,4132.397 1528.15,4137.195 1521.75,4137.195 C1512.249,4137.195 1508.648,4128.295 1503.049,4128.295 C1499.448,4128.295 1497.248,4131.096 1496.748,4136.397 L1489.548,4136.397 C1489.947,4126.295 1496.348,4121.497 1502.748,4121.497 C1512.349,4121.497 1515.749,4130.397 1521.449,4130.397 C1525.05,4130.397 1527.25,4127.596 1527.75,4122.295 L1534.95,4122.295 L1534.95,4122.295 Z" id="Shape" sketch:type="MSShapeGroup"></path>
                <path d="M111.373,4493.102 L82.871,4430.698 L54.47,4493.102 L44.77,4493.102 L10.068,4418.096 L21.068,4418.096 L49.97,4480.801 L78.371,4418.096 L88.071,4418.096 L116.674,4480.801 L145.375,4418.096 L155.676,4418.096 L121.074,4493.102 L111.373,4493.102 L111.373,4493.102 Z M81.571,4411.896 L71.871,4411.896 L88.672,4398.695 L101.572,4398.695 L81.571,4411.896 L81.571,4411.896 Z" id="Shape" sketch:type="MSShapeGroup"></path>
                <path d="M415.269,4493.102 L386.767,4430.698 L358.366,4493.102 L348.666,4493.102 L313.964,4418.096 L324.964,4418.096 L353.866,4480.801 L382.267,4418.096 L391.967,4418.096 L420.57,4480.801 L449.271,4418.096 L459.572,4418.096 L424.969,4493.102 L415.269,4493.102 L415.269,4493.102 Z M409.668,4411.896 L399.468,4411.896 L386.767,4403.794 L374.067,4411.896 L363.866,4411.896 L381.267,4398.695 L392.167,4398.695 L409.668,4411.896 L409.668,4411.896 Z" id="Shape" sketch:type="MSShapeGroup"></path>
                <path d="M719.165,4493.102 L690.663,4430.698 L662.262,4493.102 L652.562,4493.102 L617.86,4418.096 L628.86,4418.096 L657.762,4480.801 L686.163,4418.096 L695.863,4418.096 L724.466,4480.801 L753.167,4418.096 L763.468,4418.096 L728.865,4493.102 L719.165,4493.102 L719.165,4493.102 Z M670.362,4410.896 L670.362,4398.095 L679.963,4398.095 L679.963,4410.896 L670.362,4410.896 L670.362,4410.896 Z M701.264,4410.896 L701.264,4398.095 L710.865,4398.095 L710.865,4410.896 L701.264,4410.896 L701.264,4410.896 Z" id="Shape" sketch:type="MSShapeGroup"></path>
                <path d="M1023.061,4493.102 L994.559,4430.698 L966.158,4493.102 L956.458,4493.102 L921.756,4418.096 L932.756,4418.096 L961.658,4480.801 L990.059,4418.096 L999.759,4418.096 L1028.362,4480.801 L1057.063,4418.096 L1067.364,4418.096 L1032.762,4493.102 L1023.061,4493.102 L1023.061,4493.102 Z M974.958,4398.695 L987.858,4398.695 L1004.659,4411.896 L994.959,4411.896 L974.958,4398.695 L974.958,4398.695 Z" id="Shape" sketch:type="MSShapeGroup"></path>
                <path d="M1263.854,4493.102 L1263.854,4465.299 L1225.652,4418.096 L1237.452,4418.096 L1268.854,4456.498 L1300.456,4418.096 L1311.257,4418.096 L1273.455,4465.299 L1273.455,4493.102 L1263.854,4493.102 L1263.854,4493.102 Z M1265.854,4411.896 L1256.153,4411.896 L1272.955,4398.695 L1285.855,4398.695 L1265.854,4411.896 L1265.854,4411.896 Z" id="Shape" sketch:type="MSShapeGroup"></path>
                <path d="M1507.748,4493.102 L1507.748,4465.299 L1469.546,4418.096 L1481.346,4418.096 L1512.748,4456.498 L1544.35,4418.096 L1555.151,4418.096 L1517.349,4465.299 L1517.349,4493.102 L1507.748,4493.102 L1507.748,4493.102 Z M1535.249,4411.896 L1525.049,4411.896 L1512.348,4403.794 L1499.648,4411.896 L1489.447,4411.896 L1506.848,4398.695 L1517.748,4398.695 L1535.249,4411.896 L1535.249,4411.896 Z" id="Shape" sketch:type="MSShapeGroup"></path>
                <path d="M48.27,4769.102 L48.27,4741.301 L10.068,4694.098 L21.868,4694.098 L53.27,4732.5 L84.872,4694.098 L95.673,4694.098 L57.871,4741.301 L57.871,4769.102 L48.27,4769.102 L48.27,4769.102 Z M32.568,4686.896 L32.568,4674.095 L42.169,4674.095 L42.169,4686.896 L32.568,4686.896 L32.568,4686.896 Z M63.471,4686.896 L63.471,4674.095 L73.071,4674.095 L73.071,4686.896 L63.471,4686.896 L63.471,4686.896 Z" id="Shape" sketch:type="MSShapeGroup"></path>
                <path d="M289.068,4769.102 L289.068,4741.301 L250.866,4694.098 L262.666,4694.098 L294.068,4732.5 L325.67,4694.098 L336.471,4694.098 L298.669,4741.301 L298.669,4769.102 L289.068,4769.102 L289.068,4769.102 Z M274.167,4674.695 L287.068,4674.695 L303.869,4687.896 L294.168,4687.896 L274.167,4674.695 L274.167,4674.695 Z" id="Shape" sketch:type="MSShapeGroup"></path>
                <path d="M492.064,4769.102 L492.064,4761.502 L546.668,4702.197 L492.364,4702.197 L492.364,4694.097 L560.068,4694.097 L560.068,4701.697 L504.865,4761.002 L560.068,4761.002 L560.068,4769.102 L492.064,4769.102 L492.064,4769.102 Z M521.166,4686.896 L521.166,4674.095 L530.767,4674.095 L530.767,4686.896 L521.166,4686.896 L521.166,4686.896 Z" id="Shape" sketch:type="MSShapeGroup"></path>
                <path d="M795.567,4769.102 L795.567,4750.6 L749.264,4750.6 L730.363,4769.102 L717.463,4769.102 L795.567,4694.098 L858.471,4694.098 L858.471,4702.198 L805.167,4702.198 L805.167,4726.8 L852.67,4726.8 L852.67,4734.902 L805.167,4734.902 L805.167,4761.004 L858.471,4761.004 L858.471,4769.104 L795.567,4769.104 L795.567,4769.102 Z M757.565,4742.5 L795.567,4742.5 L795.567,4705.398 L757.565,4742.5 L757.565,4742.5 Z M808.269,4687.896 L798.568,4687.896 L815.37,4674.695 L828.27,4674.695 L808.269,4687.896 L808.269,4687.896 Z" id="Shape" sketch:type="MSShapeGroup"></path>
            </g>
        </g>
    </g>
</svg>