<?xml version="1.0" encoding="utf-8"?>
<!-- Generator: Adobe Illustrator 16.0.3, SVG Export Plug-In . SVG Version: 6.00 Build 0)  -->
<!DOCTYPE svg PUBLIC "-//W3C//DTD SVG 1.1//EN" "http://www.w3.org/Graphics/SVG/1.1/DTD/svg11.dtd">
<svg version="1.1" id="Layer_1" xmlns="http://www.w3.org/2000/svg" xmlns:xlink="http://www.w3.org/1999/xlink" x="0px" y="0px"
	 width="2007.464px" height="2101.989px" viewBox="0 0 2007.464 2101.989" enable-background="new 0 0 2007.464 2101.989"
	 xml:space="preserve">
<rect fill="#FFFFFF" width="2007.464" height="2101.989"/>
<g>
	<path fill="#231F20" d="M234.268,220.5l19.102,23.602h-10.101L221.467,216.7l21.802-27.402h10.101l-19.102,23.502h46.703v7.7
		H234.268z"/>
	<path fill="#231F20" d="M499.331,244.101l19.002-23.602h-46.604v-7.7h46.604l-19.002-23.502h10.101l21.802,27.402l-21.802,27.401
		H499.331z"/>
	<path fill="#231F20" d="M746.794,246.501v-46.604l-23.602,18.901v-10.101l27.401-21.701l27.402,21.701v10.101l-23.502-19.001
		v46.703H746.794z"/>
	<path fill="#231F20" d="M998.656,246.501L971.255,224.7v-10.101l23.602,19.001v-46.603h7.7V233.6l23.502-19.001V224.7
		L998.656,246.501z"/>
	<path fill="#231F20" d="M1219.518,232l3.9-34.803l34.802-3.899l7.2,7.1l-30.102,3.2l32.902,33.003l-5.4,5.5l-33.103-33.002
		l-3.1,30.102L1219.518,232z"/>
	<path fill="#231F20" d="M1503.083,239.201l-3.2-30.102l-33.002,33.002l-5.4-5.5l33.002-33.003l-30.102-3.2l7.101-7.1l34.802,3.899
		l4.001,34.803L1503.083,239.201z"/>
	<path fill="#231F20" d="M1717.745,242.301l-7.101-7.201l30.102-3.2l-33.002-33.002l5.4-5.4l33.002,33.002l3.2-30.102l7.201,7.101
		l-4.001,34.802L1717.745,242.301z"/>
	<path fill="#231F20" d="M226.768,514.3l-3.9-34.802l7.101-7.101l3.1,30.102l33.103-33.002l5.4,5.4L238.668,507.9l30.102,3.2
		l-7.2,7.201L226.768,514.3z"/>
	<path fill="#231F20" d="M492.964,496.5l19.102,23.602h-10.101L480.163,492.7l21.802-27.402h10.101l-19.102,23.502h106.207v7.7
		H492.964z"/>
	<path fill="#231F20" d="M889.463,520.101l19.001-23.602H802.357v-7.7h106.106l-19.001-23.502h10.101l21.802,27.402l-21.802,27.401
		H889.463z"/>
	<path fill="#231F20" d="M1137.954,486.599l27.102,33.502h-10.501l-30.002-37.502l30.002-37.503h10.501l-27.102,33.402h64.504v8.101
		H1137.954z"/>
	<path fill="#231F20" d="M1443.051,520.101l27.002-33.502h-64.404v-8.101h64.404l-27.002-33.402h10.501l30.002,37.503
		l-30.002,37.502H1443.051z"/>
	<path fill="#231F20" d="M1720.146,521.601v-64.404l-33.402,27.002v-10.5l37.503-30.002l37.502,30.002v10.5l-33.502-27.102v64.504
		H1720.146z"/>
	<path fill="#231F20" d="M258.97,797.601l-37.503-30.002v-10.5l33.402,27.102v-64.504h8.101v64.504l33.502-27.102v10.5
		L258.97,797.601z"/>
	<path fill="#231F20" d="M540.586,743.498L494.982,789l-5.7-5.7l45.503-45.503l-42.702-4.601l7.4-7.4l47.703,5.301l5.3,47.703
		l-7.4,7.4L540.586,743.498z"/>
	<path fill="#231F20" d="M755.499,789l-7.4-7.4l42.702-4.5l-45.503-45.603l5.7-5.701l45.604,45.604l4.5-42.803l7.4,7.4l-5.3,47.703
		L755.499,789z"/>
	<path fill="#231F20" d="M1006.614,783.701l-5.301-47.703l7.4-7.4l4.501,42.803l45.603-45.604l5.7,5.701l-45.503,45.603l42.803,4.5
		l-7.4,7.4L1006.614,783.701z"/>
	<path fill="#231F20" d="M1270.73,762.599l27.102,33.502h-10.501l-30.002-37.502l30.002-37.503h10.501l-27.102,33.402h142.408v8.101
		H1270.73z"/>
	<path fill="#231F20" d="M1721.252,796.101l27.001-33.502h-142.309v-8.101h142.309l-27.001-33.402h10.5l30.002,37.503
		l-30.002,37.502H1721.252z"/>
	<path fill="#231F20" d="M243.269,1072.101l-21.802-27.401l21.802-27.402h10.101l-21.802,27.402l21.802,27.401H243.269z"/>
	<path fill="#231F20" d="M450.848,1072.101l-21.802-27.401l21.802-27.402h10.101l-21.802,27.402l21.802,27.401H450.848z
		 M478.049,1072.101l-21.701-27.401l21.701-27.402h10.101l-21.701,27.402l21.701,27.401H478.049z"/>
	<path fill="#231F20" d="M663.826,1072.101l21.802-27.401l-21.802-27.402h10.101l21.802,27.402l-21.802,27.401H663.826z
		 M691.128,1072.101l21.701-27.401l-21.701-27.402h10.101l21.701,27.402l-21.701,27.401H691.128z"/>
	<path fill="#231F20" d="M953.409,1015.198v10.101L926.008,1047l-27.402-21.701v-10.101l27.402,21.701L953.409,1015.198z
		 M953.409,1042.5v10.101l-27.401,21.701l-27.402-21.701V1042.5l27.402,21.701L953.409,1042.5z"/>
	<path fill="#231F20" d="M1156.488,1033.399l-27.402-21.802v-10.101l27.402,21.802l27.401-21.802v10.101L1156.488,1033.399z
		 M1156.488,1060.701l-27.402-21.802v-10.101l27.402,21.802l27.401-21.802v10.101L1156.488,1060.701z M1156.488,1088.002
		l-27.402-21.802V1056.1l27.402,21.802l27.401-21.802v10.101L1156.488,1088.002z"/>
	<path fill="#231F20" d="M1463.172,1072.101l-19.101-23.602h-17.102l19.001,23.602h-10.101l-19.001-23.602h-44.503l19.102,23.602
		h-10.101l-21.802-27.401l21.802-27.402h10.101l-19.102,23.502h44.503l19.001-23.502h10.101l-19.001,23.502h17.201l19.001-23.502
		h10.101l-21.801,27.402l21.801,27.401H1463.172z"/>
	<path fill="#231F20" d="M1730.752,1072.101l19.101-23.602h-44.503l-19.001,23.602h-10.101l19.001-23.602h-17.101l-19.102,23.602
		h-10.101l21.802-27.401l-21.802-27.402h10.101l19.002,23.502h17.2l-19.001-23.502h10.101l19.001,23.502h44.503l-19.101-23.502
		h10.101l21.801,27.402l-21.801,27.401H1730.752z"/>
	<path fill="#231F20" d="M385.077,1348.101l-19.102-23.602h-17.101l19.001,23.602h-10.101l-19.001-23.602H234.268l19.102,23.602
		h-10.101l-21.802-27.401l21.802-27.402h10.101l-19.102,23.502h104.507l19.001-23.502h10.101l-19.001,23.502h17.201l19.001-23.502
		h10.101l-21.802,27.402l21.802,27.401H385.077z"/>
	<path fill="#231F20" d="M729.352,1348.101l19.102-23.602H643.946l-19.001,23.602h-10.101l19.001-23.602h-17.101l-19.102,23.602
		h-10.101l21.802-27.401l-21.802-27.402h10.101l19.002,23.502h17.2l-19.001-23.502h10.101l19.001,23.502h104.507l-19.102-23.502
		h10.101l21.802,27.402l-21.802,27.401H729.352z"/>
	<path fill="#231F20" d="M983.62,1348.101l-30.002-37.502l30.002-37.503h10.501l-30.002,37.503l30.002,37.502H983.62z"/>
	<path fill="#231F20" d="M1186.494,1348.101l30.002-37.502l-30.002-37.503h10.501l30.002,37.503l-30.002,37.502H1186.494z"/>
	<path fill="#231F20" d="M1456.873,1300.898l-37.503,30.002v-10.501l37.503-30.001l37.502,30.001v10.501L1456.873,1300.898z"/>
	<path fill="#231F20" d="M1724.248,1330.9l-37.503-30.002v-10.5l37.503,30.001l37.502-30.001v10.5L1724.248,1330.9z"/>
	<path fill="#231F20" d="M251.469,1624.101l-30.002-37.502l30.002-37.503h10.501l-30.002,37.503l30.002,37.502H251.469z
		 M282.771,1624.101l-30.002-37.502l30.002-37.503h10.501l-30.002,37.503l30.002,37.502H282.771z"/>
	<path fill="#231F20" d="M454.18,1624.101l30.002-37.502l-30.002-37.503h10.501l30.002,37.503l-30.002,37.502H454.18z
		 M485.481,1624.101l30.002-37.502l-30.002-37.503h10.501l30.002,37.503l-30.002,37.502H485.481z"/>
	<path fill="#231F20" d="M724.395,1561.197l-37.503,30.002v-10.5l37.503-30.002l37.502,30.002v10.5L724.395,1561.197z
		 M724.395,1592.5l-37.503,30.002V1612l37.503-30.002L761.896,1612v10.501L724.395,1592.5z"/>
	<path fill="#231F20" d="M997.81,1550.697v10.5l-37.502,30.002l-37.503-30.002v-10.5l37.503,30.002L997.81,1550.697z
		 M997.81,1581.999v10.501l-37.502,30.002l-37.503-30.002v-10.501L960.308,1612L997.81,1581.999z"/>
	<path fill="#231F20" d="M1188.719,1624.101l-30.002-37.502l30.002-37.503h10.501l-30.002,37.503l30.002,37.502H1188.719z
		 M1220.021,1624.101l-30.002-37.502l30.002-37.503h10.501l-30.002,37.503l30.002,37.502H1220.021z M1251.322,1624.101
		l-30.001-37.502l30.001-37.503h10.501l-30.002,37.503l30.002,37.502H1251.322z"/>
	<path fill="#231F20" d="M1422.73,1624.101l30.002-37.502l-30.002-37.503h10.501l30.002,37.503l-30.002,37.502H1422.73z
		 M1454.032,1624.101l30.002-37.502l-30.002-37.503h10.501l30.002,37.503l-30.002,37.502H1454.032z M1485.335,1624.101
		l30.001-37.502l-30.001-37.503h10.5l30.002,37.503l-30.002,37.502H1485.335z"/>
	<path fill="#231F20" d="M1761.749,1565.097v10.501l-37.502-30.002l-37.503,30.002v-10.501l37.503-30.002L1761.749,1565.097z
		 M1761.749,1596.399v10.501l-37.502-30.002l-37.503,30.002v-10.501l37.503-30.001L1761.749,1596.399z M1761.749,1627.702v10.5
		l-37.502-30.002l-37.503,30.002v-10.5l37.503-30.002L1761.749,1627.702z"/>
	<path fill="#231F20" d="M258.97,1851.598l-37.503-30.002v-10.501l37.503,30.002l37.502-30.002v10.501L258.97,1851.598z
		 M258.97,1882.9l-37.503-30.002v-10.5l37.503,30.001l37.502-30.001v10.5L258.97,1882.9z M258.97,1914.202l-37.503-30.002v-10.5
		l37.503,30.002l37.502-30.002v10.5L258.97,1914.202z"/>
	<path fill="#231F20" d="M580.273,1900.101l-27.102-33.502h-20.801l27.201,33.502h-10.5l-27.202-33.502h-52.003l27.102,33.502
		h-10.501l-30.002-37.502l30.002-37.503h10.501l-27.102,33.402h52.103l27.103-33.402h10.5l-27.102,33.402h20.802l27.001-33.402
		h10.501l-30.002,37.503l30.002,37.502H580.273z"/>
	<path fill="#231F20" d="M844.571,1900.101l27.202-33.502H819.67l-27.102,33.502h-10.501l27.103-33.502h-20.802l-27.102,33.502
		h-10.501l30.002-37.502l-30.002-37.503h10.501l27.102,33.402h20.802l-27.103-33.402h10.501l27.102,33.402h52.003l-27.102-33.402
		h10.501l30.002,37.503l-30.002,37.502H844.571z"/>
</g>
</svg>
