<?xml version="1.0" encoding="utf-8"?>
<!-- Generator: Adobe Illustrator 16.0.3, SVG Export Plug-In . SVG Version: 6.00 Build 0)  -->
<!DOCTYPE svg PUBLIC "-//W3C//DTD SVG 1.1//EN" "http://www.w3.org/Graphics/SVG/1.1/DTD/svg11.dtd">
<svg version="1.1" id="Layer_1" xmlns="http://www.w3.org/2000/svg" xmlns:xlink="http://www.w3.org/1999/xlink" x="0px" y="0px"
	 width="2007.464px" height="1808.047px" viewBox="0 0 2007.464 1808.047" enable-background="new 0 0 2007.464 1808.047"
	 xml:space="preserve">
<rect fill="#FFFFFF" width="2007.464" height="1808.047"/>
<g>
	<path fill="#231F20" d="M222.867,206.599c0-24.302,16.701-39.503,39.702-39.503c23.002,0,39.703,15.201,39.703,39.503
		c0,24.301-16.701,39.502-39.703,39.502C239.568,246.101,222.867,230.9,222.867,206.599z M292.271,206.599
		c0-19.502-12.801-31.402-29.702-31.402c-16.9,0-29.701,11.9-29.701,31.402c0,19.501,12.801,31.401,29.701,31.401
		C279.471,238,292.271,226.1,292.271,206.599z"/>
	<path fill="#231F20" d="M481.446,206.599c0-24.302,16.701-39.503,39.702-39.503c23.002,0,39.703,15.201,39.703,39.503
		c0,24.301-16.701,39.502-39.703,39.502C498.147,246.101,481.446,230.9,481.446,206.599z M498.047,227.4l39.803-47.402
		c-4.7-3.101-10.4-4.801-16.701-4.801c-16.9,0-29.701,11.9-29.701,31.402C491.447,215.099,493.847,222.2,498.047,227.4z
		 M550.851,206.599c0-8.501-2.4-15.501-6.601-20.701L504.447,233.3c4.701,3.101,10.401,4.7,16.701,4.7
		C538.05,238,550.851,226.1,550.851,206.599z"/>
	<path fill="#231F20" d="M771.229,244.101v-63.704c-5.2,4.9-18.602,10.001-34.803,10.001v-8.101c18.002,0,32.402-6.7,36.902-13.201
		h7.501v75.005H771.229z"/>
	<path fill="#231F20" d="M960.806,244.101V236.5c28.602-16.601,54.003-31.802,54.003-45.803c0-10.7-10-15.501-22.101-15.501
		c-8.801,0-20.401,2.2-31.002,6.9v-8.9c11.4-4.5,22.901-6.101,31.802-6.101c17.601,0,31.302,7.001,31.302,22.302
		c0,17.601-23.701,32.502-48.003,46.603h49.803v8.101H960.806z"/>
	<path fill="#231F20" d="M1200.584,232.6c9.9,3.501,22.201,5.4,31.603,5.4c16.801,0,26.001-6.2,26.001-15.301
		c0-8.601-9.301-14.501-29.602-14.501h-5.7v-7.101l30.102-23.901h-51.203v-8.101h64.504v7.601l-31.502,24.602
		c24.002,1.3,33.002,10.501,33.002,21.901c0,14.101-13.001,22.901-35.502,22.901c-9.501,0-21.401-1.4-31.102-4.4L1200.584,232.6z"/>
	<path fill="#231F20" d="M1505.167,230.4v13.701h-9.601V230.4h-53.003v-7.1l51.804-54.204h10.8V222.7h17.001v7.7H1505.167z
		 M1495.566,179.097l-42.103,43.603h42.103V179.097z"/>
	<path fill="#231F20" d="M1696.144,232.6c9.9,3.501,22.201,5.4,31.602,5.4c17.602,0,24.602-6.5,24.602-14.9
		c0-9.401-7-15.102-26.102-15.102h-28.102v-38.902h61.104v8.101h-52.703v23.701h22.201c23.302,0,33.202,8.801,33.202,22.502
		c0,13.501-10.801,22.701-34.102,22.701c-9.501,0-21.401-1.4-31.103-4.4L1696.144,232.6z"/>
	<path fill="#231F20" d="M291.972,458.998c-8.201-4.9-17.701-7.801-27.902-7.801c-20.101,0-31.602,11.301-31.602,32.002v2
		c8.801-5.9,22.001-9.301,33.002-9.301c19.001,0,29.702,8.401,29.702,22.602c0,13.201-12.301,23.602-33.402,23.602
		c-24.901,0-38.902-15.201-38.902-39.502c0-24.302,14.801-39.503,40.702-39.503c10.601,0,20.701,2.4,28.402,6.9V458.998z
		 M233.168,491.299c2.7,14.801,13.101,23.201,28.502,23.201c15.801,0,23.801-7.3,23.801-15.601c0-9.4-7.2-15.602-22.901-15.602
		C252.969,483.298,240.668,486.699,233.168,491.299z"/>
	<path fill="#231F20" d="M486.115,520.101l40.602-66.904h-54.203v-8.101h64.104v7.501l-40.402,67.504H486.115z"/>
	<path fill="#231F20" d="M793.766,501.4c0,13.301-13.301,20.701-38.302,20.701c-25.002,0-38.303-7.4-38.303-20.701
		c0-9.9,8.001-16.801,22.602-18.901c-12.901-2.1-20.302-8.9-20.302-18.701c0-13.301,12.701-20.701,36.003-20.701
		c23.401,0,36.102,7.4,36.102,20.701c0,9.801-7,16.602-19.901,18.701C786.165,484.599,793.766,491.5,793.766,501.4z
		 M755.464,486.299c-18.602,0-28.702,5-28.702,14.2c0,9.101,10.001,14.001,28.702,14.001c18.801,0,28.701-4.9,28.701-14.001
		C784.165,491.299,774.064,486.299,755.464,486.299z M755.464,450.597c-17.201,0-26.702,4.8-26.702,14.001
		c0,9.101,9.4,14.101,26.702,14.101c17.4,0,26.701-5,26.701-14.101C782.165,455.397,772.664,450.597,755.464,450.597z"/>
	<path fill="#231F20" d="M1041.312,481.999v-0.7c-8.701,5.9-22.002,9.201-33.002,9.201c-18.901,0-29.603-9.001-29.603-23.201
		c0-13.201,12.301-24.202,33.402-24.202c24.901,0,38.902,15.201,38.902,39.503c0,24.301-14.801,39.502-40.702,39.502
		c-10.601,0-20.102-2.3-27.802-6.9l-0.601-9c8.101,4.899,17.701,7.8,27.902,7.8C1029.911,514,1041.312,502.7,1041.312,481.999z
		 M1040.812,475.098c-2.4-15.601-12.801-24.401-28.603-24.401c-15.801,0-23.901,7.9-23.901,16.201c0,9.4,7.301,16.201,22.901,16.201
		C1020.811,483.099,1033.312,479.699,1040.812,475.098z"/>
	<path fill="#231F20" d="M1235.153,489.699c0-18.601,12.201-32.401,30.702-32.401s30.702,13.801,30.702,32.401
		c0,18.602-12.201,32.402-30.702,32.402S1235.153,508.3,1235.153,489.699z M1287.356,489.699c0-14.301-8.5-24.701-21.501-24.701
		s-21.502,10.4-21.502,24.701c0,14.302,8.501,24.702,21.502,24.702S1287.356,504,1287.356,489.699z"/>
	<path fill="#231F20" d="M1479.499,489.699c0-18.601,12.201-32.401,30.702-32.401s30.702,13.801,30.702,32.401
		c0,18.602-12.201,32.402-30.702,32.402S1479.499,508.3,1479.499,489.699z M1493,505.4l29.002-36.802
		c-3.301-2.301-7.301-3.601-11.801-3.601c-13.001,0-21.502,10.4-21.502,24.701C1488.699,495.799,1490.2,501.2,1493,505.4z
		 M1531.702,489.699c0-6.1-1.6-11.5-4.4-15.7l-28.901,36.902c3.3,2.2,7.2,3.5,11.801,3.5
		C1523.202,514.401,1531.702,504,1531.702,489.699z"/>
	<path fill="#231F20" d="M1749.547,520.101v-50.003c-4.9,4.9-18.602,9-28.902,9v-7.8c11.801,0,26.901-5.501,31.002-12.001h7.101
		v60.804H1749.547z"/>
	<path fill="#231F20" d="M220.067,796.101V789.5c27.602-17.601,44.603-26.602,44.603-37.402c0-5.3-4.101-11.5-18.001-11.5
		c-8.101,0-17.602,1.8-24.802,5.6v-8c6.801-3.301,17.401-4.9,26.602-4.9c19.201,0,26.201,8.5,26.201,17.201
		c0,14.601-16.601,24.501-38.102,37.902h39.902v7.7H220.067z"/>
	<path fill="#231F20" d="M461.013,799.801c7.5,3.5,19.201,5.601,27.802,5.601c15.2,0,23.201-6.4,23.201-15.001
		c0-8.7-7.9-15.401-28.102-15.401h-4.001v-6.601l27.902-25.401h-46.203v-7.7h58.104v7.2L490.214,768.5
		c22.401,1,31.002,10.801,31.002,22.201c0,13.601-11.801,22.401-31.901,22.401c-8.701,0-19.602-1.6-27.702-4.8L461.013,799.801z"/>
	<path fill="#231F20" d="M763.761,796.101v14.201h-9.2v-14.201h-47.403v-6.7l46.203-54.104h10.4V788.8h14.601v7.301H763.761z
		 M754.561,745.298L717.357,788.8h37.203V745.298z"/>
	<path fill="#231F20" d="M962.906,799.801c7.5,3.5,19.201,5.601,27.801,5.601c14.201,0,21.602-6.7,21.602-15.701
		c0-9.801-7.801-15.501-23.901-15.501h-23.102v-38.902h52.903v7.7h-44.603v24.602h18.901c19.101,0,29.002,8.501,29.002,22.401
		c0,13.701-10.801,23.102-30.303,23.102c-8.7,0-20.001-1.6-27.701-4.8L962.906,799.801z"/>
	<path fill="#231F20" d="M1268.256,731.797c-6.501-3.2-15.001-5.001-23.102-5.001c-18.501,0-29.402,13.102-29.402,33.003v1.6
		c7.901-5.601,19.002-9.101,29.202-9.101c17.602,0,26.702,8.2,26.702,22.201c0,13.401-11.701,23.602-31.002,23.602
		c-21.701,0-34.502-14.601-34.502-38.103c0-23.501,14.9-40.902,37.602-40.902c8.701,0,17.602,1.601,24.502,4.9V731.797z
		 M1216.253,767.299c2.1,15.101,11.2,23.602,25.101,23.602c13.602,0,21.002-7.301,21.002-15.801c0-9.801-6.7-15.802-20.701-15.802
		C1232.854,759.298,1223.153,762.699,1216.253,767.299z"/>
	<path fill="#231F20" d="M1466.699,811.102l34.102-68.104h-48.203v-7.7h57.304v7.101l-34.401,68.704H1466.699z"/>
	<path fill="#231F20" d="M1761.248,777.8c0,12.2-11.101,20.301-31.901,20.301c-20.702,0-31.803-8.101-31.803-20.301
		c0-9.301,6.501-16.401,18.002-18.502c-13.102-2.3-19.702-9.8-19.702-19.201c0-12.3,11.102-21.001,33.503-21.001
		s33.502,8.701,33.502,21.001c0,9.401-6.601,16.901-19.701,19.201C1754.748,761.399,1761.248,768.5,1761.248,777.8z
		 M1729.347,726.296c-16.501,0-24.302,6.101-24.302,14.602c0,8.601,7.9,14.801,24.302,14.801c16.4,0,24.301-6.2,24.301-14.801
		C1753.647,732.397,1745.947,726.296,1729.347,726.296z M1729.347,762.899c-15.102,0-22.901,5.601-22.901,14.101
		c0,8.601,7.9,14.001,22.901,14.001s22.901-5.4,22.901-14.001C1752.248,768.5,1744.547,762.899,1729.347,762.899z"/>
	<path fill="#231F20" d="M275.87,1049v-1c-7.9,5.6-19.001,9.1-29.201,9.1c-17.501,0-26.602-8.199-26.602-22.801
		c0-14,11.601-24.201,30.901-24.201c21.802,0,34.603,15.201,34.603,38.701c0,23.502-13.401,40.303-37.603,40.303
		c-8.7,0-17.801-1.6-24.502-4.799l-0.6-8.502c6.5,3.5,16.001,5.602,24.602,5.602C265.17,1081.402,275.87,1068.9,275.87,1049z
		 M275.37,1042.1c-2-15.602-11-24.803-25.001-24.803c-13.602,0-21.102,7.301-21.102,16.402c0,10.4,6.801,16.4,20.701,16.4
		C258.869,1050.1,268.57,1046.699,275.37,1042.1z"/>
	<path fill="#231F20" d="M484.424,1042.1v-36.703c-3.399,2.801-11.5,5.801-21.701,5.801v-6.301c11.501,0,20.401-3.799,23.302-7.801
		h6.101v45.004H484.424z M483.624,1072.102h-11l77.504-75.006h11.001L483.624,1072.102z M558.529,1064.4v7.701h-7.601v-7.701
		h-34.103v-5.5l33.202-31.803h8.501v31.303h10.3v6H558.529z M550.929,1034.6l-25.102,23.801h25.102V1034.6z"/>
	<path fill="#231F20" d="M767.879,1042.1v-36.703c-3.399,2.801-11.5,5.801-21.701,5.801v-6.301c11.501,0,20.401-3.799,23.302-7.801
		h6.101v45.004H767.879z M767.079,1072.102h-11l77.504-75.006h11.001L767.079,1072.102z M821.482,1072.102v-5.9
		c18.302-9.4,34.002-17.701,34.002-25.602c0-6.201-5.7-8.4-13.301-8.4c-5.7,0-13.301,1.299-20.001,4v-6.801
		c7.301-2.5,14.901-3.5,20.701-3.5c11.601,0,20.501,4.199,20.501,13.301c0,10.5-14.5,19.102-29.501,26.602h30.602v6.301H821.482z"/>
	<path fill="#231F20" d="M1041.934,1033.799c6.501,2.1,14.501,3.199,20.701,3.199c10.401,0,15.602-3,15.602-8
		c0-4.699-5.4-7.699-18.102-7.699h-4.2v-5.301l18.802-12.602h-32.103v-6.301h42.303v5.9l-19.801,13.201
		c15.2,1,20.801,6.602,20.801,13.301c0,8.602-8.5,13.801-23.201,13.801c-6.2,0-14.001-0.799-20.401-2.6L1041.934,1033.799z
		 M1071.436,1072.102h-11.001l77.505-75.006h11.001L1071.436,1072.102z M1146.24,1064.4v7.701h-7.601v-7.701h-34.102v-5.5
		l33.202-31.803h8.5v31.303h10.301v6H1146.24z M1138.64,1034.6l-25.102,23.801h25.102V1034.6z"/>
	<path fill="#231F20" d="M1355.59,1042.1v-36.703c-3.399,2.801-11.5,5.801-21.701,5.801v-6.301c11.501,0,20.401-3.799,23.302-7.801
		h6.101v45.004H1355.59z M1354.79,1072.102h-11l77.504-75.006h11.001L1354.79,1072.102z M1455.097,1060.801
		c0,8.1-8.801,12.5-25.002,12.5s-24.901-4.4-24.901-12.5c0-5.801,4.9-10.002,15.301-11.301c-9.301-1.301-13.9-5.301-13.9-11.102
		c0-8.1,8.4-12.5,23.501-12.5c15.201,0,23.502,4.4,23.502,12.5c0,5.801-4.501,9.801-13.901,11.102
		C1450.096,1050.799,1455.097,1055,1455.097,1060.801z M1430.095,1052.4c-12.001,0-17.301,2.9-17.301,7.699
		c0,4.801,5.3,7.4,17.301,7.4s17.401-2.6,17.401-7.4C1447.496,1055.301,1442.096,1052.4,1430.095,1052.4z M1430.095,1031.699
		c-11.2,0-16.101,2.5-16.101,7.301c0,4.898,4.9,7.699,16.101,7.699c11.301,0,16.102-2.801,16.102-7.699
		C1446.196,1034.199,1441.396,1031.699,1430.095,1031.699z"/>
	<path fill="#231F20" d="M1632.443,1033.799c6.501,2.1,14.501,3.199,20.701,3.199c10.401,0,15.602-3,15.602-8
		c0-4.699-5.4-7.699-18.102-7.699h-4.2v-5.301l18.802-12.602h-32.103v-6.301h42.303v5.9l-19.801,13.201
		c15.2,1,20.801,6.602,20.801,13.301c0,8.602-8.5,13.801-23.201,13.801c-6.2,0-14.001-0.799-20.401-2.6L1632.443,1033.799z
		 M1661.546,1072.102h-11.001l77.505-75.006h11L1661.546,1072.102z M1761.752,1060.801c0,8.1-8.801,12.5-25.002,12.5
		s-24.901-4.4-24.901-12.5c0-5.801,4.9-10.002,15.301-11.301c-9.301-1.301-13.9-5.301-13.9-11.102c0-8.1,8.4-12.5,23.501-12.5
		c15.201,0,23.502,4.4,23.502,12.5c0,5.801-4.501,9.801-13.901,11.102C1756.751,1050.799,1761.752,1055,1761.752,1060.801z
		 M1736.75,1052.4c-12.001,0-17.301,2.9-17.301,7.699c0,4.801,5.3,7.4,17.301,7.4s17.401-2.6,17.401-7.4
		C1754.151,1055.301,1748.751,1052.4,1736.75,1052.4z M1736.75,1031.699c-11.2,0-16.101,2.5-16.101,7.301
		c0,4.898,4.9,7.699,16.101,7.699c11.301,0,16.101-2.801,16.101-7.699C1752.851,1034.199,1748.051,1031.699,1736.75,1031.699z"/>
	<path fill="#231F20" d="M221.467,1309.799c6.501,2,14.501,3.199,20.602,3.199c10.801,0,14.801-3.199,14.801-8
		c0-5.1-3.8-8.1-15.801-8.1h-18.401v-23.803h40.103v6.301h-33.402v12.301h13.602c15.101,0,21.601,5.5,21.601,13.801
		s-7.2,13.801-22.401,13.801c-6.1,0-13.9-0.799-20.301-2.6L221.467,1309.799z M249.969,1348.102h-11.001l77.505-75.006h11.001
		L249.969,1348.102z M350.175,1336.801c0,8.1-8.801,12.5-25.001,12.5c-16.201,0-24.902-4.4-24.902-12.5
		c0-5.801,4.9-10.002,15.302-11.301c-9.301-1.301-13.901-5.301-13.901-11.102c0-8.1,8.4-12.5,23.502-12.5
		c15.2,0,23.501,4.4,23.501,12.5c0,5.801-4.5,9.801-13.9,11.102C345.175,1326.799,350.175,1331,350.175,1336.801z M325.174,1328.4
		c-12.001,0-17.302,2.9-17.302,7.699c0,4.801,5.301,7.4,17.302,7.4c12,0,17.4-2.6,17.4-7.4
		C342.574,1331.301,337.174,1328.4,325.174,1328.4z M325.174,1307.699c-11.201,0-16.102,2.5-16.102,7.301
		c0,4.898,4.9,7.699,16.102,7.699c11.301,0,16.101-2.801,16.101-7.699C341.274,1310.199,336.475,1307.699,325.174,1307.699z"/>
	<path fill="#231F20" d="M587.188,1318.1l25.901-38.703h-34.402v-6.301h42.003v5.9l-25.701,39.104H587.188z M590.888,1348.102
		h-11.001l77.505-75.006h11.001L590.888,1348.102z M691.094,1336.801c0,8.1-8.801,12.5-25.002,12.5c-16.2,0-24.901-4.4-24.901-12.5
		c0-5.801,4.9-10.002,15.301-11.301c-9.3-1.301-13.9-5.301-13.9-11.102c0-8.1,8.4-12.5,23.501-12.5c15.201,0,23.502,4.4,23.502,12.5
		c0,5.801-4.5,9.801-13.901,11.102C686.094,1326.799,691.094,1331,691.094,1336.801z M666.092,1328.4c-12,0-17.301,2.9-17.301,7.699
		c0,4.801,5.301,7.4,17.301,7.4c12.001,0,17.401-2.6,17.401-7.4C683.493,1331.301,678.093,1328.4,666.092,1328.4z M666.092,1307.699
		c-11.2,0-16.101,2.5-16.101,7.301c0,4.898,4.9,7.699,16.101,7.699c11.301,0,16.102-2.801,16.102-7.699
		C682.193,1310.199,677.393,1307.699,666.092,1307.699z"/>
	<path fill="#231F20" d="M941.308,1318.1v-36.703c-3.399,2.801-11.5,5.801-21.701,5.801v-6.301c11.501,0,20.401-3.799,23.302-7.801
		h6.101v45.004H941.308z M940.508,1348.102h-11l77.504-75.006h11.001L940.508,1348.102z M996.512,1339.801
		c6.5,2.1,14.501,3.199,20.701,3.199c10.4,0,15.601-3,15.601-8c0-4.699-5.4-7.699-18.101-7.699h-4.2V1322l18.801-12.602h-32.102
		v-6.301h42.302v5.9l-19.801,13.201c15.201,1,20.801,6.602,20.801,13.301c0,8.602-8.5,13.801-23.201,13.801
		c-6.2,0-14.001-0.799-20.401-2.6L996.512,1339.801z"/>
	<path fill="#231F20" d="M1268.926,1318.1v-5.9c18.302-9.4,34.002-17.701,34.002-25.602c0-6.201-5.7-8.4-13.301-8.4
		c-5.7,0-13.301,1.299-20.001,4v-6.801c7.301-2.5,14.901-3.5,20.701-3.5c11.601,0,20.502,4.201,20.502,13.301
		c0,10.5-14.501,19.102-29.502,26.602h30.602v6.301H1268.926z M1301.428,1348.102h-11l77.504-75.006h11.001L1301.428,1348.102z
		 M1401.634,1336.801c0,8.1-8.8,12.5-25.001,12.5s-24.901-4.4-24.901-12.5c0-5.801,4.9-10.002,15.301-11.301
		c-9.301-1.301-13.901-5.301-13.901-11.102c0-8.1,8.4-12.5,23.502-12.5c15.201,0,23.501,4.4,23.501,12.5
		c0,5.801-4.5,9.801-13.9,11.102C1396.634,1326.799,1401.634,1331,1401.634,1336.801z M1376.633,1328.4
		c-12.001,0-17.301,2.9-17.301,7.699c0,4.801,5.3,7.4,17.301,7.4s17.401-2.6,17.401-7.4
		C1394.034,1331.301,1388.634,1328.4,1376.633,1328.4z M1376.633,1307.699c-11.201,0-16.102,2.5-16.102,7.301
		c0,4.898,4.9,7.699,16.102,7.699c11.301,0,16.101-2.801,16.101-7.699C1392.733,1310.199,1387.934,1307.699,1376.633,1307.699z"/>
	<path fill="#231F20" d="M1656.148,1319.299c-15.101,0-26.002-9.1-26.002-23.701s10.901-23.701,26.002-23.701
		s26.002,9.1,26.002,23.701S1671.249,1319.299,1656.148,1319.299z M1656.148,1278.197c-10.4,0-18.001,6.5-18.001,17.4
		s7.601,17.4,18.001,17.4s18.001-6.5,18.001-17.4S1666.549,1278.197,1656.148,1278.197z M1662.648,1348.102h-11l77.504-75.006
		h11.001L1662.648,1348.102z M1735.753,1349.301c-15.101,0-26.001-9.1-26.001-23.701s10.9-23.701,26.001-23.701
		c15.102,0,26.002,9.1,26.002,23.701S1750.854,1349.301,1735.753,1349.301z M1735.753,1308.199c-10.4,0-18.001,6.5-18.001,17.4
		s7.601,17.4,18.001,17.4c10.401,0,18.001-6.5,18.001-17.4S1746.154,1308.199,1735.753,1308.199z"/>
	<path fill="#231F20" d="M247.469,1595.299c-15.101,0-26.002-9.1-26.002-23.701s10.901-23.701,26.002-23.701
		s26.002,9.1,26.002,23.701S262.569,1595.299,247.469,1595.299z M247.469,1554.197c-10.4,0-18.001,6.5-18.001,17.4
		s7.601,17.4,18.001,17.4s18.001-6.5,18.001-17.4S257.869,1554.197,247.469,1554.197z M253.969,1624.102h-11l77.504-75.006h11.001
		L253.969,1624.102z M327.073,1625.301c-15.101,0-26.001-9.1-26.001-23.701s10.9-23.701,26.001-23.701
		c15.102,0,26.002,9.1,26.002,23.701S342.175,1625.301,327.073,1625.301z M327.073,1584.199c-10.4,0-18.001,6.5-18.001,17.4
		s7.601,17.4,18.001,17.4c10.401,0,18.001-6.5,18.001-17.4S337.475,1584.199,327.073,1584.199z M387.077,1625.301
		c-15.101,0-26.002-9.1-26.002-23.701s10.901-23.701,26.002-23.701s26.002,9.1,26.002,23.701S402.178,1625.301,387.077,1625.301z
		 M387.077,1584.199c-10.4,0-18.001,6.5-18.001,17.4s7.601,17.4,18.001,17.4s18.001-6.5,18.001-17.4
		S397.478,1584.199,387.077,1584.199z"/>
</g>
</svg>
