<?xml version="1.0" encoding="utf-8"?>
<!-- Generator: Adobe Illustrator 16.0.3, SVG Export Plug-In . SVG Version: 6.00 Build 0)  -->
<!DOCTYPE svg PUBLIC "-//W3C//DTD SVG 1.1//EN" "http://www.w3.org/Graphics/SVG/1.1/DTD/svg11.dtd">
<svg version="1.1" id="Layer_1" xmlns="http://www.w3.org/2000/svg" xmlns:xlink="http://www.w3.org/1999/xlink" x="0px" y="0px"
	 width="2007.464px" height="4285.553px" viewBox="0 0 2007.464 4285.553" enable-background="new 0 0 2007.464 4285.553"
	 xml:space="preserve">
<rect fill="#FFFFFF" width="2007.464" height="4285.553"/>
<g>
	<path fill="#231F20" d="M263.369,208.698l-16.4-35.802h-0.601l-16.301,35.802l-3.601-1.699l18.401-39.703h3.7l18.401,39.703
		L263.369,208.698z"/>
	<path fill="#231F20" d="M482.724,199.898c-3.7,11.4-8.4,14.601-13.801,14.601c-8.4,0-13.301-7.2-19.701-7.2
		c-3.3,0-6.5,1.7-9.101,6.5l-1.4-0.7c3.7-11.4,8.4-14.601,13.801-14.601c8.4,0,13.301,7.2,19.701,7.2c3.301,0,6.501-1.7,9.101-6.5
		L482.724,199.898z"/>
	<path fill="#231F20" d="M654.475,206.499c0-3.301,2.601-6.101,6.101-6.101c3.601,0,6.2,2.8,6.2,6.101c0,3.399-2.6,6.2-6.2,6.2
		C657.075,212.699,654.475,209.898,654.475,206.499z"/>
	<path fill="#231F20" d="M858.43,228.599v-20.201h-19.901v-3.7h19.901v-20.101h4.101v20.101h20.001v3.7H862.53v20.201H858.43z"/>
	<path fill="#231F20" d="M1054.282,208.398v-3.7h44.003v3.7H1054.282z"/>
	<path fill="#231F20" d="M1289.938,223.599v-20.201h-19.901v-3.7h19.901v-20.102h4.101v20.102h20.001v3.7h-20.001v20.201H1289.938z
		 M1270.036,239.6v-3.7h44.003v3.7H1270.036z"/>
	<path fill="#231F20" d="M1505.592,209.398l-17.001,17.001l-2.801-2.899l16.901-16.901l-16.901-17.001l2.801-2.7l16.9,16.901
		l17.001-17.002l2.9,2.801l-17.001,17.101l17.001,17.001l-2.8,2.7L1505.592,209.398z"/>
	<path fill="#231F20" d="M1731.946,209.398l-32.002,32.002l-2.801-2.899l31.902-31.902l-31.902-32.002l2.801-2.7l31.901,31.902
		l32.002-32.002l2.9,2.8l-32.002,32.102l32.002,32.002l-2.8,2.7L1731.946,209.398z"/>
	<path fill="#231F20" d="M226.467,484.398v-3.7h44.003v3.7H226.467z M244.868,465.998c-1.1-1.9-0.5-4.4,1.5-5.4
		c2.101-1.101,4.4-0.4,5.501,1.5c1.1,1.899,0.5,4.4-1.501,5.5C248.269,468.597,245.969,467.998,244.868,465.998z M244.868,503.099
		c-1.1-1.9-0.5-4.4,1.5-5.5c2.101-1.101,4.4-0.4,5.501,1.5c1.1,1.9,0.5,4.4-1.501,5.5C248.269,505.599,245.969,505,244.868,503.099z
		"/>
	<path fill="#231F20" d="M440.963,484.398v-3.7l39.703-18.501l1.699,3.601l-35.802,16.4v0.601l35.802,16.501l-1.699,3.6
		L440.963,484.398z"/>
	<path fill="#231F20" d="M654.561,502.899l-1.7-3.6l35.803-16.501v-0.601l-35.803-16.4l1.7-3.601l39.703,18.501v3.7L654.561,502.899
		z"/>
	<path fill="#231F20" d="M864.758,484.398v-3.7l39.703-18.501l1.699,3.601l-35.802,16.4v0.601l35.802,16.501l-1.699,3.6
		L864.758,484.398z M864.758,515.5v-3.7h44.003v3.7H864.758z"/>
	<path fill="#231F20" d="M1079.254,515.5v-3.7h44.003v3.7H1079.254z M1083.555,502.899l-1.7-3.6l35.802-16.501v-0.601l-35.802-16.4
		l1.7-3.601l39.702,18.501v3.7L1083.555,502.899z"/>
	<path fill="#231F20" d="M1293.75,474.398v-3.7h44.003v3.7H1293.75z M1293.75,494.399v-3.7h44.003v3.7H1293.75z"/>
	<path fill="#231F20" d="M1537.549,474.398l-9.2,16.301h23.901v3.7h-26.002l-9.601,17.201l-3.8-2.101l8.501-15.101h-13.102v-3.7
		h15.201l9.101-16.301h-24.302v-3.7h26.402l9.101-16.201l3.8,2.1l-7.9,14.102h12.601v3.7H1537.549z"/>
	<path fill="#231F20" d="M1766.747,465.897c-3.7,11.4-8.4,14.601-13.801,14.601c-8.4,0-13.301-7.2-19.701-7.2
		c-3.3,0-6.5,1.7-9.101,6.501l-1.4-0.7c3.7-11.401,8.4-14.602,13.801-14.602c8.4,0,13.301,7.201,19.701,7.201
		c3.301,0,6.501-1.7,9.101-6.501L1766.747,465.897z M1766.747,485.898c-3.7,11.401-8.4,14.602-13.801,14.602
		c-8.4,0-13.301-7.201-19.701-7.201c-3.3,0-6.5,1.7-9.101,6.501l-1.4-0.7c3.7-11.4,8.4-14.601,13.801-14.601
		c8.4,0,13.301,7.2,19.701,7.2c3.301,0,6.501-1.7,9.101-6.5L1766.747,485.898z"/>
	<path fill="#231F20" d="M266.369,780.599v-20.201h-39.902v-3.7h44.003v23.901H266.369z"/>
	<path fill="#231F20" d="M450.65,807.601v-91.306h4.6v91.306H450.65z"/>
	<path fill="#231F20" d="M640.432,751.698v-35.402h4.6v35.402H640.432z M640.432,807.601v-39.902h4.6v39.902H640.432z"/>
	<path fill="#231F20" d="M853.615,761.199c-3.601,5.899-7.701,11.101-14.602,11.101c-9,0-13.801-6.701-13.801-14.901
		s4.801-14.9,13.801-14.9c6.9,0,11.001,5.3,14.602,11.2c3.6-5.9,7.7-11.2,14.7-11.2c9.001,0,13.801,6.7,13.801,14.9
		s-4.8,14.901-13.801,14.901C861.415,772.299,857.215,767.098,853.615,761.199z M851.415,757.398c-3.5-5.9-6.9-11.301-12.401-11.301
		c-6.3,0-9.4,4.7-9.4,11.301s3.101,11.301,9.4,11.301C844.515,768.699,847.915,763.298,851.415,757.398z M877.717,757.398
		c0-6.601-3.101-11.301-9.401-11.301c-5.6,0-8.9,5.4-12.4,11.301c3.5,5.9,6.801,11.301,12.4,11.301
		C874.616,768.699,877.717,763.999,877.717,757.398z"/>
	<path fill="#231F20" d="M1057.296,759.398l27.602-34.102l27.603,34.102l-27.603,34.202L1057.296,759.398z M1106.799,759.398
		l-21.901-27.102l-21.901,27.102l21.901,27.202L1106.799,759.398z"/>
	<path fill="#231F20" d="M1314.181,751.398c-4.601-12.201-13.301-23.002-25.701-29.202l0.6-1.7
		c19.701,6.501,39.303,24.802,39.303,48.003c0,14.401-8.901,24.702-22.302,24.702c-11.001,0-20.701-7.401-20.701-21.502
		c0-12.601,9.601-21.602,21.102-21.602C1308.48,750.097,1311.381,750.398,1314.181,751.398z M1315.181,754.398
		c-2.3-0.8-4.601-1.2-6.5-1.2c-7.301,0-12.801,6.2-12.801,17.101c0,7.401,2.6,19.401,12,19.401c7.801,0,10.001-8.9,10.001-18.001
		C1317.881,765.899,1316.98,759.999,1315.181,754.398z"/>
	<path fill="#231F20" d="M1533.663,792.6h-1.5v-7.2h-0.7c-2.7,4.7-7.5,7.801-13.701,7.801c-1.6,0-3.8-0.4-4.8-1.001l-0.3,0.4
		l3.5,19.301v1.501h-11.101v-51.304c0-4.7-1-4.9-6.101-4.9v-1.5l14.601-5h1.601v26.401c0,5.801,1.9,9.701,7.5,9.701
		c5.301,0,9.4-3.701,9.501-11.301v-13.401c0-4.7-1.101-4.9-6.2-4.9v-1.5l14.7-5h1.5V781.2c0,4.6,1.101,4.8,6.201,4.8v1.601
		L1533.663,792.6z"/>
	<path fill="#231F20" d="M1726.045,791.6v-1.5l8.101-30.302h-13.001v-1.5l11.601-6.601h32.603l-1.101,8.101h-9l2.8,22.801
		c0.601,4.201,2.2,5.4,4.5,5.4c1.501,0,2.801-0.3,3.501-0.5l0.5,1.5c-1.601,2.2-5.501,4.201-9.301,4.201
		c-4.3,0-9.101-1.7-7.7-10.501l3.4-22.901h-16.401V791.6H1726.045z"/>
	<path fill="#231F20" d="M223.467,1067.6v-1.5l26.502-64.004h2.9l28.602,64.004v1.5H223.467z M266.069,1058.299l-17.401-40.702
		h-0.699l-16.701,40.702v0.5h34.802V1058.299z"/>
	<path fill="#231F20" d="M513.9,1067.6v-1.5c7.301-1.7,8.501-3,8.501-7.501v-51.603h-36.202v51.603c0,4.501,1.199,5.801,8.5,7.501
		v1.5h-27.602v-1.5c7.301-1.7,8.501-3,8.501-7.501v-46.303c0-4.5-1.2-5.8-8.501-7.5v-1.5h74.505v1.5c-7.301,1.7-8.501,3-8.501,7.5
		v46.303c0,4.501,1.2,5.801,8.501,7.501v1.5H513.9z"/>
	<path fill="#231F20" d="M729.127,1067.6v-1.5l19.302-27.802l-19.302-33.502v-1.5h45.604v14.9h-1.501c-5.6-10.4-10.8-11.2-16.9-11.2
		h-13.101v0.7l13.801,23.602v1.5l-17.701,25.401v0.6h20.001c6.101,0,9.601-0.8,13.9-9.101h1.501v17.901H729.127z"/>
	<path fill="#231F20" d="M1030.461,1058.799v8.801h-27.702v-1.5c9.801-10.801,13.801-23.102,13.801-34.002
		c0-18.501-10-26.602-20.501-26.602c-10.601,0-20.602,7.101-20.602,25.602c0,10.9,4.101,24.201,13.901,35.002v1.5h-26.702v-8.801
		h16.901v-0.5c-8.601-5.8-16.102-14.601-16.102-26.602c0-19.301,16.602-30.002,32.603-30.002s32.502,9.701,32.502,29.002
		c0,12.001-7.4,21.802-16.102,27.602v0.5H1030.461z"/>
	<path fill="#231F20" d="M1240.588,1068.8l-14.302-27.401c-1.899-3.9-3.3-4.4-6.3-3.4l-1.9,0.6l-0.7-1.5l11.801-9.4h1.5
		l13.901,28.302h0.6l22.102-59.504l3.2,1.3l-27.102,71.005H1240.588z"/>
	<path fill="#231F20" d="M1478.417,1015.797c0-11.102,7.7-19.302,19.001-19.302c3.5,0,9.5,0.601,15.001,4.601l-4.7,9.4h-1.5
		c-3.4-7-6.9-10.801-10.501-10.801c-5.2,0-7.301,4.301-7.301,10.601v61.404c0,11.101-7.7,19.301-19.001,19.301
		c-3.5,0-9.501-0.6-15.001-4.601l4.7-9.4h1.5c3.4,7.001,6.9,10.801,10.501,10.801c5.101,0,7.301-4.3,7.301-10.601V1015.797z"/>
	<path fill="#231F20" d="M1761.95,1053.199c-5.9,9.701-16.602,16.002-28.902,16.002c-18.701,0-33.702-14.401-33.702-33.702
		c0-19.302,15.001-33.803,33.702-33.803s33.702,14.501,33.702,33.803h-52.303v23.901c5,4.1,11.5,6.5,18.601,6.5
		c10.201,0,18.901-5,24.202-12.701H1761.95z M1714.447,1032.198h37.302l-0.1-20.601c-5.001-4.101-11.501-6.601-18.602-6.601
		s-13.601,2.5-18.601,6.601V1032.198z"/>
	<path fill="#231F20" d="M257.669,1338c-3,4.4-7.301,7.201-12.4,7.201c-7.101,0-11.701-4.301-11.701-13.201v-7.301
		c-1.9,1-3.9,1.9-5.9,2.801l-1.2-2.601c2.4-1.2,4.801-2.4,7.101-3.7v-12.101c0-18.802,9.001-31.402,18.201-31.402
		c4.601,0,10.501,2.301,10.501,12.801c0,9.201-7.001,19.401-18.602,27.802V1330c0,6.601,2.601,9.2,6.301,9.2
		c1.7,0,4.8-0.9,6.601-2.4L257.669,1338z M243.668,1313.898c5.7-5.5,9.601-12.9,9.601-24.102c0-5.8-1.399-8.4-3.8-8.4
		c-4.601,0-5.801,12.001-5.801,24.901V1313.898z"/>
	<path fill="#231F20" d="M454.851,1338.6l3.801-6.4c-6.301-4.501-10.401-12.001-10.401-20.901c0-14.801,11.201-25.602,25.502-25.602
		c4.101,0,8,1,11.501,2.6l3.899-6.5l3.601,2.2l-3.9,6.5c6.301,4.501,10.401,11.901,10.401,20.802
		c0,14.801-11.201,25.602-25.502,25.602c-4.101,0-8.001-0.9-11.4-2.5l-3.9,6.4L454.851,1338.6z M460.751,1328.899l22.501-37.302
		c-2.899-1.301-6.1-2.101-9.5-2.101c-12.001,0-21.102,8.9-21.102,21.802C452.65,1318.899,455.751,1324.999,460.751,1328.899z
		 M494.854,1311.298c0-7.501-3.101-13.601-8.001-17.501l-22.501,37.302c2.8,1.301,6,2,9.4,2
		C485.753,1333.099,494.854,1324.199,494.854,1311.298z"/>
	<path fill="#231F20" d="M699.834,1304.098c-8.001,0-13.602-6.201-13.602-13.201c0-7.001,5.601-13.201,13.602-13.201
		c8,0,13.601,6.2,13.601,13.201C713.435,1297.897,707.834,1304.098,699.834,1304.098z M709.034,1290.897c0-6-4.2-9.601-9.2-9.601
		c-5.001,0-9.201,3.601-9.201,9.601s4.2,9.601,9.201,9.601C704.834,1300.498,709.034,1296.897,709.034,1290.897z"/>
	<path fill="#231F20" d="M923.016,1295.797c-1.4,2.3-4,4.7-7.301,4.7c-2.1,0-4.8-0.8-5.5-4.101h-0.5c-1.6,2.601-4.3,4.101-7.5,4.101
		c-3.4,0-5.301-2.5-5.301-4.601c0-2.1,1.4-3.8,13.301-8.101v-2.2c0-3.6-1.6-5.1-4.7-5.1c-2.7,0-5.5,1.3-7.801,3.5l-0.7-0.9
		c2.2-3.7,7.301-7.8,13.001-7.8c4.001,0,8.301,1.8,8.301,7.5v10.801c0,1.4,0.3,2.3,1.601,2.3c0.8,0,1.6-0.399,2.3-1
		L923.016,1295.797z M910.215,1292.197v-2.4c-5.101,1.7-5.8,2.801-5.8,4.101c0,1.101,0.8,1.7,2.1,1.7
		C908.314,1295.597,910.215,1294.097,910.215,1292.197z"/>
	<path fill="#231F20" d="M1101.796,1287.897c0-7.9,6.7-12.601,13.602-12.601c7.2,0,13,4.5,13,12.5c0,8.101-6.7,12.701-13.601,12.701
		C1107.597,1300.498,1101.796,1296.097,1101.796,1287.897z M1120.297,1290.397c0-4-1-12.801-5.8-12.801c-3.4,0-4.5,3.9-4.5,7.9
		c0,3.9,0.899,12.601,5.8,12.601C1119.197,1298.097,1120.297,1294.297,1120.297,1290.397z"/>
	<path fill="#231F20" d="M1316.979,1300.797l-5.2-24.802v-1.5h11.901v1.5l-5.2,24.802H1316.979z"/>
	<path fill="#231F20" d="M1515.862,1300.797l-5.2-24.802v-1.5h11.901v1.5l-5.2,24.802H1515.862z M1533.063,1300.797l-5.2-24.802
		v-1.5h11.901v1.5l-5.201,24.802H1533.063z"/>
	<path fill="#231F20" d="M1726.743,1347.3v-3.7h40.003v3.7H1726.743z"/>
	<path fill="#231F20" d="M226.467,1599.399v-3.7h90.006v3.7H226.467z"/>
	<path fill="#231F20" d="M497.593,1599.399v-3.7h40.003v3.7H497.593z"/>
	<path fill="#231F20" d="M718.719,1599.899v-4.7h22.002v4.7H718.719z"/>
	<path fill="#231F20" d="M938.845,1615.6l-17.001-17.602v-1.6l17.001-17.501l1.301,0.699l-7.501,17.602l7.501,17.602L938.845,1615.6
		z"/>
	<path fill="#231F20" d="M1121.769,1615.1l4.801-11.801l-3-17.602l-1.4-6.5l11.2,11.101l6.201,7.101l-10.701,12.001L1121.769,1615.1
		z"/>
	<path fill="#231F20" d="M1337.694,1615.6l-17.001-17.602v-1.6l17.001-17.501l1.301,0.699l-7.501,17.602l7.501,17.602
		L1337.694,1615.6z M1354.096,1615.6l-17.001-17.602v-1.6l17.001-17.501l1.4,0.699l-7.601,17.602l7.601,17.602L1354.096,1615.6z"/>
	<path fill="#231F20" d="M1537.119,1615.1l4.801-11.801l-3-17.602l-1.4-6.5l11.2,11.101l6.201,7.101l-10.701,12.001L1537.119,1615.1
		z M1553.62,1615.1l4.7-11.801l-3-17.602l-1.399-6.5l11.3,11.101l6.201,7.101l-10.801,12.001L1553.62,1615.1z"/>
	<path fill="#231F20" d="M1753.646,1631.101c2.8-2.2,4.7-7.001,4.7-11.001c0-2.9-0.8-6.4-5.801-7.101v-1.5l4.9-6.801
		c6.601,0.801,9.301,5.201,9.301,9.801c0,6.4-4.101,13.602-12.201,18.001L1753.646,1631.101z"/>
	<path fill="#231F20" d="M227.567,1907.101c2.8-2.2,4.7-7.001,4.7-11.001c0-2.9-0.8-6.4-5.801-7.101v-1.5l4.9-6.801
		c6.601,0.801,9.301,5.201,9.301,9.801c0,6.4-4.101,13.602-12.201,18.001L227.567,1907.101z M245.469,1907.101
		c2.8-2.2,4.7-7.001,4.7-11.001c0-2.9-0.801-6.4-5.801-7.101v-1.5l4.9-6.801c6.601,0.801,9.301,5.201,9.301,9.801
		c0,6.4-4.101,13.602-12.201,18.001L245.469,1907.101z"/>
	<path fill="#231F20" d="M423.715,1848.697c2.8-2.199,4.7-7,4.7-11c0-2.9-0.8-6.4-5.801-7.101v-1.5l4.9-6.801
		c6.601,0.8,9.301,5.2,9.301,9.801c0,6.4-4.101,13.601-12.201,18.001L423.715,1848.697z"/>
	<path fill="#231F20" d="M607.963,1848.697c2.8-2.199,4.7-7,4.7-11c0-2.9-0.8-6.4-5.801-7.101v-1.5l4.9-6.801
		c6.601,0.8,9.301,5.2,9.301,9.801c0,6.4-4.101,13.601-12.201,18.001L607.963,1848.697z M625.863,1848.697
		c2.801-2.199,4.701-7,4.701-11c0-2.9-0.801-6.4-5.801-7.101v-1.5l4.9-6.801c6.601,0.8,9.301,5.2,9.301,9.801
		c0,6.4-4.101,13.601-12.201,18.001L625.863,1848.697z"/>
	<path fill="#231F20" d="M822.31,1850.097c-6.601-0.8-9.301-5.2-9.301-9.801c0-6.4,4.2-13.601,12.201-18.001l0.9,1.4
		c-2.801,2.2-4.701,7-4.701,11.001c0,2.899,0.801,6.4,5.801,7.1v1.501L822.31,1850.097z"/>
	<path fill="#231F20" d="M1005.558,1850.097c-6.601-0.8-9.301-5.2-9.301-9.801c0-6.4,4.2-13.601,12.201-18.001l0.9,1.4
		c-2.801,2.2-4.701,7-4.701,11.001c0,2.899,0.801,6.4,5.801,7.1v1.501L1005.558,1850.097z M1023.459,1850.097
		c-6.601-0.8-9.301-5.2-9.301-9.801c0-6.4,4.2-13.601,12.201-18.001l0.899,1.4c-2.8,2.2-4.7,7-4.7,11.001c0,2.899,0.8,6.4,5.801,7.1
		v1.501L1023.459,1850.097z"/>
	<path fill="#231F20" d="M1190.204,1907.101c2.5-1.5,5.7-5.301,5.7-9.001c0-2.9-1.8-5.4-6.801-6.101v-1.5l5.2-7.101
		c6.501,0.7,10.001,4.501,10.001,9.101c0,6.101-4.9,12.301-13.301,16.001L1190.204,1907.101z"/>
	<path fill="#231F20" d="M1378.351,1890.5c0-3.7,2.801-6.7,6.801-6.7c3.9,0,6.7,3,6.7,6.7s-2.8,6.701-6.7,6.701
		C1381.151,1897.201,1378.351,1894.2,1378.351,1890.5z"/>
	<path fill="#231F20" d="M1564.896,1860.798c0-3.7,2.9-6.701,6.801-6.701s6.801,3.001,6.801,6.701s-2.9,6.7-6.801,6.7
		S1564.896,1864.499,1564.896,1860.798z M1564.896,1890.5c0-3.7,2.9-6.7,6.801-6.7s6.801,3,6.801,6.7s-2.9,6.701-6.801,6.701
		S1564.896,1894.2,1564.896,1890.5z"/>
	<path fill="#231F20" d="M1752.644,1907.101c2.5-1.5,5.7-5.301,5.7-9.001c0-2.9-1.8-5.4-6.801-6.101v-1.5l4.9-6.8
		c6.601,0.8,10.301,4.2,10.301,8.8c0,6.101-4.9,12.301-13.301,16.001L1752.644,1907.101z M1752.543,1860.798
		c0-3.7,2.801-6.701,6.801-6.701c3.9,0,6.7,3.001,6.7,6.701s-2.8,6.7-6.7,6.7
		C1755.344,1867.499,1752.543,1864.499,1752.543,1860.798z"/>
	<path fill="#231F20" d="M226.467,2166.5c0-3.7,2.801-6.7,6.801-6.7c3.9,0,6.7,3,6.7,6.7s-2.8,6.701-6.7,6.701
		C229.268,2173.201,226.467,2170.2,226.467,2166.5z M254.669,2166.5c0-3.7,2.8-6.7,6.7-6.7s6.801,3,6.801,6.7
		s-2.9,6.701-6.801,6.701S254.669,2170.2,254.669,2166.5z M282.771,2166.5c0-3.7,2.9-6.7,6.801-6.7c3.899,0,6.7,3,6.7,6.7
		s-2.801,6.701-6.7,6.701C285.671,2173.201,282.771,2170.2,282.771,2166.5z"/>
	<path fill="#231F20" d="M465.064,2151.099c-3.6-3.601-5.3-7.101-5.3-10.501c0-9.7,17.601-9.501,17.601-16.901
		c0-5.2-8.2-6.7-18.701-6.7v-11.301c17.401,0,23.002,10.301,23.002,20.201c0,15.602-16.201,13.001-16.201,19.701
		c0,1.601,0.5,3.101,1,4.9L465.064,2151.099z M459.364,2166.5c0-3.7,2.8-6.7,6.7-6.7s6.801,3,6.801,6.7s-2.9,6.701-6.801,6.701
		S459.364,2170.2,459.364,2166.5z"/>
	<path fill="#231F20" d="M657.762,2149.599c3.601,3.6,5.301,7.1,5.301,10.5c0,9.701-17.602,9.501-17.602,16.901
		c0,5.2,8.201,6.7,18.701,6.7v11.301c-17.4,0-23.001-10.301-23.001-20.201c0-15.601,16.201-13.001,16.201-19.701
		c0-1.601-0.5-3.101-1-4.9L657.762,2149.599z M663.462,2134.198c0,3.7-2.8,6.7-6.7,6.7s-6.8-3-6.8-6.7s2.899-6.7,6.8-6.7
		S663.462,2130.498,663.462,2134.198z"/>
	<path fill="#231F20" d="M828.558,2166.5c0-3.7,2.801-6.7,6.701-6.7c3.899,0,6.8,3,6.8,6.7s-2.9,6.701-6.8,6.701
		C831.358,2173.201,828.558,2170.2,828.558,2166.5z M834.559,2150.599l-5.601-41.803v-1.5h12.801v1.5l-5.601,41.803H834.559z"/>
	<path fill="#231F20" d="M1007.755,2134.198c0-3.7,2.801-6.7,6.701-6.7c3.899,0,6.8,3,6.8,6.7s-2.9,6.7-6.8,6.7
		C1010.556,2140.898,1007.755,2137.898,1007.755,2134.198z M1008.155,2193.402v-1.501l5.601-41.802h1.6l5.601,41.802v1.501H1008.155
		z"/>
	<path fill="#231F20" d="M1210.354,2183.801c-13.9-8.201-25.302-24.802-25.302-44.104c0-19.301,11.401-35.901,25.302-44.103l0.9,1.4
		c-9.001,8.801-14.602,24.802-14.602,42.702c0,17.901,5.601,33.902,14.602,42.703L1210.354,2183.801z"/>
	<path fill="#231F20" d="M1366.948,2182.401c9.101-8.801,14.601-24.802,14.601-42.703c0-17.9-5.5-33.901-14.601-42.702l0.9-1.4
		c13.9,8.201,25.302,24.802,25.302,44.103c0,19.302-11.401,35.902-25.302,44.104L1366.948,2182.401z"/>
	<path fill="#231F20" d="M1559.846,2181.901v-84.405h20.101v3.7h-9.5v77.005h9.5v3.7H1559.846z"/>
	<path fill="#231F20" d="M1741.643,2181.901v-3.7h9.501v-77.005h-9.501v-3.7h20.102v84.405H1741.643z"/>
	<path fill="#231F20" d="M250.568,2460c-15.9-2.8-21.801-11-20.501-22.701l1.3-12.2c0.5-4.2-0.399-7.501-4.9-7.501h-3v-3.7h3
		c4.501,0,5.4-3.3,4.9-7.5l-1.3-12.201c-1.3-11.7,4.601-19.901,20.501-22.802l0.4,1.601c-9.301,3.3-10.9,10.7-10.001,20.301
		l0.8,8.401c0.801,8-2.199,11.9-8.7,13.7v0.7c6.501,1.8,9.501,5.7,8.7,13.701l-0.8,8.4c-0.899,9.601,0.7,17.001,10.001,20.201
		L250.568,2460z"/>
	<path fill="#231F20" d="M433.379,2458.4c9.301-3.2,10.9-10.601,10.001-20.201l-0.8-8.4c-0.801-8.001,2.199-11.901,8.7-13.701v-0.7
		c-6.501-1.8-9.501-5.7-8.7-13.7l0.8-8.401c0.899-9.601-0.7-17.001-10.001-20.301l0.4-1.601c15.9,2.9,21.801,11.102,20.501,22.802
		l-1.3,12.201c-0.5,4.2,0.399,7.5,4.9,7.5h3v3.7h-3c-4.501,0-5.4,3.301-4.9,7.501l1.3,12.2c1.3,11.701-4.601,19.901-20.501,22.701
		L433.379,2458.4z"/>
	<path fill="#231F20" d="M649.291,2457.9v-84.405h20.101v3.7h-7v77.005h7v3.7H649.291z M657.791,2377.195h-3.9v77.005h3.9V2377.195z
		"/>
	<path fill="#231F20" d="M855.801,2457.9v-3.7h7.001v-77.005h-7.001v-3.7h20.102v84.405H855.801z M871.402,2377.195h-4.001v77.005
		h4.001V2377.195z"/>
	<path fill="#231F20" d="M1067.312,2456.1l30.202-82.905l4.3,1.6l-30.201,82.905L1067.312,2456.1z"/>
	<path fill="#231F20" d="M1318.425,2457.7l-30.202-82.905l4.301-1.6l30.201,82.905L1318.425,2457.7z"/>
	<path fill="#231F20" d="M1539.636,2408.296l-10.9-9.9l3.601,13.801v1.601h-9.901v-1.601l3.601-13.801l-10.9,9.9l-1.4,0.801
		l-4.601-8.801l1.4-0.7l14.401-3.5l-14.401-3.4l-1.4-0.8l4.601-8.701l1.4,0.801l10.9,10l-3.601-14.001v-1.5h9.901v1.5l-3.601,14.001
		l10.9-10l1.3-0.801l4.701,8.701l-1.4,0.8l-14.301,3.4l14.301,3.5l1.4,0.7l-4.701,8.801L1539.636,2408.296z"/>
	<path fill="#231F20" d="M1749.347,2425.698c-7.201,0-12.301-5.5-12.301-12.301s5.1-12.301,12.301-12.301
		c7.3,0,12.4,5.5,12.4,12.301S1756.646,2425.698,1749.347,2425.698z"/>
	<path fill="#231F20" d="M231.567,2713.199h1.601c4.7,9.801,11.2,14.4,17.301,14.4c5.7,0,10.4-2,10.4-7.801
		c0-13.602-31.802-8.6-31.802-28.201c0-6.4,4.2-11.602,8.9-14.201c-4.101-2.201-7.101-5.401-7.101-11
		c0-10.501,11.201-14.901,19.802-14.901c4.3,0,9.9,0.601,16.7,2.9v13.301h-1.5c-4.9-9.101-10.601-12.4-16.4-12.4
		c-5.101,0-10.101,2-10.101,7.5c0,13.601,31.201,7.301,31.201,26.902c0,6.6-4.6,12.201-9.4,14.801c4.7,2.4,8.301,5.801,8.301,11.801
		c0,10.701-11.301,15.102-20.201,15.102c-5.301,0-12.301-1-17.701-3.701V2713.199z M240.468,2678.596c-2,2.102-3.3,5.102-3.3,8.502
		c0,10.5,12.101,12.301,21.501,16.201c2.2-2.201,3.801-5.502,3.801-9.102C262.47,2683.396,249.769,2682.496,240.468,2678.596z"/>
	<path fill="#231F20" d="M455.622,2730.4l-5.001-34.303l4.801-17.4l-19.102,4.699h-1.5v-11.8h1.5l19.201,4.701l-5-20.302v-1.5
		h11.801v1.5l-5,20.302l19.201-4.701h1.5v11.8h-1.5l-19.201-4.699l4.8,17.4l-4.9,34.303H455.622z"/>
	<path fill="#231F20" d="M655.376,2728.4v-1.502l4.9-18.301l-19.102,4.701h-1.5v-11.801h1.5l19.102,4.699l-4.8-14.801l4.8-14.701
		l-19.102,4.701h-1.5v-11.8h1.5l19.102,4.7l-4.9-18.302v-1.5h11.801v1.5l-5,18.302l19.201-4.7h1.5v11.8h-1.5l-19.201-4.701
		l4.8,14.701l-4.8,14.801l19.201-4.699h1.5v11.801h-1.5l-19.201-4.701l5,18.301v1.502H655.376z"/>
	<path fill="#231F20" d="M867.332,2733.6v-40.002h-4c-9.4,0-19.802-3.6-19.802-17.402c0-12.8,11.101-16.9,19.102-16.9h9.301v74.304
		H867.332z M877.732,2733.6v-74.304h4.601v74.304H877.732z"/>
	<path fill="#231F20" d="M1048.984,2691.498c0-19.302,15.001-33.803,33.702-33.803s33.702,14.501,33.702,33.803
		c0,19.301-15.001,33.701-33.702,33.701S1048.984,2710.799,1048.984,2691.498z M1111.988,2691.498
		c0-17.102-12.7-30.103-29.302-30.103c-16.601,0-29.302,13.001-29.302,30.103c0,17.1,12.701,30,29.302,30
		C1099.288,2721.498,1111.988,2708.598,1111.988,2691.498z M1095.588,2705.799c-3.801,2-8.601,2.6-12.102,2.6
		c-10.101,0-18.701-6.301-18.701-17.502c0-11.1,9.301-18.401,19.901-18.401c3.2,0,7.101,0.5,10.701,1.7v8.001h-1.101
		c-2.5-5.4-6.5-7.301-10.2-7.301c-8.001,0-11.801,6.6-11.801,14.702c0,6.801,2.3,16.4,11.801,16.4c3.7,0,8.101-2.699,10.501-8.4h1
		V2705.799z"/>
	<path fill="#231F20" d="M1278.038,2691.498c0-19.302,15.001-33.803,33.702-33.803s33.702,14.501,33.702,33.803
		c0,19.301-15.001,33.701-33.702,33.701S1278.038,2710.799,1278.038,2691.498z M1341.342,2691.498
		c0-17.102-12.9-30.502-29.602-30.502s-29.602,13.4-29.602,30.502c0,17.1,12.9,30.4,29.602,30.4
		S1341.342,2708.598,1341.342,2691.498z M1298.84,2707.598v-1.1c4-0.9,4.6-1.5,4.6-3.9v-24.301c0-2.4-0.6-3-4.6-3.901v-1.1h13.9
		c7.101,0,13.701,3.2,13.701,9.799c0,7.301-6.301,10.902-14.201,10.902h-2.4v8.6c0,2.4,0.7,3,5.601,3.9v1.1H1298.84z
		 M1312.94,2691.598c3.9,0,6.501-2.9,6.501-7.9c0-5.4-2.9-8.002-7.301-8.002h-2.301v15.902H1312.94z"/>
	<path fill="#231F20" d="M1507.092,2671.696c0-10.301,8.001-18.001,17.901-18.001s17.901,7.7,17.901,18.001
		c0,10.3-8.001,18.001-17.901,18.001S1507.092,2681.996,1507.092,2671.696z M1539.395,2671.696c0-8.7-6.101-14.9-14.401-14.9
		s-14.4,6.2-14.4,14.9c0,8.701,6.1,14.902,14.4,14.902S1539.395,2680.396,1539.395,2671.696z M1516.793,2680.297v-0.801
		c2-0.4,2.3-0.799,2.3-2v-12.701c0-1.2-0.3-1.6-2.3-2v-0.8h7.7c4.2,0,7.601,1.6,7.601,5c0,2.5-1.601,4.101-4,4.9l6.1,7.6v0.801h-5
		l-4.2-7.801h-0.8h-1v5c0,1.201,0.2,1.6,2.399,2v0.801H1516.793z M1524.193,2671.096c2.3,0,3.7-1.4,3.7-3.9c0-2.601-1.5-3.7-4-3.7
		h-0.7v7.601H1524.193z"/>
	<path fill="#231F20" d="M1709.346,2684.396v-0.9c3.7-0.699,4.1-1.199,4.1-2.9v-19.201h-2c-2.1,0-4,0.4-6,5.7h-0.9v-7.8h23.202v7.8
		h-0.801c-2.1-5.3-4-5.7-6.1-5.7h-1.9v19.201c0,1.701,0.399,2.201,4,2.9v0.9H1709.346z M1754.748,2684.396v-0.9
		c2.801-0.699,3.4-1.199,3.301-2.9l-0.601-7.299l-0.3-7.801h-0.3l-8.501,19.301h-1.1l-9.101-19.401h-0.3l-0.301,7.9l-0.3,6
		c-0.1,2.799,1.3,3.5,4.301,4.199v0.9h-10.701v-0.9c2.601-0.699,3.9-1.4,4-4.199l0.7-14.901c0.101-2.801-1.2-3.501-3.8-4.201v-0.899
		h9.7l8.001,16.8h0.2l7.3-16.8h8.801v0.899c-2.9,0.7-3.4,1.2-3.3,2.9l1,17.5c0.1,1.701,0.5,2.201,3.3,2.9v0.9H1754.748z"/>
	<path fill="#231F20" d="M227.268,2953.297h1c1.8,4,4.4,5.699,6.6,5.699c2.301,0,4.101-1.299,4.101-3.699
		c0-5.4-12.501-5.301-12.501-13.201c0-5,5.001-7.301,8.701-7.301c1.7,0,4.1,0.301,6.8,1.1v5.701h-0.899c-2-3.6-4.301-4.9-6.501-4.9
		c-2,0-3.8,0.9-3.8,3.1c0,4.801,12.501,5,12.501,13.201c0,5.201-5.301,7.9-9.001,7.9c-2.101,0-4.801-0.299-7-1.4V2953.297z
		 M269.069,2960.396v-0.9c2.9-0.699,3.4-1.199,3.301-2.9l-0.5-7.299l-0.3-7.801h-0.4l-8.501,19.301h-1l-9.2-19.4h-0.3l-0.3,7.9
		l-0.2,6c-0.101,2.799,1.2,3.5,4.2,4.199v0.9h-10.601v-0.9c2.6-0.699,3.8-1.4,3.9-4.199l0.699-14.9c0.101-2.801-1.2-3.502-3.7-4.201
		v-0.9h9.701l7.9,16.801h0.2l7.3-16.801h8.801v0.9c-2.8,0.699-3.3,1.199-3.2,2.9l1,17.5c0.101,1.701,0.5,2.201,3.301,2.9v0.9
		H269.069z"/>
	<path fill="#231F20" d="M510.168,3014.4c-8.501,5.699-18.802,8.6-29.002,8.6c-21.602,0-36.303-14.301-36.303-35.402
		c0-34.201,30.103-53.902,52.903-53.902c18.901,0,33.502,10.5,33.502,31.201c0,18.902-16.001,36.303-31.602,36.303
		c-7.301,0-13.201-3.701-9.801-14.301l0.7-2.4h-0.6c-6.001,10.5-10.001,16.701-16.401,16.701c-3.7,0-6.301-3.4-6.301-9
		c0-13.602,13.801-34.104,27.002-34.104c1.5,0,3.9,0.5,5.9,3.002l2.9-3.002h3.1l-8.601,30.104c-2.2,7.799,1,9.801,4.2,9.801
		c11.401,0,19.401-18.803,19.401-32.803c0-17.002-9.301-27.701-25.201-27.701c-26.802,0-41.003,24.4-41.003,48.803
		c0,20,12.301,31.701,28.802,31.701c9.301,0,17.802-1.699,25.602-5.301L510.168,3014.4z M495.967,2967.998
		c-0.1-4.102-1.8-6.9-4.101-6.9c-7.2,0-15.801,18.801-15.801,29.102c0,2.4,0.5,4.299,2.2,4.299
		C481.466,2994.498,489.866,2983.197,495.967,2967.998z"/>
	<path fill="#231F20" d="M761.564,2954.396c-6.9,1.6-7.7,2.9-8.4,6.701c-1.7,8.4-5.101,16.6-9.9,23.301
		c7.3,5.6,14.301,10.4,19.701,13.701v1.5h-16.201c-2.601-1.5-6.301-4.102-10.501-7.301c-6.2,5.5-13.801,8.9-22.602,8.9
		c-13.601,0-21.001-8.4-21.001-17.502c0-10.199,7.301-15.301,13.801-19.701c-4.601-5.9-7.601-11.4-7.601-15.6
		c0-9.602,8.501-14.701,16.602-14.701c7.9,0,14.801,3,14.801,11c0,6.301-6.4,12.102-13.501,16.002
		c6.101,6.801,14.601,14.301,23.201,21.102c3.101-5.602,4.801-12.502,4.801-19.902c0-4.5-1.2-5.801-8.101-7.5v-1.5h24.901V2954.396z
		 M708.261,2966.098c-3.2,3.6-5.5,7.9-5.5,13.201c0,9.799,7.301,15.9,16.401,15.9c5.4,0,10.2-1.9,14.2-5.201
		C724.962,2983.299,715.262,2974.498,708.261,2966.098z M715.161,2958.896c4.101-3.9,6.801-7.701,6.801-12.9
		c0-5.6-2.7-8.801-7.301-8.801c-3.899,0-6.9,2.9-6.9,8.1C707.761,2948.797,710.661,2953.596,715.161,2958.896z"/>
	<path fill="#231F20" d="M923.356,2967.396v-3.699h90.006v3.699H923.356z"/>
	<path fill="#231F20" d="M1177.054,2967.396v-3.699h40.003v3.699H1177.054z"/>
	<path fill="#231F20" d="M1380.752,2967.896v-4.699h22.002v4.699H1380.752z"/>
	<path fill="#231F20" d="M1583.449,2983.598l-17.001-17.6v-1.602l17.001-17.5l1.301,0.699l-7.501,17.602l7.501,17.602
		L1583.449,2983.598z"/>
	<path fill="#231F20" d="M1748.944,2983.098l4.801-11.801l-3-17.6l-1.4-6.502l11.2,11.102l6.201,7.1l-10.701,12.002
		L1748.944,2983.098z"/>
	<path fill="#231F20" d="M243.468,3259.598l-17.001-17.6v-1.602l17.001-17.5l1.301,0.699l-7.501,17.602l7.501,17.602
		L243.468,3259.598z M259.869,3259.598l-17.001-17.6v-1.602l17.001-17.5l1.4,0.699l-7.601,17.602l7.601,17.602L259.869,3259.598z"/>
	<path fill="#231F20" d="M440.235,3259.098l4.801-11.801l-3-17.6l-1.4-6.502l11.2,11.102l6.201,7.1l-10.701,12.002L440.235,3259.098
		z M456.736,3259.098l4.7-11.801l-3-17.6l-1.399-6.502l11.301,11.102l6.2,7.1l-10.801,12.002L456.736,3259.098z"/>
	<path fill="#231F20" d="M668.505,3231.797c3.601,3.6,5.301,7.1,5.301,10.5c0,9.701-17.602,9.5-17.602,16.9
		c0,5.201,8.201,6.701,18.701,6.701v11.301c-17.4,0-23.001-10.301-23.001-20.201c0-15.602,16.201-13,16.201-19.701
		c0-1.6-0.5-3.1-1-4.9L668.505,3231.797z M674.205,3216.396c0,3.699-2.8,6.699-6.7,6.699s-6.8-3-6.8-6.699
		c0-3.701,2.899-6.701,6.8-6.701S674.205,3212.695,674.205,3216.396z"/>
	<path fill="#231F20" d="M856.072,3216.396c0-3.701,2.801-6.701,6.701-6.701s6.8,3,6.8,6.701c0,3.699-2.899,6.699-6.8,6.699
		S856.072,3220.096,856.072,3216.396z M856.473,3275.6v-1.5l5.601-41.803h1.6l5.601,41.803v1.5H856.473z"/>
	<path fill="#231F20" d="M1115.345,3282.4c-8.501,5.699-18.802,8.6-29.002,8.6c-21.602,0-36.303-14.301-36.303-35.402
		c0-34.201,30.103-53.902,52.903-53.902c18.901,0,33.502,10.5,33.502,31.201c0,18.9-16.001,36.303-31.602,36.303
		c-7.301,0-13.201-3.701-9.801-14.301l0.7-2.4h-0.6c-6.001,10.5-10.001,16.701-16.401,16.701c-3.7,0-6.301-3.4-6.301-9.002
		c0-13.6,13.801-34.102,27.002-34.102c1.5,0,3.9,0.5,5.9,3l2.9-3h3.1l-8.601,30.102c-2.2,7.801,1,9.801,4.2,9.801
		c11.401,0,19.401-18.801,19.401-32.801c0-17.002-9.3-27.703-25.201-27.703c-26.802,0-41.003,24.402-41.003,48.803
		c0,20.002,12.301,31.703,28.802,31.703c9.301,0,17.802-1.701,25.602-5.301L1115.345,3282.4z M1101.144,3235.996
		c-0.101-4.1-1.8-6.9-4.101-6.9c-7.2,0-15.801,18.801-15.801,29.102c0,2.4,0.5,4.301,2.2,4.301
		C1086.643,3262.498,1095.043,3251.197,1101.144,3235.996z"/>
	<path fill="#231F20" d="M1371.211,3240.896c-5.2,1.102-6.101,2.102-6.7,5.102c-1.3,6.4-3.9,12.699-7.7,17.9
		c5.7,4.1,11.2,7.801,15.5,10.201v1.5h-15.101c-1.8-1-4.4-2.602-7.2-4.701c-5,3.9-11.101,6.301-18.001,6.301
		c-11.201,0-17.401-6.6-17.401-13.701c0-7.5,5.301-11.301,11.301-14.5c-4-4.801-6.601-9.4-6.601-13.002
		c0-7.801,7.301-11.801,14.201-11.801s12.7,2.301,12.7,8.801c0,4.9-4.899,9.602-11,12.502c4.8,5.1,11.4,10.699,18.001,15.701
		c2-4.002,3.101-8.801,3.101-13.902c0-4.1-0.9-5.1-6.201-6.4v-1.5h21.102V3240.896z M1327.309,3250.697
		c-2,2.5-3.501,5.701-3.501,9.201c0,7.9,6.201,12.4,13.201,12.4c3.9,0,7.301-1.199,10.201-3.4
		C1340.609,3263.898,1333.009,3257.197,1327.309,3250.697z M1333.709,3243.797c3-3.199,4.7-6.801,4.7-10
		c0-4.301-2.2-6.602-5.7-6.602c-3.101,0-5.101,2.201-5.101,5.701C1327.608,3235.797,1330.009,3239.598,1333.709,3243.797z"/>
	<path fill="#231F20" d="M1555.977,3259.398c-3.4-2.801-4.9-5.5-4.9-8.602c0-8.1,15.301-7.6,15.301-12.4c0-3.5-7.301-4.5-16.201-4.5
		v-9.701c15.201,0,19.701,7.9,19.701,15.902c0,12.699-13.4,10.301-13.4,15.1c0,1.301,0.399,2.201,0.8,3.602L1555.977,3259.398z
		 M1551.076,3271.1c0-3.301,2.6-6.102,6.101-6.102c3.6,0,6.2,2.801,6.2,6.102c0,3.4-2.601,6.1-6.2,6.1
		C1553.676,3277.199,1551.076,3274.5,1551.076,3271.1z"/>
	<path fill="#231F20" d="M1760.246,3241.998c3.4,2.799,4.9,5.5,4.9,8.6c0,8.1-15.302,7.6-15.302,12.4c0,3.5,7.301,4.5,16.201,4.5
		v9.701c-15.2,0-19.701-7.9-19.701-15.9c0-12.701,13.401-10.301,13.401-15.102c0-1.301-0.4-2.199-0.801-3.6L1760.246,3241.998z
		 M1765.146,3230.297c0,3.299-2.601,6.1-6.101,6.1c-3.601,0-6.2-2.801-6.2-6.1c0-3.4,2.6-6.102,6.2-6.102
		C1762.546,3224.195,1765.146,3226.896,1765.146,3230.297z"/>
	<path fill="#231F20" d="M234.668,3553.199c-3.501,0-6.101-2.699-6.101-6.1c0-3.301,2.6-6.102,6.101-6.102
		c3.6,0,6.2,2.801,6.2,6.102C240.868,3550.5,238.268,3553.199,234.668,3553.199z M234.067,3534.299l-5.4-31.104v-1.398h12.201v1.398
		l-5.4,31.104H234.067z"/>
	<path fill="#231F20" d="M421.841,3512.396c-3.501,0-6.101-2.801-6.101-6.1c0-3.4,2.6-6.102,6.101-6.102c3.6,0,6.2,2.701,6.2,6.102
		C428.041,3509.596,425.44,3512.396,421.841,3512.396z M415.84,3551.6v-1.4l5.4-31.102h1.4l5.4,31.102v1.4H415.84z"/>
	<path fill="#231F20" d="M611.714,3521.197c-6.501,0-10.901-4.701-10.901-10.5c0-5.801,4.4-10.502,10.901-10.502
		c6.5,0,10.9,4.701,10.9,10.502C622.614,3516.496,618.214,3521.197,611.714,3521.197z M616.613,3512.996
		c1.001-3.1-0.1-5.6-2.8-7.199c-2.7-1.602-5.9-0.4-7,2.699c-1,3,0.1,5.5,2.8,7.102
		C612.214,3517.197,615.514,3515.996,616.613,3512.996z"/>
	<path fill="#231F20" d="M798.484,3508.797l-5.2-24.803v-1.5h11.901v1.5l-5.2,24.803H798.484z"/>
	<path fill="#231F20" d="M980.556,3518.396l-4.7-18.9v-1.5h11.001v1.5l-4.8,18.9H980.556z M995.157,3518.396l-4.7-18.9v-1.5h11v1.5
		l-4.7,18.9H995.157z"/>
	<path fill="#231F20" d="M1173.228,3516.297c1.8-1.4,3.8-4.801,3.8-8.4c0-2.199-0.8-4.9-4.9-5.5v-1.5l4.601-6.102
		c5.801,0.701,8.2,4.502,8.2,8.301c0,5.701-4,11.201-10.801,14.502L1173.228,3516.297z"/>
	<path fill="#231F20" d="M1356.7,3516.297c1.8-1.4,3.8-4.801,3.8-8.4c0-2.199-0.8-4.9-4.9-5.5v-1.5l4.601-6.102
		c5.801,0.701,8.2,4.502,8.2,8.301c0,5.701-4,11.201-10.801,14.502L1356.7,3516.297z M1372.401,3516.297
		c1.899-1.4,3.8-4.801,3.8-8.4c0-2.199-0.7-4.9-4.9-5.5v-1.5l4.7-6.102c5.7,0.701,8.101,4.502,8.101,8.301
		c0,5.701-3.9,11.201-10.7,14.502L1372.401,3516.297z"/>
	<path fill="#231F20" d="M1566.473,3495.996c-1.9,1.5-3.801,4.9-3.801,8.4c0,2.301,0.7,4.9,4.9,5.6v1.5l-4.7,6.102
		c-5.7-0.701-8.101-4.5-8.101-8.301c0-5.701,3.9-11.201,10.701-14.502L1566.473,3495.996z"/>
	<path fill="#231F20" d="M1749.945,3495.996c-1.9,1.5-3.801,4.9-3.801,8.4c0,2.301,0.7,4.9,4.9,5.6v1.5l-4.7,6.102
		c-5.7-0.701-8.101-4.5-8.101-8.301c0-5.701,3.9-11.201,10.701-14.502L1749.945,3495.996z M1765.646,3495.996
		c-1.801,1.5-3.801,4.9-3.801,8.4c0,2.301,0.8,4.9,4.9,5.6v1.5l-4.601,6.102c-5.8-0.701-8.2-4.5-8.2-8.301
		c0-5.701,4-11.201,10.801-14.502L1765.646,3495.996z"/>
	<path fill="#231F20" d="M242.468,3819.299v-15.801h-16.001v-3h16.001v-15.701h3.2v15.701h16.001v3h-16.001v15.801H242.468z"/>
	<path fill="#231F20" d="M426.177,3803.498v-3h35.202v3H426.177z"/>
	<path fill="#231F20" d="M625.886,3795.598v-3.102h35.202v3.102H625.886z M625.886,3811.498v-3.1h35.202v3.1H625.886z"/>
	<path fill="#231F20" d="M846.797,3837.1c-11.7-6.1-21.201-18.9-21.201-34.201s9.501-28.102,21.201-34.203l0.7,1.201
		c-6.9,6.799-11.101,18.801-11.101,33.002c0,14.199,4.2,26.201,11.101,33.002L846.797,3837.1z"/>
	<path fill="#231F20" d="M1006.005,3835.9c6.9-6.801,11.001-18.803,11.001-33.002c0-14.201-4.101-26.203-11.001-33.002l0.7-1.201
		c11.701,6.102,21.201,18.902,21.201,34.203s-9.5,28.102-21.201,34.201L1006.005,3835.9z"/>
	<path fill="#231F20" d="M1197.415,3835.6v-65.404h17.2v3.1h-7.2v59.205h7.2v3.1H1197.415z"/>
	<path fill="#231F20" d="M1379.123,3835.6v-3.1h7.201v-59.205h-7.201v-3.1h17.201v65.404H1379.123z"/>
	<path fill="#231F20" d="M1585.534,3837.199c-13.2-1.9-18.4-7.9-17.4-17l1-9.801c0.399-3.301-0.3-6-3.9-6h-2.4v-3h2.4
		c3.601,0,4.3-2.701,3.9-6.002l-1-9.801c-1-9.1,4.2-15.1,17.4-17.1l0.5,1.4c-7.2,2.898-8,7.9-7.4,15l0.601,7.1
		c0.6,6.201-2.101,9.201-7.301,10.602v0.6c5.2,1.4,7.9,4.4,7.301,10.602l-0.601,7.1c-0.6,7.102,0.2,12.102,7.4,15.002
		L1585.534,3837.199z"/>
	<path fill="#231F20" d="M1746.544,3835.9c7.2-2.9,7.9-7.9,7.301-15.002l-0.601-7.1c-0.5-6.201,2.101-9.201,7.4-10.602v-0.6
		c-5.3-1.4-7.9-4.4-7.4-10.602l0.601-7.1c0.6-7.1-0.101-12.102-7.301-15l0.4-1.4c13.2,2,18.501,8,17.501,17.1l-1,9.801
		c-0.4,3.301,0.3,6.002,3.9,6.002h2.399v3h-2.399c-3.601,0-4.301,2.699-3.9,6l1,9.801c1,9.1-4.301,15.1-17.501,17L1746.544,3835.9z"
		/>
	<path fill="#231F20" d="M226.467,4110.1l24.102-64.305l3.9,1.5l-24.001,64.205L226.467,4110.1z"/>
	<path fill="#231F20" d="M438.468,4111.5l-24.002-64.205l3.9-1.5l24.102,64.305L438.468,4111.5z"/>
	<path fill="#231F20" d="M604.465,4078.697v-3h72.005v3H604.465z"/>
	<path fill="#231F20" d="M840.463,4078.697v-3h32.002v3H840.463z"/>
	<path fill="#231F20" d="M1036.462,4079.197v-3.9h17.602v3.9H1036.462z"/>
</g>
</svg>
