<?xml version="1.0" encoding="utf-8"?>
<!-- Generator: Adobe Illustrator 16.0.3, SVG Export Plug-In . SVG Version: 6.00 Build 0)  -->
<!DOCTYPE svg PUBLIC "-//W3C//DTD SVG 1.1//EN" "http://www.w3.org/Graphics/SVG/1.1/DTD/svg11.dtd">
<svg version="1.1" id="Layer_1" xmlns="http://www.w3.org/2000/svg" xmlns:xlink="http://www.w3.org/1999/xlink" x="0px" y="0px"
	 width="2007.464px" height="968.216px" viewBox="0 0 2007.464 968.216" enable-background="new 0 0 2007.464 968.216"
	 xml:space="preserve">
<rect fill="#FFFFFF" width="2007.464" height="968.216"/>
<g>
	<path fill="#231F20" d="M239.168,219.199l12.701,21.701l-1.501,0.9l-23.901-23.802v-1.6l23.901-23.802l1.501,0.9l-12.701,21.701
		h38.902v4H239.168z"/>
	<path fill="#231F20" d="M471.852,240.9l12.601-21.701h-38.803v-4h38.803l-12.601-21.701l1.5-0.9l23.901,23.802v1.6L473.352,241.8
		L471.852,240.9z"/>
	<path fill="#231F20" d="M713.136,216.798l-21.702-12.601V243h-4v-38.803l-21.701,12.601l-0.9-1.5l23.802-23.901h1.601
		l23.801,23.901L713.136,216.798z"/>
	<path fill="#231F20" d="M908.216,230.299l21.702-12.7l0.899,1.5L907.016,243h-1.6l-23.802-23.901l0.9-1.5l21.701,12.7v-38.902h4
		V230.299z"/>
	<path fill="#231F20" d="M1136.6,200.098l-24.202,6.5l27.401,27.502l-2.8,2.7l-27.401-27.402l-6.501,24.302l-1.7-0.4v-33.802
		l1.101-1.1h33.802L1136.6,200.098z"/>
	<path fill="#231F20" d="M1310.881,198.398h33.802l1.1,1.1v33.802l-1.7,0.4l-6.5-24.302l-27.401,27.402l-2.801-2.7l27.402-27.502
		l-24.202-6.5L1310.881,198.398z"/>
	<path fill="#231F20" d="M1519.562,235.2l24.202-6.5l-27.402-27.502l2.801-2.8l27.401,27.501l6.5-24.301l1.7,0.399V235.7l-1.1,1.101
		h-33.802L1519.562,235.2z"/>
	<path fill="#231F20" d="M1739.346,228.7l24.201,6.5l-0.3,1.601h-33.802l-1.1-1.101v-33.702l1.699-0.399l6.501,24.301l27.401-27.501
		l2.801,2.8L1739.346,228.7z"/>
	<path fill="#231F20" d="M239.168,495.199l12.701,21.701l-1.501,0.9l-23.901-23.802v-1.6l23.901-23.802l1.501,0.9l-12.701,21.701
		h84.905v4H239.168z"/>
	<path fill="#231F20" d="M572.118,516.9l12.601-21.701h-84.806v-4h84.806l-12.601-21.701l1.5-0.9l23.901,23.802v1.6L573.618,517.8
		L572.118,516.9z"/>
	<path fill="#231F20" d="M787.461,484.198l17.001,27.402l-1.5,0.899l-29.603-29.501v-1.601l29.603-29.502l1.5,0.9l-16.802,27.401
		h46.203v4H787.461z"/>
	<path fill="#231F20" d="M1039.107,511.6l16.9-27.402h-46.303v-4h46.203l-16.801-27.401l1.5-0.9l29.602,29.502v1.601l-29.602,29.501
		L1039.107,511.6z"/>
	<path fill="#231F20" d="M1305.756,483.098l-27.502-16.901V512.5h-3.9v-46.202l-27.401,16.801l-0.9-1.5l29.502-29.602h1.5
		l29.603,29.602L1305.756,483.098z"/>
	<path fill="#231F20" d="M1514.701,498.5l27.502-17.002l0.9,1.4l-29.603,29.602h-1.5l-29.502-29.602l0.9-1.4l27.401,16.901v-46.402
		h3.9V498.5z"/>
	<path fill="#231F20" d="M1765.35,461.997l-31.402,7.601l32.803,32.702l-2.9,2.8l-32.702-32.701l-7.501,31.201l-1.699-0.399v-41.803
		l1.1-1h41.902L1765.35,461.997z"/>
	<path fill="#231F20" d="M228.268,736.397h41.902l1.1,1V779.2l-1.7,0.399l-7.6-31.302l-32.702,32.802l-2.801-2.8l32.702-32.702
		l-31.302-7.601L228.268,736.397z"/>
	<path fill="#231F20" d="M435.666,779.399l31.302-7.4l-32.702-32.802l2.801-2.8l32.702,32.802l7.6-31.402l1.7,0.4V780l-1.1,1.1
		h-41.902L435.666,779.399z"/>
	<path fill="#231F20" d="M657.065,771.999l31.402,7.4l-0.4,1.7h-41.902l-1.101-1.1v-41.803l1.7-0.4l7.501,31.303l32.702-32.702
		l2.899,2.8L657.065,771.999z"/>
	<path fill="#231F20" d="M863.965,760.198l17.001,27.402l-1.5,0.899l-29.603-29.501v-1.601l29.603-29.502l1.5,0.9l-16.802,27.401
		h101.207v4H863.965z"/>
	<path fill="#231F20" d="M1209.768,787.6l16.901-27.402h-101.307v-4h101.206l-16.801-27.401l1.5-0.9l29.603,29.502v1.601
		l-29.603,29.501L1209.768,787.6z"/>
</g>
</svg>
