<?xml version="1.0" encoding="UTF-8" standalone="no"?>
<svg width="198px" height="697px" viewBox="0 0 198 697" version="1.1" xmlns="http://www.w3.org/2000/svg" xmlns:xlink="http://www.w3.org/1999/xlink" xmlns:sketch="http://www.bohemiancoding.com/sketch/ns">
    <!-- Generator: Sketch 3.3.3 (12072) - http://www.bohemiancoding.com/sketch -->
    <title>mobile canvas</title>
    <desc>Created with Sketch.</desc>
    <defs></defs>
    <g id="Buttons" stroke="none" stroke-width="1" fill="none" fill-rule="evenodd" sketch:type="MSPage">
        <g id="mobile-canvas" sketch:type="MSArtboardGroup">
            <g id="vegan-sans" sketch:type="MSLayerGroup" transform="translate(0.000000, 465.939130)">
                <path d="M198.44507,99.2737565 C198.44507,153.888183 154.15333,198.155817 99.5432087,198.155817 C44.9468609,198.155817 0.655982609,153.888183 0.655982609,99.2737565 C0.655982609,44.6696609 44.9468609,0.390834783 99.5432087,0.390834783 C154.15333,0.391695652 198.44507,44.6705217 198.44507,99.2737565 L198.44507,99.2737565 Z" id="Shape" fill="#FFFF00" sketch:type="MSShapeGroup"></path>
                <path d="M116.696896,148.821104 L116.696896,137.752904 C108.349904,145.917391 98.1882,151.544035 85.667713,151.544035 C67.703087,151.544035 56.997313,141.563113 56.997313,126.5022 C56.997313,111.078 68.4296609,96.017087 102.361696,96.017087 C106.898478,96.017087 111.616043,96.379513 116.696896,96.7428 L116.696896,86.0361652 C116.696896,68.9797565 108.349904,65.7127565 100.002913,65.7127565 C87.3007826,65.7127565 81.1317913,71.3376783 80.5868609,86.0361652 L60.2634522,86.0361652 C60.6258783,63.5356174 75.8684348,51.922487 100.002913,51.922487 C117.422609,51.922487 136.657878,58.4547652 136.657878,83.6773826 L136.657878,148.821104 L116.696896,148.821104 L116.696896,148.821104 Z M116.696896,108.537574 C111.97933,107.993504 107.442548,107.811861 103.632339,107.811861 C84.0346435,107.811861 77.1399391,114.706565 77.1399391,123.598487 C77.1399391,133.034478 84.0355043,136.844687 94.1963478,136.844687 C102.180052,136.844687 111.253617,131.583052 116.696896,125.95813 L116.696896,108.537574 L116.696896,108.537574 Z" id="Shape" fill="#000000" sketch:type="MSShapeGroup"></path>
                <path d="M67.11,218.01 L70.568,208.21 L69.196,208.21 L67.04,214.734 L66.466,216.568 L65.864,214.734 L63.54,208.21 L62,208.21 L65.64,218.01 L67.11,218.01 Z M75.3,215.994 C75.118,216.876 74.642,217.282 73.732,217.282 C72.654,217.282 71.954,216.47 71.926,214.524 L76.84,214.524 C76.994,212.032 75.846,210.562 73.732,210.562 C71.786,210.562 70.54,212.116 70.54,214.384 C70.54,216.666 71.548,218.22 73.732,218.22 C75.468,218.22 76.56,217.254 76.714,215.994 L75.3,215.994 Z M73.732,211.486 C74.74,211.486 75.398,212.2 75.398,213.656 L71.954,213.656 C72.122,212.144 72.85,211.486 73.732,211.486 L73.732,211.486 Z M83.308,218.094 C83.308,219.774 82.426,220.194 81.46,220.194 C80.312,220.194 79.822,219.746 79.766,218.766 L78.366,218.766 C78.394,220.236 79.43,221.132 81.46,221.132 C83.126,221.132 84.638,220.124 84.638,217.926 L84.638,210.772 L83.308,210.772 L83.308,211.416 C82.874,210.898 82.188,210.562 81.404,210.562 C79.836,210.562 78.212,211.738 78.212,214.37 C78.212,217.002 79.556,218.192 81.012,218.192 C81.936,218.192 82.678,217.842 83.308,217.198 L83.308,218.094 Z M83.308,216.344 C82.86,216.806 82.174,217.128 81.446,217.128 C80.494,217.128 79.626,216.372 79.626,214.37 C79.626,212.368 80.62,211.612 81.572,211.612 C82.3,211.612 82.86,211.878 83.308,212.34 L83.308,216.344 Z M92.366,218.01 L92.366,213.012 C92.366,211.08 90.966,210.562 89.65,210.562 C87.774,210.562 86.668,211.486 86.64,213.166 L88.04,213.166 C88.096,211.962 88.6,211.5 89.65,211.5 C90.308,211.5 91.036,211.752 91.036,213.166 L91.036,214.034 C90.602,213.992 90.224,213.964 89.86,213.964 C87.228,213.964 86.374,215.154 86.374,216.302 C86.374,217.45 87.214,218.22 88.572,218.22 C89.608,218.22 90.378,217.744 91.036,217.114 L91.036,218.01 L92.366,218.01 Z M91.036,216.26 C90.588,216.736 89.832,217.198 89.146,217.198 C88.264,217.198 87.732,216.862 87.732,216.12 C87.732,215.42 88.236,214.818 89.944,214.818 C90.266,214.818 90.63,214.832 91.036,214.86 L91.036,216.26 Z M95.852,218.01 L95.852,212.564 C96.3,212.088 97.154,211.654 97.896,211.654 C98.848,211.654 99.324,212.144 99.324,213.236 L99.324,218.01 L100.654,218.01 L100.654,212.928 C100.654,211.206 99.604,210.562 98.372,210.562 C97.434,210.562 96.496,211.038 95.852,211.71 L95.852,210.772 L94.522,210.772 L94.522,218.01 L95.852,218.01 Z M113.646,210.968 C113.548,209.05 112.302,208 110.09,208 C108.158,208 106.744,209.12 106.744,210.786 C106.744,212.914 108.508,213.278 109.964,213.586 C111.154,213.838 112.344,214.062 112.344,215.392 C112.344,216.554 111.392,217.142 110.286,217.142 C109.082,217.142 108.228,216.638 108.116,215.112 L106.604,215.112 C106.702,217.184 108.074,218.22 110.286,218.22 C112.176,218.22 113.744,216.96 113.744,215.196 C113.744,213.068 111.924,212.718 110.454,212.41 C109.278,212.158 108.144,211.948 108.144,210.618 C108.144,209.54 108.998,209.078 110.09,209.078 C111.294,209.078 112.036,209.582 112.148,210.968 L113.646,210.968 Z M121.024,218.01 L121.024,213.012 C121.024,211.08 119.624,210.562 118.308,210.562 C116.432,210.562 115.326,211.486 115.298,213.166 L116.698,213.166 C116.754,211.962 117.258,211.5 118.308,211.5 C118.966,211.5 119.694,211.752 119.694,213.166 L119.694,214.034 C119.26,213.992 118.882,213.964 118.518,213.964 C115.886,213.964 115.032,215.154 115.032,216.302 C115.032,217.45 115.872,218.22 117.23,218.22 C118.266,218.22 119.036,217.744 119.694,217.114 L119.694,218.01 L121.024,218.01 Z M119.694,216.26 C119.246,216.736 118.49,217.198 117.804,217.198 C116.922,217.198 116.39,216.862 116.39,216.12 C116.39,215.42 116.894,214.818 118.602,214.818 C118.924,214.818 119.288,214.832 119.694,214.86 L119.694,216.26 Z M124.51,218.01 L124.51,212.564 C124.958,212.088 125.812,211.654 126.554,211.654 C127.506,211.654 127.982,212.144 127.982,213.236 L127.982,218.01 L129.312,218.01 L129.312,212.928 C129.312,211.206 128.262,210.562 127.03,210.562 C126.092,210.562 125.154,211.038 124.51,211.71 L124.51,210.772 L123.18,210.772 L123.18,218.01 L124.51,218.01 Z M136.676,212.62 C136.648,211.318 135.752,210.562 133.876,210.562 C132.238,210.562 131.076,211.36 131.076,212.76 C131.076,214.398 132.574,214.664 133.75,214.874 C134.618,215.042 135.598,215.21 135.598,216.064 C135.598,216.876 134.926,217.296 134.086,217.296 C132.854,217.296 132.462,216.764 132.406,215.952 L131.02,215.952 C131.048,217.31 131.93,218.22 134.016,218.22 C135.668,218.22 136.844,217.226 136.844,215.826 C136.844,214.202 135.248,213.95 134.072,213.726 C133.176,213.558 132.322,213.418 132.322,212.536 C132.322,211.822 132.966,211.486 133.82,211.486 C134.8,211.486 135.234,211.822 135.29,212.62 L136.676,212.62 Z" id="Vegan-Sans" fill="#000000" sketch:type="MSShapeGroup"></path>
            </g>
            <g id="kunda-book" sketch:type="MSLayerGroup" transform="translate(0.000000, 232.000000)">
                <path d="M197.846765,99.2737565 C197.846765,153.888183 153.554165,198.155817 98.9449043,198.155817 C44.3476957,198.155817 0.0568173913,153.888183 0.0568173913,99.2737565 C0.0568173913,44.6696609 44.3476957,0.390834783 98.9449043,0.390834783 C153.554165,0.391695652 197.846765,44.6705217 197.846765,99.2737565 L197.846765,99.2737565 Z" id="Shape" fill="#FF3C32" sketch:type="MSShapeGroup"></path>
                <path d="M139.416965,128.2644 C135.061826,134.615035 127.985478,141.328957 118.73113,141.328957 C112.561278,141.328957 104.759217,138.244461 102.762,127.176261 L101.491357,127.176261 C96.5921478,135.885678 87.701087,141.328957 78.2650957,141.328957 C68.6474609,141.328957 62.1151826,134.615035 62.1151826,126.812974 C62.1151826,119.191696 67.7401043,114.47413 102.761139,101.772 L102.761139,92.8800783 C102.761139,81.9926609 97.680287,76.9118087 88.2451565,76.9118087 C80.2605913,76.9118087 71.3695304,81.0853043 64.8372522,88.162513 L62.2968261,85.984513 C69.1923913,74.1897391 84.0716609,62.0325391 100.766504,62.0325391 C112.561278,62.0325391 124.537696,67.6574609 124.537696,85.2588 L124.537696,120.461478 C124.537696,125.54233 125.807478,128.80847 129.980974,128.80847 C132.339757,128.80847 134.880183,127.71947 137.239826,125.905617 L139.416965,128.2644 L139.416965,128.2644 Z M102.762,114.836557 L102.762,107.760209 C84.9790174,114.47413 82.8018783,118.102696 82.8018783,122.095409 C82.8018783,125.724835 85.7055913,128.083617 89.6974435,128.083617 C95.5040087,128.082757 102.762,122.639478 102.762,114.836557 L102.762,114.836557 Z" id="Shape" fill="#000000" sketch:type="MSShapeGroup"></path>
                <path d="M63.414,218.416 L63.414,213.362 L67.264,218.416 L69.042,218.416 L64.87,213.152 L68.51,208.616 L66.998,208.616 L63.414,213.25 L63.414,208.616 L62,208.616 L62,218.416 L63.414,218.416 Z M74.684,216.624 C74.236,217.086 73.424,217.534 72.682,217.534 C71.716,217.534 71.268,217.03 71.268,215.952 L71.268,211.178 L69.938,211.178 L69.938,216.246 C69.938,217.968 70.96,218.626 72.192,218.626 C73.13,218.626 74.04,218.136 74.684,217.478 L74.684,218.416 L76.014,218.416 L76.014,211.178 L74.684,211.178 L74.684,216.624 Z M79.5,218.416 L79.5,212.97 C79.948,212.494 80.802,212.06 81.544,212.06 C82.496,212.06 82.972,212.55 82.972,213.642 L82.972,218.416 L84.302,218.416 L84.302,213.334 C84.302,211.612 83.252,210.968 82.02,210.968 C81.082,210.968 80.144,211.444 79.5,212.116 L79.5,211.178 L78.17,211.178 L78.17,218.416 L79.5,218.416 Z M92.478,218.416 L92.478,208 L91.148,208 L91.148,211.822 C90.714,211.304 90.028,210.968 89.244,210.968 C87.676,210.968 86.052,212.158 86.052,214.79 C86.052,217.436 87.396,218.626 88.852,218.626 C89.776,218.626 90.518,218.276 91.148,217.632 L91.148,218.416 L92.478,218.416 Z M91.148,216.778 C90.7,217.24 90.014,217.562 89.286,217.562 C88.334,217.562 87.466,216.806 87.466,214.79 C87.466,212.788 88.46,212.018 89.412,212.018 C90.14,212.018 90.7,212.284 91.148,212.746 L91.148,216.778 Z M100.08,218.416 L100.08,213.418 C100.08,211.486 98.68,210.968 97.364,210.968 C95.488,210.968 94.382,211.892 94.354,213.572 L95.754,213.572 C95.81,212.368 96.314,211.906 97.364,211.906 C98.022,211.906 98.75,212.158 98.75,213.572 L98.75,214.44 C98.316,214.398 97.938,214.37 97.574,214.37 C94.942,214.37 94.088,215.56 94.088,216.708 C94.088,217.856 94.928,218.626 96.286,218.626 C97.322,218.626 98.092,218.15 98.75,217.52 L98.75,218.416 L100.08,218.416 Z M98.75,216.666 C98.302,217.142 97.546,217.604 96.86,217.604 C95.978,217.604 95.446,217.268 95.446,216.526 C95.446,215.826 95.95,215.224 97.658,215.224 C97.98,215.224 98.344,215.238 98.75,215.266 L98.75,216.666 Z M107.99,212.942 L107.99,209.694 L109.684,209.694 C110.846,209.694 111.616,210.044 111.616,211.178 C111.616,212.326 110.874,212.942 109.684,212.942 L107.99,212.942 Z M109.978,218.416 C112.008,218.416 113.478,217.408 113.478,215.532 C113.478,214.09 112.512,213.46 111.476,213.32 C112.372,213.068 113.072,212.13 113.072,211.094 C113.072,209.19 111.35,208.616 109.684,208.616 L106.576,208.616 L106.576,218.416 L109.978,218.416 Z M107.99,217.338 L107.99,214.006 L109.978,214.006 C111.168,214.006 112.022,214.384 112.022,215.532 C112.022,216.68 111.406,217.338 109.978,217.338 L107.99,217.338 Z M118.056,217.688 C116.866,217.688 116.04,216.792 116.04,214.79 C116.04,212.788 116.866,211.906 118.056,211.906 C119.232,211.906 120.072,212.788 120.072,214.79 C120.072,216.792 119.232,217.688 118.056,217.688 L118.056,217.688 Z M118.056,218.626 C120.226,218.626 121.472,217.072 121.472,214.79 C121.472,212.522 120.226,210.968 118.056,210.968 C115.872,210.968 114.626,212.522 114.626,214.79 C114.626,217.072 115.872,218.626 118.056,218.626 L118.056,218.626 Z M126.246,217.688 C125.056,217.688 124.23,216.792 124.23,214.79 C124.23,212.788 125.056,211.906 126.246,211.906 C127.422,211.906 128.262,212.788 128.262,214.79 C128.262,216.792 127.422,217.688 126.246,217.688 L126.246,217.688 Z M126.246,218.626 C128.416,218.626 129.662,217.072 129.662,214.79 C129.662,212.522 128.416,210.968 126.246,210.968 C124.062,210.968 122.816,212.522 122.816,214.79 C122.816,217.072 124.062,218.626 126.246,218.626 L126.246,218.626 Z M132.742,218.416 L132.742,214.622 L135.78,218.416 L137.432,218.416 L134.114,214.426 L137.124,211.178 L135.682,211.178 L132.742,214.524 L132.742,208 L131.412,208 L131.412,218.416 L132.742,218.416 Z" id="Kunda-Book" fill="#000000" sketch:type="MSShapeGroup"></path>
            </g>
            <g id="hrot" sketch:type="MSLayerGroup">
                <path d="M198.10933,99.2737565 C198.10933,153.888183 153.81587,198.155817 99.2057478,198.155817 C44.6094,198.155817 0.320243478,153.888183 0.320243478,99.2737565 C0.320243478,44.6696609 44.6094,0.390834783 99.2057478,0.390834783 C153.81587,0.391695652 198.10933,44.6705217 198.10933,99.2737565 L198.10933,99.2737565 Z" id="Shape" fill="#0078FF" sketch:type="MSShapeGroup"></path>
                <path d="M121.895687,148.821104 L122.803043,136.300617 C108.650348,146.462322 91.2297913,152.45053 74.5358087,152.45053 C58.0226087,152.45053 44.5956261,144.64847 44.5956261,127.953626 C44.5956261,107.267791 69.6366,91.6619478 121.896548,91.6619478 L121.896548,83.4966 C121.896548,73.5165391 112.823843,68.435687 97.7629304,68.435687 C85.424087,68.435687 64.5566087,72.2467565 49.4956957,80.2304609 L51.4911913,56.0968435 C65.6447478,48.4755652 88.8718696,44.6644957 101.210713,44.6644957 C135.506896,44.6644957 150.386165,60.0886957 150.386165,83.6782435 L150.386165,148.821965 L121.895687,148.821965 L121.895687,148.821104 Z M121.895687,108.174287 C95.04,108.174287 74.8982348,113.073496 74.8982348,124.142557 C74.8982348,131.219765 80.7048,133.760191 88.8701478,133.760191 C98.3061391,133.760191 111.370696,129.405052 121.894826,122.147061 L121.894826,108.174287 L121.895687,108.174287 Z" id="Shape" fill="#000000" sketch:type="MSShapeGroup"></path>
                <path d="M93.742,217.8 L93.742,208 L92.342,208 L92.342,212.102 L87.414,212.102 L87.414,208 L86,208 L86,217.8 L87.414,217.8 L87.414,213.18 L92.342,213.18 L92.342,217.8 L93.742,217.8 Z M97.368,217.8 L97.368,212.872 C97.732,212.228 98.488,211.57 99.342,211.57 C99.762,211.57 99.972,211.654 100.308,211.794 L100.308,210.702 C100.084,210.478 99.818,210.352 99.44,210.352 C98.67,210.352 97.928,210.898 97.368,211.822 L97.368,210.562 L96.038,210.562 L96.038,217.8 L97.368,217.8 Z M104.242,217.072 C103.052,217.072 102.226,216.176 102.226,214.174 C102.226,212.172 103.052,211.29 104.242,211.29 C105.418,211.29 106.258,212.172 106.258,214.174 C106.258,216.176 105.418,217.072 104.242,217.072 L104.242,217.072 Z M104.242,218.01 C106.412,218.01 107.658,216.456 107.658,214.174 C107.658,211.906 106.412,210.352 104.242,210.352 C102.058,210.352 100.812,211.906 100.812,214.174 C100.812,216.456 102.058,218.01 104.242,218.01 L104.242,218.01 Z M112.866,211.5 L112.866,210.562 L110.822,210.562 L110.822,208.56 L109.492,208.56 L109.492,210.562 L108.26,210.562 L108.26,211.5 L109.492,211.5 L109.492,216.106 C109.492,217.394 110.318,218.01 111.382,218.01 C111.816,218.01 112.572,217.884 112.978,217.688 L112.978,216.792 C112.572,216.918 112.096,217.016 111.816,217.016 C111.13,217.016 110.822,216.61 110.822,215.812 L110.822,211.5 L112.866,211.5 Z" id="Hrot" fill="#000000" sketch:type="MSShapeGroup"></path>
            </g>
        </g>
    </g>
</svg>