<?xml version="1.0" encoding="UTF-8" standalone="no"?>
<svg width="537px" height="350px" viewBox="0 0 537 350" version="1.1" xmlns="http://www.w3.org/2000/svg" xmlns:xlink="http://www.w3.org/1999/xlink" xmlns:sketch="http://www.bohemiancoding.com/sketch/ns">
    <!-- Generator: Sketch 3.3.2 (12043) - http://www.bohemiancoding.com/sketch -->
    <title>non-stop</title>
    <desc>Created with Sketch.</desc>
    <defs></defs>
    <g id="Misc" stroke="none" stroke-width="1" fill="none" fill-rule="evenodd" sketch:type="MSPage">
        <g id="non-stop" sketch:type="MSArtboardGroup">
            <rect id="Rectangle-path" fill="#FFFF00" sketch:type="MSShapeGroup" x="-0.326" y="-0.132" width="536.876" height="349.131"></rect>
            <g id="Group" sketch:type="MSLayerGroup" transform="translate(42.000000, 60.000000)" fill="#FF0000">
                <path d="M91.254,89.5 C86.22,66.413 96.911,46.726 118.278,42.065 C134.032,38.63 144.542,47.246 148.036,63.27 C153.071,86.358 142.378,106.045 121.012,110.706 C105.258,114.141 94.749,105.527 91.254,89.5 L91.254,89.5 Z M133.44,66.36 C131.367,56.853 126.233,51.144 118.628,52.802 C104.142,55.961 103.225,74.371 105.851,86.412 C107.924,95.919 113.078,101.719 120.773,100.041 C135.259,96.882 136.066,78.402 133.44,66.36 L133.44,66.36 Z" id="Shape" sketch:type="MSShapeGroup"></path>
                <path d="M160.638,100.643 L157.954,34.837 L179.593,30.118 C189.824,27.888 201.117,31.399 203.822,43.804 C207.573,61.005 194.281,72.249 181.515,75.033 L173.638,76.751 L174.491,97.622 L160.638,100.643 L160.638,100.643 Z M181.064,64.7 C186.767,63.457 191.889,56.933 189.994,48.242 C188.691,42.265 184.39,39.506 180.135,40.433 L172.349,42.131 L173.279,66.398 L181.064,64.7 L181.064,64.7 Z" id="Shape" sketch:type="MSShapeGroup"></path>
                <path d="M215.229,88.739 L212.545,22.933 L251.659,14.404 L252.098,25.119 L226.927,30.608 L227.48,45.757 L250.84,40.663 L251.35,51.269 L227.901,56.383 L228.661,75.09 L253.921,69.582 L254.343,80.208 L215.229,88.739 L215.229,88.739 Z" id="Shape" sketch:type="MSShapeGroup"></path>
                <path d="M304.315,69.312 L276.354,31.117 L277.319,49.021 L278.423,74.959 L265.747,77.723 L263.063,11.918 L275.465,9.213 L303.537,47.477 L302.482,29.592 L301.451,3.546 L314.035,0.802 L316.719,66.608 L304.315,69.312 L304.315,69.312 Z" id="Shape" sketch:type="MSShapeGroup"></path>
                <path d="M41.588,219.656 L13.626,181.463 L14.591,199.365 L15.695,225.303 L3.019,228.067 L0.334,162.262 L12.738,159.557 L40.809,197.823 L39.754,179.938 L38.722,153.891 L51.307,151.147 L53.991,216.952 L41.588,219.656 L41.588,219.656 Z" id="Shape" sketch:type="MSShapeGroup"></path>
                <path d="M64,188.498 C58.966,165.41 69.657,145.721 91.024,141.062 C106.778,137.626 117.288,146.242 120.782,162.267 C125.817,185.353 115.125,205.042 93.758,209.701 C78.004,213.137 67.496,204.523 64,188.498 L64,188.498 Z M106.187,165.355 C104.114,155.849 98.98,150.14 91.375,151.798 C76.889,154.956 75.972,173.366 78.598,185.407 C80.671,194.915 85.825,200.716 93.52,199.036 C108.005,195.879 108.812,177.398 106.187,165.355 L106.187,165.355 Z" id="Shape" sketch:type="MSShapeGroup"></path>
                <path d="M171.954,191.229 L143.992,153.034 L144.956,170.938 L146.06,196.876 L133.384,199.64 L130.7,133.835 L143.103,131.13 L171.175,169.396 L170.12,151.509 L169.088,125.463 L181.673,122.719 L184.357,188.525 L171.954,191.229 L171.954,191.229 Z" id="Shape" sketch:type="MSShapeGroup"></path>
                <path d="M193.644,157.191 L193.204,146.474 L231.23,138.183 L231.669,148.898 L193.644,157.191 L193.644,157.191 Z" id="Shape" sketch:type="MSShapeGroup"></path>
                <path d="M271.745,122.614 C270.798,115.234 266.384,113.256 261.134,114.401 C254.796,115.783 250.88,119.578 252.243,125.823 C253.507,131.617 260.212,131.485 267.538,131.594 C276.212,131.787 285.925,133.274 288.235,143.867 C291.137,157.176 279.62,169.172 265.496,172.252 C252.187,175.154 240.846,170.988 239.589,156.088 L253.714,153.008 C254.786,161.404 259.976,163.024 265.228,161.877 C271.656,160.477 276.185,156.453 274.744,149.844 C273.48,144.049 266.756,144.094 259.428,143.985 C250.756,143.79 241.123,141.813 238.815,131.219 C235.952,118.091 245.745,107.324 260.864,104.027 C274.173,101.125 284.307,105.839 285.962,119.514 L271.745,122.614 L271.745,122.614 Z" id="Shape" sketch:type="MSShapeGroup"></path>
                <path d="M306.937,161.793 L304.693,106.705 L288.939,110.14 L288.5,99.424 L333.77,89.553 L334.299,100.249 L318.545,103.684 L320.699,158.792 L306.937,161.793 L306.937,161.793 Z" id="Shape" sketch:type="MSShapeGroup"></path>
                <path d="M338.677,128.6 C333.642,105.513 344.333,85.825 365.7,81.166 C381.454,77.73 391.964,86.346 395.458,102.371 C400.493,125.458 389.802,145.145 368.435,149.805 C352.681,153.239 342.171,144.625 338.677,128.6 L338.677,128.6 Z M380.862,105.458 C378.79,95.952 373.655,90.243 366.05,91.902 C351.564,95.06 350.648,113.469 353.273,125.51 C355.345,135.017 360.5,140.817 368.195,139.139 C382.681,135.98 383.487,117.5 380.862,105.458 L380.862,105.458 Z" id="Shape" sketch:type="MSShapeGroup"></path>
                <path d="M408.062,139.74 L405.376,73.937 L427.015,69.218 C437.247,66.987 448.54,70.499 451.245,82.903 C454.995,100.105 441.704,111.35 428.938,114.133 L421.061,115.851 L421.913,136.721 L408.062,139.74 L408.062,139.74 Z M428.485,103.798 C434.19,102.554 439.311,96.033 437.417,87.341 C436.114,81.365 431.813,78.605 427.558,79.532 L419.771,81.23 L420.701,105.496 L428.485,103.798 L428.485,103.798 Z" id="Shape" sketch:type="MSShapeGroup"></path>
            </g>
        </g>
    </g>
</svg>