<?xml version="1.0" encoding="utf-8"?>
<!-- Generator: Adobe Illustrator 16.0.3, SVG Export Plug-In . SVG Version: 6.00 Build 0)  -->
<!DOCTYPE svg PUBLIC "-//W3C//DTD SVG 1.1//EN" "http://www.w3.org/Graphics/SVG/1.1/DTD/svg11.dtd">
<svg version="1.1" id="Layer_1" xmlns="http://www.w3.org/2000/svg" xmlns:xlink="http://www.w3.org/1999/xlink" x="0px" y="0px"
	 width="2007.464px" height="4579.493px" viewBox="0 0 2007.464 4579.493" enable-background="new 0 0 2007.464 4579.493"
	 xml:space="preserve">
<rect fill="#FFFFFF" width="2007.464" height="4579.493"/>
<g>
	<path d="M206.167,208.498c0-22.102,10.201-36.502,27.002-36.502s26.901,14.4,26.901,36.502S249.97,245,233.169,245
		S206.167,230.599,206.167,208.498z M247.869,208.498c0-18.501-5.899-27.602-14.7-27.602s-14.801,9.101-14.801,27.602
		s6,27.602,14.801,27.602S247.869,226.999,247.869,208.498z"/>
	<path d="M426.735,208.498c0-22.102,10.201-36.502,27.002-36.502s26.901,14.4,26.901,36.502S470.538,245,453.737,245
		S426.735,230.599,426.735,208.498z M440.536,225.398l20.302-42.402c-2-1.399-4.4-2.1-7.101-2.1
		c-9.101,0-15.501,9.101-15.501,27.602C438.236,215.498,439.036,221.098,440.536,225.398z M469.238,208.498
		c0-6.9-0.801-12.501-2.4-16.801l-20.301,42.302c2.1,1.4,4.5,2.101,7.2,2.101C462.838,236.099,469.238,226.999,469.238,208.498z"/>
	<path d="M662.806,243.5v-59.804l-16.501,8.801v-10.001l16.501-9h11.601V243.5H662.806z"/>
	<path d="M892.375,234.599v8.9h-45.902v-8.9c20.102-19.001,33.002-30.402,33.002-42.503c0-7.8-4.2-11.4-10.4-11.4
		c-6.801,0-11.4,3.9-12.201,14.101h-12.101c0.7-14.9,9.801-22.801,24.302-22.801c13.501,0,22.301,7,22.301,20.101
		c0,12.701-10.9,24.401-30.401,42.503H892.375z"/>
	<path d="M1072.043,211.998v-8.9h7.101c9.3,0,13.801-5.4,13.801-11.801c0-7.101-4.601-10.601-10.801-10.601
		c-6.7,0-11.201,3.601-12.201,11.801h-12.2c1-12.901,10-20.501,24.401-20.501c13.4,0,22.602,6.9,22.602,19.301
		c0,6.301-4.301,13.301-12.101,15.701c10.101,1.8,13.9,9.5,13.9,16.4c0,13.201-10.701,21.602-24.401,21.602
		c-16.201,0-24.401-7.4-25.102-20.401h12.101c0.8,8.201,5.4,11.701,13.001,11.701c7.3,0,12.601-5.001,12.601-12.901
		c0-6.4-4.601-11.4-15.601-11.4H1072.043z"/>
	<path d="M1301.012,221.598v-17.101h10.9v17.101h9.4v8.9h-9.4V243.5h-10.9v-13.001h-29.602v-8.9l20.201-48.103h11.101
		l-20.302,48.103H1301.012z"/>
	<path d="M1498.778,225.999c0.8,7.5,5.2,10.301,11.601,10.301c7.101,0,11.602-5.501,11.602-15.602
		c0-10.5-3.801-15.101-11.301-15.101c-4.801,0-9.101,1.9-12.201,6.301h-10.001v-38.402h41.203v8.9h-31.202v21.801
		c3.601-4.8,9.4-7.4,15.101-7.4c11.901,0,20.302,7.501,20.302,23.901c0,15.602-10.4,24.302-23.502,24.302
		c-14.9,0-23.001-6.7-23.701-19.001H1498.778z"/>
	<path d="M1736.048,189.096c-1.1-6-4-8.4-9.601-8.4c-8.5,0-13.4,7.4-14.301,25.602c4-4.7,10.301-8.2,17.001-8.2
		c12.601,0,20.901,7.9,20.901,23.301c0,14.602-11.2,23.602-24.502,23.602c-16.801,0-25.701-12.4-25.701-32.802
		c0-26.102,10.501-40.202,26.602-40.202c13.001,0,20.602,6.4,21.701,17.101H1736.048z M1712.047,213.797
		c0.3,15.701,4.9,22.502,13.5,22.502c7.801,0,12.602-5.9,12.602-14.901c0-8.801-3.7-14.501-11.901-14.501
		C1720.447,206.897,1715.146,209.797,1712.047,213.797z"/>
	<path d="M212.067,519.5l24.802-61.104h-31.702v-8.9h42.303v8.9L223.269,519.5H212.067z"/>
	<path d="M464.067,500.798c0,14.101-11.001,20.201-25.602,20.201s-25.602-6.2-25.602-20.201c0-8.301,4.9-15.301,13.601-17.501
		c-6.9-2.601-11.7-8.001-11.7-15.901c0-12.4,9.601-19.4,23.701-19.4s23.701,7,23.701,19.4c0,7.9-4.7,13.301-11.7,15.901
		C459.167,485.498,464.067,492.498,464.067,500.798z M438.466,488.297c-9.501,0-13.9,5.101-13.9,12.201
		c0,8.2,5.8,11.801,13.9,11.801s13.901-3.601,13.901-11.801C452.367,493.398,447.967,488.297,438.466,488.297z M438.466,456.696
		c-7,0-12.101,3.7-12.101,11.001c0,6.8,3.7,11.7,12.101,11.7s12.101-4.9,12.101-11.7
		C450.566,460.396,445.467,456.696,438.466,456.696z"/>
	<path d="M671.063,484.897c-3.9,4.801-10.301,8.301-17.001,8.301c-12.601,0-20.901-7.101-20.901-22.102
		c0-14.4,11.201-23.101,24.502-23.101c16.801,0,25.701,12.4,25.701,32.802c0,26.102-9.801,40.202-26.701,40.202
		c-13.201,0-21.802-6.5-22.602-18.801h12.101c0.9,7.4,4.8,10.101,10.501,10.101C666.264,512.299,670.563,504.399,671.063,484.897z
		 M671.063,477.697c-0.6-14.601-5.2-21.001-13.4-21.001c-7.801,0-12.701,5.3-12.701,14.4c0,8.401,3.8,13.301,12.001,13.301
		C662.663,484.397,667.863,481.597,671.063,477.697z"/>
	<path d="M852.458,490.998c0-17.801,8.501-29.901,24.201-29.901c15.701,0,24.102,12.101,24.102,29.901
		c0,17.802-8.4,30.002-24.102,30.002C860.959,521,852.458,508.799,852.458,490.998z M889.061,490.998
		c0-15.4-4.4-22.001-12.401-22.001c-8,0-12.5,6.601-12.5,22.001c0,15.401,4.5,22.102,12.5,22.102
		C884.66,513.099,889.061,506.399,889.061,490.998z"/>
	<path d="M1069.854,490.998c0-17.801,8.501-29.901,24.201-29.901c15.701,0,24.102,12.101,24.102,29.901
		c0,17.802-8.4,30.002-24.102,30.002C1078.355,521,1069.854,508.799,1069.854,490.998z M1082.655,504.699l16.801-34.502
		c-1.6-0.801-3.399-1.2-5.4-1.2c-8.3,0-13.301,6.601-13.301,22.001C1080.755,496.698,1081.355,501.298,1082.655,504.699z
		 M1107.257,490.998c0-5.7-0.7-10.2-2-13.601l-16.701,34.502c1.601,0.8,3.4,1.2,5.5,1.2
		C1102.356,513.099,1107.257,506.399,1107.257,490.998z"/>
	<path d="M1302.453,519.5v-46.703l-16.201,8.801v-10.001l16.201-9h11.301V519.5H1302.453z"/>
	<path d="M1531.15,510.499v9.001h-43.902v-9.001c20.401-14.101,31.002-21.401,31.002-31.502c0-6.1-3.5-9.7-9.7-9.7
		c-6.701,0-10.801,3.7-11.501,12.501h-11.501c0.7-13.501,8.501-20.701,23.002-20.701c13.501,0,21.201,6.5,21.201,17.9
		c0,11.001-8.701,18.201-27.002,31.502H1531.15z"/>
	<path d="M1713.246,500.898v-8.2h7.4c9.3,0,13.801-5,13.801-12.4c0-7.9-4.9-11.001-11.201-11.001c-7.5,0-11.801,3.4-12.801,12.301
		h-11.5c1-12.9,10-20.501,24.401-20.501c13.4,0,22.601,6.9,22.601,19.301c0,6.301-4.3,13.501-12.101,15.801
		c10.101,1.801,13.901,9.701,13.901,16.602c0,13.2-10.701,21.602-24.401,21.602c-16.201,0-24.401-7.401-25.102-20.401h11.801
		c0.699,8.9,5.4,12.2,13.4,12.2c7.301,0,12.801-3.8,12.801-13.301c0-7.4-4.601-12.001-15.601-12.001H1713.246z"/>
	<path d="M234.369,786.499v-17.601h10.601v17.601h10v9.001h-10v13.4h-10.601v-13.4h-29.302v-9.001l20.201-47.902h11l-20.401,47.902
		H234.369z"/>
	<path d="M430.692,791.099c0.7,8.2,5.5,11.101,11.9,11.101c7.4,0,11.901-4.9,11.901-16.201c0-11.5-4.7-15.601-12.101-15.601
		c-4.9,0-8.801,2.2-11.801,6.601h-9.901v-38.402h41.203v9h-31.302v20.901c3.6-4.2,9-6.6,14.7-6.6c11.901,0,20.802,7.7,20.802,24.101
		c0,15.602-10.4,24.402-23.502,24.402c-14.9,0-23.001-7.001-23.701-19.302H430.692z"/>
	<path d="M668.119,738.696c-1-8.7-6.3-10.9-10.8-10.9c-8.701,0-14.501,7-15.001,30.702c3.899-4.801,10.601-8.4,17.601-8.4
		c12.601,0,20.901,7.9,20.901,23.301C680.82,788,669.62,797,656.318,797c-16.801,0-25.701-12.501-25.701-34.902
		c0-29.502,10.501-42.502,26.702-42.502c12.9,0,21.201,6.4,22.301,19.101H668.119z M642.418,766.297
		c0.7,15.802,5.801,22.502,13.9,22.502c7.801,0,12.801-5.101,12.801-15.102c0-9.8-3.899-15.101-12.101-15.101
		C651.318,758.597,645.519,762.097,642.418,766.297z"/>
	<path d="M848.944,808.9l24.802-61.304h-31.702v-9h42.303v9L860.146,808.9H848.944z"/>
	<path d="M1099.973,775.199c0,14.101-11.401,21.801-26.102,21.801c-14.602,0-26.002-7.7-26.002-21.801
		c0-8.201,5.301-16.502,14.101-19.002c-7-2.6-12.2-8.3-12.2-16.501c0-12.5,10.101-20.101,24.102-20.101
		c14.101,0,24.201,7.601,24.201,20.101c0,8.201-5.2,13.901-12.201,16.501C1094.572,758.697,1099.973,766.998,1099.973,775.199z
		 M1059.37,775.098c0,9.2,6.2,13.701,14.501,13.701c8.3,0,14.501-4.501,14.501-13.701c0-7.4-4.801-14.101-14.501-14.101
		C1064.17,760.998,1059.37,767.698,1059.37,775.098z M1061.271,739.796c0,7.101,4.2,12.601,12.601,12.601
		c8.5,0,12.601-5.5,12.601-12.601c0-8.301-5.5-12.001-12.601-12.001C1066.87,727.795,1061.271,731.496,1061.271,739.796z"/>
	<path d="M1303.697,774.198c-3.9,4.801-10.602,8.401-17.602,8.401c-12.601,0-20.901-7.201-20.901-22.502
		c0-14.601,11.201-23.001,24.502-23.001c16.801,0,25.701,12.2,25.701,34.602c0,27.402-10.501,38.703-26.701,38.703
		c-12.901,0-21.502-6.101-22.702-18.802h11.501c1.101,8.701,6.7,10.601,11.201,10.601
		C1297.496,802.2,1303.297,796.599,1303.697,774.198z M1303.497,766.498c-0.9-15.001-5.9-21.201-13.801-21.201
		c-7.801,0-12.801,4.4-12.801,14.501c0,9.001,3.899,14.301,12.101,14.301C1294.696,774.098,1300.396,770.698,1303.497,766.498z"/>
	<path d="M1480.22,760.498c0-22.102,8.901-36.502,25.702-36.502s25.701,14.4,25.701,36.502s-8.9,36.502-25.701,36.502
		S1480.22,782.599,1480.22,760.498z M1519.322,760.498c0-18.501-4.9-27.602-13.4-27.602c-8.501,0-13.501,9.101-13.501,27.602
		s5,27.602,13.501,27.602C1514.422,788.099,1519.322,778.999,1519.322,760.498z"/>
	<path d="M1696.046,760.498c0-22.102,8.901-36.502,25.702-36.502s25.701,14.4,25.701,36.502s-8.9,36.502-25.701,36.502
		S1696.046,782.599,1696.046,760.498z M1708.947,776.499l19.901-41.303c-2-1.5-4.4-2.3-7.101-2.3
		c-9.001,0-14.501,9.101-14.501,27.602C1707.247,766.998,1707.847,772.298,1708.947,776.499z M1736.249,760.498
		c0-6.501-0.601-11.801-1.801-15.901l-19.801,41.303c2,1.5,4.3,2.2,7.101,2.2C1730.748,788.099,1736.249,778.999,1736.249,760.498z"
		/>
	<path d="M210.468,1071.5v-8.9h16.7v-50.903l-16.7,8.801v-10.001l16.7-9h11.602v61.104h16.4v8.9H210.468z"/>
	<path d="M468.866,1062.599v8.9h-45.902v-8.9c20.102-19.001,32.902-30.402,32.902-42.503c0-7.8-4.101-11.4-10.401-11.4
		c-6.7,0-11.4,3.9-12.101,14.101h-12.101c0.7-14.9,9.801-22.801,24.201-22.801c13.501,0,22.302,7,22.302,20.101
		c0,12.701-10.801,24.401-30.302,42.503H468.866z"/>
	<path d="M648.162,1039.998v-8.9h7.101c9.2,0,13.7-5.4,13.7-11.801c0-7.101-4.5-10.601-10.7-10.601
		c-6.7,0-11.301,3.601-12.301,11.801h-12.101c1-12.901,10-20.501,24.401-20.501c13.4,0,22.602,6.9,22.602,19.301
		c0,6.301-4.4,13.301-12.101,15.701c10.101,1.8,13.9,9.5,13.9,16.4c0,13.201-10.801,21.602-24.401,21.602
		c-16.301,0-24.401-7.4-25.102-20.401h12.101c0.7,8.201,5.4,11.701,13.001,11.701c7.301,0,12.501-5.001,12.501-12.901
		c0-6.4-4.601-11.4-15.501-11.4H648.162z"/>
	<path d="M875.159,1049.598v-17.101h10.9v17.101h9.401v8.9h-9.401v13.001h-10.9v-13.001h-29.602v-8.9l20.201-48.103h11.101
		l-20.301,48.103H875.159z"/>
	<path d="M1072.056,1053.999c0.7,7.5,5.2,10.301,11.601,10.301c7.001,0,11.601-5.501,11.601-15.602c0-10.5-3.8-15.101-11.3-15.101
		c-4.801,0-9.201,1.9-12.201,6.301h-10.101v-38.402h41.202v8.9h-31.102v21.801c3.601-4.8,9.4-7.4,15.101-7.4
		c11.901,0,20.201,7.501,20.201,23.901c0,15.602-10.4,24.302-23.401,24.302c-14.9,0-23.001-6.7-23.701-19.001H1072.056z"/>
	<path d="M1307.454,1017.096c-1.101-6-4.101-8.4-9.601-8.4c-8.501,0-13.401,7.4-14.301,25.602c4-4.7,10.3-8.2,17.001-8.2
		c12.601,0,20.9,7.9,20.9,23.301c0,14.602-11.2,23.602-24.501,23.602c-16.801,0-25.701-12.4-25.701-32.802
		c0-26.102,10.4-40.202,26.602-40.202c13,0,20.601,6.4,21.701,17.101H1307.454z M1283.452,1041.797
		c0.3,15.701,4.9,22.502,13.501,22.502c7.801,0,12.601-5.9,12.601-14.901c0-8.801-3.7-14.501-11.9-14.501
		C1291.853,1034.897,1286.553,1037.797,1283.452,1041.797z"/>
	<path d="M1493.149,1071.5l26.802-61.104h-33.702v-8.9h44.303v8.9l-26.201,61.104H1493.149z"/>
	<path d="M1747.349,1052.798c0,14.101-11.001,20.201-25.602,20.201s-25.602-6.2-25.602-20.201c0-8.301,4.9-15.301,13.601-17.501
		c-7-2.601-11.7-8.001-11.7-15.901c0-12.4,9.601-19.4,23.701-19.4s23.701,7,23.701,19.4c0,7.9-4.8,13.301-11.7,15.901
		C1742.448,1037.498,1747.349,1044.498,1747.349,1052.798z M1721.747,1040.297c-9.501,0-13.901,5.101-13.901,12.201
		c0,8.2,5.801,11.801,13.901,11.801s13.9-3.601,13.9-11.801C1735.647,1045.398,1731.247,1040.297,1721.747,1040.297z
		 M1721.747,1008.696c-7.001,0-12.101,3.7-12.101,11.001c0,6.8,3.7,11.7,12.101,11.7s12.101-4.9,12.101-11.7
		C1733.848,1012.396,1728.747,1008.696,1721.747,1008.696z"/>
	<path d="M244.67,1312.897c-3.9,4.801-10.301,8.301-17.002,8.301c-12.601,0-20.9-7.101-20.9-22.102
		c0-14.4,11.2-23.101,24.501-23.101c16.801,0,25.701,12.4,25.701,32.802c0,26.102-9.8,40.202-26.701,40.202
		c-13.301,0-21.802-6.5-22.602-18.801h12.101c0.9,7.4,4.801,10.101,10.501,10.101
		C239.869,1340.299,244.169,1332.399,244.67,1312.897z M244.67,1305.697c-0.601-14.601-5.201-21.001-13.401-21.001
		c-7.801,0-12.801,5.3-12.801,14.4c0,8.401,3.9,13.301,12.101,13.301C236.269,1312.397,241.469,1309.597,244.67,1305.697z"/>
	<path d="M425.063,1318.998c0-17.801,8.501-29.901,24.201-29.901c15.701,0,24.102,12.101,24.102,29.901
		c0,17.802-8.4,30.002-24.102,30.002C433.564,1349,425.063,1336.799,425.063,1318.998z M461.666,1318.998
		c0-15.4-4.4-22.001-12.401-22.001c-8,0-12.5,6.601-12.5,22.001c0,15.401,4.5,22.102,12.5,22.102
		C457.266,1341.099,461.666,1334.399,461.666,1318.998z"/>
	<path d="M641.661,1318.998c0-17.801,8.501-29.901,24.201-29.901c15.701,0,24.102,12.101,24.102,29.901
		c0,17.802-8.4,30.002-24.102,30.002C650.162,1349,641.661,1336.799,641.661,1318.998z M654.462,1332.699l16.801-34.502
		c-1.6-0.801-3.399-1.2-5.4-1.2c-8.3,0-13.301,6.601-13.301,22.001C652.562,1324.698,653.162,1329.298,654.462,1332.699z
		 M679.063,1318.998c0-5.7-0.7-10.2-2-13.601l-16.701,34.502c1.601,0.8,3.4,1.2,5.5,1.2
		C674.163,1341.099,679.063,1334.399,679.063,1318.998z"/>
	<path d="M873.459,1347.5v-46.703l-16.201,8.801v-10.001l16.201-9h11.301v56.903H873.459z"/>
	<path d="M1101.357,1338.499v9.001h-43.902v-9.001c20.401-14.101,31.002-21.401,31.002-31.502c0-6.1-3.5-9.7-9.7-9.7
		c-6.701,0-10.801,3.7-11.501,12.501h-11.501c0.7-13.501,8.501-20.701,23.002-20.701c13.501,0,21.201,6.5,21.201,17.9
		c0,11.001-8.701,18.201-27.002,31.502H1101.357z"/>
	<path d="M1282.653,1328.898v-8.2h7.4c9.3,0,13.801-5,13.801-12.4c0-7.9-4.9-11.001-11.201-11.001c-7.5,0-11.801,3.4-12.801,12.301
		h-11.501c1.001-12.9,10.001-20.501,24.402-20.501c13.4,0,22.601,6.9,22.601,19.301c0,6.301-4.3,13.501-12.101,15.801
		c10.101,1.801,13.901,9.701,13.901,16.602c0,13.2-10.701,21.602-24.401,21.602c-16.201,0-24.402-7.401-25.102-20.401h11.801
		c0.699,8.9,5.4,12.2,13.4,12.2c7.301,0,12.801-3.8,12.801-13.301c0-7.4-4.601-12.001-15.601-12.001H1282.653z"/>
	<path d="M1512.951,1338.499v-17.601h10.601v17.601h10v9.001h-10v13.4h-10.601v-13.4h-29.302v-9.001l20.201-47.902h11
		l-20.401,47.902H1512.951z"/>
	<path d="M1712.346,1343.099c0.7,8.2,5.5,11.101,11.9,11.101c7.4,0,11.901-4.9,11.901-16.201c0-11.5-4.7-15.601-12.101-15.601
		c-4.9,0-8.801,2.2-11.801,6.601h-9.901v-38.402h41.203v9h-31.302v20.901c3.6-4.2,9-6.6,14.7-6.6c11.901,0,20.802,7.7,20.802,24.101
		c0,15.602-10.4,24.402-23.502,24.402c-14.9,0-23.001-7.001-23.701-19.302H1712.346z"/>
	<path d="M243.669,1566.696c-1-8.7-6.3-10.9-10.8-10.9c-8.701,0-14.501,7-15.001,30.702c3.899-4.801,10.601-8.4,17.601-8.4
		c12.601,0,20.901,7.9,20.901,23.301c0,14.602-11.2,23.602-24.501,23.602c-16.802,0-25.702-12.501-25.702-34.902
		c0-29.502,10.501-42.502,26.702-42.502c12.9,0,21.201,6.4,22.301,19.101H243.669z M217.968,1594.297
		c0.7,15.802,5.801,22.502,13.901,22.502c7.8,0,12.801-5.101,12.801-15.102c0-9.8-3.9-15.101-12.102-15.101
		C226.868,1586.597,221.068,1590.097,217.968,1594.297z"/>
	<path d="M423.465,1636.9l24.802-61.304h-31.702v-9h42.303v9l-24.201,61.304H423.465z"/>
	<path d="M673.465,1603.199c0,14.101-11.401,21.801-26.102,21.801c-14.602,0-26.002-7.7-26.002-21.801
		c0-8.201,5.301-16.502,14.101-19.002c-7-2.6-12.2-8.3-12.2-16.501c0-12.5,10.101-20.101,24.102-20.101
		c14.101,0,24.201,7.601,24.201,20.101c0,8.201-5.2,13.901-12.201,16.501C668.064,1586.697,673.465,1594.998,673.465,1603.199z
		 M632.862,1603.098c0,9.2,6.2,13.701,14.501,13.701c8.3,0,14.501-4.501,14.501-13.701c0-7.4-4.801-14.101-14.501-14.101
		C637.662,1588.998,632.862,1595.698,632.862,1603.098z M634.763,1567.796c0,7.101,4.2,12.601,12.601,12.601
		c8.5,0,12.601-5.5,12.601-12.601c0-8.301-5.5-12.001-12.601-12.001C640.362,1555.795,634.763,1559.496,634.763,1567.796z"/>
	<path d="M876.16,1602.198c-3.899,4.801-10.601,8.401-17.601,8.401c-12.601,0-20.901-7.201-20.901-22.502
		c0-14.601,11.201-23.001,24.502-23.001c16.801,0,25.701,12.2,25.701,34.602c0,27.402-10.501,38.703-26.701,38.703
		c-12.901,0-21.502-6.101-22.702-18.802h11.501c1.101,8.701,6.7,10.601,11.201,10.601
		C869.96,1630.2,875.761,1624.599,876.16,1602.198z M875.961,1594.498c-0.9-15.001-5.9-21.201-13.801-21.201
		c-7.801,0-12.801,4.4-12.801,14.501c0,9.001,3.899,14.301,12.101,14.301C867.16,1602.098,872.86,1598.698,875.961,1594.498z"/>
	<path d="M1053.155,1594.998c0-17.801,8.5-29.901,24.201-29.901s24.201,12.101,24.201,29.901c0,17.802-8.5,30.002-24.201,30.002
		S1053.155,1612.799,1053.155,1594.998z M1089.857,1594.998c0-15.4-4.501-22.001-12.501-22.001c-8.001,0-12.501,6.601-12.501,22.001
		c0,15.401,4.5,22.102,12.501,22.102C1085.356,1617.099,1089.857,1610.399,1089.857,1594.998z"/>
	<path d="M1268.352,1595.098c0-17.701,8.201-29.802,23.802-29.802c15.501,0,23.802,12.101,23.802,29.802
		c0,17.801-8.301,29.901-23.802,29.901C1276.553,1625,1268.352,1612.899,1268.352,1595.098z M1280.553,1609.999l17.601-36.302
		c-1.8-0.9-3.8-1.4-6-1.4c-8.601,0-13.901,6.7-13.901,22.802C1278.252,1601.499,1279.053,1606.399,1280.553,1609.999z
		 M1306.054,1595.098c0-6.4-0.8-11.301-2.399-14.901l-17.602,36.303c1.8,1,3.801,1.399,6.101,1.399
		C1300.754,1617.899,1306.054,1611.298,1306.054,1595.098z"/>
	<path d="M1485.648,1623.5v-9.001h17.501v-37.602l-17.501,9v-10.301l17.501-9h11.301v47.902h16.501v9.001H1485.648z"/>
	<path d="M1745.148,1614.499v9.001h-43.902v-9.001c20.4-14.101,31.002-21.401,31.002-31.502c0-6.1-3.501-9.7-9.701-9.7
		c-6.7,0-10.801,3.7-11.501,12.501h-11.5c0.7-13.501,8.5-20.701,23.001-20.701c13.501,0,21.201,6.5,21.201,17.9
		c0,11.001-8.7,18.201-27.001,31.502H1745.148z"/>
	<path d="M221.668,1880.898v-8.2h7.4c9.201,0,13.701-5,13.701-12.4c0-7.9-4.801-11.001-11.201-11.001c-7.4,0-11.7,3.4-12.7,12.301
		h-11.501c1-12.9,10.001-20.501,24.401-20.501c13.401,0,22.602,6.9,22.602,19.301c0,6.301-4.4,13.501-12.101,15.801
		c10.101,1.801,13.9,9.701,13.9,16.602c0,13.2-10.801,21.602-24.401,21.602c-16.201,0-24.401-7.401-25.102-20.401h11.801
		c0.7,8.9,5.301,12.2,13.301,12.2c7.301,0,12.901-3.8,12.901-13.301c0-7.4-4.701-12.001-15.602-12.001H221.668z"/>
	<path d="M449.737,1890.499v-17.601h10.601v17.601h10.001v9.001h-10.001v13.4h-10.601v-13.4h-29.302v-9.001l20.201-47.902h11.001
		l-20.401,47.902H449.737z"/>
	<path d="M646.604,1895.099c0.7,8.2,5.5,11.101,11.9,11.101c7.301,0,11.901-4.9,11.901-16.201c0-11.5-4.7-15.601-12.201-15.601
		c-4.8,0-8.7,2.2-11.7,6.601h-10.001v-38.402h41.202v9h-31.201v20.901c3.5-4.2,8.9-6.6,14.601-6.6c11.9,0,20.802,7.7,20.802,24.101
		c0,15.602-10.401,24.402-23.402,24.402c-14.9,0-23.001-7.001-23.701-19.302H646.604z"/>
	<path d="M884.274,1842.696c-1.1-8.7-6.4-10.9-10.9-10.9c-8.501,0-14.401,6.9-15.001,30.102c4-4.9,10.601-8.4,17.601-8.4
		c12.601,0,21.002,7.9,21.002,23.602c0,14.901-11.201,23.901-24.502,23.901c-16.801,0-25.802-12.501-25.802-34.902
		c0-29.502,10.601-42.502,26.702-42.502c13.001,0,21.301,6.4,22.401,19.101H884.274z M858.473,1869.698
		c0.601,16.201,5.801,23.102,14.001,23.102c7.7,0,12.801-5.101,12.801-15.401c0-10.101-4-15.4-12.101-15.4
		C867.373,1861.998,861.573,1865.498,858.473,1869.698z"/>
	<path d="M1071.34,1912.9l26.802-61.304h-35.102v-9h45.702v9l-26.302,61.304H1071.34z"/>
	<path d="M1325.311,1879.199c0,14.101-11.4,21.801-26.001,21.801s-26.002-7.7-26.002-21.801c0-8.201,5.301-16.502,14.001-19.002
		c-7-2.6-12.2-8.3-12.2-16.501c0-12.5,10.101-20.101,24.201-20.101s24.102,7.601,24.102,20.101c0,8.201-5.2,13.901-12.101,16.501
		C1320.011,1862.697,1325.311,1870.998,1325.311,1879.199z M1284.809,1879.098c0,9.2,6.2,13.701,14.501,13.701
		s14.501-4.501,14.501-13.701c0-7.4-4.801-14.101-14.501-14.101C1289.608,1864.998,1284.809,1871.698,1284.809,1879.098z
		 M1286.709,1843.796c0,7.101,4.2,12.601,12.601,12.601s12.601-5.5,12.601-12.601c0-8.301-5.601-12.001-12.601-12.001
		C1292.309,1831.795,1286.709,1835.496,1286.709,1843.796z"/>
	<path d="M1525.979,1878.198c-4,4.801-10.601,8.401-17.601,8.401c-12.602,0-21.002-7.201-21.002-22.502
		c0-14.601,11.201-23.001,24.502-23.001c16.801,0,25.802,12.2,25.802,34.602c0,27.402-10.601,38.703-26.702,38.703
		c-13.001,0-21.602-6.101-22.701-18.802h11.501c1.1,8.701,6.7,10.601,11.2,10.601
		C1519.778,1906.2,1525.578,1900.599,1525.979,1878.198z M1525.778,1870.498c-0.899-15.001-6-21.201-13.9-21.201
		c-7.7,0-12.801,4.4-12.801,14.501c0,9.001,4,14.301,12.101,14.301C1516.878,1878.098,1522.679,1874.698,1525.778,1870.498z"/>
	<path d="M1701.145,1872.398c0-17.201,8.9-28.602,23.002-28.602c14,0,22.901,11.4,22.901,28.602
		c0,17.101-8.901,28.602-22.901,28.602C1710.045,1901,1701.145,1889.499,1701.145,1872.398z M1735.646,1872.398
		c0-13.601-4.9-20.501-11.5-20.501c-6.801,0-11.602,6.9-11.602,20.501s4.801,20.501,11.602,20.501
		C1730.746,1892.899,1735.646,1885.999,1735.646,1872.398z"/>
	<path d="M206.268,2148.398c0-17.201,8.6-28.602,22.501-28.602c14.001,0,22.501,11.4,22.501,28.602
		c0,17.101-8.5,28.602-22.501,28.602C214.867,2177,206.268,2165.499,206.268,2148.398z M218.067,2161.599l16.401-33.003
		c-1.7-1.199-3.7-1.8-5.7-1.8c-7.2,0-12.801,6.9-12.801,21.602C215.968,2153.898,216.668,2158.199,218.067,2161.599z
		 M241.669,2148.398c0-5.5-0.8-9.9-2.2-13.201l-16.501,33.103c1.7,1.1,3.7,1.7,5.801,1.7
		C235.969,2170,241.669,2163.099,241.669,2148.398z"/>
	<path d="M439.735,2175.5v-45.003l-13.201,6.801v-9.101l13.201-7.001h10.9v54.304H439.735z"/>
	<path d="M669.006,2167.399v8.101h-37.103v-8.101c16.001-14.4,26.102-22.501,26.102-31.901c0-5.001-3.4-7.801-7.7-7.801
		c-5.201,0-8.001,3.2-8.701,10h-11.101c0.601-11.5,8.301-17.9,19.802-17.9c10.9,0,18.301,5.5,18.301,15.701
		c0,9.6-7.7,18.101-23.302,31.901H669.006z"/>
	<path d="M856.571,2151.498v-7.8h5.601c7.4,0,10.801-3.9,10.801-8.701c0-4.5-3.1-7.3-8-7.3c-5.4,0-8.501,2.9-9.401,8.2h-11.101
		c0.801-9.9,8.9-16.101,20.502-16.101c12.101,0,19.101,5.2,19.101,14.9c0,5.2-3.5,10.701-10,12.501c8.4,1.4,11.4,7.501,11.4,12.9
		c0,10.201-8.301,16.901-20.602,16.901c-13.001,0-20.401-6.101-21.001-16.201h11.101c0.7,5.4,3.9,8.301,9.9,8.301
		c5.9,0,9.601-3.2,9.601-9.001c0-4.899-3.5-8.601-12.301-8.601H856.571z"/>
	<path d="M1090.241,2133.397c-0.9-4.2-3.3-5.7-7.301-5.7c-6.3,0-9.9,5.2-10.7,17.701c3.4-3.101,8-5.101,12.9-5.101
		c10.701,0,17.802,6.101,17.802,18.001c0,11.4-9.701,18.701-20.701,18.701c-13.701,0-21.302-9.9-21.302-25.701
		c0-20.302,8.4-31.502,22.302-31.502c10.301,0,17.301,5.3,18.101,13.601H1090.241z M1072.141,2151.999
		c0.1,11.7,3.1,17.101,10.101,17.101c6.2,0,9.7-4.4,9.7-10.801c0-6.101-3-10.501-9.501-10.501
		C1078.341,2147.797,1074.641,2149.598,1072.141,2151.999z"/>
	<path d="M1281.51,2175.5l19.701-46.203h-25.102v-8.101h35.302v8.101l-19.4,46.203H1281.51z"/>
	<path d="M1528.881,2160.999c0,10.9-9.501,16.001-21.502,16.001c-12,0-21.501-5.101-21.501-16.001c0-6.4,4.101-11.801,10.9-13.601
		c-5.6-1.9-9.5-6.301-9.5-12.401c0-9.7,8.5-15.2,20.101-15.2c11.602,0,20.102,5.5,20.102,15.2c0,6.101-3.9,10.501-9.5,12.401
		C1524.881,2149.198,1528.881,2154.598,1528.881,2160.999z M1507.379,2151.798c-6.7,0-10.3,3.4-10.3,9c0,6.4,4.7,8.4,10.3,8.4
		c5.501,0,10.401-2,10.401-8.4C1517.78,2155.199,1514.08,2151.798,1507.379,2151.798z M1507.379,2127.596c-4.7,0-9,2.101-9,7.801
		c0,5.2,3.2,8.4,9,8.4c5.801,0,9.001-3.2,9.001-8.4C1516.38,2129.697,1512.08,2127.596,1507.379,2127.596z"/>
	<path d="M1735.646,2150.098c-3.399,3-8.1,5-12.9,5c-10.7,0-17.701-5.4-17.701-17.001c0-11.7,9.601-18.301,20.602-18.301
		c13.801,0,21.401,9.9,21.401,25.701c0,20.302-8.4,31.502-22.302,31.502c-10.4,0-18.201-4.7-19.201-15.001h11.201
		c0.899,5.301,4.2,7.101,8.3,7.101C1731.547,2169.099,1735.047,2163.599,1735.646,2150.098z M1735.747,2143.498
		c-0.3-10.801-3.301-15.801-10.101-15.801c-6.101,0-9.701,4.1-9.701,10.4c0,5.801,3.101,9.501,9.601,9.501
		C1729.547,2147.598,1733.247,2145.998,1735.747,2143.498z"/>
	<path d="M204.167,2386.496c0-13.301,7.601-21.901,18.801-21.901c11.101,0,18.802,8.601,18.802,21.901s-7.701,21.901-18.802,21.901
		C211.768,2408.397,204.167,2399.796,204.167,2386.496z M231.769,2386.496c0-10.101-3.601-14.701-8.801-14.701
		c-5.3,0-8.9,4.601-8.9,14.701s3.601,14.801,8.9,14.801C228.168,2401.296,231.769,2396.596,231.769,2386.496z"/>
	<path d="M408.353,2407.497v-33.702l-10.301,5.301v-8.301l10.301-5.3h9.5v42.002H408.353z"/>
	<path d="M608.639,2400.396v7.101h-31.102v-7.101c13.101-11.101,21.302-16.601,21.302-22.801c0-4.301-2.101-6.101-6.101-6.101
		c-3.7,0-6.001,2.2-6.501,6.801h-9.7c0.4-9.001,6.801-13.701,16.201-13.701c9.101,0,15.701,4.4,15.701,13.001
		c0,7.601-5.701,12.2-18.401,22.801H608.639z"/>
	<path d="M775.821,2389.396v-7.001h5.201c4.8,0,7.8-1.899,7.8-5.7c0-3.8-2.6-5.2-6.3-5.2c-4.101,0-6.101,1.7-6.701,5.4h-9.8
		c0.699-7.801,7.2-12.301,16.501-12.301c9.3,0,15.801,4.4,15.801,11.9c0,3.7-2.601,7.701-8.001,9.101c6.9,1.101,9.201,5.7,9.201,9.9
		c0,7.901-7.801,12.901-16.701,12.901c-10.501,0-16.801-4.4-17.201-12.301h9.7c0.5,3.7,2.7,5.4,7.501,5.4
		c4.4,0,7.101-1.8,7.101-6.001c0-3.7-2.7-6.1-8.9-6.1H775.821z"/>
	<path d="M974.707,2393.396v-9.301h8.9v9.301h6.4v7.301h-6.4v6.8h-8.9v-6.8h-18.901v-7.301l13.101-27.901h9.201l-13.302,27.901
		H974.707z"/>
	<path d="M1154.79,2372.794v9.501c2.301-2.2,5.601-3.301,9.301-3.301c7.7,0,13.801,5.001,13.801,14.802
		c0,9.4-7.9,14.601-16.4,14.601c-9.701,0-15.501-4-15.901-11.4h9.7c0.5,2.7,2.2,4.5,6.201,4.5c4.3,0,6.9-2.5,6.9-7.7
		c0-5.301-2.101-7.9-6.701-7.9c-3.1,0-5.4,1.1-6.9,2.899h-8.101v-23.301h28.302v7.3H1154.79z"/>
	<path d="M1357.376,2374.995c-1-2.5-2.7-3.5-5.5-3.5c-4.7,0-7.301,3.8-8.001,12.4c2.601-2.3,6.001-3.7,9.601-3.7
		c9.201,0,14.802,4.801,14.802,14.001c0,8.801-7.801,14.201-16.502,14.201c-11.2,0-17.9-7.4-17.9-19.701
		c0-15.701,7.3-24.102,18.001-24.102c8.7,0,14.501,4,15.201,10.4H1357.376z M1343.775,2389.896c0.2,7.601,2.601,11.601,8,11.601
		c5.101,0,7.001-3.301,7.001-7.301c0-3.9-2.101-7.101-7.101-7.101C1348.575,2387.095,1345.775,2388.196,1343.775,2389.896z"/>
	<path d="M1558.962,2396.196c0,8.501-7.601,12.201-17.302,12.201c-9.8,0-17.4-3.7-17.4-12.201c0-4.9,3.2-9.101,8.9-10.5
		c-4.5-1.4-7.7-4.7-7.7-9.501c0-7.4,6.8-11.601,16.2-11.601c9.301,0,16.102,4.2,16.102,11.601c0,4.801-3.2,8.101-7.7,9.501
		C1555.762,2387.095,1558.962,2391.295,1558.962,2396.196z M1541.66,2389.496c-5.1,0-7.8,2-7.8,5.801c0,4.7,3.6,6.2,7.8,6.2
		c4.101,0,7.701-1.5,7.701-6.2C1549.361,2391.496,1546.661,2389.496,1541.66,2389.496z M1541.66,2371.495c-3.5,0-6.6,1.5-6.6,5.7
		c0,3.4,2.2,5.4,6.6,5.4c4.301,0,6.501-2,6.501-5.4C1548.161,2372.995,1545.061,2371.495,1541.66,2371.495z"/>
	<path d="M1739.246,2389.196c-2.501,2.3-6.001,3.601-9.501,3.601c-9.2,0-14.801-4.801-14.801-14.001
		c0-8.801,7.801-14.201,16.501-14.201c11.2,0,17.901,7.4,17.901,19.701c0,15.701-7.301,24.102-18.001,24.102
		c-8.701,0-14.901-4.2-15.501-11.201h9.7c0.9,3.2,3,4.301,5.801,4.301C1736.046,2401.497,1738.646,2397.696,1739.246,2389.196z
		 M1739.445,2383.196c-0.199-7.701-2.7-11.701-8-11.701c-5.101,0-7,3.3-7,7.301c0,3.899,2.1,7.2,7.1,7.2
		C1734.546,2385.996,1737.346,2384.895,1739.445,2383.196z"/>
	<path d="M213.468,2729c-4.101,0-7.2-3-7.2-7.201c0-4.199,3.1-7.199,7.2-7.199c4.1,0,7.2,3,7.2,7.199
		C220.668,2726,217.567,2729,213.468,2729z"/>
	<path d="M389.627,2743.5l2-27.4h11.001l-3.9,27.4H389.627z"/>
	<path d="M581.387,2676.197v-10.902h-11.601v-7.4h11.601v-11h7.501v11h11.8v7.4h-11.8v10.902H581.387z"/>
	<path d="M765.746,2665.196v-7.301h30.902v7.301H765.746z"/>
	<path d="M961.705,2658.595v-7.301h30.902v7.301H961.705z M961.705,2671.796v-7.301h30.902v7.301H961.705z"/>
	<path d="M1170.666,2690.998c-6.301-5.4-13.001-15.301-13.001-28.502c0-13.201,6.7-23.102,13.001-28.502h8.801
		c-7.201,6.7-11.801,18.102-11.801,28.502s4.6,21.801,11.801,28.502H1170.666z"/>
	<path d="M1339.323,2690.998c7.201-6.701,11.701-18.102,11.701-28.502s-4.5-21.802-11.701-28.502h8.801
		c6.2,5.4,13.001,15.301,13.001,28.502c0,13.202-6.801,23.102-13.001,28.502H1339.323z"/>
	<path d="M1526.184,2718.498c0-13.301,7.601-21.9,18.801-21.9c11.101,0,18.802,8.6,18.802,21.9s-7.701,21.902-18.802,21.902
		C1533.784,2740.4,1526.184,2731.799,1526.184,2718.498z M1553.785,2718.498c0-10.1-3.601-14.699-8.801-14.699
		c-5.3,0-8.9,4.6-8.9,14.699c0,10.102,3.601,14.803,8.9,14.803C1550.185,2733.301,1553.785,2728.6,1553.785,2718.498z"/>
	<path d="M1738.144,2739.5v-33.701l-10.301,5.299v-8.299l10.301-5.301h9.5v42.002H1738.144z"/>
	<path d="M236.269,3008.4v7.1h-31.102v-7.1c13.101-11.102,21.302-16.602,21.302-22.803c0-4.299-2.101-6.1-6.101-6.1
		c-3.7,0-6.001,2.199-6.501,6.801h-9.7c0.4-9,6.801-13.701,16.201-13.701c9.101,0,15.701,4.4,15.701,13
		c0,7.602-5.701,12.201-18.401,22.803H236.269z"/>
	<path d="M405.84,2997.398v-7h5.201c4.8,0,7.8-1.9,7.8-5.699c0-3.801-2.6-5.201-6.3-5.201c-4.101,0-6.101,1.699-6.701,5.4h-9.8
		c0.699-7.801,7.2-12.301,16.501-12.301c9.3,0,15.801,4.4,15.801,11.9c0,3.701-2.601,7.701-8.001,9.102
		c6.9,1.1,9.201,5.699,9.201,9.9c0,7.9-7.801,12.9-16.701,12.9c-10.501,0-16.801-4.4-17.201-12.301h9.7c0.5,3.699,2.7,5.4,7.501,5.4
		c4.4,0,7.101-1.801,7.101-6c0-3.701-2.7-6.102-8.9-6.102H405.84z"/>
	<path d="M607.112,3001.398v-9.299h8.9v9.299h6.4v7.301h-6.4v6.801h-8.9v-6.801h-18.901v-7.301l13.101-27.9h9.2l-13.301,27.9
		H607.112z"/>
	<path d="M789.583,2980.799v9.5c2.301-2.201,5.601-3.301,9.301-3.301c7.7,0,13.801,5,13.801,14.801c0,9.4-7.9,14.602-16.4,14.602
		c-9.701,0-15.501-4-15.901-11.4h9.7c0.5,2.699,2.2,4.5,6.201,4.5c4.3,0,6.9-2.5,6.9-7.701c0-5.299-2.101-7.9-6.701-7.9
		c-3.1,0-5.4,1.1-6.9,2.9h-8.101v-23.301h28.302v7.301H789.583z"/>
	<path d="M994.557,2982.998c-1-2.5-2.7-3.5-5.5-3.5c-4.7,0-7.301,3.801-8.001,12.4c2.601-2.299,6.001-3.699,9.601-3.699
		c9.201,0,14.801,4.799,14.801,14c0,8.801-7.8,14.201-16.501,14.201c-11.2,0-17.9-7.4-17.9-19.701
		c0-15.701,7.3-24.102,18.001-24.102c8.7,0,14.501,4,15.201,10.4H994.557z M980.956,2997.898c0.2,7.602,2.601,11.602,8,11.602
		c5.101,0,7.001-3.301,7.001-7.301c0-3.9-2.101-7.1-7.101-7.1C985.756,2995.1,982.956,2996.199,980.956,2997.898z"/>
	<path d="M1166.628,3015.5l16.102-34.701h-19.602v-7.301h28.502v7.301l-15.802,34.701H1166.628z"/>
	<path d="M1384.701,3004.199c0,8.5-7.601,12.201-17.302,12.201c-9.8,0-17.4-3.701-17.4-12.201c0-4.9,3.2-9.1,8.9-10.5
		c-4.5-1.4-7.7-4.701-7.7-9.5c0-7.4,6.8-11.602,16.2-11.602c9.301,0,16.102,4.201,16.102,11.602c0,4.799-3.2,8.1-7.7,9.5
		C1381.501,2995.1,1384.701,2999.299,1384.701,3004.199z M1367.399,2997.5c-5.1,0-7.8,2-7.8,5.799c0,4.701,3.6,6.201,7.8,6.201
		c4.101,0,7.701-1.5,7.701-6.201C1375.101,2999.5,1372.4,2997.5,1367.399,2997.5z M1367.399,2979.498c-3.5,0-6.6,1.5-6.6,5.701
		c0,3.398,2.2,5.4,6.6,5.4c4.301,0,6.501-2.002,6.501-5.4C1373.9,2980.998,1370.8,2979.498,1367.399,2979.498z"/>
	<path d="M1567.373,2997.199c-2.501,2.301-6.001,3.6-9.501,3.6c-9.2,0-14.801-4.799-14.801-14c0-8.801,7.801-14.201,16.501-14.201
		c11.2,0,17.901,7.4,17.901,19.701c0,15.701-7.301,24.102-18.001,24.102c-8.701,0-14.901-4.201-15.501-11.201h9.7
		c0.9,3.201,3,4.301,5.801,4.301C1564.173,3009.5,1566.772,3005.699,1567.373,2997.199z M1567.572,2991.199
		c-0.199-7.701-2.7-11.701-8-11.701c-5.101,0-7,3.301-7,7.301c0,3.9,2.1,7.199,7.1,7.199
		C1562.673,2993.998,1565.473,2992.898,1567.572,2991.199z"/>
	<path d="M1742.744,3016.4c-3.4,0-5.9-2.5-5.9-5.801s2.5-5.801,5.9-5.801c3.3,0,5.801,2.5,5.801,5.801
		S1746.044,3016.4,1742.744,3016.4z"/>
	<path d="M204.167,3302.5l1.3-17.801h9.001l-2.601,17.801H204.167z"/>
	<path d="M383.679,3284.199v-10.9h-11.601v-7.4h11.601v-11h7.501v11h11.801v7.4H391.18v10.9H383.679z"/>
	<path d="M560.587,3273.199v-7.301h30.901v7.301H560.587z"/>
	<path d="M749.097,3266.6v-7.301h30.901v7.301H749.097z M749.097,3279.799v-7.299h30.901v7.299H749.097z"/>
	<path d="M950.607,3299c-6.301-5.4-13.001-15.301-13.001-28.502c0-13.199,6.7-23.1,13.001-28.5h8.801
		c-7.201,6.699-11.801,18.1-11.801,28.5c0,10.402,4.6,21.803,11.801,28.502H950.607z"/>
	<path d="M1111.814,3299c7.201-6.699,11.701-18.1,11.701-28.502c0-10.4-4.5-21.801-11.701-28.5h8.801
		c6.2,5.4,13.001,15.301,13.001,28.5c0,13.201-6.801,23.102-13.001,28.502H1111.814z"/>
	<path d="M1293.225,3244.498c0-22.102,10.201-36.502,27.002-36.502s26.901,14.4,26.901,36.502S1337.027,3281,1320.227,3281
		S1293.225,3266.6,1293.225,3244.498z M1334.928,3244.498c0-18.502-5.9-27.602-14.701-27.602s-14.801,9.1-14.801,27.602
		c0,18.5,6,27.602,14.801,27.602S1334.928,3262.998,1334.928,3244.498z"/>
	<path d="M1524.236,3279.5v-59.805l-16.501,8.801v-10l16.501-9h11.601v70.004H1524.236z"/>
	<path d="M1748.748,3270.6v8.9h-45.902v-8.9c20.102-19.002,33.002-30.402,33.002-42.504c0-7.799-4.2-11.4-10.4-11.4
		c-6.801,0-11.4,3.9-12.201,14.102h-12.101c0.7-14.9,9.801-22.801,24.302-22.801c13.501,0,22.301,7,22.301,20.1
		c0,12.701-10.9,24.402-30.401,42.504H1748.748z"/>
	<path d="M220.868,3523.998v-8.9h7.101c9.3,0,13.801-5.4,13.801-11.801c0-7.102-4.601-10.602-10.801-10.602
		c-6.7,0-11.201,3.602-12.201,11.801h-12.2c1-12.9,10-20.5,24.401-20.5c13.4,0,22.602,6.9,22.602,19.301
		c0,6.301-4.301,13.301-12.102,15.701c10.102,1.799,13.901,9.5,13.901,16.4c0,13.201-10.7,21.602-24.401,21.602
		c-16.201,0-24.401-7.4-25.102-20.402h12.101c0.8,8.201,5.4,11.701,13.001,11.701c7.301,0,12.601-5,12.601-12.9
		c0-6.4-4.601-11.4-15.601-11.4H220.868z"/>
	<path d="M448.638,3533.598v-17.1h10.9v17.1h9.4v8.9h-9.4v13.002h-10.9v-13.002h-29.602v-8.9l20.201-48.102h11.101l-20.302,48.102
		H448.638z"/>
	<path d="M645.203,3537.998c0.801,7.5,5.2,10.301,11.601,10.301c7.101,0,11.601-5.5,11.601-15.602c0-10.5-3.8-15.1-11.3-15.1
		c-4.801,0-9.101,1.9-12.201,6.301h-10.001v-38.402h41.203v8.9h-31.202v21.801c3.601-4.801,9.4-7.4,15.101-7.4
		c11.901,0,20.302,7.5,20.302,23.9c0,15.602-10.4,24.303-23.502,24.303c-14.9,0-23.001-6.701-23.701-19.002H645.203z"/>
	<path d="M881.273,3501.096c-1.1-6-4-8.4-9.601-8.4c-8.5,0-13.4,7.4-14.301,25.602c4-4.699,10.301-8.199,17.001-8.199
		c12.601,0,20.901,7.9,20.901,23.301c0,14.602-11.2,23.602-24.501,23.602c-16.802,0-25.702-12.4-25.702-32.803
		c0-26.102,10.501-40.201,26.602-40.201c13.001,0,20.602,6.4,21.701,17.1H881.273z M857.272,3525.797
		c0.3,15.701,4.9,22.502,13.501,22.502c7.8,0,12.601-5.9,12.601-14.9c0-8.801-3.7-14.502-11.901-14.502
		C865.673,3518.896,860.372,3521.797,857.272,3525.797z"/>
	<path d="M1063.641,3555.5l24.802-61.104h-31.702v-8.9h42.303v8.9l-24.201,61.104H1063.641z"/>
	<path d="M1312.012,3536.799c0,14.1-11.001,20.201-25.602,20.201s-25.602-6.201-25.602-20.201c0-8.301,4.9-15.301,13.601-17.502
		c-6.9-2.6-11.7-8-11.7-15.9c0-12.4,9.601-19.4,23.701-19.4s23.701,7,23.701,19.4c0,7.9-4.7,13.301-11.7,15.9
		C1307.111,3521.498,1312.012,3528.498,1312.012,3536.799z M1286.41,3524.297c-9.5,0-13.9,5.102-13.9,12.201
		c0,8.201,5.8,11.801,13.9,11.801s13.901-3.6,13.901-11.801C1300.312,3529.398,1295.911,3524.297,1286.41,3524.297z
		 M1286.41,3492.695c-7,0-12.101,3.701-12.101,11.002c0,6.799,3.7,11.699,12.101,11.699s12.101-4.9,12.101-11.699
		C1298.511,3496.396,1293.411,3492.695,1286.41,3492.695z"/>
	<path d="M1515.379,3520.896c-3.9,4.801-10.301,8.301-17.001,8.301c-12.601,0-20.901-7.1-20.901-22.102
		c0-14.4,11.201-23.1,24.502-23.1c16.801,0,25.701,12.4,25.701,32.801c0,26.102-9.801,40.203-26.701,40.203
		c-13.201,0-21.802-6.5-22.602-18.801h12.101c0.9,7.4,4.8,10.1,10.501,10.1C1510.579,3548.299,1514.879,3540.398,1515.379,3520.896z
		 M1515.379,3513.697c-0.6-14.602-5.2-21.002-13.4-21.002c-7.801,0-12.701,5.301-12.701,14.4c0,8.402,3.8,13.301,12.001,13.301
		C1506.979,3520.396,1512.179,3517.598,1515.379,3513.697z"/>
	<path d="M1693.146,3520.498c0-22.102,10.201-36.502,27.002-36.502s26.901,14.4,26.901,36.502S1736.948,3557,1720.147,3557
		S1693.146,3542.6,1693.146,3520.498z M1734.848,3520.498c0-18.502-5.899-27.602-14.7-27.602s-14.801,9.1-14.801,27.602
		c0,18.5,6,27.602,14.801,27.602S1734.848,3538.998,1734.848,3520.498z"/>
	<path d="M221.668,3831.5v-59.805l-16.501,8.801v-10l16.501-9h11.601v70.004H221.668z"/>
	<path d="M453.424,3822.6v8.9h-45.902v-8.9c20.102-19.002,33.002-30.402,33.002-42.504c0-7.799-4.2-11.4-10.4-11.4
		c-6.801,0-11.4,3.9-12.201,14.102h-12.101c0.7-14.9,9.801-22.801,24.302-22.801c13.501,0,22.301,7,22.301,20.1
		c0,12.701-10.9,24.402-30.401,42.504H453.424z"/>
	<path d="M635.276,3799.998v-8.9h7.101c9.3,0,13.801-5.4,13.801-11.801c0-7.102-4.601-10.602-10.801-10.602
		c-6.7,0-11.201,3.602-12.201,11.801h-12.2c1-12.9,10-20.5,24.401-20.5c13.4,0,22.602,6.9,22.602,19.301
		c0,6.301-4.301,13.301-12.102,15.701c10.102,1.799,13.901,9.5,13.901,16.4c0,13.201-10.7,21.602-24.401,21.602
		c-16.201,0-24.401-7.4-25.102-20.402h12.101c0.8,8.201,5.4,11.701,13.001,11.701c7.301,0,12.601-5,12.601-12.9
		c0-6.4-4.601-11.4-15.601-11.4H635.276z"/>
	<path d="M866.432,3809.598v-17.1h10.9v17.1h9.4v8.9h-9.4v13.002h-10.9v-13.002H836.83v-8.9l20.201-48.102h11.101l-20.302,48.102
		H866.432z"/>
	<path d="M1090.485,3777.096c-1.1-6-4-8.4-9.601-8.4c-8.5,0-13.4,7.4-14.301,25.602c4-4.699,10.301-8.199,17.001-8.199
		c12.601,0,20.901,7.9,20.901,23.301c0,14.602-11.2,23.602-24.502,23.602c-16.801,0-25.701-12.4-25.701-32.803
		c0-26.102,10.501-40.201,26.602-40.201c13.001,0,20.602,6.4,21.701,17.1H1090.485z M1066.484,3801.797
		c0.3,15.701,4.9,22.502,13.5,22.502c7.801,0,12.602-5.9,12.602-14.9c0-8.801-3.7-14.502-11.901-14.502
		C1074.885,3794.896,1069.584,3797.797,1066.484,3801.797z"/>
	<path d="M1276.237,3831.5l24.802-61.104h-31.702v-8.9h42.303v8.9l-24.201,61.104H1276.237z"/>
	<path d="M1527.995,3812.799c0,14.1-11.001,20.201-25.602,20.201s-25.602-6.201-25.602-20.201c0-8.301,4.9-15.301,13.601-17.502
		c-6.9-2.6-11.7-8-11.7-15.9c0-12.4,9.601-19.4,23.701-19.4s23.701,7,23.701,19.4c0,7.9-4.7,13.301-11.7,15.9
		C1523.095,3797.498,1527.995,3804.498,1527.995,3812.799z M1502.394,3800.297c-9.501,0-13.9,5.102-13.9,12.201
		c0,8.201,5.8,11.801,13.9,11.801s13.901-3.6,13.901-11.801C1516.295,3805.398,1511.895,3800.297,1502.394,3800.297z
		 M1502.394,3768.695c-7,0-12.101,3.701-12.101,11.002c0,6.799,3.7,11.699,12.101,11.699s12.101-4.9,12.101-11.699
		C1514.494,3772.396,1509.395,3768.695,1502.394,3768.695z"/>
	<path d="M1734.747,3796.896c-3.9,4.801-10.301,8.301-17.001,8.301c-12.601,0-20.901-7.1-20.901-22.102
		c0-14.4,11.201-23.1,24.502-23.1c16.801,0,25.701,12.4,25.701,32.801c0,26.102-9.801,40.203-26.701,40.203
		c-13.201,0-21.802-6.5-22.602-18.801h12.101c0.9,7.4,4.8,10.1,10.501,10.1C1729.947,3824.299,1734.247,3816.398,1734.747,3796.896z
		 M1734.747,3789.697c-0.6-14.602-5.2-21.002-13.4-21.002c-7.801,0-12.701,5.301-12.701,14.4c0,8.402,3.8,13.301,12.001,13.301
		C1726.347,3796.396,1731.547,3793.598,1734.747,3789.697z"/>
	<path d="M216.768,4079.498v-33.703l-10.301,5.301v-8.301l10.301-5.299h9.501v42.002H216.768z M214.567,4107.5l44.703-70.004h11.001
		l-44.703,70.004H214.567z M266.671,4093.398v-9.301h8.9v9.301h6.4v7.301h-6.4v6.801h-8.9v-6.801H247.77v-7.301l13.101-27.902h9.201
		l-13.301,27.902H266.671z"/>
	<path d="M454.097,4079.498v-33.703l-10.301,5.301v-8.301l10.301-5.299h9.501v42.002H454.097z M451.896,4107.5l44.703-70.004h11
		l-44.702,70.004H451.896z M522.301,4100.398v7.102h-31.102v-7.102c13.101-11.1,21.301-16.6,21.301-22.801c0-4.301-2.1-6.1-6.1-6.1
		c-3.7,0-6.001,2.199-6.501,6.799h-9.7c0.399-9,6.8-13.699,16.201-13.699c9.101,0,15.7,4.4,15.7,13c0,7.6-5.7,12.201-18.4,22.801
		H522.301z"/>
	<path d="M694.326,4061.396v-7h5.2c4.8,0,7.801-1.9,7.801-5.701c0-3.799-2.601-5.199-6.301-5.199c-4.101,0-6.101,1.699-6.7,5.4
		h-9.801c0.7-7.801,7.2-12.301,16.501-12.301s15.801,4.4,15.801,11.9c0,3.699-2.6,7.701-8,9.1c6.9,1.102,9.2,5.701,9.2,9.902
		c0,7.9-7.801,12.9-16.701,12.9c-10.5,0-16.801-4.4-17.201-12.301h9.701c0.5,3.699,2.7,5.4,7.5,5.4c4.4,0,7.101-1.801,7.101-6
		c0-3.701-2.7-6.102-8.9-6.102H694.326z M700.227,4107.5l44.702-70.004h11.001l-44.703,70.004H700.227z M752.329,4093.398v-9.301
		h8.901v9.301h6.4v7.301h-6.4v6.801h-8.901v-6.801h-18.9v-7.301l13.101-27.902h9.2l-13.301,27.902H752.329z"/>
	<path d="M939.655,4079.498v-33.703l-10.301,5.301v-8.301l10.301-5.299h9.501v42.002H939.655z M937.455,4107.5l44.703-70.004h11
		l-44.702,70.004H937.455z M1010.06,4096.199c0,8.5-7.601,12.201-17.301,12.201c-9.801,0-17.401-3.701-17.401-12.201
		c0-4.9,3.2-9.102,8.9-10.502c-4.5-1.398-7.7-4.699-7.7-9.5c0-7.4,6.801-11.6,16.201-11.6c9.301,0,16.101,4.199,16.101,11.6
		c0,4.801-3.2,8.102-7.7,9.5C1006.859,4087.098,1010.06,4091.299,1010.06,4096.199z M992.759,4089.498c-5.101,0-7.801,2-7.801,5.801
		c0,4.701,3.601,6.201,7.801,6.201c4.101,0,7.7-1.5,7.7-6.201C1000.459,4091.498,997.759,4089.498,992.759,4089.498z
		 M992.759,4071.498c-3.5,0-6.601,1.5-6.601,5.699c0,3.4,2.2,5.4,6.601,5.4c4.3,0,6.5-2,6.5-5.4
		C999.259,4072.998,996.159,4071.498,992.759,4071.498z"/>
	<path d="M1181.986,4061.396v-7h5.2c4.8,0,7.801-1.9,7.801-5.701c0-3.799-2.601-5.199-6.301-5.199c-4.101,0-6.101,1.699-6.7,5.4
		h-9.801c0.7-7.801,7.2-12.301,16.501-12.301s15.801,4.4,15.801,11.9c0,3.699-2.6,7.701-8,9.1c6.9,1.102,9.2,5.701,9.2,9.902
		c0,7.9-7.801,12.9-16.701,12.9c-10.5,0-16.801-4.4-17.201-12.301h9.701c0.5,3.699,2.7,5.4,7.5,5.4c4.4,0,7.101-1.801,7.101-6
		c0-3.701-2.7-6.102-8.9-6.102H1181.986z M1187.887,4107.5l44.702-70.004h11.001l-44.703,70.004H1187.887z M1260.391,4096.199
		c0,8.5-7.601,12.201-17.301,12.201c-9.801,0-17.401-3.701-17.401-12.201c0-4.9,3.2-9.102,8.9-10.502c-4.5-1.398-7.7-4.699-7.7-9.5
		c0-7.4,6.801-11.6,16.201-11.6c9.301,0,16.101,4.199,16.101,11.6c0,4.801-3.2,8.102-7.7,9.5
		C1257.19,4087.098,1260.391,4091.299,1260.391,4096.199z M1243.09,4089.498c-5.101,0-7.801,2-7.801,5.801
		c0,4.701,3.601,6.201,7.801,6.201c4.101,0,7.7-1.5,7.7-6.201C1250.79,4091.498,1248.09,4089.498,1243.09,4089.498z
		 M1243.09,4071.498c-3.5,0-6.601,1.5-6.601,5.699c0,3.4,2.2,5.4,6.601,5.4c4.3,0,6.5-2,6.5-5.4
		C1249.59,4072.998,1246.49,4071.498,1243.09,4071.498z"/>
	<path d="M1431.417,4044.795v9.502c2.3-2.201,5.6-3.301,9.3-3.301c7.701,0,13.802,5,13.802,14.801c0,9.4-7.901,14.602-16.401,14.602
		c-9.701,0-15.501-4-15.901-11.4h9.701c0.5,2.699,2.2,4.5,6.2,4.5c4.3,0,6.9-2.5,6.9-7.701c0-5.301-2.101-7.9-6.7-7.9
		c-3.101,0-5.4,1.1-6.9,2.9h-8.101v-23.301h28.302v7.299H1431.417z M1436.317,4107.5l44.702-70.004h11.001l-44.703,70.004H1436.317z
		 M1508.821,4096.199c0,8.5-7.601,12.201-17.301,12.201c-9.801,0-17.401-3.701-17.401-12.201c0-4.9,3.2-9.102,8.9-10.502
		c-4.5-1.398-7.7-4.699-7.7-9.5c0-7.4,6.801-11.6,16.201-11.6c9.301,0,16.101,4.199,16.101,11.6c0,4.801-3.2,8.102-7.7,9.5
		C1505.621,4087.098,1508.821,4091.299,1508.821,4096.199z M1491.521,4089.498c-5.101,0-7.801,2-7.801,5.801
		c0,4.701,3.601,6.201,7.801,6.201c4.101,0,7.7-1.5,7.7-6.201C1499.221,4091.498,1496.521,4089.498,1491.521,4089.498z
		 M1491.521,4071.498c-3.5,0-6.601,1.5-6.601,5.699c0,3.4,2.2,5.4,6.601,5.4c4.3,0,6.5-2,6.5-5.4
		C1498.021,4072.998,1494.921,4071.498,1491.521,4071.498z"/>
	<path d="M1674.146,4079.498l16.101-34.703h-19.602v-7.299h28.502v7.299l-15.801,34.703H1674.146z M1674.146,4107.5l44.702-70.004
		h11.001l-44.703,70.004H1674.146z M1746.65,4096.199c0,8.5-7.601,12.201-17.301,12.201c-9.801,0-17.401-3.701-17.401-12.201
		c0-4.9,3.2-9.102,8.9-10.502c-4.5-1.398-7.7-4.699-7.7-9.5c0-7.4,6.801-11.6,16.201-11.6c9.301,0,16.101,4.199,16.101,11.6
		c0,4.801-3.2,8.102-7.7,9.5C1743.45,4087.098,1746.65,4091.299,1746.65,4096.199z M1729.35,4089.498c-5.101,0-7.801,2-7.801,5.801
		c0,4.701,3.601,6.201,7.801,6.201c4.1,0,7.7-1.5,7.7-6.201C1737.05,4091.498,1734.35,4089.498,1729.35,4089.498z M1729.35,4071.498
		c-3.5,0-6.601,1.5-6.601,5.699c0,3.4,2.2,5.4,6.601,5.4c4.3,0,6.5-2,6.5-5.4C1735.85,4072.998,1732.75,4071.498,1729.35,4071.498z"
		/>
	<path d="M216.768,4355.498v-33.703l-10.301,5.301v-8.301l10.301-5.299h9.501v42.002H216.768z M214.567,4383.5l44.703-70.004h11.001
		l-44.703,70.004H214.567z M262.87,4365.398v-7h5.201c4.8,0,7.8-1.9,7.8-5.701s-2.6-5.199-6.3-5.199c-4.101,0-6.101,1.699-6.701,5.4
		h-9.8c0.699-7.801,7.2-12.301,16.501-12.301c9.3,0,15.801,4.4,15.801,11.9c0,3.699-2.601,7.699-8.001,9.1
		c6.9,1.102,9.201,5.701,9.201,9.9c0,7.9-7.801,12.902-16.701,12.902c-10.501,0-16.801-4.4-17.201-12.301h9.7
		c0.5,3.699,2.7,5.4,7.501,5.4c4.4,0,7.101-1.801,7.101-6.002c0-3.699-2.7-6.1-8.9-6.1H262.87z"/>
	<path d="M478.668,4348.396v7.102h-31.103v-7.102c13.102-11.1,21.302-16.6,21.302-22.801c0-4.301-2.101-6.1-6.101-6.1
		c-3.7,0-6,2.199-6.5,6.801h-9.701c0.4-9.002,6.801-13.701,16.201-13.701c9.101,0,15.701,4.4,15.701,13
		c0,7.602-5.7,12.201-18.401,22.801H478.668z M464.767,4383.5l44.703-70.004h11.001l-44.703,70.004H464.767z M513.069,4365.398v-7
		h5.201c4.8,0,7.8-1.9,7.8-5.701s-2.6-5.199-6.3-5.199c-4.101,0-6.101,1.699-6.701,5.4h-9.8c0.699-7.801,7.2-12.301,16.501-12.301
		c9.3,0,15.801,4.4,15.801,11.9c0,3.699-2.601,7.699-8.001,9.1c6.9,1.102,9.201,5.701,9.201,9.9c0,7.9-7.801,12.902-16.701,12.902
		c-10.501,0-16.801-4.4-17.201-12.301h9.7c0.5,3.699,2.7,5.4,7.501,5.4c4.4,0,7.101-1.801,7.101-6.002c0-3.699-2.7-6.1-8.9-6.1
		H513.069z"/>
	<path d="M696.766,4334.496c0-13.301,7.601-21.9,18.802-21.9c11.101,0,18.801,8.6,18.801,21.9s-7.7,21.902-18.801,21.902
		C704.366,4356.398,696.766,4347.797,696.766,4334.496z M724.367,4334.496c0-10.1-3.6-14.701-8.8-14.701
		c-5.301,0-8.9,4.602-8.9,14.701c0,10.102,3.6,14.801,8.9,14.801C720.768,4349.297,724.367,4344.598,724.367,4334.496z
		 M713.967,4383.5l44.703-70.004h11l-44.702,70.004H713.967z M749.77,4362.498c0-13.301,7.6-21.9,18.801-21.9
		c11.101,0,18.801,8.6,18.801,21.9s-7.7,21.902-18.801,21.902C757.369,4384.4,749.77,4375.799,749.77,4362.498z M777.371,4362.498
		c0-10.1-3.601-14.701-8.801-14.701c-5.301,0-8.9,4.602-8.9,14.701c0,10.102,3.6,14.801,8.9,14.801
		C773.771,4377.299,777.371,4372.6,777.371,4362.498z"/>
	<path d="M947.365,4334.496c0-13.301,7.601-21.9,18.802-21.9c11.101,0,18.801,8.6,18.801,21.9s-7.7,21.902-18.801,21.902
		C954.966,4356.398,947.365,4347.797,947.365,4334.496z M974.967,4334.496c0-10.1-3.6-14.701-8.8-14.701
		c-5.301,0-8.9,4.602-8.9,14.701c0,10.102,3.6,14.801,8.9,14.801C971.367,4349.297,974.967,4344.598,974.967,4334.496z
		 M964.566,4383.5l44.703-70.004h11l-44.702,70.004H964.566z M1000.369,4362.498c0-13.301,7.6-21.9,18.801-21.9
		c11.101,0,18.801,8.6,18.801,21.9s-7.7,21.902-18.801,21.902C1007.969,4384.4,1000.369,4375.799,1000.369,4362.498z
		 M1027.971,4362.498c0-10.1-3.601-14.701-8.801-14.701c-5.301,0-8.9,4.602-8.9,14.701c0,10.102,3.6,14.801,8.9,14.801
		C1024.37,4377.299,1027.971,4372.6,1027.971,4362.498z M1041.972,4362.498c0-13.301,7.601-21.9,18.801-21.9
		c11.101,0,18.801,8.6,18.801,21.9s-7.7,21.902-18.801,21.902C1049.572,4384.4,1041.972,4375.799,1041.972,4362.498z
		 M1069.573,4362.498c0-10.1-3.601-14.701-8.801-14.701c-5.301,0-8.9,4.602-8.9,14.701c0,10.102,3.6,14.801,8.9,14.801
		C1065.973,4377.299,1069.573,4372.6,1069.573,4362.498z"/>
</g>
</svg>
