<?xml version="1.0" encoding="utf-8"?>
<!-- Generator: Adobe Illustrator 16.0.3, SVG Export Plug-In . SVG Version: 6.00 Build 0)  -->
<!DOCTYPE svg PUBLIC "-//W3C//DTD SVG 1.1//EN" "http://www.w3.org/Graphics/SVG/1.1/DTD/svg11.dtd">
<svg version="1.1" id="Layer_1" xmlns="http://www.w3.org/2000/svg" xmlns:xlink="http://www.w3.org/1999/xlink" x="0px" y="0px"
	 width="2007.464px" height="4603.488px" viewBox="0 0 2007.464 4603.488" enable-background="new 0 0 2007.464 4603.488"
	 xml:space="preserve">
<rect fill="#FFFFFF" width="2007.464" height="4603.488"/>
<g>
	<path d="M242.77,243.5l-4.9-13.4h-20.302l-4.6,13.4h-10.501l20.201-54.304h10.301L254.57,243.5H242.77z M220.268,222.098h14.602
		l-3.9-10.801l-3.601-10.9l-3.4,10.9L220.268,222.098z"/>
	<path d="M421.606,243.5v-54.304h19.901c11.101,0,20.901,3.801,20.901,14.501c0,5.501-3.7,10.001-9.001,11.401
		c6.301,1.1,11.201,5.4,11.201,12.9c0,10.601-9.301,15.501-21.401,15.501H421.606z M441.508,212.398
		c5.801,0,9.801-2.101,9.801-8.001s-4.101-7.601-9.801-7.601h-9.001v15.602H441.508z M443.208,235.899c7,0,10.4-2.1,10.4-8
		c0-6.001-4.5-8.001-10.4-8.001h-10.701v16.001H443.208z"/>
	<path d="M680.148,225.499c-1.5,13.101-11.4,19.501-23.401,19.501c-15.701,0-25.102-11.4-25.102-28.602s9.4-28.602,25.102-28.602
		c12.001,0,21.901,6.3,23.401,19.401h-11.501c-1.1-8.201-5.1-11.501-11.9-11.501c-8.601,0-13.601,7.4-13.601,20.701
		s5,20.701,13.601,20.701c6.801,0,10.801-3.3,11.9-11.601H680.148z"/>
	<path d="M850.585,243.5v-54.304h18.001c18.302,0,29.902,10.001,29.902,27.202c0,17.101-11.601,27.102-29.902,27.102H850.585z
		 M868.586,235.599c10.701,0,18.401-5.2,18.401-19.201s-7.7-19.201-18.401-19.201h-7.101v38.402H868.586z"/>
	<path d="M1069.225,243.5v-54.304h35.202v8.001h-24.302v13.9h22.702v7.9h-22.702v16.602h24.302v7.9H1069.225z"/>
	<path d="M1275.765,243.5v-54.304h34.302v8.001h-23.401v15.4h21.802v7.901h-21.802V243.5H1275.765z"/>
	<path d="M1513.606,243.5v-4.9c-3.399,3.5-9.601,6.4-15.301,6.4c-14.7,0-22.201-11.4-22.201-28.602s9.4-28.602,25.102-28.602
		c12.001,0,21.701,6.2,23.201,18.201h-11.5c-1.101-7.101-4.9-10.301-11.701-10.301c-8.601,0-13.601,7.4-13.601,20.701
		s4.4,20.701,13.301,20.701c4.9,0,9.7-2.601,12.7-5.5v-7.9h-12.301v-7.701h22.702V243.5H1513.606z"/>
	<path d="M1732.447,243.5v-24.502h-25.102V243.5h-10.9v-54.304h10.9v21.901h25.102v-21.901h10.901V243.5H1732.447z"/>
	<path d="M209.867,519.5v-54.304h10.9V519.5H209.867z"/>
	<path d="M420.966,465.196h10.9v36.803c0,12.9-9.4,19.001-19.602,19.001c-10.601,0-19.801-4.9-20.201-19.602h11.601
		c0.4,8.901,3.601,11.501,8.601,11.501c5.601,0,8.701-3.3,8.701-9.301V465.196z"/>
	<path d="M607.562,519.5v-54.304h10.9v25.402l19.401-25.402h11.201l-19.901,24.902l23.001,29.401h-13.2l-20.502-27.602V519.5
		H607.562z"/>
	<path d="M822.958,519.5v-54.304h10.901v46.403h21.701v7.9H822.958z"/>
	<path d="M1075.457,519.5v-25.901l0.2-9.9l-13.4,32.701h-9.201l-14-33.802l0.1,11.001V519.5h-9.801v-54.304h11.801l16.701,40.103
		l16.901-40.103h10.9V519.5H1075.457z"/>
	<path d="M1297.553,519.5l-25.501-39.303l0.1,11.001V519.5h-9.801v-54.304h10.701l25.602,39.402l-0.301-11.101v-28.302h9.901V519.5
		H1297.553z"/>
	<path d="M1481.248,492.398c0-17.201,10.801-28.602,26.702-28.602c15.801,0,26.701,11.4,26.701,28.602S1523.751,521,1507.95,521
		C1492.049,521,1481.248,509.599,1481.248,492.398z M1523.051,492.398c0-13.301-6.2-20.701-15.101-20.701
		c-9.001,0-15.201,7.4-15.201,20.701s6.2,20.701,15.201,20.701C1516.851,513.099,1523.051,505.699,1523.051,492.398z"/>
	<path d="M1707.645,519.5v-54.304h19.401c10.7,0,20.701,5.9,20.701,18.002c0,12-10.001,17.9-20.701,17.9h-8.501V519.5H1707.645z
		 M1727.046,493.198c5.5,0,9.7-2.6,9.7-10c0-7.401-4.2-10.201-9.7-10.201h-8.501v20.201H1727.046z"/>
	<path d="M206.167,768.398c0-17.201,10.801-28.602,26.702-28.602c15.801,0,26.701,11.4,26.701,28.602
		c0,12.2-5.4,21.401-14.201,25.802l12.701,13.001h-13.201l-9.7-10.301c-0.8,0-1.601,0.1-2.3,0.1
		C216.968,797,206.167,785.599,206.167,768.398z M247.97,768.398c0-13.301-6.2-20.701-15.101-20.701
		c-9.001,0-15.201,7.4-15.201,20.701s6.2,20.701,15.201,20.701C241.77,789.099,247.97,781.699,247.97,768.398z"/>
	<path d="M423.863,768.398c0-17.201,10.8-28.602,26.501-28.602s26.401,11.4,26.401,28.602S466.065,797,450.364,797
		S423.863,785.599,423.863,768.398z M466.766,768.398c0-14.301-7.001-21.701-16.401-21.701s-16.4,7.4-16.4,21.701
		s7,21.701,16.4,21.701S466.766,782.699,466.766,768.398z M439.964,807.701v-6.9h29.502v6.9H439.964z"/>
	<path d="M675.062,795.5l-13.301-20.102h-6.001V795.5h-10.9v-54.304h18.901c10.7,0,20.801,5.601,20.801,17.302
		c0,8.4-5.3,13.501-12.2,15.7l15.301,21.302H675.062z M663.761,767.898c5.601,0,9.7-2.4,9.7-9.4c0-7.101-4.1-9.501-9.7-9.501h-8.001
		v18.901H663.761z"/>
	<path d="M880.357,756.697c-0.7-6.2-4.9-9.2-11.101-9.2c-5.3,0-10.001,2.5-10.001,7.4c0,5.801,6.101,7.2,12.501,8.501
		c9.301,1.8,20.302,4.2,20.302,16.7c0,10.001-9.701,16.901-21.002,16.901c-13.601,0-22.301-6-22.801-17.701h11.101
		c0.7,7.001,5.5,10.001,11.7,10.001c5.4,0,10.601-2.601,10.601-8.101c0-5.801-6.3-7.7-12.801-9.001c-9.2-1.7-20.001-3.8-20.001-16.4
		c0-9.501,8.701-16.001,20.401-16.001c13.601,0,21.501,6,22.201,16.9H880.357z"/>
	<path d="M1066.553,795.5v-46.303h-14.601v-8.001h40.103v8.001h-14.601V795.5H1066.553z"/>
	<path d="M1292.753,741.196h9.9v34.103c0,13.701-9.2,21.701-22.401,21.701c-13.9,0-23.001-7.2-23.001-20.201v-35.603h10.9v34.103
		c0,8,3.301,13.601,12.101,13.601c8.9,0,12.501-5.601,12.501-12.101V741.196z"/>
	<path d="M1488.249,795.5l-21.701-54.304h11.801l11.4,30.402l4.001,11.801l3.899-11.801l10.501-30.402h10.501L1498.45,795.5
		H1488.249z"/>
	<path d="M1725.646,795.5l-8.9-28.702l-3.2-11.601l-2.9,11.601l-8.301,28.702h-10.3l-16.602-54.304h11.801l7.801,28.702l2.899,11.4
		l2.9-11.4l8.201-28.702h9.7l8.7,28.702l3.2,11.501l2.7-11.501l7.001-28.702h10.4l-15.301,54.304H1725.646z"/>
	<path d="M238.77,1071.5l-12.501-20.001l-12.301,20.001h-10.701l17.701-27.002l-17.601-27.302h12l11.301,18.401l11.301-18.401
		h10.601l-16.7,25.502l18.7,28.802H238.77z"/>
	<path d="M425.493,1071.5v-20.801l-18.301-33.503h11.801l12.7,25.502l12.001-25.502h10.301l-17.602,34.103v20.201H425.493z"/>
	<path d="M612.219,1071.5v-7.9l25.702-38.402h-25.102v-8.001h36.602v8.001l-25.701,38.402h25.701v7.9H612.219z"/>
	<path d="M844.546,1071.5v-13.4h-17.901l-8.9,13.4h-11.801l37.702-54.304h36.103v8.001h-24.302v13.9h22.701v7.9h-22.701v16.602
		h24.302v7.9H844.546z M831.945,1050.098h12.601v-19.701l-5.9,9.601L831.945,1050.098z"/>
	<path d="M1054.671,1032.197l0.1,11.001v28.302h-9.801v-54.304h10.701l25.602,39.402l-0.301-11.101v-28.302h9.901v54.304
		c0,13.4-8.801,17.301-18.102,17.301c-1.7,0-5.7-0.5-7.5-1.399v-7.601c2,0.5,5.2,0.899,6.9,0.899c5.6,0,8.7-2.3,8.7-8
		L1054.671,1032.197z"/>
	<path d="M1259.296,1071.5v-30.102c0-16.602,10-24.202,24.001-24.202h18.301v7.001l-11.9,16.4
		c12.601,2.601,15.301,11.901,15.301,17.102c0,10.2-8.7,15.301-16.701,15.301c-8.9,0-14.601-4.8-14.7-12.601h8.4
		c0.399,4,2.9,6,6.7,6c4,0,6.9-2.8,6.9-8.601c0-6-4.601-10.801-13.101-10.801h-2.2v-7.1l11.4-15.701h-8.601
		c-8,0-14.301,3.5-14.301,16.201v31.102H1259.296z"/>
	<path d="M1469.721,1071.5v-22.901h-8v-8.101h8v-23.302h18.001c18.302,0,29.902,10.001,29.902,27.202
		c0,17.101-11.601,27.102-29.902,27.102H1469.721z M1487.722,1063.599c10.701,0,18.401-5.2,18.401-19.201s-7.7-19.201-18.401-19.201
		h-7.101v15.301h10.301v8.101h-10.301v15.001H1487.722z"/>
	<path d="M1682.244,1071.5v-54.304h10.9v54.304H1682.244z M1733.348,1017.196h10.9v36.803c0,12.9-9.4,19.001-19.602,19.001
		c-10.601,0-19.801-4.9-20.201-19.602h11.601c0.4,8.901,3.601,11.501,8.601,11.501c5.601,0,8.701-3.3,8.701-9.301V1017.196z"/>
	<path d="M208.167,1354.5l6.7-12c-5.5-5.001-8.7-12.701-8.7-22.102c0-17.201,10.801-28.602,26.702-28.602c3.3,0,6.4,0.5,9.3,1.5
		l3.9-7.001h11.401l-6.701,12.001c5.501,5,8.801,12.701,8.801,22.102c0,17.201-10.9,28.602-26.701,28.602
		c-3.4,0-6.601-0.5-9.401-1.5l-3.899,7H208.167z M220.168,1332.899l17.901-32.202c-1.601-0.7-3.4-1-5.2-1
		c-9.001,0-15.201,7.4-15.201,20.701C217.668,1325.499,218.567,1329.699,220.168,1332.899z M247.97,1320.398c0-5-0.9-9.2-2.5-12.501
		l-17.901,32.202c1.601,0.7,3.4,1,5.301,1C241.77,1341.099,247.97,1333.699,247.97,1320.398z"/>
	<path d="M431.293,1347.5v-54.304h10.9v8.401h8.501c10.7,0,20.701,5.9,20.701,17.9c0,12.101-10.001,18.001-20.701,18.001h-8.501
		v10.001H431.293z M450.694,1329.699c5.5,0,9.7-2.801,9.7-10.201s-4.2-10.101-9.7-10.101h-8.501v20.302H450.694z"/>
	<path d="M675.321,1347.5l-4.9-13.4h-20.302l-4.6,13.4h-10.501l20.201-54.304h10.301l21.602,54.304H675.321z M660.72,1289.196h-9.2
		l10.601-10.9h13.001L660.72,1289.196z M652.819,1326.098h14.602l-3.9-10.801l-3.601-10.9l-3.4,10.9L652.819,1326.098z"/>
	<path d="M888.047,1347.5l-4.9-13.4h-20.302l-4.6,13.4h-10.501l20.201-54.304h10.301l21.602,54.304H888.047z M886.047,1278.295
		c0,7.801-6.001,11.601-13.301,11.601c-7.4,0-13.301-3.8-13.301-11.601h7.5c0,2.4,1.601,4.3,5.801,4.3s5.7-1.899,5.7-4.3H886.047z
		 M865.545,1326.098h14.602l-3.9-10.801l-3.601-10.9l-3.4,10.9L865.545,1326.098z"/>
	<path d="M1100.771,1347.5l-4.9-13.4h-20.302l-4.6,13.4h-10.501l20.201-54.304h10.301l21.602,54.304H1100.771z M1092.771,1289.196
		l-7.3-4.101l-7.101,4.101h-9.501l12.501-10.9h8.4l12.4,10.9H1092.771z M1078.27,1326.098h14.602l-3.9-10.801l-3.601-10.9l-3.4,10.9
		L1078.27,1326.098z"/>
	<path d="M1313.497,1347.5l-4.9-13.4h-20.302l-4.6,13.4h-10.501l20.201-54.304h10.301l21.602,54.304H1313.497z M1289.495,1288.796
		c-3.2,0-5.9-2.301-5.9-5.501c0-3.3,2.7-5.601,5.9-5.601s5.9,2.301,5.9,5.601
		C1295.396,1286.496,1292.695,1288.796,1289.495,1288.796z M1290.995,1326.098h14.602l-3.9-10.801l-3.601-10.9l-3.4,10.9
		L1290.995,1326.098z M1306.896,1288.796c-3.101,0-5.801-2.301-5.801-5.501c0-3.3,2.7-5.601,5.801-5.601c3.2,0,5.9,2.301,5.9,5.601
		C1312.797,1286.496,1310.097,1288.796,1306.896,1288.796z"/>
	<path d="M1526.223,1347.5l-4.9-13.4h-20.302l-4.6,13.4h-10.501l20.201-54.304h10.301l21.602,54.304H1526.223z M1510.922,1289.196
		l-14.501-10.9h13.101l10.501,10.9H1510.922z M1503.721,1326.098h14.602l-3.9-10.801l-3.601-10.9l-3.4,10.9L1503.721,1326.098z"/>
	<path d="M1738.948,1347.5l-4.9-13.4h-20.302l-4.6,13.4h-10.501l20.201-54.304h10.301l21.602,54.304H1738.948z M1710.746,1287.496
		v-7.2h26.002v7.2H1710.746z M1716.446,1326.098h14.602l-3.9-10.801l-3.601-10.9l-3.4,10.9L1716.446,1326.098z"/>
	<path d="M254.57,1645.901c-2.301,1.3-5.9,2.4-10.001,2.4c-6.801,0-10.9-4.4-10.9-10.001c0-5.8,3.8-10.7,11.101-14.801h-2l-4.9-13.4
		h-20.302l-4.6,13.4h-10.501l20.201-54.304h10.301l21.602,54.304c-7.9,4.101-11.901,8.2-11.901,13.301c0,3,2.4,4.7,4.801,4.7
		c2.3,0,4.8-0.9,7.101-2.1V1645.901z M220.268,1602.098h14.602l-3.9-10.801l-3.601-10.9l-3.4,10.9L220.268,1602.098z"/>
	<path d="M454.194,1623.5l-4.9-13.4h-20.302l-4.6,13.4h-10.501l20.201-54.304h10.301l21.602,54.304H454.194z M439.193,1567.296
		c-5.5,0-9.501-2.9-9.501-7.601s4.001-7.601,9.501-7.601s9.5,2.9,9.5,7.601S444.693,1567.296,439.193,1567.296z M431.692,1602.098
		h14.602l-3.9-10.801l-3.601-10.9l-3.4,10.9L431.692,1602.098z M439.193,1556.496c-2,0-3.301,1.2-3.301,3.2s1.301,3.1,3.301,3.1
		s3.3-1.1,3.3-3.1S441.193,1556.496,439.193,1556.496z"/>
	<path d="M665.62,1623.5l-4.9-13.4h-20.302l-4.6,13.4h-10.501l20.201-54.304h10.301l21.602,54.304H665.62z M665.72,1557.095
		c-2,5.101-5.3,7.601-9.101,7.601c-4.4,0-9.5-3-12.4-3c-1.4,0-2.4,0.4-3.7,2.7l-5.7-2.7c2.1-5.2,5.4-7.7,9.2-7.7
		c4.4,0,9.4,3.2,12.301,3.2c1.5,0,2.5-0.601,3.7-2.9L665.72,1557.095z M643.118,1602.098h14.602l-3.9-10.801l-3.601-10.9l-3.4,10.9
		L643.118,1602.098z"/>
	<path d="M887.646,1605.499c-1.5,13.101-11.4,19.501-23.401,19.501c-15.701,0-25.102-11.4-25.102-28.602s9.4-28.602,25.102-28.602
		c12.001,0,21.901,6.3,23.401,19.401h-11.501c-1.1-8.201-5.1-11.501-11.9-11.501c-8.601,0-13.601,7.4-13.601,20.701
		s5,20.701,13.601,20.701c6.801,0,10.801-3.3,11.9-11.601H887.646z M863.045,1565.196h-9.2l10.601-10.9h13.001L863.045,1565.196z"/>
	<path d="M1102.572,1605.499c-1.5,13.101-11.4,19.501-23.401,19.501c-15.701,0-25.102-11.4-25.102-28.602s9.4-28.602,25.102-28.602
		c12.001,0,21.901,6.3,23.401,19.401h-11.501c-1.1-8.201-5.1-11.501-11.9-11.501c-8.601,0-13.601,7.4-13.601,20.701
		s5,20.701,13.601,20.701c6.801,0,10.801-3.3,11.9-11.601H1102.572z M1082.471,1565.196h-8.4l-12.5-10.9h9.5l7.101,4.2l7.301-4.2
		h9.4L1082.471,1565.196z"/>
	<path d="M1284.295,1641.3c2.2,1,4.4,1.301,6.4,1.301c2.4,0,5.2-1.2,5.2-3.9s-2.8-3.801-5.2-3.801c-1,0-2.7,0.2-4,0.601
		l-2.101-3.601l5.4-7.2c-13.2-1.8-21.001-12.601-21.001-28.302c0-17.201,9.4-28.602,25.102-28.602
		c12.001,0,21.901,6.3,23.401,19.401h-11.501c-1.1-8.201-5.1-11.501-11.9-11.501c-8.601,0-13.601,7.4-13.601,20.701
		s5,20.701,13.601,20.701c6.801,0,10.801-3.3,11.9-11.601h11.501c-1.4,12.101-10.001,18.501-20.801,19.401l-3.801,5.1
		c5.7-0.399,11.201,2.2,11.201,8.401c0,6.5-6.101,9.9-12.601,9.9c-2.501,0-4.9-0.3-7.201-1.4V1641.3z"/>
	<path d="M1532.422,1605.499c-1.5,13.101-11.4,19.501-23.401,19.501c-15.701,0-25.102-11.4-25.102-28.602s9.4-28.602,25.102-28.602
		c12.001,0,21.901,6.3,23.401,19.401h-11.501c-1.1-8.201-5.1-11.501-11.9-11.501c-8.601,0-13.601,7.4-13.601,20.701
		s5,20.701,13.601,20.701c6.801,0,10.801-3.3,11.9-11.601H1532.422z M1515.321,1565.196l-7.301-4.101l-7.101,4.101h-9.5l12.5-10.9
		h8.4l12.401,10.9H1515.321z"/>
	<path d="M1747.348,1605.499c-1.5,13.101-11.4,19.501-23.401,19.501c-15.701,0-25.102-11.4-25.102-28.602s9.4-28.602,25.102-28.602
		c12.001,0,21.901,6.3,23.401,19.401h-11.501c-1.1-8.201-5.1-11.501-11.9-11.501c-8.601,0-13.601,7.4-13.601,20.701
		s5,20.701,13.601,20.701c6.801,0,10.801-3.3,11.9-11.601H1747.348z M1723.046,1564.796c-3.2,0-6-2.2-6-5.501
		c0-3.3,2.8-5.601,6-5.601s6.001,2.301,6.001,5.601C1729.047,1562.596,1726.246,1564.796,1723.046,1564.796z"/>
	<path d="M209.867,1899.5v-54.304h18.001c18.302,0,29.902,10.001,29.902,27.202c0,17.101-11.601,27.102-29.902,27.102H209.867z
		 M233.068,1841.196h-8.4l-12.501-10.9h9.501l7.101,4.2l7.301-4.2h9.4L233.068,1841.196z M227.868,1891.599
		c10.701,0,18.401-5.2,18.401-19.201s-7.7-19.201-18.401-19.201h-7.101v38.402H227.868z"/>
	<path d="M432.991,1899.5v-22.901h-8v-8.101h8v-23.302h18.001c18.302,0,29.902,10.001,29.902,27.202
		c0,17.101-11.601,27.102-29.902,27.102H432.991z M450.992,1891.599c10.701,0,18.401-5.2,18.401-19.201s-7.7-19.201-18.401-19.201
		h-7.101v15.301h10.301v8.101h-10.301v15.001H450.992z"/>
	<path d="M656.115,1899.5v-54.304h35.202v8.001h-24.302v13.9h22.702v7.9h-22.702v16.602h24.302v7.9H656.115z M671.717,1841.196
		h-9.201l10.601-10.9h13.001L671.717,1841.196z"/>
	<path d="M867.141,1899.5v-54.304h35.202v8.001h-24.302v13.9h22.702v7.9h-22.702v16.602h24.302v7.9H867.141z M897.543,1830.295
		c0,7.801-6.001,11.601-13.301,11.601c-7.4,0-13.301-3.8-13.301-11.601h7.5c0,2.4,1.601,4.3,5.801,4.3s5.7-1.899,5.7-4.3H897.543z"
		/>
	<path d="M1078.166,1899.5v-54.304h35.202v8.001h-24.302v13.9h22.702v7.9h-22.702v16.602h24.302v7.9H1078.166z M1099.468,1841.196
		h-8.4l-12.501-10.9h9.5l7.101,4.2l7.301-4.2h9.4L1099.468,1841.196z"/>
	<path d="M1289.191,1899.5v-54.304h35.202v8.001h-24.302v13.9h22.702v7.9h-22.702v16.602h24.302v7.9H1289.191z M1313.493,1841.196
		l-7.301-4.101l-7.101,4.101h-9.5l12.501-10.9h8.4l12.4,10.9H1313.493z"/>
	<path d="M1500.216,1899.5v-54.304h35.202v8.001h-24.302v13.9h22.702v7.9h-22.702v16.602h24.302v7.9H1500.216z M1508.616,1840.796
		c-3.2,0-5.9-2.301-5.9-5.501c0-3.3,2.7-5.601,5.9-5.601s5.9,2.301,5.9,5.601
		C1514.517,1838.496,1511.816,1840.796,1508.616,1840.796z M1526.018,1840.796c-3.101,0-5.801-2.301-5.801-5.501
		c0-3.3,2.7-5.601,5.801-5.601c3.2,0,5.9,2.301,5.9,5.601C1531.918,1838.496,1529.218,1840.796,1526.018,1840.796z"/>
	<path d="M1711.241,1899.5v-54.304h35.202v8.001h-24.302v13.9h22.702v7.9h-22.702v16.602h24.302v7.9H1711.241z M1728.242,1840.796
		c-3.2,0-6-2.2-6-5.501c0-3.3,2.8-5.601,6-5.601s6.001,2.301,6.001,5.601C1734.243,1838.596,1731.442,1840.796,1728.242,1840.796z"
		/>
	<path d="M209.867,2175.5v-54.304h35.202v8.001h-24.302v13.9h22.702v7.9h-22.702v16.602h24.302v7.9H209.867z M227.168,2117.196
		l-14.5-10.9h13.101l10.5,10.9H227.168z"/>
	<path d="M416.464,2175.5v-54.304h35.202v8.001h-24.302v13.9h22.702v7.9h-22.702v16.602h24.302v7.9H416.464z M420.464,2115.496v-7.2
		h26.002v7.2H420.464z"/>
	<path d="M658.163,2197.901c-2.301,1.3-5.9,2.4-10.001,2.4c-6.801,0-10.9-4.4-10.9-10.001c0-5.8,3.8-10.7,11.101-14.801h-25.302
		v-54.304h35.202v8.001h-24.302v13.9h22.702v7.9h-22.702v16.602h24.302v7.9h-0.1c-7.9,4.101-11.901,8.2-11.901,13.301
		c0,3,2.4,4.7,4.801,4.7c2.3,0,4.8-0.9,7.101-2.1V2197.901z"/>
	<path d="M863.459,2175.5v-4.9c-3.399,3.5-9.601,6.4-15.301,6.4c-14.7,0-22.201-11.4-22.201-28.602s9.4-28.602,25.102-28.602
		c12.001,0,21.701,6.2,23.201,18.201h-11.5c-1.101-7.101-4.9-10.301-11.701-10.301c-8.601,0-13.601,7.4-13.601,20.701
		s4.4,20.701,13.301,20.701c4.9,0,9.7-2.601,12.7-5.5v-7.9h-12.301v-7.701h22.702v27.502H863.459z M863.659,2106.295
		c0,7.801-6,11.601-13.301,11.601c-7.4,0-13.301-3.8-13.301-11.601h7.501c0,2.4,1.6,4.3,5.8,4.3s5.7-1.899,5.7-4.3H863.659z"/>
	<path d="M1080.155,2175.5v-4.9c-3.399,3.5-9.601,6.4-15.301,6.4c-14.7,0-22.201-11.4-22.201-28.602s9.4-28.602,25.102-28.602
		c12.001,0,21.701,6.2,23.201,18.201h-11.5c-1.101-7.101-4.9-10.301-11.701-10.301c-8.601,0-13.601,7.4-13.601,20.701
		s4.4,20.701,13.301,20.701c4.9,0,9.7-2.601,12.7-5.5v-7.9h-12.301v-7.701h22.702v27.502H1080.155z M1074.255,2117.196l-7.3-4.101
		l-7.101,4.101h-9.501l12.501-10.9h8.4l12.401,10.9H1074.255z"/>
	<path d="M1296.853,2175.5v-4.9c-3.399,3.5-9.601,6.4-15.301,6.4c-14.7,0-22.201-11.4-22.201-28.602s9.4-28.602,25.102-28.602
		c12.001,0,21.701,6.2,23.201,18.201h-11.5c-1.101-7.101-4.9-10.301-11.701-10.301c-8.601,0-13.601,7.4-13.601,20.701
		s4.4,20.701,13.301,20.701c4.9,0,9.7-2.601,12.7-5.5v-7.9h-12.301v-7.701h22.702v27.502H1296.853z M1277.651,2200.301l2.001-18.602
		h10.2l-4.5,18.602H1277.651z"/>
	<path d="M1513.55,2175.5v-4.9c-3.399,3.5-9.601,6.4-15.301,6.4c-14.7,0-22.201-11.4-22.201-28.602s9.4-28.602,25.102-28.602
		c12.001,0,21.701,6.2,23.201,18.201h-11.5c-1.101-7.101-4.9-10.301-11.701-10.301c-8.601,0-13.601,7.4-13.601,20.701
		s4.4,20.701,13.301,20.701c4.9,0,9.7-2.601,12.7-5.5v-7.9h-12.301v-7.701h22.702v27.502H1513.55z M1500.449,2116.796
		c-3.2,0-6-2.2-6-5.501c0-3.3,2.8-5.601,6-5.601s6.001,2.301,6.001,5.601C1506.45,2114.596,1503.649,2116.796,1500.449,2116.796z"/>
	<path d="M1732.447,2175.5v-23.302h-25.102v23.302h-10.9v-38.603h-5.4v-7.9h5.4v-7.801h10.9v7.801h25.102v-7.801h10.901v7.801h5.4
		v7.9h-5.4v38.603H1732.447z M1732.447,2144.297v-7.4h-25.102v7.4H1732.447z"/>
	<path d="M245.869,2451.5v-24.502h-25.102v24.502h-10.9v-54.304h10.9v21.901h25.102v-21.901h10.901v54.304H245.869z
		 M240.469,2393.196l-7.3-4.101l-7.101,4.101h-9.501l12.501-10.9h8.4l12.401,10.9H240.469z"/>
	<path d="M438.09,2393.196h-9.2l10.601-10.9h13.001L438.09,2393.196z M431.689,2451.5v-54.304h10.9v54.304H431.689z"/>
	<path d="M636.312,2382.295c0,7.801-6,11.601-13.301,11.601c-7.4,0-13.301-3.8-13.301-11.601h7.501c0,2.4,1.6,4.3,5.8,4.3
		c4.201,0,5.701-1.899,5.701-4.3H636.312z M617.512,2451.5v-54.304h10.9v54.304H617.512z"/>
	<path d="M816.135,2393.196l-7.301-4.101l-7.1,4.101h-9.501l12.501-10.9h8.4l12.4,10.9H816.135z M803.334,2451.5v-54.304h10.9
		v54.304H803.334z"/>
	<path d="M986.756,2392.796c-3.1,0-5.9-2.301-5.9-5.501c0-3.3,2.801-5.601,5.9-5.601c3.2,0,5.9,2.301,5.9,5.601
		C992.656,2390.496,989.956,2392.796,986.756,2392.796z M989.156,2451.5v-54.304h10.9v54.304H989.156z M1002.457,2392.796
		c-3.1,0-5.8-2.301-5.8-5.501c0-3.3,2.7-5.601,5.8-5.601c3.2,0,5.9,2.301,5.9,5.601
		C1008.357,2390.496,1005.657,2392.796,1002.457,2392.796z"/>
	<path d="M1180.379,2392.796c-3.2,0-6-2.2-6-5.501c0-3.3,2.8-5.601,6-5.601s6,2.301,6,5.601
		C1186.379,2390.596,1183.579,2392.796,1180.379,2392.796z M1174.979,2451.5v-54.304h10.9v54.304H1174.979z"/>
	<path d="M1365.102,2393.196l-14.501-10.9h13.101l10.501,10.9H1365.102z M1360.801,2451.5v-54.304h10.9v54.304H1360.801z"/>
	<path d="M1539.223,2391.496v-7.2h26.002v7.2H1539.223z M1546.623,2451.5v-54.304h10.9v54.304H1546.623z"/>
	<path d="M1743.446,2473.901c-2.301,1.3-5.9,2.4-10.001,2.4c-6.8,0-10.9-4.4-10.9-10.001c0-5.8,3.8-10.7,11.101-14.801h-1.2v-54.304
		h10.9v54.304h0.101c-7.9,4.101-11.901,8.2-11.901,13.301c0,3,2.4,4.7,4.801,4.7c2.3,0,4.8-0.9,7.101-2.1V2473.901z"/>
	<path d="M230.868,2661.095c-2,5.101-5.3,7.601-9.101,7.601c-4.399,0-9.5-3-12.4-3c-1.4,0-2.4,0.4-3.7,2.7l-5.7-2.7
		c2.1-5.2,5.4-7.7,9.2-7.7c4.4,0,9.4,3.2,12.301,3.2c1.5,0,2.5-0.601,3.7-2.9L230.868,2661.095z M209.867,2727.5v-54.304h10.9
		v54.304H209.867z"/>
	<path d="M429.809,2673.196h10.9v36.802c0,12.9-9.4,19.002-19.602,19.002c-10.601,0-19.801-4.9-20.201-19.602h11.601
		c0.4,8.9,3.601,11.5,8.601,11.5c5.601,0,8.701-3.299,8.701-9.301V2673.196z M442.409,2669.196l-7.301-4.101l-7.101,4.101h-9.5
		l12.5-10.9h8.401l12.4,10.9H442.409z"/>
	<path d="M625.247,2727.5v-54.304h10.9v25.402l19.401-25.402h11.201l-19.901,24.902l23.001,29.402h-13.2l-20.502-27.602v27.602
		H625.247z M636.748,2752.301l2-18.602h10.2l-4.5,18.602H636.748z"/>
	<path d="M856.987,2669.196h-9.201l10.602-10.9h13L856.987,2669.196z M849.486,2727.5v-54.304h10.901v46.404h21.701v7.9H849.486z"/>
	<path d="M1065.526,2727.5v-54.304h10.901v46.404h21.701v7.9H1065.526z M1082.128,2689.896v-22.601h9.9l-2.2,22.601H1082.128z"/>
	<path d="M1281.565,2727.5v-54.304h10.901v46.404h21.701v7.9H1281.565z M1290.467,2752.301l2-18.602h10.2l-4.5,18.602H1290.467z"/>
	<path d="M1497.604,2727.5v-54.304h10.901v46.404h21.701v7.9H1497.604z M1520.307,2705.799c-3.2,0-6.001-2.201-6.001-5.5
		c0-3.301,2.801-5.602,6.001-5.602s6,2.301,6,5.602C1526.307,2703.598,1523.507,2705.799,1520.307,2705.799z"/>
	<path d="M1713.644,2727.5v-19.402l-6.2,3.602v-9.002l6.2-3.6v-25.902h10.901v19.601l10.4-6v9l-10.4,6.002v17.801h21.701v7.9
		H1713.644z"/>
	<path d="M245.069,3003.5l-25.501-39.303l0.1,11v28.303h-9.801v-54.305h10.701l25.602,39.402l-0.301-11.1v-28.303h9.901v54.305
		H245.069z M232.869,2945.195h-9.201l10.601-10.9h13.001L232.869,2945.195z"/>
	<path d="M492.949,3003.5l-25.501-39.303l0.1,11v28.303h-9.801v-54.305h10.701l25.602,39.402l-0.301-11.1v-28.303h9.901v54.305
		H492.949z M484.648,2945.195h-8.4l-12.5-10.9h9.5l7.101,4.201l7.301-4.201h9.4L484.648,2945.195z"/>
	<path d="M740.83,3003.5l-25.501-39.303l0.1,11v28.303h-9.801v-54.305h10.701l25.602,39.402l-0.301-11.1v-28.303h9.901v54.305
		H740.83z M722.729,3028.301l2-18.602h10.2l-4.5,18.602H722.729z"/>
	<path d="M988.71,3003.5l-25.501-39.303l0.1,11v28.303h-9.801v-54.305h10.701l25.602,39.402l-0.301-11.1v-28.303h9.901v54.305
		H988.71z M991.51,2937.096c-2,5.1-5.3,7.6-9.1,7.6c-4.4,0-9.501-3-12.401-3c-1.4,0-2.4,0.4-3.7,2.701l-5.7-2.701
		c2.101-5.199,5.4-7.699,9.2-7.699c4.4,0,9.401,3.199,12.301,3.199c1.5,0,2.5-0.6,3.7-2.9L991.51,2937.096z"/>
	<path d="M1197.688,2976.398c0-17.201,10.801-28.602,26.702-28.602c15.801,0,26.701,11.4,26.701,28.602S1240.19,3005,1224.39,3005
		C1208.488,3005,1197.688,2993.6,1197.688,2976.398z M1239.49,2976.398c0-13.301-6.2-20.701-15.101-20.701
		c-9.001,0-15.201,7.4-15.201,20.701s6.2,20.701,15.201,20.701C1233.29,2997.1,1239.49,2989.699,1239.49,2976.398z
		 M1224.489,2945.195h-9.2l10.601-10.9h13L1224.489,2945.195z"/>
	<path d="M1445.667,2976.398c0-17.201,10.801-28.602,26.702-28.602c15.801,0,26.701,11.4,26.701,28.602s-10.9,28.602-26.701,28.602
		C1456.468,3005,1445.667,2993.6,1445.667,2976.398z M1487.47,2976.398c0-13.301-6.2-20.701-15.101-20.701
		c-9.001,0-15.201,7.4-15.201,20.701s6.2,20.701,15.201,20.701C1481.27,2997.1,1487.47,2989.699,1487.47,2976.398z
		 M1485.67,2934.295c0,7.801-6.001,11.602-13.301,11.602c-7.4,0-13.301-3.801-13.301-11.602h7.5c0,2.4,1.6,4.301,5.801,4.301
		c4.2,0,5.7-1.9,5.7-4.301H1485.67z"/>
	<path d="M1693.646,2976.398c0-17.201,10.801-28.602,26.702-28.602c15.801,0,26.701,11.4,26.701,28.602s-10.9,28.602-26.701,28.602
		C1704.446,3005,1693.646,2993.6,1693.646,2976.398z M1727.548,2945.195l-7.301-4.1l-7.101,4.1h-9.5l12.5-10.9h8.401l12.4,10.9
		H1727.548z M1735.448,2976.398c0-13.301-6.2-20.701-15.101-20.701c-9.001,0-15.201,7.4-15.201,20.701s6.2,20.701,15.201,20.701
		C1729.248,2997.1,1735.448,2989.699,1735.448,2976.398z"/>
	<path d="M206.167,3252.398c0-17.201,10.801-28.602,26.702-28.602c15.801,0,26.701,11.4,26.701,28.602S248.67,3281,232.869,3281
		C216.968,3281,206.167,3269.6,206.167,3252.398z M247.97,3252.398c0-13.301-6.2-20.701-15.101-20.701
		c-9.001,0-15.201,7.4-15.201,20.701s6.2,20.701,15.201,20.701C241.77,3273.1,247.97,3265.699,247.97,3252.398z M224.168,3220.797
		c-3.2,0-5.9-2.301-5.9-5.502c0-3.299,2.7-5.6,5.9-5.6s5.9,2.301,5.9,5.6C230.068,3218.496,227.368,3220.797,224.168,3220.797z
		 M241.569,3220.797c-3.101,0-5.801-2.301-5.801-5.502c0-3.299,2.7-5.6,5.801-5.6c3.2,0,5.9,2.301,5.9,5.6
		C247.47,3218.496,244.77,3220.797,241.569,3220.797z"/>
	<path d="M422.479,3252.398c0-17.201,10.801-28.602,26.702-28.602c15.801,0,26.701,11.4,26.701,28.602S464.981,3281,449.181,3281
		C433.279,3281,422.479,3269.6,422.479,3252.398z M464.281,3252.398c0-13.301-6.2-20.701-15.101-20.701
		c-9.001,0-15.201,7.4-15.201,20.701s6.2,20.701,15.201,20.701C458.081,3273.1,464.281,3265.699,464.281,3252.398z
		 M449.181,3221.195l-14.501-10.9h13.101l10.501,10.9H449.181z"/>
	<path d="M638.789,3252.398c0-17.201,10.801-28.602,26.702-28.602c15.801,0,26.701,11.4,26.701,28.602S681.292,3281,665.491,3281
		C649.59,3281,638.789,3269.6,638.789,3252.398z M658.19,3221.195h-8.601l8.801-10.9h12.2L658.19,3221.195z M680.592,3252.398
		c0-13.301-6.2-20.701-15.101-20.701c-9.001,0-15.201,7.4-15.201,20.701s6.2,20.701,15.201,20.701
		C674.392,3273.1,680.592,3265.699,680.592,3252.398z M674.991,3221.195h-8.7l8.7-10.9h12.301L674.991,3221.195z"/>
	<path d="M855.101,3252.398c0-17.201,10.801-28.602,26.702-28.602c15.801,0,26.701,11.4,26.701,28.602S897.604,3281,881.803,3281
		C865.901,3281,855.101,3269.6,855.101,3252.398z M896.903,3252.398c0-13.301-6.2-20.701-15.101-20.701
		c-9.001,0-15.201,7.4-15.201,20.701s6.2,20.701,15.201,20.701C890.703,3273.1,896.903,3265.699,896.903,3252.398z
		 M868.701,3219.496v-7.201h26.002v7.201H868.701z"/>
	<path d="M1071.411,3252.398c0-17.201,10.801-28.602,26.702-28.602c15.801,0,26.701,11.4,26.701,28.602s-10.9,28.602-26.701,28.602
		C1082.212,3281,1071.411,3269.6,1071.411,3252.398z M1113.514,3213.096c-2,5.1-5.3,7.6-9.101,7.6c-4.4,0-9.5-3-12.4-3
		c-1.4,0-2.4,0.4-3.7,2.701l-5.7-2.701c2.1-5.199,5.4-7.699,9.2-7.699c4.4,0,9.4,3.199,12.301,3.199c1.5,0,2.5-0.6,3.7-2.9
		L1113.514,3213.096z M1113.214,3252.398c0-13.301-6.2-20.701-15.101-20.701c-9.001,0-15.201,7.4-15.201,20.701
		s6.2,20.701,15.201,20.701C1107.014,3273.1,1113.214,3265.699,1113.214,3252.398z"/>
	<path d="M1321.625,3279.5l-13.301-20.102h-6.001v20.102h-10.9v-54.305h18.901c10.7,0,20.801,5.602,20.801,17.303
		c0,8.4-5.3,13.5-12.2,15.699l15.301,21.303H1321.625z M1307.524,3221.195h-9.201l10.601-10.9h13.001L1307.524,3221.195z
		 M1310.324,3251.898c5.601,0,9.7-2.4,9.7-9.4c0-7.102-4.1-9.502-9.7-9.502h-8.001v18.902H1310.324z"/>
	<path d="M1529.035,3279.5l-13.301-20.102h-6.001v20.102h-10.9v-54.305h18.901c10.7,0,20.801,5.602,20.801,17.303
		c0,8.4-5.3,13.5-12.2,15.699l15.301,21.303H1529.035z M1520.135,3221.195h-8.4l-12.501-10.9h9.5l7.101,4.201l7.301-4.201h9.4
		L1520.135,3221.195z M1517.734,3251.898c5.601,0,9.7-2.4,9.7-9.4c0-7.102-4.1-9.502-9.7-9.502h-8.001v18.902H1517.734z"/>
	<path d="M1736.446,3279.5l-13.301-20.102h-6.001v20.102h-10.9v-54.305h18.901c10.7,0,20.801,5.602,20.801,17.303
		c0,8.4-5.3,13.5-12.2,15.699l15.301,21.303H1736.446z M1725.146,3251.898c5.601,0,9.7-2.4,9.7-9.4c0-7.102-4.1-9.502-9.7-9.502
		h-8.001v18.902H1725.146z M1717.845,3304.301l2-18.602h10.201l-4.5,18.602H1717.845z"/>
	<path d="M238.669,3516.697c-0.7-6.201-4.9-9.201-11.101-9.201c-5.301,0-10.001,2.5-10.001,7.4c0,5.801,6.101,7.201,12.501,8.502
		c9.301,1.799,20.302,4.199,20.302,16.699c0,10.002-9.701,16.902-21.002,16.902c-13.601,0-22.301-6-22.801-17.701h11.101
		c0.7,7,5.5,10,11.7,10c5.4,0,10.601-2.6,10.601-8.1c0-5.801-6.3-7.701-12.801-9.002c-9.2-1.699-20.001-3.799-20.001-16.4
		c0-9.5,8.7-16,20.401-16c13.601,0,21.501,6,22.201,16.9H238.669z M227.568,3497.195h-9.2l10.601-10.9h13.001L227.568,3497.195z"/>
	<path d="M456.236,3516.697c-0.7-6.201-4.9-9.201-11.101-9.201c-5.3,0-10.001,2.5-10.001,7.4c0,5.801,6.101,7.201,12.501,8.502
		c9.301,1.799,20.302,4.199,20.302,16.699c0,10.002-9.701,16.902-21.002,16.902c-13.601,0-22.301-6-22.801-17.701h11.101
		c0.7,7,5.5,10,11.7,10c5.4,0,10.601-2.6,10.601-8.1c0-5.801-6.3-7.701-12.801-9.002c-9.2-1.699-20.001-3.799-20.001-16.4
		c0-9.5,8.701-16,20.401-16c13.601,0,21.501,6,22.201,16.9H456.236z M449.636,3497.195h-8.4l-12.501-10.9h9.501l7.101,4.201
		l7.301-4.201h9.4L449.636,3497.195z"/>
	<path d="M654.004,3573.301c2.2,1,4.4,1.301,6.4,1.301c2.399,0,5.2-1.201,5.2-3.9c0-2.701-2.801-3.801-5.2-3.801
		c-1,0-2.7,0.199-4.001,0.6l-2.1-3.6l5.4-7.201c-10.9-1.299-17.602-7.1-18.001-17.4h11.101c0.7,7,5.5,10,11.7,10
		c5.4,0,10.601-2.6,10.601-8.1c0-5.801-6.3-7.701-12.801-9.002c-9.2-1.699-20.001-3.799-20.001-16.4c0-9.5,8.701-16,20.401-16
		c13.601,0,21.501,6,22.201,16.9h-11.101c-0.7-6.201-4.9-9.201-11.101-9.201c-5.3,0-10.001,2.5-10.001,7.4
		c0,5.801,6.101,7.201,12.501,8.502c9.301,1.799,20.302,4.199,20.302,16.699c0,9.502-8.701,16.102-19.102,16.803l-3.8,5.1
		c5.7-0.4,11.2,2.199,11.2,8.4c0,6.5-6.101,9.9-12.601,9.9c-2.5,0-4.9-0.299-7.2-1.4V3573.301z"/>
	<path d="M891.372,3516.697c-0.7-6.201-4.9-9.201-11.101-9.201c-5.301,0-10.001,2.5-10.001,7.4c0,5.801,6.101,7.201,12.501,8.502
		c9.301,1.799,20.302,4.199,20.302,16.699c0,10.002-9.701,16.902-21.002,16.902c-13.601,0-22.301-6-22.801-17.701h11.101
		c0.7,7,5.5,10,11.7,10c5.4,0,10.601-2.6,10.601-8.1c0-5.801-6.3-7.701-12.801-9.002c-9.2-1.699-20.001-3.799-20.001-16.4
		c0-9.5,8.7-16,20.401-16c13.601,0,21.501,6,22.201,16.9H891.372z M887.672,3497.195l-7.301-4.1l-7.1,4.1h-9.501l12.501-10.9h8.4
		l12.4,10.9H887.672z"/>
	<path d="M1108.939,3516.697c-0.7-6.201-4.9-9.201-11.101-9.201c-5.3,0-10.001,2.5-10.001,7.4c0,5.801,6.101,7.201,12.501,8.502
		c9.301,1.799,20.302,4.199,20.302,16.699c0,10.002-9.701,16.902-21.002,16.902c-13.601,0-22.301-6-22.801-17.701h11.101
		c0.7,7,5.5,10,11.7,10c5.4,0,10.601-2.6,10.601-8.1c0-5.801-6.3-7.701-12.801-9.002c-9.2-1.699-20.001-3.799-20.001-16.4
		c0-9.5,8.701-16,20.401-16c13.601,0,21.501,6,22.201,16.9H1108.939z M1091.639,3580.301l2-18.602h10.2l-4.5,18.602H1091.639z"/>
	<path d="M1303.906,3555.5v-22.902h-9.8v-8.1h9.8v-15.301h-14.601v-8.002h40.103v8.002h-14.601v15.301h9.801v8.1h-9.801v22.902
		H1303.906z"/>
	<path d="M1513.574,3555.5v-46.303h-14.601v-8.002h40.103v8.002h-14.601v46.303H1513.574z M1523.275,3497.195h-8.4l-12.501-10.9
		h9.501l7.1,4.201l7.301-4.201h9.4L1523.275,3497.195z"/>
	<path d="M1719.344,3573.301c2.2,1,4.4,1.301,6.4,1.301c2.399,0,5.2-1.201,5.2-3.9c0-2.701-2.801-3.801-5.2-3.801
		c-1,0-2.7,0.199-4.001,0.6l-2.1-3.6l6.3-8.4h-2.699v-46.303h-14.602v-8.002h40.103v8.002h-14.601v46.303h-1.301l-4.899,6.5
		c5.7-0.4,11.2,2.199,11.2,8.4c0,6.5-6.101,9.9-12.601,9.9c-2.5,0-4.9-0.299-7.2-1.4V3573.301z"/>
	<path d="M219.068,3831.5v-46.303h-14.602v-8.002h40.103v8.002h-14.601v46.303H219.068z M217.468,3856.301l2-18.602h10.201
		l-4.501,18.602H217.468z"/>
	<path d="M443.853,3777.195h9.9v34.104c0,13.701-9.2,21.701-22.401,21.701c-13.9,0-23.001-7.201-23.001-20.201v-35.604h10.9v34.104
		c0,8,3.301,13.6,12.101,13.6c8.9,0,12.501-5.6,12.501-12.1V3777.195z M430.652,3773.195h-9.201l10.601-10.9h13.001
		L430.652,3773.195z"/>
	<path d="M658.835,3777.195h9.9v34.104c0,13.701-9.2,21.701-22.401,21.701c-13.9,0-23.001-7.201-23.001-20.201v-35.604h10.9v34.104
		c0,8,3.301,13.6,12.101,13.6c8.9,0,12.501-5.6,12.501-12.1V3777.195z M659.335,3762.295c0,7.801-6,11.602-13.301,11.602
		c-7.4,0-13.301-3.801-13.301-11.602h7.501c0,2.4,1.6,4.301,5.8,4.301s5.7-1.9,5.7-4.301H659.335z"/>
	<path d="M873.816,3777.195h9.9v34.104c0,13.701-9.2,21.701-22.401,21.701c-13.9,0-23.001-7.201-23.001-20.201v-35.604h10.9v34.104
		c0,8,3.301,13.6,12.101,13.6c8.901,0,12.501-5.6,12.501-12.1V3777.195z M868.216,3773.195l-7.3-4.1l-7.101,4.1h-9.501l12.501-10.9
		h8.4l12.401,10.9H868.216z"/>
	<path d="M1088.799,3777.195h9.9v34.104c0,13.701-9.2,21.701-22.401,21.701c-13.9,0-23.001-7.201-23.001-20.201v-35.604h10.9v34.104
		c0,8,3.301,13.6,12.101,13.6c8.901,0,12.501-5.6,12.501-12.1V3777.195z M1067.197,3772.797c-3.2,0-5.9-2.301-5.9-5.502
		c0-3.299,2.7-5.6,5.9-5.6s5.9,2.301,5.9,5.6C1073.098,3770.496,1070.397,3772.797,1067.197,3772.797z M1084.599,3772.797
		c-3.101,0-5.8-2.301-5.8-5.502c0-3.299,2.699-5.6,5.8-5.6c3.2,0,5.9,2.301,5.9,5.6
		C1090.499,3770.496,1087.799,3772.797,1084.599,3772.797z"/>
	<path d="M1303.781,3777.195h9.9v34.104c0,13.701-9.2,21.701-22.401,21.701c-13.9,0-23.001-7.201-23.001-20.201v-35.604h10.9v34.104
		c0,8,3.301,13.6,12.101,13.6c8.901,0,12.501-5.6,12.501-12.1V3777.195z M1283.68,3773.195h-8.6l8.8-10.9h12.201L1283.68,3773.195z
		 M1300.481,3773.195h-8.701l8.701-10.9h12.301L1300.481,3773.195z"/>
	<path d="M1518.764,3777.195h9.9v34.104c0,13.701-9.2,21.701-22.401,21.701c-13.9,0-23.001-7.201-23.001-20.201v-35.604h10.9v34.104
		c0,8,3.301,13.6,12.101,13.6c8.901,0,12.501-5.6,12.501-12.1V3777.195z M1492.862,3771.496v-7.201h26.002v7.201H1492.862z"/>
	<path d="M1733.745,3777.195h9.9v34.104c0,10.9-5.9,18.201-14.9,20.701c-7.301,3.9-10.9,7.9-10.9,12.801c0,3,2.399,4.699,4.8,4.699
		c2.3,0,4.801-0.9,7.101-2.1v6.5c-2.3,1.301-5.9,2.4-10.001,2.4c-6.8,0-10.9-4.4-10.9-10c0-5.201,3-9.701,8.801-13.502
		c-11.801-1.1-19.401-8.1-19.401-20v-35.604h10.9v34.104c0,8,3.301,13.6,12.101,13.6c8.9,0,12.501-5.6,12.501-12.1V3777.195z"/>
	<path d="M245.069,4053.195h9.9v34.104c0,13.701-9.2,21.701-22.401,21.701c-13.9,0-23.001-7.201-23.001-20.201v-35.604h10.9v34.104
		c0,8,3.301,13.6,12.101,13.6c8.9,0,12.501-5.6,12.501-12.1V4053.195z M232.169,4051.297c-5.501,0-9.501-2.9-9.501-7.602
		c0-4.699,4-7.6,9.501-7.6c5.5,0,9.5,2.9,9.5,7.6C241.669,4048.396,237.669,4051.297,232.169,4051.297z M232.169,4040.496
		c-2,0-3.301,1.199-3.301,3.199s1.301,3.1,3.301,3.1s3.3-1.1,3.3-3.1S234.169,4040.496,232.169,4040.496z"/>
	<path d="M484.049,4053.195h9.9v34.104c0,13.701-9.2,21.701-22.401,21.701c-13.9,0-23.001-7.201-23.001-20.201v-35.604h10.9v34.104
		c0,8,3.301,13.6,12.101,13.6c8.901,0,12.501-5.6,12.501-12.1V4053.195z M486.549,4041.096c-2,5.1-5.3,7.6-9.101,7.6
		c-4.4,0-9.5-3-12.4-3c-1.4,0-2.4,0.4-3.7,2.701l-5.7-2.701c2.1-5.199,5.4-7.699,9.2-7.699c4.4,0,9.4,3.199,12.301,3.199
		c1.5,0,2.5-0.6,3.7-2.9L486.549,4041.096z"/>
	<path d="M730.629,4107.5l-8.9-28.703l-3.2-11.6l-2.9,11.6l-8.301,28.703h-10.3l-16.602-54.305h11.801l7.801,28.703l2.899,11.4
		l2.9-11.4l8.201-28.703h9.7l8.7,28.703l3.2,11.5l2.7-11.5l7.001-28.703h10.4L740.43,4107.5H730.629z M719.128,4049.195h-9.2
		l10.601-10.9h13.001L719.128,4049.195z"/>
	<path d="M985.309,4107.5l-8.9-28.703l-3.2-11.6l-2.9,11.6l-8.301,28.703h-10.3l-16.602-54.305h11.801l7.801,28.703l2.899,11.4
		l2.9-11.4l8.201-28.703h9.7l8.7,28.703l3.2,11.5l2.7-11.5l7.001-28.703h10.4l-15.301,54.305H985.309z M980.708,4049.195l-7.3-4.1
		l-7.101,4.1h-9.501l12.501-10.9h8.4l12.401,10.9H980.708z"/>
	<path d="M1239.989,4107.5l-8.9-28.703l-3.2-11.6l-2.9,11.6l-8.301,28.703h-10.301l-16.601-54.305h11.801l7.801,28.703l2.899,11.4
		l2.9-11.4l8.201-28.703h9.7l8.7,28.703l3.2,11.5l2.7-11.5l7.001-28.703h10.4l-15.301,54.305H1239.989z M1219.388,4048.797
		c-3.2,0-5.9-2.301-5.9-5.502c0-3.299,2.7-5.6,5.9-5.6s5.9,2.301,5.9,5.6C1225.288,4046.496,1222.588,4048.797,1219.388,4048.797z
		 M1236.789,4048.797c-3.101,0-5.801-2.301-5.801-5.502c0-3.299,2.7-5.6,5.801-5.6c3.2,0,5.9,2.301,5.9,5.6
		C1242.689,4046.496,1239.989,4048.797,1236.789,4048.797z"/>
	<path d="M1494.669,4107.5l-8.9-28.703l-3.2-11.6l-2.9,11.6l-8.301,28.703h-10.301l-16.601-54.305h11.801l7.801,28.703l2.899,11.4
		l2.9-11.4l8.201-28.703h9.7l8.7,28.703l3.2,11.5l2.7-11.5l7.001-28.703h10.4l-15.301,54.305H1494.669z M1481.769,4049.195
		l-14.501-10.9h13.101l10.501,10.9H1481.769z"/>
	<path d="M1719.847,4107.5v-20.801l-18.301-33.504h11.801l12.7,25.502l12.001-25.502h10.301l-17.602,34.104v20.201H1719.847z
		 M1725.647,4049.195h-9.201l10.601-10.9h13.001L1725.647,4049.195z"/>
	<path d="M223.168,4383.5v-20.801l-18.301-33.504h11.801l12.7,25.502l12.001-25.502h10.301l-17.602,34.104v20.201H223.168z
		 M235.969,4325.195l-7.301-4.1l-7.1,4.1h-9.501l12.501-10.9h8.4l12.4,10.9H235.969z"/>
	<path d="M426.768,4383.5v-20.801l-18.301-33.504h11.801l12.7,25.502l12.001-25.502h10.301l-17.602,34.104v20.201H426.768z
		 M423.668,4324.797c-3.2,0-5.9-2.301-5.9-5.502c0-3.299,2.7-5.6,5.9-5.6s5.9,2.301,5.9,5.6
		C429.568,4322.496,426.868,4324.797,423.668,4324.797z M441.068,4324.797c-3.1,0-5.8-2.301-5.8-5.502c0-3.299,2.7-5.6,5.8-5.6
		c3.2,0,5.9,2.301,5.9,5.6C446.969,4322.496,444.269,4324.797,441.068,4324.797z"/>
	<path d="M630.367,4383.5v-20.801l-18.301-33.504h11.801l12.7,25.502l12.001-25.502h10.301l-17.602,34.104v20.201H630.367z
		 M634.867,4325.195l-14.5-10.9h13.101l10.5,10.9H634.867z"/>
	<path d="M815.566,4383.5v-7.9l25.702-38.402h-25.102v-8.002h36.602v8.002l-25.701,38.402h25.701v7.9H815.566z M833.868,4325.195
		h-9.201l10.601-10.9h13.001L833.868,4325.195z"/>
	<path d="M1010.766,4383.5v-7.9l25.702-38.402h-25.102v-8.002h36.602v8.002l-25.701,38.402h25.701v7.9H1010.766z M1033.967,4325.195
		h-8.4l-12.5-10.9h9.5l7.101,4.201l7.301-4.201h9.4L1033.967,4325.195z"/>
	<path d="M1205.965,4383.5v-7.9l25.702-38.402h-25.102v-8.002h36.602v8.002l-25.701,38.402h25.701v7.9H1205.965z M1224.566,4324.797
		c-3.2,0-6.001-2.201-6.001-5.502c0-3.299,2.801-5.6,6.001-5.6s6,2.301,6,5.6
		C1230.566,4322.596,1227.767,4324.797,1224.566,4324.797z"/>
	<path d="M1436.767,4383.5v-13.4h-17.901l-8.9,13.4h-11.801l37.702-54.305h36.103v8.002h-24.302v13.9h22.701v7.9h-22.701v16.602
		h24.302v7.9H1436.767z M1424.166,4362.098h12.601v-19.701l-5.9,9.602L1424.166,4362.098z M1446.167,4325.195h-9.2l10.601-10.9
		h13.001L1446.167,4325.195z"/>
</g>
</svg>
