<?xml version="1.0" encoding="utf-8"?>
<!-- Generator: Adobe Illustrator 16.0.3, SVG Export Plug-In . SVG Version: 6.00 Build 0)  -->
<!DOCTYPE svg PUBLIC "-//W3C//DTD SVG 1.1//EN" "http://www.w3.org/Graphics/SVG/1.1/DTD/svg11.dtd">
<svg version="1.1" id="Layer_1" xmlns="http://www.w3.org/2000/svg" xmlns:xlink="http://www.w3.org/1999/xlink" x="0px" y="0px"
	 width="2007.464px" height="5427.393px" viewBox="0 0 2007.464 5427.393" enable-background="new 0 0 2007.464 5427.393"
	 xml:space="preserve">
<g>
	<path d="M238.77,243.5v-6.101C234.169,241.9,228.568,245,221.668,245c-9.9,0-15.801-5.5-15.801-13.801
		c0-8.5,6.3-16.801,25.001-16.801c2.501,0,5.101,0.2,7.901,0.399v-5.9c0-9.4-4.601-11.2-9.201-11.2c-7,0-10.4,3.101-10.7,11.2
		h-11.201c0.2-12.4,8.601-18.801,21.901-18.801c9.601,0,20.201,3.601,20.201,17.501V243.5H238.77z M238.77,221.298
		c-2.601-0.3-5.101-0.4-7.201-0.4c-10.801,0-14.601,3.801-14.601,8.701c0,5.2,3.8,7.3,9.4,7.3c4.4,0,9.4-2.9,12.401-6V221.298z"/>
	<path d="M457.366,243.5v-5.4c-4.501,4.5-9.501,6.9-15.901,6.9c-11.001,0-19.901-9.301-19.901-27.401
		c0-18.201,11.001-27.502,22.401-27.502c5.601,0,10.301,2.4,13.401,6.101v-4.601h11V243.5H457.366z M457.366,203.197
		c-3.001-3-6.601-4.7-11.301-4.7c-6.701,0-13.102,5.7-13.102,19.102c0,13.301,5.501,19.001,12.201,19.001
		c4.7,0,9.2-2.101,12.201-5.101V203.197z"/>
	<path d="M642.16,243.5v-74.404h11.001v27.901c4.5-4.5,9.601-6.9,16.001-6.9c10.9,0,19.801,9.301,19.801,27.502
		c0,18.101-10.9,27.401-22.401,27.401c-5.5,0-10.301-2.4-13.4-6.101v4.601H642.16z M653.161,203.597v28.302c3,3,6.7,4.7,11.4,4.7
		c6.601,0,13.001-5.7,13.001-19.001c0-13.401-5.5-19.102-12.201-19.102C660.661,198.497,656.161,200.597,653.161,203.597z"/>
	<path d="M903.858,226.598c-1.3,11.301-9.2,18.401-22.201,18.401c-16.201,0-23.602-11.001-23.602-27.401
		c0-16.401,8.4-27.502,23.602-27.502c13.201,0,21.102,7.2,22.201,18.701h-11.301c-1.2-8.101-4.3-11.101-10.9-11.101
		c-7.101,0-12.201,6.2-12.201,19.901c0,13.7,4.501,19.801,12.201,19.801c6.301,0,9.601-3,10.801-10.801H903.858z"/>
	<path d="M1107.755,243.5v-5.4c-4.501,4.5-9.501,6.9-15.901,6.9c-11.001,0-19.901-9.301-19.901-27.401
		c0-18.201,11.001-27.502,22.401-27.502c5.601,0,10.301,2.4,13.401,6.101v-27.102h11V243.5H1107.755z M1107.755,203.197
		c-3.001-3-6.601-4.7-11.301-4.7c-6.701,0-13.102,5.7-13.102,19.102c0,13.301,5.501,19.001,12.201,19.001
		c4.7,0,9.2-2.101,12.201-5.101V203.197z"/>
	<path d="M1335.451,228.798c-1.101,9.4-9.201,16.201-21.702,16.201c-15.9,0-23.201-11.001-23.201-27.401
		c0-16.401,9.101-27.502,23.102-27.502c15.101,0,23.802,10.2,22.602,29.002h-34.603c0.3,13.2,4.9,18.301,12.101,18.301
		c6.001,0,9.201-2.6,10.401-8.601H1335.451z M1301.948,212.198h22.901c-0.199-10.001-4.5-14.601-11.2-14.601
		C1307.749,197.597,1303.049,201.897,1301.948,212.198z"/>
	<path d="M1509.046,243.5v-44.203h-8.7v-7.7h8.7v-8.101c0-10.7,6.301-15.9,16.701-15.9c2.2,0,6.4,0.5,8.701,1.7v7.1
		c-2.301-0.5-4.601-0.899-6.501-0.899c-4.6,0-7.9,2.1-7.9,7.9v8.2h14.401v7.7h-14.401V243.5H1509.046z"/>
	<path d="M1733.347,237.599c-4.501,4.5-9.501,7-15.901,7c-11.001,0-19.901-9.1-19.901-27.301s11.001-27.202,22.401-27.202
		c5.601,0,10.301,2.4,13.401,6.101v-4.601h11V243.2c0,15.701-11.4,22.602-23.102,22.602c-14.301,0-22.301-6.001-22.601-17.201h11.3
		c0.301,6.9,4.001,9.601,11.301,9.601c6.301,0,12.102-2.7,12.102-13.701V237.599z M1733.347,203.197c-3.001-3-6.601-4.7-11.301-4.7
		c-6.701,0-13.102,5.4-13.102,18.802c0,13.4,5.501,18.801,12.201,18.801c4.7,0,9.2-2.101,12.201-5.101V203.197z"/>
	<path d="M249.47,475.296c1.3,2.2,2,4.801,2,7.701c0,11.2-10.101,16.9-22.701,16.9c-4,0-7.7-0.6-10.9-1.7
		c-0.601,1.601-0.801,3.101-0.801,4.201c0,3.1,1.7,4.5,4.9,4.5h15.801c11.102,0,17.901,5.7,17.901,14.301
		c0,11.601-12.501,20.602-28.002,20.602S204.167,536,204.167,526.7c0-4.6,3-9.301,7.301-12.501c-2.601-1.8-3.7-4.6-3.7-8.2
		c0-3.8,2.2-7.7,4.7-10.501c-4.001-2.8-6.4-7-6.4-12.5c0-11.301,10.101-16.901,22.701-16.901c3.8,0,7.301,0.5,10.4,1.5h18.001v7.7
		H249.47z M219.668,516.299c-1.3,0-2.4-0.1-3.4-0.2c-1.3,2.101-1.9,4.5-1.9,7.101c0,7.501,5.4,11.301,14.802,11.301
		c9.4,0,15.4-4.101,15.4-10.9c0-5.301-4.3-7.301-8.5-7.301H219.668z M228.769,473.197c-7.001,0-11.9,2.7-11.9,9.801
		s5.2,9.801,11.9,9.801s11.801-2.7,11.801-9.801S235.769,473.197,228.769,473.197z"/>
	<path d="M437.093,519.5v-74.404h11.001v29.302c4.8-4.9,11.4-8.301,18.101-8.301c8.501,0,16.001,4.5,16.001,17.102V519.5h-11
		v-34.002c0-7.301-3.301-10.501-9.701-10.501c-4.8,0-10.301,2.9-13.4,6.001V519.5H437.093z"/>
	<path d="M671.719,460.096c-3.899,0-6.9-3.001-6.9-6.801s3.001-6.9,6.9-6.9c3.9,0,6.9,3.101,6.9,6.9
		S675.619,460.096,671.719,460.096z M666.219,519.5v-51.903h11.001V519.5H666.219z"/>
	<path d="M866.745,460.096c-3.899,0-6.9-3.001-6.9-6.801s3.001-6.9,6.9-6.9c3.9,0,6.9,3.101,6.9,6.9
		S870.646,460.096,866.745,460.096z M861.245,540.3v-72.704h11.001V540.3H861.245z"/>
	<path d="M1057.07,467.596h11.001V525.9c0,10.7-6.601,15.901-17.302,15.901c-2.199,0-5.6-0.601-7.8-1.7V533c2,0.5,4.5,1,6.601,1
		c4.2,0,7.5-2.2,7.5-8.001V467.596z M1062.57,460.096c-3.899,0-6.9-3.001-6.9-6.801s3.001-6.9,6.9-6.9c3.9,0,6.9,3.101,6.9,6.9
		S1066.471,460.096,1062.57,460.096z"/>
	<path d="M1252.096,519.5v-74.404h11.001v46.202l19.901-23.701h11.601l-20.602,23.201l22.602,28.702h-13.301l-20.201-26.701V519.5
		H1252.096z"/>
	<path d="M1471.32,519.5v-74.404h11.001V519.5H1471.32z"/>
	<path d="M1666.347,519.5v-51.903h11.001v6.801c4.8-4.9,11.101-8.301,17.801-8.301c6.2,0,11.801,2.4,14.301,8.7
		c6.001-6,13.001-8.7,19.201-8.7c8.501,0,15.701,4.5,15.701,17.102V519.5h-11.001v-34.002c0-7.301-3.1-10.501-9.4-10.501
		c-4.7,0-9.9,2.801-13.201,6.101c0.101,0.7,0.101,1.4,0.101,2.101V519.5h-11.001v-34.002c0-7.301-3-10.501-9.4-10.501
		c-4.801,0-10.001,2.9-13.101,6.001V519.5H1666.347z"/>
	<path d="M208.867,795.5v-51.903h11.001v6.801c4.8-4.9,11.4-8.301,18.101-8.301c8.501,0,16.001,4.5,16.001,17.102V795.5h-11v-34.002
		c0-7.301-3.301-10.501-9.701-10.501c-4.8,0-10.301,2.9-13.4,6.001V795.5H208.867z"/>
	<path d="M429.937,769.598c0-16.401,9.001-27.502,24.701-27.502c15.701,0,24.802,11.101,24.802,27.502
		c0,16.4-9.101,27.401-24.802,27.401C438.938,797,429.937,785.999,429.937,769.598z M467.938,769.598
		c0-13.701-5.3-19.901-13.301-19.901c-8,0-13.301,6.2-13.301,19.901c0,13.7,5.301,19.801,13.301,19.801
		C462.639,789.399,467.938,783.298,467.938,769.598z"/>
	<path d="M655.404,816.3v-72.704h11.001v5.4c4.5-4.5,9.601-6.9,16.001-6.9c10.9,0,19.801,9.301,19.801,27.502
		c0,18.101-10.9,27.401-22.401,27.401c-5.5,0-10.301-2.4-13.4-6.101V816.3H655.404z M666.405,755.597v28.302c3,3,6.7,4.7,11.4,4.7
		c6.601,0,13.001-5.7,13.001-19.001c0-13.401-5.5-19.102-12.201-19.102C673.905,750.497,669.405,752.597,666.405,755.597z"/>
	<path d="M911.273,816.3v-26.201c-4.501,4.5-9.501,6.9-15.901,6.9c-11.001,0-19.901-9.301-19.901-27.401
		c0-18.201,11.001-27.502,22.401-27.502c5.601,0,10.301,2.4,13.401,6.101v-4.601h11V816.3H911.273z M911.273,755.197
		c-3.001-3-6.601-4.7-11.301-4.7c-6.701,0-13.102,5.7-13.102,19.102c0,13.301,5.501,19.001,12.201,19.001
		c4.7,0,9.2-2.101,12.201-5.101V755.197z"/>
	<path d="M1100.938,795.5v-51.903h11.001v9.201c3.9-6.801,9.301-10.701,14.7-10.701c2.7,0,4.601,0.9,6.201,2.4v9.301
		c-2.4-1-4.101-1.601-7.101-1.601c-5.9,0-11.201,4.2-13.801,8.601V795.5H1100.938z"/>
	<path d="M1331.709,757.197c-0.399-5.5-3.3-7.7-9.801-7.7c-5.6,0-9.8,2.2-9.8,7.001c0,5.9,5.6,6.7,12.2,8
		c8.601,1.601,19.701,3.3,19.701,15.201c0,10.301-8.7,17.301-20.501,17.301c-14.901,0-21.701-6.4-21.901-16.501h11.101
		c0.3,5.7,3.2,9.101,11.101,9.101c5.601,0,10.101-2.5,10.101-8.101c0-5.7-6.5-6.7-12.801-7.9c-8.601-1.6-19.201-3.601-19.201-15.501
		c0-10.2,8.601-16.001,20.302-16.001c13.9,0,20.301,5.5,20.601,15.101H1331.709z"/>
	<path d="M1531.977,751.296v29.202c0,5.801,2.2,8.601,6.801,8.601c2,0,5.2-0.7,8-1.5v7.101c-3.1,1.399-8.5,2.3-11.601,2.3
		c-8,0-14.201-4.4-14.201-14.4v-31.303h-8.7v-7.7h8.7v-14.101h11.001v14.101h14.101v7.7H1531.977z"/>
	<path d="M1727.345,795.5v-44.203h-11.4v-7.7h11.4v-14.101h11.001v14.101h11.4v7.7h-11.4V795.5H1727.345z"/>
	<path d="M242.47,1019.596h11v51.903h-11v-6.801c-4.801,4.9-11.102,8.301-17.802,8.301c-8.5,0-15.801-4.4-15.801-17.001v-36.402
		h11.001v34.103c0,7.2,3.1,10.4,9.4,10.4c4.8,0,10.2-2.9,13.201-6V1019.596z"/>
	<path d="M432.265,1071.5l-19.301-51.903h12.101l8.9,25.901l4.5,14.602l4.4-14.602l8.601-25.901h10.401l-18.701,51.903H432.265z"/>
	<path d="M667.463,1071.5l-7.4-24.002l-4-14.601l-4,14.601l-7.001,24.002h-10.601l-17.101-51.903h11.7l7.501,25.702l3.8,14.601
		l3.9-14.601l7.2-25.702h10.001l7.7,25.702l4.001,14.601l3.8-14.601l7.2-25.702h10.301l-16.601,51.903H667.463z"/>
	<path d="M886.759,1071.5l-13.101-19.801l-13.001,19.801h-10.7l18.201-26.502l-17.301-25.401h11.9l11.4,17.301l11.401-17.301h10.7
		l-16.501,24.102l19.001,27.802H886.759z"/>
	<path d="M1065.555,1092.3l8.101-21.201l-19.801-51.503h12.101l8.4,23.802l4.7,14.601l4.601-14.601l8.4-23.802h10.4l-26.701,72.704
		H1065.555z"/>
	<path d="M1259.951,1071.5v-7.7l25.602-36.503h-24.602v-7.7h36.502v7.7l-25.701,36.503h25.701v7.7H1259.951z"/>
	<path d="M1534.152,1056.798c-1.2,9.4-9.3,16.201-21.801,16.201c-9.201,0-15.401-3.7-19.102-10.101
		c-5.9,6.2-13.301,10.101-21.201,10.101c-9.9,0-15.801-5.5-15.801-13.801c0-8.5,6.3-16.801,25.001-16.801
		c2.501,0,5.101,0.2,7.901,0.399v-5.9c0-9.4-4.601-11.2-9.201-11.2c-7,0-10.4,3.101-10.7,11.2h-11.201
		c0.2-12.4,8.601-18.801,21.901-18.801c6.2,0,12.501,1.7,16.201,7.2c3.9-4.5,9.601-7.2,16.101-7.2
		c15.102,0,23.802,10.2,22.702,29.002h-34.603c0.2,13.101,4.9,18.301,12.001,18.301c6,0,9.301-2.6,10.4-8.601H1534.152z
		 M1489.35,1049.298c-2.7-0.3-5.3-0.4-7.4-0.4c-10.801,0-14.601,3.801-14.601,8.701c0,5.2,3.8,7.3,8.7,7.3
		c5.501,0,11.201-3.8,14.701-7.7C1490.05,1054.899,1489.55,1052.199,1489.35,1049.298z M1523.452,1040.198
		c-0.101-10.001-4.5-14.601-11.201-14.601c-5.8,0-10.5,4.2-11.601,14.601H1523.452z"/>
	<path d="M1699.245,1071.5v-51.903h11.001v6.801c4.8-4.9,11.4-8.301,18.101-8.301c8.501,0,16.001,4.5,16.001,17.102v57.103h-11
		v-54.803c0-7.301-3.301-10.501-9.701-10.501c-4.8,0-10.301,2.9-13.4,6.001v38.502H1699.245z"/>
	<path d="M208.867,1347.5v-49.604c0-17.4,12.101-26.301,25.401-26.301c10.601,0,20.802,4,20.802,14.801
		c0,10.101-11.301,14.001-11.301,20.201c0,8.5,19.201,9,19.201,25.102c0,10.9-9.201,17.301-18.802,17.301
		c-12.7,0-18.2-6.4-18.501-16.501h11.101c0.301,5.7,2.4,9.101,8.101,9.101c3.7,0,7.601-2.601,7.601-8.101
		c0-13.101-19.601-11.301-19.601-25.602c0-8.4,11-12.4,11-20.201c0-5.3-3.4-8.5-9.9-8.5c-7.301,0-14.101,5.2-14.101,18.601v49.703
		H208.867z"/>
	<path d="M460.224,1283.795c8.601,9.4,15.302,21.802,15.302,36.002c0,17.102-8.601,29.202-24.102,29.202s-25.002-10.2-25.002-26.302
		c0-15.4,8.7-26.401,22.401-26.401c3.9,0,7.801,1.3,10.801,3.601c-2.2-4.601-5.2-8.901-8.7-12.801l-13.201,4.7l-4.5-6.4
		l11.601-4.101c-3.301-2.9-7.001-5.601-10.9-8.2h13.601c2.2,1.399,4.4,3.1,6.5,4.9l11.701-4.2l4.5,6.4L460.224,1283.795z
		 M462.824,1308.697c-3.101-3.1-7.101-4.9-11.501-4.9c-7.9,0-13.501,6.601-13.501,18.901c0,9.601,3.4,18.701,13.501,18.701
		c7.9,0,13.101-6.101,13.101-19.601C464.424,1317.097,463.824,1312.797,462.824,1308.697z"/>
	<path d="M645.776,1347.5v-60.004c0-10.7,6.3-15.9,16.7-15.9c2.2,0,6.4,0.5,8.701,1.7v7.4c-2.301-0.5-4.601-0.9-6.501-0.9
		c-4.6,0-7.9,2.101-7.9,7.601v60.104H645.776z"/>
	<path d="M836.13,1288.096c-3.899,0-6.9-3.001-6.9-6.801s3.001-6.9,6.9-6.9c3.9,0,6.9,3.101,6.9,6.9
		S840.03,1288.096,836.13,1288.096z M830.63,1347.5v-51.903h11.001v51.903H830.63z M861.932,1288.096c-3.9,0-6.9-3.001-6.9-6.801
		s3-6.9,6.9-6.9s6.9,3.101,6.9,6.9S865.832,1288.096,861.932,1288.096z M856.432,1368.3v-72.704h11.001v72.704H856.432z"/>
	<path d="M1043.783,1288.096c-3.899,0-6.9-3.001-6.9-6.801s3.001-6.9,6.9-6.9c3.9,0,6.9,3.101,6.9,6.9
		S1047.684,1288.096,1043.783,1288.096z M1038.283,1347.5v-51.903h11.001v51.903H1038.283z M1064.085,1295.596h11.001v58.304
		c0,10.7-6.601,15.901-17.302,15.901c-2.2,0-5.6-0.601-7.8-1.7V1361c2,0.5,4.5,1,6.6,1c4.2,0,7.501-2.2,7.501-8.001V1295.596z
		 M1069.585,1288.096c-3.9,0-6.9-3.001-6.9-6.801s3-6.9,6.9-6.9s6.9,3.101,6.9,6.9S1073.485,1288.096,1069.585,1288.096z"/>
	<path d="M1245.938,1347.5v-51.903h11.001v23.701l19.901-23.701h11.601l-20.602,23.201l22.602,28.702h-13.301l-20.201-26.701v26.701
		H1245.938z"/>
	<path d="M1531.196,1332.798c-1.2,9.4-9.3,16.201-21.801,16.201c-8.301,0-14.301-3.2-17.901-9.5c-4,6.3-10.4,9.5-18.602,9.5
		c-15.7,0-24.701-11.001-24.701-27.401c0-16.401,9.001-27.502,24.701-27.502c8.501,0,14.901,3.5,18.901,9.9
		c3.801-6.5,10.701-9.9,17.501-9.9c15.102,0,23.802,10.2,22.702,29.002h-34.603c0.3,13.2,4.8,18.301,12.001,18.301
		c6,0,9.3-2.6,10.4-8.601H1531.196z M1486.193,1321.598c0-13.701-5.3-19.901-13.301-19.901c-8,0-13.301,6.2-13.301,19.901
		c0,13.7,5.301,19.801,13.301,19.801C1480.894,1341.399,1486.193,1335.298,1486.193,1321.598z M1497.694,1316.198h22.802
		c-0.101-10.001-4.5-14.601-11.201-14.601C1503.495,1301.597,1498.795,1305.897,1497.694,1316.198z"/>
	<path d="M1697.346,1355.5l7.501-13.101c-4.801-4.8-7.301-12-7.301-20.801c0-16.401,9.001-27.502,24.701-27.502
		c3.501,0,6.601,0.5,9.401,1.601l4.7-8.101h10.7l-7.5,13.101c4.8,4.8,7.5,12.101,7.5,20.901c0,16.4-9.101,27.401-24.802,27.401
		c-3.6,0-6.7-0.6-9.601-1.6l-4.6,8.1H1697.346z M1710.547,1332.598l17.001-29.701c-1.601-0.8-3.4-1.2-5.301-1.2
		c-8,0-13.301,6.2-13.301,19.901C1708.946,1326.098,1709.547,1329.699,1710.547,1332.598z M1735.548,1321.598
		c0-4.501-0.6-8.201-1.699-11.101l-17.102,29.802c1.601,0.8,3.5,1.1,5.5,1.1C1730.248,1341.399,1735.548,1335.298,1735.548,1321.598
		z"/>
	<path d="M208.867,1644.3v-95.205h11.001v27.901c4.5-4.5,9.601-6.9,16.001-6.9c10.9,0,19.801,9.301,19.801,27.502
		c0,18.101-10.9,27.401-22.401,27.401c-5.5,0-10.301-2.4-13.4-6.101v25.401H208.867z M219.868,1583.597v28.302c3,3,6.7,4.7,11.4,4.7
		c6.601,0,13.001-5.7,13.001-19.001c0-13.401-5.5-19.102-12.201-19.102C227.368,1578.497,222.868,1580.597,219.868,1583.597z"/>
	<path d="M455.022,1623.5v-6.101c-4.601,4.501-10.201,7.601-17.102,7.601c-9.9,0-15.801-5.5-15.801-13.801
		c0-8.5,6.3-16.801,25.001-16.801c2.501,0,5.101,0.2,7.901,0.399v-5.9c0-9.4-4.601-11.2-9.201-11.2c-7,0-10.4,3.101-10.7,11.2
		H423.92c0.2-12.4,8.601-18.801,21.901-18.801c9.601,0,20.201,3.601,20.201,17.501v35.902H455.022z M455.022,1601.298
		c-2.601-0.3-5.101-0.4-7.201-0.4c-10.801,0-14.601,3.801-14.601,8.701c0,5.2,3.8,7.3,9.4,7.3c4.4,0,9.4-2.9,12.401-6V1601.298z
		 M436.121,1565.296l10.2-15.401h13.701l-14.801,15.401H436.121z"/>
	<path d="M668.077,1623.5v-6.101c-4.601,4.501-10.201,7.601-17.102,7.601c-9.9,0-15.801-5.5-15.801-13.801
		c0-8.5,6.3-16.801,25.001-16.801c2.501,0,5.101,0.2,7.901,0.399v-5.9c0-9.4-4.601-11.2-9.201-11.2c-7,0-10.4,3.101-10.7,11.2
		h-11.201c0.2-12.4,8.601-18.801,21.901-18.801c9.601,0,20.201,3.601,20.201,17.501v35.902H668.077z M673.077,1549.895
		c0,11.301-6.801,16.301-14.601,16.301c-7.801,0-14.701-5-14.701-16.301h7.601c0,4.4,2.2,8.101,7.101,8.101c4.899,0,7-3.7,7-8.101
		H673.077z M668.077,1601.298c-2.601-0.3-5.101-0.4-7.201-0.4c-10.801,0-14.601,3.801-14.601,8.701c0,5.2,3.8,7.3,9.4,7.3
		c4.4,0,9.4-2.9,12.401-6V1601.298z"/>
	<path d="M881.131,1623.5v-6.101c-4.601,4.501-10.201,7.601-17.102,7.601c-9.9,0-15.801-5.5-15.801-13.801
		c0-8.5,6.3-16.801,25.001-16.801c2.501,0,5.101,0.2,7.901,0.399v-5.9c0-9.4-4.601-11.2-9.201-11.2c-7,0-10.4,3.101-10.7,11.2
		h-11.201c0.2-12.4,8.601-18.801,21.901-18.801c9.601,0,20.201,3.601,20.201,17.501v35.902H881.131z M879.53,1565.296l-8-8.301
		l-8.001,8.301h-9.101l11.4-15.401h11.301l11.501,15.401H879.53z M881.131,1601.298c-2.601-0.3-5.101-0.4-7.201-0.4
		c-10.801,0-14.601,3.801-14.601,8.701c0,5.2,3.8,7.3,9.4,7.3c4.4,0,9.4-2.9,12.401-6V1601.298z"/>
	<path d="M1094.186,1623.5v-6.101c-4.601,4.501-10.201,7.601-17.102,7.601c-9.9,0-15.801-5.5-15.801-13.801
		c0-8.5,6.3-16.801,25.001-16.801c2.501,0,5.101,0.2,7.901,0.399v-5.9c0-9.4-4.601-11.2-9.201-11.2c-7,0-10.4,3.101-10.7,11.2
		h-11.201c0.2-12.4,8.601-18.801,21.901-18.801c9.601,0,20.201,3.601,20.201,17.501v35.902H1094.186z M1074.684,1563.996
		c-3.7,0-6.7-3-6.7-6.7s3-6.7,6.7-6.7c3.801,0,6.801,3,6.801,6.7S1078.484,1563.996,1074.684,1563.996z M1094.186,1601.298
		c-2.601-0.3-5.101-0.4-7.201-0.4c-10.801,0-14.601,3.801-14.601,8.701c0,5.2,3.8,7.3,9.4,7.3c4.4,0,9.4-2.9,12.401-6V1601.298z
		 M1094.285,1563.996c-3.801,0-6.7-3-6.7-6.7s2.899-6.7,6.7-6.7c3.8,0,6.801,3,6.801,6.7S1098.085,1563.996,1094.285,1563.996z"/>
	<path d="M1307.239,1623.5v-6.101c-4.601,4.501-10.201,7.601-17.102,7.601c-9.9,0-15.801-5.5-15.801-13.801
		c0-8.5,6.3-16.801,25.001-16.801c2.501,0,5.101,0.2,7.901,0.399v-5.9c0-9.4-4.601-11.2-9.201-11.2c-7,0-10.4,3.101-10.7,11.2
		h-11.201c0.2-12.4,8.601-18.801,21.901-18.801c9.601,0,20.201,3.601,20.201,17.501v35.902H1307.239z M1297.538,1565.296
		l-14.801-15.401h13.701l10.2,15.401H1297.538z M1307.239,1601.298c-2.601-0.3-5.101-0.4-7.201-0.4
		c-10.801,0-14.601,3.801-14.601,8.701c0,5.2,3.8,7.3,9.4,7.3c4.4,0,9.4-2.9,12.401-6V1601.298z"/>
	<path d="M1520.294,1623.5v-6.101c-4.601,4.501-10.201,7.601-17.102,7.601c-9.9,0-15.801-5.5-15.801-13.801
		c0-8.5,6.3-16.801,25.001-16.801c2.501,0,5.101,0.2,7.901,0.399v-5.9c0-9.4-4.601-11.2-9.201-11.2c-7,0-10.4,3.101-10.7,11.2
		h-11.201c0.2-12.4,8.601-18.801,21.901-18.801c9.601,0,20.201,3.601,20.201,17.501v35.902H1520.294z M1495.592,1562.295v-7.8
		h30.202v7.8H1495.592z M1520.294,1601.298c-2.601-0.3-5.101-0.4-7.201-0.4c-10.801,0-14.601,3.801-14.601,8.701
		c0,5.2,3.8,7.3,9.4,7.3c4.4,0,9.4-2.9,12.401-6V1601.298z"/>
	<path d="M1744.348,1645.901c-2.3,1.3-5.9,2.4-10,2.4c-6.801,0-10.901-4.4-10.901-10.001c0-5.8,3.801-10.7,11.101-14.801h-1.199
		v-6.101c-4.601,4.501-10.201,7.601-17.102,7.601c-9.9,0-15.801-5.5-15.801-13.801c0-8.5,6.3-16.801,25.001-16.801
		c2.501,0,5.101,0.2,7.901,0.399v-5.9c0-9.4-4.601-11.2-9.201-11.2c-7,0-10.4,3.101-10.7,11.2h-11.201
		c0.2-12.4,8.601-18.801,21.901-18.801c9.601,0,20.201,3.601,20.201,17.501v35.902c-7.9,4.101-11.9,8.2-11.9,13.301
		c0,3,2.4,4.7,4.8,4.7c2.301,0,4.801-0.9,7.101-2.1V1645.901z M1733.348,1601.298c-2.601-0.3-5.101-0.4-7.201-0.4
		c-10.801,0-14.601,3.801-14.601,8.701c0,5.2,3.8,7.3,9.4,7.3c4.4,0,9.4-2.9,12.401-6V1601.298z"/>
	<path d="M238.77,1899.5v-6.101c-4.601,4.501-10.201,7.601-17.102,7.601c-9.9,0-15.801-5.5-15.801-13.801
		c0-8.5,6.3-16.801,25.001-16.801c2.501,0,5.101,0.2,7.901,0.399v-5.9c0-9.4-4.601-11.2-9.201-11.2c-7,0-10.4,3.101-10.7,11.2
		h-11.201c0.2-12.4,8.601-18.801,21.901-18.801c9.601,0,20.201,3.601,20.201,17.501v35.902H238.77z M238.77,1877.298
		c-2.601-0.3-5.101-0.4-7.201-0.4c-10.801,0-14.601,3.801-14.601,8.701c0,5.2,3.8,7.3,9.4,7.3c4.4,0,9.4-2.9,12.401-6V1877.298z
		 M229.068,1843.396c-6.5,0-11.7-3.601-11.7-9.801c0-6.1,5.2-9.7,11.7-9.7c6.601,0,11.801,3.601,11.801,9.7
		C240.869,1839.795,235.669,1843.396,229.068,1843.396z M232.469,1832.595c-0.8-2.2-2.601-3-4.601-2.4
		c-2.1,0.601-2.9,2.301-2.1,4.501c0.7,2.2,2.6,3,4.6,2.399C232.369,1836.496,233.169,1834.795,232.469,1832.595z"/>
	<path d="M450.651,1899.5v-6.101c-4.601,4.501-10.201,7.601-17.102,7.601c-9.9,0-15.801-5.5-15.801-13.801
		c0-8.5,6.3-16.801,25.001-16.801c2.501,0,5.101,0.2,7.901,0.399v-5.9c0-9.4-4.601-11.2-9.201-11.2c-7,0-10.4,3.101-10.7,11.2
		h-11.201c0.2-12.4,8.601-18.801,21.901-18.801c9.601,0,20.201,3.601,20.201,17.501v35.902H450.651z M458.852,1830.795
		c-2.5,6.7-7.2,9.801-11.201,9.801c-5.5,0-10-4.4-13.301-4.4c-1.899,0-3.4,0.899-5,4.101l-6-2.9c2.6-6.601,7.3-9.801,11.301-9.801
		c5.5,0,10,4.5,13.2,4.5c1.8,0,3.4-1,5-4.2L458.852,1830.795z M450.651,1877.298c-2.601-0.3-5.101-0.4-7.201-0.4
		c-10.801,0-14.601,3.801-14.601,8.701c0,5.2,3.8,7.3,9.4,7.3c4.4,0,9.4-2.9,12.401-6V1877.298z"/>
	<path d="M665.733,1899.5v-5.4c-4.501,4.5-9.501,6.9-15.901,6.9c-11.001,0-19.901-9.301-19.901-27.401
		c0-18.201,11.001-27.502,22.401-27.502c5.601,0,10.301,2.4,13.401,6.101v-4.601h11v51.903H665.733z M665.733,1859.197
		c-3.001-3-6.601-4.7-11.301-4.7c-6.701,0-13.102,5.7-13.102,19.102c0,13.301,5.501,19.001,12.201,19.001
		c4.7,0,9.2-2.101,12.201-5.101V1859.197z M644.332,1841.296l10.2-15.401h13.701l-14.801,15.401H644.332z"/>
	<path d="M879.515,1899.5v-5.4c-4.501,4.5-9.501,6.9-15.901,6.9c-11.001,0-19.901-9.301-19.901-27.401
		c0-18.201,11.001-27.502,22.401-27.502c5.601,0,10.301,2.4,13.401,6.101v-4.601h11v51.903H879.515z M883.715,1825.895
		c0,11.301-6.801,16.301-14.602,16.301c-7.8,0-14.7-5-14.7-16.301h7.6c0,4.4,2.2,8.101,7.101,8.101s7.001-3.7,7.001-8.101H883.715z
		 M879.515,1859.197c-3.001-3-6.601-4.7-11.301-4.7c-6.701,0-13.102,5.7-13.102,19.102c0,13.301,5.501,19.001,12.201,19.001
		c4.7,0,9.2-2.101,12.201-5.101V1859.197z"/>
	<path d="M1093.298,1899.5v-5.4c-4.501,4.5-9.501,6.9-15.901,6.9c-11.001,0-19.901-9.301-19.901-27.401
		c0-18.201,11.001-27.502,22.401-27.502c5.601,0,10.301,2.4,13.401,6.101v-4.601h11v51.903H1093.298z M1090.897,1841.296
		l-8.001-8.301l-8,8.301h-9.101l11.4-15.401h11.301l11.501,15.401H1090.897z M1093.298,1859.197c-3.001-3-6.601-4.7-11.301-4.7
		c-6.701,0-13.102,5.7-13.102,19.102c0,13.301,5.501,19.001,12.201,19.001c4.7,0,9.2-2.101,12.201-5.101V1859.197z"/>
	<path d="M1307.08,1899.5v-5.4c-4.501,4.5-9.501,6.9-15.901,6.9c-11.001,0-19.901-9.301-19.901-27.401
		c0-18.201,11.001-27.502,22.401-27.502c5.601,0,10.301,2.4,13.401,6.101v-4.601h11v51.903H1307.08z M1287.078,1839.996
		c-3.7,0-6.7-3-6.7-6.7s3-6.7,6.7-6.7c3.801,0,6.801,3,6.801,6.7S1290.879,1839.996,1287.078,1839.996z M1307.08,1859.197
		c-3.001-3-6.601-4.7-11.301-4.7c-6.701,0-13.102,5.7-13.102,19.102c0,13.301,5.501,19.001,12.201,19.001
		c4.7,0,9.2-2.101,12.201-5.101V1859.197z M1306.68,1839.996c-3.801,0-6.7-3-6.7-6.7s2.899-6.7,6.7-6.7c3.8,0,6.801,3,6.801,6.7
		S1310.479,1839.996,1306.68,1839.996z"/>
	<path d="M1520.862,1899.5v-5.4c-4.501,4.5-9.501,6.9-15.901,6.9c-11.001,0-19.901-9.301-19.901-27.401
		c0-18.201,11.001-27.502,22.401-27.502c5.601,0,10.301,2.4,13.401,6.101v-4.601h11v51.903H1520.862z M1508.261,1841.296
		l-14.801-15.401h13.701l10.2,15.401H1508.261z M1520.862,1859.197c-3.001-3-6.601-4.7-11.301-4.7
		c-6.701,0-13.102,5.7-13.102,19.102c0,13.301,5.501,19.001,12.201,19.001c4.7,0,9.2-2.101,12.201-5.101V1859.197z"/>
	<path d="M1734.645,1899.5v-5.4c-4.501,4.5-9.501,6.9-15.901,6.9c-11.001,0-19.901-9.301-19.901-27.401
		c0-18.201,11.001-27.502,22.401-27.502c5.601,0,10.301,2.4,13.401,6.101v-4.601h11v51.903H1734.645z M1709.043,1838.295v-7.8
		h30.201v7.8H1709.043z M1734.645,1859.197c-3.001-3-6.601-4.7-11.301-4.7c-6.701,0-13.102,5.7-13.102,19.102
		c0,13.301,5.501,19.001,12.201,19.001c4.7,0,9.2-2.101,12.201-5.101V1859.197z"/>
	<path d="M252.97,2197.901c-2.3,1.3-5.9,2.4-10,2.4c-6.801,0-10.901-4.4-10.901-10.001c0-5.8,3.801-10.7,11.101-14.801h-1.199v-5.4
		c-4.501,4.5-9.501,6.9-15.901,6.9c-11.001,0-19.901-9.301-19.901-27.401c0-18.201,11.001-27.502,22.401-27.502
		c5.601,0,10.301,2.4,13.401,6.101v-4.601h11v51.903c-7.9,4.101-11.9,8.2-11.9,13.301c0,3,2.4,4.7,4.8,4.7
		c2.301,0,4.801-0.9,7.101-2.1V2197.901z M241.97,2135.197c-3.001-3-6.601-4.7-11.301-4.7c-6.701,0-13.102,5.7-13.102,19.102
		c0,13.301,5.501,19.001,12.201,19.001c4.7,0,9.2-2.101,12.201-5.101V2135.197z"/>
	<path d="M457.467,2175.5v-5.4c-4.501,4.5-9.501,6.9-15.901,6.9c-11.001,0-19.901-9.301-19.901-27.401
		c0-18.201,11.001-27.502,22.401-27.502c5.601,0,10.301,2.4,13.401,6.101v-4.601h11v51.903H457.467z M457.467,2135.197
		c-3.001-3-6.601-4.7-11.301-4.7c-6.701,0-13.102,5.7-13.102,19.102c0,13.301,5.501,19.001,12.201,19.001
		c4.7,0,9.2-2.101,12.201-5.101V2135.197z M446.966,2119.396c-6.501,0-11.701-3.601-11.701-9.801c0-6.1,5.2-9.7,11.701-9.7
		c6.601,0,11.801,3.601,11.801,9.7C458.767,2115.795,453.566,2119.396,446.966,2119.396z M450.366,2108.595
		c-0.801-2.2-2.601-3-4.601-2.4c-2.101,0.601-2.9,2.301-2.101,4.501c0.7,2.2,2.601,3,4.601,2.399
		C450.266,2112.496,451.066,2110.795,450.366,2108.595z"/>
	<path d="M682.965,2158.598c-1.3,11.301-9.2,18.401-22.201,18.401c-16.201,0-23.602-11.001-23.602-27.401
		c0-16.401,8.4-27.502,23.602-27.502c13.201,0,21.102,7.2,22.201,18.701h-11.301c-1.2-8.101-4.3-11.101-10.9-11.101
		c-7.101,0-12.201,6.2-12.201,19.901c0,13.7,4.501,19.801,12.201,19.801c6.301,0,9.601-3,10.801-10.801H682.965z M655.463,2117.296
		l10.201-15.401h13.701l-14.802,15.401H655.463z"/>
	<path d="M895.061,2158.598c-1.3,11.301-9.2,18.401-22.201,18.401c-16.201,0-23.602-11.001-23.602-27.401
		c0-16.401,8.4-27.502,23.602-27.502c13.201,0,21.102,7.2,22.201,18.701H883.76c-1.2-8.101-4.3-11.101-10.9-11.101
		c-7.101,0-12.201,6.2-12.201,19.901c0,13.7,4.501,19.801,12.201,19.801c6.301,0,9.601-3,10.801-10.801H895.061z M866.459,2117.296
		l-11.4-15.401h9.101l8,8.2l8.001-8.2h9.101l-11.501,15.401H866.459z"/>
	<path d="M1074.355,2193.3c2.2,1,4.4,1.301,6.4,1.301c2.4,0,5.2-1.2,5.2-3.9s-2.8-3.801-5.2-3.801c-1,0-2.7,0.2-4,0.601
		l-2.101-3.601l5.4-7.301c-12.801-2-18.701-12.301-18.701-27.001c0-16.401,8.4-27.502,23.602-27.502
		c13.201,0,21.102,7.2,22.201,18.701h-11.301c-1.2-8.101-4.3-11.101-10.9-11.101c-7.101,0-12.201,6.2-12.201,19.901
		c0,13.7,4.501,19.801,12.201,19.801c6.301,0,9.601-3,10.801-10.801h11.4c-1.3,10.801-8.5,17.701-20.401,18.302l-3.8,5.1
		c5.7-0.399,11.2,2.2,11.2,8.401c0,6.5-6.1,9.9-12.601,9.9c-2.5,0-4.9-0.3-7.2-1.4V2193.3z"/>
	<path d="M1319.254,2158.598c-1.3,11.301-9.2,18.401-22.201,18.401c-16.201,0-23.602-11.001-23.602-27.401
		c0-16.401,8.4-27.502,23.602-27.502c13.201,0,21.102,7.2,22.201,18.701h-11.301c-1.2-8.101-4.3-11.101-10.9-11.101
		c-7.101,0-12.201,6.2-12.201,19.901c0,13.7,4.501,19.801,12.201,19.801c6.301,0,9.601-3,10.801-10.801H1319.254z
		 M1304.354,2117.296l-8.001-8.301l-8,8.301h-9.101l11.4-15.401h11.301l11.501,15.401H1304.354z"/>
	<path d="M1531.351,2158.598c-1.3,11.301-9.2,18.401-22.201,18.401c-16.201,0-23.602-11.001-23.602-27.401
		c0-16.401,8.4-27.502,23.602-27.502c13.201,0,21.102,7.2,22.201,18.701h-11.301c-1.2-8.101-4.3-11.101-10.9-11.101
		c-7.101,0-12.201,6.2-12.201,19.901c0,13.7,4.501,19.801,12.201,19.801c6.301,0,9.601-3,10.801-10.801H1531.351z M1508.35,2116.096
		c-3.9,0-6.9-3.001-6.9-6.801s3-6.9,6.9-6.9s6.9,3.101,6.9,6.9S1512.25,2116.096,1508.35,2116.096z"/>
	<path d="M1733.446,2175.5v-5.4c-4.501,4.5-9.501,6.9-15.901,6.9c-11.001,0-19.901-9.301-19.901-27.401
		c0-18.201,11.001-27.502,22.401-27.502c5.601,0,10.301,2.4,13.401,6.101v-27.102h11v74.404H1733.446z M1733.446,2135.197
		c-3.001-3-6.601-4.7-11.301-4.7c-6.701,0-13.102,5.7-13.102,19.102c0,13.301,5.501,19.001,12.201,19.001
		c4.7,0,9.2-2.101,12.201-5.101V2135.197z M1750.146,2117.796v-22.602h9.901l-2.2,22.602H1750.146z"/>
	<path d="M241.97,2451.5v-5.4c-4.501,4.5-9.501,6.9-15.901,6.9c-11.001,0-19.901-9.301-19.901-27.401
		c0-18.201,11.001-27.502,22.401-27.502c5.601,0,10.301,2.4,13.401,6.101v-12.701h-11.801v-7.8h11.801v-6.601h11v6.601h7.4v7.8h-7.4
		v60.004H241.97z M241.97,2411.197c-3.001-3-6.601-4.7-11.301-4.7c-6.701,0-13.102,5.7-13.102,19.102
		c0,13.301,5.501,19.001,12.201,19.001c4.7,0,9.2-2.101,12.201-5.101V2411.197z"/>
	<path d="M467.723,2436.798c-1.1,9.4-9.2,16.201-21.701,16.201c-15.9,0-23.201-11.001-23.201-27.401
		c0-16.401,9.101-27.502,23.102-27.502c15.101,0,23.802,10.2,22.602,29.002h-34.603c0.3,13.2,4.9,18.301,12.101,18.301
		c6.001,0,9.201-2.6,10.401-8.601H467.723z M434.221,2420.198h22.901c-0.199-10.001-4.5-14.601-11.2-14.601
		C440.021,2405.597,435.321,2409.897,434.221,2420.198z M436.722,2393.296l10.2-15.401h13.701l-14.801,15.401H436.722z"/>
	<path d="M680.777,2436.798c-1.1,9.4-9.2,16.201-21.701,16.201c-15.9,0-23.201-11.001-23.201-27.401
		c0-16.401,9.101-27.502,23.102-27.502c15.101,0,23.802,10.2,22.602,29.002h-34.603c0.3,13.2,4.9,18.301,12.101,18.301
		c6.001,0,9.201-2.6,10.401-8.601H680.777z M673.577,2377.895c0,11.301-6.8,16.301-14.601,16.301s-14.701-5-14.701-16.301h7.601
		c0,4.4,2.2,8.101,7.101,8.101s7-3.7,7-8.101H673.577z M647.275,2420.198h22.901c-0.199-10.001-4.5-14.601-11.2-14.601
		C653.076,2405.597,648.376,2409.897,647.275,2420.198z"/>
	<path d="M893.832,2436.798c-1.101,9.4-9.201,16.201-21.702,16.201c-15.9,0-23.201-11.001-23.201-27.401
		c0-16.401,9.101-27.502,23.102-27.502c15.101,0,23.802,10.2,22.602,29.002h-34.603c0.3,13.2,4.9,18.301,12.101,18.301
		c6.001,0,9.201-2.6,10.401-8.601H893.832z M866.33,2393.296l-11.401-15.401h9.101l8.001,8.2l8-8.2h9.101l-11.5,15.401H866.33z
		 M860.329,2420.198h22.901c-0.199-10.001-4.5-14.601-11.2-14.601C866.13,2405.597,861.43,2409.897,860.329,2420.198z"/>
	<path d="M1106.887,2436.798c-1.101,9.4-9.201,16.201-21.702,16.201c-15.9,0-23.201-11.001-23.201-27.401
		c0-16.401,9.101-27.502,23.102-27.502c15.101,0,23.802,10.2,22.602,29.002h-34.603c0.3,13.2,4.9,18.301,12.101,18.301
		c6.001,0,9.201-2.6,10.401-8.601H1106.887z M1093.085,2393.296l-8-8.301l-8.001,8.301h-9.101l11.401-15.401h11.301l11.5,15.401
		H1093.085z M1073.384,2420.198h22.901c-0.199-10.001-4.5-14.601-11.2-14.601
		C1079.185,2405.597,1074.484,2409.897,1073.384,2420.198z"/>
	<path d="M1319.941,2436.798c-1.101,9.4-9.201,16.201-21.702,16.201c-15.9,0-23.201-11.001-23.201-27.401
		c0-16.401,9.101-27.502,23.102-27.502c15.101,0,23.802,10.2,22.602,29.002h-34.603c0.3,13.2,4.9,18.301,12.101,18.301
		c6.001,0,9.201-2.6,10.401-8.601H1319.941z M1288.339,2391.996c-3.7,0-6.7-3-6.7-6.7s3-6.7,6.7-6.7c3.801,0,6.801,3,6.801,6.7
		S1292.14,2391.996,1288.339,2391.996z M1286.438,2420.198h22.901c-0.199-10.001-4.5-14.601-11.2-14.601
		C1292.239,2405.597,1287.539,2409.897,1286.438,2420.198z M1307.94,2391.996c-3.801,0-6.7-3-6.7-6.7s2.899-6.7,6.7-6.7
		c3.8,0,6.8,3,6.8,6.7S1311.74,2391.996,1307.94,2391.996z"/>
	<path d="M1532.996,2436.798c-1.101,9.4-9.201,16.201-21.702,16.201c-15.9,0-23.201-11.001-23.201-27.401
		c0-16.401,9.101-27.502,23.102-27.502c15.101,0,23.802,10.2,22.602,29.002h-34.603c0.3,13.2,4.9,18.301,12.101,18.301
		c6.001,0,9.201-2.6,10.401-8.601H1532.996z M1499.493,2420.198h22.901c-0.199-10.001-4.5-14.601-11.2-14.601
		C1505.294,2405.597,1500.594,2409.897,1499.493,2420.198z M1510.494,2392.096c-3.9,0-6.9-3.001-6.9-6.801s3-6.9,6.9-6.9
		s6.9,3.101,6.9,6.9S1514.395,2392.096,1510.494,2392.096z"/>
	<path d="M1746.051,2436.798c-1.101,9.4-9.201,16.201-21.702,16.201c-15.9,0-23.201-11.001-23.201-27.401
		c0-16.401,9.101-27.502,23.102-27.502c15.101,0,23.802,10.2,22.602,29.002h-34.603c0.3,13.2,4.9,18.301,12.101,18.301
		c6.001,0,9.201-2.6,10.401-8.601H1746.051z M1722.449,2393.296l-14.801-15.401h13.7l10.201,15.401H1722.449z M1712.548,2420.198
		h22.901c-0.199-10.001-4.5-14.601-11.2-14.601C1718.349,2405.597,1713.648,2409.897,1712.548,2420.198z"/>
	<path d="M251.07,2712.799c-1.101,9.4-9.201,16.201-21.702,16.201c-15.9,0-23.201-11.002-23.201-27.402s9.101-27.501,23.102-27.501
		c15.101,0,23.802,10.201,22.602,29.001h-34.603c0.3,13.201,4.9,18.301,12.101,18.301c6.001,0,9.201-2.6,10.401-8.6H251.07z
		 M213.768,2666.295v-7.8h30.202v7.8H213.768z M217.567,2696.197h22.901c-0.199-10-4.5-14.6-11.2-14.6
		C223.368,2681.598,218.668,2685.896,217.567,2696.197z"/>
	<path d="M462.309,2712.799c-0.399,2.801-1.3,5.4-2.8,7.701c-5.2,9-9.101,15.4-9.101,20.301c0,3,2.4,4.699,4.801,4.699
		c2.3,0,4.8-0.9,7.1-2.1v6.5c-2.3,1.301-5.899,2.4-10,2.4c-6.801,0-10.9-4.4-10.9-10c0-4.201,1.699-7.9,6.3-14.201
		c-2.2,0.6-4.5,0.9-7.101,0.9c-15.9,0-23.201-11.002-23.201-27.402s9.101-27.501,23.102-27.501
		c15.101,0,23.802,10.201,22.602,29.001h-34.603c0.3,13.201,4.9,18.301,12.101,18.301c6.001,0,9.201-2.6,10.401-8.6H462.309z
		 M428.807,2696.197h22.901c-0.199-10-4.5-14.6-11.2-14.6C434.607,2681.598,429.907,2685.896,428.807,2696.197z"/>
	<path d="M664.449,2721.6c-4.501,4.5-9.501,7-15.901,7c-11.001,0-19.901-9.1-19.901-27.301s11.001-27.203,22.401-27.203
		c5.601,0,10.301,2.4,13.401,6.101v-4.602h11v51.604c0,15.701-11.4,22.602-23.102,22.602c-14.301,0-22.301-6-22.601-17.201h11.3
		c0.301,6.9,4.001,9.602,11.301,9.602c6.301,0,12.102-2.701,12.102-13.701V2721.6z M668.649,2653.895
		c0,11.301-6.801,16.301-14.602,16.301c-7.8,0-14.7-5-14.7-16.301h7.6c0,4.4,2.2,8.101,7.101,8.101s7.001-3.7,7.001-8.101H668.649z
		 M664.449,2687.197c-3.001-3-6.601-4.701-11.301-4.701c-6.701,0-13.102,5.4-13.102,18.803c0,13.4,5.501,18.801,12.201,18.801
		c4.7,0,9.2-2.102,12.201-5.102V2687.197z"/>
	<path d="M877.589,2721.6c-4.501,4.5-9.501,7-15.901,7c-11.001,0-19.901-9.1-19.901-27.301s11.001-27.203,22.401-27.203
		c5.601,0,10.301,2.4,13.401,6.101v-4.602h11v51.604c0,15.701-11.4,22.602-23.102,22.602c-14.301,0-22.301-6-22.601-17.201h11.3
		c0.301,6.9,4.001,9.602,11.301,9.602c6.301,0,12.102-2.701,12.102-13.701V2721.6z M875.188,2669.296l-8.001-8.301l-8,8.301h-9.101
		l11.4-15.401h11.301l11.501,15.401H875.188z M877.589,2687.197c-3.001-3-6.601-4.701-11.301-4.701
		c-6.701,0-13.102,5.4-13.102,18.803c0,13.4,5.501,18.801,12.201,18.801c4.7,0,9.2-2.102,12.201-5.102V2687.197z"/>
	<path d="M1090.729,2721.6c-4.501,4.5-9.501,7-15.901,7c-11.001,0-19.901-9.1-19.901-27.301s11.001-27.203,22.401-27.203
		c5.601,0,10.301,2.4,13.401,6.101v-4.602h11v51.604c0,15.701-11.4,22.602-23.102,22.602c-14.301,0-22.301-6-22.601-17.201h11.3
		c0.301,6.9,4.001,9.602,11.301,9.602c6.301,0,12.102-2.701,12.102-13.701V2721.6z M1090.729,2687.197
		c-3.001-3-6.601-4.701-11.301-4.701c-6.701,0-13.102,5.4-13.102,18.803c0,13.4,5.501,18.801,12.201,18.801
		c4.7,0,9.2-2.102,12.201-5.102V2687.197z M1085.429,2650.595l-2,18.601h-10.201l4.501-18.601H1085.429z"/>
	<path d="M1303.87,2721.6c-4.501,4.5-9.501,7-15.901,7c-11.001,0-19.901-9.1-19.901-27.301s11.001-27.203,22.401-27.203
		c5.601,0,10.301,2.4,13.401,6.101v-4.602h11v51.604c0,15.701-11.4,22.602-23.102,22.602c-14.301,0-22.301-6-22.601-17.201h11.3
		c0.301,6.9,4.001,9.602,11.301,9.602c6.301,0,12.102-2.701,12.102-13.701V2721.6z M1303.87,2687.197
		c-3.001-3-6.601-4.701-11.301-4.701c-6.701,0-13.102,5.4-13.102,18.803c0,13.4,5.501,18.801,12.201,18.801
		c4.7,0,9.2-2.102,12.201-5.102V2687.197z M1291.169,2668.096c-3.9,0-6.9-3.001-6.9-6.801s3-6.9,6.9-6.9s6.9,3.101,6.9,6.9
		S1295.069,2668.096,1291.169,2668.096z"/>
	<path d="M1525.809,2683.297c1.3,2.199,2,4.801,2,7.701c0,11.199-10.101,16.9-22.701,16.9c-4,0-7.7-0.6-10.9-1.701
		c-0.601,1.602-0.801,3.102-0.801,4.201c0,3.1,1.7,4.5,4.9,4.5h15.801c11.102,0,17.901,5.701,17.901,14.301
		c0,11.602-12.501,20.602-28.002,20.602s-23.501-5.801-23.501-15.102c0-4.6,3-9.301,7.301-12.5c-2.601-1.801-3.7-4.6-3.7-8.201
		c0-3.799,2.2-7.699,4.7-10.5c-4.001-2.801-6.4-7-6.4-12.5c0-11.301,10.101-16.902,22.701-16.902c3.8,0,7.301,0.5,10.4,1.5h18.001
		v7.701H1525.809z M1496.007,2724.299c-1.3,0-2.4-0.1-3.4-0.199c-1.3,2.1-1.9,4.5-1.9,7.1c0,7.502,5.4,11.301,14.802,11.301
		c9.4,0,15.4-4.1,15.4-10.9c0-5.301-4.3-7.301-8.5-7.301H1496.007z M1520.208,2653.895c0,11.301-6.8,16.301-14.601,16.301
		s-14.701-5-14.701-16.301h7.601c0,4.4,2.2,8.101,7.101,8.101s7-3.7,7-8.101H1520.208z M1505.107,2681.197
		c-7.001,0-11.9,2.699-11.9,9.801c0,7.1,5.2,9.801,11.9,9.801s11.801-2.701,11.801-9.801
		C1516.908,2683.896,1512.107,2681.197,1505.107,2681.197z"/>
	<path d="M1740.749,2683.297c1.3,2.199,2,4.801,2,7.701c0,11.199-10.101,16.9-22.701,16.9c-4,0-7.7-0.6-10.9-1.701
		c-0.601,1.602-0.801,3.102-0.801,4.201c0,3.1,1.7,4.5,4.9,4.5h15.801c11.102,0,17.901,5.701,17.901,14.301
		c0,11.602-12.501,20.602-28.002,20.602s-23.501-5.801-23.501-15.102c0-4.6,3-9.301,7.301-12.5c-2.601-1.801-3.7-4.6-3.7-8.201
		c0-3.799,2.2-7.699,4.7-10.5c-4.001-2.801-6.4-7-6.4-12.5c0-11.301,10.101-16.902,22.701-16.902c3.8,0,7.301,0.5,10.4,1.5h18.001
		v7.701H1740.749z M1728.548,2669.296l-8-8.301l-8.001,8.301h-9.101l11.401-15.401h11.301l11.5,15.401H1728.548z M1710.947,2724.299
		c-1.3,0-2.4-0.1-3.4-0.199c-1.3,2.1-1.9,4.5-1.9,7.1c0,7.502,5.4,11.301,14.802,11.301c9.4,0,15.4-4.1,15.4-10.9
		c0-5.301-4.3-7.301-8.5-7.301H1710.947z M1720.048,2681.197c-7.001,0-11.9,2.699-11.9,9.801c0,7.1,5.2,9.801,11.9,9.801
		s11.801-2.701,11.801-9.801C1731.849,2683.896,1727.048,2681.197,1720.048,2681.197z"/>
	<path d="M249.47,2959.297c1.3,2.199,2,4.801,2,7.701c0,11.199-10.101,16.9-22.701,16.9c-4,0-7.7-0.6-10.9-1.701
		c-0.601,1.602-0.801,3.102-0.801,4.201c0,3.1,1.7,4.5,4.9,4.5h15.801c11.102,0,17.901,5.701,17.901,14.301
		c0,11.602-12.501,20.602-28.002,20.602s-23.501-5.801-23.501-15.102c0-4.6,3-9.301,7.301-12.5c-2.601-1.801-3.7-4.6-3.7-8.201
		c0-3.799,2.2-7.699,4.7-10.5c-4.001-2.801-6.4-7-6.4-12.5c0-11.301,10.101-16.902,22.701-16.902c3.8,0,7.301,0.5,10.4,1.5h18.001
		v7.701H249.47z M219.668,3000.299c-1.3,0-2.4-0.1-3.4-0.199c-1.3,2.1-1.9,4.5-1.9,7.1c0,7.502,5.4,11.301,14.802,11.301
		c9.4,0,15.4-4.1,15.4-10.9c0-5.301-4.3-7.301-8.5-7.301H219.668z M228.769,2957.197c-7.001,0-11.9,2.699-11.9,9.801
		c0,7.1,5.2,9.801,11.9,9.801s11.801-2.701,11.801-9.801C240.569,2959.896,235.769,2957.197,228.769,2957.197z M235.469,2926.596
		l-2,18.6h-10.2l4.5-18.6H235.469z"/>
	<path d="M419.952,3003.5v-60.004h-7.4v-7.801h7.4v-6.6h11.001v6.6h11.801v7.801h-11.801v14.9c4.8-4.9,11.4-8.301,18.101-8.301
		c8.501,0,16.001,4.5,16.001,17.102v36.303h-11v-34.002c0-7.301-3.301-10.502-9.701-10.502c-4.8,0-10.301,2.9-13.4,6.002v38.502
		H419.952z"/>
	<path d="M647.339,2925.295l-9.801-6.6l-9.701,6.6h-10.4l14.801-14.102h10.601l14.901,14.102H647.339z M631.938,3003.5v-74.404
		h11.001v29.301c4.8-4.9,11.4-8.301,18.101-8.301c8.501,0,16.001,4.5,16.001,17.102v36.303h-11v-34.002
		c0-7.301-3.301-10.502-9.701-10.502c-4.8,0-10.301,2.9-13.4,6.002v38.502H631.938z"/>
	<path d="M843.823,2945.297l10.2-15.402h13.701l-14.801,15.402H843.823z M843.923,3003.5v-51.904h11.001v51.904H843.923z"/>
	<path d="M1042.01,2929.895c0,11.301-6.801,16.301-14.601,16.301c-7.801,0-14.701-5-14.701-16.301h7.601
		c0,4.4,2.2,8.102,7.101,8.102s7-3.701,7-8.102H1042.01z M1021.809,3003.5v-51.904h11.001v51.904H1021.809z"/>
	<path d="M1213.294,2945.297l-8-8.301l-8.001,8.301h-9.101l11.401-15.402h11.301l11.5,15.402H1213.294z M1199.693,3003.5v-51.904
		h11.001v51.904H1199.693z"/>
	<path d="M1374.979,2943.996c-3.801,0-6.701-3-6.701-6.701c0-3.699,2.9-6.699,6.701-6.699c3.8,0,6.7,3,6.7,6.699
		C1381.679,2940.996,1378.778,2943.996,1374.979,2943.996z M1377.578,3003.5v-51.904h11.001v51.904H1377.578z M1391.179,2943.996
		c-3.8,0-6.8-3-6.8-6.701c0-3.699,3-6.699,6.8-6.699c3.801,0,6.701,3,6.701,6.699
		C1397.88,2940.996,1394.979,2943.996,1391.179,2943.996z"/>
	<path d="M1555.463,3003.5v-51.904h11.001v51.904H1555.463z"/>
	<path d="M1734.548,2945.297l-14.801-15.402h13.7l10.201,15.402H1734.548z M1733.348,3003.5v-51.904h11.001v51.904H1733.348z"/>
	<path d="M202.967,3218.295v-7.799h22.802v7.799H202.967z M208.867,3279.5v-51.904h11.001v51.904H208.867z"/>
	<path d="M406.89,3301.9c-2.301,1.301-5.9,2.4-10.001,2.4c-6.801,0-10.9-4.4-10.9-10c0-5.801,3.8-10.701,11.101-14.801h-1.2v-51.904
		h11.001v51.904c-7.9,4.1-11.901,8.199-11.901,13.301c0,3,2.4,4.699,4.801,4.699c2.3,0,4.8-0.9,7.101-2.1V3301.9z M401.389,3220.096
		c-3.899,0-6.9-3-6.9-6.801c0-3.799,3.001-6.9,6.9-6.9c3.9,0,6.9,3.102,6.9,6.9C408.289,3217.096,405.289,3220.096,401.389,3220.096
		z"/>
	<path d="M606.312,3210.795c-2.5,6.701-7.2,9.801-11.2,9.801c-5.501,0-10.001-4.4-13.301-4.4c-1.9,0-3.4,0.9-5.001,4.102l-6-2.9
		c2.6-6.602,7.301-9.801,11.301-9.801c5.5,0,10,4.5,13.2,4.5c1.801,0,3.4-1,5.001-4.201L606.312,3210.795z M582.911,3279.5v-51.904
		h11.001v51.904H582.911z"/>
	<path d="M783.534,3221.297l-8-8.301l-8.001,8.301h-9.101l11.401-15.402h11.301l11.5,15.402H783.534z M769.934,3300.301v-72.705
		h11.001v72.705H769.934z"/>
	<path d="M956.955,3227.596h11.001v58.305c0,10.699-6.601,15.9-17.302,15.9c-2.199,0-5.6-0.6-7.8-1.699V3293c2,0.5,4.5,1,6.601,1
		c4.2,0,7.5-2.199,7.5-8V3227.596z M970.556,3221.297l-8-8.301l-8.001,8.301h-9.101l11.401-15.402h11.301l11.5,15.402H970.556z"/>
	<path d="M1143.977,3279.5v-74.404h11.001v46.201l19.901-23.701h11.601l-20.602,23.201l22.602,28.703h-13.301l-20.201-26.701v26.701
		H1143.977z M1154.377,3304.301l2-18.602h10.201l-4.5,18.602H1154.377z"/>
	<path d="M1363.899,3201.295h-9.8l13.2-14.102h14.701L1363.899,3201.295z M1355.199,3279.5v-74.404h11.001v74.404H1355.199z"/>
	<path d="M1541.521,3279.5v-74.404h11.001v74.404H1541.521z M1558.223,3221.797v-22.602h9.9l-2.2,22.602H1558.223z"/>
	<path d="M1732.844,3304.301l2-18.602h10.201l-4.501,18.602H1732.844z M1734.044,3279.5v-74.404h11.001v74.404H1734.044z"/>
	<path d="M208.867,3555.5v-74.404h11.001v74.404H208.867z M232.969,3526.197c-4.101,0-7.2-3-7.2-7.199c0-4.201,3.1-7.201,7.2-7.201
		s7.2,3,7.2,7.201C240.169,3523.197,237.069,3526.197,232.969,3526.197z"/>
	<path d="M407.18,3555.5v-30.002l-8.001,4.699v-8.801l8.001-4.6v-35.701h11v29.301l8.001-4.699v8.699l-8.001,4.701v36.402H407.18z"
		/>
	<path d="M595.189,3555.5v-51.904h11.001v6.801c4.8-4.9,11.4-8.301,18.101-8.301c8.501,0,16.001,4.5,16.001,17.102v36.303h-11
		v-34.002c0-7.301-3.301-10.502-9.701-10.502c-4.8,0-10.301,2.9-13.4,6.002v38.502H595.189z M606.79,3497.297l10.201-15.402h13.7
		l-14.801,15.402H606.79z"/>
	<path d="M816.401,3555.5v-51.904h11.001v6.801c4.8-4.9,11.4-8.301,18.101-8.301c8.501,0,16.001,4.5,16.001,17.102v36.303h-11
		v-34.002c0-7.301-3.301-10.502-9.701-10.502c-4.8,0-10.301,2.9-13.4,6.002v38.502H816.401z M832.202,3497.297l-11.4-15.402h9.101
		l8,8.201l8.001-8.201h9.101l-11.501,15.402H832.202z"/>
	<path d="M1037.613,3555.5v-51.904h11.001v6.801c4.8-4.9,11.4-8.301,18.101-8.301c8.501,0,16.001,4.5,16.001,17.102v36.303h-11
		v-34.002c0-7.301-3.301-10.502-9.701-10.502c-4.8,0-10.301,2.9-13.4,6.002v38.502H1037.613z M1053.015,3580.301l2-18.602h10.2
		l-4.5,18.602H1053.015z"/>
	<path d="M1258.825,3555.5v-51.904h11.001v6.801c4.8-4.9,11.4-8.301,18.101-8.301c8.501,0,16.001,4.5,16.001,17.102v36.303h-11
		v-34.002c0-7.301-3.301-10.502-9.701-10.502c-4.8,0-10.301,2.9-13.4,6.002v38.502H1258.825z M1298.128,3486.795
		c-2.5,6.701-7.201,9.801-11.201,9.801c-5.5,0-10-4.4-13.301-4.4c-1.9,0-3.4,0.9-5,4.102l-6.001-2.9
		c2.601-6.602,7.301-9.801,11.301-9.801c5.501,0,10.001,4.5,13.201,4.5c1.8,0,3.4-1,5-4.201L1298.128,3486.795z"/>
	<path d="M1477.337,3529.598c0-16.4,9.001-27.502,24.701-27.502c15.701,0,24.802,11.102,24.802,27.502s-9.101,27.402-24.802,27.402
		C1486.338,3557,1477.337,3545.998,1477.337,3529.598z M1515.339,3529.598c0-13.701-5.3-19.9-13.301-19.9
		c-8,0-13.301,6.199-13.301,19.9s5.301,19.801,13.301,19.801C1510.039,3549.398,1515.339,3543.299,1515.339,3529.598z
		 M1492.738,3497.297l10.2-15.402h13.701l-14.801,15.402H1492.738z"/>
	<path d="M1697.547,3529.598c0-16.4,9.001-27.502,24.701-27.502c15.701,0,24.802,11.102,24.802,27.502s-9.101,27.402-24.802,27.402
		C1706.548,3557,1697.547,3545.998,1697.547,3529.598z M1736.85,3481.895c0,11.301-6.801,16.301-14.602,16.301
		c-7.8,0-14.7-5-14.7-16.301h7.601c0,4.4,2.2,8.102,7.1,8.102c4.9,0,7.001-3.701,7.001-8.102H1736.85z M1735.549,3529.598
		c0-13.701-5.3-19.9-13.301-19.9c-8,0-13.301,6.199-13.301,19.9s5.301,19.801,13.301,19.801
		C1730.249,3549.398,1735.549,3543.299,1735.549,3529.598z"/>
	<path d="M206.167,3805.598c0-16.4,9.001-27.502,24.701-27.502c15.701,0,24.802,11.102,24.802,27.502S246.569,3833,230.868,3833
		C215.168,3833,206.167,3821.998,206.167,3805.598z M238.869,3773.297l-8.001-8.301l-8,8.301h-9.101l11.4-15.402h11.301
		l11.501,15.402H238.869z M244.169,3805.598c0-13.701-5.3-19.9-13.301-19.9c-8,0-13.301,6.199-13.301,19.9
		s5.301,19.801,13.301,19.801C238.869,3825.398,244.169,3819.299,244.169,3805.598z"/>
	<path d="M424.449,3805.598c0-16.4,9.001-27.502,24.701-27.502c15.701,0,24.802,11.102,24.802,27.502S464.852,3833,449.15,3833
		C433.45,3833,424.449,3821.998,424.449,3805.598z M439.351,3771.996c-3.7,0-6.701-3-6.701-6.701c0-3.699,3.001-6.699,6.701-6.699
		c3.8,0,6.8,3,6.8,6.699C446.15,3768.996,443.15,3771.996,439.351,3771.996z M462.451,3805.598c0-13.701-5.3-19.9-13.301-19.9
		c-8,0-13.301,6.199-13.301,19.9s5.301,19.801,13.301,19.801C457.151,3825.398,462.451,3819.299,462.451,3805.598z
		 M458.951,3771.996c-3.8,0-6.7-3-6.7-6.701c0-3.699,2.9-6.699,6.7-6.699c3.801,0,6.801,3,6.801,6.699
		C465.752,3768.996,462.752,3771.996,458.951,3771.996z"/>
	<path d="M642.731,3805.598c0-16.4,9.001-27.502,24.701-27.502c15.701,0,24.802,11.102,24.802,27.502S683.134,3833,667.433,3833
		C651.732,3833,642.731,3821.998,642.731,3805.598z M667.733,3773.297l-14.801-15.402h13.7l10.201,15.402H667.733z
		 M680.733,3805.598c0-13.701-5.3-19.9-13.301-19.9c-8,0-13.301,6.199-13.301,19.9s5.301,19.801,13.301,19.801
		C675.434,3825.398,680.733,3819.299,680.733,3805.598z"/>
	<path d="M861.014,3805.598c0-16.4,9.001-27.502,24.701-27.502c15.701,0,24.802,11.102,24.802,27.502S901.416,3833,885.715,3833
		C870.015,3833,861.014,3821.998,861.014,3805.598z M870.114,3773.297l8.2-15.402h12.801l-12.301,15.402H870.114z M899.016,3805.598
		c0-13.701-5.3-19.9-13.301-19.9c-8,0-13.301,6.199-13.301,19.9s5.301,19.801,13.301,19.801
		C893.716,3825.398,899.016,3819.299,899.016,3805.598z M887.315,3773.297l8.2-15.402h12.901l-12.401,15.402H887.315z"/>
	<path d="M1079.295,3805.598c0-16.4,9.001-27.502,24.701-27.502c15.701,0,24.802,11.102,24.802,27.502s-9.101,27.402-24.802,27.402
		C1088.296,3833,1079.295,3821.998,1079.295,3805.598z M1088.896,3770.295v-7.799h30.202v7.799H1088.896z M1117.297,3805.598
		c0-13.701-5.3-19.9-13.301-19.9c-8,0-13.301,6.199-13.301,19.9s5.301,19.801,13.301,19.801
		C1111.997,3825.398,1117.297,3819.299,1117.297,3805.598z"/>
	<path d="M1297.577,3805.598c0-16.4,9.001-27.502,24.701-27.502c15.701,0,24.802,11.102,24.802,27.502s-9.101,27.402-24.802,27.402
		C1306.578,3833,1297.577,3821.998,1297.577,3805.598z M1340.08,3762.795c-2.5,6.701-7.201,9.801-11.201,9.801
		c-5.5,0-10-4.4-13.301-4.4c-1.9,0-3.4,0.9-5,4.102l-6-2.9c2.6-6.602,7.3-9.801,11.3-9.801c5.501,0,10.001,4.5,13.201,4.5
		c1.8,0,3.4-1,5-4.201L1340.08,3762.795z M1335.579,3805.598c0-13.701-5.3-19.9-13.301-19.9c-8,0-13.301,6.199-13.301,19.9
		s5.301,19.801,13.301,19.801C1330.279,3825.398,1335.579,3819.299,1335.579,3805.598z"/>
	<path d="M1518.56,3831.5v-51.904h11.001v9.201c3.9-6.801,9.301-10.701,14.7-10.701c2.7,0,4.601,0.9,6.201,2.4v9.301
		c-2.4-1-4.101-1.6-7.101-1.6c-5.9,0-11.201,4.199-13.801,8.6v34.703H1518.56z M1522.56,3773.297l10.201-15.402h13.7l-14.801,15.402
		H1522.56z"/>
	<path d="M1727.144,3773.297l-11.4-15.402h9.101l8,8.201l8.001-8.201h9.101l-11.501,15.402H1727.144z M1718.543,3831.5v-51.904
		h11.001v9.201c3.9-6.801,9.301-10.701,14.7-10.701c2.7,0,4.601,0.9,6.201,2.4v9.301c-2.4-1-4.101-1.6-7.101-1.6
		c-5.9,0-11.201,4.199-13.801,8.6v34.703H1718.543z"/>
	<path d="M207.667,4132.301l2-18.602h10.201l-4.501,18.602H207.667z M208.867,4107.5v-51.904h11.001v9.201
		c3.9-6.801,9.301-10.701,14.7-10.701c2.7,0,4.601,0.9,6.201,2.4v9.301c-2.4-1-4.101-1.6-7.101-1.6c-5.9,0-11.201,4.199-13.801,8.6
		v34.703H208.867z"/>
	<path d="M444.266,4069.197c-0.399-5.5-3.3-7.701-9.801-7.701c-5.6,0-9.8,2.201-9.8,7.002c0,5.9,5.6,6.699,12.2,8
		c8.601,1.6,19.701,3.299,19.701,15.201c0,10.301-8.7,17.301-20.501,17.301c-14.901,0-21.701-6.4-21.901-16.502h11.101
		c0.3,5.701,3.2,9.102,11.101,9.102c5.601,0,10.101-2.5,10.101-8.102c0-5.699-6.5-6.699-12.801-7.9
		c-8.601-1.6-19.201-3.6-19.201-15.5c0-10.201,8.601-16.002,20.302-16.002c13.9,0,20.301,5.5,20.601,15.102H444.266z
		 M424.364,4049.297l10.201-15.402h13.7l-14.801,15.402H424.364z"/>
	<path d="M663.962,4069.197c-0.399-5.5-3.3-7.701-9.801-7.701c-5.6,0-9.8,2.201-9.8,7.002c0,5.9,5.6,6.699,12.2,8
		c8.601,1.6,19.701,3.299,19.701,15.201c0,10.301-8.7,17.301-20.501,17.301c-14.901,0-21.701-6.4-21.901-16.502h11.101
		c0.3,5.701,3.2,9.102,11.101,9.102c5.601,0,10.101-2.5,10.101-8.102c0-5.699-6.5-6.699-12.801-7.9
		c-8.601-1.6-19.201-3.6-19.201-15.5c0-10.201,8.601-16.002,20.302-16.002c13.9,0,20.301,5.5,20.601,15.102H663.962z
		 M648.361,4049.297l-11.401-15.402h9.101l8.001,8.201l8-8.201h9.101l-11.5,15.402H648.361z"/>
	<path d="M864.857,4125.301c2.2,1,4.4,1.301,6.4,1.301c2.4,0,5.2-1.201,5.2-3.9c0-2.701-2.8-3.801-5.2-3.801c-1,0-2.7,0.199-4,0.6
		l-2.101-3.6l5.4-7.201c-11.501-1.199-16.801-7.301-17.001-16.201h11.101c0.3,5.701,3.2,9.102,11.101,9.102
		c5.601,0,10.101-2.5,10.101-8.102c0-5.699-6.5-6.699-12.801-7.9c-8.601-1.6-19.201-3.6-19.201-15.5
		c0-10.201,8.601-16.002,20.302-16.002c13.9,0,20.301,5.5,20.601,15.102h-11.101c-0.399-5.5-3.3-7.701-9.801-7.701
		c-5.6,0-9.8,2.201-9.8,7.002c0,5.9,5.6,6.699,12.2,8c8.601,1.6,19.701,3.299,19.701,15.201c0,9.801-7.801,16.6-18.701,17.201
		l-3.8,5.1c5.7-0.4,11.2,2.199,11.2,8.4c0,6.5-6.101,9.9-12.601,9.9c-2.5,0-4.9-0.299-7.2-1.4V4125.301z"/>
	<path d="M1103.354,4069.197c-0.399-5.5-3.3-7.701-9.801-7.701c-5.6,0-9.8,2.201-9.8,7.002c0,5.9,5.6,6.699,12.2,8
		c8.601,1.6,19.701,3.299,19.701,15.201c0,10.301-8.7,17.301-20.501,17.301c-14.901,0-21.701-6.4-21.901-16.502h11.101
		c0.3,5.701,3.2,9.102,11.101,9.102c5.601,0,10.101-2.5,10.101-8.102c0-5.699-6.5-6.699-12.801-7.9
		c-8.601-1.6-19.201-3.6-19.201-15.5c0-10.201,8.601-16.002,20.302-16.002c13.9,0,20.301,5.5,20.601,15.102H1103.354z
		 M1102.153,4049.297l-8-8.301l-8.001,8.301h-9.101l11.401-15.402h11.301l11.5,15.402H1102.153z"/>
	<path d="M1323.05,4069.197c-0.399-5.5-3.3-7.701-9.801-7.701c-5.6,0-9.8,2.201-9.8,7.002c0,5.9,5.6,6.699,12.2,8
		c8.601,1.6,19.701,3.299,19.701,15.201c0,10.301-8.7,17.301-20.501,17.301c-14.901,0-21.701-6.4-21.901-16.502h11.101
		c0.3,5.701,3.2,9.102,11.101,9.102c5.601,0,10.101-2.5,10.101-8.102c0-5.699-6.5-6.699-12.801-7.9
		c-8.601-1.6-19.201-3.6-19.201-15.5c0-10.201,8.601-16.002,20.302-16.002c13.9,0,20.301,5.5,20.601,15.102H1323.05z
		 M1308.049,4132.301l2-18.602h10.201l-4.5,18.602H1308.049z"/>
	<path d="M1527.946,4081.498v11c0,5.801,2.2,8.602,6.801,8.602c2,0,5.2-0.701,8-1.5v7.1c-3.1,1.4-8.5,2.301-11.601,2.301
		c-8,0-14.201-4.4-14.201-14.4v-13.102h-8.7v-7.801h8.7v-10.4h-8.7v-7.701h8.7v-14.1h11.001v14.1h14.101v7.701h-14.101v10.4h10.501
		v7.801H1527.946z"/>
	<path d="M1734.944,4063.297v29.201c0,5.801,2.2,8.602,6.801,8.602c2,0,5.2-0.701,8-1.5v7.1c-3.1,1.4-8.5,2.301-11.601,2.301
		c-8,0-14.201-4.4-14.201-14.4v-31.303h-8.7v-7.701h8.7v-14.1h11.001v14.1h14.101v7.701H1734.944z M1739.944,4049.797v-22.602h9.901
		l-2.2,22.602H1739.944z"/>
	<path d="M223.168,4339.297v29.201c0,5.801,2.2,8.602,6.801,8.602c2,0,5.2-0.701,8-1.5v7.1c-3.1,1.4-8.5,2.301-11.601,2.301h-0.3
		l-3.7,5c5.7-0.4,11.2,2.199,11.2,8.4c0,6.5-6.1,9.9-12.601,9.9c-2.5,0-4.9-0.299-7.2-1.4v-5.6c2.2,1,4.4,1.301,6.4,1.301
		c2.4,0,5.2-1.201,5.2-3.9c0-2.701-2.8-3.801-5.2-3.801c-1,0-2.7,0.199-4,0.6l-2.101-3.6l6.001-8
		c-4.801-1.801-7.901-6.102-7.901-13.301v-31.303h-8.7v-7.701h8.7v-14.1h11.001v14.1h14.101v7.701H223.168z"/>
	<path d="M433.381,4339.297v29.201c0,5.801,2.2,8.602,6.801,8.602c2,0,5.2-0.701,8-1.5v7.1c-3.1,1.4-8.5,2.301-11.601,2.301
		c-8,0-14.201-4.4-14.201-14.4v-31.303h-8.7v-7.701h8.7v-14.1h11.001v14.1h14.101v7.701H433.381z M425.381,4408.301l2-18.602h10.2
		l-4.5,18.602H425.381z"/>
	<path d="M647.592,4339.297v10.4h9.4v7.801h-9.4v26.002h-11.001v-26.002h-9.4v-7.801h9.4v-10.4h-11.4v-7.701h11.4v-14.1h11.001v14.1
		h11.4v7.701H647.592z"/>
	<path d="M846.102,4383.5v-44.203h-11.4v-7.701h11.4v-14.1h11.001v14.1h11.4v7.701h-11.4v44.203H846.102z M862.103,4325.797v-22.602
		h9.901l-2.2,22.602H862.103z"/>
	<path d="M1052.013,4401.301c2.2,1,4.4,1.301,6.4,1.301c2.4,0,5.2-1.201,5.2-3.9c0-2.701-2.8-3.801-5.2-3.801c-1,0-2.7,0.199-4,0.6
		l-2.101-3.6l6.301-8.4h-3.001v-44.203h-11.4v-7.701h11.4v-14.1h11.001v14.1h11.4v7.701h-11.4v44.203h-1.1l-4.9,6.5
		c5.7-0.4,11.2,2.199,11.2,8.4c0,6.5-6.101,9.9-12.601,9.9c-2.5,0-4.9-0.299-7.2-1.4V4401.301z"/>
	<path d="M1265.123,4383.5v-44.203h-11.4v-7.701h11.4v-14.1h11.001v14.1h11.4v7.701h-11.4v44.203H1265.123z M1263.523,4408.301
		l2-18.602h10.201l-4.501,18.602H1263.523z"/>
	<path d="M1502.235,4331.596h11v51.904h-11v-6.801c-4.801,4.9-11.102,8.301-17.802,8.301c-8.5,0-15.801-4.4-15.801-17.002v-36.402
		h11.001v34.104c0,7.199,3.1,10.4,9.4,10.4c4.8,0,10.2-2.9,13.201-6V4331.596z M1482.334,4325.297l10.2-15.402h13.701
		l-14.801,15.402H1482.334z"/>
	<path d="M1733.347,4331.596h11v51.904h-11v-6.801c-4.801,4.9-11.102,8.301-17.802,8.301c-8.5,0-15.801-4.4-15.801-17.002v-36.402
		h11.001v34.104c0,7.199,3.1,10.4,9.4,10.4c4.8,0,10.2-2.9,13.201-6V4331.596z M1736.646,4309.895
		c0,11.301-6.801,16.301-14.601,16.301c-7.801,0-14.701-5-14.701-16.301h7.601c0,4.4,2.2,8.102,7.101,8.102s7-3.701,7-8.102
		H1736.646z"/>
	<path d="M242.47,4607.596h11v51.904h-11v-6.801c-4.801,4.9-11.102,8.301-17.802,8.301c-8.5,0-15.801-4.4-15.801-17.002v-36.402
		h11.001v34.104c0,7.199,3.1,10.4,9.4,10.4c4.8,0,10.2-2.9,13.201-6V4607.596z M239.169,4601.297l-8-8.301l-8.001,8.301h-9.101
		l11.401-15.402h11.3l11.501,15.402H239.169z"/>
	<path d="M490.949,4607.596h11v51.904h-11v-6.801c-4.801,4.9-11.102,8.301-17.802,8.301c-8.5,0-15.801-4.4-15.801-17.002v-36.402
		h11.001v34.104c0,7.199,3.1,10.4,9.4,10.4c4.8,0,10.2-2.9,13.201-6V4607.596z M469.747,4599.996c-3.7,0-6.7-3-6.7-6.701
		c0-3.699,3-6.699,6.7-6.699c3.801,0,6.801,3,6.801,6.699C476.548,4596.996,473.548,4599.996,469.747,4599.996z M489.349,4599.996
		c-3.8,0-6.7-3-6.7-6.701c0-3.699,2.9-6.699,6.7-6.699s6.801,3,6.801,6.699C496.149,4596.996,493.148,4599.996,489.349,4599.996z"/>
	<path d="M739.429,4607.596h11v51.904h-11v-6.801c-4.801,4.9-11.102,8.301-17.802,8.301c-8.5,0-15.801-4.4-15.801-17.002v-36.402
		h11.001v34.104c0,7.199,3.1,10.4,9.4,10.4c4.8,0,10.2-2.9,13.201-6V4607.596z M727.728,4601.297l-14.801-15.402h13.701l10.2,15.402
		H727.728z"/>
	<path d="M987.908,4607.596h11v51.904h-11v-6.801c-4.801,4.9-11.102,8.301-17.802,8.301c-8.5,0-15.801-4.4-15.801-17.002v-36.402
		h11.001v34.104c0,7.199,3.1,10.4,9.4,10.4c4.8,0,10.2-2.9,13.201-6V4607.596z M960.706,4601.297l8.2-15.402h12.801l-12.301,15.402
		H960.706z M977.907,4601.297l8.2-15.402h12.901l-12.401,15.402H977.907z"/>
	<path d="M1236.388,4607.596h11v51.904h-11v-6.801c-4.801,4.9-11.102,8.301-17.802,8.301c-8.5,0-15.801-4.4-15.801-17.002v-36.402
		h11.001v34.104c0,7.199,3.1,10.4,9.4,10.4c4.8,0,10.2-2.9,13.201-6V4607.596z M1209.985,4598.295v-7.799h30.202v7.799H1209.985z"/>
	<path d="M1484.867,4607.596h11v51.904c-7.9,4.1-11.9,8.199-11.9,13.301c0,3,2.4,4.699,4.8,4.699c2.301,0,4.801-0.9,7.101-2.1v6.5
		c-2.3,1.301-5.9,2.4-10,2.4c-6.801,0-10.901-4.4-10.901-10c0-5.801,3.801-10.701,11.101-14.801h-1.199v-6.801
		c-4.801,4.9-11.102,8.301-17.802,8.301c-8.5,0-15.801-4.4-15.801-17.002v-36.402h11.001v34.104c0,7.199,3.1,10.4,9.4,10.4
		c4.8,0,10.2-2.9,13.201-6V4607.596z"/>
	<path d="M1733.347,4607.596h11v51.904h-11v-6.801c-4.801,4.9-11.102,8.301-17.802,8.301c-8.5,0-15.801-4.4-15.801-17.002v-36.402
		h11.001v34.104c0,7.199,3.1,10.4,9.4,10.4c4.8,0,10.2-2.9,13.201-6V4607.596z M1721.945,4603.396c-6.5,0-11.7-3.602-11.7-9.801
		c0-6.1,5.2-9.701,11.7-9.701c6.601,0,11.801,3.602,11.801,9.701C1733.746,4599.795,1728.546,4603.396,1721.945,4603.396z
		 M1725.346,4592.596c-0.8-2.201-2.6-3-4.601-2.4c-2.1,0.6-2.899,2.301-2.1,4.5c0.7,2.201,2.6,3,4.601,2.4
		C1725.246,4596.496,1726.046,4594.795,1725.346,4592.596z"/>
	<path d="M242.47,4883.598h11v51.902h-11v-6.801c-4.801,4.9-11.102,8.301-17.802,8.301c-8.5,0-15.801-4.4-15.801-17v-36.402h11.001
		v34.102c0,7.199,3.1,10.4,9.4,10.4c4.8,0,10.2-2.9,13.201-6V4883.598z M248.97,4866.795c-2.5,6.701-7.2,9.801-11.201,9.801
		c-5.5,0-10-4.4-13.301-4.4c-1.899,0-3.399,0.9-5,4.102l-6-2.9c2.6-6.602,7.3-9.801,11.301-9.801c5.5,0,10,4.5,13.2,4.5
		c1.801,0,3.4-1,5.001-4.199L248.97,4866.795z"/>
	<path d="M488.732,4935.5l-7.4-24.002l-4-14.6l-4,14.6l-7.001,24.002H455.73l-17.101-51.902h11.7l7.501,25.701l3.8,14.6l3.9-14.6
		l7.2-25.701h10.001l7.7,25.701l4.001,14.6l3.8-14.6l7.2-25.701h10.301l-16.601,51.902H488.732z M472.231,4877.297l10.201-15.402
		h13.7l-14.801,15.402H472.231z"/>
	<path d="M746.995,4935.5l-7.4-24.002l-4-14.6l-4,14.6l-7.001,24.002h-10.601l-17.101-51.902h11.7l7.501,25.701l3.8,14.6l3.9-14.6
		l7.2-25.701h10.001l7.7,25.701l4.001,14.6l3.8-14.6l7.2-25.701h10.301l-16.601,51.902H746.995z M743.396,4877.297l-8.001-8.301
		l-8,8.301h-9.101l11.4-15.402h11.301l11.501,15.402H743.396z"/>
	<path d="M1005.258,4935.5l-7.4-24.002l-4-14.6l-4,14.6l-7.001,24.002h-10.601l-17.101-51.902h11.7l7.501,25.701l3.8,14.6l3.9-14.6
		l7.2-25.701h10.001l7.7,25.701l4.001,14.6l3.8-14.6l7.2-25.701h10.301l-16.601,51.902H1005.258z M983.857,4875.996
		c-3.701,0-6.701-3-6.701-6.699c0-3.701,3-6.701,6.701-6.701c3.8,0,6.8,3,6.8,6.701
		C990.657,4872.996,987.657,4875.996,983.857,4875.996z M1003.458,4875.996c-3.8,0-6.7-3-6.7-6.699c0-3.701,2.9-6.701,6.7-6.701
		c3.801,0,6.801,3,6.801,6.701C1010.259,4872.996,1007.259,4875.996,1003.458,4875.996z"/>
	<path d="M1263.521,4935.5l-7.4-24.002l-4-14.6l-4,14.6l-7.001,24.002h-10.601l-17.101-51.902h11.7l7.501,25.701l3.8,14.6l3.9-14.6
		l7.2-25.701h10.001l7.7,25.701l4.001,14.6l3.8-14.6l7.2-25.701h10.301l-16.601,51.902H1263.521z M1248.521,4877.297l-14.802-15.402
		h13.701l10.2,15.402H1248.521z"/>
	<path d="M1483.382,4956.301l8.101-21.201l-19.801-51.502h12.101l8.4,23.801l4.7,14.602l4.601-14.602l8.4-23.801h10.4
		l-26.701,72.703H1483.382z M1487.282,4877.297l10.201-15.402h13.7l-14.801,15.402H1487.282z"/>
	<path d="M1713.145,4956.301l8.101-21.201l-19.801-51.502h12.101l8.4,23.801l4.7,14.602l4.601-14.602l8.4-23.801h10.4
		l-26.701,72.703H1713.145z M1734.646,4877.297l-8.001-8.301l-8,8.301h-9.101l11.4-15.402h11.301l11.501,15.402H1734.646z"/>
	<path d="M214.867,5232.301l8.101-21.201l-19.801-51.502h12.101l8.4,23.801l4.7,14.602l4.601-14.602l8.4-23.801h10.4l-26.701,72.703
		H214.867z M218.567,5151.996c-3.7,0-6.7-3-6.7-6.699c0-3.701,3-6.701,6.7-6.701c3.801,0,6.801,3,6.801,6.701
		C225.368,5148.996,222.368,5151.996,218.567,5151.996z M238.169,5151.996c-3.8,0-6.7-3-6.7-6.699c0-3.701,2.9-6.701,6.7-6.701
		c3.801,0,6.801,3,6.801,6.701C244.97,5148.996,241.97,5151.996,238.169,5151.996z"/>
	<path d="M416.866,5232.301l8.101-21.201l-19.801-51.502h12.101l8.4,23.801l4.7,14.602l4.601-14.602l8.4-23.801h10.4l-26.701,72.703
		H416.866z M428.667,5153.297l-14.801-15.402h13.701l10.2,15.402H428.667z"/>
	<path d="M609.165,5211.5v-7.701l25.602-36.502h-24.602v-7.699h36.502v7.699l-25.701,36.502h25.701v7.701H609.165z
		 M619.266,5153.297l10.201-15.402h13.7l-14.801,15.402H619.266z"/>
	<path d="M804.064,5211.5v-7.701l25.602-36.502h-24.602v-7.699h36.502v7.699l-25.701,36.502h25.701v7.701H804.064z
		 M817.365,5153.297l-11.4-15.402h9.101l8,8.201l8.001-8.201h9.101l-11.501,15.402H817.365z"/>
	<path d="M998.964,5211.5v-7.701l25.602-36.502h-24.602v-7.699h36.502v7.699l-25.701,36.502h25.701v7.701H998.964z
		 M1017.665,5152.096c-3.9,0-6.9-3-6.9-6.799c0-3.801,3-6.9,6.9-6.9s6.9,3.1,6.9,6.9
		C1024.565,5149.096,1021.565,5152.096,1017.665,5152.096z"/>
	<path d="M1271.369,5196.799c-1.2,9.4-9.301,16.201-21.802,16.201c-9.2,0-15.401-3.699-19.102-10.1
		c-5.9,6.199-13.301,10.1-21.201,10.1c-9.9,0-15.801-5.5-15.801-13.801c0-8.5,6.301-16.801,25.002-16.801c2.5,0,5.1,0.199,7.9,0.4
		v-5.9c0-9.4-4.601-11.201-9.201-11.201c-7,0-10.4,3.1-10.7,11.201h-11.201c0.2-12.4,8.601-18.801,21.901-18.801
		c6.201,0,12.501,1.699,16.201,7.199c3.9-4.5,9.601-7.199,16.102-7.199c15.101,0,23.801,10.199,22.701,29h-34.603
		c0.2,13.102,4.9,18.303,12.001,18.303c6,0,9.301-2.602,10.4-8.602H1271.369z M1226.566,5189.299c-2.7-0.301-5.301-0.4-7.4-0.4
		c-10.801,0-14.602,3.801-14.602,8.701c0,5.199,3.801,7.301,8.701,7.301c5.5,0,11.2-3.801,14.7-7.701
		C1227.266,5194.898,1226.766,5192.199,1226.566,5189.299z M1218.365,5153.297l10.201-15.402h13.7l-14.801,15.402H1218.365z
		 M1260.668,5180.197c-0.1-10-4.5-14.6-11.2-14.6c-5.801,0-10.501,4.199-11.602,14.6H1260.668z"/>
</g>
</svg>
