<?xml version="1.0" encoding="utf-8"?>
<!-- Generator: Adobe Illustrator 16.0.3, SVG Export Plug-In . SVG Version: 6.00 Build 0)  -->
<!DOCTYPE svg PUBLIC "-//W3C//DTD SVG 1.1//EN" "http://www.w3.org/Graphics/SVG/1.1/DTD/svg11.dtd">
<svg version="1.1" id="Layer_1" xmlns="http://www.w3.org/2000/svg" xmlns:xlink="http://www.w3.org/1999/xlink" x="0px" y="0px"
	 width="2007.464px" height="4333.543px" viewBox="0 0 2007.464 4333.543" enable-background="new 0 0 2007.464 4333.543"
	 xml:space="preserve">
<rect fill="#FFFFFF" width="2007.464" height="4333.543"/>
<g>
	<path d="M240.369,213.498l-12.301-29.201l-12.501,29.201h-9.101l17.302-40.002h9.101l17.301,40.002H240.369z"/>
	<path d="M469.624,202.897c-4.5,10.101-10.5,12.601-15.701,12.601c-9.601,0-14.101-8.2-20.301-8.2c-2.9,0-5.4,2-8.2,7.5l-7.4-3.899
		c4.5-10.101,10.601-12.501,15.801-12.501c9.601,0,14.001,8.101,20.201,8.101c2.9,0,5.4-1.9,8.2-7.4L469.624,202.897z"/>
	<path d="M644.676,214.198c-4.101,0-7.201-3-7.201-7.2s3.101-7.201,7.201-7.201c4.1,0,7.2,3.001,7.2,7.201
		S648.775,214.198,644.676,214.198z"/>
	<path d="M839.93,230.298v-18.9h-18.802v-8.901h18.802v-18.801h8.9v18.801h18.901v8.901H848.83v18.9H839.93z"/>
	<path d="M1036.982,211.398v-8.901h46.604v8.901H1036.982z"/>
	<path d="M1271.639,228.199v-18.901h-18.802v-8.9h18.802v-18.801h8.9v18.801h18.901v8.9h-18.901v18.901H1271.639z M1252.837,243.5
		v-8.9h46.604v8.9H1252.837z"/>
	<path d="M1491.692,213.198l-15.201,15.301l-6.301-6.301l15.302-15.2l-15.302-15.201l6.301-6.301l15.201,15.201l15.301-15.301
		l6.3,6.301l-15.4,15.301l15.4,15.301l-6.3,6.2L1491.692,213.198z"/>
	<path d="M1713.647,212.498l-27.401,27.401l-5.501-5.5l27.502-27.401l-27.502-27.502l5.501-5.5l27.401,27.501l27.602-27.501l5.5,5.4
		l-27.602,27.602l27.602,27.501l-5.5,5.501L1713.647,212.498z"/>
	<path d="M206.467,487.398v-8.901h46.604v8.901H206.467z M229.769,470.697c-3.7,0-6.601-2.9-6.601-6.501c0-3.6,2.9-6.4,6.601-6.4
		s6.601,2.801,6.601,6.4C236.369,467.796,233.469,470.697,229.769,470.697z M229.769,508.099c-3.7,0-6.601-2.9-6.601-6.501
		c0-3.6,2.9-6.4,6.601-6.4s6.601,2.801,6.601,6.4C236.369,505.199,233.469,508.099,229.769,508.099z"/>
	<path d="M419.535,487.398v-9.201l46.604-19.701v8.9l-35.702,15.102l35.702,15.101v9.501L419.535,487.398z"/>
	<path d="M632.604,507.099v-8.901l35.702-15.2l-35.702-15.102v-9.4l46.604,19.701v9.201L632.604,507.099z"/>
	<path d="M845.672,485.297v-9.2l46.604-19.701v8.9l-35.702,15.101l35.702,15.101v9.501L845.672,485.297z M845.672,519.5v-8.9h46.604
		v8.9H845.672z"/>
	<path d="M1058.74,504.999v-8.9l35.702-15.201l-35.702-15.101v-9.4l46.604,19.701v9.2L1058.74,504.999z M1058.74,519.5v-8.9h46.604
		v8.9H1058.74z"/>
	<path d="M1271.81,477.097v-8.9h46.604v8.9H1271.81z M1271.81,497.698v-8.9h46.604v8.9H1271.81z"/>
	<path d="M1491.679,514l6.2-16.302h-13.001v-8.9h16.302l4.5-11.7h-20.802v-8.9h24.102l6.2-16.201h9.401l-6.201,16.201h13.102v8.9
		h-16.401l-4.5,11.7h20.901v8.9h-24.202l-6.2,16.302H1491.679z"/>
	<path d="M1748.149,468.596c-4.5,10.101-10.5,12.601-15.701,12.601c-9.601,0-14.101-8.2-20.301-8.2c-2.9,0-5.4,2-8.2,7.501l-7.4-3.9
		c4.5-10.101,10.601-12.501,15.801-12.501c9.601,0,14.001,8.101,20.201,8.101c2.9,0,5.4-1.9,8.2-7.4L1748.149,468.596z
		 M1748.149,489.198c-4.5,10.101-10.5,12.601-15.701,12.601c-9.601,0-14.101-8.2-20.301-8.2c-2.9,0-5.4,2-8.2,7.5l-7.4-3.9
		c4.5-10.101,10.601-12.5,15.801-12.5c9.601,0,14.001,8.101,20.201,8.101c2.9,0,5.4-1.9,8.2-7.401L1748.149,489.198z"/>
	<path d="M244.169,782.298v-18.9h-37.702v-8.901h46.604v27.802H244.169z"/>
	<path d="M426.036,811.5v-98.006h10.601V811.5H426.036z"/>
	<path d="M613.604,753.497v-40.002h10.601v40.002H613.604z M613.604,811.5v-45.503h10.601V811.5H613.604z"/>
	<path d="M814.974,778.999c-10.201,0-17.802-8.2-17.802-18.801s7.601-18.802,17.802-18.802c7.8,0,13.601,5.501,18.501,11.601
		c4.9-6.1,10.601-11.601,18.501-11.601c10.101,0,17.801,8.201,17.801,18.802s-7.7,18.801-17.801,18.801
		c-7.9,0-13.601-5.5-18.501-11.601C828.574,773.499,822.773,778.999,814.974,778.999z M815.474,750.296
		c-5.301,0-8.801,4.501-8.801,9.901s3.5,9.9,8.801,9.9c4.6,0,8.4-4.5,12.5-9.9C823.874,754.897,820.073,750.296,815.474,750.296z
		 M851.476,770.098c5.3,0,8.801-4.5,8.801-9.9s-3.501-9.901-8.801-9.901c-4.7,0-8.501,4.601-12.501,9.901
		C842.975,765.598,846.775,770.098,851.476,770.098z"/>
	<path d="M1057.541,795.5l-18.802-35.002l18.802-35.002h11l18.802,35.002l-18.802,35.002H1057.541z M1076.742,760.498
		l-13.701-24.802l-13.701,24.802l13.701,24.901L1076.742,760.498z"/>
	<path d="M1297.812,758.597c0.3-3.2,0.5-6.5,0.5-10.101c0-14.201-5.5-20.701-12.201-20.701c-5.5,0-9.3,2.9-11.4,8.9h-11.801
		c3-10.7,11.701-17.101,24.701-17.101c13.102,0,22.202,11.5,22.202,30.602c0,28.502-12.001,46.803-33.103,46.803
		c-11.801,0-20.701-7.601-20.701-19.801c0-16.802,10.501-27.002,25.502-27.002C1288.211,750.197,1294.611,753.797,1297.812,758.597z
		 M1296.611,766.198c-2.5-4.101-7.9-7.2-13.801-7.2c-10.2,0-15.101,7.9-15.101,17.601c0,7.2,4,12.301,10.601,12.301
		C1286.711,788.899,1293.511,780.598,1296.611,766.198z"/>
	<path d="M1514.479,795.5v-6.801c-4.101,4.2-9.701,7.4-15.401,7.9c-2.601,0.101-5.101-0.199-7.2-0.899V816.3h-11.001v-72.704h11.001
		v34.103c0,7.2,3.1,10.4,9.4,10.4c4.8,0,10.2-2.9,13.201-6v-38.503h11V795.5H1514.479z"/>
	<path d="M1733.348,795.5v-44.203h-23.102V795.5h-11.001v-51.903h45.103V795.5H1733.348z"/>
	<path d="M204.467,1071.5v-8.801l21.602-61.203h12.001l22.601,61.203v8.801H204.467z M235.969,1027.197l-4.601-14.9l-4.399,14.9
		l-11.602,35.502h33.003L235.969,1027.197z"/>
	<path d="M466.869,1071.5v-61.104h-33.202v61.104h-11.601v-70.004h56.403v70.004H466.869z"/>
	<path d="M645.266,1071.5v-8.9l20.901-26.502l-20.901-25.701v-8.9h43.203v8.9h-30.103l16.901,20.801v8.9l-17.801,22.502h31.002v8.9
		H645.266z"/>
	<path d="M887.967,1071.5v-8.9c6.6-4.801,12.9-14.501,12.9-27.802c0-16.801-8.2-25.901-20.001-25.901s-20.002,9.101-20.002,25.901
		c0,13.301,6.201,23.001,12.901,27.802v8.9h-26.002v-8.9h16.801c-8.7-5.7-16.101-17.401-16.101-30.002
		c0-18.201,12.601-32.602,32.402-32.602c19.801,0,32.302,14.4,32.302,32.602c0,12.601-7.501,24.302-16.201,30.002h16.901v8.9
		H887.967z"/>
	<path d="M1097.465,1071.5l-16.101-44.203h-10.101v-7.7h19.201l8.7,25.901l4.4,14.602l4.3-14.602l13.701-44.002h10.4l-23.701,70.004
		H1097.465z"/>
	<path d="M1289.662,1085.1c5.001,0,9.601-2.8,9.601-11v-53.104c0-13.301,8.901-21.001,21.102-21.001v8.7
		c-5,0-9.601,2.8-9.601,11.001v53.103c0,13.301-8.9,21.002-21.102,21.002V1085.1z"/>
	<path d="M1543.965,1057.099c-5.9,9.7-16.602,16-28.902,16c-18.701,0-33.702-14.4-33.702-33.701
		c0-19.302,15.001-33.803,33.702-33.803s33.702,14.501,33.702,33.803h-52.303v23.901c5,4.1,11.5,6.5,18.601,6.5
		c10.201,0,18.901-5,24.202-12.7H1543.965z M1496.462,1036.097h37.302l-0.1-20.602c-5.001-4.1-11.501-6.6-18.602-6.6
		s-13.601,2.5-18.601,6.6V1036.097z"/>
	<path d="M1740.861,1070.7c-3.101,1.399-8.501,2.3-11.601,2.3c-8.001,0-14.201-4.4-14.201-14.4v-8.801c-3,1.7-5.9,3.1-8.7,4.3
		v-7.101c2.899-1.399,5.8-3.1,8.7-4.899v-13.501c0-18.802,6.7-28.602,17.101-28.602c6.501,0,12.901,3.2,12.901,14.301
		c0,10.2-8.701,20.501-19.302,28.602v13.601c0,5.801,2.501,8.601,7.101,8.601c2,0,5.2-0.7,8.001-1.5V1070.7z M1725.76,1033.697
		c5.501-5.4,9.401-11.9,9.401-19.301c0-3.8-0.9-6.801-3.501-6.801c-4.1,0-5.9,8.101-5.9,21.002V1033.697z"/>
	<path d="M211.468,1339.5l4.5-7.101c-5.801-5.101-9.501-12.602-9.501-21.502c0-16.301,12.401-28.201,28.102-28.201
		c4.101,0,8.001,0.899,11.501,2.399l4.601-7.2l7.2,4.4l-4.601,7.301c5.801,5,9.401,12.501,9.401,21.301
		c0,16.302-12.401,28.202-28.103,28.202c-4.1,0-7.9-0.8-11.4-2.2l-4.5,7.101L211.468,1339.5z M220.768,1324.798l20.401-32.103
		c-2-0.699-4.3-1.1-6.601-1.1c-10.7,0-19.201,7.7-19.201,19.301C215.367,1316.597,217.468,1321.398,220.768,1324.798z
		 M253.77,1310.897c0-5.6-2.1-10.4-5.399-13.7l-20.302,32.002c2,0.6,4.2,1,6.5,1C245.27,1330.199,253.77,1322.498,253.77,1310.897z"
		/>
	<path d="M439.121,1292.396c0-9.4,7.001-16.4,16.401-16.4s16.401,7,16.401,16.4s-7.001,16.401-16.401,16.401
		S439.121,1301.796,439.121,1292.396z M464.022,1292.396c0-5.101-3.399-8.9-8.5-8.9s-8.501,3.8-8.501,8.9s3.4,8.9,8.501,8.9
		S464.022,1297.497,464.022,1292.396z"/>
	<path d="M665.677,1303.497v-3c-2.2,1.9-5.501,3.9-10.101,3.9c-6.601,0-9.801-3.7-9.801-8.4c0-5.7,4.5-9.601,15.301-9.601
		c1.4,0,2.9,0.1,4.601,0.3v-3c0-3.601-2.4-5.001-5.101-5.001c-3.9,0-5.601,2.2-5.7,5.101h-8.301c0.1-7.101,6-10.801,14.001-10.801
		c5.7,0,13.301,2.101,13.301,10.001v20.501H665.677z M665.677,1291.296c-1.601-0.101-2.9-0.2-4.2-0.2c-5.801,0-7.501,2-7.501,4.101
		c0,2.3,1.601,3.5,4.601,3.5s5.8-1.7,7.101-2.801V1291.296z"/>
	<path d="M845.43,1288.696c0-9.4,6.101-15.701,15.601-15.701c9.4,0,15.401,6.301,15.401,15.701c0,9.301-6.001,15.701-15.401,15.701
		C851.53,1304.397,845.43,1297.997,845.43,1288.696z M868.131,1288.696c0-6.9-2.6-10.001-7.101-10.001c-4.6,0-7.2,3.101-7.2,10.001
		c0,6.801,2.601,9.9,7.2,9.9C865.531,1298.596,868.131,1295.497,868.131,1288.696z"/>
	<path d="M1051.083,1303.997l-1.5-26.501h10.801l-1.6,26.501H1051.083z"/>
	<path d="M1238.337,1303.997l-1.5-26.501h10.801l-1.6,26.501H1238.337z M1254.538,1303.997l-1.5-26.501h10.801l-1.601,26.501
		H1254.538z"/>
	<path d="M1439.29,1357.9v-8.9h42.003v8.9H1439.29z"/>
	<path d="M1655.745,1324.298v-8.9h92.006v8.9H1655.745z"/>
	<path d="M205.467,1600.298v-8.9h42.003v8.9H205.467z"/>
	<path d="M430.393,1600.298v-8.9h24.302v8.9H430.393z"/>
	<path d="M638.617,1601.198v-9.7l24.002-19.401v12.001l-14.901,12.001l14.901,11.9v12.601L638.617,1601.198z"/>
	<path d="M846.544,1620.599v-12.001l14.901-12l-14.901-11.901v-12.601l24.002,19.401v9.7L846.544,1620.599z"/>
	<path d="M1054.47,1601.198v-9.7l24.002-19.401v12.001l-14.901,12.001l14.901,11.9v12.601L1054.47,1601.198z M1077.271,1601.198
		v-9.7l24.001-19.401v12.001l-14.9,12.001l14.9,11.9v12.601L1077.271,1601.198z"/>
	<path d="M1285.194,1620.599v-12.001l14.901-12l-14.901-11.901v-12.601l24.002,19.401v9.7L1285.194,1620.599z M1307.996,1620.599
		v-12.001l14.9-12l-14.9-11.901v-12.601l24.001,19.401v9.7L1307.996,1620.599z"/>
	<path d="M1514.02,1639.5l7.3-25.901h11.401l-9.501,25.901H1514.02z"/>
	<path d="M1712.845,1639.5l7.3-25.901h11.401l-9.501,25.901H1712.845z M1729.945,1639.5l7.301-25.901h11.4l-9.501,25.901H1729.945z"
		/>
	<path d="M204.567,1839.396l7.3-25.901h11.401l-9.501,25.901H204.567z"/>
	<path d="M386.452,1839.396l7.3-25.901h11.401l-9.501,25.901H386.452z M403.553,1839.396l7.301-25.901h11.4l-9.501,25.901H403.553z"
		/>
	<path d="M585.438,1839.396l9.5-25.901h9.201l-7.301,25.901H585.438z"/>
	<path d="M767.322,1839.396l9.5-25.901h9.201l-7.301,25.901H767.322z M784.423,1839.396l9.501-25.901h9.2l-7.301,25.901H784.423z"/>
	<path d="M952.708,1915.5l2-27.401h11.001l-3.9,27.401H952.708z"/>
	<path d="M1139.493,1901c-4.101,0-7.2-3-7.2-7.2s3.1-7.2,7.2-7.2c4.1,0,7.2,3,7.2,7.2S1143.593,1901,1139.493,1901z"/>
	<path d="M1320.478,1860.797c-4.101,0-7.2-3-7.2-7.2c0-4.201,3.1-7.201,7.2-7.201c4.1,0,7.2,3,7.2,7.201
		C1327.678,1857.797,1324.577,1860.797,1320.478,1860.797z M1320.478,1901c-4.101,0-7.2-3-7.2-7.2s3.1-7.2,7.2-7.2
		c4.1,0,7.2,3,7.2,7.2S1324.577,1901,1320.478,1901z"/>
	<path d="M1501.462,1860.797c-4.101,0-7.2-3-7.2-7.2c0-4.201,3.1-7.201,7.2-7.201c4.1,0,7.2,3,7.2,7.201
		C1508.662,1857.797,1505.562,1860.797,1501.462,1860.797z M1494.262,1914.1l2-26.001h11l-3.9,26.001H1494.262z"/>
	<path d="M1682.446,1901c-4.101,0-7.2-3-7.2-7.2s3.1-7.2,7.2-7.2c4.1,0,7.2,3,7.2,7.2S1686.546,1901,1682.446,1901z M1711.147,1901
		c-4.1,0-7.2-3-7.2-7.2s3.101-7.2,7.2-7.2c4.101,0,7.101,3,7.101,7.2S1715.248,1901,1711.147,1901z M1739.75,1901
		c-4.101,0-7.201-3-7.201-7.2s3.101-7.2,7.201-7.2c4.1,0,7.2,3,7.2,7.2S1743.85,1901,1739.75,1901z"/>
	<path d="M221.668,2153.898c-4-20.201,17.201-15.102,17.201-31.502c0-6.4-4.101-9.701-10.4-9.701c-5.801,0-10.401,3.4-11.201,11.301
		h-12.101c0.7-12.6,9.801-20,23.302-20s22.301,6.7,22.301,18.401c0,19.9-21.801,16.201-17.801,31.502H221.668z M227.469,2177
		c-4.101,0-7.201-3-7.201-7.201c0-4.199,3.101-7.199,7.201-7.199c4.1,0,7.2,3,7.2,7.199C234.669,2174,231.568,2177,227.469,2177z"/>
	<path d="M480.865,2177.799c-0.8,12.602-9.8,20.002-23.401,20.002c-13.5,0-22.201-6.701-22.201-18.4
		c0-19.902,21.701-16.201,17.701-31.502h11.301c4,20.201-17.101,15.1-17.101,31.502c0,6.4,4.1,9.699,10.3,9.699
		c5.801,0,10.501-3.4,11.201-11.301H480.865z M458.465,2139.197c-4.101,0-7.101-3-7.101-7.201c0-4.199,3-7.199,7.101-7.199
		c4.1,0,7.2,3,7.2,7.199C465.665,2136.197,462.564,2139.197,458.465,2139.197z"/>
	<path d="M677.061,2177c-4.101,0-7.2-3-7.2-7.201c0-4.199,3.1-7.199,7.2-7.199s7.2,3,7.2,7.199
		C684.261,2174,681.161,2177,677.061,2177z M672.761,2153.898l-2.001-48.403h12.701l-2,48.403H672.761z"/>
	<path d="M885.557,2139.197c-4.101,0-7.2-3-7.2-7.201c0-4.199,3.1-7.199,7.2-7.199s7.2,3,7.2,7.199
		C892.757,2136.197,889.657,2139.197,885.557,2139.197z M879.256,2196.301l2.001-48.402h8.7l2,48.402H879.256z"/>
	<path d="M1104.055,2188c-9.701-9-20.002-25.502-20.002-47.502c0-22.002,10.301-38.503,20.002-47.503h10.5
		c-11.101,11.101-18.101,30.101-18.101,47.503c0,17.4,7,36.402,18.101,47.502H1104.055z"/>
	<path d="M1291.249,2188c11.101-11.1,18.102-30.102,18.102-47.502c0-17.402-7.001-36.403-18.102-47.503h10.501
		c9.601,9,20.001,25.501,20.001,47.503c0,22-10.4,38.502-20.001,47.502H1291.249z"/>
	<path d="M1516.248,2188v-95.005h21.501v7.601h-9.9v79.805h9.9v7.6H1516.248z"/>
	<path d="M1718.244,2188v-7.6h10.001v-79.805h-10.001v-7.601h21.501V2188H1718.244z"/>
	<path d="M235.068,2464c-11.7,0-18.801-5.699-18.801-16.4v-18.402c0-5.199-2.9-8.6-10-8.6v-8.201c7.1,0,10-3.4,10-8.6v-18.402
		c0-10.699,7.101-16.4,18.801-16.4h2.7v7.602h-2.7c-5.399,0-7.2,4.299-7.2,7.799v18.502c0,6.701-3.8,12.201-9,13.602
		c5.2,1.4,9,7,9,13.699v18.402c0,3.5,1.801,7.801,7.2,7.801h2.7v7.6H235.068z"/>
	<path d="M415.894,2464v-7.6h2.8c5.4,0,7.201-4.301,7.201-7.801v-18.402c0-6.699,3.8-12.299,9-13.699c-5.2-1.4-9-6.9-9-13.602
		v-18.502c0-3.5-1.801-7.799-7.201-7.799h-2.8v-7.602h2.8c11.701,0,18.701,5.701,18.701,16.4v18.402c0,5.199,2.9,8.6,10.001,8.6
		v8.201c-7.101,0-10.001,3.4-10.001,8.6v18.402c0,10.701-7,16.4-18.701,16.4H415.894z"/>
	<path d="M638.32,2464v-95.006h23.102v7.602h-7.201v79.805h7.201v7.6H638.32z M647.921,2376.596h-3.301v79.805h3.301V2376.596z"/>
	<path d="M839.545,2464v-7.6h7.301v-79.805h-7.301v-7.602h23.102V2464H839.545z M856.346,2376.596h-3.2v79.805h3.2V2376.596z"/>
	<path d="M1050.77,2455.5l31.502-78.006h11.301l-31.502,78.006H1050.77z"/>
	<path d="M1303.197,2455.5l-31.502-78.006h11.301l31.502,78.006H1303.197z"/>
	<path d="M1518.922,2403.797l2.8,15.602h-11.101l2.9-15.602l-12.301,10.301l-5.601-9.502l14.602-5.199l-14.602-5.301l5.601-9.6
		l12.201,10.4l-2.801-15.4h11.101l-2.8,15.4l12.201-10.4l5.6,9.6l-14.7,5.301l14.7,5.199l-5.6,9.502L1518.922,2403.797z"/>
	<path d="M1733.847,2429.498c-7.101,0-13.001-5.4-13.001-13c0-7.502,5.9-13.002,13.001-13.002c7.001,0,12.901,5.5,12.901,13.002
		C1746.748,2424.098,1740.848,2429.498,1733.847,2429.498z"/>
	<path d="M246.069,2668.496c-0.8-9.301-5.7-12.801-13.801-12.801c-7.4,0-13.001,2.801-13.001,9.201c0,8.1,7.4,9.299,15.801,10.301
		c11.001,1.299,23.902,2.799,23.902,16.699c0,5.602-3.501,10.301-8.101,13.602c3.8,2.6,6.4,6.701,6.4,13.301
		c0,11.801-10.301,19.201-24.401,19.201c-16.102,0-25.102-7.4-26.002-21.4h12.201c0.8,9.199,5.7,12.699,13.801,12.699
		c7.4,0,13-2.799,13-9.199c0-8.102-7.4-9.301-15.801-10.301c-11-1.301-23.901-2.801-23.901-16.602c0-5.6,3.5-10.4,8.101-13.701
		c-3.9-2.6-6.4-6.6-6.4-13.301c0-11.801,10.301-19.201,24.401-19.201c16.102,0,25.102,7.4,25.901,21.502H246.069z M248.17,2693.998
		c0-7.301-6.9-8.4-14.901-9.301c-4.1-0.5-8.5-1.1-12.4-2.201c-2.301,1.9-3.9,5.602-3.9,8.502c0,7.299,6.801,8.4,14.901,9.301
		c4.1,0.5,8.5,1.1,12.4,2.299C246.47,2700.598,248.17,2696.898,248.17,2693.998z"/>
	<path d="M465.697,2727.5v-44.104h-14.101v-8.9h14.101v-17h11.601v17h14.101v8.9h-14.101v44.104H465.697z"/>
	<path d="M699.027,2727.5v-17.002h-14.101v-8.9h14.101v-18.201h-14.101v-8.9h14.101v-17h11.601v17h14.101v8.9h-14.101v18.201h14.101
		v8.9h-14.101v17.002H699.027z"/>
	<path d="M961.758,2727.5v-61.305h-7.4v61.305h-9.2v-30.502h-3.9c-11.601,0-23.201-5.801-23.201-19.701s11.601-19.801,23.201-19.801
		h29.702v70.004H961.758z"/>
	<path d="M1204.789,2729c-20.901,0-36.503-16.402-36.503-36.502c0-20.102,15.602-36.502,36.503-36.502
		c20.9,0,36.502,16.4,36.502,36.502C1241.291,2712.598,1225.689,2729,1204.789,2729z M1233.79,2692.498
		c0-16.402-12.601-29.703-29.001-29.703c-16.401,0-29.002,13.301-29.002,29.703c0,16.4,12.601,29.701,29.002,29.701
		C1221.189,2722.199,1233.79,2708.898,1233.79,2692.498z M1221.39,2699.498c-1.2,10-8,14.5-16.901,14.5
		c-11.801,0-18.201-8.4-18.201-21.5c0-13.002,7.4-21.402,18.201-21.402c8.901,0,15.701,4.4,16.901,14.502h-8.7
		c-0.801-5.701-3.2-8.301-8.201-8.301c-5.8,0-9.7,5.301-9.7,15.201s3.4,15.301,9.7,15.301c5.001,0,7.4-2.602,8.201-8.301H1221.39z"
		/>
	<path d="M1470.118,2729c-20.901,0-36.503-16.402-36.503-36.502c0-20.102,15.602-36.502,36.503-36.502s36.502,16.4,36.502,36.502
		C1506.62,2712.598,1491.02,2729,1470.118,2729z M1499.119,2692.498c0-16.402-12.601-29.703-29.001-29.703
		c-16.401,0-29.002,13.301-29.002,29.703c0,16.4,12.601,29.701,29.002,29.701
		C1486.519,2722.199,1499.119,2708.898,1499.119,2692.498z M1458.017,2713.199v-41.303h13.602c7.601,0,15.7,4.1,15.7,13.5
		c0,9.102-8.1,13.4-15.7,13.4h-5.601v14.402H1458.017z M1471.618,2692.697c4.5,0,7.601-2.4,7.601-7.301c0-5.1-3.101-7.4-7.601-7.4
		h-5.601v14.701H1471.618z"/>
	<path d="M1722.847,2703.598c-13.7,0-23.901-10.6-23.901-23.801s10.201-23.801,23.901-23.801c13.701,0,23.901,10.6,23.901,23.801
		S1736.548,2703.598,1722.847,2703.598z M1740.648,2679.797c0-10-7.701-18.301-17.802-18.301c-10.2,0-17.801,8.301-17.801,18.301
		c0,10.1,7.601,18.301,17.801,18.301C1732.947,2698.098,1740.648,2689.896,1740.648,2679.797z M1727.147,2692.197l-6.2-9.701h-1.4
		v9.701h-5.7v-25.502h8.7c4.7,0,10.001,2.201,10.001,7.801c0,4.1-2.7,6.4-5.9,7.4l6.9,10.301H1727.147z M1722.547,2677.996
		c2.801,0,4.301-1.1,4.301-3.5c0-2.199-1.5-3.4-4.301-3.4h-3v6.9H1722.547z"/>
	<path d="M214.268,2963.396v-24.602h-7.801v-5.299h22.302v5.299h-8.001v24.602H214.268z M258.07,2963.396v-9.5l0.1-8.301l-7,16.4
		h-4.5l-7.4-16.9l0.1,8.9v9.4h-6.101v-29.9h7.001l8.8,20.6l8.801-20.6h6.601v29.9H258.07z"/>
	<path d="M466.181,2941.896c-0.3-3.102-2.5-3.801-5.001-3.801c-2.1,0-4.8,0.5-4.8,3.1c0,2.801,3.101,3.201,6.801,4
		c4.6,0.801,10.2,1.9,10.2,9.301c0,5.9-5,9.701-11.4,9.701c-7.001,0-12.001-3.1-12.401-9.801h6.801c0.5,3.801,2.9,4.4,5.601,4.4
		c2.1,0,4.9-0.801,4.9-3.801c0-2.9-3.001-3.299-6.701-4c-4.6-0.9-10.3-2-10.3-9.301c0-5.5,4.8-9,11.3-9
		c6.9,0,11.501,3.1,11.901,9.201H466.181z M502.982,2963.396v-9.5l0.2-8.301l-7,16.4h-4.501l-7.5-16.9l0.2,8.9v9.4h-6.101v-29.9h6.9
		l8.9,20.6l8.801-20.6h6.5v29.9H502.982z"/>
	<path d="M763.696,3021.5c-5.7,2.102-17.001,4.301-26.401,4.301c-21.401,0-41.803-13.201-41.803-40.602
		c0-30.502,22.602-53.203,56.404-53.203c20.601,0,37.702,13.4,37.702,34.602c0,26.301-17.602,38.402-30.002,38.402
		c-5.301,0-9.9-2.1-10.701-7.4c-5.8,5.199-10.9,7.4-17.001,7.4c-8,0-14.7-7.102-14.7-20.801c0-22.502,14-34.203,27.102-34.203
		c4.5,0,8.7,2.301,11.2,6l0.8-4.4h11.001l-7,39.902c-0.7,4.002,0.699,6.002,3,6.002c8.301,0,16.201-13.402,16.201-29.803
		c0-16.201-10.101-28.402-29.502-28.402c-24.302,0-44.303,17.602-44.303,44.303c0,24.002,14.4,34.902,34.302,34.902
		c8.101,0,19.401-2.1,24.901-4.199L763.696,3021.5z M754.296,2963.098c-2.3-3.102-5.5-4.701-9.4-4.701
		c-8,0-16.201,8.201-16.201,24.701c0,9.301,4.2,13.502,8.501,13.502c4.5,0,8.7-2.102,12.101-5.102L754.296,2963.098z"/>
	<path d="M1033.408,2966.396c0,8.4-2.3,16.602-6.5,23.402l14.101,13.701h-15.001l-5.9-5.602c-5.1,4.4-11.5,7.102-19.001,7.102
		c-13.801,0-25.001-7.201-25.001-20.201c0-8,4.4-14.9,11.2-19.201c-3.4-4.201-6.101-9.102-6.101-14.9
		c0-10.402,8.801-18.701,21.102-18.701c13.801,0,21.802,6.4,22.602,19.201h-12.101c-0.8-8.201-5.001-10.502-10.501-10.502
		c-5.4,0-9.7,3.4-9.7,9.201c0,4.1,1.7,7.9,6.7,12.801l20.102,19.701c1.7-4.6,2.6-10.102,2.6-16.002H1033.408z M1013.707,2991.6
		l-20.601-20.002c-4.101,2.9-5.9,6.701-5.9,12c0,7.701,6.4,12.701,14.2,12.701C1006.407,2996.299,1010.507,2994.6,1013.707,2991.6z"
		/>
	<path d="M1221.218,2971.398v-8.902h92.006v8.902H1221.218z"/>
	<path d="M1496.331,2971.398v-8.902h42.003v8.902H1496.331z"/>
	<path d="M1722.445,2971.398v-8.902h24.302v8.902H1722.445z"/>
	<path d="M206.467,3248.197v-9.701l24.002-19.4v12l-14.901,12.002l14.901,11.9v12.602L206.467,3248.197z"/>
	<path d="M400.05,3267.6v-12.002l14.901-12l-14.901-11.9v-12.602l24.002,19.4v9.701L400.05,3267.6z"/>
	<path d="M593.633,3248.197v-9.701l24.002-19.4v12l-14.901,12.002l14.901,11.9v12.602L593.633,3248.197z M616.435,3248.197v-9.701
		l24.001-19.4v12l-14.9,12.002l14.9,11.9v12.602L616.435,3248.197z"/>
	<path d="M810.015,3267.6v-12.002l14.901-12l-14.901-11.9v-12.602l24.002,19.4v9.701L810.015,3267.6z M832.816,3267.6v-12.002
		l14.9-12l-14.9-11.9v-12.602l24.001,19.4v9.701L832.816,3267.6z"/>
	<path d="M1071,3260.998c-0.801,12.602-9.801,20.002-23.402,20.002c-13.5,0-22.201-6.701-22.201-18.402
		c0-19.9,21.701-16.199,17.701-31.502h11.301c4,20.201-17.101,15.102-17.101,31.502c0,6.4,4.1,9.701,10.3,9.701
		c5.801,0,10.501-3.4,11.201-11.301H1071z M1041.498,3215.195c0-4.199,3-7.199,7.1-7.199c4.101,0,7.201,3,7.201,7.199
		c0,4.201-3.101,7.201-7.201,7.201C1044.498,3222.396,1041.498,3219.396,1041.498,3215.195z"/>
	<path d="M1250.28,3222.396c-4.101,0-7.2-3-7.2-7.201c0-4.199,3.1-7.199,7.2-7.199s7.2,3,7.2,7.199
		C1257.48,3219.396,1254.381,3222.396,1250.28,3222.396z M1243.979,3279.5l2.001-48.404h8.7l2,48.404H1243.979z"/>
	<path d="M1500.065,3289.5c-5.7,2.1-17.001,4.301-26.401,4.301c-21.401,0-41.803-13.201-41.803-40.604
		c0-30.502,22.602-53.203,56.404-53.203c20.601,0,37.702,13.4,37.702,34.604c0,26.301-17.602,38.402-30.002,38.402
		c-5.301,0-9.9-2.102-10.701-7.4c-5.8,5.199-10.9,7.4-17.001,7.4c-8,0-14.7-7.102-14.7-20.803c0-22.5,14-34.201,27.102-34.201
		c4.5,0,8.7,2.301,11.2,6l0.8-4.4h11.001l-7,39.902c-0.7,4,0.699,6,3,6c8.301,0,16.201-13.4,16.201-29.801
		c0-16.201-10.101-28.402-29.502-28.402c-24.302,0-44.303,17.602-44.303,44.303c0,24.002,14.4,34.902,34.302,34.902
		c8.101,0,19.401-2.1,24.901-4.201L1500.065,3289.5z M1490.665,3231.096c-2.3-3.1-5.5-4.699-9.4-4.699
		c-8,0-16.201,8.201-16.201,24.701c0,9.301,4.2,13.5,8.501,13.5c4.5,0,8.7-2.1,12.101-5.1L1490.665,3231.096z"/>
	<path d="M1744.247,3250.797c0,6.301-1.9,12.502-5.301,17.701l11.701,11.002h-13.801l-4.301-3.9c-4.3,3.301-9.7,5.4-15.9,5.4
		c-11.601,0-19.701-6-19.701-16.002c0-6.1,3.6-11.4,9-14.801c-2.7-3.199-4.9-7.1-4.9-11.6c0-8.102,7.201-14.801,17.501-14.801
		c10.901,0,18.201,5.4,18.901,15.4h-11.2c-0.601-6.1-3.601-7.5-7.701-7.5c-3.8,0-6.8,2.199-6.8,6.299c0,3.201,1.6,6.301,5.5,9.902
		l14.801,14c1-3.199,1.601-7,1.601-11.102H1744.247z M1726.746,3270.1l-15.701-14.902c-2.601,2.301-3.9,5.002-3.9,8.801
		c0,6.102,5.101,9.102,10.4,9.102C1721.346,3273.1,1724.346,3272,1726.746,3270.1z"/>
	<path d="M218.268,3538.398c-3.2-15.602,13.801-11.301,13.801-24.002c0-5-3.4-6.699-7.601-6.699c-3.8,0-7.5,1.799-8.2,7.9h-11.101
		c0.6-9.801,8.501-15.801,19.301-15.801c10.901,0,18.401,5.5,18.401,14.6c0,15.102-17.301,12.502-14.101,24.002H218.268z
		 M223.269,3557c-3.601,0-6.301-2.6-6.301-6.301c0-3.6,2.7-6.201,6.301-6.201c3.8,0,6.4,2.602,6.4,6.201
		C229.669,3554.4,227.068,3557,223.269,3557z"/>
	<path d="M444.167,3541.199c-0.6,9.801-8.5,15.801-19.301,15.801s-18.401-5.4-18.401-14.602c0-15.102,17.401-12.5,14.201-24.002
		h10.501c3.2,15.602-13.901,11.301-13.901,24.002c0,5,3.4,6.701,7.601,6.701c3.8,0,7.601-1.701,8.2-7.9H444.167z M426.066,3512.297
		c-3.7,0-6.4-2.6-6.4-6.201c0-3.6,2.7-6.299,6.4-6.299c3.6,0,6.3,2.699,6.3,6.299
		C432.366,3509.697,429.666,3512.297,426.066,3512.297z"/>
	<path d="M618.663,3557c-3.7,0-6.4-2.6-6.4-6.301c0-3.6,2.7-6.201,6.4-6.201s6.3,2.602,6.3,6.201
		C624.963,3554.4,622.363,3557,618.663,3557z M614.463,3538.398l-1.601-37.203h11.601l-1.6,37.203H614.463z"/>
	<path d="M804.66,3512.197c-3.7,0-6.4-2.6-6.4-6.201c0-3.6,2.7-6.301,6.4-6.301s6.3,2.701,6.3,6.301
		C810.96,3509.598,808.36,3512.197,804.66,3512.197z M798.859,3555.5l1.601-37.203h8.4l1.6,37.203H798.859z"/>
	<path d="M993.557,3525.197c-7.501,0-13.102-5.4-13.102-12.701c0-7.299,5.601-12.699,13.102-12.699c7.5,0,13.101,5.4,13.101,12.699
		C1006.657,3519.797,1001.057,3525.197,993.557,3525.197z M999.656,3512.496c0-3.5-2.5-6.199-6.1-6.199
		c-3.601,0-6.101,2.699-6.101,6.199c0,3.502,2.5,6.201,6.101,6.201C997.156,3518.697,999.656,3515.998,999.656,3512.496z"/>
	<path d="M1173.454,3521.797l-1.2-20.602h9.901l-1.2,20.602H1173.454z"/>
	<path d="M1348.952,3521.797l-1.2-20.602h9.901l-1.2,20.602H1348.952z M1362.953,3521.797l-1.2-20.602h9.9l-1.199,20.602H1362.953z"
		/>
	<path d="M1536.849,3508.896l5.9-20.102h10.5l-7.601,20.102H1536.849z"/>
	<path d="M1717.246,3508.896l5.9-20.102h10.5l-7.601,20.102H1717.246z M1732.446,3508.896l5.801-20.102h10.501l-7.501,20.102
		H1732.446z"/>
	<path d="M206.067,3784.896l7.601-20.102h8.8l-5.8,20.102H206.067z"/>
	<path d="M382.577,3784.896l7.601-20.102h8.8l-5.8,20.102H382.577z M397.777,3784.896l7.501-20.102h8.801l-5.801,20.102H397.777z"/>
	<path d="M588.688,3821.498v-14.1h-14.901v-8.201h14.901v-14.1h8.301v14.1h14.9v8.201h-14.9v14.1H588.688z"/>
	<path d="M773.596,3807.398v-8.201h38.103v8.201H773.596z"/>
	<path d="M973.404,3798.398v-8.201h38.103v8.201H973.404z M973.404,3816.398v-8.201h38.103v8.201H973.404z"/>
	<path d="M1190.214,3841.199c-7.7-7-16.001-19.801-16.001-36.801c0-17.002,8.301-29.902,16.001-36.803h10.001
		c-8.9,8.6-14.501,23.301-14.501,36.803c0,13.5,5.601,28.201,14.501,36.801H1190.214z"/>
	<path d="M1352.123,3841.199c8.901-8.6,14.501-23.301,14.501-36.801c0-13.502-5.6-28.203-14.501-36.803h10.101
		c7.701,6.9,15.901,19.801,15.901,36.803c0,17-8.2,29.801-15.901,36.801H1352.123z"/>
	<path d="M1547.835,3841.199v-73.604h18.101v7.1h-7.2v59.404h7.2v7.1H1547.835z"/>
	<path d="M1721.644,3841.199v-7.1h7.101v-59.404h-7.101v-7.1h18.102v73.604H1721.644z"/>
	<path d="M230.169,4117.199c-9.701,0-15.901-4.699-15.901-12.9v-13.9c0-4.1-2.3-6.4-8-6.4v-7.301c5.7,0,8-2.199,8-6.301v-13.801
		c0-8.4,6.2-13,15.901-13h2.2v7.1h-1.4c-4.301,0-5.801,3-5.801,5.801v13.201c0,5.201-3,9.6-7.2,10.701c4.2,1.1,7.2,5.5,7.2,10.699
		v13.201c0,2.701,1.5,5.801,5.801,5.801h1.4v7.1H230.169z"/>
	<path d="M386.366,4117.199v-7.1h1.4c4.3,0,5.7-3.1,5.7-5.801v-13.201c0-5.199,3.101-9.6,7.301-10.699
		c-4.2-1.102-7.301-5.5-7.301-10.701v-13.201c0-2.801-1.4-5.801-5.7-5.801h-1.4v-7.1h2.2c9.7,0,15.901,4.6,15.901,13v13.801
		c0,4.102,2.3,6.301,8,6.301v7.301c-5.7,0-8,2.301-8,6.4v13.9c0,8.201-6.201,12.9-15.901,12.9H386.366z"/>
	<path d="M569.266,4110.6l25.201-60.504h10.701l-25.201,60.504H569.266z"/>
	<path d="M784.365,4110.6l-25.201-60.504h10.701l25.201,60.504H784.365z"/>
	<path d="M952.062,4082.998v-7.9h74.205v7.9H952.062z"/>
	<path d="M1186.262,4082.998v-7.9h33.902v7.9H1186.262z"/>
	<path d="M1380.161,4082.998v-7.9h20.602v7.9H1380.161z"/>
</g>
</svg>
